<svg width="162" height="188" viewBox="0 0 162 188" fill="none" xmlns="http://www.w3.org/2000/svg">
<circle cx="80.6445" cy="99" r="80" fill="#EBF5FA"/>
<path d="M64.4394 13.5081C46.6574 14.8023 27.2458 17.1508 13.0586 22.6148L17.564 53.0023C17.564 53.0023 45.1237 43.1288 67.5548 43.7998L64.4394 13.5081Z" fill="#4C88FF"/>
<g opacity="0.8">
<g opacity="0.8">
<g opacity="0.8">
<path d="M64.4394 13.5081C46.6574 14.8023 27.2458 17.1508 13.0586 22.6148L17.564 53.0023C17.564 53.0023 45.1237 43.1288 67.5548 43.7998L64.4394 13.5081Z" fill="white"/>
</g>
</g>
</g>
<path d="M63.1431 39.8216C63.1431 39.8216 63.0951 39.8216 62.9513 39.8695C62.8075 39.8695 62.6638 39.9175 62.4241 39.9175C61.9448 39.9654 61.3217 40.0613 60.5069 40.1571C59.6442 40.253 58.6376 40.3968 57.4394 40.5405C56.2412 40.7323 54.8991 40.8761 53.3654 41.1157C47.3741 42.0264 39.1302 43.5601 30.1673 45.9087C27.0519 46.7235 24.0323 47.5383 21.3003 48.401L21.1565 48.449V48.3052C20.1979 41.3554 19.2872 35.3162 18.5683 31.0504C18.1848 28.9415 17.8973 27.216 17.7055 26.0657C17.6097 25.4906 17.5138 25.0592 17.4659 24.7237C17.4659 24.5799 17.418 24.484 17.418 24.3882C17.418 24.2923 17.418 24.2923 17.418 24.2923C17.418 24.2923 17.418 24.3403 17.4659 24.3882C17.4659 24.484 17.5138 24.5799 17.5618 24.7237C17.6097 25.0592 17.7055 25.4906 17.8493 26.0657C18.089 27.216 18.3766 28.8936 18.76 31.0504C19.5269 35.3162 20.4855 41.3074 21.4441 48.3052L21.3003 48.2093C24.0802 47.3466 27.0519 46.4839 30.1673 45.717C39.1302 43.4163 47.4221 41.8826 53.4133 41.0198C54.8991 40.7802 56.2891 40.6364 57.4873 40.4447C58.6856 40.3009 59.6921 40.1571 60.5548 40.1092C61.3697 40.0133 62.0407 39.9654 62.52 39.9175C62.7117 39.9175 62.9034 39.8695 63.0472 39.8695C63.0951 39.8216 63.1431 39.8216 63.1431 39.8216Z" fill="#4C88FF"/>
<path d="M63.7719 32.3925C63.7719 32.3925 63.724 32.2008 63.5802 31.7695C63.4364 31.386 63.1488 30.8109 62.6695 30.1878C62.1902 29.5647 61.4712 28.8937 60.5126 28.3185C60.273 28.1747 60.0334 28.0309 59.7458 27.8871C59.4582 27.7913 59.1706 27.6475 58.883 27.5516C58.2599 27.3599 57.5889 27.264 56.9179 27.3599C56.2469 27.4558 55.5279 27.6954 54.9049 28.1747C54.2818 28.6061 53.7545 29.2292 53.2752 29.9481C52.3166 31.3381 51.7415 33.0156 51.0225 34.789C50.6391 35.6518 50.1598 36.5624 49.345 37.1855C48.9616 37.521 48.4823 37.7607 47.955 37.8565C47.4278 37.9524 46.9006 37.8565 46.3733 37.6648C44.3603 36.85 43.4496 34.5494 41.3886 33.8304C40.3821 33.4949 39.2797 33.6387 38.3691 34.0701C37.8898 34.3097 37.5063 34.5973 37.1708 34.9808C36.8353 35.3642 36.5956 35.7956 36.356 36.2749C35.8767 37.1855 35.5412 38.192 34.7743 38.8631C34.3909 39.1986 33.9116 39.4382 33.3843 39.4862C32.8571 39.5341 32.3778 39.3903 31.9465 39.1986C31.0837 38.7672 30.4127 38.0003 29.9813 37.2335C29.502 36.4666 29.2624 35.6038 28.9269 34.837C28.6393 34.0701 28.3038 33.3032 27.8724 32.6801C27.441 32.057 26.9138 31.5298 26.2907 31.1943C25.0446 30.5712 23.6546 30.6671 22.6481 31.1464C21.5936 31.5777 20.8267 32.2008 20.3474 32.8239C19.8202 33.447 19.5805 34.0222 19.4847 34.4056C19.3409 34.789 19.3409 35.0287 19.293 34.9808C19.293 34.9808 19.293 34.7411 19.3888 34.3577C19.4847 33.9742 19.7243 33.3511 20.2516 32.728C20.7309 32.105 21.5457 31.4339 22.6001 31.0026C23.6067 30.5233 25.0925 30.3795 26.3866 31.0984C27.0576 31.4339 27.6328 31.9612 28.0641 32.6322C28.4955 33.3032 28.831 34.0701 29.1186 34.837C29.4541 35.6038 29.7417 36.4186 30.173 37.1855C30.6523 37.9045 31.2754 38.6234 32.0902 39.0548C32.4737 39.2465 32.953 39.3903 33.3843 39.3424C33.8636 39.2944 34.295 39.1027 34.6305 38.7672C35.3495 38.1441 35.685 37.1376 36.1643 36.2269C36.4039 35.7476 36.6436 35.3163 36.9791 34.8849C37.3146 34.4535 37.746 34.118 38.2732 33.8784C39.2318 33.3991 40.43 33.2553 41.4845 33.6387C42.5869 33.9742 43.3538 34.837 44.0727 35.6038C44.7917 36.3707 45.5106 37.1376 46.4692 37.521C46.9485 37.7128 47.4278 37.7607 47.9071 37.7128C48.3864 37.6169 48.8178 37.3772 49.2012 37.0897C49.9681 36.5145 50.4474 35.6518 50.8308 34.789C51.5498 33.0636 52.1729 31.3381 53.1315 29.9481C53.6107 29.2292 54.138 28.6061 54.809 28.1747C55.4321 27.6954 56.199 27.4558 56.9179 27.3599C57.6369 27.264 58.3558 27.3599 58.9789 27.5516C59.3144 27.6475 59.602 27.7913 59.8416 27.8871C60.1292 28.0309 60.3689 28.1268 60.6085 28.3185C61.5671 28.9416 62.2861 29.6126 62.7654 30.2836C63.2447 30.9067 63.5322 31.4819 63.6281 31.9132C63.676 32.105 63.7239 32.2487 63.7719 32.3925C63.7719 32.3925 63.7239 32.3446 63.7719 32.3925Z" fill="#4C88FF"/>
<path d="M16.6532 28.4144C16.6532 28.4624 16.4135 28.6061 16.1259 28.6541C15.8384 28.702 15.5987 28.702 15.5508 28.6541C15.5508 28.6061 15.7904 28.4624 16.078 28.4144C16.4135 28.3665 16.6532 28.3665 16.6532 28.4144Z" fill="#4C88FF"/>
<path d="M17.4209 33.9744C17.4688 34.0223 17.2771 34.1661 17.0375 34.3099C16.7978 34.4057 16.5582 34.4537 16.5582 34.4057C16.5102 34.3578 16.702 34.214 16.9416 34.0702C17.1813 33.9744 17.4209 33.9264 17.4209 33.9744Z" fill="#4C88FF"/>
<path d="M18.4252 40.0613C18.4252 40.1092 18.2814 40.253 18.0418 40.3489C17.8021 40.4448 17.5625 40.4448 17.5625 40.3968C17.5625 40.3489 17.7063 40.2051 17.9459 40.1092C18.1856 40.0134 18.4252 39.9655 18.4252 40.0613Z" fill="#4C88FF"/>
<path d="M19.6266 46.0048C19.6266 46.0527 19.4348 46.1965 19.1952 46.2924C18.9076 46.3882 18.668 46.3882 18.668 46.3403C18.668 46.2924 18.8597 46.1486 19.0993 46.0527C19.339 45.9568 19.5786 45.9569 19.6266 46.0048Z" fill="#4C88FF"/>
<path d="M53.1328 17.3427C53.1328 17.3427 53.3245 17.2469 53.708 17.1989C54.0914 17.151 54.6666 17.0552 55.3376 16.9593C56.7755 16.7676 58.7885 16.48 61.233 16.1924H61.3288V16.2883C61.5205 18.3493 61.7123 20.6978 61.9519 23.1902V23.286V23.4298H61.856C58.9323 23.7653 56.2003 24.1008 53.8997 24.3884H53.8038V24.2926C53.5642 22.2316 53.3725 20.4582 53.2766 19.212C53.2287 18.6368 53.1807 18.1575 53.1328 17.822C53.1328 17.5345 53.1328 17.3427 53.1328 17.3427C53.1328 17.3427 53.1807 17.5344 53.2287 17.87C53.2766 18.2055 53.3245 18.6848 53.4204 19.2599C53.5642 20.5061 53.8038 22.2316 54.0435 24.2926L53.9476 24.1967C56.2483 23.9091 58.9803 23.5736 61.904 23.1902L61.8081 23.334V23.2381C61.5685 20.7458 61.3767 18.3972 61.185 16.3362L61.3288 16.4321C56.6796 16.9593 53.9955 17.2469 53.1328 17.3427Z" fill="#4C88FF"/>
<path d="M60.5118 18.541C60.5118 18.6368 59.1219 18.6368 57.4922 18.7806C55.8147 18.9723 54.4727 19.2599 54.4727 19.1641C54.4727 19.1161 55.7668 18.6848 57.4443 18.541C59.1219 18.3972 60.5118 18.493 60.5118 18.541Z" fill="#4C88FF"/>
<path d="M60.5581 20.3621C60.5581 20.4579 59.264 20.5059 57.7302 20.6497C56.1485 20.7934 54.9023 20.9852 54.9023 20.9372C54.9023 20.8893 56.1485 20.5538 57.7302 20.41C59.3119 20.2183 60.606 20.2662 60.5581 20.3621Z" fill="#4C88FF"/>
<path d="M58.6889 21.8959C58.6889 21.9438 57.97 22.1356 57.0593 22.2314C56.1486 22.3273 55.4297 22.3752 55.4297 22.3273C55.4297 22.2794 56.1486 22.0876 57.0593 21.9918C57.922 21.848 58.6889 21.848 58.6889 21.8959Z" fill="#4C88FF"/>
<path d="M151.049 22.4229C133.651 17.1027 118.984 12.5973 99.2852 12.7411L96.2656 43.7037C116.732 45.5251 123.586 46.8671 142.47 53.6732L151.049 22.4229Z" fill="#4C88FF"/>
<g opacity="0.8">
<g opacity="0.8">
<g opacity="0.8">
<path d="M151.049 22.4229C133.651 17.1027 118.984 12.5973 99.2852 12.7411L96.2656 43.7037C116.732 45.5251 123.586 46.8671 142.47 53.6732L151.049 22.4229Z" fill="white"/>
</g>
</g>
</g>
<path d="M111.655 27.7431L112.421 21.1768C110.6 20.985 108.635 21.5123 107.053 22.6626C105.184 24.0525 103.794 26.2573 103.746 29.181C103.746 29.5166 103.746 29.8041 103.794 30.1396L111.463 29.2769L111.655 27.7431Z" fill="#4C88FF"/>
<path d="M119.608 26.6887C118.842 24.2443 117.02 22.1354 114.144 21.4644C114.049 21.4644 114.001 21.4164 113.905 21.4164C113.857 21.4164 113.809 21.4164 113.761 21.3685C113.617 21.3206 113.473 21.3206 113.33 21.3206L112.563 27.887L112.371 29.4207L119.608 32.0569C119.8 31.5296 119.896 30.9545 119.992 30.3793C120.088 29.1811 119.944 27.887 119.608 26.6887Z" fill="#4C88FF"/>
<g opacity="0.3">
<g opacity="0.3">
<g opacity="0.3">
<g opacity="0.3">
<path opacity="0.3" d="M119.608 26.6887C118.842 24.2443 117.02 22.1354 114.144 21.4644C114.049 21.4644 114.001 21.4164 113.905 21.4164C113.857 21.4164 113.809 21.4164 113.761 21.3685C113.617 21.3206 113.473 21.3206 113.33 21.3206L112.563 27.887L112.371 29.4207L119.608 32.0569C119.8 31.5296 119.896 30.9545 119.992 30.3793C120.088 29.1811 119.944 27.887 119.608 26.6887Z" fill="#293E69"/>
</g>
</g>
</g>
</g>
<path d="M111.751 30.1877L104.082 31.0504C104.418 34.789 107.102 37.8565 110.744 38.2878C114.387 38.7192 117.79 36.3706 118.988 32.8238L111.751 30.1877Z" fill="#4C88FF"/>
<path d="M144.34 28.3184C144.34 28.3184 144.1 28.2226 143.669 28.0309C143.237 27.8392 142.614 27.5516 141.847 27.264C140.313 26.593 138.109 25.7782 135.664 25.1071C133.22 24.3882 130.919 23.9568 129.29 23.6693C128.475 23.5255 127.804 23.4296 127.324 23.3817C126.845 23.3337 126.605 23.2858 126.605 23.2379C126.605 23.2379 126.845 23.2379 127.324 23.2858C127.804 23.3337 128.475 23.3817 129.29 23.4775C130.967 23.7172 133.268 24.1006 135.712 24.8196C138.204 25.5385 140.361 26.3533 141.895 27.0723C142.662 27.4078 143.285 27.6954 143.669 27.935C144.1 28.1747 144.34 28.3184 144.34 28.3184Z" fill="#4C88FF"/>
<path d="M143.812 31.5776C143.812 31.5776 143.573 31.4818 143.141 31.29C142.71 31.0983 142.087 30.8107 141.32 30.5232C139.786 29.8521 137.581 29.0373 135.137 28.3663C132.692 27.6474 130.392 27.216 128.762 26.9284C127.947 26.7846 127.276 26.6888 126.797 26.6408C126.318 26.5929 126.078 26.545 126.078 26.4971C126.078 26.4491 126.318 26.4971 126.797 26.545C127.276 26.5929 127.947 26.6408 128.762 26.7367C130.44 26.9764 132.74 27.3598 135.185 28.0787C137.677 28.7977 139.834 29.6125 141.368 30.3314C142.135 30.667 142.758 30.9545 143.141 31.1942C143.573 31.4338 143.812 31.5776 143.812 31.5776Z" fill="#4C88FF"/>
<path d="M143.285 34.789C143.285 34.789 143.045 34.6931 142.614 34.5014C142.182 34.3097 141.559 34.0221 140.792 33.7345C139.259 33.0635 137.054 32.2487 134.61 31.5777C132.165 30.8588 129.864 30.4274 128.235 30.1398C127.42 29.996 126.749 29.9002 126.27 29.8522C125.79 29.8043 125.551 29.7564 125.551 29.7084C125.551 29.7084 125.79 29.7084 126.27 29.7564C126.749 29.8043 127.42 29.8522 128.235 29.9481C129.912 30.1877 132.213 30.5712 134.657 31.2901C137.15 32.0091 139.307 32.8239 140.84 33.5428C141.607 33.8783 142.23 34.1659 142.614 34.4056C143.045 34.6452 143.285 34.789 143.285 34.789Z" fill="#4C88FF"/>
<path d="M142.228 38.0482C142.228 38.0482 141.989 37.9523 141.557 37.7606C141.126 37.5689 140.551 37.2813 139.784 36.9937C138.298 36.3706 136.189 35.5079 133.793 34.8369C131.396 34.1179 129.192 33.6865 127.562 33.399C126.747 33.2552 126.124 33.1593 125.645 33.1114C125.213 33.0634 124.926 33.0155 124.926 32.9676C124.926 32.9676 125.165 32.9676 125.645 33.0155C126.124 33.0634 126.747 33.1114 127.562 33.2072C129.192 33.4469 131.396 33.8783 133.793 34.5493C136.189 35.2682 138.298 36.083 139.784 36.802C140.503 37.1375 141.126 37.4251 141.51 37.6647C141.989 37.9044 142.228 38.0482 142.228 38.0482Z" fill="#4C88FF"/>
<path d="M139.931 40.6363C139.931 40.6363 139.691 40.5884 139.355 40.3967C138.924 40.205 138.397 39.9653 137.774 39.6777C136.432 39.1026 134.562 38.3357 132.406 37.7126C130.249 37.0895 128.284 36.754 126.798 36.5623C126.127 36.4664 125.552 36.3706 125.072 36.3226C124.689 36.2747 124.449 36.2268 124.449 36.2268C124.449 36.2268 124.689 36.2268 125.072 36.2268C125.504 36.2268 126.079 36.3226 126.798 36.3706C128.236 36.5623 130.249 36.8499 132.454 37.473C134.61 38.096 136.48 38.9108 137.822 39.5339C138.493 39.8694 139.02 40.1091 139.355 40.3008C139.739 40.4925 139.931 40.5884 139.931 40.6363Z" fill="#4C88FF"/>
<path d="M132.214 40.9719C132.214 41.0198 131.735 40.876 130.968 40.7323C130.201 40.5405 129.147 40.3488 127.996 40.1092C126.846 39.9174 125.744 39.7737 124.977 39.6299C124.21 39.534 123.73 39.4381 123.73 39.3902C123.73 39.3423 124.21 39.3902 124.977 39.4381C125.744 39.4861 126.846 39.6299 127.996 39.8216C129.194 40.0133 130.249 40.3009 130.968 40.4926C131.735 40.7802 132.214 40.9719 132.214 40.9719Z" fill="#4C88FF"/>
<path d="M102.258 16.3838C102.258 16.3838 102.401 16.3838 102.641 16.3838C102.929 16.3838 103.312 16.3838 103.839 16.3359C104.894 16.288 106.427 16.3359 108.393 16.4317C112.275 16.6714 117.883 17.3424 124.353 19.3075L124.449 19.3555V19.4513C123.251 26.3053 121.813 34.5013 120.279 43.2245C120.231 43.56 120.135 43.9435 120.087 44.279V44.4228L119.944 44.3748C116.301 43.4163 112.706 42.6973 109.303 42.1701C105.852 41.6428 102.593 41.2594 99.5255 41.0677H99.4297V40.9718C100.292 33.6386 100.963 27.5035 101.443 23.1899C101.682 21.033 101.874 19.3555 102.018 18.2051C102.066 17.63 102.162 17.1986 102.162 16.911C102.162 16.7672 102.21 16.6714 102.21 16.5755C102.258 16.4317 102.258 16.3838 102.258 16.3838C102.258 16.3838 102.258 16.4317 102.258 16.5276C102.258 16.6235 102.258 16.7193 102.21 16.8631C102.162 17.1986 102.114 17.63 102.066 18.2051C101.922 19.3555 101.778 21.0809 101.539 23.2378C101.059 27.5515 100.388 33.6865 99.6214 40.9718L99.5255 40.828C102.593 41.0198 105.852 41.4032 109.303 41.8825C112.754 42.4097 116.349 43.1287 119.992 44.0873L119.848 44.1831C119.896 43.8476 119.992 43.4642 120.04 43.1287C121.573 34.4054 123.011 26.2574 124.209 19.3555L124.257 19.4513C117.835 17.4862 112.227 16.8152 108.345 16.5276C106.38 16.3838 104.846 16.3838 103.839 16.3838C103.312 16.3838 102.929 16.3838 102.641 16.3838C102.449 16.3838 102.258 16.3838 102.258 16.3838Z" fill="#4C88FF"/>
<path d="M83.2793 79.6994L100.247 83.4379L102.835 79.6994L102.403 74.8584L99.8631 72.5099H90.9481L82.6562 79.9869" fill="#4C88FF"/>
<g opacity="0.3">
<g opacity="0.3">
<path opacity="0.3" d="M83.2793 79.6994L100.247 83.4379L102.835 79.6994L102.403 74.8584L99.8631 72.5099H90.9481L82.6562 79.9869" fill="#293E69"/>
</g>
</g>
<path d="M109.163 44.7584L130.588 41.8826L133.943 40.924C133.943 40.924 141.66 39.2465 142.379 38.9589C143.194 38.6713 143.577 39.0068 143.625 39.2944C143.769 39.7737 143.29 40.3488 142.571 40.5885C142.331 40.6843 138.401 42.0264 138.401 42.0264C138.401 42.0264 138.784 42.0743 139.743 42.4098C140.701 42.7453 141.564 43.9436 142.043 45.3335C142.475 46.7235 142.475 47.1549 141.947 47.3945C141.708 47.4904 141.516 47.3945 141.324 47.2987C141.037 47.1069 140.797 46.8194 140.701 46.4839C139.934 44.2312 138.544 44.0394 138.544 44.0394L138.113 44.1832C138.113 44.1832 139.551 45.1898 139.551 46.4359C139.551 46.6277 139.503 46.8194 139.455 46.9632C139.647 47.5383 139.551 48.2573 139.168 48.7366C138.736 49.2638 138.065 49.5034 137.394 49.4076C137.107 49.3597 136.771 49.1679 136.723 48.8804C136.723 48.7366 136.771 48.5448 136.819 48.4011C136.867 48.3052 136.867 48.2573 136.915 48.1614L135.621 48.3531C135.621 48.3531 132.697 48.5928 131.451 48.8324L111.368 54.8716C108.588 55.6864 105.665 54.1047 104.85 51.3248C103.987 48.2573 106.048 45.1898 109.163 44.7584Z" fill="white"/>
<path d="M131.07 42.41C131.118 42.8413 131.55 43.1768 131.981 43.2727C132.412 43.3686 132.892 43.3206 133.323 43.3686C134.665 43.5603 135.672 44.7585 137.014 44.8544C137.205 44.8544 137.445 44.8544 137.493 44.6627C137.541 44.5189 137.397 44.3272 137.253 44.2313C136.151 43.2248 135.048 42.2662 133.898 41.2596" fill="white"/>
<path d="M40.1879 51.4687C40.1879 51.4687 37.0724 46.3881 36.4973 45.9568C35.9221 45.5254 30.9853 43.7041 30.554 43.8478C30.1226 43.9916 24.1314 44.9982 24.8024 45.7171C25.4734 46.4361 29.6912 45.6692 29.6912 45.6692L30.2664 45.9568C30.2664 45.9568 26.6716 46.5319 25.9048 46.9633C25.1858 47.3467 25.4255 48.2095 26.0965 48.1615C26.7675 48.1136 29.8829 47.4905 30.0747 47.6343C30.2664 47.7781 26.6716 48.497 26.2882 48.6888C25.761 48.9763 25.713 49.9349 26.3841 49.887C26.7675 49.8391 30.1705 48.9763 30.1705 48.9763C30.1705 48.9763 27.4864 50.0308 27.2468 50.2704C26.8634 50.6539 27.1509 51.229 27.7261 51.1332C28.1095 51.0373 30.0267 50.1267 30.554 50.0308C30.554 50.0308 31.0333 50.1746 31.5125 51.1811C31.7043 51.6604 32.7108 54.6321 34.4842 54.5841C36.0659 54.5362 37.5996 55.8303 37.5996 55.8303L40.1879 51.4687Z" fill="white"/>
<path d="M37.8858 50.8932C37.5023 51.2287 36.9272 51.1329 36.4958 50.8932C36.0645 50.6536 35.7289 50.2222 35.3455 49.9346C34.1473 49.0719 32.3739 49.2636 31.1756 48.353C31.0318 48.2092 30.8401 48.0174 30.936 47.8257C31.0318 47.634 31.2715 47.634 31.4632 47.634C33.0928 47.6819 34.7703 47.7299 36.4 47.7299" fill="white"/>
<path d="M64.5875 163.72L63.4372 176.278L59.6507 185.96C59.3631 186.679 59.7466 187.446 60.4655 187.685C60.849 187.829 61.2803 187.733 61.6158 187.494C63.7248 185.864 71.5373 179.873 71.5373 178.962C71.5853 177.908 73.6462 165.781 73.6462 165.781L64.5875 163.72Z" fill="#4C88FF"/>
<g opacity="0.6">
<g opacity="0.6">
<g opacity="0.6">
<g opacity="0.6">
<path opacity="0.6" d="M60.4648 187.685L71.6804 178.099L71.6325 178.627C71.5846 179.106 71.3449 179.489 71.0094 179.825C70.0987 180.688 67.5585 182.94 61.6631 187.494C61.3276 187.781 60.8962 187.829 60.4648 187.685Z" fill="white"/>
</g>
</g>
</g>
</g>
<path d="M63.9629 182.557C63.867 182.605 63.6753 181.886 62.9564 181.454C62.2854 180.975 61.5664 181.071 61.5664 181.023C61.5664 180.975 61.7102 180.927 62.0457 180.927C62.3333 180.927 62.7647 181.023 63.1481 181.263C63.5315 181.502 63.7712 181.838 63.915 182.125C64.0108 182.365 64.0108 182.557 63.9629 182.557Z" fill="#293E69"/>
<path d="M62.9075 184.139C62.8595 184.187 62.4761 183.755 61.853 183.468C61.2299 183.18 60.6548 183.228 60.6548 183.18C60.6068 183.132 61.2779 182.893 61.9489 183.228C62.6678 183.516 62.9554 184.091 62.9075 184.139Z" fill="#293E69"/>
<path d="M65.8785 180.592C65.8306 180.64 65.2554 179.921 64.3448 179.442C63.4341 178.914 62.5234 178.866 62.5234 178.818C62.5234 178.771 63.482 178.675 64.4406 179.202C65.4472 179.729 65.9265 180.544 65.8785 180.592Z" fill="#293E69"/>
<path d="M66.5504 176.805C66.5025 176.853 65.8315 176.518 64.9687 176.374C64.0581 176.23 63.3391 176.374 63.2912 176.278C63.2433 176.23 64.0101 175.943 64.9687 176.086C65.9753 176.23 66.5984 176.757 66.5504 176.805Z" fill="#293E69"/>
<path d="M66.9801 173.115C66.9322 173.163 66.2611 172.683 65.3505 172.635C64.3919 172.54 63.6729 172.923 63.625 172.875C63.625 172.827 63.7688 172.683 64.0564 172.588C64.344 172.444 64.8232 172.348 65.3505 172.396C65.8777 172.444 66.3091 172.635 66.5967 172.779C66.8842 172.923 66.9801 173.067 66.9801 173.115Z" fill="#293E69"/>
<path d="M65.3984 171.917C65.3984 171.917 65.3505 171.725 65.4463 171.437C65.4943 171.15 65.6381 170.718 65.9736 170.239C66.1174 169.999 66.3091 169.76 66.6925 169.616C66.8842 169.568 67.1239 169.616 67.2677 169.808C67.4115 169.999 67.4115 170.191 67.4115 170.383C67.3156 171.198 66.5487 171.869 65.6381 171.869C64.7274 171.869 63.9605 171.246 63.6729 170.527C63.625 170.335 63.5771 170.095 63.7209 169.903C63.8647 169.712 64.1043 169.664 64.296 169.712C64.6795 169.808 64.8712 170.047 65.0629 170.239C65.4463 170.622 65.686 171.054 65.8298 171.293C65.9736 171.581 65.9736 171.725 65.9736 171.773C65.9256 171.821 65.7339 171.102 64.967 170.383C64.7753 170.191 64.5357 169.999 64.296 169.951C64.1522 169.903 64.0564 169.951 64.0084 170.047C63.9605 170.143 63.9605 170.287 64.0084 170.431C64.2481 171.006 64.9191 171.581 65.686 171.581C66.4529 171.581 67.1239 170.958 67.2197 170.335C67.2197 170.191 67.2197 169.999 67.1239 169.903C67.0759 169.808 66.9322 169.76 66.7884 169.808C66.5487 169.856 66.357 170.143 66.1653 170.335C65.4943 171.198 65.4943 171.917 65.3984 171.917Z" fill="#293E69"/>
<path d="M76.1345 171.102L85.5287 96.5707L82.5091 79.268L64.7751 80.2266L62.5703 169.76C62.5703 170.431 63.0017 171.006 63.6727 171.15L74.0256 172.731C75.0321 172.875 75.9907 172.156 76.1345 171.102Z" fill="#293E69"/>
<path d="M85.2906 99.1109L102.402 116.03L77.7656 122.021L79.539 134.435L112.85 129.882C115.678 129.498 118.266 127.965 119.944 125.616C122.532 122.021 122.58 117.228 120.088 113.586L94.1097 75.4815L82.5107 79.268L85.2906 99.1109Z" fill="#293E69"/>
<path d="M84.3295 94.7972C84.3774 94.7972 84.665 95.7558 84.9047 96.9061C85.1443 98.1043 85.336 99.0629 85.2402 99.1109C85.1922 99.1109 84.9047 98.1523 84.665 97.0019C84.4254 95.8037 84.2816 94.7972 84.3295 94.7972Z" fill="#455A64"/>
<path d="M82.5083 86.9367C82.5562 86.9367 82.7 87.3681 82.8917 88.0871C83.0835 88.806 83.371 89.8125 83.6107 90.9629C83.8503 92.0652 84.0421 93.1197 84.1379 93.8386C84.2338 94.6055 84.2817 95.0369 84.2817 95.0369C84.2338 95.0369 84.1379 94.6055 83.9941 93.8386C83.8024 93.0238 83.6107 92.0652 83.371 90.9629C83.1314 89.9084 82.8917 88.9019 82.748 88.0871C82.5562 87.3681 82.4604 86.9367 82.5083 86.9367Z" fill="#455A64"/>
<path d="M83.6111 85.4509C83.5632 85.4509 83.8507 85.2113 84.33 85.3551C84.5217 85.4509 84.8093 85.6426 84.8573 85.9781C84.9052 86.2657 84.8093 86.6971 84.4738 86.8888C84.1383 87.0805 83.7549 86.9847 83.4673 86.793C83.2276 86.6012 83.1797 86.2178 83.2276 86.0261C83.2756 85.7864 83.4194 85.6426 83.5631 85.5947C83.659 85.5468 83.7549 85.5468 83.7549 85.5468C83.7549 85.5947 83.5152 85.6906 83.4194 86.074C83.3714 86.2657 83.4194 86.5054 83.6111 86.6492C83.8028 86.793 84.0904 86.8409 84.33 86.6971C84.5697 86.5533 84.6655 86.2657 84.6176 86.0261C84.5697 85.7864 84.4259 85.6426 84.2342 85.5468C83.8507 85.3551 83.6111 85.4988 83.6111 85.4509Z" fill="#455A64"/>
<path d="M70.4272 28.5102L60.6016 33.2553L64.8194 62.828L63.1418 76.1046C62.9501 77.8301 63.5732 79.5076 64.8673 80.6579L80.7321 80.3224L91.8518 74.2353L96.9803 73.3246L94.8714 63.2114L95.83 48.8804L107.429 55.0634C108.34 55.5427 109.346 55.6865 110.353 55.3989L131.634 49.8869L130.531 41.6909L111.263 43.8478L96.5969 30.8588L85.6689 28.4144L83.7038 25.2031H72.5361L71.7692 25.7782C71.3858 26.0658 71.0982 26.4492 70.9544 26.8806L70.4272 28.5102Z" fill="#4C88FF"/>
<path d="M60.6034 33.2552C60.6034 33.2552 57.3921 35.3162 56.1939 39.0068C55.0915 42.5057 52.5512 56.5971 52.5512 56.5971L41.3835 49.6952L34.9609 56.4533L49.8671 69.5861C52.1678 71.5991 55.427 72.0305 58.159 70.7364C60.4596 69.634 62.0413 67.4772 62.3768 64.9369L64.1982 51.5645L60.6034 33.2552Z" fill="#4C88FF"/>
<path d="M94.156 75.5294L93.437 74.475L86.1038 75.8649L84.7617 78.9804L94.156 75.5294Z" fill="white"/>
<path d="M64.918 80.6101C71.4844 83.2463 78.4821 82.2877 84.7609 78.9805C86.6302 77.974 88.4036 76.7278 90.2729 75.7692C92.1901 74.7627 94.251 74.0437 96.4079 74.1875C98.5168 74.3313 100.674 75.5295 101.536 77.4947C102.399 79.4598 101.536 82.1439 99.5233 82.8628C99.763 83.0545 100.003 83.2942 100.242 83.4859C103.166 82.0959 104.604 78.1657 103.166 75.242C102.064 72.9893 99.763 71.6952 98.0375 69.8259C95.5451 67.1418 95.2576 61.9654 95.2576 57.8914" fill="#4C88FF"/>
<path d="M79.296 34.2139C79.296 34.2139 79.1043 34.2139 78.8167 34.2619C78.5291 34.3098 78.0498 34.3577 77.6664 34.7891C77.2829 35.2204 77.0912 35.8915 77.0912 36.6583C77.0912 37.4252 77.235 38.3359 77.6184 39.1507L77.8102 39.5821L77.4267 39.2945C76.6119 38.6714 75.7492 37.9525 74.9344 37.0897C73.0172 35.1246 71.771 32.9198 71.1479 31.2423C70.8124 30.4275 70.6207 29.7085 70.5248 29.2292C70.429 28.7499 70.381 28.4623 70.429 28.4623C70.4769 28.4623 70.6207 29.5647 71.3396 31.1943C72.0106 32.824 73.3047 34.9808 75.174 36.898C75.9888 37.7128 76.8036 38.4797 77.6184 39.0548L77.4267 39.1986C77.235 38.7673 77.0912 38.288 76.9953 37.8566C76.8995 37.4252 76.8516 36.9939 76.8995 36.5625C76.8995 35.7477 77.1391 35.0287 77.5705 34.5974C78.0019 34.166 78.5291 34.1181 78.8167 34.0701C79.1522 34.166 79.296 34.2139 79.296 34.2139Z" fill="#293E69"/>
<path d="M79.918 34.2139C80.7328 33.8784 81.931 34.3577 82.5062 35.0287C82.8896 35.4601 83.1293 36.0832 83.6086 36.3708C84.1358 36.6583 85.7175 36.898 86.1968 36.5146C86.1968 36.5146 86.4844 35.1725 86.6281 34.5974C87.2033 32.3447 87.4909 30.3316 87.7305 28.031C86.1968 27.2641 86.6282 26.3055 83.8482 26.4972C83.8482 26.4972 84.5672 28.5582 83.9441 30.4275" fill="#4C88FF"/>
<path d="M83.8961 30.4275C83.8482 30.4275 83.992 30.0441 84.0399 29.3731C84.0879 28.7021 84.0399 27.6955 83.7044 26.5452L83.6565 26.4493H83.7524C84.3754 26.4014 85.0944 26.3535 85.8133 26.6411C86.1968 26.7849 86.4844 27.0724 86.7719 27.3121C87.0595 27.5517 87.3471 27.7914 87.7305 27.9831L87.8264 28.031V28.1269C87.6826 29.2772 87.5388 30.5713 87.3471 31.8654C87.2033 32.7282 87.0116 33.543 86.8199 34.3578C86.6282 35.1726 86.4844 35.8915 86.2926 36.6105V36.6584H86.2447C85.9571 36.8501 85.6696 36.8501 85.4299 36.8501C85.1423 36.8501 84.9027 36.8501 84.663 36.8022C84.4234 36.7543 84.1837 36.7063 83.9441 36.6584C83.7044 36.6105 83.4648 36.4667 83.321 36.3229C82.9855 35.9874 82.7938 35.6039 82.602 35.3164C82.3624 35.0288 82.1227 34.7891 81.8352 34.6454C81.3079 34.3098 80.7807 34.214 80.4452 34.214C80.1097 34.214 79.918 34.3098 79.918 34.3098C79.918 34.3098 80.0618 34.214 80.4452 34.1661C80.7807 34.1181 81.3079 34.214 81.8831 34.5495C82.1707 34.6933 82.4583 34.9329 82.6979 35.2684C82.9376 35.556 83.1293 35.9395 83.4169 36.227C83.7044 36.5146 84.1837 36.5625 84.663 36.6584C84.9027 36.7063 85.1423 36.7063 85.382 36.7063C85.6216 36.7063 85.9092 36.6584 86.053 36.5625L86.0051 36.6105C86.1489 35.8915 86.3406 35.1247 86.5323 34.3098C86.724 33.543 86.9157 32.6802 87.0595 31.8654C87.2992 30.5713 87.443 29.2772 87.5388 28.1269L87.5867 28.2228C87.2033 28.031 86.8678 27.7914 86.5802 27.5038C86.2926 27.2162 86.0051 26.9766 85.7175 26.8328C85.0465 26.5931 84.3754 26.5931 83.7524 26.6411L83.8482 26.4973C84.1837 27.6955 84.1837 28.7021 84.1358 29.421C84.0879 29.7565 84.0399 30.0441 83.992 30.1879C83.9441 30.3317 83.8961 30.4275 83.8961 30.4275Z" fill="#293E69"/>
<path d="M69.8094 83.0065C69.8094 83.0065 69.4259 82.8148 68.9466 82.3355C68.4673 81.8562 67.8922 81.1373 67.4608 80.1787C67.0774 79.2201 66.9336 78.2615 66.9336 77.5904C66.9336 76.9194 67.0774 76.4881 67.0774 76.4881C67.1253 76.4881 67.0774 76.9194 67.1253 77.5425C67.1732 78.2135 67.317 79.1242 67.7005 80.0349C68.0839 80.9455 68.6111 81.7124 69.0904 82.1917C69.4739 82.7189 69.8094 83.0065 69.8094 83.0065Z" fill="#293E69"/>
<path d="M69.4217 79.3159C69.4697 79.3159 69.3738 79.939 69.4217 80.7059C69.4697 81.4728 69.7093 82.0479 69.6614 82.0959C69.6135 82.1438 69.23 81.5686 69.1821 80.7538C69.1342 79.8911 69.3738 79.268 69.4217 79.3159Z" fill="#293E69"/>
<path d="M64.7235 62.1571C64.7235 62.1571 64.6756 62.0612 64.6756 61.9174C64.6277 61.7257 64.6277 61.534 64.5797 61.2464C64.4839 60.6233 64.3401 59.8085 64.1963 58.8499C63.8608 56.8369 63.3815 54.009 62.8063 50.9415C62.2312 47.874 61.656 45.094 61.2726 43.081C61.0809 42.1224 60.8891 41.3076 60.7933 40.6845C60.7454 40.4449 60.6974 40.2052 60.6495 40.0135C60.6016 39.8697 60.6016 39.7738 60.6016 39.7738C60.6016 39.7738 60.6495 39.8697 60.6974 40.0135C60.7454 40.2052 60.7933 40.3969 60.8891 40.6366C61.0329 41.2117 61.2247 42.0265 61.4643 42.9851C61.9436 44.9982 62.5188 47.7781 63.0939 50.8456C63.6691 53.9131 64.1004 56.741 64.388 58.7541C64.5318 59.7606 64.6277 60.5754 64.7235 61.1506C64.7715 61.3902 64.7715 61.6299 64.8194 61.8216C64.7235 62.0612 64.7235 62.1571 64.7235 62.1571Z" fill="#293E69"/>
<path d="M102.927 75.7212C102.879 75.7212 102.831 75.5295 102.64 75.2899C102.496 75.0502 102.208 74.7147 101.777 74.523C101.394 74.2833 100.962 74.2354 100.675 74.1875C100.387 74.1875 100.195 74.2354 100.195 74.1875C100.195 74.1396 100.387 74.0437 100.675 74.0437C101.01 73.9958 101.441 74.0916 101.921 74.3313C102.352 74.5709 102.64 74.9544 102.784 75.2419C102.975 75.4816 102.975 75.7212 102.927 75.7212Z" fill="#FAFAFA"/>
<path d="M83.1303 73.2768C83.1303 73.3247 82.5551 73.6123 81.6444 74.1395C80.7338 74.6667 79.4397 75.4336 78.3852 76.6798C77.3308 77.878 76.7556 79.3159 76.6597 80.3225C76.5159 81.3769 76.7556 82 76.7077 82.0479C76.7077 82.0479 76.6118 81.9042 76.5639 81.6166C76.5159 81.329 76.468 80.8976 76.5159 80.3225C76.5639 79.2201 77.139 77.7342 78.2414 76.536C79.3438 75.2898 80.6379 74.523 81.5965 74.0437C82.0758 73.804 82.4593 73.6123 82.7468 73.5164C82.9865 73.3247 83.1303 73.2288 83.1303 73.2768Z" fill="#FAFAFA"/>
<g opacity="0.3">
<g opacity="0.3">
<g opacity="0.3">
<path opacity="0.3" d="M76.1326 74.8585C75.6534 75.0502 75.7013 75.7692 76.0847 76.1047C76.4682 76.4402 76.9954 76.4402 77.5226 76.3923C83.1304 76.1047 88.5465 73.0851 91.7099 68.4359C87.3962 71.9827 81.6925 73.3248 76.2285 74.5709" fill="#293E69"/>
</g>
</g>
</g>
<g opacity="0.3">
<g opacity="0.3">
<g opacity="0.3">
<path opacity="0.3" d="M61.7085 45.0941C62.1878 50.3185 61.8043 55.6387 60.6061 60.7672C60.3664 61.8696 60.0309 62.972 60.0788 64.0744C60.0788 65.1768 60.7978 66.4709 61.6605 67.1898C62.4753 65.3685 62.4753 63.5951 62.8108 61.63C63.0984 59.8565 63.6256 55.6866 63.6256 55.6387C63.6736 51.996 62.8588 48.8806 61.4209 45.6214" fill="#293E69"/>
</g>
</g>
</g>
<g opacity="0.3">
<g opacity="0.3">
<g opacity="0.3">
<path opacity="0.3" d="M70.7173 29.3729C71.4362 33.2073 73.3534 36.802 76.1333 39.534C77.1878 40.5885 78.5298 41.4991 79.9677 41.4512C79.105 39.7257 78.8653 37.7127 79.2488 35.7955C80.495 36.6103 81.7891 37.3772 83.179 37.9523C84.569 38.4796 86.1027 38.7671 87.5886 38.4316C87.8762 35.7955 88.2117 33.1114 88.4992 30.4753C88.5472 30.1877 88.5472 29.8522 88.4034 29.5646C88.2596 29.277 87.8282 29.1812 87.6365 29.3729C87.5406 29.4687 87.4927 29.6125 87.4927 29.7084C86.9655 32.057 86.63 34.1179 86.1027 36.4665C85.7193 36.8499 84.5211 36.7062 83.7542 36.4186C83.0832 36.1789 82.7956 35.6038 82.3642 35.0286C81.9329 34.4534 81.9808 34.5493 81.3098 34.2617C80.0636 33.7345 77.715 34.1659 77.1878 35.2683C76.6606 36.3706 77.044 37.8565 77.4274 38.9109C74.0244 36.7062 71.4362 33.1593 70.4297 29.2291" fill="#293E69"/>
</g>
</g>
</g>
<path d="M72.0551 10.4404V26.9762C72.0551 27.9348 72.3906 28.8455 73.0137 29.5645C73.9244 30.6668 75.0747 31.6254 76.3209 32.2965L79.676 34.1657L82.4559 31.7213C83.2707 31.0024 83.75 29.9958 83.7979 28.8934C83.8459 27.6952 83.8459 26.497 83.8459 26.497C83.8459 26.497 88.543 26.1614 88.9744 21.5602C89.1661 19.4033 89.2619 14.9459 89.2619 10.8239C89.2619 6.12676 85.6672 2.24444 81.018 1.861H80.8742C75.9854 1.71721 72.0072 5.64746 72.0551 10.4404Z" fill="white"/>
<path d="M77.4783 5.79146C77.4783 5.79146 77.4783 5.83939 77.4783 5.79146C76.6635 6.31869 76.1362 7.13349 75.8966 8.04416C75.8966 8.09209 75.8966 8.09209 75.8966 8.14002C75.609 9.43413 75.5132 10.7762 75.2256 12.0703C74.938 13.3644 74.9859 14.3709 73.6918 14.6585C72.877 14.8502 72.1581 14.3709 71.8705 13.9395C71.7746 13.7478 71.7746 13.5561 71.7746 13.3164C71.7746 10.1051 71.1515 8.85897 71.4391 5.55181C71.535 4.64114 72.0143 3.82633 72.7811 3.34703C73.5001 2.91566 74.4108 2.43637 75.1776 2.86773C75.9445 3.2991 76.8073 4.83286 77.3345 5.50388" fill="#293E69"/>
<path d="M73.4514 12.693C73.3556 12.6451 70.336 11.4948 70.1922 14.6582C70.0484 17.8215 73.2597 17.3422 73.2597 17.2464C73.2597 17.1505 73.4514 12.693 73.4514 12.693Z" fill="white"/>
<path d="M74.9846 3.39502C74.3136 2.05298 76.6142 0.423369 78.1959 0.0878601C79.7776 -0.295579 81.7906 0.663019 83.2765 1.28611C84.2351 1.66955 85.1457 2.2447 86.2002 2.2447C86.8712 2.29263 87.5902 2.05298 88.2612 1.90919C88.9322 1.71748 89.6511 1.57369 90.3222 1.66955C90.9932 1.76541 91.6642 2.19677 91.9038 2.86779C92.0956 3.53881 91.6642 4.35362 90.9932 4.40155C91.9038 3.97018 93.1021 4.73706 93.1979 5.74358C93.2459 6.75011 92.1435 7.61285 91.1849 7.32527C91.6642 7.03769 92.2873 7.66078 92.1914 8.18801C92.0956 8.76316 91.5683 9.09867 90.9932 9.29039C89.6511 9.76969 88.1174 9.43418 86.7753 8.85902C85.4333 8.28387 84.2351 7.46906 82.941 6.84597C81.6468 6.22288 79.4421 5.16843 78.0521 5.55186C77.0456 5.83944 76.2308 6.98976 75.7035 6.65425C75.1763 6.36667 74.8887 5.74358 74.8408 5.16843C74.697 4.59327 74.8408 3.97018 74.9846 3.39502Z" fill="#293E69"/>
<path d="M113.28 106.3C94.6831 111.237 76.8052 110.854 57.2498 106.3L54.9492 70.5927C75.1277 74.5229 95.3541 74.0436 113.232 69.7299V106.3H113.28Z" fill="#4C88FF"/>
<g opacity="0.8">
<g opacity="0.8">
<path d="M113.28 106.3C94.6831 111.237 76.8052 110.854 57.2498 106.3L54.9492 70.5927C75.1277 74.523 95.3541 74.0437 113.232 69.73V106.3H113.28Z" fill="white"/>
</g>
</g>
<path d="M110.405 100.884C110.405 100.884 110.357 100.884 110.309 100.932C110.213 100.98 110.117 101.028 109.974 101.076C109.686 101.22 109.207 101.412 108.632 101.603C107.433 102.035 105.708 102.658 103.503 103.233C99.0936 104.383 92.8148 105.342 85.8649 105.246C78.9151 105.15 72.6842 104.192 68.1788 103.377C65.9261 102.945 64.1527 102.562 62.9065 102.274C62.2834 102.131 61.8041 102.035 61.4686 101.939C61.3248 101.891 61.1811 101.891 61.0852 101.843C60.9893 101.843 60.9414 101.795 60.9414 101.795C60.9414 101.795 60.9893 101.795 61.0852 101.795C61.1811 101.795 61.3248 101.843 61.4686 101.843C61.8041 101.891 62.2834 102.035 62.9065 102.131C64.1527 102.37 65.974 102.754 68.1788 103.137C72.6363 103.952 78.8672 104.863 85.817 104.958C92.7668 105.054 98.9977 104.144 103.407 103.041C105.612 102.466 107.385 101.939 108.584 101.507C109.207 101.316 109.638 101.124 109.974 101.028C110.117 100.98 110.261 100.932 110.357 100.884H110.405Z" fill="#4C88FF"/>
<path d="M83.083 102.37C80.7344 103.041 78.3379 102.897 75.9414 102.13V89.4291C78.3379 88.9498 80.7344 88.9498 83.083 89.4291V102.37Z" fill="#4C88FF"/>
<path d="M94.6368 101.603C94.6368 101.603 94.6368 101.555 94.6368 101.507C94.6368 101.412 94.6368 101.364 94.6368 101.22C94.6368 100.98 94.6368 100.597 94.5889 100.165C94.5889 99.2068 94.5409 97.9127 94.493 96.2352C94.4451 92.8801 94.3492 88.135 94.3013 82.671L94.3971 82.7669C92.0965 82.2876 89.5562 82.2876 87.0159 82.7669L87.1118 82.6231C87.1118 82.7189 87.1118 82.7669 87.1118 82.8627C87.2077 90.3877 87.2556 97.1458 87.3035 101.987L87.2556 101.891C88.4059 102.131 89.4604 102.274 90.371 102.274C91.2817 102.274 92.0965 102.178 92.7196 102.083C93.3427 101.939 93.822 101.795 94.1575 101.699C94.3013 101.651 94.4451 101.603 94.5409 101.555C94.5889 101.603 94.6368 101.603 94.6368 101.603C94.6368 101.603 94.5889 101.603 94.5409 101.651C94.4451 101.699 94.3492 101.747 94.1575 101.795C93.822 101.891 93.3427 102.083 92.7196 102.226C92.0965 102.37 91.2817 102.466 90.3231 102.466C89.4124 102.466 88.31 102.37 87.1597 102.131H87.1118V102.083C87.0639 97.2417 86.968 90.4836 86.8242 82.9586C86.8242 82.8627 86.8242 82.7669 86.8242 82.719V82.6231H86.9201C89.5083 82.1438 92.0965 82.1438 94.3971 82.6231H94.493V82.719C94.5409 88.2309 94.5889 92.928 94.5889 96.331C94.5889 98.0086 94.5889 99.3027 94.5889 100.261C94.5889 100.693 94.5889 101.028 94.5889 101.316C94.5889 101.412 94.5889 101.507 94.5889 101.603C94.6368 101.555 94.6368 101.603 94.6368 101.603Z" fill="#4C88FF"/>
<path d="M105.661 100.118C103.744 101.172 101.204 101.316 98.5195 101.124V80.1308C100.964 79.6035 103.36 79.5077 105.661 80.1308V100.118Z" fill="#4C88FF"/>
<path d="M71.7254 101.316C71.7254 101.316 71.7254 101.124 71.6774 100.788C71.6774 100.405 71.6774 99.9256 71.6295 99.3026C71.6295 98.0084 71.5816 96.235 71.5816 94.1741L71.6295 94.2699C69.7123 93.551 67.3158 92.88 64.7276 93.1196L64.8235 92.9758C64.8235 95.612 64.8235 98.0564 64.8235 100.117L64.7755 100.022C65.7341 100.453 66.6927 100.645 67.5555 100.788C68.4182 100.932 69.1372 101.028 69.7602 101.076C70.3354 101.124 70.8147 101.172 71.1981 101.22C71.5337 101.268 71.7254 101.316 71.7254 101.316C71.7254 101.316 71.5816 101.316 71.1981 101.316C70.8626 101.316 70.3833 101.316 69.7602 101.268C69.1372 101.22 68.3703 101.172 67.5555 101.028C66.6927 100.884 65.7341 100.693 64.7276 100.261L64.6797 100.213V100.117C64.6797 98.0084 64.6797 95.564 64.6797 92.9758V92.88H64.7755C67.4117 92.6403 69.8561 93.3593 71.7733 94.0782L71.8212 94.1261V94.222C71.8212 96.3788 71.7733 98.1522 71.7733 99.4463C71.7733 100.022 71.7733 100.549 71.7254 100.884C71.7733 101.124 71.7733 101.316 71.7254 101.316Z" fill="#4C88FF"/>
<path d="M75.1318 82.767C75.1318 82.8149 74.6046 82.8628 73.7418 82.8628C72.8791 82.8628 71.6808 82.8628 70.3388 82.767C68.9968 82.6711 67.8465 82.5752 66.9837 82.4315C66.121 82.3356 65.5938 82.1918 65.5938 82.1918C65.5938 82.1439 66.121 82.1918 66.9837 82.2877C67.8465 82.3356 69.0447 82.4315 70.3388 82.5273C71.6329 82.6232 72.8312 82.6711 73.6939 82.6711C74.5566 82.6711 75.1318 82.719 75.1318 82.767Z" fill="#4C88FF"/>
<path d="M74.0244 84.3006C74.0244 84.3485 73.5451 84.3485 72.7783 84.3006C72.0114 84.2527 70.9569 84.2047 69.8066 84.1089C68.6563 84.013 67.6018 83.9172 66.835 83.8692C66.0681 83.7734 65.6367 83.7254 65.6367 83.6775C65.6367 83.6296 66.116 83.6296 66.8829 83.6775C67.6498 83.7254 68.7042 83.7734 69.8545 83.8692C71.0049 83.9651 72.0593 84.061 72.8262 84.1089C73.5931 84.2047 74.0244 84.2527 74.0244 84.3006Z" fill="#4C88FF"/>
<path d="M76.6643 86.3617C76.6643 86.3617 76.6643 86.2179 76.6643 85.9303C76.6643 85.6427 76.7123 85.2114 76.7123 84.6841C76.7602 83.5818 76.8561 82.0959 76.904 80.2267L76.9999 80.3225C73.5489 80.3705 68.8518 80.2267 63.7712 79.6036C63.6274 79.6994 63.9629 79.4598 63.915 79.5077V79.5556V79.6036V79.6994V79.8912V80.2746C63.915 80.5622 63.8671 80.8018 63.8671 81.0894C63.8191 81.6166 63.8191 82.1439 63.7712 82.6711C63.7233 83.6776 63.6274 84.6841 63.5795 85.6427L63.4836 85.4989C67.318 85.9782 70.6252 86.17 72.9737 86.2658C74.1241 86.3138 75.0347 86.3138 75.7057 86.3617C75.9933 86.3617 76.233 86.3617 76.4247 86.3617C76.5685 86.3617 76.6643 86.3617 76.6643 86.3617C76.6643 86.3617 76.5685 86.3617 76.4247 86.3617C76.2809 86.3617 75.9933 86.3617 75.6578 86.3617C75.0347 86.3617 74.0761 86.3617 72.9258 86.3617C70.5773 86.3138 67.2701 86.122 63.4357 85.6907H63.3398V85.5948C63.3878 84.6362 63.4357 83.6297 63.5316 82.6232C63.5795 82.0959 63.5795 81.5687 63.6274 81.0415C63.6274 80.7539 63.6754 80.5142 63.6754 80.2267V79.8432V79.6515V79.5556V79.5077V79.4598C63.6274 79.5077 63.9629 79.2201 63.8191 79.3639C68.8997 79.987 73.5968 80.1787 77.0478 80.1787H77.1436V80.2746C76.9999 82.1439 76.904 83.7255 76.8561 84.78C76.8081 85.3072 76.8081 85.6907 76.7602 85.9782C76.6643 86.2179 76.6643 86.3617 76.6643 86.3617Z" fill="#4C88FF"/>
<path d="M78.295 89.0458C78.247 89.0937 77.8157 88.5185 77.3843 87.7516C76.905 87.0327 76.6174 86.3617 76.6653 86.3617C76.7133 86.3137 77.1446 86.8889 77.576 87.6558C78.0553 88.3747 78.3429 88.9978 78.295 89.0458Z" fill="#4C88FF"/>
<path d="M0.644531 42.5537L6.73162 79.3159C6.73162 79.3159 15.9821 96.6665 40.618 100.597L36.6399 67.8128C36.6399 67.8128 13.8732 60.7671 0.644531 42.5537Z" fill="#4C88FF"/>
<g opacity="0.8">
<g opacity="0.8">
<path d="M0.644531 42.5537L6.73162 79.3159C6.73162 79.3159 15.9821 96.6665 40.618 100.597L36.6399 67.8128C36.6399 67.8128 13.8732 60.7671 0.644531 42.5537Z" fill="white"/>
</g>
</g>
<path d="M37.4543 97.9606C37.4543 97.9606 37.4064 97.9606 37.3105 97.9127C37.2147 97.8648 37.0229 97.8168 36.8791 97.7689C36.4478 97.6251 35.8726 97.4813 35.1537 97.2417C34.3868 97.002 33.4761 96.7624 32.4217 96.331C31.8944 96.1393 31.3193 95.8996 30.7441 95.7079C30.169 95.4683 29.4979 95.2286 28.8749 94.941C27.5807 94.3659 26.1908 93.7428 24.705 92.928C23.2191 92.1611 21.7333 91.2504 20.1516 90.2439C17.0362 88.1829 13.8249 85.5468 10.997 82.2875C9.75084 80.8017 8.60052 79.3159 7.68986 77.6863C6.58747 70.5447 5.62887 64.218 4.90993 59.7126C4.57442 57.4599 4.28684 55.6865 4.09512 54.3924C3.99926 53.7693 3.95133 53.29 3.9034 52.9545C3.9034 52.8107 3.85547 52.6669 3.85547 52.571C3.85547 52.4752 3.85547 52.4272 3.85547 52.4272C3.85547 52.4272 3.85547 52.4752 3.9034 52.571C3.9034 52.6669 3.95133 52.7628 3.95133 52.9545C3.99926 53.29 4.09512 53.7693 4.19098 54.3924C4.3827 55.6385 4.67028 57.4599 5.05372 59.6647C5.77266 64.1701 6.77919 70.4489 7.92951 77.6384V77.5904C8.79224 79.1721 9.94256 80.7059 11.1887 82.1438C14.0166 85.3551 17.18 87.9912 20.2954 90.0522C21.8771 91.0587 23.3629 92.0173 24.8487 92.7363C26.2866 93.5511 27.7245 94.1742 28.9707 94.7493C29.5938 95.0369 30.2169 95.3245 30.84 95.5162C31.4151 95.7558 31.9903 95.9476 32.5175 96.1872C33.572 96.6186 34.4826 96.9062 35.2016 97.1458C35.9205 97.3855 36.4957 97.5772 36.9271 97.721C37.1188 97.7689 37.2626 97.8168 37.3584 97.8648C37.4064 97.9606 37.4543 97.9606 37.4543 97.9606Z" fill="#4C88FF"/>
<path d="M35.2951 87.3202C35.2951 87.3202 35.2471 87.3681 35.1992 87.416C35.1513 87.464 35.0554 87.5598 34.9596 87.6078C34.7199 87.7995 34.3844 88.0871 33.953 88.4226C33.0424 89.1415 31.7483 90.148 30.0707 91.3942L30.0228 91.4421L29.9749 91.3942C28.6807 89.5729 27.0511 87.3681 25.2298 84.8278L25.3736 84.8758C24.2233 85.6906 23.025 86.5533 21.7309 87.464L21.5871 87.5598L21.5392 87.416C20.1013 83.5816 18.5196 79.268 16.8421 74.7146C16.6024 74.0915 16.4107 73.4684 16.1711 72.8933H16.4107C15.4042 74.9063 14.3976 76.8715 13.4391 78.7407L13.2953 78.9804L13.1994 78.6928C10.6112 71.2637 8.45435 64.9849 7.01645 60.9108H7.16024C6.7768 62.5404 6.48922 63.8345 6.24957 64.7452C6.15371 65.1766 6.05785 65.5121 6.00992 65.7517C5.96199 65.8476 5.96199 65.9435 5.96199 65.9914C5.96199 66.0393 5.91406 66.0872 5.91406 66.0872C5.91406 66.0872 5.91406 66.0393 5.91406 65.9914C5.91406 65.9435 5.96199 65.8476 5.96199 65.7517C6.00992 65.5121 6.10578 65.1766 6.15371 64.7452C6.34543 63.8345 6.63301 62.5404 7.01645 60.9108L7.06438 60.6712L7.16024 60.9108C8.59813 64.9849 10.8029 71.2637 13.4391 78.6928H13.1994C14.158 76.8235 15.1166 74.8584 16.1711 72.8454L16.3148 72.6057L16.4107 72.8933C16.6504 73.5164 16.8421 74.0915 17.0817 74.7146C18.7593 79.268 20.341 83.5816 21.7309 87.416L21.5392 87.3681C22.8333 86.4574 24.0316 85.5947 25.1819 84.7799L25.2777 84.732L25.3257 84.8278C27.147 87.3681 28.7287 89.6208 30.0228 91.3942H29.9269C31.6045 90.148 32.8986 89.1894 33.8572 88.4705C34.2885 88.135 34.672 87.8953 34.9116 87.7036C35.0075 87.6078 35.1033 87.5598 35.1992 87.5119C35.2471 87.3202 35.2951 87.3202 35.2951 87.3202Z" fill="#4C88FF"/>
<path d="M34.437 69.6821C34.437 69.6821 34.2452 69.6342 33.9097 69.5863C33.5742 69.4904 33.0949 69.3466 32.5198 69.1549C31.3694 68.7714 29.7878 68.1963 28.1102 67.4294C26.4327 66.6625 24.9468 65.8477 23.8924 65.2726C23.3652 64.985 22.9338 64.6974 22.6462 64.5057C22.3586 64.314 22.2148 64.2181 22.2148 64.2181C22.2148 64.2181 22.4066 64.266 22.6941 64.4578C23.0297 64.6495 23.461 64.8891 23.9403 65.1288C24.9948 65.7039 26.4806 66.4708 28.2061 67.2377C29.8836 68.0046 31.4653 68.6277 32.5677 69.0111C33.0949 69.2028 33.5263 69.3945 33.9097 69.4904C34.2932 69.5863 34.437 69.6821 34.437 69.6821Z" fill="#4C88FF"/>
<path d="M35.3925 71.2159C35.3925 71.2638 34.9132 71.1679 34.1942 71.0241C33.4753 70.8324 32.4688 70.5928 31.4143 70.2093C30.3599 69.8259 29.4013 69.3945 28.7302 69.1069C28.0592 68.7714 27.6758 68.5318 27.6758 68.5318C27.6758 68.4839 28.1071 68.6756 28.7782 68.9632C29.4492 69.2507 30.4078 69.6342 31.4622 70.0176C32.5167 70.4011 33.5232 70.6886 34.1942 70.9283C34.9611 71.0241 35.4404 71.1679 35.3925 71.2159Z" fill="#4C88FF"/>
<path d="M25.7104 84.8279C25.7104 85.1155 25.5187 85.3552 25.279 85.3552C25.0394 85.3552 24.8477 85.1155 24.8477 84.8279C24.8477 84.5403 25.0394 84.3007 25.279 84.3007C25.5187 84.3007 25.7104 84.4924 25.7104 84.8279Z" fill="#4C88FF"/>
<path d="M16.2712 73.7082C16.5094 73.7082 16.7026 73.4721 16.7026 73.1809C16.7026 72.8898 16.5094 72.6537 16.2712 72.6537C16.033 72.6537 15.8398 72.8898 15.8398 73.1809C15.8398 73.4721 16.033 73.7082 16.2712 73.7082Z" fill="#4C88FF"/>
<path d="M7.59711 61.0547C7.59711 61.3423 7.40539 61.582 7.16574 61.582C6.92609 61.582 6.73438 61.3423 6.73438 61.0547C6.73438 60.7671 6.92609 60.5275 7.16574 60.5275C7.40539 60.5275 7.59711 60.7671 7.59711 61.0547Z" fill="#4C88FF"/>
<path d="M161.352 49.1201L158.285 86.4574C158.285 86.4574 149.418 102.418 124.926 103.041L127.945 65.4642C127.993 65.4642 149.322 64.6014 161.352 49.1201Z" fill="#4C88FF"/>
<path d="M160.922 47.1549C160.107 44.5667 158.19 40.8761 153.589 40.1093L148.125 90.3397C148.125 90.3397 158.334 88.2788 158.622 82.7189C158.622 82.2396 160.683 57.2681 161.21 51.0852C161.306 49.7432 161.306 48.497 160.922 47.1549Z" fill="#4C88FF"/>
<g opacity="0.8">
<g opacity="0.8">
<path d="M161.352 49.1201L158.285 86.4574C158.285 86.4574 149.418 102.418 124.926 103.041L127.945 65.4642C127.993 65.4642 149.322 64.6014 161.352 49.1201Z" fill="white"/>
</g>
</g>
<path d="M160.635 58.6582C158.19 62.205 156.801 66.4228 156.753 70.7365C156.705 71.9827 156.801 73.2768 156.321 74.4271C155.842 75.5774 154.596 76.536 153.445 76.2005C152.199 75.865 151.624 74.3792 150.522 73.7081C149.563 73.0851 148.221 73.1809 147.262 73.7561C146.256 74.3312 145.585 75.3378 145.106 76.3922C144.195 78.4532 144.147 80.7538 143.524 82.8627C142.853 85.0196 141.271 87.1285 139.019 87.2244C138.204 87.2723 137.389 87.0327 136.574 87.0327C134.849 87.0806 133.363 88.3747 132.548 89.9084C131.733 91.4422 131.494 93.1677 131.254 94.8931C131.254 94.8931 144.291 96.1393 158.957 78.8366L160.635 58.6582Z" fill="#4C88FF"/>
<path d="M139.879 81.2811C139.879 81.7604 139.639 82.0959 139.351 82.0959C139.064 82.0959 138.824 81.7125 138.824 81.2811C138.824 80.8497 139.064 80.4663 139.351 80.4663C139.687 80.4663 139.879 80.8497 139.879 81.2811Z" fill="#4C88FF"/>
<path d="M146.062 65.7518C146.062 66.2311 145.823 66.5666 145.535 66.5666C145.247 66.5666 145.008 66.1832 145.008 65.7518C145.008 65.3204 145.247 64.937 145.535 64.937C145.823 64.937 146.062 65.3204 146.062 65.7518Z" fill="#4C88FF"/>
<path d="M160.346 60.4314C160.346 60.4314 160.346 60.5273 160.251 60.6231C160.203 60.7669 160.107 60.9587 159.963 61.2462C159.723 61.7735 159.34 62.5403 158.908 63.5469C157.95 65.512 156.608 68.2919 155.026 71.647L154.978 71.7429L154.882 71.6949C152.15 69.9695 149.035 68.0043 145.632 65.8475L145.824 65.7996C145.68 66.0872 145.584 66.4227 145.44 66.7582C143.14 72.366 141.079 77.4465 139.497 81.3288L139.449 81.4247L139.353 81.3768C137.052 80.0827 135.183 79.0282 133.889 78.3572C133.218 78.0217 132.739 77.7341 132.355 77.5424C132.212 77.4465 132.068 77.3986 131.972 77.3507C131.876 77.3027 131.828 77.3027 131.828 77.3027C131.828 77.2548 132.595 77.5903 133.937 78.2613C135.279 78.9324 137.148 79.9389 139.449 81.233L139.305 81.2809C140.887 77.3986 142.948 72.2701 145.201 66.6623C145.344 66.3268 145.44 66.0392 145.584 65.7037L145.632 65.5599L145.776 65.6558C149.131 67.8126 152.294 69.7777 154.978 71.5032L154.834 71.5512C156.464 68.244 157.854 65.4641 158.813 63.4989C159.292 62.5403 159.675 61.7735 159.963 61.2462C160.107 61.0066 160.203 60.8149 160.251 60.6711C160.298 60.5273 160.346 60.4314 160.346 60.4314Z" fill="#4C88FF"/>
</svg>
