<svg width="14" height="14" viewBox="0 0 14 14" fill="none" xmlns="http://www.w3.org/2000/svg">
<path fill-rule="evenodd" clip-rule="evenodd" d="M11.7119 5.49989C12.691 5.49989 13.4916 6.17144 13.5 6.99983C13.5085 7.82823 12.7217 8.49977 11.7427 8.49977L8.50013 8.49977L8.50013 11.7118C8.50013 12.6909 7.82859 13.4914 7.00019 13.4999C6.17179 13.5084 5.50025 12.7216 5.50025 11.7426L5.50025 8.49977L2.28817 8.49977C1.30912 8.49977 0.50856 7.82823 0.500069 6.99983C0.491577 6.17143 1.27837 5.49989 2.25742 5.49989L5.50024 5.49989L5.50024 2.28805C5.50024 1.30901 6.17179 0.508446 7.00019 0.499954C7.82858 0.491463 8.50013 1.27825 8.50013 2.2573L8.50013 5.49989L11.7119 5.49989Z" fill="white"/>
</svg>
