<svg width="17" height="18" viewBox="0 0 17 18" fill="none" xmlns="http://www.w3.org/2000/svg">
<path d="M11.167 16.5H1.66699C1.39085 16.5 1.16699 16.2762 1.16699 16V3.66667C1.16699 3.39052 1.39085 3.16667 1.66699 3.16667H6.16699V2C6.16699 1.72386 6.39085 1.5 6.66699 1.5H10.667C10.9432 1.5 11.167 1.72386 11.167 2V6.5M11.167 16.5H15.667C15.9432 16.5 16.167 16.2762 16.167 16V7C16.167 6.72386 15.9432 6.5 15.667 6.5H11.167M11.167 16.5V13.1667M11.167 6.5V9.83333M11.167 13.1667V9.83333M11.167 13.1667H12.8337M11.167 9.83333H12.8337" stroke="#B8B8CC" stroke-width="1.5" stroke-linecap="round" stroke-linejoin="round"/>
</svg>
