<svg width="89" height="101" viewBox="0 0 89 101" fill="none" xmlns="http://www.w3.org/2000/svg">
<path d="M59.9209 27.3752H12.0324C11.2199 27.3752 10.5613 28.0338 10.5613 28.8463C10.5613 29.6588 11.2199 30.3174 12.0324 30.3174H59.9211C60.7336 30.3174 61.3922 29.6588 61.3922 28.8463C61.3922 28.0338 60.7334 27.3752 59.9209 27.3752Z" fill="url(#paint0_linear_5134_49981)"/>
<path d="M12.0324 20.1131H35.9766C36.7891 20.1131 37.4477 19.4545 37.4477 18.642C37.4477 17.8295 36.7891 17.1709 35.9766 17.1709H12.0324C11.2199 17.1709 10.5613 17.8295 10.5613 18.642C10.5613 19.4547 11.2199 20.1131 12.0324 20.1131Z" fill="url(#paint1_linear_5134_49981)"/>
<path d="M59.9209 36.4167H12.0324C11.2199 36.4167 10.5613 37.0753 10.5613 37.8878C10.5613 38.7003 11.2199 39.3589 12.0324 39.3589H59.9211C60.7336 39.3589 61.3922 38.7003 61.3922 37.8878C61.392 37.0753 60.7334 36.4167 59.9209 36.4167Z" fill="url(#paint2_linear_5134_49981)"/>
<path d="M22.9411 90.2394H7.61549C5.10006 90.2394 3.05338 88.1929 3.05338 85.6774V7.96455C3.05338 5.44912 5.10006 3.40244 7.61549 3.40244H51.7671C51.9096 3.40244 52.0501 3.41553 52.1889 3.43428V12.6089C52.1889 16.7468 55.5553 20.113 59.693 20.113H68.8674C68.8864 20.2521 68.8993 20.3925 68.8993 20.5351V45.586C68.8993 46.3985 69.5579 47.0571 70.3704 47.0571C71.1829 47.0571 71.8415 46.3985 71.8415 45.586V20.5353C71.8415 18.9216 71.213 17.4044 70.0719 16.2632L56.0387 2.22998C54.8977 1.08896 53.3807 0.460449 51.7671 0.460449H7.61549C3.4776 0.460449 0.111389 3.82686 0.111389 7.96455V85.6774C0.111389 89.8151 3.4778 93.1813 7.61549 93.1813H22.9411C23.7536 93.1813 24.4122 92.5228 24.4122 91.7103C24.4122 90.8978 23.7536 90.2394 22.9411 90.2394ZM66.819 17.171H59.6932C57.1778 17.171 55.1311 15.1243 55.1311 12.6089V5.48311L66.819 17.171Z" fill="url(#paint3_linear_5134_49981)"/>
<path d="M88.4373 72.4779L75.9729 51.4389C75.0645 49.9049 73.0875 49.3979 71.5528 50.307L68.5209 52.1033C66.1676 53.4975 65.1729 56.3188 65.9809 58.819C64.9594 59.1891 63.8395 59.1832 62.8082 58.7846C60.4145 58.0314 58.5946 56.5164 55.5889 57.2766C50.4854 58.576 50.6405 58.5109 50.1787 58.6691C47.1905 56.9678 45.3942 56.4615 42.2219 57.6887L39.3942 58.7818C38.085 59.2877 36.6424 59.1678 35.4326 58.451L34.661 57.9961C35.0375 55.7398 34.0369 53.3588 31.9182 52.1037C31.9182 52.1037 31.9182 52.1037 31.918 52.1035L28.8863 50.3074C27.3559 49.401 25.3731 49.9084 24.4664 51.4389L12.0016 72.4781C11.0932 74.0117 11.5987 75.9893 13.133 76.898L16.1647 78.6941C17.082 79.2377 18.0903 79.4961 19.0863 79.4961C20.1971 79.4961 21.2922 79.1742 22.2285 78.568L22.8604 78.9408L21.5264 80.7988C19.9367 83.0133 20.4418 86.0926 22.6567 87.6824C23.6809 88.4176 24.9676 88.7533 26.2983 88.5443C26.5094 89.7785 27.1856 90.9336 28.2805 91.7199C29.3088 92.4582 30.5897 92.7943 31.9227 92.5844C32.1344 93.8176 32.8102 94.9717 33.9045 95.7574C35.3752 96.8131 37.2037 96.9352 38.7274 96.2844C39.0608 97.1504 39.6403 97.9324 40.4487 98.5129C42.5596 100.028 45.4674 99.6328 47.1076 97.6699L50.6526 99.7699C52.9969 101.159 56.0217 100.387 57.4117 98.04C57.7672 97.44 57.9877 96.7861 58.0684 96.1141L58.0764 96.1189C60.4172 97.5053 63.4489 96.7291 64.8356 94.3889C65.2371 93.7109 65.4573 92.9756 65.5108 92.2387C67.574 92.7574 69.8227 91.8908 70.9613 89.9689C71.335 89.3385 71.5516 88.6574 71.6229 87.9721C73.8342 88.8398 76.4188 88.0012 77.6676 85.8934C78.3393 84.7596 78.5293 83.4322 78.2026 82.1555C78.0156 81.425 77.6719 80.7619 77.2 80.202L79.1539 79.0604C80.8069 79.7389 82.6932 79.6303 84.274 78.6939L87.3053 76.8979C88.8397 75.9897 89.3465 74.0125 88.4373 72.4779ZM17.6643 76.1631L14.6326 74.3668C14.4979 74.2869 14.4531 74.1123 14.5328 73.9775L26.9977 52.9379C27.0779 52.8025 27.2531 52.7586 27.3871 52.8383L30.4186 54.6342C31.7656 55.4324 32.1871 57.1602 31.4035 58.4826L21.5127 75.1779C20.7233 76.5107 18.9971 76.9523 17.6643 76.1631ZM24.3723 85.2924C23.4789 84.651 23.2746 83.4084 23.9164 82.5147L25.8772 79.7834C26.5018 78.9133 27.7465 78.6752 28.6549 79.3273C29.5465 79.9674 29.751 81.2133 29.1112 82.1049L27.1502 84.8361C26.5102 85.7281 25.2635 85.932 24.3723 85.2924ZM29.9963 89.3301C29.1047 88.6898 28.9002 87.4436 29.5403 86.5522L31.501 83.8211C31.501 83.8211 31.501 83.8211 31.501 83.8209C31.501 83.8209 31.501 83.8207 31.5012 83.8207L33.6651 80.8066C33.9752 80.3748 34.4348 80.0893 34.9594 80.0033C35.0684 79.9854 35.1776 79.9766 35.286 79.9766C35.6988 79.9766 36.1006 80.1051 36.4428 80.3506C36.8744 80.6607 37.16 81.1201 37.2459 81.6447C37.3321 82.1695 37.2088 82.6963 36.8987 83.1281L32.7738 88.8738C32.1328 89.7674 30.8901 89.9719 29.9963 89.3301ZM35.6203 93.3674C34.7291 92.7275 34.5244 91.4822 35.1633 90.5908C35.1635 90.5904 35.1639 90.59 35.1641 90.5897L39.2889 84.8441C39.9285 83.9527 41.1754 83.7481 42.0666 84.3879C42.9582 85.0279 43.1627 86.274 42.5227 87.1656L40.6901 89.7186C40.6901 89.7186 40.6901 89.7186 40.6899 89.7188L38.3979 92.9113C37.7578 93.8029 36.5121 94.0078 35.6203 93.3674ZM42.1645 96.1229C41.2735 95.483 41.0686 94.2383 41.7071 93.3467L43.0799 91.4346C43.7197 90.5428 44.9664 90.3389 45.8576 90.9785C46.749 91.6184 46.9537 92.8647 46.3137 93.7563L44.942 95.6666C44.3022 96.5584 43.0557 96.7631 42.1645 96.1229ZM75.1369 84.394C74.5772 85.3387 73.3537 85.652 72.4088 85.0924C70.8088 84.1445 60.4877 78.0299 59.3873 77.3779C58.6881 76.9639 57.786 77.1945 57.3719 77.8936C56.9578 78.5926 57.1885 79.4949 57.8875 79.909L67.7319 85.7412L67.7321 85.7414C68.6772 86.3012 68.9924 87.5209 68.4305 88.4697C67.8705 89.4148 66.6465 89.7275 65.702 89.1684C62.061 87.0113 59.1045 85.2598 55.8524 83.333C55.153 82.919 54.251 83.1496 53.8369 83.8486C53.4229 84.5477 53.6535 85.45 54.3526 85.8641L61.6061 90.1613L61.6076 90.1623C62.5533 90.7238 62.8655 91.943 62.3047 92.8899C61.7447 93.835 60.5211 94.1481 59.576 93.5883L55.6832 91.2822C55.6828 91.282 55.6823 91.2818 55.6819 91.2814C55.6815 91.2813 55.6811 91.2811 55.6807 91.2809L52.8399 89.5977C52.1406 89.1834 51.2385 89.4141 50.8244 90.1133C50.4104 90.8123 50.641 91.7147 51.3401 92.1287L54.1815 93.8121C54.1819 93.8123 54.1823 93.8127 54.1826 93.8129C55.1278 94.3727 55.443 95.5922 54.8811 96.541C54.3211 97.4861 53.0975 97.7992 52.1524 97.2395L48.8377 95.276C50.2586 93.0834 49.7182 90.1287 47.5735 88.5893C46.9436 88.1373 46.2422 87.8559 45.5248 87.735C46.2858 85.7004 45.6297 83.325 43.7822 81.9988C42.6885 81.2133 41.3789 80.942 40.143 81.1357C39.9231 79.8496 39.2197 78.723 38.1586 77.9615C36.1629 76.5293 33.4508 76.8045 31.7756 78.4992C31.4352 77.9014 30.9653 77.365 30.3707 76.9383C28.7123 75.7481 26.5592 75.7369 24.9174 76.7395L24.2434 76.3416L33.4953 60.7246L33.9358 60.9844C35.8811 62.1367 38.2549 62.377 40.4549 61.5262L43.2826 60.433C44.9008 59.8076 45.7932 59.7668 47.3938 60.5221C46.3465 61.6986 45.7248 63.2434 45.7248 64.9082V71.4307C45.7248 73.1631 47.1332 74.5734 48.8643 74.5746H48.8686C50.6049 74.5746 52.2377 73.8986 53.466 72.6711C54.1821 71.9555 54.7106 71.1023 55.0274 70.1711C56.9268 71.2959 72.6196 80.5887 74.4389 81.6666C74.8965 81.9377 75.2211 82.3707 75.353 82.8859C75.4848 83.4006 75.408 83.9363 75.1369 84.394ZM85.8065 74.3668L82.7746 76.1631C81.4418 76.9522 79.7157 76.5102 78.9266 75.1781L74.2906 67.3529C73.8764 66.6539 72.9737 66.4232 72.2752 66.8369C71.5762 67.251 71.3453 68.1533 71.7592 68.8523L76.3951 76.6777C76.4824 76.825 76.5772 76.965 76.6752 77.1016L75.3864 77.8545C75.1258 78.0088 74.8752 78.1787 74.6356 78.3633L54.6506 66.5283C53.6715 65.9488 52.4301 66.6553 52.4301 67.7939C52.4147 67.8818 52.5821 69.3939 51.3862 70.5895C50.7135 71.2615 49.8194 71.6318 48.8684 71.6318C48.8676 71.6318 48.8668 71.6318 48.866 71.6318C48.7561 71.6318 48.6666 71.5412 48.6666 71.4299V64.9074C48.6666 63.2035 49.8389 61.766 51.4242 61.3647L56.3102 60.1281C58.083 59.6801 59.0852 60.6268 61.7397 61.5252C63.5824 62.2381 65.5862 62.1941 67.3647 61.4346L68.2526 62.9334C68.6668 63.6328 69.5692 63.8633 70.268 63.4494C70.967 63.0354 71.1979 62.133 70.784 61.434L69.0352 58.4822C68.244 57.1467 68.6848 55.4256 70.0201 54.634L73.0518 52.8381C73.1842 52.7594 73.3594 52.7996 73.4414 52.9379L85.9059 73.9772C85.9864 74.1129 85.942 74.2865 85.8065 74.3668Z" fill="url(#paint4_linear_5134_49981)"/>
<defs>
<linearGradient id="paint0_linear_5134_49981" x1="35.9768" y1="27.3752" x2="36.6108" y2="32.804" gradientUnits="userSpaceOnUse">
<stop stop-color="#7B42A9"/>
<stop offset="1" stop-color="#ED0376"/>
</linearGradient>
<linearGradient id="paint1_linear_5134_49981" x1="24.0045" y1="17.1709" x2="25.1631" y2="22.4179" gradientUnits="userSpaceOnUse">
<stop stop-color="#7B42A9"/>
<stop offset="1" stop-color="#ED0376"/>
</linearGradient>
<linearGradient id="paint2_linear_5134_49981" x1="35.9768" y1="36.4167" x2="36.6108" y2="41.8455" gradientUnits="userSpaceOnUse">
<stop stop-color="#7B42A9"/>
<stop offset="1" stop-color="#ED0376"/>
</linearGradient>
<linearGradient id="paint3_linear_5134_49981" x1="35.9764" y1="0.460442" x2="93.9441" y2="22.6854" gradientUnits="userSpaceOnUse">
<stop stop-color="#7B42A9"/>
<stop offset="1" stop-color="#ED0376"/>
</linearGradient>
<linearGradient id="paint4_linear_5134_49981" x1="50.2196" y1="49.8555" x2="95.7737" y2="84.359" gradientUnits="userSpaceOnUse">
<stop stop-color="#7B42A9"/>
<stop offset="1" stop-color="#ED0376"/>
</linearGradient>
</defs>
</svg>
