<svg width="9" height="9" viewBox="0 0 9 9" fill="none" xmlns="http://www.w3.org/2000/svg">
<path fill-rule="evenodd" clip-rule="evenodd" d="M3.07221 8.4143L6.30817 2.80945L7.49226 7.22854L8.96898 6.83285L7.3892 0.937047L7.39405 0.928656L6.07005 0.164249L6.06721 0.169176L6.0654 0.162405L0.158516 1.74515L0.554202 3.22187L4.99113 2.033L1.74822 7.64989L3.07221 8.4143Z" fill="url(#paint0_linear_4852_100929)"/>
<path fill-rule="evenodd" clip-rule="evenodd" d="M3.07221 8.4143L6.30817 2.80945L7.49226 7.22854L8.96898 6.83285L7.3892 0.937047L7.39405 0.928656L6.07005 0.164249L6.06721 0.169176L6.0654 0.162405L0.158516 1.74515L0.554202 3.22187L4.99113 2.033L1.74822 7.64989L3.07221 8.4143Z" fill="#ED0376"/>
<defs>
<linearGradient id="paint0_linear_4852_100929" x1="8.97092" y1="6.82949" x2="3.08654" y2="11.2905" gradientUnits="userSpaceOnUse">
<stop stop-color="#7B42A9"/>
<stop offset="1" stop-color="#ED0376"/>
</linearGradient>
</defs>
</svg>
