<svg width="243" height="247" viewBox="0 0 243 247" fill="none" xmlns="http://www.w3.org/2000/svg">
<path d="M88.6115 223.338C88.6645 217.002 92.5261 211.262 98.3433 208.75C105.577 205.627 114.105 208.192 118.312 214.854L119.989 217.51C121.099 219.575 121.791 221.838 122.025 224.17C122.259 226.503 122.031 228.859 121.355 231.103C120.678 233.347 119.565 235.436 118.08 237.25C116.596 239.064 114.768 240.567 112.701 241.674C112.428 241.82 112.154 241.956 111.872 242.089C100.988 247.236 88.4913 238.841 88.5825 226.801L88.6115 223.338Z" fill="#DDE3EB"/>
<path d="M110.118 238.692C110.392 238.564 110.665 238.423 110.947 238.277C119.334 233.794 123.03 224.262 119.521 216.618L120.002 217.51C121.112 219.575 121.803 221.838 122.038 224.17C122.272 226.503 122.044 228.859 121.367 231.103C120.691 233.347 119.578 235.436 118.093 237.25C116.608 239.064 114.781 240.567 112.714 241.674C112.441 241.82 112.167 241.956 111.885 242.089C103.216 246.187 93.5312 241.695 89.9932 233.611C93.7385 239.688 102.196 242.479 110.118 238.692Z" fill="#F38457"/>
<path d="M90.0049 233.611C90.6186 234.429 91.3059 235.188 92.058 235.88C92.4279 236.225 92.8215 236.544 93.2359 236.834L93.8498 237.249L94.501 237.63C95.3613 238.135 96.27 238.552 97.2136 238.875C97.6823 239.036 98.1676 239.153 98.6404 239.289C99.1132 239.426 99.611 239.493 100.096 239.567C101.076 239.697 102.066 239.744 103.054 239.708C104.031 239.669 105.003 239.539 105.957 239.318C106.918 239.103 107.858 238.806 108.769 238.431C109.217 238.223 109.69 238.062 110.117 237.825L110.457 237.647L110.544 237.605L110.586 237.581C110.503 237.626 110.586 237.581 110.553 237.581C110.566 237.581 110.58 237.577 110.591 237.57L110.739 237.485L111.399 237.07L112.058 236.656L112.651 236.241C113.058 235.971 113.447 235.676 113.817 235.357C114.579 234.724 115.289 234.031 115.94 233.284C116.252 232.902 116.596 232.541 116.886 232.143C117.176 231.745 117.467 231.342 117.716 230.928L118.458 229.642L119.097 228.302L119.615 226.909L120.005 225.469L120.271 224.001L120.395 222.508V221.006L120.229 219.501L119.906 218.016C119.751 217.559 119.596 217.094 119.452 216.625C119.441 216.59 119.457 216.552 119.49 216.535C119.529 216.515 119.577 216.532 119.595 216.572L119.631 216.653C119.668 216.736 119.549 216.796 119.498 216.721C119.475 216.686 119.487 216.639 119.524 216.62C119.558 216.603 119.6 216.617 119.617 216.652C119.83 217.096 120.036 217.544 120.242 217.999L120.739 219.48L121.079 221.019C121.142 221.537 121.196 222.064 121.245 222.587V224.171L121.079 225.751L120.752 227.311L120.275 228.829L119.661 230.301C119.42 230.778 119.163 231.243 118.91 231.712C118.657 232.18 118.334 232.603 118.043 233.051C117.753 233.499 117.392 233.881 117.064 234.296C116.37 235.105 115.61 235.855 114.792 236.54C114.39 236.898 113.964 237.229 113.518 237.531L112.859 238.008L112.195 238.398L111.531 238.788L111.361 238.883L111.237 238.953L111.15 238.995L110.806 239.169C110.329 239.422 109.827 239.584 109.337 239.812C108.346 240.213 107.318 240.516 106.268 240.716C105.219 240.924 104.152 241.031 103.083 241.036C102.016 241.039 100.952 240.937 99.9054 240.729C99.387 240.621 98.8727 240.476 98.3584 240.343C97.844 240.21 97.3505 240.003 96.8652 239.791C95.8953 239.371 94.9722 238.849 94.1111 238.236L93.4807 237.767C93.2774 237.601 93.0659 237.419 92.8875 237.245C92.4943 236.902 92.1256 236.532 91.7842 236.137C91.4353 235.75 91.1099 235.343 90.8095 234.918C90.4943 234.511 90.2579 234.051 90.0049 233.611Z" fill="#A896A2"/>
<path d="M95.3931 217.98C95.7469 217.502 95.3439 216.859 94.8335 217.165C93.3742 218.056 92.3413 219.461 91.7376 221.201C91.1513 222.89 93.0938 222.668 93.7448 221.002C94.1778 219.895 94.7274 218.88 95.3931 217.98Z" fill="white"/>
<path d="M144.236 146.071C144.601 144.384 146.275 143.322 147.957 143.71C149.944 144.166 152.851 144.842 156.551 145.626C160.251 146.41 164.735 147.318 169.89 148.081C175.615 148.974 181.4 149.426 187.194 149.434C190.479 149.435 193.759 149.224 197.016 148.803C197.846 148.683 198.729 148.583 199.53 148.451L200.861 148.218L202.105 147.965C203.794 147.613 205.54 147.202 207.265 146.692C214.163 144.684 221.28 141.565 227.357 136.767C230.428 134.408 233.051 131.516 235.1 128.231C236.106 126.584 236.905 124.821 237.481 122.98L237.697 122.291L237.867 121.586C237.991 121.118 238.088 120.643 238.157 120.163C238.232 119.686 238.327 119.209 238.356 118.72L238.423 117.994V117.812V117.72C238.423 117.608 238.423 117.77 238.423 117.72V117.305L238.448 115.692C238.459 115.44 238.451 115.188 238.423 114.937L238.373 114.228C238.307 113.254 238.187 112.285 238.012 111.324C237.611 109.374 236.985 107.477 236.146 105.671C235.241 103.862 234.144 102.156 232.873 100.582C231.56 98.992 230.11 97.5208 228.539 96.1854C226.927 94.8338 225.229 93.587 223.458 92.4524C221.674 91.316 219.816 90.279 217.925 89.3002C214.11 87.3887 210.193 85.6897 206.191 84.2109C202.205 82.7012 198.173 81.3532 194.163 80.0093C190.152 78.6655 186.158 77.3672 182.367 75.5879C178.59 73.8978 175.087 71.6511 171.977 68.9225C170.479 67.5576 169.142 66.0269 167.991 64.36C167.693 63.9598 167.416 63.5445 167.161 63.1157L166.788 62.4728L166.589 62.1286L166.427 61.8092C166.211 61.3944 166.012 60.9465 165.805 60.4736C165.597 60.0008 165.444 59.5529 165.278 59.0883C164.034 55.3844 163.889 51.3363 165.237 47.8314C166.585 44.3266 169.438 41.7592 172.433 40.2494C175.308 38.8621 178.376 37.9155 181.533 37.4414C184.336 36.9624 187.166 36.6536 190.007 36.5165C195.341 36.2759 200.077 36.7488 203.694 38.0968C205.334 38.6561 206.853 39.5218 208.169 40.6476C209.126 41.482 209.901 42.5042 210.447 43.6506C210.779 44.3587 211.032 45.1015 211.201 45.8654C211.204 45.8815 211.184 45.8856 211.181 45.8696C210.993 45.1145 210.722 44.3828 210.372 43.6879C209.804 42.5706 209.012 41.5822 208.045 40.7845C206.743 39.7232 205.253 38.9157 203.653 38.4037C200.057 37.1594 195.357 36.8317 190.106 37.2133C187.304 37.4238 184.517 37.8047 181.761 38.3539C178.858 38.9346 175.842 39.7683 173.051 41.2905C171.632 42.05 170.342 43.03 169.231 44.1939C168.949 44.4791 168.689 44.7841 168.451 45.1064C168.188 45.4335 167.948 45.7786 167.733 46.1392C167.295 46.8334 166.936 47.575 166.663 48.3499C165.543 51.498 165.759 55.1687 166.987 58.5242C168.215 61.8797 170.537 64.9158 173.387 67.4128C176.401 69.9111 179.772 71.9451 183.387 73.4477C187.062 75.0528 191.015 76.2059 195.046 77.4543C199.078 78.7028 203.167 79.943 207.261 81.3656C211.408 82.7753 215.473 84.4133 219.439 86.2724C223.52 88.1724 227.374 90.5266 230.928 93.2903C232.725 94.727 234.39 96.3204 235.905 98.0518C237.424 99.829 238.743 101.768 239.837 103.834C240.891 105.934 241.693 108.152 242.226 110.441C242.467 111.597 242.643 112.766 242.753 113.942L242.832 114.842C242.864 115.127 242.88 115.413 242.877 115.7V117.314C242.831 121.999 241.577 126.594 239.236 130.653C236.987 134.504 234.067 137.92 230.613 140.74C227.356 143.431 223.81 145.751 220.04 147.658C216.471 149.482 212.757 151.008 208.937 152.221C207.074 152.826 205.225 153.312 203.358 153.76L201.948 154.079L200.625 154.349C199.658 154.535 198.779 154.66 197.862 154.813C194.371 155.36 190.848 155.683 187.315 155.78C181.189 155.94 175.06 155.628 168.982 154.846C163.59 154.195 158.949 153.382 155.153 152.685C151.358 151.989 148.397 151.391 146.381 150.977C144.69 150.632 143.607 148.972 143.972 147.285L144.236 146.071Z" fill="#A896A2"/>
<path d="M198.622 150.977L200.036 150.707C200.957 150.529 202.301 150.23 204.001 149.815C208.677 148.634 213.227 146.999 217.585 144.933C220.481 143.558 223.256 141.942 225.88 140.101C228.792 138.056 231.425 135.641 233.715 132.918C236.153 130.034 237.946 126.663 238.975 123.029C239.486 121.168 239.756 119.248 239.779 117.318C239.779 116.825 239.812 116.318 239.808 115.829L239.721 114.39L239.676 113.668L239.572 112.946L239.36 111.503C238.642 107.68 237.052 104.074 234.715 100.964L234.3 100.379L233.84 99.8272C233.533 99.4581 233.23 99.0848 232.915 98.7239C232.251 98.0354 231.629 97.3137 230.916 96.6833C229.552 95.3921 228.109 94.1882 226.594 93.0789C220.559 88.7529 214.192 85.7582 208.676 83.4521C203.159 81.146 198.443 79.4164 195.158 78.1886C194.91 78.0957 195.006 77.8282 195.258 77.9108L201.26 79.8975C203.574 80.6773 206.183 81.5566 208.991 82.6682C211.799 83.7798 214.798 85.0116 217.929 86.5255C221.22 88.0919 224.374 89.9316 227.357 92.0254C228.933 93.159 230.436 94.3906 231.857 95.7127C232.595 96.3597 233.255 97.1063 233.931 97.8156C234.263 98.1889 234.578 98.5746 234.906 98.9562L235.391 99.5327L235.839 100.138C238.333 103.406 240.036 107.206 240.816 111.242L241.028 112.772L241.131 113.535L241.177 114.315L241.252 115.871C241.252 116.381 241.223 116.87 241.214 117.372C241.169 119.415 240.864 121.445 240.306 123.411C239.195 127.227 237.284 130.762 234.698 133.78C233.492 135.217 232.173 136.556 230.754 137.783C229.39 138.942 227.964 140.024 226.482 141.026C223.765 142.832 220.9 144.404 217.917 145.726C215.405 146.842 212.822 147.792 210.185 148.571C207.838 149.276 205.764 149.77 204.043 150.131C202.321 150.491 200.957 150.686 200.028 150.819L198.622 150.977Z" fill="#F1F2F2"/>
<path d="M56.774 105.787C56.9055 102.097 58.0399 98.5124 60.0554 95.4183C62.0708 92.3243 64.8911 89.8378 68.2133 88.2259C86.398 79.3181 105.938 73.4968 126.032 71.0005C103.673 71.099 81.6269 76.2607 61.548 86.0981C58.8524 87.4028 56.5635 89.4174 54.9272 91.9256C53.291 94.4337 52.3693 97.3403 52.2613 100.333C51.5976 119.583 56.1269 141.366 64.3477 159.272C58.9515 141.802 56.1809 122.975 56.774 105.787Z" fill="#F38457"/>
<path d="M104.627 204.629C104.22 204.565 103.805 204.578 103.401 204.659C101.607 205.017 99.6812 204.665 98.3868 203.372L95.0151 200.004C92.4161 197.409 88.3073 197.11 85.36 199.302C81.468 202.197 81.3629 207.99 85.1472 211.024L96.2729 219.945C100.346 223.21 106.24 222.817 109.842 219.039C113.675 215.02 113.699 208.242 108.662 205.901C107.314 205.275 105.967 204.84 104.627 204.629Z" fill="#DDE3EB"/>
<path d="M90.2619 180.882C91.3296 176.697 90.1044 171.002 88.1713 166.743C87.3186 164.864 87.054 162.715 87.8058 160.793L88.0526 160.163C89.291 156.997 87.5372 153.453 84.2696 152.517C80.8799 151.547 77.4205 153.818 76.964 157.315L73.7894 181.623C73.1038 186.873 77.6914 191.29 82.9118 190.406C85.9196 189.896 88.3625 187.695 89.1817 184.757L90.2619 180.882Z" fill="#DDE3EB"/>
<path d="M94.1892 191.395C92.1138 193.69 92.1925 197.206 94.3683 199.406L100.44 205.545C101.726 206.844 103.65 207.207 105.443 206.849C105.59 206.82 105.737 206.792 105.884 206.767C105.996 206.747 106.118 206.745 106.23 206.757C107.743 206.92 110.891 203.116 110.034 201.858L101.249 188.967C100.184 187.404 97.9379 187.25 96.6696 188.653L94.1892 191.395Z" fill="#A896A2"/>
<path d="M90.2625 180.881L89.7279 182.799C88.7007 186.484 90.9652 190.279 94.6962 191.125C97.9825 191.87 101.31 190.056 102.465 186.891L109.267 168.243C110.796 164.049 108.447 159.438 104.155 158.21L96.6864 156.072C93.1013 155.046 89.3239 156.915 87.9651 160.388C87.1138 162.563 87.4178 164.998 88.349 167.141C90.1785 171.352 91.2972 176.826 90.2625 180.881Z" fill="#A896A2"/>
<path d="M77.1479 205.78C76.5637 205.779 75.9965 205.584 75.536 205.225C75.0754 204.865 74.7478 204.363 74.605 203.796C74.4623 203.23 74.5124 202.632 74.7476 202.098C74.9828 201.563 75.3896 201.122 75.9035 200.844L99.5455 188.028C99.8504 187.837 100.191 187.711 100.547 187.657C100.903 187.603 101.266 187.623 101.613 187.715C101.961 187.807 102.286 187.969 102.569 188.192C102.851 188.415 103.085 188.693 103.256 189.01C103.426 189.327 103.53 189.675 103.561 190.034C103.591 190.392 103.548 190.753 103.434 191.094C103.319 191.435 103.136 191.749 102.895 192.016C102.654 192.284 102.361 192.499 102.034 192.649L78.3922 205.465C78.0099 205.671 77.5823 205.78 77.1479 205.78Z" fill="#E04150"/>
<path d="M103.327 189.497C103.314 189.494 103.304 189.485 103.299 189.473C103.271 189.397 103.237 189.328 103.203 189.252C103.168 189.175 103.162 189.144 103.138 189.097C103.134 189.09 103.132 189.082 103.132 189.073C103.132 189.065 103.13 189.057 103.126 189.05L103.107 189.015C103.062 188.936 103.004 188.866 102.954 188.795C102.904 188.725 102.879 188.683 102.834 188.63L102.805 188.596C102.751 188.539 102.694 188.485 102.634 188.435C102.576 188.381 102.527 188.323 102.464 188.273L102.435 188.252C102.377 188.206 102.311 188.173 102.249 188.132C102.19 188.093 102.12 188.046 102.049 188.006C102.041 188.001 102.033 187.999 102.024 187.999C102.016 187.999 102.009 187.997 102.002 187.994C101.934 187.963 101.86 187.94 101.792 187.912C101.728 187.886 101.66 187.856 101.592 187.835C101.579 187.831 101.566 187.829 101.552 187.829C101.544 187.829 101.535 187.828 101.527 187.827L101.315 187.792C101.236 187.772 101.156 187.757 101.075 187.746H101.033C100.967 187.746 100.901 187.746 100.834 187.746C100.768 187.746 100.652 187.746 100.561 187.746H100.507H100.478L88.9512 189.343C89.4554 189.289 89.9643 189.383 90.4162 189.613C90.8682 189.843 91.2438 190.199 91.4975 190.638C91.7512 191.077 91.8722 191.58 91.8458 192.086C91.8434 192.131 91.84 192.175 91.8354 192.22C91.766 192.89 92.0432 193.719 92.5014 194.214C92.8151 194.553 93.0334 194.969 93.1341 195.419C93.2348 195.87 93.2144 196.339 93.0749 196.779C93.0155 196.966 93.3777 197.362 93.5505 197.269L102.079 192.649L102.116 192.628L102.253 192.537C102.338 192.485 102.419 192.428 102.498 192.367L102.547 192.329C102.589 192.292 102.622 192.251 102.659 192.213C102.7 192.176 102.739 192.137 102.777 192.097C102.82 192.052 102.864 192.004 102.904 191.956C102.925 191.931 102.95 191.886 102.975 191.848C103.026 191.778 103.073 191.705 103.116 191.628C103.136 191.595 103.157 191.566 103.174 191.533C103.189 191.502 103.203 191.47 103.215 191.438C103.235 191.393 103.254 191.348 103.272 191.303C103.302 191.225 103.334 191.147 103.36 191.068C103.378 191.015 103.38 190.954 103.39 190.899C103.401 190.838 103.42 190.778 103.431 190.716C103.438 190.679 103.439 190.656 103.44 190.639C103.442 190.592 103.456 190.547 103.456 190.5C103.462 190.415 103.462 190.329 103.456 190.243C103.456 190.181 103.456 190.119 103.456 190.056C103.456 189.994 103.456 190.019 103.456 190.002V189.965C103.456 189.903 103.423 189.849 103.41 189.787C103.398 189.726 103.382 189.62 103.357 189.538C103.357 189.535 103.356 189.535 103.356 189.532C103.356 189.518 103.346 189.502 103.332 189.499L103.327 189.497Z" fill="#8A1443"/>
<path d="M73.5224 195.249C73.3239 194.627 73.3779 193.952 73.6727 193.369C73.9676 192.786 74.4797 192.343 75.0986 192.134C75.1659 192.112 75.1811 192.034 75.1177 192.002C74.8299 191.857 74.5083 191.788 74.1842 191.804C73.7989 191.823 73.4288 191.961 73.125 192.198C72.8212 192.436 72.5986 192.762 72.4878 193.132C72.377 193.501 72.3834 193.896 72.5062 194.262C72.5916 194.523 72.7337 194.762 72.9224 194.961C73.0692 195.116 73.2413 195.244 73.431 195.341C73.4945 195.373 73.5464 195.316 73.5224 195.249Z" fill="white"/>
<path d="M76.4833 204.27C76.3816 203.962 76.3417 203.637 76.366 203.314C76.3902 202.99 76.4781 202.675 76.6245 202.386C76.7709 202.096 76.9731 201.838 77.2193 201.627C77.4656 201.416 77.7511 201.256 78.0594 201.155C78.1277 201.131 78.1449 201.054 78.0811 201.019C77.9016 200.922 77.707 200.855 77.5051 200.821C77.2427 200.776 76.9739 200.788 76.7166 200.856C76.4592 200.923 76.2193 201.045 76.0127 201.213C75.8062 201.38 75.6378 201.59 75.5188 201.828C75.3998 202.066 75.3329 202.327 75.3227 202.593C75.3124 202.859 75.359 203.124 75.4593 203.37C75.5597 203.617 75.7114 203.839 75.9044 204.022C76.0517 204.162 76.2204 204.276 76.4037 204.361C76.4514 204.383 76.501 204.32 76.4833 204.27Z" fill="white"/>
<path d="M146.124 143.971L145.848 154.879C145.798 156.826 148.013 158.225 149.639 157.154C150.218 156.774 150.467 156.174 150.518 155.483L151.392 143.797C151.394 143.554 151.385 143.312 151.362 143.072C151.101 140.263 149.77 137.524 149.664 134.705C149.633 133.888 149.584 133.073 149.515 132.258C149.441 131.39 149.665 130.528 150.015 129.73C150.341 128.984 150.565 128.197 150.679 127.388C150.722 127.089 150.534 126.817 150.255 126.7L146.01 124.951C145.68 124.816 145.346 125.108 145.423 125.456C145.568 126.189 145.491 126.948 145.202 127.638C144.913 128.327 144.426 128.914 143.801 129.325C143.828 129.306 143.866 129.322 143.871 129.354C144.481 133.222 144.607 137.15 144.247 141.048C144.219 141.353 144.046 141.626 143.781 141.78C143.625 141.87 143.463 141.963 143.296 142.058C143.291 142.061 143.287 142.067 143.287 142.073C143.287 142.086 143.3 142.095 143.312 142.09C144.774 141.502 146.355 142.511 146.124 143.971Z" fill="#AE4332"/>
<path d="M130.466 39.978C131.354 34.8547 137.229 32.3498 141.541 35.2556C142.154 35.6599 142.634 36.2347 142.924 36.9092C143.214 37.5836 143.3 38.3281 143.171 39.0508L137.634 70.2042C137.5 70.9666 137.133 71.6688 136.584 72.2135C136.034 72.7581 135.328 73.1184 134.564 73.2445C129.603 74.0865 125.3 69.7685 126.16 64.8101L130.466 39.978Z" fill="#A896A2"/>
<path d="M43.9073 75.953C41.2943 74.2271 38.1326 73.535 35.0375 74.0113C31.9424 74.4876 29.1351 76.0982 27.1619 78.5299C25.1886 80.9615 24.1905 84.0403 24.3616 87.1672C24.5328 90.2941 25.8611 93.2454 28.088 95.4472L30.1587 97.4955C35.3385 102.619 43.7307 102.441 48.6875 97.1007C54.1119 91.2569 52.9899 81.9408 46.333 77.5522L43.9073 75.953Z" fill="#DDE3EB"/>
<path d="M43.9072 75.9529C43.4142 75.6267 42.8998 75.3366 42.368 75.0844C41.7018 74.7684 41.219 75.6772 41.6965 76.2391L51.6396 87.9724C52.6434 89.157 54.3927 89.3627 55.6439 88.4433C57.303 87.2243 57.2384 84.7248 55.5185 83.5932L43.9072 75.9529Z" fill="#A896A2"/>
<path d="M82.8591 90.6275L68.3199 87.5466C61.294 86.0579 54.137 89.433 50.8163 95.801L50.4181 96.5645C46.4193 104.233 49.2377 113.691 56.7817 117.92L66.4674 123.349C72.971 127.007 78.3464 122.685 81.3452 115.858L84.4726 108.732C87.4714 101.913 89.9476 92.9419 82.8591 90.6275Z" fill="#DDE3EB"/>
<path d="M2.16456 48.3457C2.68447 47.5702 3.49018 47.0319 4.40566 46.8485C5.32115 46.6651 6.27202 46.8515 7.05056 47.3669L13.8901 51.9293C15.427 52.9526 16.4339 55.1988 15.6218 56.8149C15.5398 56.9782 15.3399 57.0328 15.1739 56.9564C15.0079 56.8799 14.8124 56.9371 14.6977 57.0795C14.1799 57.7222 13.4509 58.1665 12.6349 58.3293C11.7147 58.5128 10.7593 58.3234 9.97884 57.8025L3.13927 53.24C2.36209 52.7194 1.82305 51.9118 1.64034 50.9943C1.45763 50.0769 1.64614 49.1244 2.16456 48.3457Z" fill="#DDE3EB"/>
<path d="M28.1481 85.6706L34.3463 78.0302C35.8912 76.1258 35.5998 73.3297 33.6954 71.7848C31.791 70.2399 28.9948 70.5313 27.4499 72.4357L21.2518 80.0761C19.7069 81.9805 19.9983 84.7767 21.9027 86.3215C23.8071 87.8664 26.6032 87.575 28.1481 85.6706Z" fill="#DDE3EB"/>
<path d="M30.7568 73.464C32.1402 66.0999 27.292 59.0086 19.9279 57.6251C12.5638 56.2416 5.47248 61.0899 4.089 68.454C2.70552 75.8181 7.55377 82.9094 14.9179 84.2928C22.282 85.6763 29.3733 80.8281 30.7568 73.464Z" fill="#DDE3EB"/>
<path d="M14.0358 82.6969C21.7876 82.6969 28.0717 76.5039 28.0717 68.8643C28.0717 61.2248 21.7876 55.0317 14.0358 55.0317C6.28406 55.0317 0 61.2248 0 68.8643C0 76.5039 6.28406 82.6969 14.0358 82.6969Z" fill="#DDE3EB"/>
<path d="M44.9319 113.701C44.4914 113.7 44.0582 113.588 43.6724 113.375C43.2865 113.162 42.9604 112.856 42.7241 112.484C42.4878 112.112 42.3488 111.687 42.3201 111.247C42.2913 110.807 42.3736 110.368 42.5594 109.968L54.0154 85.6212C54.3208 85.0041 54.8561 84.5314 55.5062 84.3047C56.1563 84.0779 56.8694 84.1152 57.4923 84.4084C58.1152 84.7017 58.5983 85.2276 58.8377 85.8732C59.0772 86.5187 59.0539 87.2324 58.7728 87.861L47.3127 112.204C47.0987 112.653 46.7613 113.033 46.3397 113.298C45.9182 113.563 45.4299 113.703 44.9319 113.701Z" fill="#E04150"/>
<path d="M57.7655 84.5552C57.6932 84.5083 57.6184 84.4654 57.5415 84.4266C57.4918 84.3998 57.4456 84.366 57.3965 84.3414C57.3882 84.3373 57.3791 84.3353 57.3699 84.3353C57.36 84.3353 57.3502 84.333 57.3414 84.3286L57.3051 84.3105C57.2221 84.2773 57.135 84.2565 57.052 84.2317C57.0012 84.2121 56.9495 84.195 56.8972 84.1802C56.8706 84.1727 56.8432 84.1694 56.8156 84.1694L56.5834 84.1445C56.505 84.1322 56.4261 84.1239 56.3469 84.1197H56.3138C56.165 84.1073 56.0147 84.109 55.8657 84.118C55.8574 84.1185 55.8492 84.119 55.8409 84.1197H55.8119C55.7372 84.1197 55.6626 84.1611 55.5838 84.1819C55.5104 84.2012 55.4405 84.2169 55.3743 84.2391C55.3647 84.2423 55.3546 84.2441 55.3444 84.2441C55.3326 84.2441 55.321 84.2463 55.3102 84.2511C55.2458 84.2795 55.1846 84.3172 55.1234 84.3478C55.0491 84.3787 54.977 84.4147 54.9077 84.4556L54.8703 84.4805C54.7586 84.5512 54.6557 84.6354 54.5534 84.719C54.5343 84.7346 54.5156 84.7505 54.4971 84.7667L54.4686 84.7923C54.4636 84.7968 54.4556 84.8097 54.4556 84.8165C54.4556 84.8186 54.4548 84.8256 54.4533 84.8271L46.1934 93.0165C46.5666 92.6659 47.0345 92.4325 47.5391 92.3452C48.0438 92.2579 48.5629 92.3206 49.0322 92.5254C49.5016 92.7303 49.9005 93.0684 50.1796 93.4977C50.2067 93.5395 50.2326 93.5819 50.2573 93.625C50.5893 94.2058 51.3007 94.7111 51.9586 94.8328C52.4123 94.9167 52.8359 95.1189 53.1864 95.419C53.537 95.719 53.8021 96.1063 53.955 96.5416C54.0209 96.7291 54.549 96.8282 54.632 96.6477L58.6771 87.8428C58.6804 87.8355 58.683 87.8279 58.6835 87.8199C58.6849 87.8007 58.687 87.7812 58.6943 87.7634C58.7117 87.7215 58.7231 87.6778 58.7402 87.6369C58.7571 87.5963 58.7906 87.4976 58.8159 87.4108C58.8267 87.3738 58.8314 87.3354 58.8314 87.2968C58.8314 87.1877 58.8657 87.0816 58.8776 86.9732C58.881 86.9415 58.8836 86.9097 58.8853 86.8779C58.8874 86.8475 58.8874 86.817 58.8853 86.7866C58.8853 86.741 58.8853 86.6995 58.8853 86.6539C58.8853 86.6083 58.8853 86.4797 58.8853 86.3926C58.8874 86.3553 58.8874 86.3179 58.8853 86.2806C58.879 86.247 58.8707 86.2137 58.8604 86.1811C58.8512 86.1334 58.8402 86.0862 58.8273 86.0395C58.8052 85.9594 58.783 85.8783 58.7568 85.7995L58.7194 85.7207C58.6852 85.6363 58.645 85.5546 58.5991 85.476C58.5743 85.4303 58.5577 85.3847 58.5328 85.3432L58.4913 85.2852C58.4437 85.2137 58.391 85.1458 58.3337 85.0819C58.2964 85.0322 58.2632 84.9824 58.2217 84.9368L58.204 84.9171C58.1956 84.9078 58.1725 84.8834 58.1636 84.8745C58.1187 84.8334 58.0716 84.7946 58.0226 84.7584C57.9601 84.6973 57.8936 84.6405 57.8235 84.5884L-nan -nanL57.8235 84.5884L57.7655 84.5552Z" fill="#8A1443"/>
<path d="M29.0342 55.318C29.0139 54.8538 28.9023 54.3981 28.7058 53.9771C28.5092 53.556 28.2315 53.1779 27.8886 52.8643C27.5458 52.5507 27.1444 52.3078 26.7075 52.1495C26.2707 51.9912 25.8069 51.9206 25.3427 51.9418C25.1307 51.9556 25.0555 52.2152 25.1907 52.379C25.3787 52.6068 25.5378 52.8579 25.6638 53.1266C25.8617 53.5488 25.9739 54.006 25.9939 54.4719L26.3589 62.6885C26.3666 62.8843 26.3582 63.0799 26.334 63.2735C26.2664 63.8157 26.2836 64.3805 26.5168 64.8747C27.9114 67.8304 28.1898 71.0016 27.2075 73.7031C27.1592 73.8358 27.3814 74.0118 27.5119 73.9578C27.8567 73.8181 28.2373 73.7934 28.5973 73.8871C28.9572 73.9809 29.2774 74.1882 29.5102 74.4783C29.743 74.7684 29.8761 75.1258 29.8897 75.4975C29.9031 75.8622 29.8008 76.2216 29.5977 76.5243C29.5911 76.5341 29.5933 76.5474 29.6027 76.5545C29.6119 76.5614 29.6248 76.56 29.6325 76.5515C29.8105 76.3533 30.0314 76.1982 30.2785 76.098C30.6352 75.9548 31.0296 75.9349 31.399 76.0414C31.7684 76.1479 32.0916 76.3746 32.3174 76.6857C32.5432 76.9968 32.6587 77.3744 32.6455 77.7586C32.6326 78.1339 32.4976 78.4945 32.2614 78.7859C32.2521 78.7974 32.2532 78.8144 32.2643 78.8243C32.2761 78.8349 32.2943 78.8335 32.3043 78.8212L34.3525 76.3004C35.4425 74.9587 35.2321 72.9862 33.8834 71.9048L32.4937 70.7905C31.4793 69.9771 30.8721 68.7814 30.5424 67.5237C30.3377 66.7428 30.0636 65.9811 29.7231 65.2476C29.4761 64.7154 29.4206 64.1167 29.3991 63.5305L29.0342 55.318Z" fill="#A896A2"/>
<path d="M118.229 214.442C119.07 221.145 125.064 225.98 131.792 225.384C138.071 224.828 142.964 219.701 143.227 213.403L144.964 171.752C145.479 159.426 132.395 151.202 121.479 156.952C115.584 160.057 112.213 166.498 113.043 173.109L118.229 214.442Z" fill="#DDE3EB"/>
<path d="M148.058 218.686C145.093 213.078 139.095 209.752 132.768 210.207L132.417 210.232C124.159 210.825 117.717 217.622 117.567 225.901L117.529 227.966C117.497 230.31 117.927 232.637 118.795 234.815C119.662 236.993 120.951 238.978 122.587 240.657C124.222 242.336 126.173 243.676 128.327 244.601C130.481 245.526 132.796 246.017 135.14 246.046C135.451 246.046 135.754 246.046 136.061 246.046C148.089 245.594 155.306 232.383 149.674 221.74L148.058 218.686Z" fill="#DDE3EB"/>
<path d="M140.392 195.087C137.806 194.666 135.464 196.673 135.482 199.293L135.506 202.827C135.533 206.793 139.079 209.507 142.435 211.621C144.687 213.04 146.385 215.464 148.334 219.19L144.913 212.662C143.911 210.75 143.444 208.603 143.561 206.448L143.939 199.493C144.056 197.334 142.527 195.434 140.392 195.087Z" fill="#A896A2"/>
<path d="M136.045 242.197C135.738 242.197 135.436 242.197 135.125 242.197C125.614 242.085 117.945 235.333 117.534 226.929L117.513 227.941C117.481 230.285 117.911 232.613 118.779 234.79C119.647 236.968 120.935 238.953 122.571 240.632C124.207 242.311 126.157 243.652 128.311 244.576C130.465 245.501 132.781 245.992 135.125 246.021C135.436 246.021 135.738 246.021 136.045 246.021C145.627 245.66 152.147 237.207 151.562 228.406C151.043 235.532 144.834 241.903 136.045 242.197Z" fill="#F38457"/>
<path d="M151.578 228.41C151.54 228.92 151.54 229.439 151.474 229.949C151.406 230.466 151.305 230.979 151.171 231.484C151.049 231.991 150.893 232.49 150.702 232.977C150.611 233.221 150.524 233.47 150.42 233.711L150.076 234.42C149.594 235.36 149.014 236.247 148.346 237.066C148.015 237.481 147.641 237.854 147.281 238.248C146.92 238.642 146.497 238.966 146.086 239.302C145.251 239.967 144.354 240.549 143.407 241.04C142.454 241.526 141.458 241.923 140.433 242.226C139.408 242.531 138.357 242.735 137.293 242.836C136.758 242.869 136.231 242.948 135.692 242.944H135.066H134.875L134.107 242.906L133.336 242.865L132.531 242.745C131.996 242.68 131.466 242.583 130.943 242.454C129.903 242.224 128.883 241.909 127.894 241.513C127.409 241.289 126.911 241.098 126.442 240.841C125.974 240.584 125.505 240.331 125.053 240.053C124.601 239.775 124.169 239.46 123.738 239.149L122.515 238.128L121.395 236.996L120.383 235.752L119.507 234.424L118.769 233.022C118.57 232.533 118.354 232.043 118.193 231.55L117.778 230.032L117.533 228.489C117.505 227.99 117.482 227.495 117.469 227.004C117.468 226.965 117.499 226.933 117.538 226.933C117.577 226.933 117.609 226.968 117.605 227.007C117.598 227.091 117.475 227.088 117.471 227.005C117.469 226.966 117.499 226.933 117.538 226.933H117.548C117.585 226.933 117.617 226.96 117.624 226.996C117.714 227.481 117.789 227.962 117.865 228.443L118.259 229.912L118.807 231.322L119.483 232.661L120.283 233.931L121.196 235.113L122.203 236.208L123.311 237.203L124.493 238.103L125.737 238.9C126.152 239.144 126.617 239.356 127.052 239.588C127.488 239.82 127.965 239.966 128.417 240.165C129.338 240.518 130.287 240.795 131.254 240.994C131.728 241.107 132.209 241.19 132.693 241.243L133.411 241.347L134.182 241.392L134.949 241.438H135.14H135.671C136.161 241.438 136.65 241.38 137.144 241.359C138.124 241.269 139.095 241.097 140.047 240.845C141.002 240.601 141.931 240.267 142.822 239.845C143.713 239.423 144.568 238.926 145.377 238.36C145.791 238.07 146.156 237.747 146.546 237.44C146.936 237.133 147.272 236.764 147.616 236.407C148.301 235.679 148.913 234.886 149.441 234.039L149.856 233.404L150.2 232.732C150.434 232.283 150.636 231.819 150.806 231.342C151.15 230.39 151.408 229.409 151.578 228.41Z" fill="#A896A2"/>
<path d="M167.799 124.211C169.279 121.451 169.68 118.24 168.923 115.201C168.166 112.163 166.307 109.514 163.706 107.77L130.81 85.7248C127.036 83.1989 121.685 81.3075 117.861 83.0164C115.41 84.1114 114.045 87.6784 112.668 90.25L108.993 97.1061C108.161 98.6584 107.664 100.368 107.532 102.124C107.401 103.88 107.638 105.645 108.23 107.303C108.821 108.962 109.754 110.479 110.967 111.756C112.18 113.033 113.647 114.041 115.273 114.717L151.843 129.902C154.735 131.103 157.97 131.186 160.919 130.134C163.868 129.082 166.321 126.971 167.799 124.211Z" fill="#C3C4D4"/>
<path d="M168.666 130.248L173.314 121.576C174.472 119.415 173.659 116.724 171.498 115.565C169.336 114.407 166.645 115.22 165.487 117.381L160.839 126.053C159.681 128.214 160.494 130.905 162.655 132.064C164.816 133.222 167.508 132.409 168.666 130.248Z" fill="#C3C4D4"/>
<path d="M135.937 123.452C135.459 123.453 134.991 123.322 134.581 123.076C134.172 122.829 133.838 122.476 133.615 122.053C133.391 121.631 133.288 121.155 133.315 120.678C133.342 120.201 133.498 119.741 133.768 119.346L148.924 97.1476C149.316 96.5722 149.922 96.1765 150.606 96.0474C151.291 95.9182 151.998 96.0663 152.574 96.459C153.149 96.8518 153.545 97.4569 153.674 98.1414C153.803 98.8259 153.655 99.5337 153.262 100.109L138.119 122.308C137.877 122.663 137.552 122.954 137.171 123.153C136.791 123.353 136.367 123.456 135.937 123.452Z" fill="#E04150"/>
<path d="M195.142 116.845C195.343 117.762 195.172 118.72 194.666 119.51C194.161 120.301 193.362 120.858 192.446 121.059C191.758 121.21 191.524 122.094 191.991 122.621C192.373 123.051 192.726 123.506 193.05 123.983C193.273 124.311 193.587 124.57 193.962 124.701L200.903 127.144C201.787 127.455 202.512 128.105 202.917 128.951C203.322 129.796 203.375 130.768 203.064 131.653C202.752 132.537 202.102 133.261 201.257 133.667C200.411 134.072 199.44 134.125 198.555 133.813L195.67 132.796C195.517 132.742 195.351 132.855 195.333 133.016C195.322 133.109 195.369 133.2 195.452 133.246L199.086 135.244C199.885 135.685 200.476 136.424 200.729 137.3C200.983 138.175 200.878 139.116 200.438 139.915L-nan -nanL200.438 139.915C199.999 140.714 199.262 141.306 198.387 141.561C197.512 141.816 196.571 141.713 195.772 141.275L193.161 139.822C192.949 139.705 192.681 139.765 192.527 139.952C192.356 140.159 192.385 140.464 192.594 140.633L194.266 141.984C194.978 142.555 195.434 143.385 195.534 144.291C195.634 145.198 195.37 146.107 194.799 146.819C194.229 147.53 193.399 147.986 192.493 148.086C191.586 148.186 190.677 147.922 189.965 147.352L186.339 144.457C186.306 144.431 186.262 144.424 186.222 144.437C186.14 144.463 186.111 144.563 186.169 144.627L187.074 145.639C187.384 145.984 187.624 146.387 187.778 146.825C187.932 147.262 187.999 147.726 187.974 148.19C187.949 148.653 187.834 149.107 187.633 149.526C187.433 149.945 187.152 150.32 186.807 150.63C186.461 150.941 186.058 151.18 185.621 151.334C185.183 151.489 184.719 151.555 184.255 151.53C183.792 151.506 183.338 151.39 182.919 151.189C182.5 150.989 182.125 150.708 181.815 150.363L176.319 144.245C176.122 144.008 175.891 143.797 175.616 143.657C174.886 143.286 174.195 142.846 173.55 142.344C172.766 141.732 171.96 141.144 171.137 140.586C171.032 140.515 170.927 140.442 170.824 140.367C168.281 138.517 166.46 135.841 165.673 132.797C164.885 129.753 165.18 126.53 166.506 123.679C167.832 120.828 170.108 118.526 172.943 117.168C175.51 115.938 178.392 115.55 181.18 116.047C181.745 116.147 182.325 116.054 182.881 115.912L190.911 114.149C191.366 114.048 191.836 114.037 192.295 114.118C192.754 114.198 193.193 114.369 193.586 114.619C193.979 114.87 194.318 115.195 194.585 115.577C194.852 115.959 195.041 116.39 195.142 116.845Z" fill="#C3C4D4"/>
<path d="M67.7903 114.386C67.6327 109.213 67.9314 104.485 68.2424 102.772C67.3958 105.414 66.7429 108.115 66.2889 110.852L-nan -nanL66.2889 110.852C66.2155 110.726 66.1431 110.6 66.0716 110.474C65.8065 110.005 64.6889 110.35 64.8022 110.877C65.2598 113.004 65.8256 115.157 66.6155 117.345C66.9341 118.228 68.1478 118.083 68.3013 117.157L68.4273 116.397C68.4637 116.178 68.4376 115.952 68.3519 115.747L67.7967 114.418C67.7925 114.407 67.7903 114.397 67.7903 114.386Z" fill="#A896A2"/>
<path d="M81.6399 145.982C77.3157 146.148 73.826 150.434 75.8633 154.252C76.7287 155.873 78.3914 156.901 80.2269 156.997C89.6049 157.492 100.873 156.299 111.826 153.801C122.776 151.304 133.442 147.477 141.674 142.962C143.288 142.076 144.342 140.426 144.416 138.586C144.592 134.258 139.581 131.912 135.612 133.644C129.482 136.317 120.712 139.284 109.113 141.935C97.5103 144.586 88.3212 145.726 81.6399 145.982Z" fill="#A896A2"/>
<path d="M109.114 141.947C127.576 137.729 138.874 132.71 143.76 129.342C144.397 128.934 144.896 128.343 145.192 127.647C145.488 126.951 145.567 126.181 145.419 125.439L-nan -nanL145.419 125.439C137.518 90.8557 115.41 72.6348 94.365 77.442C73.3196 82.2492 61.3327 108.255 69.2341 142.847C69.425 143.581 69.8327 144.239 70.404 144.737C70.9753 145.235 71.6835 145.55 72.4361 145.639C78.2968 146.547 90.657 146.161 109.114 141.947Z" fill="#DDE3EB"/>
<path d="M111.827 153.814C100.275 156.451 88.3465 157.634 78.6782 156.912C76.9693 156.783 75.7748 158.542 76.6583 159.84C86.0404 173.399 101.665 180.529 117.123 176.995C132.582 173.461 143.561 160.259 146.124 143.971C146.369 142.412 144.519 141.35 143.034 142.208C134.635 147.057 123.378 151.176 111.827 153.814Z" fill="#DDE3EB"/>
<path d="M122.668 130.819C113.051 135.198 102.644 137.576 92.079 137.808C89.3125 137.874 86.7617 136.596 85.5091 134.402C81.2539 127.056 79.3208 118.595 79.9636 110.13C80.1378 107.608 81.8798 105.352 84.4016 104.211C94.0214 99.8304 104.431 97.4512 114.999 97.2182C117.766 97.1518 120.317 98.4293 121.565 100.623C125.822 107.97 127.756 116.433 127.111 124.9C126.92 127.418 125.19 129.678 122.668 130.819Z" fill="#AE4332"/>
<path d="M112.271 147.466C113.417 147.204 114.513 148.065 114.53 149.241C114.561 151.458 111.375 151.84 110.881 149.679C110.654 148.684 111.276 147.694 112.271 147.466Z" fill="#A896A2"/>
<path d="M121.917 127.521C112.298 131.902 101.887 134.28 91.3195 134.51C88.5529 134.576 86.0021 133.299 84.7536 131.105C80.5009 123.758 78.5719 115.296 79.2206 106.832C79.3989 104.311 81.141 102.054 83.6586 100.914C93.2784 96.5329 103.689 94.1537 114.256 93.9207C117.023 93.8543 119.574 95.1359 120.826 97.3259C125.082 104.673 127.015 113.136 126.372 121.602C126.181 124.12 124.431 126.381 121.917 127.521Z" fill="#F38457"/>
<path d="M91.6284 115.835C94.5918 115.158 96.4994 112.444 95.8891 109.773C95.2789 107.103 92.3819 105.486 89.4185 106.163C86.4551 106.84 84.5474 109.554 85.1577 112.225C85.7679 114.896 88.6649 116.512 91.6284 115.835Z" fill="#AE4332"/>
<path d="M99.0509 123.627C99.6606 126.294 97.7526 129.019 94.787 129.686C91.8214 130.354 88.9263 128.749 88.3166 126.078C87.7069 123.407 89.6148 120.686 92.5805 120.018C95.5461 119.35 98.4412 120.956 99.0509 123.627Z" fill="#AE4332"/>
<path d="M115.46 120.914C115.766 122.25 114.813 123.606 113.328 123.946C111.843 124.286 110.399 123.477 110.092 122.142C109.785 120.806 110.744 119.45 112.224 119.11C113.705 118.77 115.157 119.583 115.46 120.914Z" fill="#AE4332"/>
<path d="M112.348 99.1671L103.457 101.199C101.922 101.549 100.963 103.077 101.313 104.611L103.018 112.072C103.368 113.606 104.896 114.565 106.431 114.215L115.322 112.183C116.856 111.833 117.816 110.305 117.465 108.771L115.761 101.31C115.41 99.7761 113.882 98.8166 112.348 99.1671Z" fill="#AE4332"/>
<path d="M89.7521 107.633C92.153 107.084 94.5107 108.045 95.6313 109.861C95.7083 109.986 95.9062 109.929 95.8741 109.786C95.2644 107.119 92.3693 105.501 89.4037 106.177C86.4381 106.853 84.5301 109.57 85.1398 112.241C85.1749 112.387 85.3826 112.352 85.3994 112.203C85.64 110.078 87.3451 108.19 89.7521 107.633Z" fill="#923122"/>
<path d="M92.9082 121.482C95.3143 120.933 97.6706 121.896 98.7896 123.713C98.8647 123.835 99.0607 123.779 99.0302 123.639C98.4205 120.968 95.5212 119.35 92.5598 120.031C89.5983 120.711 87.6862 123.419 88.2959 126.09C88.3311 126.236 88.5399 126.201 88.5568 126.053C88.8009 123.922 90.5054 122.032 92.9082 121.482Z" fill="#923122"/>
<path d="M112.349 99.1719L103.456 101.204C103.091 101.288 102.746 101.442 102.441 101.658C102.136 101.875 101.876 102.15 101.677 102.467C101.478 102.784 101.343 103.137 101.28 103.506C101.218 103.875 101.228 104.253 101.312 104.618L101.648 106.082C101.564 105.717 101.554 105.339 101.616 104.97C101.679 104.601 101.814 104.248 102.013 103.931C102.212 103.614 102.472 103.339 102.777 103.123C103.082 102.906 103.427 102.752 103.792 102.668L112.681 100.636C113.046 100.553 113.424 100.542 113.793 100.604C114.162 100.667 114.515 100.802 114.832 101.001C115.149 101.2 115.424 101.46 115.64 101.765C115.857 102.07 116.011 102.415 116.094 102.78L115.758 101.316C115.59 100.58 115.137 99.9406 114.498 99.5385C113.858 99.1364 113.085 99.0046 112.349 99.1719Z" fill="#923122"/>
<path d="M112.325 155.985C117.298 154.849 120.5 150.296 119.476 145.816C118.453 141.336 113.591 138.626 108.618 139.762C103.645 140.899 100.443 145.451 101.467 149.931C102.49 154.411 107.351 157.121 112.325 155.985Z" fill="#8A1443"/>
<path d="M111.827 153.81C115.465 152.978 117.807 149.649 117.058 146.373C116.31 143.097 112.754 141.115 109.116 141.946C105.478 142.777 103.136 146.107 103.885 149.383C104.633 152.659 108.189 154.641 111.827 153.81Z" fill="#E04150"/>
<path d="M103.962 148.932C103.938 149.096 103.741 149.127 103.668 148.979C103.666 148.975 103.665 148.972 103.663 148.969C103.583 148.812 103.52 148.647 103.477 148.475C103.401 148.25 103.354 148.016 103.336 147.779C103.297 147.504 103.287 147.226 103.307 146.949C103.327 146.634 103.379 146.321 103.46 146.016C103.543 145.688 103.661 145.369 103.813 145.066C103.966 144.75 104.147 144.449 104.356 144.166C105.117 143.135 106.207 142.395 107.446 142.067C107.668 142.005 107.896 141.963 108.126 141.943C108.302 141.917 108.48 141.909 108.657 141.918C108.83 141.918 108.885 142.11 108.74 142.204C108.62 142.279 108.479 142.374 108.325 142.486C108.172 142.598 107.993 142.706 107.815 142.851C107.413 143.153 107.028 143.477 106.662 143.822C106.467 144.008 106.276 144.207 106.09 144.415C105.903 144.621 105.727 144.837 105.563 145.062C105.393 145.282 105.243 145.518 105.098 145.75L104.891 146.103C104.833 146.227 104.775 146.348 104.713 146.464C104.502 146.909 104.329 147.371 104.194 147.845C104.092 148.202 104.015 148.565 103.962 148.932Z" fill="#F1F2F2"/>
<path d="M143.81 129.309C141.683 130.78 138.319 132.575 133.657 134.482C133.651 134.484 133.646 134.488 133.641 134.492C133.63 134.503 133.625 134.519 133.627 134.535C133.635 134.58 133.648 134.655 133.623 134.51C134.007 136.702 134.271 138.912 134.416 141.131C134.635 144.495 136.317 145.678 139.325 144.154C140.112 143.755 140.92 143.338 141.684 142.931C143.293 142.074 144.341 140.451 144.416 138.629C144.544 135.524 144.364 132.412 143.879 129.338C143.874 129.306 143.836 129.29 143.81 129.309Z" fill="#8A5F79"/>
<path d="M146.252 144.921C146.161 144.892 144.958 150.649 144.742 150.666H144.68C144.654 150.666 144.62 150.667 144.578 150.669C144.066 150.698 143.746 151.287 143.738 151.8C143.732 152.166 143.635 152.524 143.457 152.843C142.469 154.673 141.379 156.445 140.192 158.152C138.628 160.398 136.687 163.602 134.546 166.431C132.713 168.853 134.49 173.559 135.053 176.543C135.651 179.691 135.153 182.603 133.357 183.001L131.283 183.461L142.942 181.189C143.242 181.13 144.519 180.119 144.538 179.814C144.962 172.929 146.652 145.056 146.252 144.921Z" fill="#A896A2"/>
<path d="M119.699 81.2039C119.366 78.7777 115.892 79.265 113.756 80.462C108.339 83.4968 102.397 85.5075 96.2271 86.3802C90.1621 87.3486 83.9808 87.2011 77.9859 85.9548C75.9668 85.535 73.1993 86.1404 73.5018 88.1803C74.1281 92.328 84.9785 94.1281 97.7369 92.1994C110.495 90.2707 120.325 85.3516 119.699 81.2039Z" fill="#706776"/>
<path d="M119.715 81.2039C119.285 78.3725 115.261 78.8982 112.788 80.3428C107.879 83.2107 102.423 85.4458 96.2435 86.3802C96.1852 86.3878 96.1707 86.4678 96.2216 86.4974C96.6576 86.7508 97.0372 87.0922 97.3356 87.5005C97.6719 87.9607 97.8959 88.4933 97.9897 89.0555C98.0701 89.6664 97.9965 90.2877 97.7755 90.8628C97.6795 91.1128 97.557 91.3506 97.4107 91.5724C97.2449 91.8237 97.4554 92.2427 97.7533 92.1994C110.507 90.2749 120.342 85.3516 119.715 81.2039Z" fill="#5A425C"/>
<path d="M131.445 49.3578C130.616 73.4767 110.57 88.1513 86.4508 87.3425C62.3319 86.5337 43.3147 70.5401 44.111 46.4212C44.9074 22.3023 65.2726 -0.792103 89.3874 0.0208466C113.502 0.833797 132.258 25.2596 131.445 49.3578Z" fill="#A896A2"/>
<path d="M50.4746 51.7115C51.1898 49.7413 50.1724 47.5643 48.2021 46.8492C46.2319 46.134 44.055 47.1515 43.3398 49.1217C42.6247 51.0919 43.6421 53.2688 45.6123 53.984C47.5825 54.6991 49.7595 53.6817 50.4746 51.7115Z" fill="#1F1C28"/>
<path d="M49.7583 51.199C50.1873 49.6255 49.2595 48.0021 47.6859 47.5731C46.1124 47.144 44.489 48.0719 44.06 49.6455C43.631 51.219 44.5588 52.8424 46.1324 53.2714C47.7059 53.7004 49.3293 52.7726 49.7583 51.199Z" fill="#61618A"/>
<path d="M44.1111 46.4544C43.4495 66.0691 55.9221 80.3001 73.5954 85.3705C75.475 85.9097 77.466 86.0023 79.364 85.532C90.7435 82.7126 101.248 73.1735 107.111 57.6076C114.784 37.1759 111.959 13.1043 99.9373 2.86907C98.6394 1.76401 97.0542 1.05989 95.3831 0.723405C93.4086 0.325816 91.4033 0.0906007 89.3874 0.0208321C65.2726 -0.792118 44.9199 22.3189 44.1111 46.4544Z" fill="#DDE3EB"/>
<path d="M66.2266 21.3213C66.2266 21.3202 66.2257 21.3193 66.2246 21.3194C62.0008 21.7383 57.9777 23.3272 54.6076 25.9075C51.2369 28.4883 48.6532 31.9584 47.1472 35.9274C45.6275 39.9616 44.773 44.2159 44.6171 48.524C44.2355 59.8472 49.4948 69.2335 58.487 74.9075C61.0806 76.5227 63.9844 77.5754 67.0105 77.9976C70.94 78.5607 74.8973 78.9097 78.8647 79.0428C82.8315 79.1779 86.8027 79.0948 90.7603 78.7939C93.8074 78.5766 96.7748 77.7217 99.4705 76.2846C108.824 71.2327 114.701 62.2156 115.082 50.8965C115.216 46.588 114.65 42.2863 113.407 38.1589C112.171 34.0977 109.826 30.4619 106.636 27.6606C103.447 24.8593 99.5386 23.0036 95.3518 22.3022C85.7313 20.6779 75.9366 20.3486 66.2287 21.3231C66.2276 21.3233 66.2266 21.3224 66.2266 21.3213Z" fill="#BFC5D4"/>
<path d="M64.5958 19.573C60.3708 19.9919 56.3466 21.5816 52.9759 24.1631C49.6052 26.7446 47.0217 30.2156 45.5163 34.1854C43.9966 38.2196 43.1421 42.4738 42.9862 46.782C42.6046 58.1011 47.8639 67.4915 56.8562 73.1614C59.4489 74.7783 62.3531 75.8312 65.3797 76.2514C69.3089 76.8166 73.2663 77.1656 77.2338 77.2966C81.2005 77.431 85.1716 77.3493 89.1294 77.0519C92.1762 76.8327 95.1432 75.9779 97.8396 74.5425C107.193 69.4865 113.07 60.4735 113.452 49.1503C113.584 44.8415 113.017 40.5398 111.772 36.4127C110.537 32.3543 108.196 28.7204 105.01 25.9193C101.824 23.1183 97.9206 21.261 93.7375 20.556C84.1162 18.933 74.3212 18.6024 64.6124 19.573H64.5958Z" fill="#24232F"/>
<path d="M59.8208 34.9135C62.2903 32.5872 63.0506 29.3835 61.5192 27.7578C59.9877 26.1321 56.7444 26.7 54.275 29.0263C51.8056 31.3525 51.0452 34.5562 52.5767 36.1819C54.1081 37.8076 57.3514 37.2397 59.8208 34.9135Z" fill="#F1F2F2"/>
<path d="M53.5971 43.7045C52.9376 45.4466 51.4776 46.5042 50.3329 46.0687C49.1881 45.6332 48.7899 43.8746 49.4494 42.1325C50.1089 40.3905 51.573 39.3328 52.7178 39.7683C53.8626 40.2039 54.2608 41.9666 53.5971 43.7045Z" fill="#F1F2F2"/>
<path d="M118.695 74.5468L123.452 75.003C125.692 75.2187 127.845 73.2983 128.263 70.7184L134.228 33.6629C134.643 31.083 133.162 28.8183 130.91 28.6027L126.152 28.1464C123.913 27.9307 121.76 29.8511 121.341 32.431L115.389 69.4866C114.974 72.0665 116.455 74.3311 118.695 74.5468Z" fill="#C3C4D4"/>
<path d="M126.218 42.821C128.732 43.0615 131.154 40.9047 131.61 38.0096C132.067 35.1145 130.412 32.5678 127.898 32.3273C125.385 32.0867 122.963 34.2435 122.506 37.1345C122.05 40.0254 123.705 42.5804 126.218 42.821Z" fill="#1F1C28"/>
<path d="M130.679 38.8221C131.488 36.4722 130.526 34.0095 128.529 33.3216C126.532 32.6336 124.257 33.9809 123.447 36.3307C122.638 38.6806 123.6 41.1433 125.597 41.8312C127.594 42.5192 129.869 41.172 130.679 38.8221Z" fill="#61618A"/>
<path d="M127.858 52.6249C128.54 50.6432 127.728 48.5661 126.043 47.9856C124.358 47.4051 122.438 48.541 121.756 50.5227C121.073 52.5044 121.885 54.5814 123.57 55.162C125.255 55.7425 127.175 54.6066 127.858 52.6249Z" fill="#1F1C28"/>
<path d="M127.18 52.3912C127.711 50.8492 127.079 49.2332 125.769 48.7818C124.459 48.3303 122.966 49.2144 122.435 50.7565C121.903 52.2985 122.535 53.9145 123.845 54.366C125.155 54.8174 126.648 53.9333 127.18 52.3912Z" fill="#61618A"/>
<path d="M127.455 89.2256C129.786 92.4525 135.813 105.144 137.293 111.047C138.38 115.385 139.886 123.871 139.902 126.173C139.902 128.72 138.243 132.441 135.56 133.677C138.439 132.479 141.201 131.017 143.81 129.309C144.434 128.898 144.921 128.31 145.21 127.621C145.499 126.932 145.576 126.172 145.431 125.439L-nan -nanL145.431 125.439C141.852 109.827 135.406 97.5542 127.455 89.2256Z" fill="#A896A2"/>
<path d="M133.82 99.48C134.08 100.328 135.069 100.141 134.929 99.2652C134.727 98.0003 134.476 96.7702 134.195 95.5643C134.061 94.9911 132.766 95.1792 132.718 95.7659C132.713 95.8265 132.719 95.8876 132.737 95.9457L133.82 99.48Z" fill="#A896A2"/>
<path d="M143.597 142.138L143.531 142.158C143.507 142.166 143.476 142.175 143.438 142.187C142.947 142.337 142.759 142.967 142.861 143.471C142.933 143.828 142.915 144.198 142.809 144.548C142.253 146.548 141.581 148.514 140.798 150.437C139.091 154.695 136.471 158.526 133.124 161.662C129.777 164.798 125.783 167.162 121.424 168.588C121.403 168.595 121.409 168.625 121.431 168.623C124.239 168.358 127.006 167.76 129.674 166.841C130.225 166.652 130.809 166.582 131.39 166.634C131.97 166.686 132.533 166.859 133.042 167.143C133.55 167.428 133.994 167.816 134.342 168.282C134.691 168.749 134.937 169.284 135.066 169.853C135.223 170.723 135.035 171.621 134.539 172.354C134.044 173.087 133.282 173.598 132.415 173.776L142.013 172.097C142.759 171.961 143.589 171.496 143.663 170.741L145.02 156.796L145.978 146.904C146.129 145.341 146.821 143.384 145.554 142.457C145.038 142.079 144.325 141.915 143.597 142.138Z" fill="#A896A2"/>
<path d="M9.73577 58.0681C9.72695 58.0681 9.71817 58.0695 9.70979 58.0723C7.47703 58.808 5.49826 60.1612 4.00277 61.9753C2.27078 64.0651 1.28883 66.675 1.21365 69.3883C1.20516 69.6945 1.20828 70.0001 1.22282 70.3043C1.25464 70.9704 2.17809 70.6879 2.24678 70.0246C2.49412 67.6361 3.44444 65.3747 4.97748 63.5265C6.26368 61.9581 7.90726 60.7371 9.75732 59.9575C10.4708 59.6568 10.6281 58.6142 9.97269 58.202L9.7801 58.0809C9.76683 58.0725 9.75146 58.0681 9.73577 58.0681Z" fill="white"/>
<path d="M132.001 219.893C132.537 219.631 132.475 218.877 131.88 218.916C130.183 219.031 128.625 219.795 127.292 221.049C125.992 222.272 127.817 222.972 129.162 221.799C130.052 221.023 131.002 220.381 132.001 219.893Z" fill="white"/>
<path d="M117.571 191.242C117.226 191.245 116.884 191.179 116.565 191.049C116.245 190.919 115.955 190.727 115.709 190.485C115.214 189.996 114.933 189.33 114.929 188.634C114.924 187.937 115.197 187.268 115.686 186.772C116.175 186.277 116.841 185.996 117.538 185.991L144.415 185.635H144.448C145.127 185.657 145.771 185.942 146.245 186.428C146.72 186.915 146.987 187.567 146.991 188.246C146.995 188.926 146.736 189.581 146.268 190.074C145.801 190.566 145.16 190.859 144.481 190.89L117.608 191.242H117.571Z" fill="#E04150"/>
<path d="M117.572 191.247C116.919 191.245 116.291 191.001 115.808 190.561C115.326 190.122 115.024 189.519 114.961 188.869C114.899 188.22 115.08 187.57 115.47 187.047C115.859 186.524 116.43 186.164 117.07 186.037L143.482 180.886C144.156 180.778 144.846 180.935 145.405 181.326C145.965 181.717 146.351 182.31 146.481 182.98C146.611 183.65 146.476 184.344 146.104 184.916C145.731 185.489 145.151 185.893 144.486 186.046L118.078 191.21C117.911 191.238 117.741 191.251 117.572 191.247Z" fill="#E04150"/>
<path d="M144.112 195.697C143.966 195.697 143.82 195.684 143.676 195.66L117.131 191.209C116.461 191.075 115.87 190.686 115.482 190.124C115.095 189.561 114.941 188.87 115.054 188.197C115.166 187.523 115.536 186.92 116.086 186.515C116.635 186.109 117.321 185.933 117.998 186.024L144.543 190.479C145.195 190.584 145.783 190.93 146.191 191.449C146.599 191.968 146.797 192.621 146.744 193.279C146.692 193.937 146.394 194.552 145.909 195C145.424 195.448 144.788 195.697 144.128 195.697H144.112Z" fill="#E04150"/>
<path d="M145.294 190.719C145.294 190.728 145.302 190.734 145.311 190.731C145.831 190.556 146.283 190.221 146.602 189.774C146.925 189.322 147.095 188.779 147.087 188.224C147.08 187.669 146.896 187.13 146.561 186.687C146.195 186.201 146.087 185.134 146.351 184.586C146.382 184.522 146.41 184.457 146.435 184.391C146.661 183.805 146.668 183.158 146.457 182.567C146.245 181.975 145.829 181.48 145.283 181.17C144.737 180.86 144.098 180.756 143.482 180.878L139.911 181.574C139.651 181.625 139.592 182.272 139.792 182.446C140.167 182.77 140.436 183.199 140.566 183.677C140.658 184.179 140.575 184.698 140.331 185.146C140.121 185.532 140.234 186.538 140.523 186.869C140.528 186.875 140.533 186.881 140.538 186.887C140.875 187.281 141.063 187.78 141.07 188.299C141.077 188.817 140.902 189.321 140.576 189.724C140.571 189.731 140.565 189.737 140.56 189.743C140.28 190.081 140.195 191.089 140.415 191.47C140.67 191.911 140.766 192.427 140.686 192.931C140.57 193.412 140.313 193.848 139.948 194.183C139.753 194.362 139.831 195.006 140.092 195.049L143.677 195.639C143.831 195.668 143.988 195.681 144.145 195.677C144.738 195.677 145.313 195.476 145.777 195.107C146.241 194.738 146.566 194.222 146.699 193.645C146.832 193.067 146.766 192.462 146.511 191.927C146.259 191.398 145.836 190.969 145.312 190.708C145.304 190.704 145.294 190.71 145.294 190.719Z" fill="#8A1443"/>
<path d="M58.8642 35.1667C61.2848 32.7897 61.9785 29.5709 60.4136 27.9774C58.8487 26.3838 55.6178 27.019 53.1973 29.396C50.7767 31.773 50.083 34.9918 51.6479 36.5853C53.2128 38.1789 56.4437 37.5438 58.8642 35.1667Z" fill="#F1F2F2"/>
<path d="M52.1115 43.858C51.4852 45.6083 50.0376 46.6992 48.8928 46.2885C47.7481 45.8779 47.3084 44.1234 47.9306 42.369C48.5527 40.6145 50.0044 39.5278 51.1492 39.9384C52.294 40.349 52.7336 42.1035 52.1115 43.858Z" fill="#F1F2F2"/>
</svg>
