<svg width="14" height="9" viewBox="0 0 14 9" fill="none" xmlns="http://www.w3.org/2000/svg">
<path d="M1 5.05002C3.4 -0.149976 10.6 -0.149976 13 5.05002M7 7.85002C6.57565 7.85002 6.16869 7.68145 5.86863 7.38139C5.56857 7.08134 5.4 6.67437 5.4 6.25002C5.4 5.82568 5.56857 5.41871 5.86863 5.11865C6.16869 4.8186 6.57565 4.65002 7 4.65002C7.42435 4.65002 7.83131 4.8186 8.13137 5.11865C8.43143 5.41871 8.6 5.82568 8.6 6.25002C8.6 6.67437 8.43143 7.08134 8.13137 7.38139C7.83131 7.68145 7.42435 7.85002 7 7.85002Z" stroke="#6666FF" stroke-width="1.5" stroke-linecap="round" stroke-linejoin="round"/>
</svg>
