<svg width="24" height="24" viewBox="0 0 24 24" fill="none" xmlns="http://www.w3.org/2000/svg">
<path d="M13.0005 21H3.60049C3.44136 21 3.28875 20.9368 3.17622 20.8243C3.0637 20.7117 3.00049 20.5591 3.00049 20.4V3.6C3.00049 3.44087 3.0637 3.28826 3.17622 3.17574C3.28875 3.06321 3.44136 3 3.60049 3H20.4005C20.5596 3 20.7122 3.06321 20.8248 3.17574C20.9373 3.28826 21.0005 3.44087 21.0005 3.6V13" stroke="#6666FF" stroke-width="1.5" stroke-linecap="round" stroke-linejoin="round"/>
<path d="M3.00049 16L10.0005 13L15.5005 15.5M16.0005 19H19.0005M19.0005 19H22.0005M19.0005 19V16M19.0005 19V22M16.0005 10C15.4701 10 14.9613 9.78929 14.5863 9.41421C14.2112 9.03914 14.0005 8.53043 14.0005 8C14.0005 7.46957 14.2112 6.96086 14.5863 6.58579C14.9613 6.21071 15.4701 6 16.0005 6C16.5309 6 17.0396 6.21071 17.4147 6.58579C17.7898 6.96086 18.0005 7.46957 18.0005 8C18.0005 8.53043 17.7898 9.03914 17.4147 9.41421C17.0396 9.78929 16.5309 10 16.0005 10Z" stroke="#6666FF" stroke-width="1.5" stroke-linecap="round" stroke-linejoin="round"/>
</svg>
