<svg width="21" height="23" viewBox="0 0 21 23" fill="none" xmlns="http://www.w3.org/2000/svg">
<path fill-rule="evenodd" clip-rule="evenodd" d="M15.9456 1.46326C15.9456 1.04904 15.6098 0.713257 15.1956 0.713257C14.7813 0.713257 14.4456 1.04904 14.4456 1.46326V2.97717H6.89087V1.46326C6.89087 1.04904 6.55508 0.713257 6.14087 0.713257C5.72666 0.713257 5.39087 1.04904 5.39087 1.46326V2.97717H3.87641C2.2119 2.97717 0.862549 4.32652 0.862549 5.99104V10.5186V19.5742C0.862549 21.2387 2.2119 22.5881 3.87641 22.5881H17.4596C19.1241 22.5881 20.4734 21.2387 20.4734 19.5742V10.5186V5.99104C20.4734 4.32652 19.1241 2.97717 17.4596 2.97717H15.9456V1.46326ZM18.9734 9.76855V5.99104C18.9734 5.15495 18.2957 4.47717 17.4596 4.47717H15.9456V5.99098C15.9456 6.4052 15.6098 6.74098 15.1956 6.74098C14.7813 6.74098 14.4456 6.4052 14.4456 5.99098V4.47717H6.89087V5.99098C6.89087 6.4052 6.55508 6.74098 6.14087 6.74098C5.72666 6.74098 5.39087 6.4052 5.39087 5.99098V4.47717H3.87641C3.04033 4.47717 2.36255 5.15495 2.36255 5.99104V9.76855H18.9734ZM2.36255 11.2686H18.9734V19.5742C18.9734 20.4103 18.2957 21.0881 17.4596 21.0881H3.87641C3.04033 21.0881 2.36255 20.4103 2.36255 19.5742V11.2686Z" fill="#EDCEFF"/>
</svg>
