<svg width="347" height="215" viewBox="0 0 347 215" fill="none" xmlns="http://www.w3.org/2000/svg">
<path fill-rule="evenodd" clip-rule="evenodd" d="M347 201.794C347 209.084 341.051 215 333.722 215H13.2781C5.94857 215 0 209.084 0 201.794V13.2064C0 5.91646 5.94857 0 13.2781 0H333.722C341.051 0 347 5.91646 347 13.2064V201.794Z" fill="url(#paint0_linear)"/>
<path d="M333.998 0H90L218.443 215H333.998C341.327 215 347.276 209.084 347.276 201.794V13.2064C347.276 5.91646 341.327 0 333.998 0Z" fill="url(#paint1_linear)" fill-opacity="0.2"/>
<path d="M233.244 36.1503C232.774 36.1503 232.538 35.903 232.538 35.4155V23.2346C232.538 22.7471 232.774 22.5033 233.244 22.5033C233.715 22.5033 233.951 22.7471 233.951 23.2381V35.4155C233.951 35.903 233.715 36.1503 233.244 36.1503Z" fill="white"/>
<path d="M243.213 25.9937C244.502 25.9937 245.457 26.3046 246.056 26.9405C246.652 27.5764 246.967 28.5549 246.967 29.8939V35.3979C246.974 35.5003 246.957 35.6028 246.922 35.6982C246.887 35.7936 246.832 35.8819 246.763 35.9525C246.693 36.0197 246.61 36.0691 246.524 36.1009C246.434 36.1327 246.34 36.1433 246.247 36.1327C246.053 36.1398 245.866 36.0762 245.713 35.9525C245.651 35.8748 245.603 35.7865 245.575 35.6946C245.544 35.5993 245.533 35.5003 245.54 35.3979V29.8974C245.561 29.4028 245.485 28.9082 245.322 28.4454C245.256 28.2794 245.159 28.131 245.038 28.0038C244.917 27.8767 244.772 27.7777 244.616 27.7106C244.169 27.541 243.695 27.4633 243.22 27.481H242.67C241.697 27.481 240.911 27.6294 240.346 27.9049C239.782 28.1805 239.484 28.5903 239.484 29.1308V35.3979C239.491 35.5003 239.474 35.6028 239.439 35.6982C239.405 35.7936 239.349 35.8819 239.28 35.9525C239.211 36.0197 239.128 36.0691 239.041 36.1009C238.951 36.1327 238.858 36.1433 238.764 36.1327C238.57 36.1433 238.38 36.0797 238.231 35.9525C238.169 35.8748 238.12 35.7865 238.092 35.6946C238.061 35.5993 238.051 35.5003 238.058 35.3979V26.7285C238.051 26.5342 238.11 26.3399 238.231 26.1915C238.376 26.0502 238.567 25.9725 238.764 25.9796C238.861 25.9725 238.958 25.9902 239.045 26.0255C239.135 26.0608 239.214 26.1173 239.28 26.1915C239.349 26.2622 239.401 26.347 239.436 26.4388C239.47 26.5307 239.488 26.6296 239.484 26.732V27.3043C240.173 26.4212 241.243 25.9831 242.687 25.9831H243.22V25.9937H243.213Z" fill="white"/>
<path d="M257.857 26.075C258.141 26.2234 258.297 26.4177 258.297 26.6615C258.29 26.7957 258.255 26.93 258.203 27.0536L254.467 35.5781C254.401 35.7477 254.283 35.8926 254.135 35.9915C253.986 36.0904 253.813 36.1399 253.636 36.1328C253.463 36.1363 253.297 36.0833 253.155 35.9809C253.013 35.8784 252.909 35.7336 252.85 35.564L249.38 27.0395C249.328 26.9229 249.301 26.7922 249.301 26.665C249.301 26.3859 249.457 26.1916 249.754 26.0786C249.858 26.0291 249.969 26.0008 250.083 25.9973C250.367 25.9973 250.554 26.1598 250.679 26.4707L253.677 33.8012L256.915 26.453C256.96 26.3188 257.04 26.2057 257.15 26.1245C257.261 26.0432 257.393 25.9973 257.528 25.9973C257.642 25.9973 257.753 26.0256 257.857 26.075Z" fill="white"/>
<path d="M261.624 31.6743V32.2607C261.606 32.7482 261.679 33.2393 261.842 33.6985C261.908 33.8646 262.005 34.0129 262.126 34.1401C262.247 34.2673 262.392 34.3662 262.548 34.4333C262.995 34.6029 263.469 34.6806 263.944 34.663H265.561C266.298 34.663 266.831 34.5817 267.178 34.4192C267.347 34.3415 267.493 34.2214 267.607 34.0695C267.721 33.9176 267.801 33.7409 267.836 33.5537C267.863 33.3629 267.943 33.1863 268.071 33.0485C268.223 32.9248 268.41 32.8648 268.601 32.8683C268.791 32.8754 268.975 32.9496 269.12 33.0803C269.186 33.1545 269.231 33.2428 269.255 33.3382C269.28 33.4336 269.283 33.536 269.259 33.6349C269.134 34.5005 268.757 35.1364 268.161 35.5462C267.566 35.956 266.686 36.1679 265.571 36.1679H263.954C262.683 36.1679 261.724 35.857 261.115 35.2211C260.502 34.5852 260.204 33.6067 260.204 32.2819V29.8973C260.204 28.5584 260.502 27.5621 261.115 26.9439C261.728 26.3221 262.683 25.9794 263.954 25.9971H265.571C266.859 25.9971 267.815 26.308 268.41 26.9439C269.006 27.5798 269.321 28.5584 269.321 29.8973V30.9253C269.328 31.0278 269.311 31.1302 269.276 31.2256C269.241 31.321 269.186 31.4093 269.117 31.4799C269.048 31.5471 268.964 31.5965 268.874 31.6283C268.784 31.6601 268.691 31.6707 268.597 31.6601L261.624 31.6743ZM261.624 30.1905H267.901V29.8973C267.922 29.4027 267.846 28.9081 267.683 28.4453C267.617 28.2793 267.521 28.1309 267.399 28.0037C267.278 27.8765 267.133 27.7776 266.977 27.7105C266.53 27.5409 266.056 27.4632 265.581 27.4809H263.964C263.352 27.4632 262.898 27.5303 262.569 27.6928C262.406 27.7635 262.261 27.8695 262.14 28.0002C262.018 28.1309 261.925 28.2863 261.863 28.4594C261.7 28.9258 261.624 29.4168 261.645 29.9114V30.1905H261.624Z" fill="white"/>
<path d="M275.231 36.1504C274.394 36.1504 273.75 35.9702 273.299 35.6134C272.818 35.2001 272.506 34.6101 272.437 33.9636C272.409 33.8647 272.406 33.7587 272.43 33.6563C272.455 33.5538 272.506 33.4655 272.576 33.3913C272.648 33.3206 272.735 33.2641 272.828 33.2288C272.922 33.1935 273.022 33.1758 273.123 33.1793C273.213 33.1723 273.299 33.1829 273.386 33.2147C273.469 33.2465 273.545 33.2959 273.611 33.3595C273.739 33.5149 273.826 33.6986 273.86 33.8965C273.878 34.0201 273.923 34.1367 273.992 34.2392C274.061 34.3416 274.148 34.4264 274.255 34.4865C274.459 34.5995 274.788 34.649 275.228 34.649H278.462C279.013 34.649 279.39 34.55 279.591 34.3557C279.795 34.1438 279.889 33.7516 279.889 33.1652C279.889 32.5788 279.795 32.1866 279.591 31.9888C279.387 31.7945 279.026 31.6779 278.462 31.6779H275.276C273.441 31.6779 272.531 30.7311 272.531 28.8199C272.531 27.8413 272.749 27.1207 273.206 26.6649C273.659 26.2092 274.352 25.9619 275.276 25.9619H278.351C279.875 25.9619 280.754 26.6473 281.004 28.0038C281.031 28.1028 281.035 28.2087 281.01 28.3112C280.986 28.4136 280.934 28.502 280.862 28.5762C280.789 28.6468 280.702 28.7033 280.609 28.7387C280.515 28.774 280.415 28.7917 280.315 28.7881C280.138 28.8022 279.961 28.7422 279.826 28.6256C279.698 28.4702 279.612 28.2865 279.577 28.0886C279.556 27.9827 279.511 27.8802 279.445 27.7954C279.38 27.7106 279.297 27.6435 279.2 27.5976C278.936 27.4845 278.652 27.4351 278.369 27.4492H275.29C274.757 27.4492 274.411 27.5305 274.224 27.7106C274.037 27.8908 273.975 28.2653 273.975 28.8199C273.975 29.3746 274.054 29.7172 274.224 29.9151C274.394 30.1129 274.757 30.2083 275.29 30.2083H278.476C279.435 30.2083 280.155 30.452 280.612 30.9431C281.066 31.4342 281.319 32.169 281.319 33.1617C281.319 34.1544 281.083 34.9068 280.612 35.3979C280.141 35.889 279.435 36.1151 278.476 36.1151L275.231 36.1504Z" fill="white"/>
<path d="M288.888 34.6631C289.359 34.6631 289.594 34.9069 289.594 35.3979C289.601 35.5004 289.584 35.6028 289.549 35.6982C289.515 35.7936 289.459 35.8819 289.39 35.9526C289.321 36.0197 289.238 36.0691 289.148 36.1009C289.058 36.1327 288.964 36.1433 288.871 36.1327C287.6 36.1327 286.672 35.8218 286.063 35.2036C285.45 34.5819 285.169 33.6209 285.169 32.3138V27.4633H284.117C283.923 27.4704 283.736 27.4068 283.583 27.2832C283.521 27.2055 283.473 27.1171 283.445 27.0253C283.414 26.9299 283.403 26.831 283.41 26.7285C283.403 26.5342 283.462 26.3399 283.583 26.1916C283.725 26.0502 283.919 25.9725 284.117 25.9796H285.169V24.2167C285.169 23.7257 285.405 23.4819 285.876 23.4819C286.347 23.4819 286.582 23.7257 286.582 24.2167V25.9796H288.937C289.033 25.9725 289.13 25.9902 289.217 26.0255C289.307 26.0608 289.387 26.1174 289.452 26.1916C289.522 26.2622 289.574 26.347 289.608 26.4389C289.643 26.5307 289.66 26.6296 289.657 26.7321C289.664 26.831 289.653 26.9334 289.619 27.0288C289.584 27.1242 289.532 27.209 289.463 27.2796C289.394 27.3503 289.31 27.4033 289.22 27.4351C289.13 27.4669 289.033 27.4775 288.937 27.4669H286.582V32.3138C286.582 32.9356 286.644 33.409 286.786 33.7517C286.921 34.0696 287.171 34.3204 287.475 34.4547C287.929 34.6101 288.41 34.6808 288.888 34.6631Z" fill="white"/>
<path d="M296.956 25.9937C298.244 25.9937 299.199 26.3045 299.795 26.9404C300.391 27.5763 300.706 28.5549 300.706 29.8938V35.3978C300.713 35.5003 300.699 35.6027 300.661 35.6981C300.626 35.7935 300.571 35.8818 300.501 35.9525C300.432 36.0196 300.349 36.0691 300.263 36.1008C300.172 36.1326 300.079 36.1432 299.986 36.1326C299.792 36.1397 299.605 36.0761 299.452 35.9525C299.39 35.8748 299.341 35.7864 299.314 35.6946C299.283 35.5992 299.272 35.5003 299.279 35.3978V34.7443C298.59 35.6734 297.52 36.1468 296.076 36.1468H294.979C293.895 36.1468 293.095 35.8853 292.593 35.3484C292.091 34.8114 291.824 33.9918 291.824 32.8684C291.824 31.7414 292.074 30.9077 292.593 30.3884C293.112 29.8655 293.895 29.59 294.979 29.59H299.279C299.231 28.7916 299.044 28.2511 298.715 27.9402C298.386 27.6293 297.79 27.4845 296.956 27.4845H295.81C295.072 27.4845 294.539 27.5481 294.193 27.6964C294.04 27.7459 293.895 27.8307 293.777 27.9437C293.659 28.0568 293.562 28.1946 293.504 28.35C293.448 28.5408 293.344 28.7174 293.206 28.8552C293.071 28.9612 292.905 29.0142 292.735 29.0036C292.548 29.0106 292.368 28.9541 292.215 28.841C292.153 28.7916 292.105 28.7245 292.07 28.6538C292.035 28.5832 292.015 28.5019 292.011 28.4171C292.008 28.3606 292.011 28.3076 292.029 28.2546C292.087 27.9049 292.219 27.5693 292.42 27.2796C292.617 26.9899 292.877 26.7461 293.175 26.573C293.787 26.1986 294.667 26.0184 295.796 26.0184L296.956 25.9937ZM299.199 32.9991C299.217 32.9143 299.241 32.8331 299.279 32.7553V31.0561H294.979C294.29 31.0561 293.833 31.1868 293.597 31.4306C293.362 31.6743 293.237 32.1477 293.237 32.8684C293.237 33.5855 293.362 34.0589 293.597 34.3062C293.833 34.55 294.286 34.6807 294.979 34.6807H296.076C297.884 34.663 298.933 34.1084 299.199 32.9991Z" fill="white"/>
<path d="M249.601 42.8414C249.577 42.845 249.553 42.8414 249.532 42.8344C249.511 42.8273 249.49 42.8132 249.473 42.7955C249.456 42.7778 249.445 42.7566 249.435 42.7354C249.428 42.7107 249.425 42.6895 249.428 42.6648V39.7255C249.425 39.7008 249.428 39.6761 249.435 39.6549C249.442 39.6337 249.456 39.6125 249.473 39.5948C249.49 39.5771 249.511 39.563 249.532 39.5559C249.553 39.5489 249.577 39.5453 249.601 39.5489H250.747C251.156 39.5489 251.454 39.6478 251.641 39.8421C251.828 40.0364 251.925 40.3473 251.925 40.7712V41.605C251.925 42.0289 251.831 42.3398 251.641 42.5341C251.454 42.7284 251.152 42.8273 250.747 42.8273L249.601 42.8414ZM250.744 42.4811C250.914 42.4846 251.083 42.4564 251.246 42.3998C251.367 42.3468 251.464 42.2479 251.513 42.1207C251.568 41.9547 251.596 41.7745 251.592 41.5979V40.7677C251.596 40.591 251.568 40.4144 251.513 40.2448C251.464 40.1177 251.367 40.0187 251.246 39.9657C251.083 39.9057 250.914 39.881 250.744 39.8845H249.771V42.4634L250.744 42.4811Z" fill="white"/>
<path d="M253.4 42.8414C253.376 42.845 253.352 42.8414 253.331 42.8344C253.31 42.8273 253.29 42.8132 253.272 42.7955C253.255 42.7778 253.245 42.7566 253.234 42.7355C253.227 42.7143 253.224 42.6895 253.227 42.6648V40.5769C253.227 40.5416 253.238 40.5063 253.258 40.478C253.279 40.4498 253.303 40.425 253.335 40.4109C253.366 40.3968 253.4 40.3932 253.435 40.4003C253.47 40.4074 253.501 40.4215 253.525 40.4462C253.542 40.4639 253.556 40.4851 253.563 40.5063C253.57 40.5275 253.574 40.5522 253.574 40.5769V42.6648C253.574 42.7143 253.556 42.7602 253.525 42.7955C253.508 42.8132 253.49 42.8273 253.466 42.8344C253.445 42.8414 253.421 42.845 253.4 42.8414ZM253.335 39.9834C253.279 39.9834 253.224 39.9693 253.179 39.934C253.144 39.888 253.127 39.828 253.13 39.7715V39.6408C253.13 39.51 253.193 39.4465 253.335 39.4465H253.459C253.484 39.4429 253.511 39.4465 253.535 39.4535C253.56 39.4606 253.584 39.4747 253.601 39.4959C253.619 39.5136 253.632 39.5383 253.643 39.563C253.65 39.5878 253.653 39.616 253.65 39.6408V39.7715C253.65 39.828 253.636 39.888 253.601 39.934C253.58 39.9516 253.56 39.9658 253.535 39.9728C253.511 39.9799 253.487 39.9834 253.459 39.9834H253.335Z" fill="white"/>
<path d="M256.915 40.3932C256.96 40.3932 257.005 40.4108 257.04 40.4426C257.057 40.4603 257.071 40.4815 257.078 40.5027C257.085 40.5239 257.088 40.5486 257.088 40.5733V43.1523C257.105 43.3395 257.047 43.5303 256.932 43.6751C256.863 43.7352 256.783 43.7811 256.697 43.8094C256.61 43.8376 256.52 43.8482 256.43 43.8376H255.551C255.395 43.8482 255.239 43.8023 255.111 43.7069C255.052 43.6645 255.007 43.608 254.976 43.5409C254.945 43.4773 254.924 43.4031 254.924 43.3289C254.917 43.3077 254.914 43.283 254.921 43.2583C254.927 43.2335 254.938 43.2123 254.955 43.1982C254.976 43.1805 254.997 43.1664 255.021 43.1593C255.045 43.1523 255.069 43.1487 255.097 43.1487C255.135 43.1487 255.173 43.1593 255.208 43.1805C255.243 43.2159 255.263 43.2618 255.27 43.3112C255.274 43.336 255.284 43.3607 255.301 43.3819C255.319 43.4031 255.339 43.4172 255.364 43.4243C255.429 43.4455 255.499 43.4596 255.568 43.4561H256.447C256.492 43.4702 256.538 43.4702 256.583 43.4596C256.628 43.449 256.666 43.4243 256.7 43.3925C256.731 43.3572 256.756 43.3183 256.766 43.2724C256.776 43.2265 256.776 43.177 256.763 43.1311V42.5093C256.666 42.6188 256.544 42.7036 256.413 42.7566C256.281 42.8096 256.136 42.8308 255.994 42.8202H255.807C255.558 42.8379 255.312 42.7566 255.118 42.5906C254.959 42.3963 254.879 42.1419 254.9 41.8875V41.3152C254.882 41.0538 254.962 40.7994 255.118 40.5981C255.312 40.432 255.558 40.3472 255.807 40.3684H256.198C256.302 40.3614 256.406 40.379 256.506 40.4179C256.603 40.4568 256.693 40.5168 256.766 40.5981V40.5557C256.766 40.5062 256.783 40.4603 256.815 40.425C256.835 40.4002 256.877 40.3896 256.915 40.3932ZM255.973 42.481C256.167 42.4881 256.357 42.4563 256.538 42.3821C256.596 42.3609 256.648 42.3221 256.686 42.2691C256.724 42.2161 256.742 42.1525 256.742 42.0889V41.1598C256.745 41.0997 256.735 41.0397 256.711 40.9831C256.686 40.9301 256.648 40.8807 256.6 40.8489C256.472 40.7747 256.323 40.7394 256.177 40.75H255.786C255.668 40.7464 255.554 40.7641 255.44 40.7994C255.402 40.8171 255.367 40.8418 255.336 40.8701C255.305 40.9019 255.284 40.9372 255.267 40.9796C255.229 41.0962 255.215 41.2163 255.218 41.34V41.9123C255.215 42.0288 255.229 42.1454 255.267 42.2549C255.284 42.2938 255.305 42.3327 255.336 42.3645C255.367 42.3963 255.402 42.421 255.44 42.4351C255.551 42.474 255.668 42.4916 255.786 42.4846H255.973V42.481Z" fill="white"/>
<path d="M258.611 42.8414C258.587 42.845 258.563 42.8414 258.542 42.8344C258.521 42.8273 258.501 42.8132 258.483 42.7955C258.466 42.7778 258.456 42.7566 258.445 42.7355C258.438 42.7143 258.435 42.6895 258.438 42.6648V40.5769C258.438 40.5416 258.449 40.5063 258.469 40.478C258.49 40.4498 258.514 40.425 258.546 40.4109C258.577 40.3968 258.611 40.3932 258.646 40.4003C258.681 40.4074 258.712 40.4215 258.736 40.4462C258.753 40.4639 258.767 40.4851 258.774 40.5063C258.781 40.5275 258.785 40.5522 258.785 40.5769V42.6648C258.785 42.7143 258.767 42.7602 258.736 42.7955C258.719 42.8132 258.701 42.8273 258.677 42.8344C258.656 42.8414 258.632 42.845 258.611 42.8414ZM258.546 39.9834C258.49 39.9834 258.435 39.9693 258.39 39.934C258.355 39.888 258.338 39.828 258.341 39.7715V39.6408C258.341 39.51 258.404 39.4465 258.546 39.4465H258.67C258.694 39.4429 258.722 39.4465 258.746 39.4535C258.771 39.4606 258.795 39.4747 258.812 39.4959C258.83 39.5136 258.843 39.5383 258.854 39.563C258.861 39.5878 258.864 39.616 258.861 39.6408V39.7715C258.861 39.828 258.847 39.888 258.812 39.934C258.791 39.9516 258.771 39.9658 258.746 39.9728C258.722 39.9799 258.698 39.9834 258.67 39.9834H258.546Z" fill="white"/>
<path d="M261.17 42.4808C261.195 42.4773 261.219 42.4808 261.24 42.4879C261.26 42.495 261.281 42.5091 261.298 42.5268C261.316 42.5444 261.326 42.5656 261.337 42.5868C261.344 42.608 261.347 42.6328 261.344 42.6575C261.344 42.7069 261.326 42.7529 261.295 42.7882C261.278 42.8059 261.26 42.82 261.236 42.8271C261.212 42.8341 261.191 42.8377 261.167 42.8377C260.921 42.8553 260.679 42.7741 260.492 42.608C260.412 42.5126 260.353 42.3996 260.315 42.2795C260.277 42.1594 260.263 42.0322 260.274 41.905V40.7286H260.021C259.976 40.7286 259.931 40.7109 259.9 40.6756C259.868 40.6403 259.848 40.5979 259.848 40.5484C259.848 40.5025 259.865 40.4566 259.9 40.4213C259.931 40.3859 259.976 40.3683 260.021 40.3683H260.274V39.9443C260.274 39.8984 260.291 39.8525 260.325 39.8172C260.357 39.7818 260.402 39.7642 260.447 39.7642C260.492 39.7642 260.537 39.7818 260.568 39.8172C260.599 39.8525 260.62 39.8949 260.62 39.9443V40.3683H261.184C261.229 40.3683 261.274 40.3859 261.309 40.4177C261.333 40.4424 261.35 40.4742 261.361 40.5096C261.368 40.5449 261.364 40.5838 261.35 40.6156C261.337 40.6509 261.312 40.6791 261.285 40.6968C261.257 40.7145 261.219 40.7251 261.184 40.7251H260.62V41.9015C260.616 42.0181 260.63 42.1346 260.668 42.2442C260.686 42.283 260.706 42.3183 260.738 42.3466C260.769 42.3749 260.803 42.3961 260.841 42.4102C260.942 42.4667 261.056 42.4914 261.17 42.4808Z" fill="white"/>
<path d="M263.539 40.3932C263.788 40.3756 264.034 40.4568 264.228 40.6229C264.387 40.8242 264.467 41.0821 264.446 41.34V42.6613C264.446 42.7107 264.428 42.7567 264.397 42.792C264.38 42.8097 264.363 42.8238 264.338 42.8309C264.318 42.8379 264.293 42.8414 264.269 42.8414C264.245 42.845 264.221 42.8414 264.2 42.8344C264.179 42.8273 264.158 42.8132 264.141 42.7955C264.124 42.7779 264.113 42.7567 264.103 42.7355C264.096 42.7107 264.093 42.6895 264.096 42.6648V42.4988C264.003 42.6154 263.885 42.7072 263.75 42.7673C263.615 42.8273 263.469 42.852 263.324 42.8414H263.057C262.95 42.852 262.843 42.8379 262.742 42.8026C262.642 42.7673 262.548 42.7107 262.469 42.633C262.389 42.5588 262.327 42.467 262.282 42.3645C262.24 42.2621 262.216 42.1526 262.216 42.0395C262.216 41.9265 262.237 41.8169 262.282 41.7145C262.323 41.612 262.389 41.5202 262.469 41.446C262.548 41.3718 262.642 41.3118 262.742 41.2764C262.843 41.2411 262.95 41.227 263.057 41.2376H264.093C264.096 41.0927 264.048 40.9514 263.951 40.8454C263.826 40.7607 263.677 40.7218 263.528 40.7324H263.244C263.113 40.7253 262.978 40.743 262.853 40.7818C262.815 40.796 262.78 40.8172 262.749 40.8454C262.718 40.8737 262.697 40.909 262.68 40.9479C262.666 40.9973 262.638 41.0433 262.6 41.0786C262.566 41.0998 262.527 41.1104 262.489 41.1104C262.444 41.1104 262.403 41.0998 262.365 41.0786C262.351 41.068 262.34 41.0503 262.33 41.0362C262.323 41.0185 262.316 41.0009 262.316 40.9832V40.9514C262.33 40.8631 262.361 40.7818 262.41 40.7112C262.458 40.6405 262.524 40.584 262.6 40.5416C262.798 40.4462 263.012 40.4003 263.227 40.4109L263.539 40.3932ZM264.072 42.0925C264.072 42.0607 264.089 42.043 264.089 42.0289V41.6191H263.054C262.94 41.605 262.822 41.6332 262.725 41.7004C262.659 41.7993 262.631 41.9229 262.645 42.043C262.635 42.1632 262.662 42.2833 262.725 42.3857C262.822 42.4528 262.94 42.4846 263.054 42.467H263.32C263.757 42.4811 264.009 42.3504 264.072 42.0925Z" fill="white"/>
<path d="M266.488 42.8415C266.395 42.8556 266.298 42.845 266.208 42.8168C266.118 42.785 266.035 42.732 265.969 42.6649C265.903 42.5942 265.851 42.5094 265.82 42.4176C265.789 42.3257 265.782 42.2233 265.796 42.1279V39.5666C265.796 39.5313 265.806 39.496 265.827 39.4677C265.848 39.4395 265.872 39.4147 265.903 39.4006C265.934 39.3865 265.969 39.3829 266.004 39.39C266.038 39.3971 266.069 39.4112 266.094 39.4359C266.111 39.4536 266.125 39.4748 266.132 39.496C266.139 39.5172 266.142 39.5419 266.142 39.5666V42.1279C266.128 42.1809 266.132 42.2339 266.146 42.2869C266.159 42.3398 266.187 42.3858 266.222 42.4246C266.256 42.4635 266.305 42.4882 266.353 42.5024C266.402 42.5165 266.454 42.5165 266.506 42.5059C266.53 42.5024 266.554 42.5059 266.575 42.513C266.596 42.52 266.616 42.5341 266.634 42.5518C266.651 42.5695 266.661 42.5907 266.672 42.6119C266.679 42.6331 266.682 42.6578 266.679 42.6825C266.679 42.732 266.661 42.7779 266.63 42.8132C266.585 42.8274 266.537 42.838 266.488 42.8415Z" fill="white"/>
<path d="M269.94 42.8413C269.719 42.8554 269.497 42.7918 269.314 42.6611C269.234 42.5904 269.172 42.5021 269.13 42.4032C269.089 42.3043 269.064 42.1983 269.064 42.0888C269.064 42.0429 269.075 41.9969 269.096 41.9581C269.13 41.9263 269.175 41.9086 269.22 41.9086C269.331 41.9086 269.376 41.9722 269.393 42.0888C269.393 42.1488 269.411 42.2089 269.435 42.2619C269.463 42.3149 269.501 42.3608 269.549 42.3961C269.67 42.4562 269.805 42.4845 269.94 42.4774H270.63C270.747 42.4809 270.865 42.4633 270.976 42.4279C271.014 42.4103 271.052 42.3855 271.08 42.3573C271.111 42.3255 271.132 42.2902 271.149 42.2478C271.184 42.1382 271.201 42.0217 271.197 41.9051C271.201 41.785 271.184 41.6613 271.149 41.5447C271.132 41.5059 271.111 41.467 271.08 41.4352C271.052 41.4034 271.014 41.3787 270.976 41.3646C270.868 41.3292 270.758 41.3116 270.647 41.3151H270.037C269.923 41.3363 269.802 41.3292 269.691 41.2904C269.58 41.2551 269.477 41.1879 269.393 41.1031C269.31 41.0184 269.248 40.9124 269.213 40.7958C269.179 40.6792 269.172 40.5556 269.189 40.4355C269.179 40.3153 269.189 40.1952 269.224 40.0786C269.258 39.9621 269.317 39.8561 269.39 39.7642C269.57 39.6088 269.799 39.5311 270.034 39.5523H270.647C270.862 39.5381 271.069 39.6017 271.242 39.7324C271.388 39.8667 271.478 40.0539 271.492 40.2553C271.492 40.3189 271.492 40.3542 271.461 40.386C271.426 40.4178 271.381 40.4355 271.336 40.4355C271.291 40.4355 271.249 40.4249 271.211 40.4037C271.18 40.3683 271.163 40.3224 271.163 40.2729C271.159 40.22 271.145 40.167 271.121 40.1175C271.097 40.068 271.062 40.0292 271.021 39.9939C270.91 39.9338 270.785 39.9055 270.661 39.9126H270.048C269.979 39.8949 269.906 39.8949 269.837 39.9161C269.767 39.9373 269.705 39.9727 269.657 40.0257C269.608 40.0786 269.57 40.1422 269.549 40.2129C269.528 40.2835 269.528 40.3613 269.546 40.4319C269.528 40.5838 269.57 40.7357 269.657 40.8558C269.771 40.9477 269.92 40.9901 270.065 40.9689H270.678C270.799 40.9583 270.92 40.9724 271.038 41.0113C271.152 41.0502 271.26 41.1137 271.353 41.195C271.495 41.3257 271.596 41.4988 271.637 41.6896C271.679 41.8839 271.661 42.0853 271.585 42.2654C271.509 42.4456 271.381 42.5975 271.218 42.7C271.055 42.8024 270.865 42.8448 270.678 42.8271H269.94V42.8413Z" fill="white"/>
<path d="M273.081 41.764V41.9124C273.078 42.0289 273.091 42.1455 273.13 42.255C273.147 42.2939 273.168 42.3328 273.199 42.3646C273.23 42.3964 273.265 42.4211 273.303 42.4352C273.413 42.4741 273.531 42.4917 273.649 42.4847H274.04C274.175 42.4953 274.31 42.4741 274.431 42.4211C274.473 42.4034 274.508 42.3716 274.535 42.3363C274.563 42.301 274.58 42.255 274.587 42.2091C274.598 42.1597 274.618 42.1173 274.65 42.0784C274.684 42.0466 274.729 42.0289 274.774 42.0289C274.819 42.0289 274.864 42.0466 274.899 42.0784C274.916 42.0961 274.927 42.1173 274.934 42.1385C274.94 42.1632 274.937 42.1844 274.93 42.2091C274.92 42.301 274.892 42.3893 274.844 42.467C274.799 42.5447 274.736 42.6119 274.66 42.6648C274.47 42.7744 274.251 42.8238 274.033 42.8132H273.642C273.393 42.8309 273.147 42.7496 272.953 42.5836C272.794 42.3893 272.718 42.1349 272.735 41.8806V41.3083C272.718 41.0468 272.797 40.7925 272.953 40.5911C273.147 40.4251 273.393 40.3403 273.642 40.3615H274.033C274.283 40.3438 274.528 40.4251 274.722 40.5911C274.885 40.7925 274.961 41.0504 274.94 41.3083V41.552C274.94 41.6015 274.927 41.6474 274.892 41.6827C274.875 41.7004 274.857 41.7145 274.833 41.7216C274.812 41.7287 274.788 41.7322 274.764 41.7322L273.081 41.764ZM273.081 41.4036H274.587V41.3401C274.591 41.2199 274.573 41.0963 274.539 40.9797C274.521 40.9409 274.501 40.902 274.47 40.8702C274.438 40.8384 274.404 40.8137 274.366 40.7995C274.255 40.7607 274.137 40.743 274.019 40.7501H273.642C273.524 40.7466 273.41 40.7642 273.296 40.7995C273.258 40.8172 273.223 40.8419 273.192 40.8702C273.161 40.902 273.14 40.9373 273.123 40.9797C273.085 41.0963 273.071 41.2164 273.074 41.3401V41.4036H273.081Z" fill="white"/>
<path d="M277.053 42.8414C276.804 42.859 276.558 42.7778 276.364 42.6118C276.201 42.4104 276.125 42.1525 276.146 41.8946V41.3223C276.129 41.0609 276.208 40.8065 276.364 40.6051C276.558 40.4391 276.804 40.3543 277.053 40.3755H277.444C277.635 40.3649 277.825 40.4108 277.995 40.5062C278.061 40.5486 278.116 40.6016 278.158 40.6652C278.199 40.7288 278.23 40.803 278.248 40.8807C278.255 40.9019 278.258 40.9266 278.251 40.9514C278.244 40.9761 278.234 40.9973 278.217 41.0114C278.196 41.0291 278.175 41.0432 278.151 41.0503C278.127 41.0573 278.102 41.0609 278.075 41.0609C278.037 41.0609 277.998 41.0503 277.964 41.0291C277.933 41.0114 277.915 40.9655 277.901 40.8984C277.895 40.863 277.874 40.8348 277.85 40.81C277.825 40.7853 277.794 40.7712 277.76 40.7677C277.659 40.7359 277.552 40.7253 277.444 40.7359H277.053C276.935 40.7323 276.821 40.75 276.707 40.7853C276.665 40.7994 276.631 40.8242 276.6 40.8524C276.568 40.8842 276.548 40.9231 276.534 40.962C276.496 41.0785 276.482 41.1987 276.485 41.3223V41.8946C276.482 42.0147 276.499 42.1384 276.534 42.2549C276.551 42.2938 276.572 42.3327 276.603 42.3645C276.634 42.3963 276.669 42.421 276.707 42.4351C276.818 42.474 276.935 42.4916 277.053 42.4846H277.444C277.548 42.4846 277.656 42.474 277.76 42.4528C277.822 42.428 277.87 42.3821 277.901 42.3221C277.919 42.2761 277.94 42.2337 277.964 42.1914C277.978 42.1596 278.026 42.1596 278.075 42.1596C278.099 42.156 278.12 42.1596 278.144 42.1702C278.165 42.1772 278.185 42.1914 278.203 42.209C278.22 42.2267 278.23 42.2479 278.237 42.2691C278.244 42.2938 278.241 42.315 278.234 42.3397C278.223 42.4174 278.196 42.4952 278.154 42.5588C278.109 42.6259 278.05 42.6789 277.985 42.7142C277.815 42.8096 277.628 42.8555 277.434 42.8449H277.053V42.8414Z" fill="white"/>
<path d="M281.402 40.3932C281.447 40.3932 281.492 40.4109 281.526 40.4426C281.544 40.4603 281.554 40.4815 281.565 40.5027C281.571 40.5239 281.575 40.5486 281.575 40.5734V42.6612C281.575 42.7107 281.558 42.7566 281.526 42.7919C281.492 42.8237 281.447 42.8414 281.402 42.8414C281.357 42.8414 281.312 42.8237 281.277 42.7919C281.246 42.7566 281.229 42.7107 281.229 42.6612V42.5305C281.132 42.64 281.011 42.7248 280.879 42.7778C280.747 42.8308 280.602 42.852 280.46 42.8414H280.335C280.086 42.8591 279.84 42.7778 279.646 42.6118C279.484 42.4104 279.407 42.1525 279.428 41.8946V40.5734C279.428 40.538 279.439 40.5027 279.459 40.4744C279.48 40.4462 279.504 40.4215 279.535 40.4073C279.567 40.3932 279.601 40.3897 279.636 40.3967C279.671 40.4038 279.702 40.4179 279.726 40.4426C279.743 40.4603 279.754 40.4815 279.764 40.5027C279.771 40.5239 279.774 40.5486 279.774 40.5734V41.8946C279.771 42.0147 279.788 42.1384 279.823 42.255C279.837 42.2938 279.861 42.3327 279.892 42.3645C279.92 42.3963 279.958 42.421 279.996 42.4351C280.107 42.474 280.225 42.4917 280.342 42.4846H280.467C280.661 42.4917 280.851 42.4599 281.031 42.3857C281.09 42.3645 281.142 42.3256 281.18 42.2726C281.218 42.2196 281.236 42.156 281.236 42.0925V40.591C281.236 40.5416 281.253 40.4956 281.284 40.4603C281.291 40.4109 281.339 40.3932 281.402 40.3932Z" fill="white"/>
<path d="M284.195 40.3932C284.24 40.3932 284.285 40.4109 284.32 40.4426C284.337 40.4603 284.351 40.4815 284.358 40.5027C284.365 40.5239 284.369 40.5486 284.369 40.5734C284.369 40.6228 284.355 40.6687 284.32 40.7041C284.303 40.7217 284.285 40.7359 284.261 40.7429C284.24 40.75 284.216 40.7535 284.192 40.7535C283.96 40.7429 283.728 40.803 283.534 40.9337C283.461 40.9938 283.406 41.0715 283.368 41.1598C283.33 41.2481 283.312 41.3435 283.316 41.4389V42.6647C283.316 42.7142 283.302 42.7601 283.267 42.7955C283.25 42.8131 283.233 42.8272 283.209 42.8343C283.188 42.8414 283.164 42.8449 283.139 42.8449C283.115 42.8484 283.091 42.8449 283.07 42.8378C283.049 42.8308 283.029 42.8167 283.011 42.799C282.994 42.7813 282.984 42.7601 282.973 42.7389C282.966 42.7142 282.963 42.693 282.966 42.6683V40.5804C282.966 40.5451 282.977 40.5098 282.997 40.4815C283.015 40.4532 283.042 40.4285 283.074 40.4144C283.105 40.4003 283.139 40.3967 283.174 40.4038C283.209 40.4109 283.24 40.425 283.264 40.4497C283.281 40.4674 283.292 40.4886 283.302 40.5098C283.309 40.531 283.312 40.5557 283.312 40.5804V40.8418C283.402 40.7005 283.527 40.5875 283.673 40.5168C283.839 40.4356 284.015 40.3967 284.195 40.3932Z" fill="white"/>
<path d="M285.542 42.8414C285.518 42.845 285.494 42.8414 285.473 42.8344C285.452 42.8273 285.432 42.8132 285.414 42.7955C285.397 42.7778 285.387 42.7566 285.376 42.7355C285.369 42.7143 285.366 42.6895 285.369 42.6648V40.5769C285.369 40.5416 285.38 40.5063 285.4 40.478C285.421 40.4498 285.445 40.425 285.477 40.4109C285.508 40.3968 285.542 40.3932 285.577 40.4003C285.612 40.4074 285.643 40.4215 285.667 40.4462C285.684 40.4639 285.695 40.4851 285.705 40.5063C285.712 40.5275 285.716 40.5522 285.716 40.5769V42.6648C285.719 42.6895 285.716 42.7143 285.709 42.7355C285.702 42.7566 285.688 42.7778 285.671 42.7955C285.653 42.8132 285.632 42.8273 285.612 42.8344C285.591 42.8414 285.567 42.845 285.542 42.8414ZM285.48 39.9834C285.425 39.9834 285.369 39.9693 285.324 39.934C285.29 39.888 285.272 39.828 285.276 39.7715V39.6408C285.276 39.51 285.338 39.4465 285.48 39.4465H285.605C285.629 39.4429 285.657 39.4465 285.681 39.4535C285.705 39.4606 285.726 39.4747 285.747 39.4959C285.764 39.5136 285.778 39.5383 285.788 39.563C285.795 39.5878 285.799 39.616 285.795 39.6408V39.7715C285.795 39.828 285.781 39.888 285.747 39.934C285.726 39.9516 285.705 39.9658 285.681 39.9728C285.657 39.9799 285.632 39.9834 285.605 39.9834H285.48Z" fill="white"/>
<path d="M288.103 42.4808C288.127 42.4773 288.148 42.4808 288.172 42.4879C288.193 42.495 288.213 42.5091 288.231 42.5268C288.248 42.5444 288.258 42.5656 288.269 42.5868C288.276 42.608 288.279 42.6328 288.276 42.6575C288.276 42.7069 288.258 42.7529 288.227 42.7882C288.21 42.8059 288.193 42.82 288.168 42.8271C288.148 42.8341 288.123 42.8377 288.099 42.8377C287.853 42.8553 287.611 42.7741 287.424 42.608C287.344 42.5126 287.282 42.3996 287.247 42.2795C287.213 42.1594 287.195 42.0322 287.206 41.905V40.7286H286.956C286.911 40.7286 286.866 40.7109 286.835 40.6756C286.804 40.6403 286.783 40.5979 286.783 40.5484C286.783 40.5025 286.801 40.4566 286.835 40.4213C286.866 40.3859 286.911 40.3683 286.956 40.3683H287.206V39.9443C287.206 39.8984 287.223 39.8525 287.258 39.8172C287.289 39.7818 287.334 39.7642 287.379 39.7642C287.424 39.7642 287.469 39.7818 287.5 39.8172C287.531 39.8525 287.552 39.8949 287.552 39.9443V40.3683H288.116C288.161 40.3683 288.206 40.3859 288.241 40.4177C288.265 40.4424 288.283 40.4742 288.293 40.5096C288.3 40.5449 288.296 40.5838 288.283 40.6156C288.269 40.6509 288.244 40.6791 288.217 40.6968C288.186 40.718 288.151 40.7251 288.116 40.7251H287.552V41.9015C287.548 42.0181 287.562 42.1346 287.6 42.2442C287.618 42.283 287.642 42.3183 287.67 42.3466C287.701 42.3749 287.735 42.3961 287.774 42.4102C287.874 42.4738 287.988 42.495 288.103 42.4808Z" fill="white"/>
<path d="M289.625 42.8414C289.601 42.845 289.58 42.8414 289.556 42.8344C289.535 42.8273 289.515 42.8132 289.497 42.7955C289.48 42.7778 289.47 42.7566 289.459 42.7355C289.452 42.7143 289.449 42.6895 289.452 42.6648V40.5769C289.452 40.5416 289.463 40.5063 289.484 40.478C289.504 40.4498 289.529 40.425 289.56 40.4109C289.591 40.3968 289.625 40.3932 289.66 40.4003C289.695 40.4074 289.726 40.4215 289.75 40.4462C289.767 40.4639 289.781 40.4851 289.788 40.5063C289.795 40.5275 289.799 40.5522 289.799 40.5769V42.6648C289.799 42.7143 289.785 42.7602 289.75 42.7955C289.733 42.8132 289.716 42.8273 289.691 42.8344C289.667 42.8414 289.65 42.845 289.625 42.8414ZM289.563 39.9834C289.508 39.9834 289.452 39.9693 289.407 39.934C289.373 39.888 289.355 39.828 289.359 39.7715V39.6408C289.359 39.51 289.421 39.4465 289.563 39.4465H289.688C289.712 39.4429 289.74 39.4465 289.764 39.4535C289.788 39.4606 289.809 39.4747 289.83 39.4959C289.847 39.5136 289.861 39.5383 289.871 39.563C289.878 39.5878 289.882 39.616 289.878 39.6408V39.7715C289.878 39.828 289.864 39.888 289.83 39.934C289.809 39.9516 289.788 39.9658 289.764 39.9728C289.74 39.9799 289.716 39.9834 289.688 39.9834H289.563Z" fill="white"/>
<path d="M291.447 41.764V41.9124C291.444 42.0289 291.458 42.1455 291.496 42.255C291.513 42.2939 291.534 42.3328 291.565 42.3646C291.596 42.3964 291.631 42.4211 291.669 42.4352C291.78 42.4741 291.897 42.4917 292.015 42.4847H292.406C292.541 42.4953 292.676 42.4741 292.798 42.4211C292.839 42.3999 292.874 42.3716 292.898 42.3328C292.926 42.2974 292.943 42.255 292.953 42.2091C292.964 42.1597 292.985 42.1173 293.016 42.0784C293.05 42.0466 293.095 42.0289 293.14 42.0289C293.185 42.0289 293.23 42.0466 293.265 42.0784C293.282 42.0961 293.293 42.1173 293.3 42.1385C293.307 42.1632 293.303 42.1844 293.296 42.2091C293.286 42.301 293.258 42.3893 293.21 42.467C293.165 42.5447 293.102 42.6119 293.03 42.6648C292.839 42.7744 292.621 42.8238 292.403 42.8132H292.012C291.762 42.8309 291.516 42.7496 291.323 42.5836C291.163 42.3893 291.084 42.1349 291.101 41.8806V41.3083C291.084 41.0468 291.163 40.7925 291.323 40.5911C291.516 40.4251 291.762 40.3403 292.012 40.3615H292.403C292.652 40.3438 292.901 40.4251 293.095 40.5911C293.258 40.7925 293.334 41.0504 293.314 41.3083V41.552C293.314 41.6015 293.296 41.6474 293.265 41.6827C293.248 41.7004 293.23 41.7145 293.206 41.7216C293.185 41.7287 293.161 41.7322 293.137 41.7322L291.447 41.764ZM291.447 41.4036H292.953V41.3401C292.957 41.2199 292.94 41.0963 292.905 40.9797C292.888 40.9409 292.867 40.902 292.836 40.8702C292.805 40.8384 292.77 40.8137 292.732 40.7995C292.621 40.7607 292.503 40.743 292.386 40.7501H292.008C291.89 40.7466 291.776 40.7642 291.662 40.7995C291.624 40.8172 291.589 40.8419 291.558 40.8702C291.527 40.902 291.506 40.9373 291.489 40.9797C291.451 41.0963 291.437 41.2164 291.44 41.3401V41.4036H291.447Z" fill="white"/>
<path d="M295.152 42.8414C294.986 42.8485 294.82 42.8025 294.681 42.7107C294.622 42.6648 294.574 42.6047 294.539 42.5376C294.505 42.4705 294.484 42.3963 294.477 42.3186C294.47 42.2974 294.467 42.2726 294.474 42.2479C294.48 42.2232 294.491 42.202 294.508 42.1878C294.543 42.156 294.588 42.1384 294.633 42.1384C294.678 42.1384 294.723 42.156 294.757 42.1878C294.792 42.2232 294.813 42.2691 294.82 42.3186C294.83 42.3786 294.865 42.4316 294.913 42.4669C294.989 42.4987 295.069 42.5093 295.149 42.4987H295.935C296.028 42.5093 296.122 42.4881 296.201 42.4351C296.264 42.3503 296.291 42.2444 296.281 42.1419C296.288 42.0925 296.281 42.043 296.271 41.9935C296.257 41.9476 296.236 41.9017 296.205 41.8628C296.129 41.8028 296.032 41.7745 295.938 41.7816H295.169C294.73 41.7816 294.512 41.5519 294.512 41.0962C294.494 41.0008 294.501 40.9055 294.529 40.8136C294.557 40.7218 294.605 40.6405 294.667 40.5734C294.733 40.5063 294.813 40.4568 294.899 40.4285C294.986 40.4003 295.079 40.3932 295.169 40.4109H295.907C296.267 40.4109 296.489 40.5734 296.551 40.9019C296.558 40.9231 296.561 40.9478 296.554 40.9726C296.548 40.9973 296.537 41.0185 296.52 41.0326C296.485 41.0644 296.44 41.0821 296.395 41.0821C296.35 41.0821 296.309 41.0715 296.271 41.0503C296.236 41.015 296.215 40.969 296.208 40.9196C296.205 40.8949 296.194 40.8701 296.177 40.8489C296.16 40.8277 296.139 40.8136 296.115 40.8065C296.049 40.7853 295.98 40.7712 295.91 40.7747H295.173C295.048 40.7747 294.955 40.7924 294.924 40.8383C294.861 40.8807 294.816 40.9443 294.796 41.0185C294.775 41.0927 294.782 41.1704 294.809 41.2411C294.841 41.3117 294.892 41.3682 294.958 41.4036C295.024 41.4389 295.1 41.446 295.173 41.4283H295.942C296.039 41.4177 296.136 41.4318 296.226 41.4636C296.316 41.4954 296.402 41.5484 296.471 41.6155C296.544 41.6827 296.599 41.7639 296.641 41.8593C296.679 41.9511 296.7 42.0501 296.7 42.1525C296.7 42.2514 296.679 42.3539 296.641 42.4457C296.603 42.5376 296.544 42.6188 296.471 42.6895C296.399 42.7566 296.316 42.8096 296.226 42.8414C296.132 42.8732 296.035 42.8838 295.942 42.8767L295.152 42.8414Z" fill="white"/>
<path d="M304.428 21.6201L308.635 27.6117L312.842 21.6201H314.775L309.581 28.9188L314.619 36.002H312.687L308.635 30.2082L304.584 36.002H302.638L307.676 28.9188L302.482 21.6201H304.428Z" fill="white"/>
<path d="M321.7 24.2661C321.717 24.8102 321.575 25.3436 321.298 25.8029C321.021 26.2621 320.616 26.626 320.138 26.845C319.66 27.0641 319.131 27.1312 318.618 27.0358C318.106 26.9404 317.628 26.6861 317.254 26.3081C316.88 25.9301 316.62 25.4461 316.513 24.9126C316.405 24.3827 316.45 23.8281 316.648 23.3264C316.845 22.8248 317.181 22.3938 317.614 22.09C318.047 21.7861 318.556 21.6236 319.079 21.6236C319.418 21.613 319.757 21.6731 320.076 21.8003C320.394 21.9274 320.682 22.1217 320.928 22.369C321.173 22.6163 321.367 22.9096 321.499 23.2381C321.631 23.5596 321.7 23.9093 321.7 24.2661ZM317.122 24.2661C317.122 24.8137 317.33 25.3366 317.704 25.7216C318.074 26.1067 318.58 26.3257 319.103 26.3257C319.629 26.3257 320.131 26.1102 320.502 25.7216C320.872 25.3366 321.083 24.8102 321.083 24.2661C321.094 23.9906 321.049 23.7186 320.955 23.4607C320.862 23.2028 320.72 22.9696 320.54 22.7682C320.36 22.5669 320.138 22.4079 319.896 22.2984C319.653 22.1889 319.394 22.1288 319.127 22.1253C318.86 22.1288 318.597 22.1853 318.351 22.2949C318.106 22.4044 317.884 22.5633 317.697 22.7612C317.51 22.959 317.365 23.1957 317.264 23.4536C317.167 23.7115 317.119 23.987 317.122 24.2661ZM318.701 25.6828H318.113V23.012C318.438 22.9484 318.77 22.9202 319.103 22.9272C319.411 22.9025 319.716 22.9696 319.986 23.1215C320.065 23.1957 320.124 23.284 320.166 23.3865C320.207 23.4889 320.228 23.5949 320.225 23.7044C320.214 23.8528 320.155 23.9941 320.059 24.1072C319.962 24.2167 319.83 24.2909 319.688 24.3156V24.3439C319.816 24.3898 319.93 24.4781 320.01 24.5911C320.09 24.7042 320.138 24.842 320.142 24.9833C320.173 25.2129 320.235 25.439 320.329 25.651H319.691C319.584 25.4531 319.515 25.2341 319.477 25.0115C319.47 24.948 319.449 24.8844 319.418 24.8278C319.387 24.7713 319.345 24.7219 319.293 24.683C319.245 24.6441 319.186 24.6159 319.127 24.6017C319.068 24.5876 319.002 24.5841 318.944 24.5911H318.677L318.701 25.6828ZM318.701 24.1531H318.968C319.29 24.1531 319.556 24.04 319.556 23.7645C319.556 23.4889 319.397 23.3476 319.02 23.3476C318.86 23.3476 318.753 23.3759 318.698 23.3759V24.1531H318.701Z" fill="white"/>
<path fill-rule="evenodd" clip-rule="evenodd" d="M309.19 98.8112C309.19 102.439 306.233 105.362 302.604 105.362H269.639C265.992 105.362 263.053 102.421 263.053 98.8112V75.5504C263.053 71.923 266.009 69 269.639 69H302.604C306.251 69 309.19 71.9406 309.19 75.5504V98.8112Z" fill="url(#paint2_linear)"/>
<path d="M309.19 80.4631V79.6179H300.727V69H299.878V79.6179H293.026C292.123 76.7654 289.592 74.6699 286.511 74.3882V69H285.661V74.3354C282.333 74.3882 279.536 76.6069 278.58 79.6355H272.365V69.0176H271.516V79.6355H263V80.4808H271.516V92.3841H263V93.2293H271.516V105.397H272.365V93.2293H278.403C279.164 96.5397 282.12 99.0225 285.661 99.093V105.397H286.511V99.0225C289.804 98.7056 292.477 96.346 293.203 93.2293H299.878V105.397H300.727V93.2293H309.19V92.3841H304.144V80.4808H309.19V80.4631ZM278.314 92.3489H272.383V80.4455H278.367C278.279 80.9034 278.226 81.3788 278.226 81.8542C278.226 83.6151 278.863 85.3231 280.014 86.6789C278.863 88.0524 278.226 89.7428 278.226 91.5037C278.226 91.803 278.296 92.0848 278.314 92.3489ZM285.838 98.2301C282.12 98.2301 279.093 95.2191 279.093 91.5213C279.093 89.8485 279.73 88.2285 280.899 86.9783L281.164 86.6966L280.899 86.4148C279.73 85.1646 279.093 83.5446 279.093 81.8718C279.093 78.174 282.12 75.163 285.838 75.163C289.556 75.163 292.584 78.174 292.584 81.8718C292.584 83.5446 291.946 85.1646 290.778 86.4148L290.512 86.6966L290.778 86.9783C291.946 88.2285 292.584 89.8485 292.584 91.5213C292.584 95.2191 289.556 98.2301 285.838 98.2301ZM303.312 92.3489H293.345C293.38 92.0672 293.433 91.803 293.433 91.5037C293.433 89.7428 292.796 88.0524 291.645 86.6789C292.796 85.3055 293.433 83.6151 293.433 81.8542C293.433 81.3788 293.38 80.9034 293.292 80.4455H303.312V92.3489Z" fill="url(#paint3_linear)"/>
<defs>
<linearGradient id="paint0_linear" x1="107.233" y1="229.413" x2="376.509" y2="-181.359" gradientUnits="userSpaceOnUse">
<stop stop-color="#0C469C"/>
<stop offset="1" stop-color="#B6BDFF"/>
</linearGradient>
<linearGradient id="paint1_linear" x1="344.653" y1="103.104" x2="-176.918" y2="120.584" gradientUnits="userSpaceOnUse">
<stop stop-color="#0C469C"/>
<stop offset="0.8871" stop-color="white"/>
</linearGradient>
<linearGradient id="paint2_linear" x1="286.118" y1="59.2" x2="286.118" y2="150.978" gradientUnits="userSpaceOnUse">
<stop stop-color="#FFCA3F"/>
<stop offset="0.0969" stop-color="#CA7C22"/>
<stop offset="0.1888" stop-color="#FDDB7A"/>
<stop offset="0.4201" stop-color="#FFAD45"/>
<stop offset="0.5538" stop-color="#A95F0D"/>
<stop offset="0.6562" stop-color="#FFAD45"/>
<stop offset="0.7903" stop-color="#FFFF9B"/>
<stop offset="0.868" stop-color="#FFED7C"/>
<stop offset="1" stop-color="#FFCA3F"/>
</linearGradient>
<linearGradient id="paint3_linear" x1="286.119" y1="36.955" x2="286.119" y2="151.868" gradientUnits="userSpaceOnUse">
<stop stop-color="#FFCA3F"/>
<stop offset="0.0969" stop-color="#CA7C22"/>
<stop offset="0.1888" stop-color="#FDDB7A"/>
<stop offset="0.4201" stop-color="#FFAD45"/>
<stop offset="0.5538" stop-color="#A95F0D"/>
<stop offset="0.6562" stop-color="#FFAD45"/>
<stop offset="0.7903" stop-color="#FFFF9B"/>
<stop offset="0.868" stop-color="#FFED7C"/>
<stop offset="1" stop-color="#FFCA3F"/>
</linearGradient>
</defs>
</svg>
