<svg width="347" height="215" viewBox="0 0 347 215" fill="none" xmlns="http://www.w3.org/2000/svg">
<path fill-rule="evenodd" clip-rule="evenodd" d="M347 201.794C347 209.084 341.051 215 333.722 215H13.2781C5.94857 215 0 209.084 0 201.794V13.2064C0 5.91646 5.94857 0 13.2781 0H333.722C341.051 0 347 5.91646 347 13.2064V201.794Z" fill="url(#paint0_linear)"/>
<path fill-rule="evenodd" clip-rule="evenodd" d="M79.332 86.2817C79.332 89.909 76.3754 92.8321 72.7461 92.8321H39.7811C36.134 92.8321 33.1952 89.8914 33.1952 86.2817V63.0208C33.1952 59.3935 36.1517 56.4705 39.7811 56.4705H72.7461C76.3931 56.4705 79.332 59.4111 79.332 63.0208V86.2817Z" fill="url(#paint1_linear)"/>
<path d="M79.332 67.9336V67.0884H70.8694V56.4705H70.0197V67.0884H63.1682C62.2653 64.2358 59.7336 62.1404 56.6531 61.8587V56.4705H55.8033V61.8058C52.4749 61.8587 49.6777 64.0773 48.7217 67.106H42.5075V56.4881H41.6577V67.106H33.1421V67.9512H41.6577V79.8546H33.1421V80.6998H41.6577V92.8673H42.5075V80.6998H48.5446C49.3059 84.0102 52.2625 86.493 55.8033 86.5634V92.8673H56.6531V86.493C59.946 86.176 62.6194 83.8165 63.3452 80.6998H70.0197V92.8673H70.8694V80.6998H79.332V79.8546H74.2863V67.9512H79.332V67.9336ZM48.4561 79.8194H42.5252V67.916H48.5092C48.4207 68.3738 48.3676 68.8492 48.3676 69.3247C48.3676 71.0855 49.0049 72.7936 50.1557 74.1494C49.0049 75.5229 48.3676 77.2133 48.3676 78.9741C48.3676 79.2735 48.4384 79.5552 48.4561 79.8194ZM55.9803 85.7006C52.2625 85.7006 49.2351 82.6895 49.2351 78.9918C49.2351 77.3189 49.8724 75.699 51.0409 74.4487L51.3064 74.167L51.0409 73.8853C49.8724 72.6351 49.2351 71.0151 49.2351 69.3423C49.2351 65.6445 52.2625 62.6334 55.9803 62.6334C59.6982 62.6334 62.7256 65.6445 62.7256 69.3423C62.7256 71.0151 62.0882 72.6351 60.9198 73.8853L60.6542 74.167L60.9198 74.4487C62.0882 75.699 62.7256 77.3189 62.7256 78.9918C62.7256 82.6895 59.6982 85.7006 55.9803 85.7006ZM73.4543 79.8194H63.4869C63.5223 79.5376 63.5754 79.2735 63.5754 78.9741C63.5754 77.2133 62.938 75.5229 61.7873 74.1494C62.938 72.7759 63.5754 71.0855 63.5754 69.3247C63.5754 68.8492 63.5223 68.3738 63.4337 67.916H73.4543V79.8194Z" fill="url(#paint2_linear)"/>
<path d="M257.771 149.198H264.163C264.428 149.198 264.676 149.303 264.942 149.515L265.331 149.832C265.597 150.043 265.721 150.307 265.721 150.642V158.988C265.721 159.305 265.597 159.569 265.331 159.798L264.942 160.115C264.676 160.326 264.428 160.432 264.163 160.432H257.771C257.506 160.432 257.258 160.326 256.992 160.115L256.603 159.798C256.337 159.587 256.214 159.323 256.214 158.988V150.642C256.214 150.325 256.337 150.061 256.603 149.832L256.992 149.515C257.258 149.303 257.524 149.198 257.771 149.198ZM264.357 158.654V150.976C264.357 150.818 264.357 150.712 264.34 150.659C264.322 150.606 264.269 150.554 264.163 150.483C264.074 150.413 263.986 150.36 263.932 150.342C263.879 150.325 263.755 150.325 263.561 150.325H258.373C258.179 150.325 258.055 150.325 258.002 150.342C257.948 150.36 257.878 150.413 257.771 150.483C257.683 150.554 257.612 150.624 257.594 150.659C257.577 150.712 257.577 150.818 257.577 150.976V158.654C257.577 158.812 257.577 158.918 257.594 158.97C257.612 159.023 257.665 159.076 257.771 159.164C257.86 159.235 257.948 159.287 258.002 159.305C258.055 159.323 258.179 159.323 258.373 159.323H263.561C263.755 159.323 263.879 159.323 263.932 159.305C263.986 159.287 264.056 159.252 264.163 159.164C264.269 159.076 264.322 159.023 264.34 158.97C264.357 158.918 264.357 158.812 264.357 158.654Z" fill="#D6D6D6"/>
<path d="M268.837 152.437L268.075 151.645L270.359 149.197H272.253V160.431H270.996V150.518C270.996 150.306 271.014 150.165 271.05 150.095L270.996 150.042L268.837 152.437Z" fill="#D6D6D6"/>
<path d="M281.265 149.197H282.557L274.024 161.875H272.802L281.265 149.197Z" fill="#D6D6D6"/>
<path d="M283.513 155.466L284.274 154.832C284.452 154.691 284.593 154.621 284.735 154.621V154.532C284.611 154.532 284.452 154.462 284.274 154.321L283.743 153.899C283.566 153.758 283.495 153.582 283.495 153.353V150.606C283.495 150.289 283.619 150.025 283.885 149.796L284.274 149.479C284.522 149.268 284.788 149.162 285.053 149.162H289.993C290.241 149.162 290.506 149.268 290.772 149.479L291.161 149.796C291.409 150.007 291.551 150.271 291.551 150.606V153.353C291.551 153.582 291.462 153.758 291.285 153.899L290.754 154.321C290.577 154.462 290.435 154.532 290.294 154.532V154.621C290.418 154.621 290.577 154.691 290.754 154.832L291.515 155.466C291.675 155.589 291.746 155.8 291.746 156.1V158.987C291.746 159.304 291.622 159.569 291.356 159.797C291.268 159.868 291.144 159.973 290.967 160.114C290.701 160.326 290.453 160.431 290.188 160.431H284.859C284.593 160.431 284.345 160.326 284.08 160.114C283.903 159.956 283.779 159.85 283.69 159.797C283.425 159.586 283.301 159.322 283.301 158.987V156.1C283.283 155.8 283.354 155.589 283.513 155.466ZM289.125 155.29H285.868C285.708 155.29 285.602 155.29 285.549 155.307C285.496 155.325 285.408 155.378 285.284 155.483L284.93 155.765C284.788 155.871 284.717 155.959 284.682 156.012C284.664 156.064 284.646 156.17 284.646 156.346V158.618C284.646 158.776 284.646 158.882 284.664 158.935C284.682 158.987 284.735 159.04 284.841 159.128C284.947 159.216 285.018 159.252 285.071 159.269C285.124 159.287 285.248 159.287 285.443 159.287H289.568C289.763 159.287 289.887 159.287 289.94 159.269C289.993 159.252 290.064 159.216 290.17 159.128C290.258 159.058 290.329 158.987 290.347 158.935C290.365 158.882 290.365 158.776 290.365 158.618V156.364C290.365 156.188 290.347 156.082 290.329 156.029C290.312 155.976 290.223 155.888 290.081 155.783L289.727 155.501C289.603 155.395 289.515 155.325 289.444 155.325C289.391 155.307 289.285 155.29 289.125 155.29ZM289.373 150.324H285.62C285.425 150.324 285.301 150.324 285.248 150.342C285.195 150.359 285.124 150.412 285.018 150.483C284.93 150.553 284.859 150.623 284.841 150.659C284.823 150.711 284.823 150.817 284.823 150.976V153.071C284.823 153.247 284.841 153.37 284.859 153.423C284.876 153.476 284.947 153.564 285.089 153.67L285.514 154.004C285.62 154.092 285.708 154.145 285.762 154.163C285.815 154.18 285.956 154.18 286.133 154.18H288.842C289.037 154.18 289.161 154.18 289.214 154.163C289.267 154.145 289.356 154.092 289.462 154.004L289.887 153.67C290.011 153.564 290.099 153.476 290.117 153.423C290.134 153.37 290.152 153.247 290.152 153.071V150.976C290.152 150.817 290.135 150.711 290.135 150.659C290.117 150.606 290.064 150.553 289.957 150.483C289.869 150.412 289.78 150.359 289.727 150.342C289.692 150.324 289.568 150.324 289.373 150.324Z" fill="#D6D6D6"/>
<path d="M296.172 149.197H302.563C302.811 149.197 303.076 149.303 303.342 149.514L303.731 149.831C303.979 150.042 304.121 150.306 304.121 150.641V158.987C304.121 159.304 303.997 159.568 303.731 159.797L303.342 160.114C303.076 160.326 302.828 160.431 302.563 160.431H296.172C295.924 160.431 295.658 160.326 295.393 160.114L295.003 159.797C294.755 159.586 294.614 159.322 294.614 158.987V150.641C294.614 150.324 294.738 150.06 295.003 149.831L295.393 149.514C295.658 149.303 295.924 149.197 296.172 149.197ZM302.775 158.653V150.975C302.775 150.817 302.758 150.711 302.758 150.659C302.74 150.606 302.687 150.553 302.58 150.482C302.492 150.412 302.403 150.359 302.35 150.342C302.297 150.324 302.173 150.324 301.979 150.324H296.774C296.579 150.324 296.455 150.324 296.402 150.342C296.349 150.359 296.278 150.412 296.172 150.482C296.083 150.553 296.012 150.623 295.995 150.659C295.977 150.711 295.977 150.817 295.977 150.975V158.653C295.977 158.811 295.995 158.917 295.995 158.97C296.012 159.023 296.065 159.075 296.172 159.163C296.278 159.251 296.349 159.287 296.402 159.304C296.455 159.322 296.579 159.322 296.774 159.322H301.979C302.173 159.322 302.297 159.322 302.35 159.304C302.403 159.287 302.474 159.251 302.58 159.163C302.669 159.093 302.74 159.023 302.758 158.97C302.758 158.917 302.775 158.811 302.775 158.653Z" fill="#D6D6D6"/>
<path d="M227.267 152.155H227.303C227.303 152.138 227.32 152.067 227.338 151.979L228.613 147.876H229.215L227.657 152.56H226.913L225.355 147.876H225.957L227.232 151.979C227.25 152.067 227.267 152.138 227.267 152.155Z" fill="#D6D6D6"/>
<path d="M229.657 152.578L231.268 147.894H232.065L233.712 152.578H233.145L232.791 151.609H230.543L230.206 152.578H229.657ZM231.676 148.281H231.64C231.64 148.334 231.623 148.405 231.587 148.475L230.684 151.169H232.649L231.711 148.475C231.693 148.405 231.676 148.334 231.676 148.281Z" fill="#D6D6D6"/>
<path d="M237.642 152.102V152.578H234.738V147.894H235.305V152.12H237.642V152.102Z" fill="#D6D6D6"/>
<path d="M238.262 147.876H238.828V152.56H238.262V147.876Z" fill="#D6D6D6"/>
<path d="M240.174 152.578V147.894H242.67C242.794 147.894 242.9 147.947 242.989 148.035L243.644 148.563C243.75 148.651 243.803 148.739 243.803 148.827V151.645C243.803 151.733 243.75 151.821 243.644 151.909L242.989 152.437C242.9 152.525 242.776 152.578 242.67 152.578H240.174ZM243.236 151.433V149.021C243.236 148.933 243.183 148.845 243.077 148.757L242.758 148.493C242.67 148.405 242.546 148.352 242.44 148.352H240.758V152.102H242.44C242.564 152.102 242.67 152.05 242.758 151.962L243.077 151.697C243.183 151.609 243.236 151.521 243.236 151.433Z" fill="#D6D6D6"/>
<path d="M226.4 155.924H229.958V156.399H228.471V160.625H227.905V156.399H226.417V155.924H226.4Z" fill="#D6D6D6"/>
<path d="M233.605 155.924H234.172V160.607H233.605V158.424H231.162V160.607H230.596V155.924H231.162V158.001H233.605V155.924Z" fill="#D6D6D6"/>
<path d="M235.517 155.924H238.014C238.12 155.924 238.226 155.976 238.332 156.064L238.492 156.205C238.598 156.293 238.651 156.399 238.651 156.54V158.107C238.651 158.248 238.598 158.354 238.474 158.459L238.315 158.6C238.208 158.688 238.102 158.723 237.996 158.723H237.624L238.315 159.797C238.368 159.868 238.403 159.921 238.421 159.938C238.439 159.956 238.492 159.991 238.563 160.026L238.633 160.062C238.704 160.114 238.757 160.15 238.775 160.167C238.793 160.202 238.793 160.255 238.793 160.361V160.625H238.616C238.545 160.625 238.474 160.625 238.456 160.607C238.421 160.59 238.368 160.572 238.315 160.519L238.191 160.431C238.084 160.361 238.014 160.273 237.943 160.167L237.04 158.741H236.066V160.625H235.5V155.924H235.517ZM236.084 156.381V158.266H237.766C237.837 158.266 237.89 158.266 237.925 158.248C237.943 158.248 237.978 158.23 238.014 158.195C238.049 158.16 238.084 158.142 238.084 158.125C238.084 158.107 238.102 158.054 238.102 158.001V156.681C238.102 156.61 238.102 156.575 238.084 156.557C238.084 156.54 238.049 156.505 238.014 156.487C237.978 156.452 237.943 156.434 237.925 156.434C237.907 156.434 237.854 156.417 237.766 156.417H236.084V156.381Z" fill="#D6D6D6"/>
<path d="M243.077 155.924H243.644V160.009C243.644 160.15 243.59 160.255 243.484 160.343L243.325 160.484C243.219 160.572 243.112 160.625 243.006 160.625H240.722C240.616 160.625 240.51 160.572 240.404 160.484L240.244 160.343C240.138 160.255 240.085 160.15 240.085 160.009V155.924H240.652V159.868C240.652 159.938 240.652 159.974 240.669 159.991C240.669 160.009 240.705 160.044 240.74 160.062C240.776 160.097 240.811 160.114 240.829 160.114C240.846 160.114 240.899 160.132 240.988 160.132H242.776C242.865 160.132 242.918 160.132 242.935 160.114C242.953 160.114 242.989 160.097 243.024 160.062C243.059 160.026 243.095 160.009 243.095 159.991C243.095 159.974 243.112 159.921 243.112 159.868V155.924H243.077Z" fill="#D6D6D6"/>
<path fill-rule="evenodd" clip-rule="evenodd" d="M247.007 151.433V157.139L251.327 154.286L247.007 151.433Z" fill="#D6D6D6"/>
<path d="M335.567 0H91.5695L220.013 215H335.567C342.897 215 348.845 209.084 348.845 201.794V13.2064C348.845 5.91646 342.897 0 335.567 0Z" fill="url(#paint3_linear)" fill-opacity="0.2"/>
<path d="M233.245 36.1504C232.774 36.1504 232.538 35.9031 232.538 35.4156V23.2347C232.538 22.7472 232.774 22.5034 233.245 22.5034C233.715 22.5034 233.951 22.7472 233.951 23.2382V35.4156C233.951 35.9031 233.715 36.1504 233.245 36.1504Z" fill="white"/>
<path d="M243.213 25.9937C244.501 25.9937 245.457 26.3046 246.056 26.9405C246.652 27.5764 246.967 28.5549 246.967 29.8939V35.3979C246.974 35.5003 246.956 35.6028 246.922 35.6982C246.887 35.7936 246.832 35.8819 246.762 35.9525C246.693 36.0197 246.61 36.0691 246.523 36.1009C246.433 36.1327 246.34 36.1433 246.246 36.1327C246.053 36.1398 245.866 36.0762 245.713 35.9525C245.651 35.8748 245.602 35.7865 245.575 35.6946C245.544 35.5993 245.533 35.5003 245.54 35.3979V29.8974C245.561 29.4028 245.485 28.9082 245.322 28.4454C245.256 28.2794 245.159 28.131 245.038 28.0038C244.917 27.8767 244.771 27.7777 244.616 27.7106C244.169 27.541 243.695 27.4633 243.22 27.481H242.67C241.697 27.481 240.911 27.6294 240.346 27.9049C239.782 28.1805 239.484 28.5903 239.484 29.1308V35.3979C239.491 35.5003 239.474 35.6028 239.439 35.6982C239.404 35.7936 239.349 35.8819 239.28 35.9525C239.211 36.0197 239.127 36.0691 239.041 36.1009C238.951 36.1327 238.857 36.1433 238.764 36.1327C238.57 36.1433 238.38 36.0797 238.231 35.9525C238.168 35.8748 238.12 35.7865 238.092 35.6946C238.061 35.5993 238.051 35.5003 238.057 35.3979V26.7285C238.051 26.5342 238.109 26.3399 238.231 26.1915C238.376 26.0502 238.566 25.9725 238.764 25.9796C238.861 25.9725 238.958 25.9902 239.044 26.0255C239.134 26.0608 239.214 26.1173 239.28 26.1915C239.349 26.2622 239.401 26.347 239.436 26.4388C239.47 26.5307 239.488 26.6296 239.484 26.732V27.3043C240.173 26.4212 241.243 25.9831 242.687 25.9831H243.22V25.9937H243.213Z" fill="white"/>
<path d="M257.857 26.075C258.141 26.2234 258.296 26.4177 258.296 26.6615C258.29 26.7957 258.255 26.93 258.203 27.0536L254.467 35.5781C254.401 35.7477 254.283 35.8926 254.134 35.9915C253.986 36.0904 253.812 36.1399 253.636 36.1328C253.463 36.1363 253.297 36.0833 253.155 35.9809C253.013 35.8784 252.909 35.7336 252.85 35.564L249.38 27.0395C249.328 26.9229 249.301 26.7922 249.301 26.665C249.301 26.3859 249.457 26.1916 249.754 26.0786C249.858 26.0291 249.969 26.0008 250.083 25.9973C250.367 25.9973 250.554 26.1598 250.679 26.4707L253.677 33.8012L256.915 26.453C256.96 26.3188 257.04 26.2057 257.15 26.1245C257.261 26.0432 257.393 25.9973 257.528 25.9973C257.642 25.9973 257.753 26.0256 257.857 26.075Z" fill="white"/>
<path d="M261.624 31.6744V32.2608C261.606 32.7483 261.679 33.2394 261.842 33.6986C261.908 33.8647 262.005 34.0131 262.126 34.1402C262.247 34.2674 262.392 34.3663 262.548 34.4335C262.995 34.603 263.469 34.6807 263.944 34.6631H265.561C266.298 34.6631 266.831 34.5818 267.178 34.4193C267.347 34.3416 267.493 34.2215 267.607 34.0696C267.721 33.9177 267.801 33.741 267.836 33.5538C267.863 33.363 267.943 33.1864 268.071 33.0486C268.223 32.925 268.41 32.8649 268.601 32.8684C268.791 32.8755 268.975 32.9497 269.12 33.0804C269.186 33.1546 269.231 33.2429 269.255 33.3383C269.279 33.4337 269.283 33.5361 269.259 33.6351C269.134 34.5006 268.757 35.1365 268.161 35.5463C267.566 35.9561 266.686 36.168 265.571 36.168H263.954C262.683 36.168 261.724 35.8572 261.115 35.2213C260.502 34.5854 260.204 33.6068 260.204 32.282V29.8974C260.204 28.5585 260.502 27.5622 261.115 26.944C261.728 26.3222 262.683 25.9796 263.954 25.9972H265.571C266.859 25.9972 267.815 26.3081 268.41 26.944C269.006 27.5799 269.321 28.5585 269.321 29.8974V30.9254C269.328 31.0279 269.311 31.1303 269.276 31.2257C269.241 31.3211 269.186 31.4094 269.117 31.4801C269.047 31.5472 268.964 31.5967 268.874 31.6284C268.784 31.6602 268.691 31.6708 268.597 31.6602L261.624 31.6744ZM261.624 30.1906H267.901V29.8974C267.922 29.4028 267.846 28.9082 267.683 28.4454C267.617 28.2794 267.52 28.131 267.399 28.0038C267.278 27.8767 267.133 27.7777 266.977 27.7106C266.53 27.541 266.056 27.4633 265.581 27.481H263.964C263.352 27.4633 262.898 27.5304 262.569 27.693C262.406 27.7636 262.261 27.8696 262.14 28.0003C262.018 28.131 261.925 28.2865 261.863 28.4596C261.7 28.9259 261.624 29.4169 261.645 29.9115V30.1906H261.624Z" fill="white"/>
<path d="M275.232 36.1504C274.394 36.1504 273.75 35.9702 273.3 35.6134C272.818 35.2001 272.507 34.6101 272.437 33.9636C272.41 33.8647 272.406 33.7587 272.43 33.6563C272.455 33.5538 272.507 33.4655 272.576 33.3913C272.649 33.3206 272.735 33.2641 272.829 33.2288C272.922 33.1935 273.023 33.1758 273.123 33.1793C273.213 33.1723 273.3 33.1829 273.386 33.2147C273.469 33.2465 273.545 33.2959 273.611 33.3595C273.739 33.5149 273.826 33.6986 273.861 33.8965C273.878 34.0201 273.923 34.1367 273.992 34.2392C274.061 34.3416 274.148 34.4264 274.255 34.4865C274.46 34.5995 274.788 34.649 275.228 34.649H278.462C279.013 34.649 279.39 34.55 279.591 34.3557C279.795 34.1438 279.889 33.7516 279.889 33.1652C279.889 32.5788 279.795 32.1866 279.591 31.9888C279.387 31.7945 279.027 31.6779 278.462 31.6779H275.277C273.442 31.6779 272.531 30.7311 272.531 28.8199C272.531 27.8413 272.749 27.1207 273.206 26.6649C273.66 26.2092 274.352 25.9619 275.277 25.9619H278.351C279.875 25.9619 280.754 26.6473 281.004 28.0038C281.031 28.1028 281.035 28.2087 281.011 28.3112C280.986 28.4136 280.935 28.502 280.862 28.5762C280.789 28.6468 280.703 28.7033 280.609 28.7387C280.516 28.774 280.415 28.7917 280.315 28.7881C280.138 28.8022 279.962 28.7422 279.827 28.6256C279.698 28.4702 279.612 28.2865 279.577 28.0886C279.556 27.9827 279.511 27.8802 279.446 27.7954C279.38 27.7106 279.297 27.6435 279.2 27.5976C278.937 27.4845 278.653 27.4351 278.369 27.4492H275.291C274.757 27.4492 274.411 27.5305 274.224 27.7106C274.037 27.8908 273.975 28.2653 273.975 28.8199C273.975 29.3746 274.054 29.7172 274.224 29.9151C274.394 30.1129 274.757 30.2083 275.291 30.2083H278.476C279.435 30.2083 280.155 30.452 280.613 30.9431C281.066 31.4342 281.319 32.169 281.319 33.1617C281.319 34.1544 281.083 34.9068 280.613 35.3979C280.142 35.889 279.435 36.1151 278.476 36.1151L275.232 36.1504Z" fill="white"/>
<path d="M288.888 34.6631C289.359 34.6631 289.594 34.9069 289.594 35.3979C289.601 35.5004 289.584 35.6028 289.549 35.6982C289.515 35.7936 289.459 35.8819 289.39 35.9526C289.321 36.0197 289.238 36.0691 289.148 36.1009C289.058 36.1327 288.964 36.1433 288.871 36.1327C287.6 36.1327 286.672 35.8218 286.063 35.2036C285.45 34.5819 285.169 33.6209 285.169 32.3138V27.4633H284.117C283.923 27.4704 283.736 27.4068 283.583 27.2832C283.521 27.2055 283.473 27.1171 283.445 27.0253C283.414 26.9299 283.403 26.831 283.41 26.7285C283.403 26.5342 283.462 26.3399 283.583 26.1916C283.725 26.0502 283.919 25.9725 284.117 25.9796H285.169V24.2167C285.169 23.7257 285.405 23.4819 285.876 23.4819C286.347 23.4819 286.582 23.7257 286.582 24.2167V25.9796H288.937C289.034 25.9725 289.131 25.9902 289.217 26.0255C289.307 26.0608 289.387 26.1174 289.453 26.1916C289.522 26.2622 289.574 26.347 289.608 26.4389C289.643 26.5307 289.66 26.6296 289.657 26.7321C289.664 26.831 289.653 26.9334 289.619 27.0288C289.584 27.1242 289.532 27.209 289.463 27.2796C289.394 27.3503 289.311 27.4033 289.221 27.4351C289.131 27.4669 289.034 27.4775 288.937 27.4669H286.582V32.3138C286.582 32.9356 286.644 33.409 286.786 33.7517C286.921 34.0696 287.171 34.3204 287.475 34.4547C287.929 34.6101 288.41 34.6808 288.888 34.6631Z" fill="white"/>
<path d="M296.956 25.9937C298.244 25.9937 299.199 26.3045 299.795 26.9404C300.391 27.5763 300.706 28.5549 300.706 29.8938V35.3978C300.713 35.5003 300.699 35.6027 300.661 35.6981C300.626 35.7935 300.571 35.8818 300.501 35.9525C300.432 36.0196 300.349 36.0691 300.262 36.1008C300.172 36.1326 300.079 36.1432 299.985 36.1326C299.792 36.1397 299.605 36.0761 299.452 35.9525C299.39 35.8748 299.341 35.7864 299.314 35.6946C299.283 35.5992 299.272 35.5003 299.279 35.3978V34.7443C298.59 35.6734 297.52 36.1468 296.076 36.1468H294.979C293.895 36.1468 293.095 35.8853 292.593 35.3484C292.091 34.8114 291.824 33.9918 291.824 32.8684C291.824 31.7414 292.073 30.9077 292.593 30.3884C293.112 29.8655 293.895 29.59 294.979 29.59H299.279C299.231 28.7916 299.044 28.2511 298.715 27.9402C298.386 27.6293 297.79 27.4845 296.956 27.4845H295.81C295.072 27.4845 294.539 27.5481 294.193 27.6964C294.04 27.7459 293.895 27.8307 293.777 27.9437C293.659 28.0568 293.562 28.1946 293.504 28.35C293.448 28.5408 293.344 28.7174 293.206 28.8552C293.071 28.9612 292.905 29.0142 292.735 29.0036C292.548 29.0106 292.368 28.9541 292.215 28.841C292.153 28.7916 292.105 28.7245 292.07 28.6538C292.035 28.5832 292.015 28.5019 292.011 28.4171C292.008 28.3606 292.011 28.3076 292.028 28.2546C292.087 27.9049 292.219 27.5693 292.42 27.2796C292.617 26.9899 292.877 26.7461 293.175 26.573C293.787 26.1986 294.667 26.0184 295.796 26.0184L296.956 25.9937ZM299.199 32.9991C299.217 32.9143 299.241 32.8331 299.279 32.7553V31.0561H294.979C294.29 31.0561 293.832 31.1868 293.597 31.4306C293.362 31.6743 293.237 32.1477 293.237 32.8684C293.237 33.5855 293.362 34.0589 293.597 34.3062C293.832 34.55 294.286 34.6807 294.979 34.6807H296.076C297.884 34.663 298.933 34.1084 299.199 32.9991Z" fill="white"/>
<path d="M249.602 42.8416C249.578 42.8451 249.553 42.8416 249.532 42.8345C249.512 42.8274 249.491 42.8133 249.474 42.7956C249.456 42.778 249.446 42.7568 249.436 42.7356C249.429 42.7108 249.425 42.6896 249.429 42.6649V39.7256C249.425 39.7009 249.429 39.6762 249.436 39.655C249.442 39.6338 249.456 39.6126 249.474 39.5949C249.491 39.5773 249.512 39.5631 249.532 39.5561C249.553 39.549 249.578 39.5455 249.602 39.549H250.748C251.156 39.549 251.454 39.6479 251.641 39.8422C251.828 40.0365 251.925 40.3474 251.925 40.7713V41.6051C251.925 42.029 251.832 42.3399 251.641 42.5342C251.454 42.7285 251.153 42.8274 250.748 42.8274L249.602 42.8416ZM250.744 42.4812C250.914 42.4847 251.084 42.4565 251.246 42.4C251.368 42.347 251.465 42.248 251.513 42.1209C251.568 41.9548 251.596 41.7747 251.593 41.598V40.7678C251.596 40.5912 251.568 40.4145 251.513 40.245C251.465 40.1178 251.368 40.0189 251.246 39.9659C251.084 39.9058 250.914 39.8811 250.744 39.8846H249.771V42.4635L250.744 42.4812Z" fill="white"/>
<path d="M253.4 42.8414C253.376 42.845 253.352 42.8414 253.331 42.8344C253.31 42.8273 253.289 42.8132 253.272 42.7955C253.255 42.7778 253.244 42.7566 253.234 42.7355C253.227 42.7143 253.224 42.6895 253.227 42.6648V40.5769C253.227 40.5416 253.237 40.5063 253.258 40.478C253.279 40.4498 253.303 40.425 253.334 40.4109C253.366 40.3968 253.4 40.3932 253.435 40.4003C253.469 40.4074 253.501 40.4215 253.525 40.4462C253.542 40.4639 253.556 40.4851 253.563 40.5063C253.57 40.5275 253.573 40.5522 253.573 40.5769V42.6648C253.573 42.7143 253.556 42.7602 253.525 42.7955C253.507 42.8132 253.49 42.8273 253.466 42.8344C253.445 42.8414 253.421 42.845 253.4 42.8414ZM253.334 39.9834C253.279 39.9834 253.224 39.9693 253.179 39.934C253.144 39.888 253.127 39.828 253.13 39.7715V39.6408C253.13 39.51 253.192 39.4465 253.334 39.4465H253.459C253.483 39.4429 253.511 39.4465 253.535 39.4535C253.559 39.4606 253.584 39.4747 253.601 39.4959C253.618 39.5136 253.632 39.5383 253.643 39.563C253.649 39.5878 253.653 39.616 253.649 39.6408V39.7715C253.649 39.828 253.636 39.888 253.601 39.934C253.58 39.9516 253.559 39.9658 253.535 39.9728C253.511 39.9799 253.487 39.9834 253.459 39.9834H253.334Z" fill="white"/>
<path d="M256.915 40.3932C256.96 40.3932 257.005 40.4108 257.039 40.4426C257.057 40.4603 257.071 40.4815 257.078 40.5027C257.084 40.5239 257.088 40.5486 257.088 40.5733V43.1523C257.105 43.3395 257.046 43.5303 256.932 43.6751C256.863 43.7352 256.783 43.7811 256.697 43.8094C256.61 43.8376 256.52 43.8482 256.43 43.8376H255.551C255.395 43.8482 255.239 43.8023 255.111 43.7069C255.052 43.6645 255.007 43.608 254.976 43.5409C254.945 43.4773 254.924 43.4031 254.924 43.3289C254.917 43.3077 254.913 43.283 254.92 43.2583C254.927 43.2335 254.938 43.2123 254.955 43.1982C254.976 43.1805 254.997 43.1664 255.021 43.1593C255.045 43.1523 255.069 43.1487 255.097 43.1487C255.135 43.1487 255.173 43.1593 255.208 43.1805C255.242 43.2159 255.263 43.2618 255.27 43.3112C255.274 43.336 255.284 43.3607 255.301 43.3819C255.319 43.4031 255.339 43.4172 255.364 43.4243C255.429 43.4455 255.499 43.4596 255.568 43.4561H256.447C256.492 43.4702 256.537 43.4702 256.582 43.4596C256.627 43.449 256.666 43.4243 256.7 43.3925C256.731 43.3572 256.756 43.3183 256.766 43.2724C256.776 43.2265 256.776 43.177 256.762 43.1311V42.5093C256.666 42.6188 256.544 42.7036 256.413 42.7566C256.281 42.8096 256.136 42.8308 255.994 42.8202H255.807C255.558 42.8379 255.312 42.7566 255.118 42.5906C254.959 42.3963 254.879 42.1419 254.9 41.8875V41.3152C254.882 41.0538 254.962 40.7994 255.118 40.5981C255.312 40.432 255.558 40.3472 255.807 40.3684H256.198C256.302 40.3614 256.406 40.379 256.506 40.4179C256.603 40.4568 256.693 40.5168 256.766 40.5981V40.5557C256.766 40.5062 256.783 40.4603 256.814 40.425C256.835 40.4002 256.877 40.3896 256.915 40.3932ZM255.973 42.481C256.167 42.4881 256.357 42.4563 256.537 42.3821C256.596 42.3609 256.648 42.3221 256.686 42.2691C256.724 42.2161 256.742 42.1525 256.742 42.0889V41.1598C256.745 41.0997 256.735 41.0397 256.711 40.9831C256.686 40.9301 256.648 40.8807 256.6 40.8489C256.472 40.7747 256.323 40.7394 256.177 40.75H255.786C255.668 40.7464 255.554 40.7641 255.44 40.7994C255.402 40.8171 255.367 40.8418 255.336 40.8701C255.305 40.9019 255.284 40.9372 255.267 40.9796C255.229 41.0962 255.215 41.2163 255.218 41.34V41.9123C255.215 42.0288 255.229 42.1454 255.267 42.2549C255.284 42.2938 255.305 42.3327 255.336 42.3645C255.367 42.3963 255.402 42.421 255.44 42.4351C255.551 42.474 255.668 42.4916 255.786 42.4846H255.973V42.481Z" fill="white"/>
<path d="M258.611 42.8414C258.587 42.845 258.563 42.8414 258.542 42.8344C258.521 42.8273 258.5 42.8132 258.483 42.7955C258.466 42.7778 258.455 42.7566 258.445 42.7355C258.438 42.7143 258.435 42.6895 258.438 42.6648V40.5769C258.438 40.5416 258.449 40.5063 258.469 40.478C258.49 40.4498 258.514 40.425 258.546 40.4109C258.577 40.3968 258.611 40.3932 258.646 40.4003C258.681 40.4074 258.712 40.4215 258.736 40.4462C258.753 40.4639 258.767 40.4851 258.774 40.5063C258.781 40.5275 258.784 40.5522 258.784 40.5769V42.6648C258.784 42.7143 258.767 42.7602 258.736 42.7955C258.719 42.8132 258.701 42.8273 258.677 42.8344C258.656 42.8414 258.632 42.845 258.611 42.8414ZM258.546 39.9834C258.49 39.9834 258.435 39.9693 258.39 39.934C258.355 39.888 258.338 39.828 258.341 39.7715V39.6408C258.341 39.51 258.404 39.4465 258.546 39.4465H258.67C258.694 39.4429 258.722 39.4465 258.746 39.4535C258.771 39.4606 258.795 39.4747 258.812 39.4959C258.829 39.5136 258.843 39.5383 258.854 39.563C258.861 39.5878 258.864 39.616 258.861 39.6408V39.7715C258.861 39.828 258.847 39.888 258.812 39.934C258.791 39.9516 258.771 39.9658 258.746 39.9728C258.722 39.9799 258.698 39.9834 258.67 39.9834H258.546Z" fill="white"/>
<path d="M261.17 42.4808C261.194 42.4773 261.219 42.4808 261.239 42.4879C261.26 42.495 261.281 42.5091 261.298 42.5268C261.316 42.5444 261.326 42.5656 261.336 42.5868C261.343 42.608 261.347 42.6328 261.343 42.6575C261.343 42.7069 261.326 42.7529 261.295 42.7882C261.277 42.8059 261.26 42.82 261.236 42.8271C261.212 42.8341 261.191 42.8377 261.167 42.8377C260.921 42.8553 260.678 42.7741 260.491 42.608C260.412 42.5126 260.353 42.3996 260.315 42.2795C260.277 42.1594 260.263 42.0322 260.273 41.905V40.7286H260.02C259.975 40.7286 259.93 40.7109 259.899 40.6756C259.868 40.6403 259.847 40.5979 259.847 40.5484C259.847 40.5025 259.865 40.4566 259.899 40.4213C259.93 40.3859 259.975 40.3683 260.02 40.3683H260.273V39.9443C260.273 39.8984 260.291 39.8525 260.325 39.8172C260.356 39.7818 260.401 39.7642 260.446 39.7642C260.491 39.7642 260.536 39.7818 260.568 39.8172C260.599 39.8525 260.62 39.8949 260.62 39.9443V40.3683H261.184C261.229 40.3683 261.274 40.3859 261.309 40.4177C261.333 40.4424 261.35 40.4742 261.361 40.5096C261.367 40.5449 261.364 40.5838 261.35 40.6156C261.336 40.6509 261.312 40.6791 261.284 40.6968C261.257 40.7145 261.219 40.7251 261.184 40.7251H260.62V41.9015C260.616 42.0181 260.63 42.1346 260.668 42.2442C260.685 42.283 260.706 42.3183 260.737 42.3466C260.768 42.3749 260.803 42.3961 260.841 42.4102C260.942 42.4667 261.056 42.4914 261.17 42.4808Z" fill="white"/>
<path d="M263.539 40.3932C263.788 40.3756 264.034 40.4568 264.228 40.6229C264.387 40.8242 264.467 41.0821 264.446 41.34V42.6613C264.446 42.7107 264.429 42.7567 264.398 42.792C264.38 42.8097 264.363 42.8238 264.339 42.8309C264.318 42.8379 264.294 42.8414 264.269 42.8414C264.245 42.845 264.221 42.8414 264.2 42.8344C264.179 42.8273 264.159 42.8132 264.141 42.7955C264.124 42.7779 264.114 42.7567 264.103 42.7355C264.096 42.7107 264.093 42.6895 264.096 42.6648V42.4988C264.003 42.6154 263.885 42.7072 263.75 42.7673C263.615 42.8273 263.47 42.852 263.324 42.8414H263.058C262.95 42.852 262.843 42.8379 262.742 42.8026C262.642 42.7673 262.549 42.7107 262.469 42.633C262.389 42.5588 262.327 42.467 262.282 42.3645C262.24 42.2621 262.216 42.1526 262.216 42.0395C262.216 41.9265 262.237 41.8169 262.282 41.7145C262.323 41.612 262.389 41.5202 262.469 41.446C262.549 41.3718 262.642 41.3118 262.742 41.2764C262.843 41.2411 262.95 41.227 263.058 41.2376H264.093C264.096 41.0927 264.048 40.9514 263.951 40.8454C263.826 40.7607 263.677 40.7218 263.528 40.7324H263.244C263.113 40.7253 262.978 40.743 262.853 40.7818C262.815 40.796 262.78 40.8172 262.749 40.8454C262.718 40.8737 262.697 40.909 262.68 40.9479C262.666 40.9973 262.639 41.0433 262.6 41.0786C262.566 41.0998 262.528 41.1104 262.49 41.1104C262.445 41.1104 262.403 41.0998 262.365 41.0786C262.351 41.068 262.341 41.0503 262.33 41.0362C262.323 41.0185 262.317 41.0009 262.317 40.9832V40.9514C262.33 40.8631 262.362 40.7818 262.41 40.7112C262.458 40.6405 262.524 40.584 262.6 40.5416C262.798 40.4462 263.012 40.4003 263.227 40.4109L263.539 40.3932ZM264.072 42.0925C264.072 42.0607 264.089 42.043 264.089 42.0289V41.6191H263.054C262.94 41.605 262.822 41.6332 262.725 41.7004C262.659 41.7993 262.632 41.9229 262.645 42.043C262.635 42.1632 262.663 42.2833 262.725 42.3857C262.822 42.4528 262.94 42.4846 263.054 42.467H263.321C263.757 42.4811 264.01 42.3504 264.072 42.0925Z" fill="white"/>
<path d="M266.489 42.8415C266.395 42.8556 266.298 42.845 266.208 42.8168C266.118 42.785 266.035 42.732 265.969 42.6649C265.903 42.5942 265.851 42.5094 265.82 42.4176C265.789 42.3257 265.782 42.2233 265.796 42.1279V39.5666C265.796 39.5313 265.806 39.496 265.827 39.4677C265.848 39.4395 265.872 39.4147 265.903 39.4006C265.935 39.3865 265.969 39.3829 266.004 39.39C266.038 39.3971 266.07 39.4112 266.094 39.4359C266.111 39.4536 266.125 39.4748 266.132 39.496C266.139 39.5172 266.142 39.5419 266.142 39.5666V42.1279C266.128 42.1809 266.132 42.2339 266.146 42.2869C266.16 42.3398 266.187 42.3858 266.222 42.4246C266.257 42.4635 266.305 42.4882 266.354 42.5024C266.402 42.5165 266.454 42.5165 266.506 42.5059C266.53 42.5024 266.554 42.5059 266.575 42.513C266.596 42.52 266.617 42.5341 266.634 42.5518C266.651 42.5695 266.662 42.5907 266.672 42.6119C266.679 42.6331 266.682 42.6578 266.679 42.6825C266.679 42.732 266.662 42.7779 266.631 42.8132C266.586 42.8274 266.537 42.838 266.489 42.8415Z" fill="white"/>
<path d="M269.941 42.8413C269.719 42.8554 269.497 42.7918 269.314 42.6611C269.234 42.5904 269.172 42.5021 269.13 42.4032C269.089 42.3043 269.065 42.1983 269.065 42.0888C269.065 42.0429 269.075 41.9969 269.096 41.9581C269.13 41.9263 269.175 41.9086 269.22 41.9086C269.331 41.9086 269.376 41.9722 269.394 42.0888C269.394 42.1488 269.411 42.2089 269.435 42.2619C269.463 42.3149 269.501 42.3608 269.549 42.3961C269.671 42.4562 269.806 42.4845 269.941 42.4774H270.63C270.747 42.4809 270.865 42.4633 270.976 42.4279C271.014 42.4103 271.052 42.3855 271.08 42.3573C271.111 42.3255 271.132 42.2902 271.149 42.2478C271.184 42.1382 271.201 42.0217 271.198 41.9051C271.201 41.785 271.184 41.6613 271.149 41.5447C271.132 41.5059 271.111 41.467 271.08 41.4352C271.052 41.4034 271.014 41.3787 270.976 41.3646C270.869 41.3292 270.758 41.3116 270.647 41.3151H270.038C269.923 41.3363 269.802 41.3292 269.691 41.2904C269.581 41.2551 269.477 41.1879 269.394 41.1031C269.31 41.0184 269.248 40.9124 269.213 40.7958C269.179 40.6792 269.172 40.5556 269.189 40.4355C269.179 40.3153 269.189 40.1952 269.224 40.0786C269.259 39.9621 269.317 39.8561 269.39 39.7642C269.57 39.6088 269.799 39.5311 270.034 39.5523H270.647C270.862 39.5381 271.069 39.6017 271.243 39.7324C271.388 39.8667 271.478 40.0539 271.492 40.2553C271.492 40.3189 271.492 40.3542 271.461 40.386C271.426 40.4178 271.381 40.4355 271.336 40.4355C271.291 40.4355 271.249 40.4249 271.211 40.4037C271.18 40.3683 271.163 40.3224 271.163 40.2729C271.159 40.22 271.146 40.167 271.121 40.1175C271.097 40.068 271.063 40.0292 271.021 39.9939C270.91 39.9338 270.786 39.9055 270.661 39.9126H270.048C269.979 39.8949 269.906 39.8949 269.837 39.9161C269.768 39.9373 269.705 39.9727 269.657 40.0257C269.608 40.0786 269.57 40.1422 269.549 40.2129C269.529 40.2835 269.529 40.3613 269.546 40.4319C269.529 40.5838 269.57 40.7357 269.657 40.8558C269.771 40.9477 269.92 40.9901 270.065 40.9689H270.678C270.799 40.9583 270.921 40.9724 271.038 41.0113C271.153 41.0502 271.26 41.1137 271.353 41.195C271.495 41.3257 271.596 41.4988 271.637 41.6896C271.679 41.8839 271.662 42.0853 271.585 42.2654C271.509 42.4456 271.381 42.5975 271.218 42.7C271.056 42.8024 270.865 42.8448 270.678 42.8271H269.941V42.8413Z" fill="white"/>
<path d="M273.082 41.7639V41.9122C273.078 42.0288 273.092 42.1454 273.13 42.2549C273.147 42.2938 273.168 42.3326 273.199 42.3644C273.23 42.3962 273.265 42.421 273.303 42.4351C273.414 42.474 273.532 42.4916 273.649 42.4845H274.041C274.176 42.4951 274.311 42.4739 274.432 42.421C274.473 42.4033 274.508 42.3715 274.536 42.3362C274.563 42.3008 274.581 42.2549 274.588 42.209C274.598 42.1595 274.619 42.1171 274.65 42.0783C274.685 42.0465 274.73 42.0288 274.775 42.0288C274.82 42.0288 274.865 42.0465 274.899 42.0783C274.917 42.0959 274.927 42.1171 274.934 42.1383C274.941 42.1631 274.937 42.1843 274.931 42.209C274.92 42.3008 274.892 42.3892 274.844 42.4669C274.799 42.5446 274.737 42.6117 274.66 42.6647C274.47 42.7742 274.252 42.8237 274.034 42.8131H273.642C273.393 42.8308 273.147 42.7495 272.953 42.5835C272.794 42.3892 272.718 42.1348 272.735 41.8804V41.3081C272.718 41.0467 272.798 40.7924 272.953 40.591C273.147 40.4249 273.393 40.3402 273.642 40.3614H274.034C274.283 40.3437 274.529 40.4249 274.723 40.591C274.885 40.7924 274.962 41.0502 274.941 41.3081V41.5519C274.941 41.6014 274.927 41.6473 274.892 41.6826C274.875 41.7003 274.858 41.7144 274.834 41.7215C274.813 41.7285 274.789 41.7321 274.764 41.7321L273.082 41.7639ZM273.082 41.4035H274.588V41.3399C274.591 41.2198 274.574 41.0962 274.539 40.9796C274.522 40.9407 274.501 40.9019 274.47 40.8701C274.439 40.8383 274.404 40.8136 274.366 40.7994C274.255 40.7606 274.138 40.7429 274.02 40.75H273.642C273.525 40.7464 273.41 40.7641 273.296 40.7994C273.258 40.8171 273.223 40.8418 273.192 40.8701C273.161 40.9019 273.14 40.9372 273.123 40.9796C273.085 41.0962 273.071 41.2163 273.075 41.3399V41.4035H273.082Z" fill="white"/>
<path d="M277.053 42.8414C276.804 42.859 276.558 42.7778 276.364 42.6118C276.201 42.4104 276.125 42.1525 276.146 41.8946V41.3223C276.129 41.0609 276.208 40.8065 276.364 40.6051C276.558 40.4391 276.804 40.3543 277.053 40.3755H277.445C277.635 40.3649 277.825 40.4108 277.995 40.5062C278.061 40.5486 278.116 40.6016 278.158 40.6652C278.199 40.7288 278.231 40.803 278.248 40.8807C278.255 40.9019 278.258 40.9266 278.251 40.9514C278.244 40.9761 278.234 40.9973 278.217 41.0114C278.196 41.0291 278.175 41.0432 278.151 41.0503C278.127 41.0573 278.102 41.0609 278.075 41.0609C278.037 41.0609 277.999 41.0503 277.964 41.0291C277.933 41.0114 277.915 40.9655 277.902 40.8984C277.895 40.863 277.874 40.8348 277.85 40.81C277.825 40.7853 277.794 40.7712 277.76 40.7677C277.659 40.7359 277.552 40.7253 277.445 40.7359H277.053C276.936 40.7323 276.821 40.75 276.707 40.7853C276.665 40.7994 276.631 40.8242 276.6 40.8524C276.568 40.8842 276.548 40.9231 276.534 40.962C276.496 41.0785 276.482 41.1987 276.485 41.3223V41.8946C276.482 42.0147 276.499 42.1384 276.534 42.2549C276.551 42.2938 276.572 42.3327 276.603 42.3645C276.634 42.3963 276.669 42.421 276.707 42.4351C276.818 42.474 276.936 42.4916 277.053 42.4846H277.445C277.548 42.4846 277.656 42.474 277.76 42.4528C277.822 42.428 277.87 42.3821 277.902 42.3221C277.919 42.2761 277.94 42.2337 277.964 42.1914C277.978 42.1596 278.026 42.1596 278.075 42.1596C278.099 42.156 278.12 42.1596 278.144 42.1702C278.165 42.1772 278.186 42.1914 278.203 42.209C278.22 42.2267 278.231 42.2479 278.237 42.2691C278.244 42.2938 278.241 42.315 278.234 42.3397C278.224 42.4174 278.196 42.4952 278.154 42.5588C278.109 42.6259 278.05 42.6789 277.985 42.7142C277.815 42.8096 277.628 42.8555 277.434 42.8449H277.053V42.8414Z" fill="white"/>
<path d="M281.402 40.3933C281.447 40.3933 281.492 40.411 281.526 40.4428C281.544 40.4604 281.554 40.4816 281.564 40.5028C281.571 40.524 281.575 40.5488 281.575 40.5735V42.6614C281.575 42.7108 281.558 42.7567 281.526 42.7921C281.492 42.8239 281.447 42.8415 281.402 42.8415C281.357 42.8415 281.312 42.8239 281.277 42.7921C281.246 42.7567 281.229 42.7108 281.229 42.6614V42.5306C281.132 42.6402 281.01 42.7249 280.879 42.7779C280.747 42.8309 280.602 42.8521 280.46 42.8415H280.335C280.086 42.8592 279.84 42.7779 279.646 42.6119C279.483 42.4105 279.407 42.1526 279.428 41.8947V40.5735C279.428 40.5382 279.438 40.5028 279.459 40.4746C279.48 40.4463 279.504 40.4216 279.535 40.4074C279.567 40.3933 279.601 40.3898 279.636 40.3968C279.67 40.4039 279.702 40.418 279.726 40.4428C279.743 40.4604 279.754 40.4816 279.764 40.5028C279.771 40.524 279.774 40.5488 279.774 40.5735V41.8947C279.771 42.0149 279.788 42.1385 279.823 42.2551C279.837 42.2939 279.861 42.3328 279.892 42.3646C279.92 42.3964 279.958 42.4211 279.996 42.4353C280.107 42.4741 280.224 42.4918 280.342 42.4847H280.467C280.661 42.4918 280.851 42.46 281.031 42.3858C281.09 42.3646 281.142 42.3257 281.18 42.2727C281.218 42.2198 281.236 42.1562 281.236 42.0926V40.5911C281.236 40.5417 281.253 40.4958 281.284 40.4604C281.291 40.411 281.339 40.3933 281.402 40.3933Z" fill="white"/>
<path d="M284.196 40.3933C284.241 40.3933 284.286 40.411 284.321 40.4428C284.338 40.4604 284.352 40.4816 284.359 40.5028C284.366 40.524 284.369 40.5488 284.369 40.5735C284.369 40.6229 284.355 40.6689 284.321 40.7042C284.303 40.7219 284.286 40.736 284.262 40.7431C284.241 40.7501 284.217 40.7536 284.193 40.7536C283.961 40.7431 283.729 40.8031 283.535 40.9338C283.462 40.9939 283.407 41.0716 283.368 41.1599C283.33 41.2482 283.313 41.3436 283.317 41.439V42.6649C283.317 42.7143 283.303 42.7602 283.268 42.7956C283.251 42.8132 283.233 42.8274 283.209 42.8344C283.188 42.8415 283.164 42.845 283.14 42.845C283.116 42.8486 283.091 42.845 283.071 42.838C283.05 42.8309 283.029 42.8168 283.012 42.7991C282.994 42.7814 282.984 42.7602 282.974 42.7391C282.967 42.7143 282.963 42.6931 282.967 42.6684V40.5805C282.967 40.5452 282.977 40.5099 282.998 40.4816C283.015 40.4534 283.043 40.4286 283.074 40.4145C283.105 40.4004 283.14 40.3968 283.175 40.4039C283.209 40.411 283.24 40.4251 283.265 40.4498C283.282 40.4675 283.292 40.4887 283.303 40.5099C283.31 40.5311 283.313 40.5558 283.313 40.5805V40.842C283.403 40.7007 283.528 40.5876 283.673 40.517C283.839 40.4357 284.016 40.3968 284.196 40.3933Z" fill="white"/>
<path d="M285.543 42.8414C285.519 42.845 285.494 42.8414 285.474 42.8344C285.453 42.8273 285.432 42.8132 285.415 42.7955C285.397 42.7778 285.387 42.7566 285.377 42.7355C285.37 42.7143 285.366 42.6895 285.37 42.6648V40.5769C285.37 40.5416 285.38 40.5063 285.401 40.478C285.422 40.4498 285.446 40.425 285.477 40.4109C285.508 40.3968 285.543 40.3932 285.577 40.4003C285.612 40.4074 285.643 40.4215 285.668 40.4462C285.685 40.4639 285.695 40.4851 285.706 40.5063C285.713 40.5275 285.716 40.5522 285.716 40.5769V42.6648C285.719 42.6895 285.716 42.7143 285.709 42.7355C285.702 42.7566 285.688 42.7778 285.671 42.7955C285.654 42.8132 285.633 42.8273 285.612 42.8344C285.591 42.8414 285.567 42.845 285.543 42.8414ZM285.481 39.9834C285.425 39.9834 285.37 39.9693 285.325 39.934C285.29 39.888 285.273 39.828 285.276 39.7715V39.6408C285.276 39.51 285.339 39.4465 285.481 39.4465H285.605C285.629 39.4429 285.657 39.4465 285.681 39.4535C285.706 39.4606 285.726 39.4747 285.747 39.4959C285.764 39.5136 285.778 39.5383 285.789 39.563C285.796 39.5878 285.799 39.616 285.796 39.6408V39.7715C285.796 39.828 285.782 39.888 285.747 39.934C285.726 39.9516 285.706 39.9658 285.681 39.9728C285.657 39.9799 285.633 39.9834 285.605 39.9834H285.481Z" fill="white"/>
<path d="M288.102 42.4808C288.127 42.4773 288.147 42.4808 288.172 42.4879C288.192 42.495 288.213 42.5091 288.23 42.5268C288.248 42.5444 288.258 42.5656 288.269 42.5868C288.275 42.608 288.279 42.6328 288.275 42.6575C288.275 42.7069 288.258 42.7529 288.227 42.7882C288.21 42.8059 288.192 42.82 288.168 42.8271C288.147 42.8341 288.123 42.8377 288.099 42.8377C287.853 42.8553 287.611 42.7741 287.424 42.608C287.344 42.5126 287.282 42.3996 287.247 42.2795C287.212 42.1594 287.195 42.0322 287.205 41.905V40.7286H286.956C286.911 40.7286 286.866 40.7109 286.835 40.6756C286.804 40.6403 286.783 40.5979 286.783 40.5484C286.783 40.5025 286.8 40.4566 286.835 40.4213C286.866 40.3859 286.911 40.3683 286.956 40.3683H287.205V39.9443C287.205 39.8984 287.223 39.8525 287.257 39.8172C287.289 39.7818 287.334 39.7642 287.379 39.7642C287.424 39.7642 287.469 39.7818 287.5 39.8172C287.531 39.8525 287.552 39.8949 287.552 39.9443V40.3683H288.116C288.161 40.3683 288.206 40.3859 288.241 40.4177C288.265 40.4424 288.282 40.4742 288.293 40.5096C288.3 40.5449 288.296 40.5838 288.282 40.6156C288.269 40.6509 288.244 40.6791 288.217 40.6968C288.185 40.718 288.151 40.7251 288.116 40.7251H287.552V41.9015C287.548 42.0181 287.562 42.1346 287.6 42.2442C287.618 42.283 287.642 42.3183 287.669 42.3466C287.701 42.3749 287.735 42.3961 287.773 42.4102C287.874 42.4738 287.988 42.495 288.102 42.4808Z" fill="white"/>
<path d="M289.626 42.8414C289.601 42.845 289.581 42.8414 289.556 42.8344C289.536 42.8273 289.515 42.8132 289.497 42.7955C289.48 42.7778 289.47 42.7566 289.459 42.7355C289.452 42.7143 289.449 42.6895 289.452 42.6648V40.5769C289.452 40.5416 289.463 40.5063 289.484 40.478C289.504 40.4498 289.529 40.425 289.56 40.4109C289.591 40.3968 289.626 40.3932 289.66 40.4003C289.695 40.4074 289.726 40.4215 289.75 40.4462C289.768 40.4639 289.781 40.4851 289.788 40.5063C289.795 40.5275 289.799 40.5522 289.799 40.5769V42.6648C289.799 42.7143 289.785 42.7602 289.75 42.7955C289.733 42.8132 289.716 42.8273 289.691 42.8344C289.667 42.8414 289.65 42.845 289.626 42.8414ZM289.563 39.9834C289.508 39.9834 289.452 39.9693 289.407 39.934C289.373 39.888 289.355 39.828 289.359 39.7715V39.6408C289.359 39.51 289.421 39.4465 289.563 39.4465H289.688C289.712 39.4429 289.74 39.4465 289.764 39.4535C289.788 39.4606 289.809 39.4747 289.83 39.4959C289.847 39.5136 289.861 39.5383 289.872 39.563C289.878 39.5878 289.882 39.616 289.878 39.6408V39.7715C289.878 39.828 289.865 39.888 289.83 39.934C289.809 39.9516 289.788 39.9658 289.764 39.9728C289.74 39.9799 289.716 39.9834 289.688 39.9834H289.563Z" fill="white"/>
<path d="M291.447 41.7639V41.9122C291.444 42.0288 291.457 42.1454 291.496 42.2549C291.513 42.2938 291.534 42.3326 291.565 42.3644C291.596 42.3962 291.631 42.421 291.669 42.4351C291.779 42.474 291.897 42.4916 292.015 42.4845H292.406C292.541 42.4951 292.676 42.4739 292.797 42.421C292.839 42.3998 292.874 42.3715 292.898 42.3326C292.926 42.2973 292.943 42.2549 292.953 42.209C292.964 42.1595 292.984 42.1171 293.016 42.0783C293.05 42.0465 293.095 42.0288 293.14 42.0288C293.185 42.0288 293.23 42.0465 293.265 42.0783C293.282 42.0959 293.293 42.1171 293.3 42.1383C293.306 42.1631 293.303 42.1843 293.296 42.209C293.286 42.3008 293.258 42.3892 293.21 42.4669C293.164 42.5446 293.102 42.6117 293.029 42.6647C292.839 42.7742 292.621 42.8237 292.403 42.8131H292.011C291.762 42.8308 291.516 42.7495 291.322 42.5835C291.163 42.3892 291.083 42.1348 291.101 41.8804V41.3081C291.083 41.0467 291.163 40.7924 291.322 40.591C291.516 40.4249 291.762 40.3402 292.011 40.3614H292.403C292.652 40.3437 292.901 40.4249 293.095 40.591C293.258 40.7924 293.334 41.0502 293.313 41.3081V41.5519C293.313 41.6014 293.296 41.6473 293.265 41.6826C293.248 41.7003 293.23 41.7144 293.206 41.7215C293.185 41.7285 293.161 41.7321 293.137 41.7321L291.447 41.7639ZM291.447 41.4035H292.953V41.3399C292.957 41.2198 292.939 41.0962 292.905 40.9796C292.887 40.9407 292.867 40.9019 292.836 40.8701C292.804 40.8383 292.77 40.8136 292.732 40.7994C292.621 40.7606 292.503 40.7429 292.385 40.75H292.008C291.89 40.7464 291.776 40.7641 291.662 40.7994C291.624 40.8171 291.589 40.8418 291.558 40.8701C291.527 40.9019 291.506 40.9372 291.489 40.9796C291.451 41.0962 291.437 41.2163 291.44 41.3399V41.4035H291.447Z" fill="white"/>
<path d="M295.152 42.8415C294.986 42.8486 294.82 42.8027 294.681 42.7108C294.622 42.6649 294.574 42.6048 294.539 42.5377C294.504 42.4706 294.484 42.3964 294.477 42.3187C294.47 42.2975 294.466 42.2727 294.473 42.248C294.48 42.2233 294.491 42.2021 294.508 42.188C294.543 42.1562 294.588 42.1385 294.633 42.1385C294.678 42.1385 294.723 42.1562 294.757 42.188C294.792 42.2233 294.813 42.2692 294.82 42.3187C294.83 42.3787 294.865 42.4317 294.913 42.467C294.989 42.4988 295.069 42.5094 295.148 42.4988H295.934C296.028 42.5094 296.121 42.4882 296.201 42.4353C296.263 42.3505 296.291 42.2445 296.281 42.142C296.288 42.0926 296.281 42.0431 296.27 41.9937C296.256 41.9477 296.236 41.9018 296.205 41.8629C296.128 41.8029 296.031 41.7746 295.938 41.7817H295.169C294.73 41.7817 294.511 41.5521 294.511 41.0963C294.494 41.001 294.501 40.9056 294.529 40.8137C294.556 40.7219 294.605 40.6406 294.667 40.5735C294.733 40.5064 294.813 40.4569 294.899 40.4287C294.986 40.4004 295.079 40.3933 295.169 40.411H295.907C296.267 40.411 296.488 40.5735 296.551 40.902C296.558 40.9232 296.561 40.948 296.554 40.9727C296.547 40.9974 296.537 41.0186 296.52 41.0328C296.485 41.0646 296.44 41.0822 296.395 41.0822C296.35 41.0822 296.308 41.0716 296.27 41.0504C296.236 41.0151 296.215 40.9692 296.208 40.9197C296.205 40.895 296.194 40.8703 296.177 40.8491C296.16 40.8279 296.139 40.8137 296.115 40.8067C296.049 40.7855 295.979 40.7713 295.91 40.7749H295.173C295.048 40.7749 294.955 40.7925 294.923 40.8385C294.861 40.8808 294.816 40.9444 294.795 41.0186C294.775 41.0928 294.781 41.1705 294.809 41.2412C294.84 41.3118 294.892 41.3684 294.958 41.4037C295.024 41.439 295.1 41.4461 295.173 41.4284H295.941C296.038 41.4178 296.135 41.432 296.225 41.4638C296.315 41.4955 296.402 41.5485 296.471 41.6157C296.544 41.6828 296.599 41.764 296.641 41.8594C296.679 41.9513 296.7 42.0502 296.7 42.1526C296.7 42.2516 296.679 42.354 296.641 42.4459C296.603 42.5377 296.544 42.619 296.471 42.6896C296.398 42.7567 296.315 42.8097 296.225 42.8415C296.132 42.8733 296.035 42.8839 295.941 42.8768L295.152 42.8415Z" fill="white"/>
<path d="M304.428 21.6201L308.635 27.6117L312.842 21.6201H314.774L309.58 28.9188L314.618 36.002H312.686L308.635 30.2082L304.584 36.002H302.638L307.676 28.9188L302.482 21.6201H304.428Z" fill="white"/>
<path d="M321.699 24.266C321.717 24.8101 321.575 25.3435 321.298 25.8028C321.021 26.262 320.616 26.6259 320.138 26.8449C319.66 27.064 319.13 27.1311 318.618 27.0357C318.105 26.9403 317.627 26.6859 317.253 26.3079C316.88 25.9299 316.62 25.4459 316.512 24.9125C316.405 24.3826 316.45 23.8279 316.648 23.3263C316.845 22.8246 317.181 22.3936 317.614 22.0898C318.046 21.786 318.555 21.6235 319.078 21.6235C319.418 21.6129 319.757 21.673 320.076 21.8001C320.394 21.9273 320.681 22.1216 320.927 22.3689C321.173 22.6162 321.367 22.9094 321.499 23.238C321.63 23.5595 321.699 23.9092 321.699 24.266ZM317.122 24.266C317.122 24.8136 317.33 25.3364 317.704 25.7215C318.074 26.1066 318.58 26.3256 319.103 26.3256C319.629 26.3256 320.131 26.1101 320.501 25.7215C320.872 25.3364 321.083 24.8101 321.083 24.266C321.094 23.9905 321.049 23.7184 320.955 23.4605C320.862 23.2026 320.72 22.9695 320.54 22.7681C320.359 22.5668 320.138 22.4078 319.895 22.2983C319.653 22.1887 319.393 22.1287 319.127 22.1252C318.86 22.1287 318.597 22.1852 318.351 22.2947C318.105 22.4042 317.884 22.5632 317.697 22.7611C317.51 22.9589 317.364 23.1956 317.264 23.4535C317.167 23.7114 317.118 23.9869 317.122 24.266ZM318.701 25.6826H318.112V23.0119C318.438 22.9483 318.77 22.92 319.103 22.9271C319.411 22.9024 319.715 22.9695 319.985 23.1214C320.065 23.1956 320.124 23.2839 320.166 23.3864C320.207 23.4888 320.228 23.5948 320.224 23.7043C320.214 23.8527 320.155 23.994 320.058 24.107C319.961 24.2166 319.83 24.2907 319.688 24.3155V24.3437C319.816 24.3897 319.93 24.478 320.01 24.591C320.089 24.7041 320.138 24.8418 320.141 24.9832C320.172 25.2128 320.235 25.4389 320.328 25.6508H319.691C319.584 25.453 319.515 25.234 319.476 25.0114C319.47 24.9478 319.449 24.8842 319.418 24.8277C319.386 24.7712 319.345 24.7217 319.293 24.6829C319.244 24.644 319.186 24.6158 319.127 24.6016C319.068 24.5875 319.002 24.584 318.943 24.591H318.677L318.701 25.6826ZM318.701 24.153H318.967C319.289 24.153 319.556 24.0399 319.556 23.7644C319.556 23.4888 319.397 23.3475 319.019 23.3475C318.86 23.3475 318.753 23.3758 318.697 23.3758V24.153H318.701Z" fill="white"/>
<defs>
<linearGradient id="paint0_linear" x1="107.233" y1="229.413" x2="376.509" y2="-181.359" gradientUnits="userSpaceOnUse">
<stop stop-color="#0C469C"/>
<stop offset="1" stop-color="#B6BDFF"/>
</linearGradient>
<linearGradient id="paint1_linear" x1="56.2606" y1="46.6704" x2="56.2606" y2="138.448" gradientUnits="userSpaceOnUse">
<stop stop-color="#FFCA3F"/>
<stop offset="0.0969" stop-color="#CA7C22"/>
<stop offset="0.1888" stop-color="#FDDB7A"/>
<stop offset="0.4201" stop-color="#FFAD45"/>
<stop offset="0.5538" stop-color="#A95F0D"/>
<stop offset="0.6562" stop-color="#FFAD45"/>
<stop offset="0.7903" stop-color="#FFFF9B"/>
<stop offset="0.868" stop-color="#FFED7C"/>
<stop offset="1" stop-color="#FFCA3F"/>
</linearGradient>
<linearGradient id="paint2_linear" x1="56.2606" y1="24.4254" x2="56.2606" y2="139.338" gradientUnits="userSpaceOnUse">
<stop stop-color="#FFCA3F"/>
<stop offset="0.0969" stop-color="#CA7C22"/>
<stop offset="0.1888" stop-color="#FDDB7A"/>
<stop offset="0.4201" stop-color="#FFAD45"/>
<stop offset="0.5538" stop-color="#A95F0D"/>
<stop offset="0.6562" stop-color="#FFAD45"/>
<stop offset="0.7903" stop-color="#FFFF9B"/>
<stop offset="0.868" stop-color="#FFED7C"/>
<stop offset="1" stop-color="#FFCA3F"/>
</linearGradient>
<linearGradient id="paint3_linear" x1="346.222" y1="103.104" x2="-175.348" y2="120.584" gradientUnits="userSpaceOnUse">
<stop stop-color="#0C469C"/>
<stop offset="0.8871" stop-color="white"/>
</linearGradient>
</defs>
</svg>
