<svg width="10" height="10" viewBox="0 0 10 10" fill="none" xmlns="http://www.w3.org/2000/svg">
<path d="M3.40637 9.52892L3.40634 9.52892C3.13841 9.51756 2.89786 9.36162 2.77797 9.12185L0.827981 5.22187C0.827978 5.22186 0.827975 5.22186 0.827972 5.22185C0.645808 4.85757 0.793475 4.41456 1.15779 4.23241L1.15784 4.23238C1.52215 4.05033 1.96509 4.19793 2.14727 4.5622L2.14728 4.56222L3.5078 7.28331L7.49384 1.10018C7.70695 0.755017 8.15922 0.646317 8.50601 0.858319L3.40637 9.52892ZM3.40637 9.52892C3.41682 9.52936 3.42726 9.52958 3.4377 9.52958C3.69287 9.52958 3.93077 9.39749 4.06537 9.17913L8.74784 1.87674L8.74789 1.87677M3.40637 9.52892L8.74789 1.87677M8.74789 1.87677L8.7507 1.87217M8.74789 1.87677L8.7507 1.87217M8.7507 1.87217C8.96312 1.52463 8.85351 1.07073 8.50604 0.858334L8.7507 1.87217Z" fill="#EDCEFF" stroke="#EDCEFF" stroke-width="0.5"/>
</svg>
