<svg width="14" height="14" viewBox="0 0 14 14" fill="none" xmlns="http://www.w3.org/2000/svg">
<path d="M12.177 8.37016C11.929 8.51938 11.6398 8.54651 11.4194 8.42442C11.1439 8.26163 10.9786 7.89535 10.9786 7.39341V5.86047C10.9786 5.12791 10.6893 4.59884 10.1934 4.46318C9.35313 4.21899 8.71948 5.23643 8.48531 5.61628L6.99763 7.96318V5.07364C6.98385 4.40891 6.76345 4.01551 6.35021 3.89341C6.07471 3.81202 5.66147 3.85272 5.262 4.44961L1.94225 9.68604C1.50146 8.85853 1.26729 7.93605 1.26729 7C1.26729 3.83915 3.84318 1.27519 6.99763 1.27519C10.1521 1.27519 12.728 3.83915 12.728 7V7.01357V7.02713C12.7555 7.6376 12.5627 8.12597 12.177 8.37016ZM13.9953 7V6.98643V6.97287C13.9815 3.13372 10.8408 0 6.99763 0C3.14067 0 0 3.13372 0 7C0 10.8527 3.14067 14 6.99763 14C8.77458 14 10.4551 13.3353 11.75 12.1279C12.0117 11.8837 12.0254 11.4903 11.7775 11.2326C11.5433 10.9748 11.1439 10.9612 10.8821 11.1919C10.8821 11.1919 10.8821 11.1919 10.8684 11.2054C9.82147 12.1822 8.41644 12.7384 6.97008 12.7384C5.27577 12.7384 3.76054 12.0058 2.71365 10.8391L5.70279 6.11822V8.30233C5.70279 9.3469 6.11604 9.68605 6.46041 9.78101C6.80478 9.87597 7.32822 9.80814 7.89299 8.92636L9.5322 6.30814C9.5873 6.22674 9.62863 6.14535 9.68372 6.09108V7.42054C9.68372 8.39729 10.0832 9.18411 10.7719 9.56395C11.3918 9.91667 12.177 9.87597 12.8244 9.48256C13.6233 8.96705 14.0504 8.07171 13.9953 7Z" fill="#2B6AFF"/>
</svg>
