<svg width="17" height="16" viewBox="0 0 17 16" fill="none" xmlns="http://www.w3.org/2000/svg">
<g clip-path="url(#coinbaseIconSvg)">
<path d="M16.5 8C16.5 3.58172 12.9183 0 8.5 0C4.08172 0 0.5 3.58172 0.5 8C0.5 12.4183 4.08172 16 8.5 16C12.9183 16 16.5 12.4183 16.5 8Z" fill="#0052FF"/>
<path d="M8.50197 10.8125C6.94806 10.8125 5.68945 9.55391 5.68945 8C5.68945 6.44609 6.94806 5.1875 8.50197 5.1875C9.89416 5.1875 11.0496 6.20234 11.2723 7.53125H14.1059C13.8668 4.64375 11.4504 2.375 8.50197 2.375C5.39648 2.375 2.87695 4.89453 2.87695 8C2.87695 11.1055 5.39648 13.625 8.50197 13.625C11.4504 13.625 13.8668 11.3562 14.1059 8.46875H11.2699C11.0473 9.79766 9.89416 10.8125 8.50197 10.8125Z" fill="white"/>
</g>
<defs>
<clipPath id="coinbaseIconSvg">
<rect width="16" height="16" fill="white" transform="translate(0.5)"/>
</clipPath>
</defs>
</svg>
