<svg width="50" height="50" viewBox="0 0 50 50" fill="none" xmlns="http://www.w3.org/2000/svg">
<circle cx="25" cy="25" r="24" fill="#6666FF" fill-opacity="0.1" stroke="#6666FF" stroke-opacity="0.5" stroke-width="1.5" stroke-linecap="round" stroke-linejoin="round"/>
<path d="M29.0615 23.4036L27.0001 29.9999H23.0001L20.9387 23.4036C20.3509 21.5227 20.7242 19.473 21.9374 17.9201L24.5273 14.6051C24.7675 14.2976 25.2327 14.2976 25.4729 14.6051L28.0627 17.9201C29.2759 19.473 29.6492 21.5227 29.0615 23.4036Z" stroke="#6666FF" stroke-width="1.5" stroke-linecap="round" stroke-linejoin="round"/>
<path d="M23 33C23 35 25 36 25 36C25 36 27 35 27 33" stroke="#6666FF" stroke-width="1.5" stroke-linecap="round" stroke-linejoin="round"/>
<path d="M21.5 25.5C18 28 20 32 20 32L23 30" stroke="#6666FF" stroke-width="1.5" stroke-linecap="round" stroke-linejoin="round"/>
<path d="M28.9312 25.5C32.4312 28 30.4312 32 30.4312 32L27.4312 30" stroke="#6666FF" stroke-width="1.5" stroke-linecap="round" stroke-linejoin="round"/>
<path d="M25 24C23.8954 24 23 23.1046 23 22C23 20.8954 23.8954 20 25 20C26.1046 20 27 20.8954 27 22C27 23.1046 26.1046 24 25 24Z" stroke="#6666FF" stroke-width="1.5" stroke-linecap="round" stroke-linejoin="round"/>
</svg>
