<svg width="16" height="16" viewBox="0 0 16 16" fill="none" xmlns="http://www.w3.org/2000/svg">
<g clip-path="url(#clip0_4906_6942)">
<path d="M10.7076 6.93591L9.33337 11.3334H6.66671L5.29247 6.93591C4.90061 5.68193 5.14949 4.31549 5.95829 3.28021L7.68484 1.07024C7.84497 0.865257 8.15511 0.865257 8.31524 1.07024L10.0418 3.28021C10.8506 4.31549 11.0994 5.68193 10.7076 6.93591Z" stroke="#6666FF" stroke-width="1.5" stroke-linecap="round" stroke-linejoin="round"/>
<path d="M6.66675 13.3335C6.66675 14.6668 8.00008 15.3335 8.00008 15.3335C8.00008 15.3335 9.33341 14.6668 9.33341 13.3335" stroke="#6666FF" stroke-width="1.5" stroke-linecap="round" stroke-linejoin="round"/>
<path d="M5.66661 8.3335C3.33328 10.0002 4.66661 12.6668 4.66661 12.6668L6.66661 11.3335" stroke="#6666FF" stroke-width="1.5" stroke-linecap="round" stroke-linejoin="round"/>
<path d="M10.6208 8.3335C12.9542 10.0002 11.6208 12.6668 11.6208 12.6668L9.62085 11.3335" stroke="#6666FF" stroke-width="1.5" stroke-linecap="round" stroke-linejoin="round"/>
</g>
<defs>
<clipPath id="clip0_4906_6942">
<rect width="16" height="16" fill="white"/>
</clipPath>
</defs>
</svg>
