<svg width="12" height="12" viewBox="0 0 12 12" fill="none" xmlns="http://www.w3.org/2000/svg">
<path d="M10.625 11H4.5C4.40054 11 4.30516 10.9605 4.23483 10.8902C4.16451 10.8198 4.125 10.7245 4.125 10.625V4.5C4.125 4.40054 4.16451 4.30516 4.23483 4.23483C4.30516 4.16451 4.40054 4.125 4.5 4.125H10.625C10.7245 4.125 10.8198 4.16451 10.8902 4.23483C10.9605 4.30516 11 4.40054 11 4.5V10.625C11 10.7245 10.9605 10.8198 10.8902 10.8902C10.8198 10.9605 10.7245 11 10.625 11Z" stroke="#B8B8CC" stroke-linecap="round" stroke-linejoin="round"/>
<path d="M7.875 4.125V1.375C7.875 1.27554 7.83549 1.18016 7.76517 1.10983C7.69484 1.03951 7.59946 1 7.5 1H1.375C1.27554 1 1.18016 1.03951 1.10983 1.10983C1.03951 1.18016 1 1.27554 1 1.375V7.5C1 7.59946 1.03951 7.69484 1.10983 7.76517C1.18016 7.83549 1.27554 7.875 1.375 7.875H4.125" stroke="#B8B8CC" stroke-linecap="round" stroke-linejoin="round"/>
</svg>
