<svg width="9" height="9" viewBox="0 0 9 9" fill="none" xmlns="http://www.w3.org/2000/svg">
<path d="M8.14286 9C8.61857 9 9 8.61857 9 8.14286V3.42857C9 2.95286 8.61857 2.57143 8.14286 2.57143C6.57 2.57143 5.00143 2.57143 3.42857 2.57143C2.95286 2.57143 2.57143 2.95286 2.57143 3.42857C2.57143 5.00143 2.57143 6.57 2.57143 8.14286C2.57143 8.61857 2.95286 9 3.42857 9H8.14286ZM8.14286 8.14286H3.42857V3.42857H8.14286V8.14286ZM1.71429 6.42857V5.57143H0.857143V0.857143H5.57143V1.71429H6.42857V0.857143C6.42857 0.381429 6.04714 0 5.57143 0H0.857143C0.381429 0 0 0.381429 0 0.857143V5.57143C0 6.04714 0.381429 6.42857 0.857143 6.42857H1.71429Z" fill="url(#paint0_linear)"/>
<path d="M8.14286 9C8.61857 9 9 8.61857 9 8.14286V3.42857C9 2.95286 8.61857 2.57143 8.14286 2.57143C6.57 2.57143 5.00143 2.57143 3.42857 2.57143C2.95286 2.57143 2.57143 2.95286 2.57143 3.42857C2.57143 5.00143 2.57143 6.57 2.57143 8.14286C2.57143 8.61857 2.95286 9 3.42857 9H8.14286ZM8.14286 8.14286H3.42857V3.42857H8.14286V8.14286ZM1.71429 6.42857V5.57143H0.857143V0.857143H5.57143V1.71429H6.42857V0.857143C6.42857 0.381429 6.04714 0 5.57143 0H0.857143C0.381429 0 0 0.381429 0 0.857143V5.57143C0 6.04714 0.381429 6.42857 0.857143 6.42857H1.71429Z" fill="#ED0376"/>
<defs>
<linearGradient id="paint0_linear" x1="4.5" y1="-7.21604e-07" x2="11.1974" y2="3.31922" gradientUnits="userSpaceOnUse">
<stop stop-color="#7B42A9"/>
<stop offset="1" stop-color="#ED0376"/>
</linearGradient>
</defs>
</svg>
