<svg width="104" height="106" viewBox="0 0 104 106" fill="none" xmlns="http://www.w3.org/2000/svg">
<path fill-rule="evenodd" clip-rule="evenodd" d="M97.2577 13.4878C95.4693 13.4885 93.7533 12.7784 92.4883 11.5144C91.2228 10.2496 90.512 8.53437 90.512 6.74575C90.5112 4.95649 91.2214 3.24126 92.4862 1.97634C93.7509 0.710836 95.4662 0 97.2548 0C99.044 0 100.759 0.710166 102.024 1.97496C103.289 3.2397 104 4.95574 104 6.74437C103.998 8.53209 103.287 10.2459 102.024 11.5098C100.76 12.7746 99.0458 13.4856 97.2581 13.4878H97.2577ZM97.2577 2.15913C96.0408 2.15836 94.8738 2.64129 94.0127 3.50165C93.1524 4.36201 92.6687 5.52887 92.6687 6.74587C92.6687 7.96287 93.1516 9.12978 94.012 9.99008C94.8723 10.8504 96.0392 11.3334 97.2562 11.3334C98.4732 11.3334 99.6401 10.8497 100.5 9.98931C101.361 9.12818 101.844 7.96131 101.843 6.74431C101.841 5.52887 101.358 4.36355 100.498 3.50384C99.6385 2.64425 98.473 2.16055 97.2576 2.15901L97.2577 2.15913ZM41.4779 71.1734H46.2217V83.6808C46.2217 84.2762 46.7047 84.7591 47.3 84.7591C47.5858 84.7591 47.86 84.6459 48.0626 84.4433C48.2652 84.2407 48.3784 83.9665 48.3784 83.6808V77.4038C49.0863 77.839 49.9066 78.0747 50.7508 78.0747C51.9516 78.0747 53.1038 77.5979 53.9534 76.7483C54.803 75.8989 55.2797 74.7465 55.2797 73.5457V71.1733H59.8096V85.9336C57.6732 86.7 56.2377 87.7977 55.2798 88.8753V82.388C55.2798 81.7926 54.7969 81.3097 54.2015 81.3097C53.606 81.3097 53.1231 81.7926 53.1231 82.388V93.9999C53.1193 94.0692 53.1164 94.1386 53.1144 94.2081C53.1144 94.2915 53.1239 94.3726 53.1418 94.4505C53.236 94.95 53.6747 95.328 54.2015 95.328C54.4872 95.328 54.7614 95.2147 54.964 95.0122C55.1666 94.8096 55.2798 94.5354 55.2798 94.2496V93.9822C55.3507 92.9571 55.9776 89.2822 61.2475 87.7383C61.8236 87.5703 62.409 87.4363 63.0005 87.337C66.3195 86.7724 69.2918 87.5635 71.8429 89.6901C71.8518 89.6975 71.8607 89.7047 71.8698 89.7118C72.9588 90.7442 73.8818 91.9398 74.6057 93.2545C74.7944 93.6011 75.1572 93.8176 75.5523 93.8176L75.5525 93.8176C75.933 93.8176 76.285 93.6173 76.479 93.29C76.6731 92.9626 76.6809 92.5582 76.4991 92.224C75.7665 90.8875 74.8537 89.6593 73.7865 88.5744C74.2282 87.4833 74.8453 86.4698 75.6148 85.5748C77.5903 83.2826 80.2154 82.2821 83.4241 82.6033C90.957 83.352 91.0802 91.3248 91.0802 91.6614C91.0802 91.981 91.2219 92.2837 91.4669 92.4886C91.7126 92.6935 92.0361 92.779 92.3503 92.7228L92.3511 92.722C92.5843 92.68 97.7097 91.8 99.7587 95.699C99.7696 95.7219 99.7812 95.7443 99.7935 95.7663C99.9425 96.0587 100.074 96.3775 100.186 96.725C100.252 96.9391 101.736 101.884 97.7765 103.523H6.75401C5.20339 103.523 3.75155 101.992 3.06141 100.571C1.67961 97.7286 1.87987 94.3335 3.6052 91.8903C5.33053 89.4471 8.0741 88.123 11.1535 88.2586C14.2098 88.3495 17.005 90.0025 18.557 92.6366C18.7326 92.9393 19.0438 93.138 19.3927 93.1696C19.7409 93.2012 20.0836 93.0618 20.3108 92.7961C22.8972 89.7799 27.0146 90.8084 28.7633 91.4373C28.5418 92.5333 28.4094 93.9947 28.7922 95.3963C28.9208 95.8646 29.346 96.1897 29.832 96.1897C29.9283 96.1897 30.0238 96.1766 30.117 96.1512C30.6908 95.9933 31.0282 95.4009 30.8718 94.8263C30.5292 93.5686 30.7766 92.1681 31.0056 91.3055C31.043 91.235 31.0728 91.16 31.0941 91.0815V91.0807C32.5811 85.5789 37.2737 84.8688 39.3206 84.8298V94.7426C37.7538 95.348 36.1823 96.3235 34.8412 97.8657C34.4583 98.3132 34.5053 98.9848 34.9475 99.3753C35.1431 99.5456 35.3942 99.6403 35.6545 99.6403L35.6544 99.6402C35.9648 99.6425 36.2605 99.5116 36.4677 99.2797C37.6589 97.9099 39.1077 97.0905 40.5408 96.6121C40.596 96.6048 40.6503 96.5933 40.7032 96.5777C40.7699 96.5582 40.8344 96.5322 40.8961 96.5003C43.9354 95.5996 46.8017 96.1637 46.8629 96.1765C47.4375 96.2828 47.9921 95.9115 48.1138 95.3392C48.2347 94.7677 47.8781 94.2031 47.3089 94.0676C47.1249 94.0287 44.5341 93.5042 41.4779 94.1187V83.9213L41.4785 83.9168C41.4885 83.8302 41.488 83.7448 41.4779 83.6618V71.1734ZM102.01 95.4725C102.089 95.6678 102.162 95.8702 102.23 96.0799C103.009 98.59 103.194 103.796 98.3481 105.615C98.2302 105.657 98.1062 105.678 97.9814 105.679L97.9815 105.68H6.75392C5.09097 105.68 2.61766 104.589 1.12046 101.513C-0.604866 97.9738 -0.316037 93.7105 1.83832 90.6479H1.83909C2.20904 90.1274 2.62037 89.6458 3.06675 89.206C3.02031 89.0618 3.00435 88.9081 3.02139 88.7546L5.17816 69.5496C5.18893 69.4537 5.21203 69.362 5.24577 69.2759V55.4291C5.24577 54.8337 5.72871 54.3508 6.32412 54.3508C6.91952 54.3508 7.40246 54.8337 7.40246 55.4291V68.5914H9.55806V62.5461C9.55806 61.9507 10.041 61.4678 10.6364 61.4678C11.2318 61.4678 11.7147 61.9507 11.7147 62.5461V69.5246L11.7152 69.528L13.9717 86.5403C16.2079 87.1919 18.2072 88.5372 19.6593 90.4168C21.4062 88.978 23.6899 88.3787 26.3449 88.6784V88.6791C27.3778 88.8001 28.3946 89.0327 29.3773 89.3731C31.5401 83.5774 36.9056 82.7544 39.3206 82.6885V71.8245L30.1192 76.4252C29.674 79.7587 27.6057 83.3017 23.9626 86.9685C23.7677 87.1857 23.4966 87.3205 23.2055 87.3436L23.0963 87.3481C22.782 87.3465 22.4824 87.2187 22.2636 86.9945C17.9781 82.6812 15.8714 78.5558 16.0093 74.7402C16.0626 73.1537 16.5023 71.8882 16.9917 70.9564H15.3816C15.0373 70.9564 14.7145 70.7916 14.5112 70.5143C14.3086 70.2363 14.2501 69.8781 14.3548 69.55L16.6948 62.2172C16.7042 62.1913 16.7145 62.166 16.7256 62.1412V27.3916C16.7256 19.8709 22.102 17.2553 22.3331 17.152C22.6604 16.9979 23.0425 17.018 23.3513 17.2059C29.3576 20.8484 29.0711 26.8723 29.0126 27.595V41.1945H30.664C30.5593 40.1755 30.4817 39.1651 30.4299 38.1592C30.0417 30.7188 31.3295 23.1379 34.0616 16.8084C37.4176 9.04445 42.9209 3.27534 49.9754 0.143517H49.9762C50.244 0.0245717 50.5342 0.0233634 50.7887 0.117626C50.8648 0.133064 50.9404 0.15701 51.0143 0.189935C58.0667 3.33023 63.5639 9.09461 66.9112 16.8586C69.6333 23.1777 70.9142 30.7537 70.5151 38.1936C70.4622 39.1826 70.3848 40.1823 70.2825 41.1945H71.9858V27.5829C71.9273 26.8604 71.6407 20.8372 77.6471 17.1939V17.1946C77.9559 17.0067 78.338 16.9867 78.6646 17.1407C78.8933 17.2485 84.272 19.8604 84.272 27.3803V62.1153C84.2846 62.1501 84.2954 62.1857 84.3044 62.222L86.6467 69.5547C86.7514 69.8829 86.6937 70.2403 86.4903 70.5183C86.2878 70.7964 85.9643 70.9604 85.62 70.9612L85.6223 70.9565H83.9939C84.2505 71.4409 84.4566 71.9528 84.6074 72.4843C85.4788 75.3858 84.687 78.2364 83.6045 80.4451L83.6313 80.4478C83.9053 80.4753 84.1714 80.5105 84.4297 80.553C84.9815 79.5448 86.1577 77.9671 88.3371 77.2854C87.526 74.5633 87.3966 70.3647 91.2007 68.2898C93.9419 66.7955 97.2094 66.767 99.7257 68.2205C101.826 69.4328 103.127 72.0893 103.038 74.9901C102.976 77.0758 102.187 78.8722 100.871 80.015L100.872 80.0158C101.9 81.5216 102.167 83.4217 101.592 85.1525C102.427 86.0884 103.964 88.1503 103.984 90.6929C104.001 92.4118 103.336 94.0189 102.01 95.4725ZM100.859 93.4903C101.518 92.6035 101.847 91.6704 101.838 90.7062C101.816 88.256 99.651 86.2227 99.6295 86.2034C99.2876 85.8922 99.1821 85.3977 99.3669 84.9741C100.527 82.3189 98.6399 80.6732 98.5869 80.6269L98.5859 80.6261C98.3071 80.3919 98.1653 80.033 98.2092 79.6718C98.2524 79.3105 98.475 78.9955 98.8016 78.8337C100.063 78.2021 100.85 76.7395 100.904 74.9193C100.967 72.8335 100.068 70.8909 98.6698 70.0823C96.7981 69.0039 94.3396 69.0386 92.2514 70.177C88.4411 72.2498 90.6755 77.4258 90.7726 77.6413C90.912 77.9548 90.8935 78.3168 90.7233 78.6149C90.553 78.9129 90.2511 79.1116 89.9099 79.1509C89.0603 79.2495 88.2539 79.5784 87.5776 80.1014C87.1985 80.3951 86.8685 80.7434 86.5973 81.1335C89.5979 82.2874 91.2093 84.5578 92.0576 86.4864L92.0568 86.4872C92.6083 87.7558 92.9719 89.0983 93.1352 90.4724C95.4778 90.3419 98.793 90.9197 100.859 93.4903ZM11.2484 86.1035C9.15124 85.9924 7.10464 86.4926 5.33304 87.4956L5.85872 82.8188H11.3006L11.7417 86.1316C11.5779 86.1186 11.4134 86.1092 11.2484 86.1035ZM6.56174 76.5643L6.10113 80.6621H11.0135L10.4678 76.5643H6.56174ZM10.1807 74.4076H6.80415L7.21618 70.742H9.69257L10.1807 74.4076ZM28.4639 74.8416C28.5653 74.7664 28.6787 74.71 28.7983 74.6744L38.998 69.5749C36.4598 63.6546 34.5438 58.4595 33.1687 53.6916C31.4062 54.2678 27.6744 56.2763 27.6744 62.9626V75.2363L28.4639 74.8416ZM23.1024 84.7494C25.4429 82.262 26.9622 79.8892 27.6401 77.6647L27.0791 77.9453C26.9304 78.0254 26.7648 78.0693 26.5961 78.0746L26.5963 78.0747C26.0009 78.0747 25.5179 77.5917 25.5179 76.9963V70.9564H19.5612C19.0985 71.5089 18.215 72.8259 18.1612 74.8718C18.0858 77.8094 19.7895 81.2102 23.1024 84.7494ZM25.5179 68.7998H19.2811C19.1673 68.7814 19.0509 68.7813 18.9366 68.7998H16.8565L18.5083 63.6233H25.5179V68.7998ZM81.175 80.4286C84.2466 75.1172 82.2248 71.9214 81.4161 70.9565H75.7687V76.9965C75.7687 77.2823 75.6555 77.5565 75.4529 77.759C75.2504 77.9616 74.9761 78.0749 74.6904 78.0749V78.0747C74.5225 78.0747 74.3569 78.0354 74.2074 77.9607L73.3035 77.5087C73.7545 79.0611 74.619 80.6942 75.8893 82.3905C77.2194 81.4251 78.9576 80.6303 81.175 80.4286ZM82.1263 68.7998C81.9427 68.7506 81.7493 68.751 81.5668 68.7998H75.7687V63.6233H82.4916L84.1427 68.7998H82.1263ZM72.2115 74.5514C72.3102 74.5842 72.4028 74.6308 72.4869 74.6892L73.6121 75.2518V62.9781C73.6121 59.2963 72.5507 56.5774 70.4572 54.8952C69.719 54.2916 68.8643 53.8512 67.9494 53.5998C66.6349 58.5393 64.8143 63.8468 62.4497 69.6702L72.2115 74.5514ZM74.2682 83.8306C72.2908 81.2245 71.143 78.6915 70.8513 76.2826L61.9663 71.8401V85.3334C62.1887 85.2869 62.4121 85.2446 62.6362 85.2064C66.1038 84.6156 69.2619 85.2688 72.0455 87.1474C72.5507 86.0698 73.1985 85.0662 73.9718 84.1619C74.0664 84.0522 74.1651 83.9416 74.2682 83.8306ZM29.0126 43.3511V53.7019C29.2103 53.5197 29.4072 53.3541 29.6001 53.2037C30.4964 52.4934 31.5133 51.9576 32.5982 51.6201C31.8436 48.7402 31.292 46.0075 30.9242 43.3511H29.0126ZM26.8559 31.4735V27.5358C26.8536 27.4988 26.8536 27.4619 26.8559 27.4257C26.9945 24.2114 25.4394 21.1591 22.7583 19.3813C21.6129 20.1338 18.8762 22.4498 18.8762 27.3801V31.4735H26.8559ZM26.8559 33.6301V56.6013C26.223 57.8747 25.7411 59.4716 25.578 61.4667H18.8762V33.6301H26.8559ZM75.7102 61.4666H82.1222V33.6301H74.1425V55.9901C74.9154 57.3517 75.5245 59.1373 75.7102 61.4666ZM74.1425 31.4735V27.5474C74.1448 27.512 74.1448 27.4766 74.1425 27.4411C74.0047 24.2263 75.5588 21.173 78.2401 19.393C79.394 20.15 82.1222 22.4663 82.1222 27.3918V31.4735H74.1425ZM71.9858 53.3718V43.3511H70.0292C69.6789 45.9728 69.1651 48.6835 68.48 51.5129C69.6904 51.8375 70.8209 52.4163 71.7943 53.2146C71.8578 53.2652 71.9217 53.3176 71.9858 53.3718ZM41.0245 68.7998H46.2219V64.1261H39.0899C39.6889 65.6325 40.3332 67.1883 41.0245 68.7998ZM38.2505 61.9694C34.7024 52.6444 32.9673 45.2106 32.5913 38.0407C32.2115 30.9229 33.4385 23.6873 36.0419 17.664C36.3086 17.0462 36.5879 16.4435 36.8798 15.8559L64.1191 15.9601C64.399 16.5275 64.6673 17.109 64.924 17.7043C67.5189 23.7227 68.7374 30.9521 68.3577 38.0691C67.978 45.1952 66.2738 52.9232 63.0681 61.9694H55.2797V56.2924C55.2797 54.6741 54.4164 53.179 53.0153 52.3703C51.6142 51.5607 49.8873 51.5607 48.4863 52.3703C47.0853 53.1791 46.2219 54.6741 46.2219 56.2924V61.9694H38.2505ZM55.2797 64.1261H62.2848C61.7197 65.6459 61.1137 67.2027 60.4661 68.7998H55.2797V64.1261ZM48.3785 73.5456V70.9565H53.1231V73.5456C53.1231 74.8558 52.0609 75.9179 50.7508 75.9179C49.4407 75.9179 48.3785 74.8558 48.3785 73.5456ZM48.3785 56.2923V68.7998H53.1231V56.2923C53.1231 54.9822 52.0609 53.92 50.7508 53.92C49.4406 53.92 48.3785 54.9822 48.3785 56.2923ZM62.957 13.799L38.0449 13.7037C41.0933 8.52791 45.2498 4.70354 50.444 2.29953C55.7086 4.70745 59.8953 8.56611 62.957 13.799ZM50.3979 46.8018C46.9265 46.8041 43.596 45.4269 41.1405 42.9738C38.6842 40.5206 37.3039 37.1916 37.3023 33.7201C37.3008 30.2487 38.6795 26.9189 41.1336 24.4642C43.5875 22.0087 46.9165 20.6292 50.388 20.6285C53.8594 20.6285 57.1884 22.0072 59.6433 24.4618C62.0982 26.9165 63.4767 30.2456 63.4761 33.7171C63.4715 37.1855 62.0928 40.5098 59.6411 42.9623C57.1894 45.4149 53.8659 46.7957 50.3983 46.802L50.3979 46.8018ZM50.3979 22.7872C47.4988 22.7849 44.7167 23.9348 42.6655 25.9837C40.6144 28.0326 39.4605 30.8122 39.4589 33.7114C39.4574 36.6105 40.6081 39.392 42.6578 41.443C44.7067 43.4933 47.4871 44.6464 50.3863 44.6472C53.2854 44.648 56.0661 43.4965 58.1163 41.447C60.1666 39.3973 61.319 36.6169 61.319 33.7169C61.3159 30.8207 60.1651 28.0434 58.1179 25.9945C56.0706 23.9456 53.2939 22.7927 50.3979 22.7872ZM41.5766 48.2126C41.8308 48.4652 44.2378 50.6843 50.7509 50.6843L50.751 50.6845C56.2636 50.6845 59.5117 47.9539 59.6427 47.8376C60.0956 47.4502 60.1487 46.7701 59.7613 46.3172C59.3746 45.8643 58.6937 45.8111 58.2408 46.1986H58.2416C58.2138 46.2224 55.4702 48.5277 50.7472 48.5277C45.189 48.5277 43.151 46.7338 43.0863 46.6753C42.6573 46.2871 41.998 46.3063 41.5928 46.7192C41.1877 47.132 41.18 47.7913 41.5766 48.2126ZM46.2217 87.9951C46.2217 88.5905 46.7047 89.0734 47.3 89.0734C47.5858 89.0734 47.86 88.9602 48.0626 88.7576C48.2652 88.555 48.3784 88.2808 48.3784 87.9951V87.1324C48.3784 86.537 47.8955 86.0541 47.3 86.0541C46.7046 86.0541 46.2217 86.537 46.2217 87.1324V87.9951ZM4.98004 30.0201C5.86184 30.902 7.05888 31.3981 8.30589 31.3981L8.30591 31.398C9.55288 31.3965 10.749 30.9005 11.631 30.0185C12.5129 29.1367 13.0089 27.9413 13.0097 26.6943C13.0097 25.4465 12.5144 24.2503 11.6317 23.3684C10.7499 22.4857 9.55367 21.9905 8.30589 21.9905C7.05892 21.9905 5.86197 22.4857 4.98004 23.3684C4.09811 24.2502 3.60209 25.4465 3.60209 26.6943C3.60209 27.9412 4.09811 29.1382 4.98004 30.0201ZM5.95274 25.7192C6.34718 24.7679 7.27608 24.1471 8.30589 24.1471L8.30579 24.1579C9.70763 24.16 10.8445 25.2924 10.853 26.6942C10.853 27.7241 10.2321 28.653 9.28091 29.0474C8.32892 29.4417 7.23364 29.2237 6.505 28.4951C5.77635 27.7665 5.55838 26.6712 5.95274 25.7192ZM10.1602 4.78974C9.68118 5.26823 9.33316 5.85329 9.1389 6.48928H7.34858C6.75318 6.48928 6.27024 6.97224 6.27024 7.56763C6.27024 8.1638 6.7532 8.64597 7.34858 8.64597H9.07399C9.24917 9.37392 9.622 10.0464 10.1602 10.5841C10.6606 11.085 11.2778 11.4427 11.9478 11.6311V13.4276C11.9478 14.023 12.4308 14.506 13.0262 14.506C13.3127 14.506 13.5869 14.3927 13.7887 14.1902C13.9913 13.9876 14.1045 13.7134 14.1045 13.4276V11.6483C14.7986 11.4649 15.4385 11.1007 15.9546 10.5841C16.4928 10.0465 16.866 9.37395 17.0414 8.64597H18.8865C19.482 8.64597 19.9649 8.16378 19.9649 7.56763C19.9649 6.97222 19.4819 6.48928 18.8865 6.48928H16.9764C16.7819 5.85333 16.4336 5.26829 15.9546 4.78974C15.4386 4.27314 14.7986 3.90856 14.1045 3.72499V1.88943C14.1045 1.29402 13.6223 0.811089 13.0262 0.811089C12.4308 0.811089 11.9478 1.29404 11.9478 1.88943V3.74221C11.2778 3.93084 10.6606 4.28882 10.1602 4.78974ZM13.0578 5.74545C12.2721 5.74545 11.5643 6.21837 11.2639 6.94394C10.9635 7.66951 11.1299 8.50445 11.6852 9.0591C12.2398 9.61444 13.0747 9.78082 13.8004 9.48041C14.5259 9.18003 14.9989 8.47217 14.9989 7.68652C15.0012 7.17046 14.7971 6.67443 14.4327 6.30856C14.0692 5.94269 13.5739 5.73705 13.0578 5.73705L13.0578 5.74545ZM87.8446 59.5261C87.8446 60.1215 88.3275 60.6045 88.9229 60.6045C89.2087 60.6045 89.4829 60.4912 89.6855 60.2887C89.888 60.0861 90.0013 59.8119 90.0013 59.5261V59.3104C90.0013 58.715 89.5183 58.2321 88.9229 58.2321C88.3275 58.2321 87.8446 58.715 87.8446 59.3104V59.5261ZM87.8446 54.9971C87.8446 55.5925 88.3275 56.0754 88.9229 56.0754C89.2087 56.0754 89.4829 55.9622 89.6855 55.7596C89.888 55.557 90.0013 55.2828 90.0013 54.9971V54.7814C90.0013 54.186 89.5183 53.703 88.9229 53.703C88.3275 53.703 87.8446 54.186 87.8446 54.7814V54.9971ZM87.8446 50.468C87.8446 51.0634 88.3275 51.5464 88.9229 51.5464C89.2087 51.5464 89.4829 51.4331 89.6855 51.2306C89.888 51.028 90.0013 50.7538 90.0013 50.468V50.2523C90.0013 49.6569 89.5183 49.174 88.9229 49.174C88.3275 49.174 87.8446 49.657 87.8446 50.2523V50.468ZM87.8446 45.939C87.8446 46.5344 88.3275 47.0173 88.9229 47.0173C89.2087 47.0173 89.4829 46.9041 89.6855 46.7015C89.888 46.4989 90.0013 46.2247 90.0013 45.939V45.7233C90.0013 45.1279 89.5183 44.645 88.9229 44.645C88.3275 44.645 87.8446 45.1279 87.8446 45.7233V45.939ZM87.8446 41.4099C87.8446 42.0053 88.3275 42.4883 88.9229 42.4883C89.2087 42.4883 89.4829 42.375 89.6855 42.1725C89.888 41.9699 90.0013 41.6957 90.0013 41.4099V41.1943C90.0013 40.5989 89.5183 40.1159 88.9229 40.1159C88.3275 40.1159 87.8446 40.5989 87.8446 41.1943V41.4099ZM87.8446 36.8809C87.8446 37.4763 88.3275 37.9592 88.9229 37.9592C89.2087 37.9592 89.4829 37.846 89.6855 37.6434C89.888 37.4409 90.0013 37.1667 90.0013 36.8809V36.6652C90.0013 36.0698 89.5183 35.5869 88.9229 35.5869C88.3275 35.5869 87.8446 36.0698 87.8446 36.6652V36.8809ZM87.8446 32.3519C87.8446 32.9473 88.3275 33.4302 88.9229 33.4302C89.2087 33.4302 89.4829 33.317 89.6855 33.1144C89.888 32.9118 90.0013 32.6376 90.0013 32.3519V32.1362C90.0013 31.5408 89.5183 31.0578 88.9229 31.0578C88.3275 31.0578 87.8446 31.5408 87.8446 32.1362V32.3519ZM87.8446 27.8228C87.8446 28.4182 88.3275 28.9012 88.9229 28.9012C89.2087 28.9012 89.4829 28.7879 89.6855 28.5854C89.888 28.3828 90.0013 28.1086 90.0013 27.8228V27.6071C90.0013 27.0117 89.5183 26.5288 88.9229 26.5288C88.3275 26.5288 87.8446 27.0118 87.8446 27.6071V27.8228ZM98.8451 45.9401C98.2497 45.9401 97.7668 45.4572 97.7668 44.8618V44.6461C97.7668 44.0507 98.2497 43.5678 98.8451 43.5678C99.4405 43.5678 99.9234 44.0507 99.9234 44.6461V44.8618C99.9234 45.1475 99.8102 45.4217 99.6076 45.6243C99.4051 45.8269 99.1308 45.9401 98.8451 45.9401ZM98.8451 41.4111C98.2497 41.4111 97.7668 40.9282 97.7668 40.3328V40.1171C97.7668 39.5217 98.2497 39.0387 98.8451 39.0387C99.4405 39.0387 99.9234 39.5217 99.9234 40.1171V40.3328C99.9234 40.6185 99.8102 40.8927 99.6076 41.0953C99.4051 41.2979 99.1308 41.4111 98.8451 41.4111ZM98.8451 36.882C98.2497 36.882 97.7668 36.3991 97.7668 35.8037V35.588C97.7668 34.9926 98.2497 34.5097 98.8451 34.5097C99.4405 34.5097 99.9234 34.9926 99.9234 35.588V35.8037C99.9234 36.0895 99.8102 36.3637 99.6076 36.5662C99.4051 36.7688 99.1308 36.882 98.8451 36.882ZM7.40088 49.391C7.40088 49.9864 7.88383 50.4694 8.47922 50.4694C8.76497 50.4694 9.03919 50.3561 9.24176 50.1536C9.44434 49.951 9.55756 49.6768 9.55756 49.391V49.1754C9.55756 48.5799 9.07463 48.097 8.47922 48.097C7.88381 48.097 7.40088 48.58 7.40088 49.1754V49.391ZM7.40088 44.862C7.40088 45.4574 7.88383 45.9403 8.47922 45.9403C8.76497 45.9403 9.03919 45.8271 9.24176 45.6245C9.44434 45.4219 9.55756 45.1477 9.55756 44.862V44.6463C9.55756 44.0509 9.07463 43.568 8.47922 43.568C7.88381 43.568 7.40088 44.0509 7.40088 44.6463V44.862ZM7.40088 40.3329C7.40088 40.9284 7.88383 41.4113 8.47922 41.4113C8.76497 41.4113 9.03919 41.298 9.24176 41.0955C9.44434 40.8929 9.55756 40.6187 9.55756 40.3329V40.1173C9.55756 39.5219 9.07463 39.0389 8.47922 39.0389C7.88381 39.0389 7.40088 39.5219 7.40088 40.1173V40.3329ZM7.40088 35.8039C7.40088 36.3993 7.88383 36.8822 8.47922 36.8822C8.76497 36.8822 9.03919 36.769 9.24176 36.5664C9.44434 36.3639 9.55756 36.0897 9.55756 35.8039V35.5882C9.55756 34.9928 9.07463 34.5099 8.47922 34.5099C7.88381 34.5099 7.40088 34.9928 7.40088 35.5882V35.8039ZM78.356 41.194C77.7606 41.194 77.2777 40.7111 77.2777 40.1157V38.606C77.2777 38.0106 77.7606 37.5277 78.356 37.5277C78.9514 37.5277 79.4344 38.0106 79.4344 38.606V40.1157C79.4344 40.4014 79.3211 40.6756 79.1186 40.8782C78.916 41.0808 78.6418 41.194 78.356 41.194ZM21.6353 40.1157C21.6353 40.7111 22.1183 41.194 22.7137 41.194C22.9994 41.194 23.2737 41.0808 23.4762 40.8782C23.6788 40.6756 23.792 40.4014 23.792 40.1157V38.606C23.792 38.0106 23.3091 37.5277 22.7137 37.5277C22.1183 37.5277 21.6353 38.0106 21.6353 38.606V40.1157Z" fill="url(#paint0_linear_5051_75659)"/>
<defs>
<linearGradient id="paint0_linear_5051_75659" x1="52" y1="-8.47323e-06" x2="129.876" y2="37.9819" gradientUnits="userSpaceOnUse">
<stop stop-color="#7B42A9"/>
<stop offset="1" stop-color="#ED0376"/>
</linearGradient>
</defs>
</svg>
