<svg width="174" height="241" viewBox="0 0 174 241" fill="none" xmlns="http://www.w3.org/2000/svg">
<circle cx="86" cy="121" r="40" fill="#D1E9F5"/>
<circle cx="40" cy="201" r="40" fill="#D1E9F5"/>
<circle cx="134" cy="201" r="40" fill="#D1E9F5"/>
<mask id="mask0_1302_22837" style="mask-type:alpha" maskUnits="userSpaceOnUse" x="94" y="161" width="80" height="80">
<circle cx="134" cy="201" r="40" fill="#D1E9F5"/>
</mask>
<g mask="url(#mask0_1302_22837)">
<path d="M149.851 224.1L144.841 222.391L126.099 226.693L124.448 228.049L114.547 319.815C118.79 324.176 132.228 325.06 139.831 323.764L149.851 224.1Z" fill="#4C88FF"/>
<path d="M150.205 224.276L147.789 223.098C147.789 223.098 142.484 246.437 142.484 261.879C142.484 277.32 139.125 333.252 139.125 333.252L164.409 332.604V270.778L150.205 224.276Z" fill="#1F2E4D"/>
<path d="M114.548 334.137L105 331.308L108.359 286.103L107.711 253.333L112.721 235.063L124.626 227.695C124.567 227.695 115.196 328.715 114.548 334.137Z" fill="#1F2E4D"/>
<path d="M134.525 235.357C129.751 234.945 126.097 230.937 126.097 226.163L126.156 217.971C126.156 217.971 118.553 216.792 118.494 209.189C118.435 201.586 119.732 184.199 119.732 184.199C128.514 180.427 138.651 181.724 146.195 187.5L147.315 188.384L144.545 226.811C144.132 231.998 139.653 235.829 134.525 235.357Z" fill="white"/>
<path d="M146.314 196.222C146.432 196.163 151.501 194.689 151.383 199.876C151.206 205.062 146.02 203.825 146.02 203.648C146.02 203.53 146.314 196.222 146.314 196.222Z" fill="white"/>
<path d="M115.963 179.425C115.904 178.482 116.258 177.48 117.024 176.95C117.79 176.36 118.969 176.419 119.559 177.126C119.205 175.889 120.266 174.415 121.562 174.297C122.8 174.239 123.861 175.182 125.04 175.476C126.219 175.771 127.456 175.535 128.576 175.064C129.696 174.592 130.757 174.003 131.877 173.59C134.234 172.706 136.945 172.824 139.244 173.885C141.542 174.946 143.369 176.95 144.253 179.307C145.904 178.777 147.79 179.602 148.792 181.016C149.794 182.431 150.088 184.258 149.853 185.967C149.735 187.146 149.381 188.266 148.969 189.386C148.969 189.503 148.969 189.562 148.969 189.68C148.91 193.865 148.438 198.757 146.611 198.757C143.487 198.816 144.253 192.981 144.253 192.981C140.423 191.507 141.837 185.79 140.894 184.965C139.951 184.081 137.947 182.077 129.991 186.144C126.926 187.735 122.8 187.676 120.56 187.146C120.502 187.146 120.443 187.146 120.384 187.087H120.325H120.266C119.559 186.91 118.851 186.615 118.203 186.203C117.496 185.731 116.847 185.142 116.494 184.317C116.199 183.492 116.317 182.549 116.906 181.959C116.553 181.252 116.081 180.368 115.963 179.425Z" fill="#293E69"/>
<path d="M150.203 224.277C150.203 224.277 168.297 230.053 169.476 233.177C170.36 235.534 179.849 264.06 181.911 282.626C182.737 290.17 177.137 296.948 169.534 297.655C157.275 298.775 139.535 300.248 139.535 299.246V283.805L162.58 280.386L154.034 255.338L150.203 224.277Z" fill="#1F2E4D"/>
</g>
<mask id="mask1_1302_22837" style="mask-type:alpha" maskUnits="userSpaceOnUse" x="46" y="0" width="80" height="161">
<rect x="46" width="80" height="161" rx="40" fill="#C4C4C4"/>
</mask>
<g mask="url(#mask1_1302_22837)">
<path d="M65.2098 128.1L59.2966 101.546L58.9458 97.1699C58.9458 97.1699 57.5927 87.3239 57.5927 86.3791C57.5927 85.2851 57.0415 84.9867 56.6406 85.0364C55.9892 85.0862 55.5381 85.8818 55.5381 86.8266C55.5381 87.1747 55.6384 92.3464 55.6384 92.3464C55.6384 92.3464 55.3878 91.8988 54.586 90.954C53.7842 90.0092 51.9802 89.4622 50.0759 89.5119C48.2218 89.6114 47.6705 89.7605 47.6705 90.5064C47.6705 90.8048 47.8209 91.0037 48.0213 91.2026C48.3721 91.501 48.8231 91.6004 49.2741 91.6004C52.2809 91.501 53.0826 93.0923 53.0826 93.0923L53.1328 93.689C53.1328 93.689 51.2786 92.3961 49.8755 92.9928C49.6249 93.0923 49.4746 93.1917 49.3242 93.3409C48.5224 93.3409 47.7708 93.7885 47.3197 94.4846C46.9188 95.1808 46.8687 96.1256 47.3197 96.8218C47.5202 97.1699 47.871 97.4683 48.2719 97.4186C48.4723 97.3688 48.6227 97.2197 48.8231 97.0705C48.9233 97.0207 48.9734 96.9213 49.0737 96.8716L49.4245 98.4628C49.4245 98.4628 50.4267 101.993 50.6773 103.585L52.2809 129.891C52.4813 133.521 55.6885 136.305 59.3467 136.007C63.3055 135.709 66.1118 131.979 65.2098 128.1Z" fill="white"/>
<path d="M58.393 101.198C57.8418 101.347 57.2905 100.949 56.9899 100.501C56.6892 100.004 56.5389 99.4572 56.2883 98.9599C55.4865 97.4681 53.5822 96.7719 52.8807 95.2303C52.7804 95.0314 52.7303 94.7331 52.9308 94.5839C53.0811 94.4347 53.3317 94.5342 53.5321 94.6336C55.1858 95.5287 56.8395 96.4238 58.4932 97.3189" fill="white"/>
<path d="M112.867 105.574C115.022 105.574 120.284 111.691 121.186 121.039C121.587 125.316 123.742 142.77 124.794 151.174C125.195 154.208 123.842 157.191 121.336 158.982C115.724 163.059 104.448 169.424 89.4648 169.225L80.3945 161.667L109.861 149.334V148.688L111.163 147.296L107.505 124.918C107.455 124.868 104.047 105.574 112.867 105.574Z" fill="#4C88FF"/>
<path d="M105.197 66.1895C105.298 69.2228 109.357 71.0627 109.307 74.0961C109.307 75.389 108.455 76.5825 108.304 77.8754C108.104 79.6159 109.056 81.2569 109.407 82.9476C110.158 86.4783 108.104 90.2078 105.047 92.0975C101.99 94.0368 98.1315 94.3849 94.5234 93.8877" fill="#293E69"/>
<path d="M80.6419 65.4434C80.7421 67.0844 79.6898 68.5265 78.5873 69.7199C77.4848 70.9631 76.2821 72.2063 76.0316 73.7976C75.6307 76.632 78.437 79.3173 77.8356 82.1518C77.5349 83.6436 76.2821 84.8868 76.0316 86.4284C75.8311 87.9202 76.6329 89.3623 77.585 90.506C78.5873 91.6497 79.7399 91.4508 80.5918 92.694C81.4938 93.9869 82.9972 95.2798 84.4003 96.0258C87.5574 97.7662 91.3659 95.2798 92.8693 94.8323" fill="#293E69"/>
<path d="M105.797 67.9291C105.847 66.4373 104.444 65.2936 103.091 64.7963C101.688 64.2493 100.185 64.0504 98.9317 63.2548C97.8293 62.5088 97.1277 61.3651 96.1756 60.47C93.9205 58.1328 90.3625 57.188 87.2556 58.0334C84.1486 58.8787 81.5929 61.4646 80.7911 64.5974C80.2399 66.6859 80.6408 69.1723 82.2945 70.5647C84.2489 72.2057 87.1053 71.8079 89.5608 71.3106C92.0162 70.8133 94.8225 70.3161 96.9272 71.7582C98.1801 72.6532 98.8816 74.0456 99.6333 75.3385C100.385 76.6314 101.337 77.9741 102.79 78.4714C104.244 78.9686 106.198 78.1233 106.248 76.5817" fill="#293E69"/>
<path d="M86.0718 102.242C86.0718 98.8604 86.0217 95.5784 86.0217 95.5784C86.0217 95.5784 80.6096 94.6833 79.5071 87.6717C78.9559 84.1908 79.1563 78.4721 79.457 73.7978C79.7577 69.5709 82.564 64.449 86.7734 64.8965L99.9529 68.2283C101.256 68.3775 102.208 69.4715 102.158 70.7147L100.955 102.441C100.805 106.469 97.4473 109.651 93.3882 109.552C89.3291 109.502 86.0718 106.27 86.0718 102.242Z" fill="white"/>
<path d="M102.944 91.6992C100.989 92.097 100.839 91.1025 99.3856 89.7599C97.9323 88.4172 97.1807 86.3784 97.4312 84.439C97.6317 82.6986 98.5838 80.9581 97.9825 79.3171C97.1807 77.1788 94.1238 76.4826 93.322 74.3443C92.871 73.1012 93.2719 71.6093 92.7207 70.4159C92.2195 69.2721 91.0169 68.6257 89.8142 68.1781C88.6115 67.7306 87.3587 67.4819 86.3564 66.6863C85.3542 65.9404 84.7528 64.4486 85.4043 63.4043C90.6661 64.0508 95.8777 65.2939 100.839 67.1339C101.991 67.5814 103.194 68.0787 103.896 69.0732C104.597 70.1672 104.597 71.5596 104.497 72.8525C104.196 79.1679 103.896 85.4336 103.595 91.749" fill="#293E69"/>
<path d="M107.351 77.3769C107.551 75.0895 109.455 73.0009 111.76 72.6031C114.066 72.2053 116.571 73.4485 117.624 75.537C118.626 77.5261 118.275 79.913 117.373 81.9519C116.271 84.3388 114.066 86.5268 111.41 86.4273C108.904 86.3279 106.95 84.1399 106.198 81.8027C105.496 79.4158 105.747 76.9294 106.048 74.443" fill="#293E69"/>
<path d="M113.468 105.673L100.94 102.49H86.0065C86.0065 102.49 78.2892 102.938 73.9795 106.717C73.8793 106.817 72.5263 108.01 71.6243 110.546L64.9593 125.614L61.5517 106.717L49.625 108.408L51.5293 140.93C52.2308 147.842 57.3423 153.511 64.2077 154.953L70.9728 147.394C71.7746 153.56 72.4261 158.881 72.5263 158.782C72.6766 158.633 109.659 156.395 109.659 156.395L105.901 143.863L113.468 105.673Z" fill="#4C88FF"/>
<path d="M66.1126 63.5536C66.1627 58.8792 62.3542 55.0502 57.6437 55.0005C52.9331 54.9508 49.0745 58.73 49.0244 63.4044C48.9742 66.7859 50.9787 69.7198 53.8351 71.1122C53.8351 72.1067 53.8351 73.2505 53.8351 73.2505L61.3018 73.3499C61.3018 73.3499 61.352 72.1565 61.4021 71.0625C64.1582 69.6701 66.0625 66.8356 66.1126 63.5536Z" fill="#FFD43B"/>
<path d="M60.7006 74.6927L54.2863 74.643C54.0357 74.643 53.7852 74.4441 53.7852 74.1457C53.7852 73.8971 53.9856 73.6484 54.2863 73.6484L60.7006 73.6982C60.9512 73.6982 61.2018 73.8971 61.2018 74.1954C61.2018 74.4938 61.0013 74.6927 60.7006 74.6927Z" fill="#D1E9F5"/>
<path d="M60.7006 75.1405L54.2863 75.041C54.0357 75.041 53.7852 75.2399 53.7852 75.5383C53.7852 75.7869 53.9856 76.0356 54.2863 76.0356H54.9878L55.8899 77.8258C55.9901 78.0247 56.1905 78.1738 56.4411 78.1738H58.7463C58.9968 78.1738 59.1973 78.0247 59.2975 77.8258L60.2496 76.0853H60.7508C61.0013 76.0853 61.2519 75.8864 61.2519 75.588C61.2018 75.3394 61.0013 75.1405 60.7006 75.1405Z" fill="#D1E9F5"/>
<g opacity="0.2">
<path opacity="0.2" d="M52.1314 58.033C52.7327 57.5357 53.3341 57.1379 53.8352 56.939C54.3864 56.6904 54.8374 56.5909 55.1381 56.5909C55.4388 56.5412 55.6392 56.5909 55.6392 56.6406C55.6894 56.7898 55.0379 57.0385 54.1359 57.5855C53.284 58.1325 52.1815 59.127 51.4799 60.5194C50.8285 61.9117 50.7282 63.4036 50.8285 64.3981C50.9287 65.4424 51.1793 66.0889 51.0289 66.1386C50.9788 66.1883 50.8285 66.0391 50.628 65.7905C50.4276 65.5419 50.2271 65.0943 50.0768 64.5473C50.0267 63.9506 49.9766 63.2544 49.9766 62.4588C50.0267 61.6631 50.2271 60.8177 50.5779 60.0221" fill="white"/>
</g>
<g opacity="0.2">
<path opacity="0.2" d="M57.7438 56.9896C57.1925 56.9896 56.7415 56.8404 56.6914 56.542C56.6914 56.3929 56.7916 56.2437 56.9921 56.1442C57.1925 56.0448 57.4932 55.9453 57.7939 55.9453C58.0945 55.9453 58.3952 56.0448 58.5957 56.1442C58.7961 56.2437 58.8963 56.4426 58.8462 56.542" fill="white"/>
</g>
<path d="M72.4249 134.416C72.4249 134.416 72.2746 134.266 72.024 133.968C71.8235 133.67 71.5229 133.172 71.3725 132.476C70.9716 131.134 71.0218 129.194 71.6732 127.205C72.3247 125.216 73.2267 123.575 73.7278 122.332C73.9784 121.685 74.1788 121.188 74.2791 120.84C74.3793 120.492 74.4795 120.293 74.4795 120.293C74.4795 120.293 74.4795 120.492 74.3793 120.89C74.279 121.238 74.1287 121.785 73.8782 122.431C73.4271 123.724 72.5752 125.415 71.9238 127.354C71.2723 129.294 71.2222 131.183 71.5229 132.476C71.9238 133.769 72.475 134.416 72.4249 134.416Z" fill="#293E69"/>
<path d="M107.055 121.586C107.055 121.586 107.105 121.685 107.105 121.835C107.155 122.033 107.205 122.282 107.255 122.58C107.405 123.277 107.556 124.172 107.756 125.315C108.157 127.653 108.708 130.835 109.31 134.366C109.911 137.897 110.362 141.129 110.713 143.466C110.863 144.61 111.014 145.555 111.064 146.251C111.114 146.549 111.114 146.798 111.114 146.997C111.114 147.146 111.114 147.245 111.114 147.245C111.114 147.245 111.064 147.146 111.064 146.997C111.014 146.798 111.014 146.549 110.963 146.251C110.863 145.555 110.713 144.61 110.512 143.516C110.112 141.179 109.61 137.946 109.059 134.465C108.508 130.935 107.957 127.752 107.606 125.415C107.405 124.271 107.305 123.326 107.155 122.68C107.105 122.382 107.055 122.133 107.055 121.934C107.055 121.685 107.055 121.586 107.055 121.586Z" fill="#293E69"/>
<path d="M64.6564 134.913C64.6063 134.913 64.6564 134.366 64.7566 133.521C64.8067 132.675 64.9069 131.482 64.9571 130.189C65.0072 128.896 64.9571 127.703 64.9571 126.857C64.9069 126.012 64.9069 125.465 64.9571 125.465C65.0072 125.465 65.0573 125.962 65.1575 126.857C65.2577 127.703 65.3078 128.896 65.2577 130.189C65.2076 131.482 65.1074 132.675 65.0072 133.521C64.8067 134.416 64.7065 134.913 64.6564 134.913Z" fill="#293E69"/>
<path d="M115.573 150.577C115.522 150.577 115.472 150.229 115.222 149.781C114.971 149.284 114.57 148.687 113.919 148.19C113.267 147.693 112.516 147.494 111.965 147.394C111.413 147.295 111.062 147.345 111.062 147.295C111.062 147.245 111.413 147.195 111.965 147.195C112.516 147.245 113.318 147.444 114.019 147.941C114.721 148.438 115.172 149.135 115.372 149.682C115.573 150.179 115.623 150.577 115.573 150.577Z" fill="#293E69"/>
<path d="M112.815 152.018C112.765 152.068 112.364 151.173 111.512 150.377C110.66 149.582 109.758 149.283 109.758 149.234C109.758 149.184 110.76 149.383 111.662 150.179C112.614 151.024 112.865 152.018 112.815 152.018Z" fill="#293E69"/>
<path d="M103.599 152.019C103.549 151.969 105.002 151.372 106.706 150.627C108.46 149.881 109.813 149.234 109.863 149.284C109.913 149.334 108.56 150.129 106.806 150.875C105.102 151.621 103.599 152.118 103.599 152.019Z" fill="#293E69"/>
<path d="M54.8867 131.084C54.8867 131.084 62.1029 165.098 62.1029 164.65C62.1029 164.252 98.4342 166.192 104.899 166.49L106.252 166.142L116.525 156.793L104.748 155.848L100.539 131.929L54.8867 131.084Z" fill="#E0E0E0"/>
<path d="M100.439 131.879C100.489 131.879 101.842 139.537 103.446 148.985C105.049 158.433 106.252 166.091 106.202 166.141C106.152 166.141 104.799 158.483 103.195 149.035C101.642 139.587 100.389 131.929 100.439 131.879Z" fill="#455A64"/>
<path d="M100.588 131.93C100.588 131.93 100.487 132.029 100.337 132.178C100.187 132.328 99.8861 132.526 99.5855 132.875C99.4351 133.024 99.2848 133.272 99.385 133.521C99.4351 133.819 99.4852 134.068 99.5354 134.416C99.6356 135.063 99.7859 135.759 99.9362 136.554C100.487 139.737 101.239 144.113 102.041 148.936C102.843 153.76 103.544 158.136 104.096 161.319C104.346 162.91 104.547 164.153 104.697 165.098C104.747 165.545 104.797 165.844 104.847 166.142C104.897 166.391 104.897 166.49 104.897 166.49C104.897 166.49 104.847 166.391 104.797 166.142C104.747 165.894 104.697 165.545 104.597 165.148C104.446 164.253 104.196 162.96 103.945 161.418C103.394 158.236 102.642 153.86 101.841 149.036C101.039 144.212 100.337 139.836 99.7859 136.654C99.6356 135.858 99.5353 135.162 99.4351 134.516C99.385 134.217 99.3349 133.919 99.2848 133.62C99.1846 133.322 99.385 133.073 99.5354 132.875C99.836 132.526 100.137 132.328 100.337 132.178C100.487 131.979 100.588 131.93 100.588 131.93Z" fill="#455A64"/>
<path d="M104.648 156.793C104.648 156.793 104.899 156.793 105.35 156.793C105.851 156.793 106.503 156.843 107.254 156.892C108.858 156.992 111.113 157.091 113.619 157.241H113.919L113.669 157.439C113.518 157.539 113.368 157.688 113.218 157.837C111.213 159.528 109.359 161.07 108.056 162.164C107.405 162.661 106.903 163.108 106.452 163.456C106.052 163.755 105.851 163.904 105.851 163.904C105.851 163.904 106.052 163.705 106.402 163.407C106.803 163.059 107.304 162.611 107.956 162.064C109.259 160.92 111.063 159.379 113.067 157.688C113.218 157.539 113.368 157.439 113.518 157.29L113.619 157.539C111.113 157.39 108.908 157.241 107.254 157.091C106.503 157.042 105.851 156.992 105.35 156.942C104.899 156.843 104.648 156.793 104.648 156.793Z" fill="#455A64"/>
<path d="M73.076 165.694L72.625 160.174C72.625 160.174 74.4792 159.925 74.6295 161.964V158.533C74.6295 158.533 76.7342 158.086 77.2353 160.821C77.6863 163.605 78.3879 165.097 78.3879 165.097L79.5405 165.694L78.4881 159.279C78.4881 159.279 80.7432 159.478 81.1441 161.566C81.545 163.655 82.1463 165.147 82.1463 165.147L85.7043 166.141C85.7043 166.141 83.6497 164.351 83.8501 163.754C84.0506 163.158 83.9003 163.207 84.3011 163.108C84.702 163.009 85.6041 163.307 86.2054 163.605C86.8569 163.953 90.6153 166.141 90.6153 166.141V168.876C90.6153 168.876 81.8456 169.523 79.8913 169.125L76.0827 168.23C74.6295 167.981 73.527 166.987 73.076 165.694Z" fill="white"/>
<path d="M81.3941 147.493C81.6447 148.935 80.7928 150.328 79.4398 150.527C78.1368 150.725 76.884 149.731 76.6335 148.289C76.3829 146.847 77.2348 145.454 78.5879 145.255C79.8908 145.007 81.1937 146.051 81.3941 147.493Z" fill="#FAFAFA"/>
<g opacity="0.4">
<path opacity="0.4" d="M111.111 147.096C112.615 146.649 114.268 146.599 115.671 147.245C117.075 147.892 118.227 149.185 118.428 150.726C118.478 151.074 118.478 151.472 118.327 151.771C118.227 152.119 117.927 152.417 117.576 152.517C117.025 152.666 116.423 152.318 116.122 151.82C115.822 151.323 115.671 150.776 115.471 150.229C114.769 148.439 112.865 147.146 110.961 147.096C111.061 147.096 111.111 147.146 111.211 147.146" fill="black"/>
</g>
<path d="M84.7535 104.38C85.0542 103.435 84.8036 102.441 84.6032 101.496C84.4528 100.551 84.4027 99.4075 85.0542 98.7114C85.7056 97.9655 86.8081 97.9157 87.8103 97.866C91.8694 97.6671 95.8784 97.5179 99.9375 97.319C100.789 97.2693 101.742 97.319 102.243 97.9655C102.593 98.3633 102.794 98.96 102.694 99.4573C102.092 101.745 102.243 103.684 103.195 105.275" fill="#4C88FF"/>
<path d="M101.191 103.235C101.191 103.235 100.991 103.384 100.64 103.683C100.289 103.932 99.7382 104.329 99.0367 104.677C97.6335 105.423 95.5288 106.269 93.0733 106.468C91.8706 106.567 90.6679 106.567 89.6156 106.418C88.5632 106.269 87.6612 105.97 86.9596 105.573C86.258 105.175 85.7569 104.727 85.5064 104.379C85.356 104.23 85.2558 104.081 85.2057 103.981C85.1556 103.882 85.1055 103.832 85.1055 103.832C85.1556 103.782 85.6066 104.727 87.0598 105.423C87.7614 105.771 88.6634 106.07 89.6657 106.219C90.718 106.368 91.8706 106.368 93.0232 106.269C95.4286 106.07 97.4832 105.274 98.8863 104.578C100.39 103.782 101.141 103.186 101.191 103.235Z" fill="#293E69"/>
</g>
<mask id="mask2_1302_22837" style="mask-type:alpha" maskUnits="userSpaceOnUse" x="0" y="161" width="80" height="80">
<circle cx="40" cy="201" r="40" fill="#D1E9F5"/>
</mask>
<g mask="url(#mask2_1302_22837)">
<path d="M18.7875 199.822C17.2221 205.646 14.78 210.279 12.4006 212.659C10.0211 214.976 7.51643 217.731 7.57905 221.05C7.64166 222.364 8.01737 223.742 7.45381 224.932C6.7024 226.435 4.76127 226.81 3.25845 227.624C1.12946 228.751 -0.0602642 231.381 0.00235306 233.886C0.0649704 236.391 1.37993 238.77 3.13322 240.524C4.94912 242.339 7.89213 243.654 10.1464 242.402C11.5239 241.651 12.2753 240.148 13.0268 238.77C16.5959 231.444 19.852 223.93 22.7324 216.353" fill="#293E69"/>
<path d="M33.4379 174.9C37.508 170.454 44.3959 168.763 50.0315 170.955C55.6671 173.147 59.6119 179.033 59.5493 185.044C59.4867 188.926 57.9839 192.996 59.5493 196.565C60.6138 199.07 63.1811 201.011 63.4942 203.766C63.8699 206.96 61.1774 209.778 61.3026 212.971C61.3652 215.038 62.6802 216.916 64.183 218.356C65.6858 219.796 67.4391 220.986 68.8167 222.552C72.6363 226.872 72.8868 233.76 70.0064 238.769C67.126 243.779 61.5531 246.91 55.7923 247.599C50.0315 248.287 44.1455 246.722 39.0735 243.904C35.7548 242.088 32.6239 239.709 30.6828 236.515C28.679 233.322 28.0528 229.126 29.6183 225.682" fill="#293E69"/>
<path d="M45.7143 223.428C45.7143 223.428 58.6761 227.248 59.991 229.314C61.2434 231.381 65.3135 255.488 65.3135 255.488L57.3611 283.917C57.3611 283.917 63.9359 294.561 64.3116 299.884C49.5965 309.402 32.9403 306.709 15.5327 299.133L14.2804 271.33L12.6523 226.935L23.3599 223.178L45.7143 223.428Z" fill="#4C88FF"/>
<path d="M59.9297 229.314L72.9541 264.693L81.7205 247.286L93.1795 249.602L86.6047 277.091C85.9159 281.976 82.2214 285.858 77.3999 286.86C73.3924 287.674 69.197 286.359 66.4419 283.291L62.3718 278.782L59.9297 229.314Z" fill="#4C88FF"/>
<path d="M20.0381 190.429C20.7895 188.675 20.1007 186.421 18.5352 185.357C16.9698 184.292 14.653 184.417 13.1502 185.67C11.6473 186.86 11.0838 189.051 11.5847 190.867C12.2735 193.059 14.5277 194.624 16.8446 194.499C19.1614 194.311 21.1652 192.433 21.5409 190.178" fill="#293E69"/>
<path d="M26.0487 179.911V182.854L25.4225 227.124C25.3599 232.259 29.6805 236.392 35.1908 236.454C40.7638 236.517 45.3975 232.321 45.5227 227.124C45.7106 221.677 45.961 215.916 45.961 215.916C45.961 215.916 53.0368 214.914 54.7274 205.834C55.6041 201.326 55.5415 193.812 55.3536 187.738C55.1658 182.228 50.4069 177.97 44.9591 178.408L26.0487 179.911Z" fill="white"/>
<path d="M37.5709 176.967C40.013 180.223 37.4457 184.857 34.6279 187.737C31.8101 190.68 28.3662 194.061 29.1176 198.069C29.9942 202.703 36.3812 205.646 35.3793 210.279C35.0662 211.97 33.6887 213.41 33.6887 215.101C33.6887 218.232 37.6962 219.735 38.8859 222.615C40.4513 226.56 36.1307 230.505 36.0681 234.763C36.0055 237.205 37.3831 239.459 37.4457 241.838C37.5709 246.785 31.7475 250.417 26.926 249.227C22.1045 248.038 18.8484 243.341 17.7839 238.457C16.7194 233.636 18.3474 226.81 19.0988 221.926L10.7707 223.867C9.2053 222.364 11.3343 220.799 11.71 218.733C12.5866 213.41 16.0932 208.964 17.7213 203.83C19.1615 199.384 19.1615 194.562 19.7876 189.929C20.4138 185.295 21.854 180.411 25.4232 177.343C28.9924 174.274 35.1289 173.899 38.0093 177.593" fill="#293E69"/>
<path d="M19.5995 194C19.5368 194 19.1611 192.685 19.349 190.994C19.4742 189.303 20.0378 187.988 20.163 188.051C20.2256 188.114 19.8499 189.366 19.7247 190.994C19.5368 192.685 19.7247 194 19.5995 194Z" fill="#4C88FF"/>
</g>
</svg>
