<svg width="297" height="300" viewBox="0 0 297 300" fill="none" xmlns="http://www.w3.org/2000/svg">
<g clip-path="url(#clip0)">
<path d="M270.428 15.637L270.281 18.7917L270.099 22.8633L268.282 62.0311L268.13 65.295L266.167 107.788L266.009 111.205L264.363 146.738C264 154.426 257.711 160.636 249.777 161.111L196.883 164.322L193.662 164.518L152.039 167.043L148.751 167.243L126.232 168.61L122.598 168.834L79.8558 171.422L76.3109 171.641L40.259 173.824C32.4171 174.302 25.4673 169.019 24.0882 161.533L23.6594 159.198L22.9199 155.181L16.0155 117.749L15.3178 114.045L9.3691 81.7233L8.77678 78.5613L0.237125 32.2545C0.145664 31.758 0.0801643 31.257 0.0408947 30.7536C-0.0693374 29.4415 0.00589847 28.1204 0.264378 26.8294C1.53624 20.2799 7.26871 15.0039 14.5946 14.5636L66.6338 11.4035L69.9952 11.1997L126.052 7.79942L130.438 7.53198L164.173 5.48163L167.576 5.27422L254.021 0.0291645C263.211 -0.523905 270.841 6.73331 270.428 15.637Z" fill="#EFEEF5"/>
<path d="M130.437 7.53394C114.833 27.3898 91.3725 49.9129 57.7008 65.9155C42.3312 73.2307 26.0886 78.5433 9.37002 81.7234L8.77588 78.5615C25.2144 75.4052 41.1844 70.1646 56.3 62.9664C88.1401 47.8334 110.708 26.7622 126.045 7.80137L130.437 7.53394Z" fill="white"/>
<path d="M268.281 62.0312L268.128 65.295C266.737 65.2295 265.315 65.1864 263.862 65.1658C237.053 64.802 213.598 72.343 194.106 87.5669C169.488 106.799 154.711 135.877 152.038 167.052L148.75 167.253C151.406 135.007 166.628 104.894 192.106 84.9944C212.197 69.3011 236.348 61.5363 263.911 61.9002C265.388 61.922 266.851 61.9584 268.281 62.0312Z" fill="white"/>
<path d="M270.28 18.7915L270.098 22.8631C267.45 24.5987 264.656 26.2598 261.717 27.8462C248.8 34.8178 234.551 39.2787 221.595 40.3994C219.362 40.5941 217.16 40.6923 215.003 40.6923C202.791 40.6923 191.971 37.5995 183.413 31.5958C173.784 24.848 167.842 15.1947 164.179 5.48328L167.582 5.27588C171.065 14.145 176.587 22.8304 185.276 28.9269C206.948 44.1181 238.176 36.8445 260.169 24.9753C263.649 23.0994 267.024 21.0351 270.28 18.7915Z" fill="white"/>
<path d="M136.484 135.158C134.507 146.03 131.033 157.306 126.231 168.619L122.597 168.842C127.628 157.252 131.258 145.688 133.28 134.57C137.416 111.847 134.272 93.3303 124.879 85.0434C115.036 76.3635 94.7829 75.9232 72.0056 83.8845C53.044 90.5213 33.7734 102.238 16.0092 117.762L15.3169 114.045C32.9885 98.8701 52.0974 87.3885 70.9155 80.8044C95.1772 72.3283 116.157 72.996 127.028 82.5946C137.294 91.6493 140.826 111.298 136.484 135.158Z" fill="white"/>
<path d="M79.8527 171.431L76.3078 171.65C85.6833 145.452 88.0253 124.912 81.3462 120.516C73.9385 115.641 51.0214 128.913 23.6545 159.211L22.915 155.194C33.9421 143.201 44.9201 133.181 54.6353 126.338C63.7709 119.896 76.1407 113.181 83.1341 117.787C92.188 123.753 88.6558 146.478 79.8527 171.431Z" fill="white"/>
<path d="M266.167 107.788L266.008 111.205C250.977 106.293 234.054 108.103 220.436 117.098C204.416 127.677 195.834 145.863 196.883 164.331L193.661 164.527C193.298 157.941 194.081 151.342 195.976 145.024C199.762 132.411 207.812 121.528 218.642 114.378C229.121 107.465 241.868 104.29 254.531 105.463C258.48 105.828 262.38 106.607 266.167 107.788Z" fill="white"/>
<path d="M69.9943 11.1997C65.8752 35.9768 55.6695 43.6543 50.969 45.9121C47.6585 47.5021 43.9356 48.2863 39.8711 48.2863C29.9578 48.2863 18.0187 43.6052 5.12379 34.5178C3.42797 33.3267 1.73579 32.072 0.0472424 30.7536C-0.0629897 29.4415 0.0122461 28.1204 0.270726 26.8294C20.6387 43.2031 38.6083 48.2317 49.5554 42.9684C52.8423 41.3911 62.5375 34.8179 66.6347 11.4035L69.9943 11.1997Z" fill="white"/>
<path d="M12.8788 235.778C0.200102 218.784 0.160129 201.281 6.31413 196.74C12.2337 192.373 27.7269 197.173 40.1312 211.876C40.4291 203.653 43.5343 196.754 47.6897 195.745C52.7172 194.52 61.1841 201.461 64.0004 214.665C68.2539 208.611 75.1946 200.022 79.7152 201.519C87.0411 203.948 83.5689 231.403 83.0965 234.982L12.8788 235.778Z" fill="#EFEEF5"/>
<path d="M259.207 234.803C270.725 219.367 270.752 203.468 265.17 199.343C259.794 195.37 245.72 199.736 234.453 213.094C234.182 205.623 231.364 199.356 227.587 198.439C223.021 197.327 215.33 203.631 212.771 215.626C208.907 210.126 202.597 202.325 198.496 203.686C191.84 205.891 194.996 230.83 195.425 234.081L259.207 234.803Z" fill="#EFEEF5"/>
<path d="M82.9069 206.957C83.2504 208.289 83.2703 209.686 83.2903 211.051C83.3158 213.072 83.3485 215.086 83.3757 217.107C83.3927 218.263 83.4078 219.42 83.4211 220.578C83.4466 222.234 83.4708 223.889 83.4938 225.545C83.4938 226.042 83.4938 226.575 83.1995 226.975C83.1788 227.005 83.1551 227.032 83.1286 227.057C82.4418 227.819 80.7957 227.888 80.9174 228.9C80.9774 229.429 81.5497 229.711 81.964 230.046C82.7725 230.71 83.036 231.811 82.8724 232.862C82.8299 233.141 82.7574 233.414 82.6562 233.677L72.5667 234.301C72.494 234.103 72.4268 233.901 72.3723 233.697C72.0062 232.255 71.8683 230.764 71.9635 229.278C72.0125 228.245 72.1125 227.193 72.1724 226.147C72.1961 225.727 72.2142 225.31 72.2197 224.895C72.2451 223.184 72.0725 221.513 71.3112 219.983C70.5844 218.528 69.3235 217.156 69.4688 215.524C69.5669 214.394 70.3355 213.436 70.6498 212.342C70.7927 211.828 70.8389 211.291 70.7861 210.759C70.6662 209.435 70.0085 208.142 69.1763 207.081C68.0007 205.594 66.4945 204.401 65.3189 202.913C64.2401 201.556 63.4655 199.984 63.0477 198.301C62.8369 197.476 62.715 196.632 62.6843 195.781C62.6462 194.835 62.7479 193.82 63.3112 193.052C64.2197 191.822 66.2746 191.151 66.062 189.643C65.924 188.637 64.8102 188.14 64.0398 187.478C61.9121 185.659 62.2992 182.32 62.866 179.575C63.714 175.475 64.5619 171.378 65.4098 167.282C65.8931 164.957 66.767 162.188 69.0745 161.624C70.737 161.216 72.4595 162.222 73.5442 163.556C74.6289 164.889 75.2503 166.519 76.1261 167.991C77.398 170.138 79.2149 171.955 80.3051 174.199C81.3953 176.442 81.6042 179.446 79.8218 181.196C79.5819 181.436 79.2767 181.742 79.4075 182.062C79.5038 182.291 79.7709 182.373 79.9998 182.467C81.3462 183.042 81.7877 184.705 82.0076 186.159C82.1257 186.932 82.222 187.7 82.3019 188.475C82.7365 192.506 82.7267 196.572 82.2728 200.6C82.1275 201.858 81.944 203.129 82.162 204.376C82.3455 205.272 82.6962 206.1 82.9069 206.957Z" fill="#A1A0C7"/>
<path d="M75.674 214.962C75.7649 216.781 75.8466 218.637 75.9193 220.529C76.0701 224.457 76.1755 228.556 76.2246 232.787C76.2246 233.219 76.2246 233.655 76.2391 234.09L75.694 234.125V233.24C75.694 233.209 75.694 233.177 75.694 233.149C75.6431 228.528 75.5123 224.071 75.3506 219.818C75.2767 217.998 75.1962 216.219 75.109 214.48C73.888 191.042 71.3042 174.937 71.2788 174.719L71.8239 174.63C71.8439 174.857 74.4712 191.213 75.674 214.962Z" fill="white"/>
<path d="M107.561 168.155C107.521 169.974 107.329 175.501 106.457 182.698C106.448 182.779 106.419 182.856 106.373 182.923C106.327 182.99 106.266 183.044 106.194 183.082C106.123 183.12 106.043 183.139 105.962 183.139C105.881 183.139 105.801 183.119 105.73 183.08C105.641 183.035 105.541 183.018 105.443 183.03C105.344 183.043 105.252 183.084 105.177 183.15C105.103 183.216 105.05 183.302 105.025 183.398C105 183.495 105.004 183.596 105.038 183.69L105.973 186.31C105.443 189.999 104.738 193.996 103.793 198.084C103.77 198.189 103.714 198.283 103.633 198.353C103.552 198.423 103.451 198.464 103.344 198.472L100.388 198.654C100.292 198.659 100.2 198.692 100.123 198.749C100.046 198.806 99.9867 198.884 99.953 198.974C99.9193 199.064 99.9124 199.161 99.9332 199.255C99.954 199.349 100.002 199.434 100.07 199.501L102.795 202.158C102.051 204.974 101.178 207.797 100.172 210.548C99.1855 213.279 98.0357 215.948 96.7287 218.54C96.6967 218.605 96.6507 218.662 96.5942 218.707C96.5377 218.752 96.4719 218.784 96.4017 218.801L91.5159 220.001C91.4229 220.025 91.3386 220.074 91.2732 220.144C91.2078 220.215 91.1641 220.302 91.1474 220.397C91.1307 220.491 91.1416 220.588 91.179 220.677C91.2163 220.765 91.2784 220.841 91.3578 220.895L93.9015 222.592C94.0086 222.666 94.0829 222.778 94.109 222.906C94.1351 223.033 94.1109 223.166 94.0415 223.276C93.649 223.889 93.2402 224.491 92.8241 225.079C90.4294 228.456 87.6476 231.37 84.4134 233.575L83.6213 233.624C83.6239 233.63 83.6253 233.637 83.6253 233.643C83.6253 233.65 83.6239 233.657 83.6213 233.663C83.6112 233.649 83.5996 233.637 83.5867 233.626C83.3367 233.388 83.1013 233.136 82.8818 232.869C81.3192 231.025 78.4811 226.518 77.7852 217.522C77.7734 217.408 77.8031 217.293 77.8688 217.2L78.0796 216.898L78.988 215.577C79.0339 215.508 79.062 215.429 79.0701 215.347C79.0781 215.265 79.0658 215.182 79.0341 215.106C79.0025 215.029 78.9526 214.962 78.8888 214.91C78.8249 214.857 78.7492 214.821 78.6683 214.805L78.036 214.687C77.9245 214.666 77.8236 214.608 77.7507 214.521C77.6778 214.434 77.6373 214.324 77.6362 214.211C77.5958 210.276 77.868 206.345 78.4502 202.454C78.4637 202.372 78.4968 202.294 78.5468 202.228C78.5968 202.161 78.6622 202.108 78.7373 202.072L80.8813 201.077C80.9624 201.04 81.0318 200.981 81.0823 200.907C81.1327 200.834 81.1623 200.748 81.1679 200.658C81.1735 200.569 81.1549 200.48 81.114 200.401C81.0731 200.321 81.0116 200.255 80.9358 200.207L79.3006 199.19C79.2142 199.139 79.146 199.061 79.1053 198.969C79.0646 198.877 79.0535 198.774 79.0735 198.675C79.734 195.161 80.8283 191.742 82.3312 188.498C83.035 186.987 83.8342 185.522 84.7241 184.112C84.7797 184.026 84.8607 183.959 84.9558 183.922C85.0508 183.884 85.1553 183.876 85.2547 183.901L87.1116 184.33C87.2053 184.351 87.303 184.345 87.3931 184.312C87.4832 184.279 87.5618 184.22 87.6194 184.143C87.677 184.066 87.7112 183.974 87.7178 183.878C87.7244 183.782 87.7032 183.687 87.6567 183.602L86.661 181.86C86.6146 181.775 86.5934 181.678 86.5998 181.581C86.6063 181.485 86.6401 181.392 86.6973 181.314C94.2159 171.586 104.322 168.366 106.938 167.669C107.012 167.648 107.09 167.645 107.165 167.66C107.241 167.675 107.312 167.707 107.372 167.754C107.433 167.801 107.482 167.862 107.514 167.932C107.547 168.001 107.563 168.078 107.561 168.155Z" fill="#6260A1"/>
<path d="M74.2984 234.065C71.7038 233.61 68.9693 233.091 66.987 231.356C65.7642 230.286 64.9411 228.841 64.1398 227.426L61.4326 222.641C60.4314 220.873 59.3976 218.844 59.979 216.9C60.2715 215.93 60.9638 214.991 60.7294 214.003C59.0269 213.603 57.4698 215.095 55.7419 215.36C53.5906 215.69 51.6628 214.109 50.0603 212.631C48.1616 210.887 46.083 208.598 46.6971 206.082C46.7916 205.698 46.9388 205.261 46.7153 204.936C46.5154 204.645 46.1121 204.594 45.7578 204.572L43.185 204.405C42.7416 204.375 42.2765 204.337 41.9131 204.068C41.5188 203.77 41.368 203.258 41.2299 202.782C39.6359 197.075 38.043 191.369 36.4514 185.664C36.2315 184.878 36.0153 184.027 36.3242 183.268C36.6331 182.509 37.7196 182.056 38.2865 182.64C44.1659 185.304 50.2114 187.584 56.3851 189.466C57.3444 189.757 58.3329 190.054 59.1105 190.682C61.1727 192.332 61.0619 195.541 62.5754 197.708C64.4778 200.437 68.5714 201.026 70.2702 203.893C71.1968 205.46 71.1987 207.392 71.086 209.208C70.9225 211.906 70.6518 214.898 72.3143 217.031C73.1428 218.089 74.3511 218.779 75.2759 219.76C76.8276 221.397 77.4708 223.726 77.4907 225.98C77.5107 228.234 76.9693 230.448 76.4296 232.637L74.2984 234.065Z" fill="#6260A1"/>
<path d="M100.223 179.638C87.6148 192.191 84.2008 208.505 83.6975 220.755C83.5223 225.041 83.6802 229.335 84.1699 233.597L83.6157 233.632C83.4122 231.834 83.2214 229.611 83.1342 227.071C83.0634 225.041 83.0616 222.812 83.1669 220.434C83.2142 219.357 83.2814 218.251 83.3813 217.121C84.3934 205.296 88.3198 190.742 99.8338 179.26L100.223 179.638Z" fill="white"/>
<path d="M76.0174 234.096L75.436 234.13C75.3524 233.906 75.2725 233.688 75.1889 233.47C74.1944 230.878 73.1909 228.439 72.1782 226.154C58.9145 196.112 44.606 191.306 44.4443 191.256L44.6079 190.727C44.8023 190.793 49.5572 192.319 56.1818 199.416C60.5825 204.126 66.4349 212.051 72.2255 224.903C73.3738 227.45 74.5239 230.202 75.6541 233.159C75.6672 233.182 75.6782 233.206 75.6868 233.232C75.7958 233.52 75.906 233.808 76.0174 234.096Z" fill="white"/>
<path d="M216.675 215.872C216.626 216.845 216.346 217.791 216.068 218.724C215.657 220.098 215.252 221.47 214.843 222.845C214.611 223.63 214.376 224.418 214.14 225.21C213.806 226.337 213.471 227.463 213.137 228.589C213.037 228.927 212.921 229.287 212.636 229.498C212.615 229.514 212.593 229.527 212.57 229.538C211.943 229.902 210.813 229.606 210.682 230.317C210.61 230.69 210.939 231.001 211.147 231.316C211.554 231.936 211.5 232.738 211.166 233.415C211.079 233.595 210.972 233.765 210.848 233.921L203.883 232.202C203.883 232.052 203.883 231.901 203.883 231.75C203.942 230.696 204.164 229.658 204.543 228.672C204.795 227.983 205.088 227.291 205.348 226.596C205.453 226.316 205.552 226.037 205.646 225.759C206.025 224.604 206.26 223.438 206.073 222.246C205.891 221.1 205.326 219.91 205.769 218.833C206.076 218.091 206.8 217.605 207.243 216.93C207.449 216.612 207.594 216.259 207.672 215.888C207.87 214.966 207.699 213.95 207.359 213.055C206.879 211.798 206.113 210.67 205.631 209.417C204.971 207.695 204.876 205.807 205.36 204.028C205.542 203.38 205.82 202.714 206.362 202.318C207.237 201.679 208.771 201.661 208.947 200.595C209.067 199.883 208.417 199.31 208.039 198.699C206.985 197.014 207.953 194.837 208.918 193.097C210.362 190.503 211.806 187.909 213.25 185.314C214.069 183.843 215.248 182.156 216.929 182.262C218.141 182.338 219.095 183.384 219.545 184.518C219.996 185.651 220.074 186.883 220.356 188.071C220.765 189.794 221.602 191.409 221.871 193.165C222.14 194.92 221.638 196.985 220.054 197.8C219.84 197.911 219.569 198.059 219.591 198.299C219.607 198.481 219.772 198.586 219.905 198.699C220.696 199.376 220.632 200.595 220.483 201.625C220.399 202.17 220.301 202.716 220.192 203.262C219.633 206.084 218.764 208.835 217.603 211.467C217.24 212.288 216.845 213.104 216.731 213.999C216.647 214.598 216.709 215.238 216.675 215.872Z" fill="#A1A0C7"/>
<path d="M210.081 219.741C209.758 220.991 209.42 222.263 209.067 223.562C208.34 226.253 207.541 229.051 206.678 231.931L206.413 232.817L206.035 232.722C206.095 232.522 206.156 232.324 206.216 232.123C206.224 232.103 206.231 232.081 206.236 232.06C207.181 228.921 208.041 225.874 208.827 222.963C209.162 221.715 209.484 220.493 209.794 219.297C213.935 203.175 215.595 191.72 215.617 191.564L216.001 191.618C215.977 191.777 214.293 203.411 210.081 219.741Z" fill="white"/>
<path d="M241.585 194.82C241.172 196.047 239.871 199.747 237.757 204.435C237.733 204.487 237.697 204.532 237.653 204.567C237.608 204.602 237.556 204.625 237.5 204.636C237.445 204.646 237.388 204.643 237.333 204.626C237.279 204.61 237.23 204.58 237.19 204.541C237.139 204.492 237.075 204.459 237.006 204.447C236.937 204.434 236.865 204.443 236.801 204.472C236.737 204.5 236.683 204.547 236.645 204.607C236.608 204.667 236.589 204.736 236.592 204.807L236.67 206.779C235.531 209.167 234.206 211.724 232.704 214.291C232.666 214.357 232.608 214.409 232.538 214.439C232.468 214.469 232.39 214.476 232.317 214.458L230.276 213.954C230.21 213.937 230.141 213.94 230.076 213.962C230.012 213.985 229.955 214.025 229.913 214.079C229.872 214.133 229.846 214.198 229.841 214.266C229.835 214.333 229.849 214.402 229.882 214.462L231.154 216.838C230.053 218.586 228.864 220.309 227.6 221.961C226.354 223.601 225.01 225.164 223.575 226.642C223.54 226.679 223.497 226.708 223.449 226.727C223.402 226.745 223.35 226.753 223.299 226.749L219.736 226.525C219.668 226.521 219.6 226.536 219.541 226.57C219.481 226.603 219.433 226.653 219.401 226.714C219.37 226.775 219.357 226.843 219.364 226.911C219.37 226.979 219.397 227.044 219.44 227.097L220.797 228.785C220.852 228.858 220.877 228.95 220.868 229.041C220.858 229.132 220.815 229.216 220.746 229.276C220.35 229.609 219.947 229.931 219.54 230.24C217.203 232.018 214.703 233.401 212.045 234.208L211.5 234.074C211.502 234.078 211.502 234.082 211.502 234.086C211.502 234.091 211.502 234.095 211.5 234.099C211.496 234.088 211.49 234.078 211.483 234.068C211.365 233.853 211.259 233.631 211.165 233.404C210.499 231.823 209.53 228.168 210.966 221.928C210.982 221.849 211.026 221.779 211.089 221.73L211.296 221.57L212.192 220.867C212.236 220.83 212.27 220.782 212.291 220.728C212.313 220.674 212.322 220.616 212.316 220.559C212.311 220.501 212.292 220.445 212.261 220.397C212.23 220.348 212.187 220.307 212.138 220.278L211.729 220.056C211.658 220.018 211.603 219.957 211.572 219.882C211.541 219.808 211.537 219.725 211.56 219.648C212.366 216.976 213.383 214.371 214.601 211.86C214.628 211.807 214.666 211.761 214.714 211.727C214.762 211.692 214.817 211.67 214.876 211.662L216.538 211.443C216.601 211.436 216.661 211.411 216.711 211.371C216.761 211.332 216.8 211.28 216.822 211.221C216.845 211.161 216.851 211.097 216.84 211.034C216.829 210.971 216.802 210.913 216.76 210.865L215.868 209.83C215.82 209.776 215.791 209.71 215.782 209.639C215.774 209.568 215.788 209.496 215.822 209.433C217.014 207.193 218.478 205.111 220.183 203.233C220.981 202.358 221.835 201.537 222.739 200.773C222.795 200.726 222.864 200.698 222.937 200.693C223.01 200.687 223.082 200.704 223.145 200.742L224.309 201.428C224.369 201.458 224.436 201.471 224.502 201.466C224.569 201.461 224.633 201.437 224.687 201.398C224.741 201.359 224.783 201.305 224.809 201.243C224.835 201.182 224.843 201.114 224.833 201.048L224.527 199.656C224.514 199.588 224.52 199.518 224.545 199.454C224.57 199.389 224.613 199.333 224.669 199.292C231.821 194.302 239.352 194.267 241.265 194.355C241.32 194.356 241.374 194.37 241.423 194.396C241.472 194.422 241.513 194.46 241.544 194.505C241.576 194.551 241.596 194.603 241.603 194.658C241.61 194.713 241.604 194.768 241.585 194.82Z" fill="#6260A1"/>
<path d="M205.101 232.393C203.44 231.534 201.699 230.603 200.724 229.005C200.122 228.021 199.87 226.867 199.634 225.73C199.36 224.459 199.087 223.186 198.814 221.91C198.511 220.5 198.24 218.908 199.048 217.715C199.452 217.12 200.119 216.623 200.17 215.913C199.101 215.28 197.731 215.959 196.505 215.772C194.978 215.539 194.008 214.06 193.234 212.721C192.326 211.136 191.395 209.146 192.342 207.577C192.487 207.337 192.68 207.073 192.596 206.806C192.524 206.566 192.26 206.442 192.026 206.355L190.32 205.696C190.025 205.583 189.713 205.456 189.529 205.2C189.326 204.912 189.33 204.534 189.348 204.183C189.477 199.98 189.607 195.777 189.737 191.575C189.755 190.998 189.789 190.372 190.158 189.926C190.527 189.481 191.359 189.401 191.612 189.926C195.029 192.979 198.64 195.807 202.423 198.392C203.011 198.794 203.618 199.203 204.014 199.794C205.063 201.35 204.309 203.5 204.872 205.289C205.584 207.541 208.233 208.809 208.775 211.11C209.071 212.369 208.664 213.678 208.202 214.884C207.521 216.676 206.703 218.644 207.379 220.438C207.715 221.331 208.388 222.055 208.807 222.91C209.512 224.346 209.454 226.062 208.989 227.592C208.524 229.122 207.69 230.502 206.861 231.876L205.101 232.393Z" fill="#6260A1"/>
<path d="M234.183 201.039C222.985 206.861 217.22 217.185 214.287 225.37C213.26 228.235 212.458 231.177 211.887 234.167L211.503 234.074C211.747 232.813 212.088 231.267 212.568 229.526C212.95 228.136 213.42 226.626 213.994 225.037C214.254 224.31 214.54 223.582 214.841 222.841C218.028 215.053 223.771 206.024 234.001 200.695L234.183 201.039Z" fill="white"/>
<path d="M206.258 232.778L205.858 232.678C205.847 232.509 205.84 232.345 205.829 232.18C205.707 230.211 205.542 228.35 205.34 226.585C202.718 203.424 194.048 197.133 193.95 197.064L194.171 196.742C194.289 196.825 197.188 198.87 200.167 205.081C202.151 209.207 204.435 215.815 205.636 225.749C205.873 227.721 206.071 229.824 206.209 232.067C206.211 232.086 206.211 232.105 206.209 232.123C206.23 232.342 206.245 232.56 206.258 232.778Z" fill="white"/>
<path d="M197.871 5.1687H87.1789C78.1165 5.1687 70.77 12.5247 70.77 21.5989V218.43C70.77 227.504 78.1165 234.86 87.1789 234.86H197.871C206.933 234.86 214.28 227.504 214.28 218.43V21.5989C214.28 12.5247 206.933 5.1687 197.871 5.1687Z" fill="white" stroke="#141272" stroke-width="2" stroke-miterlimit="10"/>
<path d="M203.28 35.1126V200.06C203.28 209.52 195.901 217.26 186.875 217.26H98.1697C89.1468 217.26 81.7627 209.519 81.7627 200.06V35.1126C81.7627 25.6522 89.1468 17.9128 98.1697 17.9128H121.134C122.43 17.9128 123.482 19.0153 123.482 20.3744C123.482 23.8565 126.207 26.7037 129.519 26.7037H154.931C158.251 26.7037 160.969 23.8565 160.969 20.3744C160.969 19.0153 162.019 17.9128 163.316 17.9128H186.875C195.898 17.9128 203.28 25.654 203.28 35.1126Z" fill="white" stroke="#141272" stroke-width="2" stroke-miterlimit="10"/>
<path d="M290.479 19.6921H201.281C197.68 19.6921 194.76 22.6155 194.76 26.2216V115.535C194.76 119.141 197.68 122.065 201.281 122.065H290.479C294.08 122.065 297 119.141 297 115.535V26.2216C297 22.6155 294.08 19.6921 290.479 19.6921Z" fill="#B6B6D3"/>
<path d="M281.625 72.3428H210.137C206.536 72.3428 203.616 75.2661 203.616 78.8723V81.3975C203.616 85.0036 206.536 87.9269 210.137 87.9269H281.625C285.226 87.9269 288.146 85.0036 288.146 81.3975V78.8723C288.146 75.2661 285.226 72.3428 281.625 72.3428Z" fill="#302E83"/>
<path d="M281.625 93.738H210.137C206.536 93.738 203.616 96.6614 203.616 100.268V102.793C203.616 106.399 206.536 109.322 210.137 109.322H281.625C285.226 109.322 288.146 106.399 288.146 102.793V100.268C288.146 96.6614 285.226 93.738 281.625 93.738Z" fill="#302E83"/>
<path d="M126.825 289.939L147.569 294.175C148.227 294.315 148.816 294.679 149.237 295.204C149.658 295.73 149.885 296.385 149.88 297.058C149.888 297.829 149.589 298.572 149.05 299.123C148.511 299.673 147.776 299.988 147.006 299.996H117.513L118.105 290.047L126.825 289.939Z" fill="#4A4992"/>
<path d="M124.031 294.54H121.531C120.706 294.54 119.915 294.212 119.332 293.629C118.749 293.045 118.422 292.253 118.422 291.427V282.877H127.143V291.427C127.143 291.837 127.063 292.242 126.906 292.62C126.75 292.997 126.52 293.341 126.231 293.63C125.942 293.919 125.599 294.148 125.221 294.304C124.844 294.461 124.439 294.541 124.031 294.54Z" fill="#A1A0C7"/>
<path d="M191.163 288.728L211.589 294.229C212.235 294.409 212.798 294.808 213.183 295.358C213.567 295.908 213.748 296.575 213.695 297.244C213.645 298.017 213.293 298.74 212.715 299.255C212.137 299.769 211.379 300.035 210.606 299.995L181.135 298.175L182.434 288.298L191.163 288.728Z" fill="#4A4992"/>
<path d="M187.734 293.425C188.868 293.129 189.84 292.399 190.44 291.392C191.041 290.384 191.221 289.181 190.943 288.042L189.282 281.041L180.808 283.142L182.469 290.143C182.596 290.706 182.834 291.239 183.169 291.709C183.503 292.18 183.927 292.58 184.417 292.885C184.907 293.19 185.452 293.395 186.022 293.488C186.591 293.58 187.173 293.559 187.734 293.425Z" fill="#A1A0C7"/>
<path d="M202.653 66.0717C202.653 66.0717 170.392 103.562 181.241 111.582C193.476 120.624 210.555 69.0645 210.555 69.0645C210.555 69.0645 209.463 65.0511 202.653 66.0717Z" fill="#A8A7CB"/>
<path d="M150.952 77.739C150.952 77.739 160.924 82.3983 171.173 87.9381C182.538 94.0819 194.163 101.461 191.181 108.025C184.618 122.478 143.396 91.2547 143.396 91.2547C137.716 85.3965 143.904 76.5019 150.952 77.739Z" fill="#A8A7CB"/>
<path d="M200.683 68.4313C200.683 68.4313 199.037 65.9061 199.072 63.4137C199.106 60.9212 199.435 59.2438 198.031 56.7223C196.626 54.2007 199.648 53.0273 200.769 55.2668C201.89 57.5064 203.153 61.3379 205.424 59.0237C207.695 56.7095 206.93 48.5117 211.569 50.5566C211.569 50.5566 212.134 46.798 213.749 47.2C215.364 47.6021 214.87 51.0206 214.87 51.0206C214.87 51.0206 218.973 49.0594 216.18 57.5246C216.18 57.5246 218.31 57.6738 217.981 59.3803C217.457 62.1092 213.933 67.2615 210.097 70.4107C203.863 75.5266 200.683 68.4313 200.683 68.4313Z" fill="#A8A7CB"/>
<path d="M168.262 84.3684C166.508 91.2817 163.154 98.1836 158.2 105.074L137.018 88.4818L145.156 74.3604L168.262 84.3684Z" fill="#AAAACC"/>
<path d="M208.64 60.2883L207.953 59.9571C211.333 52.9019 211.187 50.6205 211.185 50.5986L211.943 50.5222C211.958 50.6168 212.159 52.9455 208.64 60.2883Z" fill="#8786B7"/>
<path d="M211.504 61.0886L210.848 60.7011C212.979 57.0788 214.482 50.9896 214.498 50.9277L215.239 51.1097C215.181 51.3625 213.691 57.3717 211.504 61.0886Z" fill="#8786B7"/>
<path d="M213.601 62.8152L212.948 62.4223C214.266 60.2282 215.83 57.3682 215.844 57.3391L216.513 57.703C216.497 57.7339 214.927 60.6084 213.601 62.8152Z" fill="#8786B7"/>
<path d="M171.242 225.632C177.396 223.873 181.144 217.505 179.765 211.125C173.926 184.11 167.103 157.577 161.025 137.763H133.875C140.904 160.303 150.109 193.103 156.356 216.954C158.093 223.58 164.781 227.481 171.242 225.632Z" fill="#6260A1"/>
<path d="M164.993 202.756C171.649 200.853 178.499 205.072 179.961 211.978C184.893 235.291 191.61 265.411 194.637 280.397L174.988 286.017C171.186 269.044 162.088 238.715 156.626 217.735C154.935 211.241 158.674 204.566 164.993 202.756Z" fill="#6260A1"/>
<path d="M125.544 226.06C131.932 226.06 137.222 220.966 137.574 214.436C139.068 186.812 139.723 158.512 139.091 137.758H112.724C113.556 161.4 113.761 188.911 113.494 213.601C113.42 220.465 118.834 226.06 125.544 226.06Z" fill="#6260A1"/>
<path d="M125.553 202.312C132.458 202.312 137.95 208.263 137.545 215.317C136.151 239.126 134.167 268.537 133.133 283.803H112.724C113.532 266.41 113.287 236.137 113.549 214.432C113.63 207.714 118.981 202.312 125.553 202.312Z" fill="#6260A1"/>
<path d="M161.049 137.763C161.049 137.763 160.437 83.0422 147.019 75.2537C139.326 70.7873 123.398 72.0008 115.286 78.1646C107.091 84.3976 112.887 137.763 112.887 137.763H161.049Z" fill="#AAAACC"/>
<path d="M148.982 108.514C148.982 108.514 100.913 114.354 103.535 127.877C106.493 143.13 152.762 116.234 152.762 116.234C152.762 116.234 154.606 112.455 148.982 108.514Z" fill="#A8A7CB"/>
<path d="M128.186 85.5457C128.186 85.5457 125.885 96.507 122.802 107.934C119.383 120.606 114.84 133.803 107.929 132.24C92.7189 128.8 113.65 80.9064 113.65 80.9064C118.024 73.9803 127.85 78.243 128.186 85.5457Z" fill="#A8A7CB"/>
<path d="M146.001 108.925C146.001 108.925 146.463 105.889 148.125 104.042C149.788 102.196 151.128 101.164 151.759 98.297C152.389 95.4298 155.36 96.6414 154.702 99.103C154.045 101.564 152.448 105.309 155.611 105.143C158.774 104.977 163.605 98.2916 165.637 103.034C165.637 103.034 168.517 100.604 169.423 102.021C170.33 103.438 167.735 105.66 167.735 105.66C167.735 105.66 172.005 107.024 164.418 111.451C164.418 111.451 165.871 113.035 164.508 114.089C162.328 115.775 156.39 117.207 151.534 116.919C143.654 116.452 146.001 108.925 146.001 108.925Z" fill="#A8A7CB"/>
<path d="M125.586 104.259C117.708 104.297 110.492 102.101 103.643 98.6718L110.939 82.6819C113.214 77.6952 118.77 75.2227 123.885 76.9365L132.539 79.8238L125.586 104.259Z" fill="#AAAACC"/>
<path d="M157.141 108.305L156.848 107.601C163.934 104.641 165.324 102.831 165.337 102.813L165.958 103.255C165.904 103.333 164.519 105.223 157.141 108.305Z" fill="#8786B7"/>
<path d="M158.692 110.887L158.461 110.159C162.384 108.915 167.477 105.383 167.53 105.347L167.964 105.973C167.759 106.12 162.726 109.606 158.692 110.887Z" fill="#8786B7"/>
<path d="M159.083 113.626L158.859 112.899C161.256 112.171 164.272 111.098 164.31 111.079L164.565 111.807C164.525 111.82 161.496 112.899 159.083 113.626Z" fill="#8786B7"/>
<path d="M135.432 81.7649C141.013 81.7649 143.557 75.0971 142.058 73.5635C141.608 73.0773 141.251 72.5125 141.004 71.897C140.626 70.9691 140.371 69.9953 140.247 69.0007L129.919 59.593C130.477 65.5767 127.968 69.7811 127.059 72.7812C126.151 75.7812 129.083 81.7649 135.432 81.7649Z" fill="#A8A7CB"/>
<path d="M131.731 66.6705C134.691 72.4577 140.828 71.8846 140.997 71.8974C140.619 70.9695 140.364 69.9957 140.24 69.001C139.96 68.8337 128.958 61.2472 131.731 66.6705Z" fill="#8786B7"/>
<path d="M119.713 48.8174C119.713 48.8174 120.156 54.2881 127.935 59.9152C136.089 65.8225 126.806 47.6658 126.806 47.6658L119.713 48.8174Z" fill="#484691"/>
<path d="M140.944 45.5317C140.944 45.5317 142.045 50.2456 143.472 55.5379C145.512 63.099 145.686 69.2136 138.153 69.2136C125.5 69.2136 126.343 47.7458 126.343 47.7458L140.944 45.5317Z" fill="#A8A7CB"/>
<path d="M130.409 50.1692C130.409 50.1692 149.384 49.7344 146.762 36.6135C144.14 23.4927 136.711 39.7627 132.851 39.7627C128.325 39.7627 115.997 40.4359 120.522 51.4518C121.697 54.3063 123.574 50.6149 130.409 50.1692Z" fill="#484691"/>
<path d="M157.558 104.11C157.546 103.999 156.346 92.9412 151.679 83.5226L153.043 82.844C157.836 92.5154 159.061 103.839 159.072 103.948L157.558 104.11Z" fill="#141272"/>
<path d="M176.956 90.7342L176.549 91.3784L182.321 95.0347L182.728 94.3905L176.956 90.7342Z" fill="#8786B7"/>
<path d="M120.824 114.02L115.159 116.016L115.412 116.735L121.076 114.739L120.824 114.02Z" fill="#8786B7"/>
<path d="M127.026 91.937L122.908 107.318L124.387 107.715L128.504 92.3339L127.026 91.937Z" fill="#141272"/>
<path d="M135.39 85.7604C130.132 85.7604 125.595 82.0563 122.168 74.9119L123.542 74.2515C127.188 81.8562 131.867 85.1437 137.458 84.023C143.454 82.8204 144.865 74.5444 144.878 74.4607L146.382 74.7026C146.321 75.0865 144.794 84.1085 137.757 85.5184C136.978 85.6775 136.185 85.7585 135.39 85.7604Z" fill="#141272"/>
<path d="M124.879 100.891C117.807 100.489 106.413 94.5748 105.932 94.322L106.638 92.9702C106.753 93.0303 118.221 98.9848 124.964 99.3687L124.879 100.891Z" fill="#141272"/>
<path d="M158.018 99.2541L156.797 98.3445C160.053 93.9909 164.027 82.7803 164.065 82.6675L165.502 83.1769C165.337 83.6408 161.412 94.7149 158.018 99.2541Z" fill="#141272"/>
<path d="M150.549 167.343L130.875 168.138L133.204 150.673C133.204 150.673 140.71 150.407 142.522 150.407C144.333 150.407 150.549 167.343 150.549 167.343Z" fill="#6260A1"/>
<path d="M137.038 159.344L136.624 157.876L143.479 155.942L140.739 138.615L142.243 138.376L145.196 157.043L137.038 159.344Z" fill="#302E83"/>
<path d="M120.072 137.957L112.824 157.013L114.248 157.556L121.496 138.5L120.072 137.957Z" fill="#302E83"/>
<path d="M155.61 137.568L154.296 138.342L166.721 159.514L168.036 158.74L155.61 137.568Z" fill="#302E83"/>
<path d="M192.998 271.619L194.639 280.397L174.988 286.017L173.068 278.765L192.998 271.619Z" fill="#4A4992"/>
<path d="M133.984 275.589L133.128 283.803H112.724L113.02 275.589H133.984Z" fill="#4A4992"/>
<path d="M127.708 65.5843C129.816 65.5843 131.525 63.8364 131.525 61.6801C131.525 59.5239 129.816 57.7759 127.708 57.7759C125.6 57.7759 123.891 59.5239 123.891 61.6801C123.891 63.8364 125.6 65.5843 127.708 65.5843Z" fill="#A8A7CB"/>
<path d="M142.396 61.6145L138.384 62.1403C138.384 62.1403 138.771 65.7789 140.972 65.4478C143.172 65.1167 142.396 61.6145 142.396 61.6145Z" fill="white"/>
<path d="M135.248 53.575C135.252 53.7181 135.297 53.857 135.379 53.9743C135.461 54.0915 135.576 54.1819 135.709 54.2342C135.842 54.2865 135.988 54.2984 136.127 54.2683C136.267 54.2382 136.395 54.1675 136.495 54.065C136.595 53.9626 136.662 53.8329 136.689 53.6922C136.715 53.5516 136.7 53.4062 136.644 53.2743C136.589 53.1424 136.496 53.0298 136.377 52.9506C136.258 52.8714 136.118 52.8291 135.975 52.8291C135.878 52.8303 135.783 52.8505 135.694 52.8887C135.605 52.9268 135.525 52.9821 135.457 53.0513C135.39 53.1206 135.336 53.2025 135.301 53.2923C135.265 53.3822 135.247 53.4783 135.248 53.575Z" fill="#484691"/>
<path d="M139.793 52.5488C139.796 52.692 139.841 52.831 139.923 52.9485C140.005 53.066 140.119 53.1567 140.252 53.2093C140.385 53.2619 140.531 53.274 140.671 53.2441C140.811 53.2142 140.939 53.1436 141.039 53.0412C141.139 52.9388 141.206 52.8092 141.233 52.6685C141.26 52.5278 141.244 52.3823 141.189 52.2503C141.134 52.1183 141.04 52.0056 140.921 51.9263C140.802 51.847 140.662 51.8047 140.519 51.8047C140.325 51.8076 140.139 51.8874 140.003 52.0268C139.867 52.1662 139.791 52.3538 139.793 52.5488Z" fill="#484691"/>
<path d="M139.865 59.5331C139.409 59.5293 138.959 59.4263 138.546 59.2311L139.184 57.8466C139.925 58.1887 140.526 57.9085 140.652 57.6647C140.748 57.47 140.439 57.1971 140.092 57.0152C137.481 55.6435 137.845 52.8708 137.861 52.7544L139.369 52.9691L138.615 52.8617L139.371 52.9636C139.36 53.0382 139.155 54.7993 140.801 55.6635C142.191 56.3912 142.414 57.5337 142.018 58.3378C141.678 59.0201 140.855 59.5331 139.865 59.5331Z" fill="#484691"/>
<path d="M134.204 52.4833L132.81 51.8684C133.039 51.3276 133.409 50.8582 133.881 50.5097C134.353 50.1611 134.91 49.9461 135.494 49.8872L135.574 51.41L135.534 50.6495L135.583 51.41C135.279 51.4524 134.992 51.5739 134.75 51.7622C134.508 51.9506 134.32 52.1993 134.204 52.4833Z" fill="#484691"/>
<path d="M139.144 50.5749L138.25 49.3396C139.622 48.3445 141.395 48.7629 141.471 48.7811L141.108 50.2638L141.29 49.5216L141.108 50.2638C141.104 50.262 139.94 49.9982 139.144 50.5749Z" fill="#484691"/>
<path d="M208.951 7.18457H190.256C186.655 7.18457 183.735 10.1079 183.735 13.7141V23.6275C183.735 27.2336 186.655 30.157 190.256 30.157H208.951C212.552 30.157 215.472 27.2336 215.472 23.6275V13.7141C215.472 10.1079 212.552 7.18457 208.951 7.18457Z" fill="#302E83"/>
<path d="M264.057 46.2415C264.057 49.8397 262.992 53.3572 260.995 56.349C258.999 59.3409 256.161 61.6727 252.841 63.0497C249.521 64.4267 245.868 64.787 242.343 64.085C238.819 63.383 235.581 61.6503 233.04 59.1059C230.499 56.5616 228.768 53.3199 228.067 49.7908C227.366 46.2617 227.726 42.6037 229.101 39.2793C230.477 35.955 232.805 33.1136 235.793 31.1145C238.781 29.1154 242.294 28.0484 245.888 28.0484C248.276 28.0412 250.642 28.5069 252.849 29.4186C255.057 30.3303 257.063 31.6702 258.752 33.361C260.44 35.0518 261.778 37.0603 262.689 39.2708C263.599 41.4813 264.064 43.8503 264.057 46.2415Z" fill="#302E83"/>
<path d="M245.88 49.9892C249.76 49.9892 252.905 46.8403 252.905 42.9558C252.905 39.0713 249.76 35.9224 245.88 35.9224C242.001 35.9224 238.856 39.0713 238.856 42.9558C238.856 46.8403 242.001 49.9892 245.88 49.9892Z" fill="white"/>
<path d="M258.85 58.9839C257.158 60.71 255.14 62.0812 252.913 63.0173C250.687 63.9533 248.296 64.4354 245.881 64.4354C243.465 64.4354 241.074 63.9533 238.848 63.0173C236.621 62.0812 234.603 60.71 232.911 58.9839C233.8 56.4947 235.385 54.3139 237.477 52.7011C239.569 51.0884 242.08 50.1117 244.71 49.8874C245.094 49.8491 245.484 49.8328 245.877 49.8328C246.269 49.8328 246.662 49.8491 247.043 49.8874C249.675 50.1108 252.187 51.087 254.281 52.6998C256.374 54.3126 257.96 56.4939 258.85 58.9839Z" fill="white"/>
<path d="M209.354 18.2839H192.317C191.998 18.2829 191.692 18.1557 191.467 17.9301C191.242 17.7044 191.115 17.3986 191.114 17.0795C191.115 16.7607 191.242 16.4554 191.468 16.2301C191.693 16.0049 191.998 15.8779 192.317 15.877H209.354C209.672 15.8784 209.977 16.0056 210.202 16.2308C210.427 16.456 210.554 16.761 210.555 17.0795C210.554 17.3983 210.427 17.7038 210.202 17.9294C209.977 18.155 209.673 18.2825 209.354 18.2839Z" fill="white"/>
<path d="M202.786 23.6746C202.545 23.6746 202.314 23.5787 202.144 23.4081C201.973 23.2376 201.877 23.0062 201.877 22.7649V17.5544C201.877 17.3132 201.973 17.0818 202.144 16.9112C202.314 16.7406 202.545 16.6448 202.786 16.6448C203.027 16.6448 203.258 16.7406 203.428 16.9112C203.599 17.0818 203.694 17.3132 203.694 17.5544V22.7667C203.694 23.0077 203.598 23.2386 203.428 23.4088C203.257 23.579 203.027 23.6746 202.786 23.6746Z" fill="white"/>
<path d="M191.198 20.4963C190.524 20.4939 189.878 20.2248 189.402 19.7476C188.925 19.2705 188.656 18.624 188.654 17.9492V16.7958C188.657 16.1212 188.926 15.475 189.402 14.998C189.878 14.5209 190.524 14.2517 191.198 14.2488C191.871 14.2517 192.517 14.5209 192.993 14.998C193.469 15.475 193.738 16.1212 193.741 16.7958V17.9492C193.739 18.624 193.47 19.2705 192.994 19.7476C192.517 20.2248 191.871 20.4939 191.198 20.4963Z" fill="white"/>
<path d="M207.33 23.4435C207.089 23.4435 206.858 23.3477 206.688 23.1771C206.518 23.0065 206.422 22.7751 206.422 22.5339V17.3252C206.422 17.0839 206.518 16.8525 206.688 16.682C206.858 16.5114 207.089 16.4155 207.33 16.4155C207.571 16.4155 207.802 16.5114 207.973 16.682C208.143 16.8525 208.239 17.0839 208.239 17.3252V22.5375C208.238 22.7781 208.142 23.0086 207.971 23.1784C207.801 23.3482 207.571 23.4435 207.33 23.4435Z" fill="white"/>
<path d="M58.8669 67.3326V51.752C58.8679 51.0218 59.158 50.3218 59.6737 49.8054C60.1894 49.2891 60.8885 48.9986 61.6178 48.9976H77.5978C78.3272 48.9981 79.0267 49.2884 79.5424 49.8049C80.0582 50.3213 80.3482 51.0216 80.3487 51.752V67.3326H87.0859V51.752C87.083 49.2337 86.0827 46.8194 84.3043 45.0387C82.5259 43.258 80.1147 42.2563 77.5996 42.2534H61.6178C59.1031 42.2568 56.6923 43.2587 54.9143 45.0393C53.1363 46.82 52.1362 49.234 52.1333 51.752V67.3326H58.8669Z" fill="#302E83"/>
<path d="M89.9063 63.9285H49.3103C47.8221 63.9285 46.6157 65.1364 46.6157 66.6265V94.0889C46.6157 95.579 47.8221 96.787 49.3103 96.787H89.9063C91.3945 96.787 92.6008 95.579 92.6008 94.0889V66.6265C92.6008 65.1364 91.3945 63.9285 89.9063 63.9285Z" fill="#B6B6D3"/>
<path d="M69.6091 88.1072C68.9505 88.1053 68.3194 87.8425 67.8537 87.3761C67.3879 86.9098 67.1255 86.2779 67.1235 85.6184V71.2259C67.1255 70.5664 67.3879 69.9345 67.8537 69.4681C68.3194 69.0018 68.9505 68.739 69.6091 68.7371C70.2676 68.7395 70.8984 69.0024 71.364 69.4687C71.8297 69.9349 72.0923 70.5665 72.0947 71.2259V85.6184C72.0923 86.2777 71.8297 86.9094 71.364 87.3756C70.8984 87.8418 70.2676 88.1048 69.6091 88.1072Z" fill="#302E83"/>
<path d="M74.6115 75.0299C75.2504 72.2613 73.5268 69.4984 70.7618 68.8587C67.9968 68.219 65.2375 69.9448 64.5986 72.7134C63.9598 75.482 65.6833 78.2449 68.4483 78.8846C71.2133 79.5242 73.9727 77.7985 74.6115 75.0299Z" fill="#302E83"/>
</g>
<defs>
<clipPath id="clip0">
<rect width="297" height="300" fill="white"/>
</clipPath>
</defs>
</svg>
