<svg width="14" height="14" viewBox="0 0 14 14" xmlns="http://www.w3.org/2000/svg">
<path fill-rule="evenodd" clip-rule="evenodd" d="M13.4849 0.484885C13.0944 0.0943607 12.4612 0.0943615 12.0707 0.484886L7 5.55556L1.92933 0.484885C1.5388 0.0943603 0.905641 0.0943593 0.515116 0.484884L0.484884 0.515116C0.0943604 0.90564 0.0943607 1.53881 0.484885 1.92933L5.55556 7L0.484885 12.0707C0.094361 12.4612 0.094361 13.0944 0.484886 13.4849L0.515116 13.5151C0.90564 13.9056 1.53881 13.9056 1.92933 13.5151L7 8.44445L12.0707 13.5151C12.4612 13.9056 13.0944 13.9056 13.4849 13.5151L13.5151 13.4849C13.9056 13.0944 13.9056 12.4612 13.5151 12.0707L8.44444 7L13.5151 1.92933C13.9056 1.53881 13.9056 0.90564 13.5151 0.515116L13.4849 0.484885Z" fill="white"/>
</svg>
