<svg width="20" height="20" viewBox="0 0 20 20" fill="none" xmlns="http://www.w3.org/2000/svg">
<path d="M10 0C4.48421 0 0 4.48421 0 10C0 15.5158 4.48421 20 10 20C15.5158 20 20 15.5158 20 10C20 4.48421 15.5158 0 10 0ZM10 17.9789C5.6 17.9789 2.02105 14.4 2.02105 10C2.02105 5.6 5.6 2.02105 10 2.02105C14.4 2.02105 17.9789 5.6 17.9789 10C17.9789 14.4 14.4 17.9789 10 17.9789Z" fill="#EDCEFF"/>
<path d="M13.3895 6.61049C12.9895 6.21049 12.3579 6.21049 11.9579 6.61049L10 8.56838L8.04213 6.61049C7.64213 6.21049 7.01055 6.21049 6.61055 6.61049C6.21055 7.01049 6.21055 7.64206 6.61055 8.04206L8.56844 9.99996L6.61055 11.9579C6.21055 12.3579 6.21055 12.9894 6.61055 13.3894C6.80002 13.5789 7.0737 13.6842 7.32634 13.6842C7.57897 13.6842 7.85265 13.5789 8.04213 13.3894L10 11.4315L11.9579 13.3894C12.1474 13.5789 12.4211 13.6842 12.6737 13.6842C12.9263 13.6842 13.2 13.5789 13.3895 13.3894C13.7895 12.9894 13.7895 12.3579 13.3895 11.9579L11.4316 9.99996L13.3895 8.04206C13.7684 7.66312 13.7684 7.01049 13.3895 6.61049Z" fill="#EDCEFF"/>
</svg>
