<svg width="15" height="19" viewBox="0 0 15 19" fill="none" xmlns="http://www.w3.org/2000/svg">
<path d="M14.3182 3.61437H11.5909V2.22976C11.5909 1.67884 11.3754 1.15067 10.9919 0.761074C10.6082 0.371649 10.088 0.152832 9.54546 0.152832H5.45454C4.91197 0.152832 4.3918 0.371649 4.00811 0.761074C3.62459 1.15065 3.40909 1.67884 3.40909 2.22976V3.61437H0.68181C0.438151 3.61437 0.213068 3.74634 0.0913151 3.96052C-0.0304384 4.17471 -0.0304384 4.43865 0.0913151 4.65283C0.213068 4.86701 0.438159 4.99899 0.68181 4.99899H1.36363V14.6913C1.36363 15.6094 1.7228 16.4898 2.36216 17.1389C3.00152 17.7881 3.86855 18.1528 4.77272 18.1528H10.2273C11.1314 18.1528 11.9985 17.7881 12.6378 17.1389C13.2772 16.4897 13.6364 15.6094 13.6364 14.6913V4.99899H14.3182C14.5618 4.99899 14.7869 4.86702 14.9087 4.65283C15.0304 4.43865 15.0304 4.1747 14.9087 3.96052C14.7869 3.74634 14.5618 3.61437 14.3182 3.61437ZM4.77272 2.22976C4.77272 2.04617 4.84456 1.87 4.9724 1.74019C5.10024 1.61039 5.27374 1.53745 5.45454 1.53745H9.54546C9.72626 1.53745 9.89976 1.61039 10.0276 1.74019C10.1554 1.87 10.2273 2.04617 10.2273 2.22976V3.61437H4.77272V2.22976ZM6.13636 13.3067C6.13636 13.5541 6.00639 13.7826 5.79545 13.9063C5.58451 14.0299 5.32457 14.0299 5.11363 13.9063C4.9027 13.7826 4.77272 13.5541 4.77272 13.3067V7.76822C4.77272 7.52081 4.90269 7.29226 5.11363 7.16864C5.32457 7.04501 5.58452 7.04501 5.79545 7.16864C6.00639 7.29226 6.13636 7.52082 6.13636 7.76822V13.3067ZM10.2273 13.3067C10.2273 13.5541 10.0973 13.7826 9.88637 13.9063C9.67543 14.0299 9.41548 14.0299 9.20455 13.9063C8.99361 13.7826 8.86364 13.5541 8.86364 13.3067V7.76822C8.86364 7.52081 8.99361 7.29226 9.20455 7.16864C9.41549 7.04501 9.67543 7.04501 9.88637 7.16864C10.0973 7.29226 10.2273 7.52082 10.2273 7.76822V13.3067Z" fill="#9184C4"/>
</svg>
