<svg width="15" height="18" viewBox="0 0 15 18" fill="none" xmlns="http://www.w3.org/2000/svg">
<g opacity="0.9">
<path d="M14.3182 3.46154H11.5909V2.07692C11.5909 1.526 11.3754 0.997833 10.9919 0.608242C10.6082 0.218817 10.088 0 9.54546 0H5.45454C4.91197 0 4.3918 0.218817 4.00811 0.608242C3.62459 0.997821 3.40909 1.526 3.40909 2.07692V3.46154H0.68181C0.438151 3.46154 0.213068 3.59351 0.0913151 3.80769C-0.0304384 4.02188 -0.0304384 4.28582 0.0913151 4.5C0.213068 4.71418 0.438159 4.84615 0.68181 4.84615H1.36363V14.5385C1.36363 15.4565 1.7228 16.3369 2.36216 16.9861C3.00152 17.6353 3.86855 18 4.77272 18H10.2273C11.1314 18 11.9985 17.6353 12.6378 16.9861C13.2772 16.3369 13.6364 15.4565 13.6364 14.5385V4.84615H14.3182C14.5618 4.84615 14.7869 4.71418 14.9087 4.5C15.0304 4.28582 15.0304 4.02187 14.9087 3.80769C14.7869 3.59351 14.5618 3.46154 14.3182 3.46154ZM4.77272 2.07692C4.77272 1.89334 4.84456 1.71717 4.9724 1.58736C5.10024 1.45756 5.27374 1.38462 5.45454 1.38462H9.54546C9.72626 1.38462 9.89976 1.45756 10.0276 1.58736C10.1554 1.71717 10.2273 1.89334 10.2273 2.07692V3.46154H4.77272V2.07692ZM6.13636 13.1538C6.13636 13.4013 6.00639 13.6298 5.79545 13.7534C5.58451 13.8771 5.32457 13.8771 5.11363 13.7534C4.9027 13.6298 4.77272 13.4012 4.77272 13.1538V7.61539C4.77272 7.36798 4.90269 7.13943 5.11363 7.01581C5.32457 6.89218 5.58452 6.89218 5.79545 7.01581C6.00639 7.13943 6.13636 7.36799 6.13636 7.61539V13.1538ZM10.2273 13.1538C10.2273 13.4013 10.0973 13.6298 9.88637 13.7534C9.67543 13.8771 9.41548 13.8771 9.20455 13.7534C8.99361 13.6298 8.86364 13.4012 8.86364 13.1538V7.61539C8.86364 7.36798 8.99361 7.13943 9.20455 7.01581C9.41549 6.89218 9.67543 6.89218 9.88637 7.01581C10.0973 7.13943 10.2273 7.36799 10.2273 7.61539V13.1538Z" fill="white"/>
</g>
</svg>
