<svg width="14" height="11" viewBox="0 0 14 11" fill="none" xmlns="http://www.w3.org/2000/svg">
<path d="M11.8516 0.911838C10.9593 0.48979 10.0024 0.17884 9.00196 0.000747075C8.9837 -0.00269006 8.9655 0.00589954 8.95615 0.023079C8.83305 0.248702 8.69675 0.543042 8.6013 0.774393C7.52525 0.608329 6.4547 0.608329 5.4007 0.774393C5.3052 0.537899 5.16395 0.248702 5.04035 0.023079C5.03095 0.00647274 5.01275 -0.00211686 4.99453 0.000747075C3.99462 0.178271 3.03775 0.48922 2.14488 0.911838C2.13715 0.915273 2.13053 0.921005 2.12613 0.928445C0.311145 3.72358 -0.186054 6.44997 0.0578551 9.14262C0.0589586 9.15578 0.0661326 9.16839 0.0760657 9.17641C1.27354 10.0829 2.4335 10.6332 3.57192 10.998C3.59014 11.0037 3.60944 10.9969 3.62103 10.9814C3.89033 10.6023 4.13038 10.2026 4.3362 9.78223C4.34834 9.75764 4.33675 9.72842 4.31192 9.71871C3.93116 9.56983 3.5686 9.38826 3.21984 9.18211C3.19226 9.16554 3.19005 9.12484 3.21543 9.10537C3.28882 9.04867 3.36223 8.98972 3.43231 8.93016C3.44499 8.91929 3.46266 8.91695 3.47756 8.92386C5.76875 10.0022 8.24925 10.0022 10.5134 8.92386C10.5283 8.91639 10.546 8.91868 10.5592 8.92955C10.6293 8.98911 10.7027 9.04867 10.7767 9.10537C10.802 9.12484 10.8004 9.16554 10.7728 9.18211C10.424 9.39228 10.0615 9.56983 9.68015 9.7181C9.6553 9.72786 9.64425 9.75764 9.6564 9.78223C9.86665 10.202 10.1067 10.6017 10.371 10.9808C10.3821 10.9969 10.4019 11.0037 10.4202 10.998C11.5641 10.6332 12.7241 10.0829 13.9215 9.17641C13.932 9.16839 13.9386 9.15634 13.9397 9.14318C14.2317 6.03024 13.4508 3.32616 11.8698 0.929014C11.866 0.921005 11.8593 0.915273 11.8516 0.911838ZM4.67835 7.50307C3.98854 7.50307 3.42016 6.8503 3.42016 6.04853C3.42016 5.24682 3.97752 4.59402 4.67835 4.59402C5.3847 4.59402 5.94755 5.25257 5.9365 6.04853C5.9365 6.8503 5.37915 7.50307 4.67835 7.50307ZM9.33025 7.50307C8.6405 7.50307 8.0721 6.8503 8.0721 6.04853C8.0721 5.24682 8.62945 4.59402 9.33025 4.59402C10.0366 4.59402 10.5995 5.25257 10.5885 6.04853C10.5885 6.8503 10.0366 7.50307 9.33025 7.50307Z" fill="#525DE9"/>
</svg>
