<svg width="14" height="10" viewBox="0 0 14 10" fill="none" xmlns="http://www.w3.org/2000/svg">
<path d="M1 5.5499C3.4 0.349902 10.6 0.349902 13 5.5499M7 8.3499C6.57565 8.3499 6.16869 8.18133 5.86863 7.88127C5.56857 7.58121 5.4 7.17425 5.4 6.7499C5.4 6.32556 5.56857 5.91859 5.86863 5.61853C6.16869 5.31847 6.57565 5.1499 7 5.1499C7.42435 5.1499 7.83131 5.31847 8.13137 5.61853C8.43143 5.91859 8.6 6.32556 8.6 6.7499C8.6 7.17425 8.43143 7.58121 8.13137 7.88127C7.83131 8.18133 7.42435 8.3499 7 8.3499Z" stroke="#8F8FB2" stroke-width="1.5" stroke-linecap="round" stroke-linejoin="round"/>
</svg>
