<svg width="12" height="15" viewBox="0 0 12 15" fill="none" xmlns="http://www.w3.org/2000/svg">
<path d="M1 13.14V1.86C1 1.76452 1.03793 1.67295 1.10544 1.60544C1.17295 1.53793 1.26452 1.5 1.36 1.5H8.3512C8.44665 1.50008 8.53815 1.53807 8.6056 1.6056L10.4944 3.4944C10.528 3.52794 10.5546 3.56779 10.5727 3.61166C10.5908 3.65552 10.6001 3.70254 10.6 3.75V13.14C10.6 13.1873 10.5907 13.2341 10.5726 13.2778C10.5545 13.3214 10.528 13.3611 10.4946 13.3946C10.4611 13.428 10.4214 13.4545 10.3778 13.4726C10.3341 13.4907 10.2873 13.5 10.24 13.5H1.36C1.31272 13.5 1.26591 13.4907 1.22223 13.4726C1.17856 13.4545 1.13887 13.428 1.10544 13.3946C1.07201 13.3611 1.0455 13.3214 1.0274 13.2778C1.00931 13.2341 1 13.1873 1 13.14V13.14Z" stroke="#B8B8CC" stroke-width="1.5" stroke-linecap="round" stroke-linejoin="round"/>
<path d="M8.2002 3.54011V1.71251C8.20027 1.67056 8.21277 1.62956 8.23611 1.5947C8.25946 1.55985 8.2926 1.53268 8.33136 1.51664C8.37013 1.50059 8.41278 1.49638 8.45393 1.50455C8.49508 1.51271 8.53289 1.53288 8.5626 1.56251L10.5378 3.53771C10.5677 3.5673 10.5881 3.60513 10.5965 3.64638C10.6048 3.68763 10.6007 3.73043 10.5846 3.76931C10.5685 3.8082 10.5412 3.84141 10.5061 3.8647C10.4711 3.888 10.4299 3.90032 10.3878 3.90011H8.5602C8.46472 3.90011 8.37315 3.86218 8.30564 3.79467C8.23812 3.72716 8.2002 3.63559 8.2002 3.54011Z" fill="black" stroke="#B8B8CC" stroke-width="1.5" stroke-linecap="round" stroke-linejoin="round"/>
</svg>
