<svg width="18" height="18" viewBox="0 0 18 18" fill="none" xmlns="http://www.w3.org/2000/svg">
<path d="M10.7714 4.23901L11.8814 3.12901C12.0207 2.98966 12.1861 2.87911 12.3681 2.80369C12.5501 2.72827 12.7452 2.68945 12.9422 2.68945C13.1393 2.68945 13.3344 2.72827 13.5164 2.80369C13.6984 2.87911 13.8638 2.98966 14.0031 3.12901L15.0636 4.18951C15.3448 4.4708 15.5028 4.85226 15.5028 5.25001C15.5028 5.64775 15.3448 6.02922 15.0636 6.31051L13.9536 7.42051M10.7714 4.23901L3.55937 11.4503C3.31036 11.6993 3.1569 12.028 3.12587 12.3788L2.94437 14.4338C2.93463 14.543 2.94896 14.6531 2.98636 14.7562C3.02376 14.8593 3.08331 14.9529 3.16083 15.0305C3.23835 15.1081 3.33194 15.1677 3.43501 15.2052C3.53808 15.2427 3.64812 15.2572 3.75737 15.2475L5.81237 15.066C6.16369 15.0353 6.49297 14.8818 6.74237 14.6325L13.9536 7.42051M10.7714 4.23901L13.9536 7.42051" stroke="#B8B8CC" stroke-width="1.5" stroke-linecap="round" stroke-linejoin="round"/>
</svg>
