<svg width="34" height="34" viewBox="0 0 34 34" fill="none" xmlns="http://www.w3.org/2000/svg">
<circle cx="17" cy="17" r="16" fill="#6666FF" fill-opacity="0.1" stroke="#6666FF" stroke-opacity="0.5" stroke-width="1.5" stroke-linecap="round" stroke-linejoin="round"/>
<path d="M12.3334 19.6667V18.3334" stroke="#6666FF" stroke-width="1.5" stroke-linecap="round" stroke-linejoin="round"/>
<path d="M17 23V21.6666" stroke="#6666FF" stroke-width="1.5" stroke-linecap="round" stroke-linejoin="round"/>
<path d="M21.6666 17.6667V16.3334" stroke="#6666FF" stroke-width="1.5" stroke-linecap="round" stroke-linejoin="round"/>
<path d="M12.3334 14.3333V13" stroke="#6666FF" stroke-width="1.5" stroke-linecap="round" stroke-linejoin="round"/>
<path d="M17 17.6667V16.3334" stroke="#6666FF" stroke-width="1.5" stroke-linecap="round" stroke-linejoin="round"/>
<path d="M21.6666 12.3333V11" stroke="#6666FF" stroke-width="1.5" stroke-linecap="round" stroke-linejoin="round"/>
<path d="M13.6667 14.7334V17.9334C13.6667 18.1543 13.4876 18.3334 13.2667 18.3334H11.4C11.1791 18.3334 11 18.1543 11 17.9334V14.7334C11 14.5125 11.1791 14.3334 11.4 14.3334H13.2667C13.4876 14.3334 13.6667 14.5125 13.6667 14.7334Z" stroke="#6666FF" stroke-width="1.5" stroke-linecap="round" stroke-linejoin="round"/>
<path d="M18.3333 18.0666V21.2666C18.3333 21.4876 18.1542 21.6666 17.9333 21.6666H16.0666C15.8457 21.6666 15.6666 21.4876 15.6666 21.2666V18.0666C15.6666 17.8457 15.8457 17.6666 16.0666 17.6666H17.9333C18.1542 17.6666 18.3333 17.8457 18.3333 18.0666Z" stroke="#6666FF" stroke-width="1.5" stroke-linecap="round" stroke-linejoin="round"/>
<path d="M23 12.7334V15.9334C23 16.1543 22.821 16.3334 22.6 16.3334H20.7334C20.5124 16.3334 20.3334 16.1543 20.3334 15.9334V12.7334C20.3334 12.5125 20.5124 12.3334 20.7334 12.3334H22.6C22.821 12.3334 23 12.5125 23 12.7334Z" stroke="#6666FF" stroke-width="1.5" stroke-linecap="round" stroke-linejoin="round"/>
</svg>
