<svg width="34" height="34" viewBox="0 0 34 34" fill="none" xmlns="http://www.w3.org/2000/svg">
<circle cx="17" cy="17" r="16" fill="#6666FF" fill-opacity="0.1" stroke="#6666FF" stroke-opacity="0.5" stroke-width="1.5" stroke-linecap="round" stroke-linejoin="round"/>
<path d="M19.6667 17.6667C17.8258 17.6667 16.3334 16.9205 16.3334 16C16.3334 15.0796 17.8258 14.3334 19.6667 14.3334C21.5076 14.3334 23 15.0796 23 16C23 16.9205 21.5076 17.6667 19.6667 17.6667Z" stroke="#6666FF" stroke-width="1.5" stroke-linecap="round" stroke-linejoin="round"/>
<path d="M16.3334 18.6666C16.3334 19.5871 17.8258 20.3333 19.6667 20.3333C21.5076 20.3333 23 19.5871 23 18.6666" stroke="#6666FF" stroke-width="1.5" stroke-linecap="round" stroke-linejoin="round"/>
<path d="M11 15.3334C11 16.2538 12.4924 17 14.3333 17C15.0839 17 15.7765 16.876 16.3337 16.6667" stroke="#6666FF" stroke-width="1.5" stroke-linecap="round" stroke-linejoin="round"/>
<path d="M11 17.6666C11 18.5871 12.4924 19.3333 14.3333 19.3333C15.0837 19.3333 15.7762 19.2093 16.3333 19.0001" stroke="#6666FF" stroke-width="1.5" stroke-linecap="round" stroke-linejoin="round"/>
<path d="M11 12.6666V20C11 20.9204 12.4924 21.6666 14.3333 21.6666C15.0838 21.6666 15.7762 21.5426 16.3333 21.3333" stroke="#6666FF" stroke-width="1.5" stroke-linecap="round" stroke-linejoin="round"/>
<path d="M17.6666 14.6666V12.6666" stroke="#6666FF" stroke-width="1.5" stroke-linecap="round" stroke-linejoin="round"/>
<path d="M16.3334 16V21.3333C16.3334 22.2538 17.8258 23 19.6667 23C21.5076 23 23 22.2538 23 21.3333V16" stroke="#6666FF" stroke-width="1.5" stroke-linecap="round" stroke-linejoin="round"/>
<path d="M14.3333 14.3333C12.4924 14.3333 11 13.5871 11 12.6667C11 11.7462 12.4924 11 14.3333 11C16.1743 11 17.6667 11.7462 17.6667 12.6667C17.6667 13.5871 16.1743 14.3333 14.3333 14.3333Z" stroke="#6666FF" stroke-width="1.5" stroke-linecap="round" stroke-linejoin="round"/>
</svg>
