<svg width="16" height="16" viewBox="0 0 16 16" fill="none" xmlns="http://www.w3.org/2000/svg">
<path d="M7.99967 7.99984C8.70692 7.99984 9.3852 7.71889 9.88529 7.21879C10.3854 6.71869 10.6663 6.04041 10.6663 5.33317C10.6663 4.62593 10.3854 3.94765 9.88529 3.44755C9.3852 2.94746 8.70692 2.6665 7.99967 2.6665C7.29243 2.6665 6.61415 2.94746 6.11406 3.44755C5.61396 3.94765 5.33301 4.62593 5.33301 5.33317C5.33301 6.04041 5.61396 6.71869 6.11406 7.21879C6.61415 7.71889 7.29243 7.99984 7.99967 7.99984Z" stroke="#B8B8CC" stroke-width="1.5" stroke-linecap="round" stroke-linejoin="round"/>
<path d="M3.33301 13.3333V12.6667C3.33285 11.8793 3.5319 11.1047 3.91163 10.415C4.29137 9.72526 4.83944 9.14282 5.50483 8.7219C6.17022 8.30097 6.93129 8.05524 7.7172 8.00758C8.50311 7.95992 9.2883 8.11188 9.99967 8.44932M11.0897 10.9433L11.7823 9.47465C11.8011 9.43267 11.8316 9.39702 11.8701 9.372C11.9087 9.34698 11.9537 9.33366 11.9997 9.33366C12.0456 9.33366 12.0906 9.34698 12.1292 9.372C12.1678 9.39702 12.1983 9.43267 12.217 9.47465L12.9103 10.9433L14.459 11.1807C14.6577 11.2107 14.7363 11.4667 14.5923 11.6133L13.4723 12.7553L13.7363 14.3693C13.7703 14.5767 13.563 14.7347 13.385 14.6367L11.9997 13.8747L10.6143 14.6367C10.4363 14.7347 10.229 14.5767 10.263 14.37L10.527 12.7553L9.40701 11.6133C9.26301 11.4667 9.34167 11.2107 9.54034 11.18L11.0897 10.9433Z" stroke="#B8B8CC" stroke-width="1.5" stroke-linecap="round" stroke-linejoin="round"/>
</svg>
