<svg width="104" height="102" viewBox="0 0 104 102" fill="none" xmlns="http://www.w3.org/2000/svg">
<path d="M4.73504 96.0511C3.5048 96.0511 2.32385 95.5617 1.45391 94.6917C0.583841 93.8216 0.0944824 92.6407 0.0944824 91.4105C0.0944824 90.1795 0.583841 88.9993 1.45391 88.1294C2.32398 87.2586 3.50484 86.77 4.73504 86.77C5.96604 86.77 7.14623 87.2586 8.01617 88.1294C8.887 88.9995 9.3756 90.1796 9.3756 91.4105C9.37484 92.6408 8.88548 93.8202 8.01541 94.6901C7.14534 95.5602 5.96526 96.0495 4.73506 96.0511L4.73504 96.0511ZM4.73504 88.8977C3.71907 88.8977 2.80266 89.5101 2.41353 90.4486C2.02447 91.3878 2.23951 92.4684 2.95836 93.1872C3.67721 93.906 4.75776 94.1211 5.69695 93.732C6.6354 93.343 7.24787 92.4265 7.24787 91.4105C7.23952 90.0275 6.11793 88.9104 4.73494 88.9083L4.73504 88.8977Z" fill="url(#paint0_linear_5052_75711)"/>
<path d="M93.5553 15.8291C91.7909 15.8299 90.0979 15.1292 88.85 13.8823C87.6015 12.6345 86.9003 10.9423 86.9003 9.17775C86.8995 7.41256 87.6001 5.72038 88.8479 4.47248C90.0956 3.22399 91.7878 2.52271 93.5524 2.52271C95.3176 2.52271 97.0098 3.22333 98.2577 4.47112C99.5054 5.71885 100.207 7.41182 100.207 9.17639C100.205 10.9401 99.504 12.6308 98.2571 13.8778C97.0101 15.1255 95.3193 15.827 93.5557 15.8291H93.5553ZM93.5553 4.65281C92.3547 4.65205 91.2035 5.12849 90.3539 5.97728C89.5052 6.82607 89.028 7.97724 89.028 9.17787C89.028 10.3785 89.5044 11.5297 90.3532 12.3785C91.202 13.2273 92.3531 13.7037 93.5538 13.7037C94.7544 13.7037 95.9056 13.2265 96.7544 12.3777C97.6032 11.5282 98.0796 10.377 98.0788 9.17633C98.0773 7.97723 97.6001 6.82759 96.7521 5.97944C95.9041 5.13141 94.7543 4.65421 93.5552 4.65269L93.5553 4.65281Z" fill="url(#paint1_linear_5052_75711)"/>
<path d="M51.9299 83.7568C39.996 83.7568 31.1348 81.5334 24.8359 76.9483C21.1634 74.2774 18.2729 70.6716 16.4659 66.506C14.4461 61.9695 13.4188 56.4231 13.4188 50.0272C13.4188 39.8675 17.2743 32.274 24.8762 27.4579C31.2972 23.3879 40.3951 21.3242 51.9138 21.3242C63.4325 21.3242 72.53 23.3879 78.9514 27.4579C86.5533 32.2748 90.4088 39.8683 90.4088 50.0272C90.4088 56.4231 89.3898 61.9695 87.3769 66.5167H87.3777C85.5691 70.6815 82.6794 74.2871 79.0076 76.959C72.7181 81.5336 63.8563 83.7568 51.9291 83.7568H51.9299ZM51.9299 23.4508C40.819 23.4508 32.1055 25.4036 26.0303 29.2532C19.0766 33.6552 15.5469 40.6468 15.5469 50.027C15.5469 71.5886 27.1107 81.6283 51.9297 81.6283C76.7488 81.6283 88.2912 71.588 88.2912 50.027C88.2912 40.6462 84.7698 33.6546 77.8232 29.2532C71.7465 25.4036 63.0313 23.4508 51.9294 23.4508H51.9299Z" fill="url(#paint2_linear_5052_75711)"/>
<path d="M60.6526 96.3546C60.0652 96.3546 59.5887 95.8781 59.5887 95.2907V95.0779C59.5887 94.4906 60.0652 94.0141 60.6526 94.0141C61.24 94.0141 61.7164 94.4905 61.7164 95.0779V95.2907C61.7164 95.5726 61.6047 95.8431 61.4049 96.043C61.205 96.2428 60.9345 96.3546 60.6526 96.3546Z" fill="url(#paint3_linear_5052_75711)"/>
<path d="M26.3979 92.9503C25.8106 92.9503 25.3341 92.4738 25.3341 91.8864V91.6737C25.3341 91.0863 25.8105 90.6098 26.3979 90.6098C26.9853 90.6098 27.4618 91.0863 27.4618 91.6737V91.8864C27.4618 92.1684 27.3501 92.4389 27.1502 92.6387C26.9504 92.8386 26.6799 92.9503 26.3979 92.9503Z" fill="url(#paint4_linear_5052_75711)"/>
<path d="M69.3773 95.2905C68.7899 95.2905 68.3134 94.814 68.3134 94.2266V94.0139C68.3134 93.4265 68.7899 92.95 69.3773 92.95C69.9647 92.95 70.4411 93.4265 70.4411 94.0139V94.2266C70.4411 94.5085 70.3294 94.7791 70.1295 94.9789C69.9297 95.1788 69.6592 95.2905 69.3773 95.2905Z" fill="url(#paint5_linear_5052_75711)"/>
<path d="M67.7101 71.4995C64.8644 71.4965 62.16 70.2624 60.2929 68.1143C58.4266 65.9669 57.581 63.1167 57.9745 60.2981C58.3681 57.4806 59.9624 54.9706 62.3454 53.4167C64.7292 51.8619 67.6683 51.4159 70.4063 52.1925C73.1433 52.9691 75.411 54.8924 76.6229 57.4668C77.8357 60.0412 77.8744 63.014 76.7293 65.6187C76.6267 65.8923 76.4162 66.1111 76.1472 66.2243C75.8782 66.3383 75.5742 66.336 75.3068 66.2198C75.04 66.1028 74.8318 65.8809 74.7331 65.6066C74.6335 65.3322 74.6518 65.029 74.7825 64.7677C75.6829 62.7228 75.6533 60.3876 74.7019 58.3657C73.7505 56.3443 71.9709 54.833 69.8212 54.2228C67.6714 53.6126 65.3629 53.9637 63.4914 55.184C61.6198 56.4052 60.3682 58.3763 60.0597 60.589C59.7519 62.8026 60.4168 65.0405 61.8834 66.7266C63.3507 68.4121 65.4754 69.3802 67.7101 69.381C68.2975 69.381 68.774 69.8567 68.774 70.4448C68.774 71.0322 68.2975 71.5087 67.7101 71.5087L67.7101 71.4995Z" fill="url(#paint6_linear_5052_75711)"/>
<path d="M45.4832 74.5731C44.2544 74.5731 43.0698 74.1179 42.1586 73.2942C41.2468 72.4705 40.6738 71.3382 40.5507 70.1156C40.4269 68.8937 40.762 67.6688 41.49 66.6802C42.2179 65.6909 43.2878 65.007 44.4915 64.7615C45.6952 64.5168 46.9467 64.7273 48.0046 65.3527C49.0615 65.9781 49.8488 66.9743 50.2128 68.1475C50.3891 68.7083 50.0776 69.3063 49.516 69.4826C48.9553 69.6589 48.3572 69.3466 48.1809 68.7858C47.9613 68.0677 47.4651 67.4667 46.8018 67.1149C46.1384 66.7638 45.3626 66.6901 44.6444 66.9112C43.9271 67.1323 43.3276 67.6301 42.9765 68.2942C42.6262 68.9583 42.5548 69.7342 42.7767 70.4515C42.9993 71.1681 43.4978 71.7676 44.1619 72.1172C44.8268 72.466 45.6026 72.5366 46.3192 72.3132C46.8808 72.1369 47.4781 72.4493 47.6544 73.01C47.8307 73.5708 47.5191 74.1689 46.9576 74.3452C46.4804 74.4948 45.9834 74.5716 45.4834 74.5731L45.4832 74.5731Z" fill="url(#paint7_linear_5052_75711)"/>
<path fill-rule="evenodd" clip-rule="evenodd" d="M51.4649 91.645H52.6458L52.648 91.6467C56.6344 91.6467 60.3717 91.4584 63.8446 91.0839C64.0444 92.4195 64.3325 95.1192 64.1321 98.7299C60.6025 99.2253 56.624 99.5144 52.1452 99.5144H51.9325C43.5996 99.5144 32.0653 98.449 23.0046 93.5725C22.9556 90.5149 23.4214 88.299 23.7631 87.0998C24.705 87.5072 25.6892 87.8876 26.7149 88.2407C33.2885 90.4961 41.6161 91.645 51.4649 91.645ZM21.809 86.1857C18.7206 84.6244 16.1569 82.7375 14.1466 80.5469C14.0626 80.455 13.98 80.3632 13.8988 80.2713V85.6466C14.3392 86.4098 16.245 89.3661 20.8777 92.3257C20.9554 89.4109 21.4548 87.3201 21.809 86.1857ZM11.7712 77.384C9.13881 73.0207 9.28885 69.2501 9.32518 68.7253V62.5434H7.87136C6.59232 62.5434 5.51006 61.7485 4.99065 60.5671C4.95734 60.5483 4.92493 60.5277 4.89358 60.5053C1.87235 58.3304 0 54.0667 0 49.3753C0 44.7772 1.82144 40.5516 4.75527 38.3493C4.82376 38.298 4.8964 38.2562 4.97163 38.2236C5.48362 37.0189 6.57636 36.2051 7.8706 36.2051H9.78978C12.8451 15.746 30.5983 4.9553e-05 51.9719 4.9553e-05H52.1444C59.6125 -0.0113487 66.9529 1.94383 73.4259 5.66805C79.8992 9.3929 85.2785 14.7563 89.0217 21.2183C91.7077 25.856 93.484 30.9424 94.2767 36.2052H96.1269C97.4243 36.2052 98.547 37.0288 99.0807 38.2216C99.0893 38.2274 99.0979 38.2334 99.1064 38.2395C102.13 40.4144 104 44.6802 104 49.3719C104 53.97 102.179 58.1934 99.2447 60.3955V60.3947C99.1983 60.4299 99.1493 60.461 99.0983 60.4878C98.5719 61.7017 97.4385 62.5435 96.1269 62.5435L96.1269 62.5434H94.7512V68.7166C94.7893 69.2471 94.9441 73.028 92.3054 77.3987V85.9141C92.3046 86.0737 92.2689 86.2302 92.2005 86.3738C92.1238 86.5334 90.2513 90.3572 84.3009 94.1422C78.6914 97.7107 71.9605 99.6557 65.4843 100.664C65.3756 100.701 65.2592 100.722 65.1383 100.722L65.1383 100.722H65.1042C60.4697 101.418 55.9798 101.64 52.1413 101.64L52.1419 101.64H51.9291C43.1784 101.64 31.0326 100.485 21.5125 95.1779C21.4577 95.153 21.4054 95.1237 21.3561 95.0902C20.8196 94.7877 20.2917 94.4719 19.7734 94.1422C13.8274 90.3645 11.9591 86.5483 11.8742 86.3748L11.8737 86.3738H11.873C11.8054 86.2302 11.7704 86.0737 11.7712 85.9141V77.384ZM13.6127 76.3035C11.2056 72.3061 11.4475 68.8954 11.4525 68.8485C11.4547 68.8166 11.4547 68.7847 11.4525 68.7528V42.4816C11.4525 20.2305 29.6312 2.12645 51.971 2.12645L52.1436 2.12523C59.2387 2.11472 66.2114 3.97092 72.361 7.50902C78.5099 11.0471 83.6202 16.1413 87.1756 22.2804C90.7318 28.4188 92.6094 35.3861 92.6185 42.4804V68.7535L92.6184 68.7607C92.6183 68.7673 92.6179 68.7732 92.6176 68.7792C92.617 68.788 92.6164 68.797 92.6165 68.8088C92.6166 68.8137 92.6167 68.8192 92.617 68.8253C92.6173 68.8317 92.6178 68.8388 92.6185 68.847C92.6222 68.8883 92.8679 72.3052 90.4621 76.3051C90.3684 76.4058 90.294 76.5248 90.2449 76.6562C89.723 77.4771 89.0877 78.3189 88.3146 79.1578C80.4322 87.7171 64.5635 89.5149 52.6379 89.5149H51.457C39.5285 89.5149 23.6568 87.7171 15.7609 79.1555C14.9887 78.3176 14.3539 77.4773 13.8322 76.6578C13.7827 76.5251 13.7075 76.405 13.6127 76.3035ZM90.1777 80.2839C90.1021 80.3693 90.0253 80.4548 89.9473 80.5403C86.9686 83.8018 82.7429 86.3913 77.3941 88.2341C74.0305 89.3923 70.2084 90.2586 65.959 90.8286C66.1676 92.2368 66.439 94.8719 66.2779 98.3946C83.9473 95.3435 89.3908 87.0203 90.1777 85.6503V80.2839ZM2.12765 49.3753C2.12765 46.2473 3.06863 43.3528 4.66015 41.3869L4.66078 57.3506C3.08417 55.3776 2.12765 52.4481 2.12765 49.3753ZM9.32518 60.4156V42.4833C9.32518 41.0832 9.39354 39.6986 9.52709 38.3328H7.87118C7.2648 38.3328 6.78835 38.9711 6.78835 39.7902V58.9582C6.78835 59.775 7.2648 60.4156 7.87118 60.4156H9.32518ZM101.879 49.3711C101.879 52.4533 100.964 55.3115 99.4119 57.2759V41.4808C100.949 43.4538 101.879 46.3438 101.879 49.3711ZM94.5425 38.3328C94.6793 39.7088 94.7493 41.0942 94.7512 42.4843V60.4157H96.1269C96.7546 60.4157 97.2842 59.75 97.2842 58.9583L97.285 39.7903C97.285 39.0008 96.7553 38.3328 96.1277 38.3328H94.5425ZM34.6109 81.5976C34.0691 81.6014 33.6109 81.1971 33.5471 80.6591C33.4034 79.4273 33.3328 78.1872 33.3343 76.9463C33.3343 59.6863 47.377 45.6465 64.6341 45.6465V45.6473C74.2815 45.6184 83.397 50.0637 89.3159 57.683C89.6777 58.1458 89.5956 58.8152 89.1328 59.1769C88.6701 59.5387 88.0014 59.4566 87.6389 58.9938C82.1259 51.8935 73.6328 47.7498 64.6436 47.7749C48.5562 47.7749 35.4719 60.8623 35.4719 76.9465C35.472 78.1036 35.5396 79.2592 35.6741 80.4078C35.7432 80.9914 35.326 81.5195 34.7425 81.5887C34.6991 81.5948 34.6558 81.5978 34.6125 81.597L34.6109 81.5976ZM51.9206 82.5731C52.0217 83.0678 52.4563 83.4234 52.9609 83.4242L52.9608 83.4242C53.0391 83.4211 53.1166 83.4097 53.1926 83.3907C53.4684 83.3315 53.7101 83.1651 53.8628 82.928C54.0163 82.6909 54.0687 82.4029 54.0094 82.1263H54.0102L54.01 82.1252C53.9959 82.0528 53.4081 79.0237 56.47 77.3603C58.3721 76.3284 60.8295 76.32 62.4466 77.3368C63.6806 78.1112 64.2885 79.3946 64.208 81.0519C64.1798 81.6401 64.6327 82.1385 65.2209 82.1674C65.8083 82.1955 66.3075 81.7419 66.3356 81.1545C66.442 78.7266 65.4655 76.7243 63.5696 75.5351C61.2975 74.105 58.0316 74.0883 55.4465 75.4903C51.872 77.4301 51.5779 80.9713 51.9206 82.5731Z" fill="url(#paint8_linear_5052_75711)"/>
<path d="M73.8455 69.3344C73.4147 69.3352 73.0256 69.0761 72.8607 68.6779C72.6958 68.2797 72.787 67.8215 73.0925 67.5175L73.2437 67.3686C73.4412 67.1634 73.714 67.0464 73.999 67.0434C74.2847 67.0411 74.559 67.1536 74.7612 67.3549C74.9625 67.5571 75.075 67.8314 75.0727 68.1171C75.0697 68.4021 74.9527 68.6749 74.7475 68.8724L74.5985 69.0236C74.3987 69.2235 74.1282 69.3352 73.8455 69.3344L73.8455 69.3344Z" fill="url(#paint9_linear_5052_75711)"/>
<path d="M51.8074 34.8521H49.4032C48.8151 34.8521 48.3394 34.3757 48.3394 33.7883C48.3394 33.2009 48.815 32.7244 49.4032 32.7244H51.8074C52.3948 32.7244 52.8712 33.2009 52.8712 33.7883C52.8712 34.3757 52.3948 34.8521 51.8074 34.8521Z" fill="url(#paint10_linear_5052_75711)"/>
<path d="M61.2906 34.8521H58.5947C58.0073 34.8521 57.5308 34.3757 57.5308 33.7883C57.5308 33.2009 58.0073 32.7244 58.5947 32.7244H61.2906C61.878 32.7244 62.3545 33.2009 62.3545 33.7883C62.3545 34.3757 61.878 34.8521 61.2906 34.8521Z" fill="url(#paint11_linear_5052_75711)"/>
<path d="M55.2486 40.8884C54.6612 40.8884 54.1848 40.4119 54.1848 39.8245V37.1581C54.1848 36.5707 54.6612 36.0943 55.2486 36.0943C55.836 36.0943 56.3124 36.5707 56.3124 37.1581V39.8245C56.3124 40.1064 56.2007 40.377 56.0009 40.5768C55.801 40.7759 55.5305 40.8884 55.2486 40.8884Z" fill="url(#paint12_linear_5052_75711)"/>
<path d="M55.2486 31.763C54.6612 31.763 54.1848 31.2866 54.1848 30.6992V27.9332C54.1848 27.345 54.6612 26.8693 55.2486 26.8693C55.836 26.8693 56.3124 27.345 56.3124 27.9332V30.6992C56.3124 30.9811 56.2007 31.2516 56.0009 31.4514C55.801 31.6505 55.5305 31.763 55.2486 31.763Z" fill="url(#paint13_linear_5052_75711)"/>
<path d="M55.2816 38.0852C54.173 38.086 53.1099 37.646 52.3258 36.8626C51.5416 36.0791 51.1008 35.0168 51.1008 33.908C51.1008 32.7993 51.5408 31.7363 52.3242 30.9529C53.1077 30.1688 54.1708 29.728 55.2788 29.728C56.3874 29.728 57.4505 30.168 58.2339 30.9514C59.018 31.7356 59.458 32.7987 59.458 33.9065C59.4573 35.0144 59.0165 36.0759 58.2339 36.8595C57.4512 37.6429 56.3896 38.0837 55.2817 38.0852L55.2816 38.0852ZM55.2816 31.8572V31.8579C54.4519 31.8572 53.7034 32.3564 53.385 33.1231C53.0666 33.8898 53.2421 34.7721 53.8295 35.3594C54.4161 35.9461 55.2991 36.1216 56.065 35.8032C56.8318 35.4856 57.3318 34.7363 57.3302 33.9065C57.3295 32.7758 56.4131 31.8587 55.2817 31.8579L55.2816 31.8572Z" fill="url(#paint14_linear_5052_75711)"/>
<defs>
<linearGradient id="paint0_linear_5052_75711" x1="4.73504" y1="86.77" x2="11.6416" y2="90.1929" gradientUnits="userSpaceOnUse">
<stop stop-color="#7B42A9"/>
<stop offset="1" stop-color="#ED0376"/>
</linearGradient>
<linearGradient id="paint1_linear_5052_75711" x1="93.5536" y1="2.52271" x2="103.456" y2="7.43025" gradientUnits="userSpaceOnUse">
<stop stop-color="#7B42A9"/>
<stop offset="1" stop-color="#ED0376"/>
</linearGradient>
<linearGradient id="paint2_linear_5052_75711" x1="51.9138" y1="21.3242" x2="103.871" y2="53.0785" gradientUnits="userSpaceOnUse">
<stop stop-color="#7B42A9"/>
<stop offset="1" stop-color="#ED0376"/>
</linearGradient>
<linearGradient id="paint3_linear_5052_75711" x1="60.6526" y1="94.0141" x2="62.292" y2="94.7527" gradientUnits="userSpaceOnUse">
<stop stop-color="#7B42A9"/>
<stop offset="1" stop-color="#ED0376"/>
</linearGradient>
<linearGradient id="paint4_linear_5052_75711" x1="26.3979" y1="90.6098" x2="28.0374" y2="91.3485" gradientUnits="userSpaceOnUse">
<stop stop-color="#7B42A9"/>
<stop offset="1" stop-color="#ED0376"/>
</linearGradient>
<linearGradient id="paint5_linear_5052_75711" x1="69.3773" y1="92.95" x2="71.0167" y2="93.6887" gradientUnits="userSpaceOnUse">
<stop stop-color="#7B42A9"/>
<stop offset="1" stop-color="#ED0376"/>
</linearGradient>
<linearGradient id="paint6_linear_5052_75711" x1="67.7205" y1="51.8188" x2="82.3689" y2="59.0754" gradientUnits="userSpaceOnUse">
<stop stop-color="#7B42A9"/>
<stop offset="1" stop-color="#ED0376"/>
</linearGradient>
<linearGradient id="paint7_linear_5052_75711" x1="45.3938" y1="64.6621" x2="52.6895" y2="68.2142" gradientUnits="userSpaceOnUse">
<stop stop-color="#7B42A9"/>
<stop offset="1" stop-color="#ED0376"/>
</linearGradient>
<linearGradient id="paint8_linear_5052_75711" x1="52" y1="-8.14931e-06" x2="128.681" y2="38.8858" gradientUnits="userSpaceOnUse">
<stop stop-color="#7B42A9"/>
<stop offset="1" stop-color="#ED0376"/>
</linearGradient>
<linearGradient id="paint9_linear_5052_75711" x1="73.9262" y1="67.0434" x2="75.632" y2="67.8895" gradientUnits="userSpaceOnUse">
<stop stop-color="#7B42A9"/>
<stop offset="1" stop-color="#ED0376"/>
</linearGradient>
<linearGradient id="paint10_linear_5052_75711" x1="50.6053" y1="32.7244" x2="52.5921" y2="34.8217" gradientUnits="userSpaceOnUse">
<stop stop-color="#7B42A9"/>
<stop offset="1" stop-color="#ED0376"/>
</linearGradient>
<linearGradient id="paint11_linear_5052_75711" x1="59.9427" y1="32.7244" x2="61.9189" y2="34.945" gradientUnits="userSpaceOnUse">
<stop stop-color="#7B42A9"/>
<stop offset="1" stop-color="#ED0376"/>
</linearGradient>
<linearGradient id="paint12_linear_5052_75711" x1="55.2486" y1="36.0943" x2="57.1298" y2="36.5081" gradientUnits="userSpaceOnUse">
<stop stop-color="#7B42A9"/>
<stop offset="1" stop-color="#ED0376"/>
</linearGradient>
<linearGradient id="paint13_linear_5052_75711" x1="55.2486" y1="26.8693" x2="57.1333" y2="27.2754" gradientUnits="userSpaceOnUse">
<stop stop-color="#7B42A9"/>
<stop offset="1" stop-color="#ED0376"/>
</linearGradient>
<linearGradient id="paint14_linear_5052_75711" x1="55.2794" y1="29.728" x2="61.4985" y2="32.8102" gradientUnits="userSpaceOnUse">
<stop stop-color="#7B42A9"/>
<stop offset="1" stop-color="#ED0376"/>
</linearGradient>
</defs>
</svg>
