<svg width="160" height="241" viewBox="0 0 160 241" fill="none" xmlns="http://www.w3.org/2000/svg">
<circle cx="80" cy="161" r="80" fill="#EBF5FA"/>
<mask id="mask0_6646_102492" style="mask-type:alpha" maskUnits="userSpaceOnUse" x="0" y="0" width="160" height="241">
<path d="M0 57.2107C0 25.6141 35.8172 0 80 0C124.183 0 160 25.6141 160 57.2107V183.789C160 215.386 124.183 241 80 241C35.8172 241 0 215.386 0 183.789V57.2107Z" fill="#C4C4C4"/>
</mask>
<g mask="url(#mask0_6646_102492)">
<path d="M104.071 193.014L100.938 174.079C100.875 173.696 100.966 173.303 101.191 172.987C101.416 172.671 101.756 172.458 102.137 172.394L116.365 170.016C116.746 169.952 117.137 170.044 117.451 170.27C117.766 170.496 117.978 170.838 118.042 171.221L121.174 190.155C121.237 190.538 121.147 190.931 120.922 191.247C120.697 191.563 120.357 191.777 119.975 191.841L105.748 194.219C105.367 194.282 104.976 194.191 104.662 193.965C104.347 193.739 104.135 193.397 104.071 193.014Z" fill="#3F3D56"/>
<path d="M104.216 187.114L102.202 174.942C102.143 174.583 102.228 174.215 102.439 173.919C102.65 173.623 102.968 173.423 103.325 173.363L115.552 171.319C115.909 171.26 116.275 171.345 116.57 171.557C116.864 171.769 117.063 172.089 117.123 172.448L119.911 189.297C119.97 189.656 119.885 190.023 119.674 190.319C119.464 190.615 119.145 190.815 118.788 190.875L111.213 192.141C109.622 192.405 107.992 192.024 106.681 191.082C105.369 190.139 104.483 188.712 104.216 187.114Z" fill="white"/>
<path d="M104.744 178.006C104.686 177.655 104.769 177.296 104.975 177.006C105.181 176.717 105.492 176.522 105.841 176.463L114.323 175.046C114.496 175.017 114.673 175.022 114.843 175.062C115.014 175.102 115.175 175.175 115.318 175.277C115.46 175.38 115.581 175.509 115.674 175.659C115.767 175.808 115.829 175.975 115.858 176.148C115.887 176.322 115.881 176.5 115.842 176.671C115.802 176.843 115.729 177.005 115.627 177.148C115.525 177.291 115.397 177.413 115.248 177.506C115.099 177.599 114.934 177.662 114.761 177.691L106.279 179.109C105.93 179.167 105.572 179.083 105.285 178.876C104.997 178.67 104.802 178.357 104.744 178.006Z" fill="#4C88FF"/>
<path d="M105.425 182.123C105.367 181.772 105.45 181.413 105.656 181.124C105.862 180.834 106.173 180.639 106.522 180.58L115.004 179.163C115.177 179.134 115.354 179.139 115.524 179.179C115.695 179.219 115.856 179.292 115.999 179.395C116.141 179.497 116.262 179.627 116.355 179.776C116.448 179.926 116.51 180.092 116.539 180.266C116.568 180.439 116.562 180.617 116.523 180.789C116.483 180.96 116.41 181.122 116.308 181.265C116.206 181.409 116.077 181.53 115.929 181.623C115.78 181.717 115.615 181.779 115.442 181.808L106.96 183.226C106.611 183.284 106.253 183.2 105.965 182.994C105.678 182.787 105.483 182.474 105.425 182.123Z" fill="#4C88FF"/>
<path d="M106.106 186.236C106.048 185.886 106.131 185.526 106.337 185.237C106.543 184.948 106.854 184.752 107.203 184.694L115.685 183.276C116.034 183.218 116.392 183.301 116.68 183.508C116.968 183.715 117.162 184.028 117.22 184.379C117.278 184.73 117.195 185.089 116.989 185.379C116.783 185.668 116.472 185.863 116.123 185.922L107.641 187.339C107.292 187.397 106.934 187.314 106.646 187.107C106.359 186.9 106.164 186.587 106.106 186.236Z" fill="#4C88FF"/>
<path d="M97.6473 175.169C97.2768 174.75 97.0021 174.254 96.8428 173.717C96.6835 173.179 96.6433 172.613 96.7251 172.059C96.8069 171.504 97.0088 170.974 97.3164 170.507C97.624 170.039 98.0299 169.644 98.5055 169.351L93.543 145.602L100.12 148.143L103.928 170.833C104.365 171.668 104.482 172.636 104.256 173.553C104.03 174.469 103.478 175.27 102.704 175.805C101.93 176.339 100.987 176.57 100.055 176.453C99.1235 176.335 98.2666 175.879 97.6473 175.169Z" fill="white"/>
<path d="M95.4575 250.282L100.871 250.282L103.447 229.293L95.4565 229.293L95.4575 250.282Z" fill="white"/>
<path d="M46.5388 243.21L51.3843 245.638L63.0048 228.008L55.8535 224.426L46.5388 243.21Z" fill="white"/>
<path d="M97.8562 154.961L63.4327 155.864L64.0314 172.711C64.0314 172.711 63.4327 177.224 64.6301 178.428C65.8274 179.631 66.4261 179.631 65.8274 181.737C65.2287 183.843 63.681 203.965 63.681 203.965C63.681 203.965 49.5526 229.074 50.1513 229.675C50.75 230.277 51.3486 229.675 50.75 231.18C50.1513 232.684 49.5526 232.082 50.1513 232.684C50.6816 233.259 51.1812 233.861 51.648 234.489H61.4052C61.4052 234.489 61.9508 231.48 61.9508 231.18C61.9508 230.879 62.5495 229.074 62.5495 228.773C62.5495 228.472 79.5968 210.318 79.5968 210.318L83.1888 180.233L91.8695 209.717C91.8695 209.717 91.8695 235.59 92.4681 236.192C93.0668 236.794 93.0668 236.493 92.7675 237.696C92.4681 238.9 91.2708 238.599 92.1688 239.502C93.0668 240.404 93.3661 238.9 93.0668 240.404L92.7675 241.908L104.268 242.037C104.268 242.037 105.465 239.502 104.866 238.599C104.268 237.696 104.304 237.943 105.034 236.466C105.764 234.989 106.064 234.688 105.764 234.387C105.465 234.086 105.465 232.486 105.465 232.486C105.465 232.486 101.149 173.313 101.149 172.411C101.126 171.946 101.211 171.483 101.397 171.057V169.832L100.251 165.491L97.8562 154.961Z" fill="#293E69"/>
<path d="M80.0319 95.875L97.2743 130.923L93.9009 173.458L71.8678 171.435L67.9167 100.994L80.0319 95.875Z" fill="#293E69"/>
<path d="M104.243 168.761L94.1678 167.835L94.1522 167.707L87.3909 111.439L88.904 107.222C89.2661 106.221 89.8796 105.331 90.685 104.639C91.4905 103.947 92.4603 103.475 93.5005 103.271V103.271C94.2928 103.118 95.1076 103.123 95.8978 103.288C96.6879 103.452 97.4379 103.772 98.1045 104.229C98.7711 104.687 99.3411 105.272 99.7817 105.951C100.222 106.631 100.525 107.391 100.672 108.189L102.481 118.012L105.048 151.217L104.243 168.761Z" fill="#293E69"/>
<path d="M78.011 101.074L80.043 96.1875L86.332 96.2985L92.8898 105.622L99.7729 134.715C99.7729 134.715 102.245 155.968 99.7729 157.09C97.3007 158.212 88.9215 156.826 88.9215 156.826L78.011 101.074Z" fill="#4C88FF"/>
<path d="M86.332 96.2969C86.332 96.2969 99.8793 104.168 100.409 108.276C100.939 112.385 102.713 162.672 102.713 162.672L97.9223 159.561L96.613 141.233L90.7662 103.709L86.332 96.2969Z" fill="#293E69"/>
<path d="M83.134 94.0089C88.2332 94.0089 92.3669 89.8542 92.3669 84.7291C92.3669 79.604 88.2332 75.4492 83.134 75.4492C78.0348 75.4492 73.9011 79.604 73.9011 84.7291C73.9011 89.8542 78.0348 94.0089 83.134 94.0089Z" fill="white"/>
<path d="M72.6614 78.6295C73.6981 77.0175 75.6436 75.9431 77.5297 76.245C77.7052 75.0352 78.2077 73.897 78.9822 72.9544C79.7568 72.0117 80.7738 71.3007 81.9226 70.8988C83.0714 70.4968 84.3078 70.4194 85.4974 70.6748C86.6869 70.9303 87.7839 71.5089 88.6689 72.3476C88.96 72.1416 89.299 72.0147 89.6532 71.979C90.0074 71.9434 90.3647 72.0003 90.6906 72.1442C91.3398 72.4409 91.9045 72.8965 92.3331 73.4693C93.4153 74.8258 94.1114 76.4519 94.3471 78.1744C94.5828 79.8969 94.3494 81.6515 93.6717 83.2513C93.9022 82.4091 93.0625 81.6167 92.214 81.4277C91.3655 81.2387 90.4755 81.4175 89.6151 81.2945C88.5123 81.1367 87.521 80.4938 86.4165 80.3491C85.4882 80.2274 84.5547 80.4666 83.6495 80.7064C82.7443 80.9462 81.8132 81.1907 80.8836 81.0797C79.954 80.9688 78.7565 84.5097 78.7726 87.0037C78.7757 87.4763 78.6788 88.0831 78.2192 88.1834C77.6533 88.3069 77.3254 87.5218 76.7867 87.3079C76.5385 87.2364 76.2723 87.2645 76.0443 87.3864C75.8162 87.5083 75.6442 87.7143 75.5644 87.9612C75.4965 88.2122 75.4892 88.4758 75.5432 88.7302C75.5972 88.9845 75.7108 89.2222 75.8746 89.4235C76.2057 89.8226 76.5988 90.1653 77.0386 90.4384L76.8167 90.6239C76.4477 91.1138 75.6823 91.1351 75.1504 90.8319C74.6418 90.4857 74.2299 90.0143 73.9539 89.4627C72.9699 87.8177 72.1067 86.0649 71.7594 84.1774C71.4121 82.2899 71.6247 80.2416 72.6614 78.6295Z" fill="#293E69"/>
<path d="M52.5506 147.355L70.9967 127.464C71.3705 127.062 71.8878 126.825 72.435 126.806C72.9822 126.787 73.5147 126.986 73.9157 127.361L88.8616 141.363C89.2617 141.738 89.4972 142.258 89.5164 142.808C89.5357 143.358 89.3371 143.894 88.9642 144.297L70.5181 164.187C70.1443 164.589 69.627 164.826 69.0798 164.845C68.5326 164.865 68.0001 164.665 67.5991 164.29L52.6532 150.289C52.2531 149.913 52.0176 149.393 51.9983 148.843C51.9791 148.293 52.1777 147.758 52.5506 147.355Z" fill="#E6E6E6"/>
<path d="M59.2687 142.421L71.1275 129.633C71.4776 129.257 71.962 129.035 72.4745 129.017C72.987 128.999 73.4857 129.186 73.8612 129.537L86.706 141.57C87.0807 141.922 87.3013 142.409 87.3194 142.924C87.3374 143.439 87.1514 143.94 86.8021 144.318L70.3876 162.018C70.0375 162.394 69.5531 162.616 69.0406 162.634C68.5281 162.652 68.0294 162.465 67.6538 162.114L59.6968 154.66C58.0276 153.093 57.0451 150.924 56.9648 148.629C56.8846 146.335 57.7131 144.102 59.2687 142.421Z" fill="white"/>
<path d="M69.8982 135.15C70.2403 134.782 70.7137 134.566 71.2145 134.548C71.7153 134.53 72.2027 134.713 72.5696 135.056L81.48 143.404C81.8467 143.747 82.0626 144.223 82.0802 144.726C82.0978 145.23 81.9157 145.72 81.5739 146.089C81.2321 146.457 80.7586 146.674 80.2576 146.692C79.7566 146.709 79.2692 146.526 78.9025 146.183L69.9921 137.835C69.6259 137.492 69.4104 137.016 69.3928 136.512C69.3752 136.009 69.5569 135.519 69.8982 135.15Z" fill="#E6E6E6"/>
<path d="M65.889 139.475C66.2311 139.107 66.7044 138.89 67.2053 138.872C67.7061 138.855 68.1934 139.037 68.5604 139.38L77.4707 147.728C77.6523 147.898 77.7987 148.102 77.9017 148.329C78.0047 148.556 78.0622 148.801 78.0709 149.051C78.0797 149.3 78.0394 149.549 77.9525 149.782C77.8657 150.016 77.7339 150.23 77.5646 150.413C77.3954 150.595 77.192 150.742 76.9662 150.846C76.7403 150.949 76.4964 151.007 76.2484 151.016C76.0003 151.025 75.7529 150.984 75.5204 150.897C75.2879 150.81 75.0748 150.677 74.8932 150.507L65.9829 142.16C65.6167 141.816 65.4011 141.34 65.3835 140.837C65.3659 140.333 65.5477 139.843 65.889 139.475Z" fill="#E6E6E6"/>
<path d="M61.8795 143.799C62.2215 143.431 62.6949 143.214 63.1957 143.196C63.6965 143.179 64.1839 143.361 64.5508 143.705L73.4612 152.052C73.8279 152.396 74.0438 152.871 74.0614 153.375C74.079 153.878 73.8969 154.368 73.5551 154.737C73.2133 155.106 72.7398 155.323 72.2389 155.34C71.7379 155.358 71.2504 155.175 70.8837 154.831L61.9733 146.484C61.6071 146.14 61.3916 145.664 61.374 145.161C61.3564 144.658 61.5382 144.168 61.8795 143.799Z" fill="#E6E6E6"/>
<path d="M83.5594 167.506L77.182 176.684L76.8848 177.044C76.3682 177.668 75.6548 178.096 74.8629 178.257C74.7507 178.28 74.6381 178.296 74.525 178.308C74.3853 178.322 74.2449 178.328 74.1046 178.325C74.0242 178.324 73.9438 178.319 73.8638 178.312C73.3986 178.272 72.9459 178.139 72.5319 177.922L69.8111 176.012C69.5944 175.86 69.4399 175.635 69.3761 175.377C69.3444 175.25 69.3354 175.118 69.3495 174.987C69.3695 174.804 69.4351 174.629 69.5401 174.479L77.3928 163.177C77.5595 162.938 77.8138 162.775 78.0999 162.724C78.386 162.673 78.6805 162.738 78.919 162.905L83.2885 165.972C83.2989 165.979 83.3088 165.987 83.319 165.994C83.3255 165.999 83.332 166.004 83.3382 166.009C83.347 166.016 83.3555 166.023 83.3636 166.03C83.3744 166.039 83.3846 166.047 83.3947 166.057C83.4038 166.065 83.413 166.074 83.422 166.082L83.4273 166.087C83.4387 166.098 83.45 166.11 83.4607 166.121C83.4716 166.133 83.4824 166.145 83.4926 166.157C83.4999 166.165 83.5074 166.174 83.5146 166.183L83.5153 166.184C83.5363 166.211 83.5562 166.238 83.5748 166.266C83.5807 166.275 83.5864 166.284 83.5918 166.293L83.5943 166.297C83.5988 166.304 83.603 166.311 83.6072 166.319C83.6198 166.34 83.6317 166.363 83.6429 166.385C83.6613 166.423 83.6776 166.461 83.6917 166.501C83.6963 166.513 83.7004 166.526 83.7043 166.539C83.7077 166.549 83.711 166.56 83.7137 166.571L83.7145 166.573L83.7156 166.577C83.7185 166.586 83.7209 166.596 83.7231 166.605C83.7277 166.622 83.7316 166.64 83.7352 166.658C83.7363 166.663 83.7373 166.668 83.7382 166.673C83.7393 166.678 83.74 166.683 83.7409 166.688C83.7419 166.693 83.7426 166.698 83.7434 166.702L83.7448 166.71C83.747 166.725 83.7488 166.74 83.7503 166.754C83.7523 166.772 83.754 166.791 83.7547 166.809C83.7558 166.824 83.7564 166.839 83.7567 166.854C83.7571 166.867 83.757 166.881 83.7568 166.894C83.7569 166.898 83.7567 166.901 83.7564 166.905C83.7563 166.919 83.7555 166.933 83.7547 166.947C83.7527 166.982 83.7486 167.016 83.7432 167.051C83.741 167.064 83.7388 167.076 83.7362 167.089C83.7333 167.104 83.7299 167.12 83.7264 167.135C83.7251 167.14 83.7235 167.146 83.7221 167.152C83.72 167.16 83.7176 167.168 83.7153 167.177C83.7126 167.186 83.7099 167.195 83.707 167.204L83.7 167.226C83.6957 167.239 83.6911 167.252 83.6863 167.265C83.6834 167.272 83.6805 167.28 83.6772 167.287C83.6552 167.342 83.6289 167.395 83.5985 167.446C83.5945 167.452 83.591 167.458 83.587 167.464C83.5782 167.478 83.569 167.492 83.5594 167.506Z" fill="white"/>
<path d="M79.2406 167.854C79.7576 167.854 80.1767 167.433 80.1767 166.914C80.1767 166.394 79.7576 165.973 79.2406 165.973C78.7236 165.973 78.3044 166.394 78.3044 166.914C78.3044 167.433 78.7236 167.854 79.2406 167.854Z" fill="#4C88FF"/>
<path d="M68.6654 176.856C68.2948 176.437 68.0202 175.942 67.8609 175.404C67.7015 174.867 67.6614 174.301 67.7432 173.746C67.825 173.192 68.0268 172.662 68.3345 172.194C68.6421 171.726 69.048 171.332 69.5236 171.039L64.561 147.289L71.1385 149.831L74.9463 172.52C75.3831 173.356 75.4998 174.324 75.2741 175.24C75.0485 176.156 74.4963 176.958 73.7221 177.492C72.9479 178.027 72.0055 178.257 71.0735 178.14C70.1415 178.023 69.2847 177.566 68.6654 176.856Z" fill="white"/>
<path d="M65.0211 167.218L62.3442 149.883L61.3384 116.59L62.0859 106.611C62.1466 105.802 62.3659 105.014 62.7311 104.291C63.0964 103.567 63.6004 102.924 64.2142 102.397C64.8279 101.871 65.5393 101.472 66.3073 101.223C67.0752 100.974 67.8846 100.88 68.6888 100.947C69.7447 101.037 70.7594 101.401 71.6343 102.002C72.5092 102.603 73.2145 103.421 73.6817 104.377L75.6375 108.406L74.9391 165.208L65.0211 167.218Z" fill="#293E69"/>
<path d="M75.904 88.4883C75.9098 88.3832 75.9413 88.2812 75.9956 88.1912C76.0499 88.1013 76.1255 88.0261 76.2155 87.9724C76.3056 87.9188 76.4074 87.8882 76.512 87.8835C76.6166 87.8787 76.7208 87.8999 76.8153 87.9452C76.9098 87.9905 76.9918 88.0585 77.054 88.1432C77.1162 88.2279 77.1566 88.3267 77.1718 88.4308C77.187 88.5349 77.1765 88.6412 77.1411 88.7403C77.1058 88.8393 77.0467 88.9281 76.9691 88.9988L78.041 90.7693C78.085 90.8419 78.0985 90.9291 78.0785 91.0117C78.0585 91.0943 78.0066 91.1655 77.9344 91.2097C77.8621 91.2539 77.7754 91.2674 77.6932 91.2473C77.611 91.2272 77.5402 91.1751 77.4962 91.1025L76.291 89.1118C76.1705 89.0605 76.0687 88.9731 75.9995 88.8615C75.9302 88.75 75.8969 88.6196 75.904 88.4883Z" fill="white"/>
<path d="M76.6562 89.6926C76.6958 89.7717 76.7917 89.8034 76.8703 89.7636C76.949 89.7237 76.9806 89.6273 76.9409 89.5483L76.6537 88.976C76.6141 88.897 76.5182 88.8652 76.4395 88.9051C76.3609 88.9449 76.3293 89.0413 76.369 89.1203L76.6562 89.6926Z" fill="#293E69"/>
</g>
</svg>
