<svg width="17" height="16" viewBox="0 0 17 16" fill="none" xmlns="http://www.w3.org/2000/svg">
<g opacity="0.3">
<path d="M16.5 8C16.5 12.4183 12.9183 16 8.5 16C4.08172 16 0.5 12.4183 0.5 8C0.5 3.58172 4.08172 0 8.5 0C12.9183 0 16.5 3.58172 16.5 8ZM2.1 8C2.1 11.5346 4.96538 14.4 8.5 14.4C12.0346 14.4 14.9 11.5346 14.9 8C14.9 4.46538 12.0346 1.6 8.5 1.6C4.96538 1.6 2.1 4.46538 2.1 8Z" fill="#EDCEFF"/>
<path d="M9.16046 7.63296C9.16046 7.26815 8.86472 6.97241 8.49991 6.97241C8.13509 6.97241 7.83936 7.26815 7.83936 7.63296V11.8898C7.83936 12.2547 8.13509 12.5504 8.49991 12.5504C8.86472 12.5504 9.16046 12.2547 9.16046 11.8898V7.63296Z" fill="#EDCEFF"/>
<path d="M8.50003 5.72466C9.02698 5.72466 9.45416 5.29749 9.45416 4.77053C9.45416 4.24358 9.02698 3.81641 8.50003 3.81641C7.97308 3.81641 7.5459 4.24358 7.5459 4.77053C7.5459 5.29749 7.97308 5.72466 8.50003 5.72466Z" fill="#EDCEFF"/>
</g>
</svg>
