<svg width="160" height="241" viewBox="0 0 160 241" fill="none" xmlns="http://www.w3.org/2000/svg">
<circle cx="80" cy="161" r="80" fill="#EBF5FA"/>
<mask id="mask0_1302_22996" style="mask-type:alpha" maskUnits="userSpaceOnUse" x="0" y="0" width="160" height="241">
<path d="M0 57.2107C0 25.6141 35.8172 0 80 0C124.183 0 160 25.6141 160 57.2107V183.789C160 215.386 124.183 241 80 241C35.8172 241 0 215.386 0 183.789V57.2107Z" fill="#C4C4C4"/>
</mask>
<g mask="url(#mask0_1302_22996)">
<path d="M63.7949 75.5078C46.0129 76.8019 26.6013 79.1505 12.4141 84.6145L16.9195 115.002C16.9195 115.002 44.4791 105.128 66.9103 105.799L63.7949 75.5078Z" fill="#4C88FF"/>
<g opacity="0.8">
<g opacity="0.8">
<g opacity="0.8">
<path d="M63.7949 75.5078C46.0129 76.8019 26.6013 79.1505 12.4141 84.6145L16.9195 115.002C16.9195 115.002 44.4791 105.128 66.9103 105.799L63.7949 75.5078Z" fill="white"/>
</g>
</g>
</g>
<path d="M62.4985 101.82C62.4985 101.82 62.4506 101.82 62.3068 101.868C62.163 101.868 62.0192 101.916 61.7796 101.916C61.3003 101.964 60.6772 102.06 59.8624 102.156C58.9996 102.252 57.9931 102.395 56.7949 102.539C55.5966 102.731 54.2546 102.875 52.7208 103.114C46.7296 104.025 38.4857 105.559 29.5228 107.907C26.4073 108.722 23.3878 109.537 20.6558 110.4L20.512 110.448V110.304C19.5534 103.354 18.6427 97.3149 17.9238 93.0491C17.5403 90.9402 17.2527 89.2147 17.061 88.0644C16.9652 87.4893 16.8693 87.0579 16.8214 86.7224C16.8214 86.5786 16.7734 86.4827 16.7734 86.3869C16.7734 86.291 16.7734 86.291 16.7734 86.291C16.7734 86.291 16.7734 86.3389 16.8214 86.3869C16.8214 86.4827 16.8693 86.5786 16.9172 86.7224C16.9652 87.0579 17.061 87.4893 17.2048 88.0644C17.4445 89.2147 17.732 90.8923 18.1155 93.0491C18.8824 97.3149 19.8409 103.306 20.7995 110.304L20.6558 110.208C23.4357 109.345 26.4073 108.483 29.5228 107.716C38.4857 105.415 46.7775 103.881 52.7688 103.019C54.2546 102.779 55.6446 102.635 56.8428 102.443C58.041 102.3 59.0476 102.156 59.9103 102.108C60.7251 102.012 61.3961 101.964 61.8754 101.916C62.0672 101.916 62.2589 101.868 62.4027 101.868C62.4506 101.82 62.4985 101.82 62.4985 101.82Z" fill="#4C88FF"/>
<path d="M63.1273 94.3925C63.1273 94.3925 63.0794 94.2008 62.9356 93.7694C62.7918 93.386 62.5043 92.8108 62.025 92.1877C61.5457 91.5646 60.8267 90.8936 59.8681 90.3185C59.6285 90.1747 59.3888 90.0309 59.1012 89.8871C58.8137 89.7912 58.5261 89.6475 58.2385 89.5516C57.6154 89.3599 56.9444 89.264 56.2734 89.3599C55.6024 89.4557 54.8834 89.6954 54.2603 90.1747C53.6372 90.606 53.11 91.2291 52.6307 91.9481C51.6721 93.3381 51.097 95.0156 50.378 96.789C49.9946 97.6517 49.5153 98.5624 48.7005 99.1855C48.317 99.521 47.8377 99.7607 47.3105 99.8565C46.7833 99.9524 46.256 99.8565 45.7288 99.6648C43.7158 98.85 42.8051 96.5494 40.7441 95.8304C39.7376 95.4949 38.6352 95.6387 37.7245 96.0701C37.2452 96.3097 36.8618 96.5973 36.5263 96.9807C36.1908 97.3642 35.9511 97.7955 35.7115 98.2748C35.2322 99.1855 34.8967 100.192 34.1298 100.863C33.7463 101.199 33.267 101.438 32.7398 101.486C32.2126 101.534 31.7333 101.39 31.3019 101.199C30.4392 100.767 29.7682 100 29.3368 99.2334C28.8575 98.4665 28.6178 97.6038 28.2823 96.8369C27.9948 96.0701 27.6593 95.3032 27.2279 94.6801C26.7965 94.057 26.2693 93.5298 25.6462 93.1943C24.4 92.5712 23.0101 92.667 22.0035 93.1463C20.9491 93.5777 20.1822 94.2008 19.7029 94.8239C19.1757 95.447 18.936 96.0221 18.8402 96.4056C18.6964 96.789 18.6964 97.0286 18.6484 96.9807C18.6484 96.9807 18.6484 96.7411 18.7443 96.3576C18.8402 95.9742 19.0798 95.3511 19.607 94.728C20.0863 94.1049 20.9011 93.4339 21.9556 93.0025C22.9621 92.5232 24.448 92.3795 25.7421 93.0984C26.4131 93.4339 26.9882 93.9611 27.4196 94.6322C27.851 95.3032 28.1865 96.0701 28.4741 96.8369C28.8096 97.6038 29.0971 98.4186 29.5285 99.1855C30.0078 99.9044 30.6309 100.623 31.4457 101.055C31.8291 101.246 32.3084 101.39 32.7398 101.342C33.2191 101.294 33.6505 101.103 33.986 100.767C34.7049 100.144 35.0404 99.1376 35.5197 98.2269C35.7594 97.7476 35.999 97.3162 36.3346 96.8849C36.6701 96.4535 37.1014 96.118 37.6287 95.8783C38.5873 95.399 39.7855 95.2552 40.84 95.6387C41.9423 95.9742 42.7092 96.8369 43.4282 97.6038C44.1471 98.3707 44.8661 99.1376 45.8247 99.521C46.304 99.7127 46.7833 99.7607 47.2626 99.7127C47.7419 99.6169 48.1732 99.3772 48.5567 99.0896C49.3235 98.5145 49.8028 97.6517 50.1863 96.789C50.9052 95.0635 51.5283 93.3381 52.4869 91.9481C52.9662 91.2291 53.4934 90.606 54.1645 90.1747C54.7876 89.6954 55.5544 89.4557 56.2734 89.3599C56.9923 89.264 57.7113 89.3599 58.3344 89.5516C58.6699 89.6475 58.9575 89.7912 59.1971 89.8871C59.4847 90.0309 59.7243 90.1267 59.964 90.3185C60.9226 90.9416 61.6415 91.6126 62.1208 92.2836C62.6001 92.9067 62.8877 93.4818 62.9836 93.9132C63.0315 94.1049 63.0794 94.2487 63.1273 94.3925C63.1273 94.3925 63.0794 94.3446 63.1273 94.3925Z" fill="#4C88FF"/>
<path d="M16.0086 90.4149C16.0086 90.4628 15.769 90.6066 15.4814 90.6545C15.1938 90.7024 14.9542 90.7024 14.9062 90.6545C14.9062 90.6066 15.1459 90.4628 15.4335 90.4149C15.769 90.3669 16.0086 90.3669 16.0086 90.4149Z" fill="#4C88FF"/>
<path d="M16.7764 95.9739C16.8243 96.0218 16.6326 96.1656 16.3929 96.3094C16.1533 96.4052 15.9136 96.4532 15.9136 96.4053C15.8657 96.3573 16.0574 96.2135 16.2971 96.0697C16.5367 95.9739 16.7764 95.926 16.7764 95.9739Z" fill="#4C88FF"/>
<path d="M17.7807 102.06C17.7807 102.108 17.6369 102.252 17.3973 102.348C17.1576 102.444 16.918 102.444 16.918 102.396C16.918 102.348 17.0618 102.204 17.3014 102.108C17.5411 102.012 17.7807 101.964 17.7807 102.06Z" fill="#4C88FF"/>
<path d="M18.982 108.004C18.982 108.052 18.7903 108.196 18.5507 108.292C18.2631 108.388 18.0234 108.388 18.0234 108.34C18.0234 108.292 18.2152 108.148 18.4548 108.052C18.6945 107.956 18.9341 107.956 18.982 108.004Z" fill="#4C88FF"/>
<path d="M52.4883 79.3417C52.4883 79.3417 52.68 79.2459 53.0634 79.1979C53.4469 79.15 54.022 79.0541 54.6931 78.9583C56.1309 78.7666 58.144 78.479 60.5884 78.1914H60.6843V78.2873C60.876 80.3483 61.0677 82.6968 61.3074 85.1892V85.285V85.4288H61.2115C58.2878 85.7643 55.5558 86.0998 53.2552 86.3874H53.1593V86.2916C52.9197 84.2306 52.7279 82.4572 52.6321 81.211C52.5841 80.6358 52.5362 80.1565 52.4883 79.821C52.4883 79.5334 52.4883 79.3417 52.4883 79.3417C52.4883 79.3417 52.5362 79.5334 52.5841 79.869C52.6321 80.2045 52.68 80.6838 52.7759 81.2589C52.9196 82.5051 53.1593 84.2306 53.3989 86.2916L53.3031 86.1957C55.6037 85.9081 58.3357 85.5726 61.2594 85.1892L61.1636 85.333V85.2371C60.9239 82.7447 60.7322 80.3962 60.5405 78.3352L60.6843 78.4311C56.0351 78.9583 53.351 79.2459 52.4883 79.3417Z" fill="#4C88FF"/>
<path d="M59.8673 80.5408C59.8673 80.6366 58.4773 80.6366 56.8477 80.7804C55.1702 80.9722 53.8281 81.2597 53.8281 81.1639C53.8281 81.1159 55.1222 80.6846 56.7998 80.5408C58.4773 80.397 59.8673 80.4929 59.8673 80.5408Z" fill="#4C88FF"/>
<path d="M59.9135 82.3612C59.9135 82.4571 58.6194 82.505 57.0857 82.6488C55.504 82.7926 54.2578 82.9843 54.2578 82.9364C54.2578 82.8885 55.504 82.5529 57.0857 82.4092C58.6674 82.2174 59.9615 82.2654 59.9135 82.3612Z" fill="#4C88FF"/>
<path d="M58.0444 83.8959C58.0444 83.9438 57.3254 84.1355 56.4148 84.2314C55.5041 84.3272 54.7852 84.3752 54.7852 84.3272C54.7852 84.2793 55.5041 84.0876 56.4148 83.9917C57.2775 83.8479 58.0444 83.8479 58.0444 83.8959Z" fill="#4C88FF"/>
<path d="M150.405 84.4235C133.006 79.1032 118.34 74.5978 98.6407 74.7416L95.6211 105.704C116.087 107.526 122.941 108.868 141.825 115.674L150.405 84.4235Z" fill="#4C88FF"/>
<g opacity="0.8">
<g opacity="0.8">
<g opacity="0.8">
<path d="M150.405 84.4235C133.006 79.1032 118.34 74.5978 98.6407 74.7416L95.6211 105.704C116.087 107.526 122.941 108.868 141.825 115.674L150.405 84.4235Z" fill="white"/>
</g>
</g>
</g>
<path d="M111.01 89.7436L111.777 83.1772C109.956 82.9855 107.99 83.5128 106.409 84.6631C104.539 86.053 103.149 88.2578 103.102 91.1815C103.102 91.517 103.102 91.8046 103.149 92.1401L110.818 91.2774L111.01 89.7436Z" fill="#4C88FF"/>
<path d="M118.964 88.6885C118.197 86.244 116.376 84.1351 113.5 83.4641C113.404 83.4641 113.356 83.4162 113.26 83.4162C113.212 83.4162 113.164 83.4162 113.117 83.3682C112.973 83.3203 112.829 83.3203 112.685 83.3203L111.918 89.8867L111.727 91.4205L118.964 94.0566C119.156 93.5294 119.252 92.9542 119.347 92.3791C119.443 91.1808 119.299 89.8867 118.964 88.6885Z" fill="#4C88FF"/>
<g opacity="0.3">
<g opacity="0.3">
<g opacity="0.3">
<g opacity="0.3">
<path opacity="0.3" d="M118.964 88.6885C118.197 86.244 116.376 84.1351 113.5 83.4641C113.404 83.4641 113.356 83.4162 113.26 83.4162C113.212 83.4162 113.164 83.4162 113.117 83.3682C112.973 83.3203 112.829 83.3203 112.685 83.3203L111.918 89.8867L111.727 91.4205L118.964 94.0566C119.156 93.5294 119.252 92.9542 119.347 92.3791C119.443 91.1808 119.299 89.8867 118.964 88.6885Z" fill="#293E69"/>
</g>
</g>
</g>
</g>
<path d="M111.106 92.1875L103.438 93.0502C103.773 96.7888 106.457 99.8563 110.1 100.288C113.742 100.719 117.145 98.3705 118.344 94.8236L111.106 92.1875Z" fill="#4C88FF"/>
<path d="M143.695 90.3188C143.695 90.3188 143.455 90.223 143.024 90.0313C142.593 89.8395 141.97 89.552 141.203 89.2644C139.669 88.5934 137.464 87.7786 135.02 87.1075C132.575 86.3886 130.275 85.9572 128.645 85.6697C127.83 85.5259 127.159 85.43 126.68 85.3821C126.201 85.3341 125.961 85.2862 125.961 85.2383C125.961 85.2383 126.201 85.2383 126.68 85.2862C127.159 85.3341 127.83 85.3821 128.645 85.4779C130.323 85.7176 132.623 86.101 135.068 86.82C137.56 87.5389 139.717 88.3537 141.251 89.0727C142.017 89.4082 142.641 89.6958 143.024 89.9354C143.455 90.1751 143.695 90.3188 143.695 90.3188Z" fill="#4C88FF"/>
<path d="M143.168 93.5789C143.168 93.5789 142.928 93.4831 142.497 93.2914C142.065 93.0996 141.442 92.8121 140.675 92.5245C139.142 91.8535 136.937 91.0387 134.492 90.3676C132.048 89.6487 129.747 89.2173 128.118 88.9297C127.303 88.7859 126.632 88.6901 126.153 88.6422C125.673 88.5942 125.434 88.5463 125.434 88.4984C125.434 88.4504 125.673 88.4984 126.153 88.5463C126.632 88.5942 127.303 88.6422 128.118 88.738C129.795 88.9777 132.096 89.3611 134.54 90.0801C137.033 90.799 139.189 91.6138 140.723 92.3328C141.49 92.6683 142.113 92.9558 142.497 93.1955C142.928 93.4351 143.168 93.5789 143.168 93.5789Z" fill="#4C88FF"/>
<path d="M142.64 96.7895C142.64 96.7895 142.401 96.6937 141.969 96.502C141.538 96.3103 140.915 96.0227 140.148 95.7351C138.614 95.0641 136.409 94.2493 133.965 93.5782C131.521 92.8593 129.22 92.4279 127.59 92.1404C126.776 91.9966 126.104 91.9007 125.625 91.8528C125.146 91.8048 124.906 91.7569 124.906 91.709C124.906 91.709 125.146 91.709 125.625 91.7569C126.104 91.8048 126.776 91.8528 127.59 91.9486C129.268 92.1883 131.569 92.5717 134.013 93.2907C136.505 94.0096 138.662 94.8244 140.196 95.5434C140.963 95.8789 141.586 96.1665 141.969 96.4061C142.401 96.6458 142.64 96.7895 142.64 96.7895Z" fill="#4C88FF"/>
<path d="M141.584 100.049C141.584 100.049 141.344 99.9535 140.913 99.7617C140.482 99.57 139.906 99.2824 139.14 98.9949C137.654 98.3718 135.545 97.509 133.148 96.838C130.752 96.1191 128.547 95.6877 126.917 95.4001C126.103 95.2563 125.479 95.1605 125 95.1125C124.569 95.0646 124.281 95.0167 124.281 94.9688C124.281 94.9688 124.521 94.9687 125 95.0167C125.479 95.0646 126.103 95.1125 126.917 95.2084C128.547 95.448 130.752 95.8794 133.148 96.5504C135.545 97.2694 137.654 98.0842 139.14 98.8031C139.858 99.1386 140.482 99.4262 140.865 99.6659C141.344 99.9055 141.584 100.049 141.584 100.049Z" fill="#4C88FF"/>
<path d="M139.286 102.636C139.286 102.636 139.046 102.588 138.711 102.396C138.28 102.205 137.752 101.965 137.129 101.678C135.787 101.102 133.918 100.335 131.761 99.7124C129.604 99.0893 127.639 98.7538 126.153 98.5621C125.482 98.4662 124.907 98.3704 124.428 98.3224C124.044 98.2745 123.805 98.2266 123.805 98.2266C123.805 98.2266 124.044 98.2266 124.428 98.2266C124.859 98.2266 125.434 98.3224 126.153 98.3704C127.591 98.5621 129.604 98.8496 131.809 99.4727C133.966 100.096 135.835 100.911 137.177 101.534C137.848 101.869 138.375 102.109 138.711 102.301C139.094 102.492 139.286 102.588 139.286 102.636Z" fill="#4C88FF"/>
<path d="M131.57 102.973C131.57 103.021 131.09 102.877 130.323 102.733C129.556 102.541 128.502 102.35 127.352 102.11C126.201 101.918 125.099 101.774 124.332 101.631C123.565 101.535 123.086 101.439 123.086 101.391C123.086 101.343 123.565 101.391 124.332 101.439C125.099 101.487 126.201 101.631 127.352 101.822C128.55 102.014 129.604 102.302 130.323 102.493C131.09 102.781 131.57 102.973 131.57 102.973Z" fill="#4C88FF"/>
<path d="M101.613 78.3851C101.613 78.3851 101.757 78.3851 101.996 78.3851C102.284 78.3851 102.667 78.3851 103.195 78.3372C104.249 78.2892 105.783 78.3372 107.748 78.433C111.63 78.6727 117.238 79.3437 123.709 81.3088L123.805 81.3567V81.4526C122.606 88.3066 121.168 96.5026 119.635 105.226C119.587 105.561 119.491 105.945 119.443 106.28V106.424L119.299 106.376C115.656 105.418 112.062 104.699 108.659 104.171C105.208 103.644 101.949 103.261 98.881 103.069H98.7852V102.973C99.6479 95.6398 100.319 89.5048 100.798 85.1911C101.038 83.0343 101.23 81.3567 101.373 80.2064C101.421 79.6313 101.517 79.1999 101.517 78.9123C101.517 78.7685 101.565 78.6727 101.565 78.5768C101.613 78.433 101.613 78.3851 101.613 78.3851C101.613 78.3851 101.613 78.433 101.613 78.5289C101.613 78.6247 101.613 78.7206 101.565 78.8644C101.517 79.1999 101.469 79.6313 101.421 80.2064C101.278 81.3567 101.134 83.0822 100.894 85.2391C100.415 89.5528 99.7438 95.6878 98.9769 102.973L98.881 102.829C101.949 103.021 105.208 103.404 108.659 103.884C112.11 104.411 115.704 105.13 119.347 106.089L119.203 106.184C119.251 105.849 119.347 105.465 119.395 105.13C120.929 96.4067 122.367 88.2586 123.565 81.3567L123.613 81.4526C117.19 79.4875 111.582 78.8165 107.7 78.5289C105.735 78.3851 104.201 78.3851 103.195 78.3851C102.667 78.3851 102.284 78.3851 101.996 78.3851C101.805 78.3851 101.613 78.3851 101.613 78.3851Z" fill="#4C88FF"/>
<path d="M82.6348 141.699L99.602 145.438L102.19 141.699L101.759 136.858L99.2185 134.51H90.3036L82.0117 141.987" fill="#4C88FF"/>
<g opacity="0.3">
<g opacity="0.3">
<path opacity="0.3" d="M82.6348 141.699L99.602 145.438L102.19 141.699L101.759 136.858L99.2185 134.51H90.3036L82.0117 141.987" fill="#293E69"/>
</g>
</g>
<path d="M108.519 106.759L129.944 103.883L133.299 102.925C133.299 102.925 141.015 101.247 141.734 100.959C142.549 100.672 142.933 101.007 142.98 101.295C143.124 101.774 142.645 102.349 141.926 102.589C141.686 102.685 137.756 104.027 137.756 104.027C137.756 104.027 138.14 104.075 139.098 104.41C140.057 104.746 140.919 105.944 141.399 107.334C141.83 108.724 141.83 109.155 141.303 109.395C141.063 109.491 140.872 109.395 140.68 109.299C140.392 109.108 140.153 108.82 140.057 108.484C139.29 106.232 137.9 106.04 137.9 106.04L137.469 106.184C137.469 106.184 138.906 107.19 138.906 108.437C138.906 108.628 138.859 108.82 138.811 108.964C139.002 109.539 138.906 110.258 138.523 110.737C138.092 111.264 137.421 111.504 136.75 111.408C136.462 111.36 136.127 111.169 136.079 110.881C136.079 110.737 136.127 110.545 136.174 110.402C136.222 110.306 136.222 110.258 136.27 110.162L134.976 110.354C134.976 110.354 132.052 110.593 130.806 110.833L110.724 116.872C107.944 117.687 105.02 116.105 104.205 113.325C103.342 110.258 105.403 107.19 108.519 106.759Z" fill="#D5EDF9"/>
<path d="M130.426 104.41C130.474 104.841 130.905 105.177 131.336 105.273C131.768 105.369 132.247 105.321 132.678 105.369C134.021 105.56 135.027 106.759 136.369 106.855C136.561 106.855 136.8 106.855 136.848 106.663C136.896 106.519 136.753 106.327 136.609 106.231C135.506 105.225 134.404 104.266 133.254 103.26" fill="#D5EDF9"/>
<path d="M39.5433 113.469C39.5433 113.469 36.4279 108.388 35.8527 107.957C35.2776 107.525 30.3408 105.704 29.9094 105.848C29.4781 105.992 23.4868 106.998 24.1578 107.717C24.8289 108.436 29.0467 107.669 29.0467 107.669L29.6218 107.957C29.6218 107.957 26.0271 108.532 25.2602 108.963C24.5413 109.347 24.7809 110.21 25.4519 110.162C26.123 110.114 29.2384 109.491 29.4301 109.634C29.6218 109.778 26.0271 110.497 25.6437 110.689C25.1164 110.976 25.0685 111.935 25.7395 111.887C26.123 111.839 29.526 110.976 29.526 110.976C29.526 110.976 26.8419 112.031 26.6023 112.271C26.2188 112.654 26.5064 113.229 27.0816 113.133C27.465 113.037 29.3822 112.127 29.9094 112.031C29.9094 112.031 30.3887 112.175 30.868 113.181C31.0597 113.66 32.0663 116.632 33.8397 116.584C35.4214 116.536 36.9551 117.83 36.9551 117.83L39.5433 113.469Z" fill="#D5EDF9"/>
<path d="M37.2413 112.894C36.8578 113.23 36.2827 113.134 35.8513 112.894C35.4199 112.654 35.0844 112.223 34.701 111.935C33.5027 111.073 31.7293 111.264 30.5311 110.354C30.3873 110.21 30.1956 110.018 30.2914 109.826C30.3873 109.635 30.6269 109.635 30.8187 109.635C32.4483 109.683 34.1258 109.731 35.7554 109.731" fill="#D5EDF9"/>
<path d="M63.943 225.721L62.7927 238.278L59.0062 247.96C58.7186 248.679 59.1021 249.446 59.821 249.686C60.2044 249.829 60.6358 249.734 60.9713 249.494C63.0802 247.864 70.8928 241.873 70.8928 240.962C70.9407 239.908 73.0017 227.782 73.0017 227.782L63.943 225.721Z" fill="#4C88FF"/>
<g opacity="0.6">
<g opacity="0.6">
<g opacity="0.6">
<g opacity="0.6">
<path opacity="0.6" d="M59.8203 249.686L71.0359 240.1L70.988 240.627C70.94 241.106 70.7004 241.49 70.3649 241.825C69.4542 242.688 66.9139 244.941 61.0186 249.494C60.6831 249.781 60.2517 249.829 59.8203 249.686Z" fill="white"/>
</g>
</g>
</g>
</g>
<path d="M65.234 242.592C65.1861 242.64 64.6109 241.921 63.7002 241.442C62.7896 240.914 61.8789 240.866 61.8789 240.818C61.8789 240.771 62.8375 240.675 63.7961 241.202C64.8026 241.729 65.2819 242.544 65.234 242.592Z" fill="#293E69"/>
<path d="M65.9059 238.806C65.858 238.854 65.1869 238.518 64.3242 238.374C63.4135 238.231 62.6946 238.374 62.6467 238.278C62.5987 238.231 63.3656 237.943 64.3242 238.087C65.3307 238.231 65.9538 238.758 65.9059 238.806Z" fill="#293E69"/>
<path d="M66.3356 235.114C66.2876 235.162 65.6166 234.683 64.7059 234.635C63.7473 234.539 63.0284 234.923 62.9805 234.875C62.9805 234.827 63.1243 234.683 63.4118 234.587C63.6994 234.443 64.1787 234.347 64.7059 234.395C65.2332 234.443 65.6645 234.635 65.9521 234.779C66.2397 234.923 66.3356 235.066 66.3356 235.114Z" fill="#293E69"/>
<path d="M64.7539 233.918C64.7539 233.918 64.7059 233.726 64.8018 233.438C64.8497 233.151 64.9935 232.719 65.329 232.24C65.4728 232 65.6645 231.761 66.048 231.617C66.2397 231.569 66.4793 231.617 66.6231 231.809C66.7669 232 66.7669 232.192 66.7669 232.384C66.6711 233.199 65.9042 233.87 64.9935 233.87C64.0829 233.87 63.316 233.247 63.0284 232.528C62.9805 232.336 62.9325 232.096 63.0763 231.904C63.2201 231.713 63.4598 231.665 63.6515 231.713C64.0349 231.809 64.2266 232.048 64.4184 232.24C64.8018 232.623 65.0415 233.055 65.1852 233.294C65.329 233.582 65.329 233.726 65.329 233.774C65.2811 233.822 65.0894 233.103 64.3225 232.384C64.1308 232.192 63.8911 232 63.6515 231.952C63.5077 231.904 63.4118 231.952 63.3639 232.048C63.316 232.144 63.316 232.288 63.3639 232.432C63.6036 233.007 64.2746 233.582 65.0414 233.582C65.8083 233.582 66.4793 232.959 66.5752 232.336C66.5752 232.192 66.5752 232 66.4793 231.904C66.4314 231.809 66.2876 231.761 66.1438 231.809C65.9042 231.857 65.7125 232.144 65.5207 232.336C64.8497 233.199 64.8497 233.918 64.7539 233.918Z" fill="#293E69"/>
<path d="M75.4899 233.103L84.8842 158.572L81.8646 141.27L64.1306 142.228L61.9258 231.761C61.9258 232.432 62.3572 233.007 63.0282 233.151L73.381 234.733C74.3875 234.877 75.3461 234.158 75.4899 233.103Z" fill="#293E69"/>
<path d="M84.6461 161.112L101.757 178.031L77.1211 184.022L78.8945 196.436L112.206 191.883C115.034 191.499 117.622 189.966 119.299 187.617C121.888 184.022 121.936 179.229 119.443 175.587L93.4652 137.482L81.8662 141.269L84.6461 161.112Z" fill="#293E69"/>
<path d="M83.685 156.799C83.7329 156.799 84.0205 157.757 84.2601 158.908C84.4998 160.106 84.6915 161.065 84.5956 161.113C84.5477 161.113 84.2601 160.154 84.0205 159.004C83.7808 157.805 83.637 156.799 83.685 156.799Z" fill="#455A64"/>
<path d="M81.8638 148.938C81.9117 148.938 82.0555 149.369 82.2472 150.088C82.4389 150.807 82.7265 151.813 82.9662 152.964C83.2058 154.066 83.3975 155.12 83.4934 155.839C83.5892 156.606 83.6372 157.038 83.6372 157.038C83.5893 157.038 83.4934 156.606 83.3496 155.839C83.1579 155.025 82.9662 154.066 82.7265 152.964C82.4869 151.909 82.2472 150.903 82.1034 150.088C81.9117 149.369 81.8158 148.938 81.8638 148.938Z" fill="#455A64"/>
<path d="M82.9665 147.452C82.9186 147.452 83.2062 147.213 83.6855 147.356C83.8772 147.452 84.1648 147.644 84.2127 147.98C84.2607 148.267 84.1648 148.699 83.8293 148.89C83.4938 149.082 83.1103 148.986 82.8228 148.794C82.5831 148.603 82.5352 148.219 82.5831 148.028C82.631 147.788 82.7748 147.644 82.9186 147.596C83.0145 147.548 83.1103 147.548 83.1103 147.548C83.1103 147.596 82.8707 147.692 82.7748 148.075C82.7269 148.267 82.7748 148.507 82.9665 148.651C83.1583 148.794 83.4458 148.842 83.6855 148.699C83.9251 148.555 84.021 148.267 83.9731 148.028C83.9251 147.788 83.7814 147.644 83.5896 147.548C83.2062 147.356 82.9665 147.5 82.9665 147.452Z" fill="#455A64"/>
<path d="M69.7827 90.5103L59.957 95.2553L64.1749 124.828L62.4973 138.105C62.3056 139.83 62.9287 141.508 64.2228 142.658L80.0876 142.322L91.2073 136.235L96.3358 135.325L94.2269 125.212L95.1855 110.88L106.785 117.063C107.695 117.543 108.702 117.687 109.708 117.399L130.989 111.887L129.887 103.691L110.619 105.848L95.9524 92.8589L85.0243 90.4144L83.0592 87.2031H71.8916L71.1247 87.7783C70.7412 88.0659 70.4537 88.4493 70.3099 88.8807L69.7827 90.5103Z" fill="#4C88FF"/>
<path d="M59.9589 95.2559C59.9589 95.2559 56.7476 97.3168 55.5493 101.007C54.4469 104.506 51.9067 118.598 51.9067 118.598L40.739 111.696L34.3164 118.454L49.2226 131.587C51.5232 133.6 54.7825 134.031 57.5145 132.737C59.8151 131.635 61.3968 129.478 61.7323 126.937L63.5536 113.565L59.9589 95.2559Z" fill="#4C88FF"/>
<path d="M93.5114 137.531L92.7925 136.477L85.4592 137.867L84.1172 140.982L93.5114 137.531Z" fill="#D5EDF9"/>
<path d="M64.2734 142.611C70.8398 145.247 77.8376 144.289 84.1164 140.982C85.9857 139.975 87.7591 138.729 89.6283 137.77C91.5455 136.764 93.6065 136.045 95.7634 136.189C97.8723 136.333 100.029 137.531 100.892 139.496C101.755 141.461 100.892 144.145 98.8788 144.864C99.1184 145.056 99.3581 145.295 99.5977 145.487C102.521 144.097 103.959 140.167 102.521 137.243C101.419 134.99 99.1184 133.696 97.393 131.827C94.9006 129.143 94.613 123.967 94.613 119.893" fill="#4C88FF"/>
<path d="M78.6515 96.2145C78.6515 96.2145 78.4597 96.2145 78.1722 96.2624C77.8846 96.3103 77.4053 96.3583 77.0218 96.7896C76.6384 97.221 76.4467 97.892 76.4467 98.6589C76.4467 99.4258 76.5905 100.336 76.9739 101.151L77.1656 101.583L76.7822 101.295C75.9674 100.672 75.1046 99.953 74.2898 99.0903C72.3726 97.1251 71.1265 94.9204 70.5034 93.2428C70.1679 92.428 69.9761 91.7091 69.8803 91.2298C69.7844 90.7505 69.7365 90.4629 69.7844 90.4629C69.8324 90.4629 69.9761 91.5653 70.6951 93.1949C71.3661 94.8245 72.6602 96.9814 74.5295 98.8985C75.3443 99.7134 76.1591 100.48 76.9739 101.055L76.7822 101.199C76.5905 100.768 76.4467 100.289 76.3508 99.8571C76.255 99.4258 76.207 98.9944 76.255 98.563C76.255 97.7482 76.4946 97.0293 76.926 96.5979C77.3573 96.1665 77.8846 96.1186 78.1722 96.0707C78.5077 96.1665 78.6515 96.2145 78.6515 96.2145Z" fill="#293E69"/>
<path d="M79.2734 96.2142C80.0882 95.8787 81.2865 96.358 81.8617 97.029C82.2451 97.4603 82.4847 98.0834 82.964 98.371C83.4913 98.6586 85.073 98.8982 85.5523 98.5148C85.5523 98.5148 85.8398 97.1728 85.9836 96.5976C86.5588 94.3449 86.8464 92.3319 87.086 90.0312C85.5523 89.2643 85.9836 88.3057 83.2037 88.4975C83.2037 88.4975 83.9226 90.5584 83.2996 92.4277" fill="#4C88FF"/>
<path d="M83.2516 92.4285C83.2037 92.4285 83.3475 92.045 83.3954 91.374C83.4433 90.703 83.3954 89.6965 83.0599 88.5462L83.012 88.4503H83.1078C83.7309 88.4024 84.4499 88.3544 85.1688 88.642C85.5523 88.7858 85.8398 89.0734 86.1274 89.313C86.415 89.5527 86.7026 89.7923 87.086 89.9841L87.1819 90.032V90.1278C87.0381 91.2782 86.8943 92.5723 86.7026 93.8664C86.5588 94.7291 86.3671 95.5439 86.1753 96.3587C85.9836 97.1735 85.8398 97.8925 85.6481 98.6114V98.6594H85.6002C85.3126 98.8511 85.025 98.8511 84.7854 98.8511C84.4978 98.8511 84.2581 98.8511 84.0185 98.8031C83.7788 98.7552 83.5392 98.7073 83.2996 98.6594C83.0599 98.6114 82.8203 98.4676 82.6765 98.3238C82.341 97.9883 82.1492 97.6049 81.9575 97.3173C81.7179 97.0297 81.4782 96.7901 81.1906 96.6463C80.6634 96.3108 80.1362 96.2149 79.8007 96.2149C79.4652 96.2149 79.2734 96.3108 79.2734 96.3108C79.2734 96.3108 79.4172 96.2149 79.8007 96.167C80.1362 96.1191 80.6634 96.2149 81.2386 96.5504C81.5261 96.6942 81.8137 96.9339 82.0534 97.2694C82.293 97.557 82.4847 97.9404 82.7723 98.228C83.0599 98.5156 83.5392 98.5635 84.0185 98.6594C84.2581 98.7073 84.4978 98.7073 84.7374 98.7073C84.9771 98.7073 85.2647 98.6594 85.4085 98.5635L85.3605 98.6114C85.5043 97.8925 85.696 97.1256 85.8878 96.3108C86.0795 95.5439 86.2712 94.6812 86.415 93.8664C86.6546 92.5723 86.7984 91.2782 86.8943 90.1278L86.9422 90.2237C86.5588 90.032 86.2233 89.7923 85.9357 89.5048C85.6481 89.2172 85.3605 88.9775 85.073 88.8337C84.4019 88.5941 83.7309 88.5941 83.1078 88.642L83.2037 88.4982C83.5392 89.6965 83.5392 90.703 83.4913 91.4219C83.4433 91.7575 83.3954 92.045 83.3475 92.1888C83.2995 92.3326 83.2516 92.4285 83.2516 92.4285Z" fill="#293E69"/>
<path d="M69.1649 145.007C69.1649 145.007 68.7814 144.815 68.3021 144.336C67.8228 143.856 67.2477 143.137 66.8163 142.179C66.4328 141.22 66.2891 140.262 66.2891 139.591C66.2891 138.92 66.4329 138.488 66.4329 138.488C66.4808 138.488 66.4328 138.92 66.4808 139.543C66.5287 140.214 66.6725 141.124 67.0559 142.035C67.4394 142.946 67.9666 143.713 68.4459 144.192C68.8293 144.719 69.1649 145.007 69.1649 145.007Z" fill="#293E69"/>
<path d="M68.7772 141.317C68.8251 141.317 68.7293 141.94 68.7772 142.707C68.8251 143.474 69.0648 144.049 69.0169 144.097C68.9689 144.145 68.5855 143.57 68.5376 142.755C68.4896 141.892 68.7293 141.269 68.7772 141.317Z" fill="#293E69"/>
<path d="M64.079 124.159C64.079 124.159 64.0311 124.063 64.0311 123.919C63.9831 123.727 63.9831 123.536 63.9352 123.248C63.8393 122.625 63.6956 121.81 63.5518 120.851C63.2163 118.838 62.737 116.011 62.1618 112.943C61.5866 109.876 61.0115 107.096 60.6281 105.083C60.4363 104.124 60.2446 103.309 60.1488 102.686C60.1008 102.446 60.0529 102.207 60.005 102.015C59.957 101.871 59.957 101.775 59.957 101.775C59.957 101.775 60.005 101.871 60.0529 102.015C60.1008 102.207 60.1487 102.398 60.2446 102.638C60.3884 103.213 60.5801 104.028 60.8198 104.987C61.2991 107 61.8742 109.78 62.4494 112.847C63.0245 115.915 63.4559 118.743 63.7435 120.756C63.8873 121.762 63.9831 122.577 64.079 123.152C64.1269 123.392 64.1269 123.631 64.1749 123.823C64.079 124.063 64.079 124.159 64.079 124.159Z" fill="#293E69"/>
<path d="M102.283 137.723C102.235 137.723 102.187 137.531 101.995 137.291C101.851 137.052 101.564 136.716 101.132 136.524C100.749 136.285 100.318 136.237 100.03 136.189C99.7425 136.189 99.5508 136.237 99.5508 136.189C99.5508 136.141 99.7425 136.045 100.03 136.045C100.366 135.997 100.797 136.093 101.276 136.333C101.708 136.572 101.995 136.956 102.139 137.243C102.331 137.483 102.331 137.723 102.283 137.723Z" fill="#FAFAFA"/>
<path d="M82.4857 135.278C82.4857 135.326 81.9106 135.613 80.9999 136.141C80.0892 136.668 78.7951 137.435 77.7407 138.681C76.6862 139.879 76.1111 141.317 76.0152 142.324C75.8714 143.378 76.1111 144.001 76.0631 144.049C76.0631 144.049 75.9673 143.905 75.9193 143.618C75.8714 143.33 75.8235 142.899 75.8714 142.324C75.9193 141.221 76.4945 139.735 77.5969 138.537C78.6993 137.291 79.9934 136.524 80.952 136.045C81.4313 135.805 81.8147 135.613 82.1023 135.517C82.3419 135.326 82.4857 135.23 82.4857 135.278Z" fill="#FAFAFA"/>
<g opacity="0.3">
<g opacity="0.3">
<g opacity="0.3">
<path opacity="0.3" d="M75.4881 136.86C75.0088 137.052 75.0567 137.771 75.4402 138.106C75.8236 138.442 76.3509 138.442 76.8781 138.394C82.4859 138.106 87.902 135.087 91.0653 130.438C86.7516 133.984 81.048 135.326 75.584 136.573" fill="#293E69"/>
</g>
</g>
</g>
<g opacity="0.3">
<g opacity="0.3">
<g opacity="0.3">
<path opacity="0.3" d="M61.0639 107.096C61.5432 112.32 61.1598 117.64 59.9615 122.769C59.7219 123.871 59.3864 124.974 59.4343 126.076C59.4343 127.178 60.1533 128.472 61.016 129.191C61.8308 127.37 61.8308 125.597 62.1663 123.632C62.4539 121.858 62.9811 117.688 62.9811 117.64C63.029 113.998 62.2142 110.882 60.7763 107.623" fill="#293E69"/>
</g>
</g>
</g>
<g opacity="0.3">
<g opacity="0.3">
<g opacity="0.3">
<path opacity="0.3" d="M70.0727 91.3743C70.7917 95.2086 72.7089 98.8034 75.4888 101.535C76.5433 102.59 77.8853 103.501 79.3232 103.453C78.4605 101.727 78.2208 99.7141 78.6042 97.7969C79.8504 98.6117 81.1445 99.3785 82.5345 99.9537C83.9245 100.481 85.4582 100.769 86.944 100.433C87.2316 97.7969 87.5671 95.1128 87.8547 92.4766C87.9026 92.1891 87.9026 91.8536 87.7589 91.566C87.6151 91.2784 87.1837 91.1825 86.992 91.3743C86.8961 91.4701 86.8482 91.6139 86.8482 91.7098C86.321 94.0583 85.9854 96.1193 85.4582 98.4679C85.0748 98.8513 83.8765 98.7075 83.1097 98.4199C82.4386 98.1803 82.1511 97.6051 81.7197 97.03C81.2883 96.4548 81.3363 96.5507 80.6652 96.2631C79.4191 95.7359 77.0705 96.1672 76.5433 97.2696C76.016 98.372 76.3995 99.8578 76.7829 100.912C73.3799 98.7075 70.7917 95.1607 69.7852 91.2305" fill="#293E69"/>
</g>
</g>
</g>
<path d="M71.4106 72.4407V88.9765C71.4106 89.9351 71.7461 90.8458 72.3692 91.5647C73.2798 92.6671 74.4302 93.6257 75.6763 94.2967L79.0314 96.166L81.8114 93.7215C82.6262 93.0026 83.1055 91.9961 83.1534 90.8937C83.2013 89.6954 83.2013 88.4972 83.2013 88.4972C83.2013 88.4972 87.8985 88.1617 88.3298 83.5604C88.5215 81.4036 88.6174 76.9461 88.6174 72.8241C88.6174 68.127 85.0227 64.2447 80.3735 63.8612H80.2297C75.3408 63.7175 71.3627 67.6477 71.4106 72.4407Z" fill="#D5EDF9"/>
<path d="M76.8337 67.7922C76.8337 67.7922 76.8337 67.8401 76.8337 67.7922C76.0189 68.3194 75.4917 69.1342 75.2521 70.0449C75.2521 70.0928 75.2521 70.0928 75.2521 70.1407C74.9645 71.4348 74.8686 72.7769 74.581 74.071C74.2935 75.3651 74.3414 76.3716 73.0473 76.6592C72.2325 76.8509 71.5135 76.3716 71.2259 75.9402C71.1301 75.7485 71.1301 75.5568 71.1301 75.3171C71.1301 72.1058 70.507 70.8597 70.7946 67.5525C70.8904 66.6418 71.3697 65.827 72.1366 65.3477C72.8556 64.9164 73.7662 64.4371 74.5331 64.8684C75.3 65.2998 76.1627 66.8336 76.69 67.5046" fill="#293E69"/>
<path d="M72.8069 74.6939C72.711 74.646 69.6914 73.4957 69.5477 76.659C69.4039 79.8224 72.6152 79.3431 72.6152 79.2472C72.6152 79.1514 72.8069 74.6939 72.8069 74.6939Z" fill="#D5EDF9"/>
<path d="M74.3401 65.395C73.6691 64.053 75.9697 62.4234 77.5514 62.0879C79.1331 61.7044 81.1461 62.663 82.6319 63.2861C83.5905 63.6695 84.5012 64.2447 85.5557 64.2447C86.2267 64.2926 86.9456 64.053 87.6166 63.9092C88.2877 63.7175 89.0066 63.5737 89.6776 63.6695C90.3486 63.7654 91.0197 64.1968 91.2593 64.8678C91.451 65.5388 91.0197 66.3536 90.3486 66.4015C91.2593 65.9702 92.4576 66.7371 92.5534 67.7436C92.6013 68.7501 91.499 69.6128 90.5404 69.3253C91.0197 69.0377 91.6427 69.6608 91.5469 70.188C91.451 70.7632 90.9238 71.0987 90.3486 71.2904C89.0066 71.7697 87.4728 71.4342 86.1308 70.859C84.7888 70.2839 83.5905 69.4691 82.2964 68.846C81.0023 68.2229 78.7975 67.1684 77.4076 67.5519C76.4011 67.8394 75.5862 68.9898 75.059 68.6543C74.5318 68.3667 74.2442 67.7436 74.1963 67.1684C74.0525 66.5933 74.1963 65.9702 74.3401 65.395Z" fill="#293E69"/>
<path d="M112.635 168.301C94.0385 173.238 76.1607 172.854 56.6053 168.301L54.3047 132.593C74.4832 136.523 94.7096 136.044 112.587 131.73V168.301H112.635Z" fill="#4C88FF"/>
<g opacity="0.8">
<g opacity="0.8">
<path d="M112.635 168.301C94.0385 173.238 76.1607 172.854 56.6053 168.301L54.3047 132.593C74.4832 136.523 94.7096 136.044 112.587 131.73V168.301H112.635Z" fill="white"/>
</g>
</g>
<path d="M109.76 162.885C109.76 162.885 109.713 162.885 109.665 162.933C109.569 162.981 109.473 163.029 109.329 163.076C109.042 163.22 108.562 163.412 107.987 163.604C106.789 164.035 105.063 164.658 102.859 165.233C98.449 166.384 92.1702 167.342 85.2204 167.246C78.2706 167.151 72.0397 166.192 67.5343 165.377C65.2816 164.946 63.5082 164.562 62.262 164.275C61.6389 164.131 61.1596 164.035 60.8241 163.939C60.6803 163.891 60.5365 163.891 60.4407 163.843C60.3448 163.843 60.2969 163.795 60.2969 163.795C60.2969 163.795 60.3448 163.795 60.4407 163.795C60.5365 163.795 60.6803 163.843 60.8241 163.843C61.1596 163.891 61.6389 164.035 62.262 164.131C63.5082 164.371 65.3295 164.754 67.5343 165.137C71.9918 165.952 78.2226 166.863 85.1725 166.959C92.1223 167.055 98.3532 166.144 102.763 165.042C104.968 164.466 106.741 163.939 107.939 163.508C108.562 163.316 108.994 163.124 109.329 163.029C109.473 162.981 109.617 162.933 109.713 162.885H109.76Z" fill="#4C88FF"/>
<path d="M82.4384 164.371C80.0899 165.042 77.6934 164.898 75.2969 164.131V151.43C77.6934 150.95 80.0899 150.95 82.4384 151.43V164.371Z" fill="#4C88FF"/>
<path d="M93.9923 163.603C93.9923 163.603 93.9923 163.555 93.9923 163.508C93.9923 163.412 93.9923 163.364 93.9923 163.22C93.9923 162.98 93.9923 162.597 93.9443 162.165C93.9443 161.207 93.8964 159.913 93.8485 158.235C93.8005 154.88 93.7047 150.135 93.6567 144.671L93.7526 144.767C91.452 144.288 88.9117 144.288 86.3714 144.767L86.4673 144.623C86.4673 144.719 86.4673 144.767 86.4673 144.863C86.5631 152.388 86.6111 159.146 86.659 163.987L86.6111 163.891C87.7614 164.131 88.8158 164.274 89.7265 164.274C90.6372 164.274 91.452 164.179 92.0751 164.083C92.6981 163.939 93.1774 163.795 93.513 163.699C93.6567 163.651 93.8005 163.603 93.8964 163.555C93.9443 163.603 93.9923 163.603 93.9923 163.603C93.9923 163.603 93.9443 163.603 93.8964 163.651C93.8005 163.699 93.7047 163.747 93.513 163.795C93.1774 163.891 92.6981 164.083 92.0751 164.226C91.452 164.37 90.6372 164.466 89.6786 164.466C88.7679 164.466 87.6655 164.37 86.5152 164.131H86.4673V164.083C86.4193 159.242 86.3235 152.484 86.1797 144.959C86.1797 144.863 86.1797 144.767 86.1797 144.719V144.623H86.2755C88.8638 144.144 91.452 144.144 93.7526 144.623H93.8485V144.719C93.8964 150.231 93.9443 154.928 93.9443 158.331C93.9443 160.009 93.9443 161.303 93.9443 162.261C93.9443 162.693 93.9443 163.028 93.9443 163.316C93.9443 163.412 93.9443 163.508 93.9443 163.603C93.9923 163.555 93.9923 163.603 93.9923 163.603Z" fill="#4C88FF"/>
<path d="M105.017 162.118C103.099 163.173 100.559 163.316 97.875 163.125V142.131C100.319 141.604 102.716 141.508 105.017 142.131V162.118Z" fill="#4C88FF"/>
<path d="M71.0808 163.317C71.0808 163.317 71.0808 163.125 71.0329 162.789C71.0329 162.406 71.0329 161.927 70.985 161.304C70.985 160.009 70.9371 158.236 70.9371 156.175L70.985 156.271C69.0678 155.552 66.6713 154.881 64.0831 155.121L64.1789 154.977C64.1789 157.613 64.1789 160.057 64.1789 162.118L64.131 162.023C65.0896 162.454 66.0482 162.646 66.9109 162.789C67.7737 162.933 68.4926 163.029 69.1157 163.077C69.6909 163.125 70.1702 163.173 70.5536 163.221C70.8891 163.269 71.0808 163.317 71.0808 163.317C71.0808 163.317 70.9371 163.317 70.5536 163.317C70.2181 163.317 69.7388 163.317 69.1157 163.269C68.4926 163.221 67.7258 163.173 66.9109 163.029C66.0482 162.885 65.0896 162.694 64.0831 162.262L64.0352 162.214V162.118C64.0352 160.009 64.0352 157.565 64.0352 154.977V154.881H64.131C66.7672 154.641 69.2116 155.36 71.1288 156.079L71.1767 156.127V156.223C71.1767 158.38 71.1288 160.153 71.1288 161.447C71.1288 162.023 71.1288 162.55 71.0808 162.885C71.1288 163.125 71.1288 163.317 71.0808 163.317Z" fill="#4C88FF"/>
<path d="M74.4873 144.768C74.4873 144.816 73.96 144.864 73.0973 144.864C72.2346 144.864 71.0363 144.864 69.6943 144.768C68.3522 144.672 67.2019 144.576 66.3392 144.432C65.4764 144.336 64.9492 144.193 64.9492 144.193C64.9492 144.145 65.4764 144.193 66.3392 144.288C67.2019 144.336 68.4002 144.432 69.6943 144.528C70.9884 144.624 72.1866 144.672 73.0494 144.672C73.9121 144.672 74.4873 144.72 74.4873 144.768Z" fill="#4C88FF"/>
<path d="M73.3799 146.302C73.3799 146.35 72.9006 146.35 72.1337 146.302C71.3669 146.254 70.3124 146.206 69.1621 146.11C68.0118 146.014 66.9573 145.918 66.1904 145.87C65.4236 145.774 64.9922 145.726 64.9922 145.679C64.9922 145.631 65.4715 145.631 66.2384 145.679C67.0052 145.726 68.0597 145.774 69.21 145.87C70.3603 145.966 71.4148 146.062 72.1817 146.11C72.9485 146.206 73.3799 146.254 73.3799 146.302Z" fill="#4C88FF"/>
<path d="M76.0198 148.363C76.0198 148.363 76.0198 148.219 76.0198 147.931C76.0198 147.644 76.0677 147.212 76.0677 146.685C76.1157 145.583 76.2115 144.097 76.2595 142.228L76.3553 142.323C72.9044 142.371 68.2072 142.228 63.1267 141.605C62.9829 141.7 63.3184 141.461 63.2705 141.509V141.557V141.605V141.7V141.892V142.276C63.2705 142.563 63.2225 142.803 63.2225 143.09C63.1746 143.618 63.1746 144.145 63.1267 144.672C63.0787 145.679 62.9829 146.685 62.935 147.644L62.8391 147.5C66.6735 147.979 69.9806 148.171 72.3292 148.267C73.4795 148.315 74.3902 148.315 75.0612 148.363C75.3488 148.363 75.5884 148.363 75.7802 148.363C75.924 148.363 76.0198 148.363 76.0198 148.363C76.0198 148.363 75.924 148.363 75.7802 148.363C75.6364 148.363 75.3488 148.363 75.0133 148.363C74.3902 148.363 73.4316 148.363 72.2813 148.363C69.9327 148.315 66.6256 148.123 62.7912 147.692H62.6953V147.596C62.7432 146.637 62.7912 145.631 62.887 144.624C62.935 144.097 62.935 143.57 62.9829 143.042C62.9829 142.755 63.0308 142.515 63.0308 142.228V141.844V141.652V141.557V141.509V141.461C62.9829 141.509 63.3184 141.221 63.1746 141.365C68.2552 141.988 72.9523 142.18 76.4032 142.18H76.4991V142.276C76.3553 144.145 76.2595 145.726 76.2115 146.781C76.1636 147.308 76.1636 147.692 76.1157 147.979C76.0198 148.219 76.0198 148.363 76.0198 148.363Z" fill="#4C88FF"/>
<path d="M77.6504 151.046C77.6025 151.094 77.1711 150.519 76.7398 149.752C76.2605 149.033 75.9729 148.362 76.0208 148.362C76.0687 148.314 76.5001 148.889 76.9315 149.656C77.4108 150.375 77.6984 150.998 77.6504 151.046Z" fill="#4C88FF"/>
<path d="M0 104.555L6.08709 141.317C6.08709 141.317 15.3376 158.667 39.9735 162.598L35.9953 129.814C35.9953 129.814 13.2286 122.768 0 104.555Z" fill="#4C88FF"/>
<g opacity="0.8">
<g opacity="0.8">
<path d="M0 104.555L6.08709 141.317C6.08709 141.317 15.3376 158.667 39.9735 162.598L35.9953 129.814C35.9953 129.814 13.2286 122.768 0 104.555Z" fill="white"/>
</g>
</g>
<path d="M36.8098 159.961C36.8098 159.961 36.7618 159.961 36.666 159.913C36.5701 159.865 36.3784 159.817 36.2346 159.769C35.8032 159.626 35.2281 159.482 34.5091 159.242C33.7423 159.003 32.8316 158.763 31.7771 158.331C31.2499 158.14 30.6747 157.9 30.0996 157.708C29.5244 157.469 28.8534 157.229 28.2303 156.942C26.9362 156.366 25.5463 155.743 24.0604 154.928C22.5746 154.162 21.0888 153.251 19.5071 152.244C16.3916 150.183 13.1803 147.547 10.3525 144.288C9.10631 142.802 7.95599 141.316 7.04533 139.687C5.94294 132.545 4.98434 126.218 4.26539 121.713C3.92989 119.46 3.64231 117.687 3.45059 116.393C3.35473 115.77 3.3068 115.29 3.25887 114.955C3.25887 114.811 3.21094 114.667 3.21094 114.572C3.21094 114.476 3.21094 114.428 3.21094 114.428C3.21094 114.428 3.21094 114.476 3.25887 114.572C3.25887 114.667 3.3068 114.763 3.3068 114.955C3.35473 115.29 3.45059 115.77 3.54645 116.393C3.73817 117.639 4.02575 119.46 4.40918 121.665C5.12813 126.171 6.13466 132.449 7.28498 139.639V139.591C8.14771 141.173 9.29803 142.706 10.5442 144.144C13.3721 147.356 16.5354 149.992 19.6509 152.053C21.2326 153.059 22.7184 154.018 24.2042 154.737C25.6421 155.552 27.08 156.175 28.3262 156.75C28.9493 157.037 29.5724 157.325 30.1954 157.517C30.7706 157.756 31.3458 157.948 31.873 158.188C32.9275 158.619 33.8381 158.907 34.5571 159.146C35.276 159.386 35.8512 159.578 36.2825 159.721C36.4743 159.769 36.618 159.817 36.7139 159.865C36.7618 159.961 36.8098 159.961 36.8098 159.961Z" fill="#4C88FF"/>
<path d="M34.6505 149.321C34.6505 149.321 34.6026 149.369 34.5547 149.417C34.5067 149.465 34.4109 149.561 34.315 149.608C34.0754 149.8 33.7399 150.088 33.3085 150.423C32.3978 151.142 31.1037 152.149 29.4262 153.395L29.3783 153.443L29.3303 153.395C28.0362 151.574 26.4066 149.369 24.5853 146.829L24.7291 146.876C23.5787 147.691 22.3805 148.554 21.0864 149.465L20.9426 149.561L20.8947 149.417C19.4568 145.582 17.8751 141.269 16.1975 136.715C15.9579 136.092 15.7662 135.469 15.5265 134.894H15.7662C14.7596 136.907 13.7531 138.872 12.7945 140.741L12.6507 140.981L12.5549 140.694C9.96666 133.264 7.80981 126.986 6.37192 122.912H6.51571C6.13227 124.541 5.84469 125.835 5.60504 126.746C5.50918 127.177 5.41332 127.513 5.36539 127.752C5.31746 127.848 5.31746 127.944 5.31746 127.992C5.31746 128.04 5.26953 128.088 5.26953 128.088C5.26953 128.088 5.26953 128.04 5.26953 127.992C5.26953 127.944 5.31746 127.848 5.31746 127.752C5.36539 127.513 5.46125 127.177 5.50918 126.746C5.7009 125.835 5.98848 124.541 6.37192 122.912L6.41985 122.672L6.51571 122.912C7.9536 126.986 10.1584 133.264 12.7945 140.694H12.5549C13.5135 138.824 14.4721 136.859 15.5265 134.846L15.6703 134.606L15.7662 134.894C16.0058 135.517 16.1975 136.092 16.4372 136.715C18.1147 141.269 19.6964 145.582 21.0864 149.417L20.8947 149.369C22.1888 148.458 23.387 147.595 24.5373 146.781L24.6332 146.733L24.6811 146.829C26.5025 149.369 28.0841 151.622 29.3783 153.395H29.2824C30.9599 152.149 32.254 151.19 33.2126 150.471C33.644 150.136 34.0274 149.896 34.2671 149.704C34.363 149.608 34.4588 149.561 34.5547 149.513C34.6026 149.321 34.6505 149.321 34.6505 149.321Z" fill="#4C88FF"/>
<path d="M33.7924 131.683C33.7924 131.683 33.6007 131.635 33.2652 131.587C32.9297 131.491 32.4504 131.347 31.8752 131.156C30.7249 130.772 29.1432 130.197 27.4657 129.43C25.7881 128.663 24.3023 127.848 23.2479 127.273C22.7206 126.986 22.2893 126.698 22.0017 126.506C21.7141 126.315 21.5703 126.219 21.5703 126.219C21.5703 126.219 21.762 126.267 22.0496 126.458C22.3851 126.65 22.8165 126.89 23.2958 127.129C24.3502 127.705 25.8361 128.471 27.5615 129.238C29.2391 130.005 30.8208 130.628 31.9232 131.012C32.4504 131.203 32.8818 131.395 33.2652 131.491C33.6486 131.587 33.7924 131.683 33.7924 131.683Z" fill="#4C88FF"/>
<path d="M34.748 133.217C34.748 133.265 34.2687 133.169 33.5497 133.025C32.8308 132.833 31.8242 132.594 30.7698 132.21C29.7153 131.827 28.7567 131.395 28.0857 131.108C27.4147 130.772 27.0312 130.533 27.0312 130.533C27.0312 130.485 27.4626 130.677 28.1336 130.964C28.8047 131.252 29.7633 131.635 30.8177 132.019C31.8722 132.402 32.8787 132.69 33.5497 132.929C34.3166 133.025 34.7959 133.169 34.748 133.217Z" fill="#4C88FF"/>
<path d="M25.0659 146.828C25.0659 147.116 24.8741 147.355 24.6345 147.355C24.3948 147.355 24.2031 147.116 24.2031 146.828C24.2031 146.54 24.3948 146.301 24.6345 146.301C24.8741 146.301 25.0659 146.493 25.0659 146.828Z" fill="#4C88FF"/>
<path d="M15.6267 135.709C15.8649 135.709 16.058 135.473 16.058 135.182C16.058 134.89 15.8649 134.654 15.6267 134.654C15.3884 134.654 15.1953 134.89 15.1953 135.182C15.1953 135.473 15.3884 135.709 15.6267 135.709Z" fill="#4C88FF"/>
<path d="M6.95258 123.057C6.95258 123.344 6.76086 123.584 6.52121 123.584C6.28156 123.584 6.08984 123.344 6.08984 123.057C6.08984 122.769 6.28156 122.529 6.52121 122.529C6.76086 122.529 6.95258 122.769 6.95258 123.057Z" fill="#4C88FF"/>
<path d="M160.708 111.121L157.64 148.458C157.64 148.458 148.773 164.419 124.281 165.042L127.301 127.465C127.349 127.465 148.678 126.602 160.708 111.121Z" fill="#4C88FF"/>
<path d="M160.278 109.155C159.463 106.567 157.546 102.876 152.944 102.109L147.48 152.34C147.48 152.34 157.69 150.279 157.977 144.719C157.977 144.24 160.038 119.268 160.565 113.085C160.661 111.743 160.661 110.497 160.278 109.155Z" fill="#4C88FF"/>
<g opacity="0.8">
<g opacity="0.8">
<path d="M160.708 111.121L157.64 148.458C157.64 148.458 148.773 164.419 124.281 165.042L127.301 127.465C127.349 127.465 148.678 126.602 160.708 111.121Z" fill="white"/>
</g>
</g>
<path d="M159.99 120.658C157.546 124.205 156.156 128.423 156.108 132.737C156.06 133.983 156.156 135.277 155.677 136.427C155.197 137.577 153.951 138.536 152.801 138.201C151.555 137.865 150.98 136.379 149.877 135.708C148.919 135.085 147.577 135.181 146.618 135.756C145.611 136.331 144.94 137.338 144.461 138.392C143.55 140.453 143.503 142.754 142.879 144.863C142.208 147.02 140.627 149.129 138.374 149.224C137.559 149.272 136.744 149.033 135.93 149.033C134.204 149.081 132.718 150.375 131.903 151.908C131.089 153.442 130.849 155.168 130.609 156.893C130.609 156.893 143.646 158.139 158.313 140.837L159.99 120.658Z" fill="#4C88FF"/>
<path d="M139.234 143.282C139.234 143.761 138.994 144.096 138.707 144.096C138.419 144.096 138.18 143.713 138.18 143.282C138.18 142.85 138.419 142.467 138.707 142.467C139.042 142.467 139.234 142.85 139.234 143.282Z" fill="#4C88FF"/>
<path d="M145.418 127.752C145.418 128.232 145.178 128.567 144.89 128.567C144.603 128.567 144.363 128.184 144.363 127.752C144.363 127.321 144.603 126.938 144.89 126.938C145.178 126.938 145.418 127.321 145.418 127.752Z" fill="#4C88FF"/>
<path d="M159.702 122.432C159.702 122.432 159.702 122.528 159.606 122.623C159.558 122.767 159.462 122.959 159.318 123.246C159.079 123.774 158.695 124.541 158.264 125.547C157.305 127.512 155.963 130.292 154.382 133.647L154.334 133.743L154.238 133.695C151.506 131.97 148.39 130.005 144.987 127.848L145.179 127.8C145.035 128.087 144.939 128.423 144.796 128.758C142.495 134.366 140.434 139.447 138.852 143.329L138.804 143.425L138.709 143.377C136.408 142.083 134.539 141.028 133.245 140.357C132.574 140.022 132.094 139.734 131.711 139.543C131.567 139.447 131.423 139.399 131.327 139.351C131.232 139.303 131.184 139.303 131.184 139.303C131.184 139.255 131.95 139.591 133.293 140.262C134.635 140.933 136.504 141.939 138.804 143.233L138.661 143.281C140.242 139.399 142.303 134.27 144.556 128.663C144.7 128.327 144.796 128.039 144.939 127.704L144.987 127.56L145.131 127.656C148.486 129.813 151.65 131.778 154.334 133.503L154.19 133.551C155.82 130.244 157.21 127.464 158.168 125.499C158.647 124.541 159.031 123.774 159.318 123.246C159.462 123.007 159.558 122.815 159.606 122.671C159.654 122.528 159.702 122.432 159.702 122.432Z" fill="#4C88FF"/>
</g>
</svg>
