<svg width="107" height="30" viewBox="0 0 107 30" fill="none" xmlns="http://www.w3.org/2000/svg">
<path d="M7.77713 8.82213C10.8345 8.14715 14.7251 8.18806 17.8905 8.98284C18.2413 9.0705 18.5816 9.16839 18.9117 9.27504C20.1296 9.66805 21.0856 10.1502 21.8166 11.2372L21.6065 10.85C19.7803 8.02151 12.3011 7.40058 9.29547 7.54084C11.9119 6.93599 15.0388 6.86878 16.9967 7.4561C16.8673 7.38496 16.6621 7.28125 16.4083 7.15299C15.7187 6.80451 14.6705 6.2748 13.8106 5.72482C12.7184 5.02646 12.1339 4.11626 13.6034 3.07311C16.2361 1.20595 11.8186 1.45724 10.1582 1.64717C12.196 1.16212 13.6877 1.10514 14.9234 1.27462C12.0628 0.636163 9.17116 1.14459 7.04607 2.45072C5.21843 3.57569 3.81848 5.45307 3.59502 6.90969C3.56371 7.11059 3.80123 7.11207 4.03563 7.11353C4.26659 7.11497 4.49451 7.11639 4.45926 7.30854C4.42244 7.50959 4.292 7.85789 4.16281 8.20286C3.94935 8.77287 3.73928 9.3338 3.96054 9.20638C4.57321 8.85281 5.99092 8.38676 7.42048 8.40867C7.1541 8.4788 6.89956 8.55477 6.65983 8.63659C5.14444 9.15816 3.87471 9.80246 3.00307 11.129C4.22894 9.60424 5.89742 9.23646 7.75934 8.82605L7.77713 8.82213Z" fill="#292933"/>
<path d="M20.1505 10.7045C16.3754 8.02216 7.33337 8.20332 4.08062 11.3824C7.09659 8.86369 16.6062 8.66792 20.1505 10.7045Z" fill="#292933"/>
<path d="M5.69264 13.9249C5.64833 13.936 5.60997 13.9757 5.59877 14.0288C5.58396 14.099 5.62246 14.1662 5.68319 14.1779C5.69067 14.1794 5.69817 14.1799 5.7056 14.1797L5.78587 15.7604C5.83044 16.6389 5.87502 17.5174 5.91992 18.396C5.46985 17.8731 5.01974 16.8605 4.7023 15.788C4.36489 14.6469 4.18583 13.4358 4.14439 12.7579C3.96873 14.1201 4.59181 17.3713 5.92275 18.4515L5.92359 18.4679C6.2462 18.8828 6.59693 19.2466 6.97133 19.5622L6.9383 18.4886C6.94467 18.5392 6.97819 18.5809 7.02479 18.5899C7.08551 18.6016 7.14772 18.5548 7.16253 18.4846C7.17734 18.4144 7.13883 18.3472 7.07811 18.3355C7.0159 18.3238 6.95518 18.3706 6.94037 18.4408C6.93887 18.4479 6.93791 18.455 6.93748 18.462L6.86633 16.15L7.07167 16.0924L7.32769 16.579L7.23742 16.0355L7.79089 15.7798L7.16342 15.8923L6.88669 15.3868L6.99324 15.9507L6.86284 16.0367L6.80297 14.0913L7.01148 14.0326L7.16538 14.3248L7.11063 13.999L7.4436 13.8456L7.06623 13.9128L6.90049 13.6089L6.96412 13.9479L6.80185 14.055L6.7316 11.7721C6.34239 12.1008 5.97686 12.4807 5.64093 12.9117L5.69264 13.9249Z" fill="#292933"/>
<path d="M7.30953 20.1884C7.30212 20.2235 7.32137 20.2571 7.35099 20.263C7.38209 20.2688 7.41171 20.2454 7.41912 20.2103C7.42652 20.1753 7.40727 20.1416 7.37765 20.1358C7.34803 20.1299 7.31693 20.1533 7.30953 20.1884Z" fill="#292933"/>
<path d="M8.86954 21.179C8.85473 21.2491 8.79252 21.2959 8.7318 21.2842C8.67108 21.2711 8.63257 21.2038 8.64738 21.1351C8.66219 21.0649 8.72439 21.0181 8.78512 21.0298C8.84584 21.0415 8.88435 21.1088 8.86954 21.179Z" fill="#292933"/>
<path d="M9.82203 21.2458C9.81463 21.2809 9.83388 21.3145 9.8635 21.3204C9.8946 21.3262 9.92422 21.3028 9.93163 21.2677C9.93903 21.2326 9.91978 21.199 9.89016 21.1932C9.86054 21.1859 9.82944 21.2107 9.82203 21.2458Z" fill="#292933"/>
<path d="M11.1029 20.6499C11.0422 20.6382 11.0037 20.5709 11.0185 20.5007C11.0333 20.4306 11.0941 20.3823 11.1563 20.3955C11.217 20.4072 11.2555 20.4744 11.2407 20.5446C11.2259 20.6148 11.1637 20.6616 11.1029 20.6499Z" fill="#292933"/>
<path d="M10.1382 18.9767C10.1693 18.9826 10.1989 18.9592 10.2063 18.9241C10.2138 18.889 10.1945 18.8553 10.1649 18.8495C10.1338 18.8436 10.1042 18.867 10.0968 18.9021C10.0893 18.9372 10.1086 18.9694 10.1382 18.9767Z" fill="#292933"/>
<path d="M12.3292 21.9656C12.3218 22.0007 12.3411 22.0344 12.3707 22.0402C12.4018 22.0461 12.4314 22.0227 12.4388 21.9876C12.4462 21.9525 12.427 21.9188 12.3973 21.913C12.3677 21.9071 12.3366 21.9305 12.3292 21.9656Z" fill="#292933"/>
<path d="M15.2178 22.5615C15.2252 22.5264 15.2548 22.503 15.2859 22.5089C15.317 22.5147 15.3348 22.5483 15.3274 22.5834C15.32 22.6185 15.2904 22.6419 15.2593 22.6361C15.2296 22.6302 15.2104 22.5966 15.2178 22.5615Z" fill="#292933"/>
<path d="M14.0617 20.8681C13.9832 20.8896 13.9047 20.9101 13.826 20.9296C13.8162 20.9336 13.806 20.9362 13.7956 20.9371C13.2167 21.0788 12.6335 21.166 12.0535 21.1939C11.6804 20.3429 11.305 19.4581 10.9305 18.5754C10.7779 18.2156 10.6252 17.8557 10.473 17.499C9.95213 18.6839 9.45046 19.8015 8.97394 20.738C8.43379 20.535 7.91583 20.2632 7.42896 19.9199C7.81964 19.3589 8.23697 18.567 8.67797 17.6393C8.79026 17.4037 8.89073 17.1884 8.97938 16.9983L9.07309 16.7977C9.12134 16.6933 9.16634 16.5965 9.2077 16.5075C9.25886 16.3974 9.30465 16.2989 9.34391 16.2133C9.41642 16.0585 9.4771 15.9328 9.52593 15.8379C9.57477 15.7429 9.61916 15.6582 9.65912 15.5836C9.64116 15.552 9.62265 15.5184 9.60335 15.4834C9.58486 15.4499 9.5656 15.4149 9.54544 15.3792L9.56172 15.4792L9.48477 15.3331L9.33234 15.3769L9.46109 15.2907L9.44243 15.189C9.40955 15.1247 9.37318 15.0507 9.33355 14.9671L9.30499 14.9085C9.23319 14.7611 9.14636 14.5829 9.04349 14.3798C9.00426 14.3023 8.96187 14.218 8.91631 14.1273C8.82619 13.948 8.72328 13.7432 8.60841 13.5193C8.15409 12.6441 7.71161 11.8946 7.28393 11.3482C7.8522 10.9567 8.46191 10.6586 9.09825 10.4497C9.58513 11.3701 10.0824 12.4337 10.5811 13.5514C11.0665 12.3855 11.5667 11.2007 12.0757 10.0772C12.7195 10.1137 13.3632 10.2174 13.9996 10.384C13.4935 11.2635 12.9903 12.257 12.4931 13.2972C12.3786 13.5385 12.2763 13.7536 12.1868 13.9419L12.0772 14.1723C11.9648 14.409 11.87 14.6077 11.7901 14.7684C11.7117 14.9291 11.6451 15.0621 11.5918 15.1673C11.5386 15.2725 11.4912 15.3645 11.4498 15.4419C11.4912 15.5091 11.5386 15.5924 11.5903 15.6918C11.6421 15.7911 11.7102 15.9328 11.7946 16.1169C11.8284 16.1902 11.8657 16.2713 11.9063 16.3599C11.9669 16.492 12.0351 16.6407 12.1113 16.805C12.161 16.9124 12.2155 17.0307 12.2749 17.1595L12.2754 17.1608C12.3677 17.3612 12.4717 17.587 12.5878 17.8365C13.0865 18.9206 13.5793 19.955 14.0617 20.8681Z" fill="#292933"/>
<path d="M18.3597 18.6994C18.3523 18.7345 18.3716 18.7681 18.4012 18.774C18.4323 18.7798 18.4619 18.7564 18.4694 18.7213C18.4768 18.6863 18.4575 18.6526 18.4279 18.6468C18.3968 18.6409 18.3657 18.6643 18.3597 18.6994Z" fill="#292933"/>
<path d="M20.6989 18.3406C20.7063 18.3055 20.7359 18.2821 20.767 18.288C20.7981 18.2938 20.8174 18.3274 20.8085 18.3625C20.8011 18.3976 20.7715 18.421 20.7404 18.4152C20.7107 18.4093 20.6915 18.3757 20.6989 18.3406Z" fill="#292933"/>
<path fill-rule="evenodd" clip-rule="evenodd" d="M5.18499 24.2947L5.24359 24.3716C4.4267 23.7565 3.59058 22.6929 3.01639 21.8674C3.35528 22.5585 3.72969 23.1955 4.25504 23.9683C3.69861 23.5592 3.00603 22.8083 2.77369 22.465C3.08002 23.9011 6.67462 28.1015 8.66209 28.5778C8.17965 27.7947 8.63101 26.7778 9.61956 26.9064C10.7309 27.051 10.6525 28.5106 9.77199 28.8042C10.4409 28.9109 11.1734 28.9766 11.9252 29C11.6455 28.9532 11.388 28.8963 11.1601 28.8276C10.8449 28.727 10.8561 28.7157 10.9319 28.6394C11.0123 28.5584 11.1656 28.4041 11.0787 27.9919C10.8456 27.2857 11.0499 27.2775 11.6767 27.2524C11.9136 27.2429 12.2108 27.231 12.5675 27.1781C13.0617 27.1051 13.6626 26.9765 14.2175 26.848C9.10161 27.0116 7.69869 26.8669 4.50662 23.3795C4.76536 23.7458 5.0556 24.1254 5.18499 24.2947ZM8.44899 28.287C7.96803 27.745 8.40607 26.8509 9.19484 26.8728C8.53778 26.9619 8.19741 27.6909 8.44899 28.287ZM9.96881 28.7852C10.7132 28.55 10.7472 27.4075 10.2085 27.0379C10.9144 27.3418 10.8671 28.7297 9.96881 28.7852Z" fill="#292933"/>
<path d="M8.92693 27.6155C8.92693 27.6155 9.14003 27.2809 9.57364 27.3393C10.0072 27.3992 10.028 27.8814 10.028 27.8814C10.028 27.8814 9.70534 27.0734 8.92693 27.6155Z" fill="#292933"/>
<path fill-rule="evenodd" clip-rule="evenodd" d="M9.45128 27.0734C9.91448 27.0734 10.2904 27.4445 10.2904 27.9018C10.2904 28.3591 9.91448 28.7302 9.45128 28.7302C8.98808 28.7302 8.6122 28.3591 8.6122 27.9018C8.6122 27.4445 8.98808 27.0734 9.45128 27.0734ZM8.94665 27.4036C8.66843 27.6783 8.66843 28.1253 8.94665 28.4C9.22486 28.6747 9.6777 28.6747 9.95592 28.4C10.2341 28.1253 10.2341 27.6783 9.95592 27.4036C9.6777 27.1289 9.22486 27.1289 8.94665 27.4036Z" fill="#292933"/>
<path d="M12.9905 25.5317C10.9084 25.4397 8.80991 24.8611 7.83616 24.1701C8.75812 24.3732 9.73779 24.493 10.7352 24.5222C7.80952 24.2373 5.81318 23.1079 4.49906 21.4088C4.7018 21.739 4.93562 22.0736 5.20347 22.4154C4.50645 21.9625 3.44687 20.5936 3.16865 19.2728C3.08226 19.4462 3.09514 19.6479 3.10767 19.8439C3.11466 19.9534 3.12155 20.0611 3.11094 20.1611C3.10413 20.229 3.07918 20.3049 3.05391 20.3817C3.02424 20.4719 2.99415 20.5634 2.99255 20.6447C2.98071 21.2086 3.67921 21.9961 4.25192 22.5776C4.34367 22.6696 4.43986 22.7646 4.53605 22.8596L4.59545 22.9168C4.69486 23.0127 4.76618 23.0814 4.79355 23.1109L4.98349 23.2954C6.58673 24.8539 8.34744 26.5656 10.6805 26.2564C10.0456 26.0577 9.08369 25.6881 8.64713 25.3418C9.81474 25.5537 12.4504 25.5785 12.9905 25.5317Z" fill="#292933"/>
<path d="M12.2115 23.9797C11.1978 24.0396 8.83448 23.6963 7.41233 23.0301C6.31279 22.5144 5.33163 21.743 4.49699 20.6107C2.5628 17.978 2.21651 14.2276 3.0038 11.1303C2.05817 17.753 4.98831 23.1119 12.2411 23.239C19.4259 23.3647 23.4763 18.2307 21.8203 11.2355C23.7841 17.9035 19.9764 23.8117 12.2323 23.727C10.6962 23.7095 8.95287 23.3442 7.45228 22.5786C6.38678 22.0366 5.45594 21.2535 4.75301 20.4193C5.34347 21.3806 6.34386 22.2952 7.53664 22.8387C9.04758 23.5283 10.8826 23.8643 12.2115 23.9797Z" fill="#292933"/>
<path d="M16.8223 25.9006C17.4527 25.6406 18.274 24.7683 18.274 24.7683C18.274 24.7683 17.6066 25.3586 16.7423 25.7501C16.2939 25.9532 15.7656 26.073 15.3069 26.0935C15.3054 26.0935 16.22 26.149 16.8223 25.9006Z" fill="#292933"/>
<path d="M15.7087 27.1848C15.0014 27.6421 15.2855 28.862 16.1571 28.9044C15.4113 28.7247 15.1789 27.6918 15.7087 27.1848Z" fill="#292933"/>
<path d="M17.0139 26.9141C17.4875 27.0719 17.7376 27.7921 17.5185 28.2217C17.8929 27.8038 17.6236 26.9535 17.0139 26.9141Z" fill="#292933"/>
<path d="M17.7207 28.2958C18.9268 28.192 20.8802 25.1342 21.0563 24.7923C20.4955 25.685 18.7093 27.783 17.7207 28.2958Z" fill="#292933"/>
<path d="M19.9368 22.0611C18.8683 23.1627 17.1428 24.0524 15.5283 24.3928C17.131 24.2555 19.1377 23.3643 19.9368 22.0611Z" fill="#292933"/>
<path d="M21.0217 22.9642L20.9773 23.0168L22.2485 21.1453C22.2485 21.1453 22.506 21.9473 22.5001 22.466C22.4941 22.9861 21.0809 24.7554 21.0809 24.7554C21.0809 24.7554 22.176 23.0767 22.2736 22.729C22.3713 22.3813 22.0887 21.6873 22.0887 21.6873L21.0616 22.9174C20.554 23.7765 19.231 25.2828 18.4438 26.1243C18.3368 26.2384 18.2462 26.3238 18.1715 26.3942C17.9228 26.6286 17.8501 26.6972 17.9332 27.1061C17.9776 27.3223 18.0131 27.5313 17.8474 27.8863C17.8474 27.8863 17.8829 27.5035 17.7704 27.2142C17.562 26.6736 16.7177 26.7555 16.1384 26.8116C16.0429 26.8209 15.9547 26.8294 15.8777 26.8344C17.4685 26.6766 18.2159 26.0893 18.5251 25.7971C19.4234 24.9468 20.4223 23.7254 21.0217 22.9642Z" fill="#292933"/>
<path d="M21.004 22.2464C21.004 22.2464 22.142 20.8877 22.1539 20.6744C22.1638 20.4949 22.0722 20.3082 21.9697 20.0994C21.9504 20.0601 21.9306 20.0199 21.9112 19.979C21.9025 19.9494 21.8925 19.9179 21.8817 19.8837L21.8638 19.827C21.6744 19.2295 21.7691 18.9606 21.7691 18.9606C21.5309 19.2192 21.741 20.0944 21.9067 20.3617C21.9526 20.483 21.9867 20.5911 21.9541 20.6817C21.8594 20.9505 21.004 22.2464 21.004 22.2464Z" fill="#292933"/>
<path d="M22.6444 12.1737C23.0128 12.8282 23.1742 14.3929 23.0617 14.8546C23.4938 14.7027 23.7927 14.4192 23.8431 13.4754L23.8432 13.6006C23.8452 14.3241 23.8471 14.9929 22.8101 15.0854C22.9699 14.5595 22.8042 12.6909 22.6444 12.1737Z" fill="#292933"/>
<path fill-rule="evenodd" clip-rule="evenodd" d="M23.5802 12.1447C23.6615 12.0643 23.7119 11.9547 23.7119 11.832C23.7119 11.7108 23.6615 11.5997 23.5802 11.5194C23.4988 11.439 23.3878 11.3893 23.2635 11.3893C23.1406 11.3893 23.0282 11.439 22.9468 11.5194C22.8654 11.5997 22.8151 11.7093 22.8151 11.832C22.8151 11.9533 22.8654 12.0643 22.9468 12.1447C23.0282 12.225 23.1391 12.2747 23.2635 12.2747C23.3878 12.2732 23.4988 12.2236 23.5802 12.1447ZM23.04 11.832C23.04 11.7707 23.0652 11.7151 23.1051 11.6757C23.1451 11.6362 23.2013 11.6114 23.2635 11.6114C23.3256 11.6114 23.3818 11.6362 23.4218 11.6757C23.4618 11.7151 23.4869 11.7707 23.4869 11.832C23.4869 11.8934 23.4618 11.9489 23.4218 11.9883C23.3818 12.0278 23.3256 12.0526 23.2635 12.0526C23.2013 12.0526 23.1451 12.0278 23.1051 11.9883C23.0652 11.9489 23.04 11.8934 23.04 11.832Z" fill="#292933"/>
<path d="M22.5563 9.65641C23.169 9.40366 23.65 9.79374 23.8201 10.3504C24.0643 11.1496 24.0125 12.33 23.9385 12.6997L23.9375 12.6635C23.925 12.242 23.8934 11.1709 23.6218 10.4234C23.4531 9.95884 22.9825 9.60528 22.5563 9.65641Z" fill="#292933"/>
<path d="M18.7338 11.4058L18.4585 10.9003L18.5636 11.4657L18.1314 11.7492L18.6435 11.606L18.8995 12.0925L18.8077 11.549L18.9957 11.4628L19.3627 11.2934L18.9765 11.362L18.7338 11.4058Z" fill="#292933"/>
<path d="M15.9034 16.5526C15.9819 16.6008 16.0011 16.7133 15.9449 16.8039C15.8886 16.8944 15.7791 16.9295 15.7007 16.8828C15.6223 16.8345 15.603 16.722 15.6593 16.6315C15.7155 16.5409 15.825 16.5043 15.9034 16.5526Z" fill="#292933"/>
<path d="M19.8617 11.7625L19.9386 11.9086L19.9105 11.7449L20.0777 11.6675L19.8883 11.7011L19.8054 11.5506L19.838 11.7201L19.7078 11.8048L19.8617 11.7625Z" fill="#292933"/>
<path d="M18.5174 15.051C18.5248 15.0159 18.5055 14.9823 18.4759 14.9764C18.4448 14.9706 18.4152 14.994 18.4078 15.029C18.4004 15.0641 18.4196 15.0978 18.4492 15.1036C18.4803 15.1095 18.5114 15.0861 18.5174 15.051Z" fill="#292933"/>
<path d="M18.2105 17.0635C18.1321 17.0152 18.1129 16.9027 18.1691 16.8122C18.2253 16.7216 18.3348 16.6865 18.4133 16.7333C18.4917 16.7815 18.5109 16.894 18.4547 16.9846C18.3985 17.0751 18.289 17.1117 18.2105 17.0635Z" fill="#292933"/>
<path d="M19.5908 17.5503C19.5597 17.5444 19.5301 17.5678 19.5226 17.6029C19.5152 17.638 19.5345 17.6716 19.5641 17.6775C19.5952 17.6833 19.6248 17.6599 19.6322 17.6248C19.6411 17.5897 19.6219 17.5561 19.5908 17.5503Z" fill="#292933"/>
<path d="M4.89826 12.7594L4.74584 12.4672L4.43802 12.5534L4.69848 12.3824L4.63485 12.0435L4.79911 12.3474L5.17647 12.2802L4.84351 12.4336L4.89826 12.7594Z" fill="#292933"/>
<path d="M7.38979 11.9065C7.3972 11.8714 7.37794 11.8378 7.34832 11.8319C7.31721 11.8261 7.28759 11.8495 7.28019 11.8846C7.27278 11.9197 7.29204 11.9533 7.32166 11.9592C7.35276 11.965 7.38238 11.9416 7.38979 11.9065Z" fill="#292933"/>
<path d="M17.8249 19.6595L18.1001 20.165L18.7291 20.0525L18.1741 20.3082L18.2659 20.8517L18.0099 20.3666L17.4993 20.5083L17.9314 20.2249L17.8249 19.6595Z" fill="#292933"/>
<path d="M8.95125 10.1023C8.89501 10.1928 8.91425 10.3053 8.99268 10.3535C9.07112 10.4018 9.18063 10.3652 9.23686 10.2747C9.29309 10.1841 9.27386 10.0716 9.19543 10.0234C9.11699 9.97661 9.00748 10.0117 8.95125 10.1023Z" fill="#292933"/>
<path d="M12.4972 13.8665C12.5046 13.8314 12.5343 13.808 12.5654 13.8138C12.5965 13.8197 12.6157 13.8533 12.6068 13.8884C12.5994 13.9235 12.5683 13.9469 12.5387 13.941C12.5091 13.9352 12.4898 13.9016 12.4972 13.8665Z" fill="#292933"/>
<path d="M3.51158 11.6528C3.59001 11.701 3.69952 11.6645 3.75576 11.5739C3.81199 11.4833 3.79275 11.3708 3.71432 11.3226C3.63589 11.2744 3.52638 11.3109 3.47015 11.4015C3.41391 11.4935 3.43315 11.606 3.51158 11.6528Z" fill="#292933"/>
<path d="M1.65021 11.9886C1.71237 11.9886 1.7686 11.9638 1.80856 11.9243C1.84852 11.8849 1.87368 11.8293 1.87368 11.768C1.87368 11.7066 1.84852 11.6511 1.80856 11.6117C1.7686 11.5722 1.71237 11.5474 1.65021 11.5474C1.58806 11.5474 1.53182 11.5722 1.49187 11.6117C1.45191 11.6511 1.42675 11.7066 1.42675 11.768C1.42675 11.8293 1.45191 11.8849 1.49187 11.9243C1.53182 11.9638 1.58806 11.9886 1.65021 11.9886Z" fill="#292933"/>
<path fill-rule="evenodd" clip-rule="evenodd" d="M1.15778 10.7743C1.32796 9.86559 1.44931 9.38346 2.42158 9.43897C2.39801 9.4476 2.37453 9.45595 2.35117 9.46424C1.98307 9.59502 1.64705 9.7144 1.49815 10.7626C1.45819 11.0461 1.48631 11.2594 1.57214 11.2272C1.84444 11.125 2.16261 11.4464 2.15669 11.778C2.1535 12.0384 2.05176 12.1237 1.92283 12.2319C1.87231 12.2743 1.81762 12.3201 1.76304 12.3814C1.39604 12.7963 1.5529 13.9958 1.82668 14.4239L1.77784 13.7825C1.80264 13.8651 1.82618 13.9521 1.85027 14.041C1.95696 14.4351 2.07422 14.8681 2.35795 15.1339C2.0383 15.1398 1.75121 15.1369 1.48335 14.906C0.789293 14.3099 1.00091 11.6056 1.15778 10.7743ZM1.96727 11.4595C1.88587 11.3792 1.7734 11.3295 1.65057 11.3295C1.52627 11.3295 1.41528 11.3792 1.33388 11.4595C1.25249 11.5399 1.20218 11.6509 1.20218 11.7722C1.20218 11.8949 1.25249 12.0045 1.33388 12.0848C1.41528 12.1652 1.52627 12.2149 1.65057 12.2149C1.77488 12.2149 1.88587 12.1652 1.96727 12.0848C2.04866 12.0045 2.09897 11.8935 2.09897 11.7722C2.09897 11.6495 2.04866 11.5399 1.96727 11.4595Z" fill="#292933"/>
<path d="M2.74337 10.8628C2.87952 9.67793 3.46555 8.12196 3.82072 7.56094C2.9032 8.12927 2.67086 10.182 2.74337 10.8628Z" fill="#292933"/>
<path d="M21.4938 7.81397C21.2067 5.35803 18.682 2.48716 15.891 1.81218C18.2381 2.59674 20.6103 5.43838 21.4938 7.81397Z" fill="#292933"/>
<path d="M15.9123 27.9345C15.9123 27.9345 16.2261 26.9294 17.1347 27.635C16.7647 27.055 15.9449 27.2333 15.9123 27.9345Z" fill="#292933"/>
<path fill-rule="evenodd" clip-rule="evenodd" d="M15.6963 27.9018C15.6963 27.4445 16.0722 27.0734 16.5354 27.0734C16.9986 27.0734 17.3745 27.4445 17.3745 27.9018C17.3745 28.3591 16.9986 28.7302 16.5354 28.7302C16.0722 28.7302 15.6963 28.3591 15.6963 27.9018ZM16.0307 28.4C16.309 28.6747 16.7618 28.6747 17.04 28.4C17.3182 28.1253 17.3182 27.6783 17.04 27.4036C16.7618 27.1289 16.309 27.1289 16.0307 27.4036C15.7525 27.6783 15.7525 28.1253 16.0307 28.4Z" fill="#292933"/>
<path d="M14.6797 2.11529C14.6427 2.5346 14.3394 2.86771 14.036 3.13215C12.7086 4.29218 13.077 4.91164 14.5332 5.7634C15.0009 6.03661 15.6343 6.39601 16.1552 6.68529C16.038 6.56962 15.6644 6.30334 15.2836 6.03195C15.0632 5.87484 14.8403 5.71601 14.6635 5.5837C13.5092 4.71733 13.2265 4.43682 14.2387 3.33523C14.517 3.0328 14.9017 2.54044 14.6797 2.11529Z" fill="#292933"/>
<path d="M18.8791 4.33022C18.8805 4.33204 18.882 4.33387 18.8835 4.33533C18.8909 4.34556 18.8998 4.35432 18.9101 4.36017C19.2313 4.73272 19.6915 5.30397 19.8824 5.74958C19.8898 5.76418 19.9416 5.86938 19.9312 5.88107C19.915 5.88253 19.8484 5.78318 19.841 5.77149C19.5095 5.30105 19.1706 4.89489 18.7814 4.4712C18.7725 4.46244 18.7636 4.45367 18.7562 4.4449C18.7547 4.44344 18.7533 4.44162 18.7518 4.43979C18.7503 4.43796 18.7488 4.43614 18.7473 4.43468L18.7385 4.42591C18.3596 3.99784 17.9837 3.60045 17.5309 3.24542C17.5176 3.23666 17.4125 3.16215 17.414 3.14754C17.4268 3.13866 17.5133 3.18375 17.5456 3.20057L17.5561 3.20598C18 3.43389 18.5239 3.9467 18.8657 4.31488C18.8687 4.31926 18.8717 4.32218 18.8746 4.3251C18.8761 4.32656 18.8776 4.32839 18.8791 4.33022Z" fill="#292933"/>
<path d="M7.63798 21.4908C7.62762 21.501 7.61727 21.5127 7.61431 21.5287C7.60691 21.5638 7.62614 21.5974 7.65574 21.6033C7.68682 21.6091 7.71642 21.5857 7.72382 21.5507C7.72465 21.5466 7.72362 21.5434 7.72255 21.5401C7.72171 21.5375 7.72086 21.5349 7.72086 21.5317C7.75082 21.547 7.78061 21.5625 7.81039 21.5781C7.89974 21.6246 7.98908 21.6712 8.08342 21.7128C11.5996 23.279 15.5508 22.2154 16.5216 21.6734C14.2767 22.214 12.1235 22.2476 10.3521 21.9232L10.3358 21.8925L10.3417 21.9203C9.58253 21.78 8.89291 21.5755 8.29801 21.314C4.9831 19.8588 3.51951 16.18 3.46771 12.754C3.22945 16.3305 4.39707 19.7989 7.63798 21.4908Z" fill="#292933"/>
<path d="M21.0236 11.8563C21.546 13.4941 21.3433 16.5666 20.5959 18.1138C21.731 16.6542 21.9397 13.4561 21.0236 11.8563Z" fill="#292933"/>
<path d="M8.71266 14.2507C8.79109 14.2989 8.81033 14.4114 8.7541 14.502C8.69786 14.5941 8.58835 14.6291 8.50992 14.5809C8.43149 14.5327 8.41225 14.4202 8.46848 14.3296C8.52472 14.239 8.63423 14.2025 8.71266 14.2507Z" fill="#292933"/>
<path d="M6.59633 11.6497C6.65256 11.5591 6.63333 11.4466 6.55489 11.3984C6.47646 11.3502 6.36695 11.3867 6.31072 11.4773C6.25448 11.5679 6.27372 11.6804 6.35215 11.7286C6.43059 11.7768 6.54009 11.7403 6.59633 11.6497Z" fill="#292933"/>
<path d="M19.9176 15.0926C19.8391 15.0444 19.8199 14.9319 19.8761 14.8413C19.9324 14.7507 20.0419 14.7156 20.1203 14.7624C20.1987 14.8106 20.218 14.9231 20.1617 15.0137C20.1055 15.1043 19.996 15.1408 19.9176 15.0926Z" fill="#292933"/>
<path d="M14.3499 10.0318C14.335 10.102 14.3736 10.1692 14.4343 10.1809C14.495 10.1926 14.5572 10.1458 14.572 10.0757C14.5868 10.0055 14.5483 9.93821 14.4876 9.92651C14.4254 9.91336 14.3632 9.96014 14.3499 10.0318Z" fill="#292933"/>
<path d="M7.58583 14.8527C7.60064 14.7825 7.66285 14.7357 7.72357 14.7474C7.78429 14.7591 7.8228 14.8263 7.80799 14.8965C7.79318 14.9667 7.73098 15.0135 7.67025 15.0018C7.60953 14.9901 7.57102 14.9228 7.58583 14.8527Z" fill="#292933"/>
<path d="M13.427 18.5347C13.4122 18.6049 13.4507 18.6721 13.5114 18.6838C13.5721 18.6955 13.6343 18.6487 13.6492 18.5785C13.664 18.5084 13.6255 18.4411 13.5647 18.4294C13.5025 18.4177 13.4403 18.4645 13.427 18.5347Z" fill="#292933"/>
<path d="M12.771 15.5277L12.6882 15.3758L12.7192 15.5452L12.589 15.63L12.7429 15.5876L12.8199 15.7337L12.7932 15.5701L12.959 15.4927L12.771 15.5277Z" fill="#292933"/>
<path d="M14.1462 16.1541C14.0855 16.1424 14.0233 16.1892 14.0085 16.2594C13.9936 16.3296 14.0322 16.3968 14.0929 16.4085C14.1536 16.4202 14.2158 16.3734 14.2306 16.3033C14.2454 16.2331 14.2069 16.1658 14.1462 16.1541Z" fill="#292933"/>
<path d="M13.9337 16.7016L14.0151 16.852L14.2045 16.8184L14.0373 16.8959L14.0654 17.0595L13.9885 16.9134L13.8346 16.9558L13.9648 16.871L13.9337 16.7016Z" fill="#292933"/>
<path d="M14.0058 13.3239C14.0621 13.2333 14.0428 13.1208 13.9644 13.0726C13.886 13.0244 13.7764 13.0609 13.7202 13.1515C13.664 13.2421 13.6832 13.3546 13.7616 13.4028C13.8401 13.4496 13.9496 13.4145 14.0058 13.3239Z" fill="#292933"/>
<path d="M19.8736 15.993L19.955 16.1449L20.1444 16.1113L19.9772 16.1873L20.0053 16.351L19.9284 16.2049L19.8388 16.2295C19.8226 16.3554 19.7856 16.4818 19.7292 16.625C19.6671 16.7828 19.5753 16.9611 19.4525 17.1685C19.3297 17.3745 19.1743 17.6112 18.9789 17.864C18.7851 18.1153 18.5468 18.3826 18.2612 18.6281C17.0847 19.6289 15.7188 20.3754 14.304 20.8006C14.6103 19.8261 14.9196 18.8837 15.226 17.9984C16.364 17.7822 17.4502 17.471 18.4077 17.0794C18.5483 17.0224 18.6489 16.9465 18.714 16.8617C18.7791 16.777 18.8147 16.6718 18.8206 16.5432C18.8265 16.4147 18.7999 16.3299 18.7407 16.2861C18.68 16.2423 18.5808 16.2277 18.4402 16.2496C17.7477 16.3562 16.9885 16.4468 16.1894 16.5199C15.9038 16.5462 15.6551 16.5038 15.445 16.384C15.2348 16.2642 15.0587 16.0801 14.9196 15.8332C14.779 15.5863 14.6755 15.2795 14.6089 14.9171C14.5423 14.5548 14.5097 14.1516 14.5127 13.7133C14.5156 13.2355 14.5571 12.8045 14.637 12.4334C14.7169 12.0609 14.8382 11.7614 15.001 11.5452C15.1638 11.3289 15.3725 11.1989 15.6241 11.1638C15.8756 11.1288 16.1746 11.2047 16.512 11.3903C17.8039 12.0974 18.9878 13.0661 19.9453 14.2407C19.7026 14.2275 19.4495 14.362 19.1891 14.6293C18.3559 14.2071 17.3955 13.855 16.3699 13.5833C16.2101 13.5409 16.0902 13.5555 16.0103 13.6285C15.9304 13.7001 15.889 13.8565 15.886 14.0931C15.883 14.3298 15.92 14.5022 15.997 14.6059C16.0739 14.7097 16.1923 14.7696 16.3507 14.7886C17.1483 14.8806 17.909 14.9975 18.6001 15.1334C19.0662 15.2283 19.3844 15.4197 19.5871 15.5965C19.7884 15.7806 19.8683 15.9442 19.8432 16.1911C19.8428 16.1952 19.8424 16.1992 19.8419 16.2033L19.9047 16.1625L19.8736 15.993Z" fill="#292933"/>
<path d="M8.36685 16.4723L8.39349 16.6359L8.31653 16.4898L8.16411 16.5322L8.29286 16.4475L8.26178 16.278L8.34465 16.4299L8.53259 16.3963L8.36685 16.4723Z" fill="#292933"/>
<path d="M7.77713 8.82213C10.8345 8.14715 14.7251 8.18806 17.8905 8.98284C18.2413 9.0705 18.5816 9.16839 18.9117 9.27504C20.1296 9.66805 21.0856 10.1502 21.8166 11.2372L21.6065 10.85C19.7803 8.02151 12.3011 7.40058 9.29547 7.54084C11.9119 6.93599 15.0388 6.86878 16.9967 7.4561C16.8673 7.38496 16.6621 7.28125 16.4083 7.15299C15.7187 6.80451 14.6705 6.2748 13.8106 5.72482C12.7184 5.02646 12.1339 4.11626 13.6034 3.07311C16.2361 1.20595 11.8186 1.45724 10.1582 1.64717C12.196 1.16212 13.6877 1.10514 14.9234 1.27462C12.0628 0.636163 9.17116 1.14459 7.04607 2.45072C5.21843 3.57569 3.81848 5.45307 3.59502 6.90969C3.56371 7.11059 3.80123 7.11207 4.03563 7.11353C4.26659 7.11497 4.49451 7.11639 4.45926 7.30854C4.42244 7.50959 4.292 7.85789 4.16281 8.20286C3.94935 8.77287 3.73928 9.3338 3.96054 9.20638C4.57321 8.85281 5.99092 8.38676 7.42048 8.40867C7.1541 8.4788 6.89956 8.55477 6.65983 8.63659C5.14444 9.15816 3.87471 9.80246 3.00307 11.129C4.22894 9.60424 5.89742 9.23646 7.75934 8.82605L7.77713 8.82213Z" stroke="#292933" stroke-width="0.15" stroke-linejoin="round"/>
<path d="M20.1505 10.7045C16.3754 8.02216 7.33337 8.20332 4.08062 11.3824C7.09659 8.86369 16.6062 8.66792 20.1505 10.7045Z" stroke="#292933" stroke-width="0.15" stroke-linejoin="round"/>
<path d="M5.69264 13.9249C5.64833 13.936 5.60997 13.9757 5.59877 14.0288C5.58396 14.099 5.62246 14.1662 5.68319 14.1779C5.69067 14.1794 5.69817 14.1799 5.7056 14.1797L5.78587 15.7604C5.83044 16.6389 5.87502 17.5174 5.91992 18.396C5.46985 17.8731 5.01974 16.8605 4.7023 15.788C4.36489 14.6469 4.18583 13.4358 4.14439 12.7579C3.96873 14.1201 4.59181 17.3713 5.92275 18.4515L5.92359 18.4679C6.2462 18.8828 6.59693 19.2466 6.97133 19.5622L6.9383 18.4886C6.94467 18.5392 6.97819 18.5809 7.02479 18.5899C7.08551 18.6016 7.14772 18.5548 7.16253 18.4846C7.17734 18.4144 7.13883 18.3472 7.07811 18.3355C7.0159 18.3238 6.95518 18.3706 6.94037 18.4408C6.93887 18.4479 6.93791 18.455 6.93748 18.462L6.86633 16.15L7.07167 16.0924L7.32769 16.579L7.23742 16.0355L7.79089 15.7798L7.16342 15.8923L6.88669 15.3868L6.99324 15.9507L6.86284 16.0367L6.80297 14.0913L7.01148 14.0326L7.16538 14.3248L7.11063 13.999L7.4436 13.8456L7.06623 13.9128L6.90049 13.6089L6.96412 13.9479L6.80185 14.055L6.7316 11.7721C6.34239 12.1008 5.97686 12.4807 5.64093 12.9117L5.69264 13.9249Z" stroke="#292933" stroke-width="0.15" stroke-linejoin="round"/>
<path d="M7.30953 20.1884C7.30212 20.2235 7.32137 20.2571 7.35099 20.263C7.38209 20.2688 7.41171 20.2454 7.41912 20.2103C7.42652 20.1753 7.40727 20.1416 7.37765 20.1358C7.34803 20.1299 7.31693 20.1533 7.30953 20.1884Z" stroke="#292933" stroke-width="0.15" stroke-linejoin="round"/>
<path d="M8.86954 21.179C8.85473 21.2491 8.79252 21.2959 8.7318 21.2842C8.67108 21.2711 8.63257 21.2038 8.64738 21.1351C8.66219 21.0649 8.72439 21.0181 8.78512 21.0298C8.84584 21.0415 8.88435 21.1088 8.86954 21.179Z" stroke="#292933" stroke-width="0.15" stroke-linejoin="round"/>
<path d="M9.82203 21.2458C9.81463 21.2809 9.83388 21.3145 9.8635 21.3204C9.8946 21.3262 9.92422 21.3028 9.93163 21.2677C9.93903 21.2326 9.91978 21.199 9.89016 21.1932C9.86054 21.1859 9.82944 21.2107 9.82203 21.2458Z" stroke="#292933" stroke-width="0.15" stroke-linejoin="round"/>
<path d="M11.1029 20.6499C11.0422 20.6382 11.0037 20.5709 11.0185 20.5007C11.0333 20.4306 11.0941 20.3823 11.1563 20.3955C11.217 20.4072 11.2555 20.4744 11.2407 20.5446C11.2259 20.6148 11.1637 20.6616 11.1029 20.6499Z" stroke="#292933" stroke-width="0.15" stroke-linejoin="round"/>
<path d="M10.1382 18.9767C10.1693 18.9826 10.1989 18.9592 10.2063 18.9241C10.2138 18.889 10.1945 18.8553 10.1649 18.8495C10.1338 18.8436 10.1042 18.867 10.0968 18.9021C10.0893 18.9372 10.1086 18.9694 10.1382 18.9767Z" stroke="#292933" stroke-width="0.15" stroke-linejoin="round"/>
<path d="M12.3292 21.9656C12.3218 22.0007 12.3411 22.0344 12.3707 22.0402C12.4018 22.0461 12.4314 22.0227 12.4388 21.9876C12.4462 21.9525 12.427 21.9188 12.3973 21.913C12.3677 21.9071 12.3366 21.9305 12.3292 21.9656Z" stroke="#292933" stroke-width="0.15" stroke-linejoin="round"/>
<path d="M15.2178 22.5615C15.2252 22.5264 15.2548 22.503 15.2859 22.5089C15.317 22.5147 15.3348 22.5483 15.3274 22.5834C15.32 22.6185 15.2904 22.6419 15.2593 22.6361C15.2296 22.6302 15.2104 22.5966 15.2178 22.5615Z" stroke="#292933" stroke-width="0.15" stroke-linejoin="round"/>
<path d="M14.0617 20.8681C13.9832 20.8896 13.9047 20.9101 13.826 20.9296C13.8162 20.9336 13.806 20.9362 13.7956 20.9371C13.2167 21.0788 12.6335 21.166 12.0535 21.1939C11.6804 20.3429 11.305 19.4581 10.9305 18.5754C10.7779 18.2156 10.6252 17.8557 10.473 17.499C9.95213 18.6839 9.45046 19.8015 8.97394 20.738C8.43379 20.535 7.91583 20.2632 7.42896 19.9199C7.81964 19.3589 8.23697 18.567 8.67797 17.6393C8.79026 17.4037 8.89073 17.1884 8.97938 16.9983L9.07309 16.7977C9.12134 16.6933 9.16634 16.5965 9.2077 16.5075C9.25886 16.3974 9.30465 16.2989 9.34391 16.2133C9.41642 16.0585 9.4771 15.9328 9.52593 15.8379C9.57477 15.7429 9.61916 15.6582 9.65912 15.5836C9.64116 15.552 9.62265 15.5184 9.60335 15.4834C9.58486 15.4499 9.5656 15.4149 9.54544 15.3792L9.56172 15.4792L9.48477 15.3331L9.33234 15.3769L9.46109 15.2907L9.44243 15.189C9.40955 15.1247 9.37318 15.0507 9.33355 14.9671L9.30499 14.9085C9.23319 14.7611 9.14636 14.5829 9.04349 14.3798C9.00426 14.3023 8.96187 14.218 8.91631 14.1273C8.82619 13.948 8.72328 13.7432 8.60841 13.5193C8.15409 12.6441 7.71161 11.8946 7.28393 11.3482C7.8522 10.9567 8.46191 10.6586 9.09825 10.4497C9.58513 11.3701 10.0824 12.4337 10.5811 13.5514C11.0665 12.3855 11.5667 11.2007 12.0757 10.0772C12.7195 10.1137 13.3632 10.2174 13.9996 10.384C13.4935 11.2635 12.9903 12.257 12.4931 13.2972C12.3786 13.5385 12.2763 13.7536 12.1868 13.9419L12.0772 14.1723C11.9648 14.409 11.87 14.6077 11.7901 14.7684C11.7117 14.9291 11.6451 15.0621 11.5918 15.1673C11.5386 15.2725 11.4912 15.3645 11.4498 15.4419C11.4912 15.5091 11.5386 15.5924 11.5903 15.6918C11.6421 15.7911 11.7102 15.9328 11.7946 16.1169C11.8284 16.1902 11.8657 16.2713 11.9063 16.3599C11.9669 16.492 12.0351 16.6407 12.1113 16.805C12.161 16.9124 12.2155 17.0307 12.2749 17.1595L12.2754 17.1608C12.3677 17.3612 12.4717 17.587 12.5878 17.8365C13.0865 18.9206 13.5793 19.955 14.0617 20.8681Z" stroke="#292933" stroke-width="0.15" stroke-linejoin="round"/>
<path d="M18.3597 18.6994C18.3523 18.7345 18.3716 18.7681 18.4012 18.774C18.4323 18.7798 18.4619 18.7564 18.4694 18.7213C18.4768 18.6863 18.4575 18.6526 18.4279 18.6468C18.3968 18.6409 18.3657 18.6643 18.3597 18.6994Z" stroke="#292933" stroke-width="0.15" stroke-linejoin="round"/>
<path d="M20.6989 18.3406C20.7063 18.3055 20.7359 18.2821 20.767 18.288C20.7981 18.2938 20.8174 18.3274 20.8085 18.3625C20.8011 18.3976 20.7715 18.421 20.7404 18.4152C20.7107 18.4093 20.6915 18.3757 20.6989 18.3406Z" stroke="#292933" stroke-width="0.15" stroke-linejoin="round"/>
<path fill-rule="evenodd" clip-rule="evenodd" d="M5.18499 24.2947L5.24359 24.3716C4.4267 23.7565 3.59058 22.6929 3.01639 21.8674C3.35528 22.5585 3.72969 23.1955 4.25504 23.9683C3.69861 23.5592 3.00603 22.8083 2.77369 22.465C3.08002 23.9011 6.67462 28.1015 8.66209 28.5778C8.17965 27.7947 8.63101 26.7778 9.61956 26.9064C10.7309 27.051 10.6525 28.5106 9.77199 28.8042C10.4409 28.9109 11.1734 28.9766 11.9252 29C11.6455 28.9532 11.388 28.8963 11.1601 28.8276C10.8449 28.727 10.8561 28.7157 10.9319 28.6394C11.0123 28.5584 11.1656 28.4041 11.0787 27.9919C10.8456 27.2857 11.0499 27.2775 11.6767 27.2524C11.9136 27.2429 12.2108 27.231 12.5675 27.1781C13.0617 27.1051 13.6626 26.9765 14.2175 26.848C9.10161 27.0116 7.69869 26.8669 4.50662 23.3795C4.76536 23.7458 5.0556 24.1254 5.18499 24.2947ZM8.44899 28.287C7.96803 27.745 8.40607 26.8509 9.19484 26.8728C8.53778 26.9619 8.19741 27.6909 8.44899 28.287ZM9.96881 28.7852C10.7132 28.55 10.7472 27.4075 10.2085 27.0379C10.9144 27.3418 10.8671 28.7297 9.96881 28.7852Z" stroke="#292933" stroke-width="0.15" stroke-linejoin="round"/>
<path d="M8.92693 27.6155C8.92693 27.6155 9.14003 27.2809 9.57364 27.3393C10.0072 27.3992 10.028 27.8814 10.028 27.8814C10.028 27.8814 9.70534 27.0734 8.92693 27.6155Z" stroke="#292933" stroke-width="0.15" stroke-linejoin="round"/>
<path fill-rule="evenodd" clip-rule="evenodd" d="M9.45128 27.0734C9.91448 27.0734 10.2904 27.4445 10.2904 27.9018C10.2904 28.3591 9.91448 28.7302 9.45128 28.7302C8.98808 28.7302 8.6122 28.3591 8.6122 27.9018C8.6122 27.4445 8.98808 27.0734 9.45128 27.0734ZM8.94665 27.4036C8.66843 27.6783 8.66843 28.1253 8.94665 28.4C9.22486 28.6747 9.6777 28.6747 9.95592 28.4C10.2341 28.1253 10.2341 27.6783 9.95592 27.4036C9.6777 27.1289 9.22486 27.1289 8.94665 27.4036Z" stroke="#292933" stroke-width="0.15" stroke-linejoin="round"/>
<path d="M12.9905 25.5317C10.9084 25.4397 8.80991 24.8611 7.83616 24.1701C8.75812 24.3732 9.73779 24.493 10.7352 24.5222C7.80952 24.2373 5.81318 23.1079 4.49906 21.4088C4.7018 21.739 4.93562 22.0736 5.20347 22.4154C4.50645 21.9625 3.44687 20.5936 3.16865 19.2728C3.08226 19.4462 3.09514 19.6479 3.10767 19.8439C3.11466 19.9534 3.12155 20.0611 3.11094 20.1611C3.10413 20.229 3.07918 20.3049 3.05391 20.3817C3.02424 20.4719 2.99415 20.5634 2.99255 20.6447C2.98071 21.2086 3.67921 21.9961 4.25192 22.5776C4.34367 22.6696 4.43986 22.7646 4.53605 22.8596L4.59545 22.9168C4.69486 23.0127 4.76618 23.0814 4.79355 23.1109L4.98349 23.2954C6.58673 24.8539 8.34744 26.5656 10.6805 26.2564C10.0456 26.0577 9.08369 25.6881 8.64713 25.3418C9.81474 25.5537 12.4504 25.5785 12.9905 25.5317Z" stroke="#292933" stroke-width="0.15" stroke-linejoin="round"/>
<path d="M12.2115 23.9797C11.1978 24.0396 8.83448 23.6963 7.41233 23.0301C6.31279 22.5144 5.33163 21.743 4.49699 20.6107C2.5628 17.978 2.21651 14.2276 3.0038 11.1303C2.05817 17.753 4.98831 23.1119 12.2411 23.239C19.4259 23.3647 23.4763 18.2307 21.8203 11.2355C23.7841 17.9035 19.9764 23.8117 12.2323 23.727C10.6962 23.7095 8.95287 23.3442 7.45228 22.5786C6.38678 22.0366 5.45594 21.2535 4.75301 20.4193C5.34347 21.3806 6.34386 22.2952 7.53664 22.8387C9.04758 23.5283 10.8826 23.8643 12.2115 23.9797Z" stroke="#292933" stroke-width="0.15" stroke-linejoin="round"/>
<path d="M16.8223 25.9006C17.4527 25.6406 18.274 24.7683 18.274 24.7683C18.274 24.7683 17.6066 25.3586 16.7423 25.7501C16.2939 25.9532 15.7656 26.073 15.3069 26.0935C15.3054 26.0935 16.22 26.149 16.8223 25.9006Z" stroke="#292933" stroke-width="0.15" stroke-linejoin="round"/>
<path d="M15.7087 27.1848C15.0014 27.6421 15.2855 28.862 16.1571 28.9044C15.4113 28.7247 15.1789 27.6918 15.7087 27.1848Z" stroke="#292933" stroke-width="0.15" stroke-linejoin="round"/>
<path d="M17.0139 26.9141C17.4875 27.0719 17.7376 27.7921 17.5185 28.2217C17.8929 27.8038 17.6236 26.9535 17.0139 26.9141Z" stroke="#292933" stroke-width="0.15" stroke-linejoin="round"/>
<path d="M17.7207 28.2958C18.9268 28.192 20.8802 25.1342 21.0563 24.7923C20.4955 25.685 18.7093 27.783 17.7207 28.2958Z" stroke="#292933" stroke-width="0.15" stroke-linejoin="round"/>
<path d="M19.9368 22.0611C18.8683 23.1627 17.1428 24.0524 15.5283 24.3928C17.131 24.2555 19.1377 23.3643 19.9368 22.0611Z" stroke="#292933" stroke-width="0.15" stroke-linejoin="round"/>
<path d="M21.0217 22.9642L20.9773 23.0168L22.2485 21.1453C22.2485 21.1453 22.506 21.9473 22.5001 22.466C22.4941 22.9861 21.0809 24.7554 21.0809 24.7554C21.0809 24.7554 22.176 23.0767 22.2736 22.729C22.3713 22.3813 22.0887 21.6873 22.0887 21.6873L21.0616 22.9174C20.554 23.7765 19.231 25.2828 18.4438 26.1243C18.3368 26.2384 18.2462 26.3238 18.1715 26.3942C17.9228 26.6286 17.8501 26.6972 17.9332 27.1061C17.9776 27.3223 18.0131 27.5313 17.8474 27.8863C17.8474 27.8863 17.8829 27.5035 17.7704 27.2142C17.562 26.6736 16.7177 26.7555 16.1384 26.8116C16.0429 26.8209 15.9547 26.8294 15.8777 26.8344C17.4685 26.6766 18.2159 26.0893 18.5251 25.7971C19.4234 24.9468 20.4223 23.7254 21.0217 22.9642Z" stroke="#292933" stroke-width="0.15" stroke-linejoin="round"/>
<path d="M21.004 22.2464C21.004 22.2464 22.142 20.8877 22.1539 20.6744C22.1638 20.4949 22.0722 20.3082 21.9697 20.0994C21.9504 20.0601 21.9306 20.0199 21.9112 19.979C21.9025 19.9494 21.8925 19.9179 21.8817 19.8837L21.8638 19.827C21.6744 19.2295 21.7691 18.9606 21.7691 18.9606C21.5309 19.2192 21.741 20.0944 21.9067 20.3617C21.9526 20.483 21.9867 20.5911 21.9541 20.6817C21.8594 20.9505 21.004 22.2464 21.004 22.2464Z" stroke="#292933" stroke-width="0.15" stroke-linejoin="round"/>
<path d="M22.6444 12.1737C23.0128 12.8282 23.1742 14.3929 23.0617 14.8546C23.4938 14.7027 23.7927 14.4192 23.8431 13.4754L23.8432 13.6006C23.8452 14.3241 23.8471 14.9929 22.8101 15.0854C22.9699 14.5595 22.8042 12.6909 22.6444 12.1737Z" stroke="#292933" stroke-width="0.15" stroke-linejoin="round"/>
<path fill-rule="evenodd" clip-rule="evenodd" d="M23.5802 12.1447C23.6615 12.0643 23.7119 11.9547 23.7119 11.832C23.7119 11.7108 23.6615 11.5997 23.5802 11.5194C23.4988 11.439 23.3878 11.3893 23.2635 11.3893C23.1406 11.3893 23.0282 11.439 22.9468 11.5194C22.8654 11.5997 22.8151 11.7093 22.8151 11.832C22.8151 11.9533 22.8654 12.0643 22.9468 12.1447C23.0282 12.225 23.1391 12.2747 23.2635 12.2747C23.3878 12.2732 23.4988 12.2236 23.5802 12.1447ZM23.04 11.832C23.04 11.7707 23.0652 11.7151 23.1051 11.6757C23.1451 11.6362 23.2013 11.6114 23.2635 11.6114C23.3256 11.6114 23.3818 11.6362 23.4218 11.6757C23.4618 11.7151 23.4869 11.7707 23.4869 11.832C23.4869 11.8934 23.4618 11.9489 23.4218 11.9883C23.3818 12.0278 23.3256 12.0526 23.2635 12.0526C23.2013 12.0526 23.1451 12.0278 23.1051 11.9883C23.0652 11.9489 23.04 11.8934 23.04 11.832Z" stroke="#292933" stroke-width="0.15" stroke-linejoin="round"/>
<path d="M22.5563 9.65641C23.169 9.40366 23.65 9.79374 23.8201 10.3504C24.0643 11.1496 24.0125 12.33 23.9385 12.6997L23.9375 12.6635C23.925 12.242 23.8934 11.1709 23.6218 10.4234C23.4531 9.95884 22.9825 9.60528 22.5563 9.65641Z" stroke="#292933" stroke-width="0.15" stroke-linejoin="round"/>
<path d="M18.7338 11.4058L18.4585 10.9003L18.5636 11.4657L18.1314 11.7492L18.6435 11.606L18.8995 12.0925L18.8077 11.549L18.9957 11.4628L19.3627 11.2934L18.9765 11.362L18.7338 11.4058Z" stroke="#292933" stroke-width="0.15" stroke-linejoin="round"/>
<path d="M15.9034 16.5526C15.9819 16.6008 16.0011 16.7133 15.9449 16.8039C15.8886 16.8944 15.7791 16.9295 15.7007 16.8828C15.6223 16.8345 15.603 16.722 15.6593 16.6315C15.7155 16.5409 15.825 16.5043 15.9034 16.5526Z" stroke="#292933" stroke-width="0.15" stroke-linejoin="round"/>
<path d="M19.8617 11.7625L19.9386 11.9086L19.9105 11.7449L20.0777 11.6675L19.8883 11.7011L19.8054 11.5506L19.838 11.7201L19.7078 11.8048L19.8617 11.7625Z" stroke="#292933" stroke-width="0.15" stroke-linejoin="round"/>
<path d="M18.5174 15.051C18.5248 15.0159 18.5055 14.9823 18.4759 14.9764C18.4448 14.9706 18.4152 14.994 18.4078 15.029C18.4004 15.0641 18.4196 15.0978 18.4492 15.1036C18.4803 15.1095 18.5114 15.0861 18.5174 15.051Z" stroke="#292933" stroke-width="0.15" stroke-linejoin="round"/>
<path d="M18.2105 17.0635C18.1321 17.0152 18.1129 16.9027 18.1691 16.8122C18.2253 16.7216 18.3348 16.6865 18.4133 16.7333C18.4917 16.7815 18.5109 16.894 18.4547 16.9846C18.3985 17.0751 18.289 17.1117 18.2105 17.0635Z" stroke="#292933" stroke-width="0.15" stroke-linejoin="round"/>
<path d="M19.5908 17.5503C19.5597 17.5444 19.5301 17.5678 19.5226 17.6029C19.5152 17.638 19.5345 17.6716 19.5641 17.6775C19.5952 17.6833 19.6248 17.6599 19.6322 17.6248C19.6411 17.5897 19.6219 17.5561 19.5908 17.5503Z" stroke="#292933" stroke-width="0.15" stroke-linejoin="round"/>
<path d="M4.89826 12.7594L4.74584 12.4672L4.43802 12.5534L4.69848 12.3824L4.63485 12.0435L4.79911 12.3474L5.17647 12.2802L4.84351 12.4336L4.89826 12.7594Z" stroke="#292933" stroke-width="0.15" stroke-linejoin="round"/>
<path d="M7.38979 11.9065C7.3972 11.8714 7.37794 11.8378 7.34832 11.8319C7.31721 11.8261 7.28759 11.8495 7.28019 11.8846C7.27278 11.9197 7.29204 11.9533 7.32166 11.9592C7.35276 11.965 7.38238 11.9416 7.38979 11.9065Z" stroke="#292933" stroke-width="0.15" stroke-linejoin="round"/>
<path d="M17.8249 19.6595L18.1001 20.165L18.7291 20.0525L18.1741 20.3082L18.2659 20.8517L18.0099 20.3666L17.4993 20.5083L17.9314 20.2249L17.8249 19.6595Z" stroke="#292933" stroke-width="0.15" stroke-linejoin="round"/>
<path d="M8.95125 10.1023C8.89501 10.1928 8.91425 10.3053 8.99268 10.3535C9.07112 10.4018 9.18063 10.3652 9.23686 10.2747C9.29309 10.1841 9.27386 10.0716 9.19543 10.0234C9.11699 9.97661 9.00748 10.0117 8.95125 10.1023Z" stroke="#292933" stroke-width="0.15" stroke-linejoin="round"/>
<path d="M12.4972 13.8665C12.5046 13.8314 12.5343 13.808 12.5654 13.8138C12.5965 13.8197 12.6157 13.8533 12.6068 13.8884C12.5994 13.9235 12.5683 13.9469 12.5387 13.941C12.5091 13.9352 12.4898 13.9016 12.4972 13.8665Z" stroke="#292933" stroke-width="0.15" stroke-linejoin="round"/>
<path d="M3.51158 11.6528C3.59001 11.701 3.69952 11.6645 3.75576 11.5739C3.81199 11.4833 3.79275 11.3708 3.71432 11.3226C3.63589 11.2744 3.52638 11.3109 3.47015 11.4015C3.41391 11.4935 3.43315 11.606 3.51158 11.6528Z" stroke="#292933" stroke-width="0.15" stroke-linejoin="round"/>
<path d="M1.65021 11.9886C1.71237 11.9886 1.7686 11.9638 1.80856 11.9243C1.84852 11.8849 1.87368 11.8293 1.87368 11.768C1.87368 11.7066 1.84852 11.6511 1.80856 11.6117C1.7686 11.5722 1.71237 11.5474 1.65021 11.5474C1.58806 11.5474 1.53182 11.5722 1.49187 11.6117C1.45191 11.6511 1.42675 11.7066 1.42675 11.768C1.42675 11.8293 1.45191 11.8849 1.49187 11.9243C1.53182 11.9638 1.58806 11.9886 1.65021 11.9886Z" stroke="#292933" stroke-width="0.15" stroke-linejoin="round"/>
<path fill-rule="evenodd" clip-rule="evenodd" d="M1.15778 10.7743C1.32796 9.86559 1.44931 9.38346 2.42158 9.43897C2.39801 9.4476 2.37453 9.45595 2.35117 9.46424C1.98307 9.59502 1.64705 9.7144 1.49815 10.7626C1.45819 11.0461 1.48631 11.2594 1.57214 11.2272C1.84444 11.125 2.16261 11.4464 2.15669 11.778C2.1535 12.0384 2.05176 12.1237 1.92283 12.2319C1.87231 12.2743 1.81762 12.3201 1.76304 12.3814C1.39604 12.7963 1.5529 13.9958 1.82668 14.4239L1.77784 13.7825C1.80264 13.8651 1.82618 13.9521 1.85027 14.041C1.95696 14.4351 2.07422 14.8681 2.35795 15.1339C2.0383 15.1398 1.75121 15.1369 1.48335 14.906C0.789293 14.3099 1.00091 11.6056 1.15778 10.7743ZM1.96727 11.4595C1.88587 11.3792 1.7734 11.3295 1.65057 11.3295C1.52627 11.3295 1.41528 11.3792 1.33388 11.4595C1.25249 11.5399 1.20218 11.6509 1.20218 11.7722C1.20218 11.8949 1.25249 12.0045 1.33388 12.0848C1.41528 12.1652 1.52627 12.2149 1.65057 12.2149C1.77488 12.2149 1.88587 12.1652 1.96727 12.0848C2.04866 12.0045 2.09897 11.8935 2.09897 11.7722C2.09897 11.6495 2.04866 11.5399 1.96727 11.4595Z" stroke="#292933" stroke-width="0.15" stroke-linejoin="round"/>
<path d="M2.74337 10.8628C2.87952 9.67793 3.46555 8.12196 3.82072 7.56094C2.9032 8.12927 2.67086 10.182 2.74337 10.8628Z" stroke="#292933" stroke-width="0.15" stroke-linejoin="round"/>
<path d="M21.4938 7.81397C21.2067 5.35803 18.682 2.48716 15.891 1.81218C18.2381 2.59674 20.6103 5.43838 21.4938 7.81397Z" stroke="#292933" stroke-width="0.15" stroke-linejoin="round"/>
<path d="M15.9123 27.9345C15.9123 27.9345 16.2261 26.9294 17.1347 27.635C16.7647 27.055 15.9449 27.2333 15.9123 27.9345Z" stroke="#292933" stroke-width="0.15" stroke-linejoin="round"/>
<path fill-rule="evenodd" clip-rule="evenodd" d="M15.6963 27.9018C15.6963 27.4445 16.0722 27.0734 16.5354 27.0734C16.9986 27.0734 17.3745 27.4445 17.3745 27.9018C17.3745 28.3591 16.9986 28.7302 16.5354 28.7302C16.0722 28.7302 15.6963 28.3591 15.6963 27.9018ZM16.0307 28.4C16.309 28.6747 16.7618 28.6747 17.04 28.4C17.3182 28.1253 17.3182 27.6783 17.04 27.4036C16.7618 27.1289 16.309 27.1289 16.0307 27.4036C15.7525 27.6783 15.7525 28.1253 16.0307 28.4Z" stroke="#292933" stroke-width="0.15" stroke-linejoin="round"/>
<path d="M14.6797 2.11529C14.6427 2.5346 14.3394 2.86771 14.036 3.13215C12.7086 4.29218 13.077 4.91164 14.5332 5.7634C15.0009 6.03661 15.6343 6.39601 16.1552 6.68529C16.038 6.56962 15.6644 6.30334 15.2836 6.03195C15.0632 5.87484 14.8403 5.71601 14.6635 5.5837C13.5092 4.71733 13.2265 4.43682 14.2387 3.33523C14.517 3.0328 14.9017 2.54044 14.6797 2.11529Z" stroke="#292933" stroke-width="0.15" stroke-linejoin="round"/>
<path d="M18.8791 4.33022C18.8805 4.33204 18.882 4.33387 18.8835 4.33533C18.8909 4.34556 18.8998 4.35432 18.9101 4.36017C19.2313 4.73272 19.6915 5.30397 19.8824 5.74958C19.8898 5.76418 19.9416 5.86938 19.9312 5.88107C19.915 5.88253 19.8484 5.78318 19.841 5.77149C19.5095 5.30105 19.1706 4.89489 18.7814 4.4712C18.7725 4.46244 18.7636 4.45367 18.7562 4.4449C18.7547 4.44344 18.7533 4.44162 18.7518 4.43979C18.7503 4.43796 18.7488 4.43614 18.7473 4.43468L18.7385 4.42591C18.3596 3.99784 17.9837 3.60045 17.5309 3.24542C17.5176 3.23666 17.4125 3.16215 17.414 3.14754C17.4268 3.13866 17.5133 3.18375 17.5456 3.20057L17.5561 3.20598C18 3.43389 18.5239 3.9467 18.8657 4.31488C18.8687 4.31926 18.8717 4.32218 18.8746 4.3251C18.8761 4.32656 18.8776 4.32839 18.8791 4.33022Z" stroke="#292933" stroke-width="0.15" stroke-linejoin="round"/>
<path d="M7.63798 21.4908C7.62762 21.501 7.61727 21.5127 7.61431 21.5287C7.60691 21.5638 7.62614 21.5974 7.65574 21.6033C7.68682 21.6091 7.71642 21.5857 7.72382 21.5507C7.72465 21.5466 7.72362 21.5434 7.72255 21.5401C7.72171 21.5375 7.72086 21.5349 7.72086 21.5317C7.75082 21.547 7.78061 21.5625 7.81039 21.5781C7.89974 21.6246 7.98908 21.6712 8.08342 21.7128C11.5996 23.279 15.5508 22.2154 16.5216 21.6734C14.2767 22.214 12.1235 22.2476 10.3521 21.9232L10.3358 21.8925L10.3417 21.9203C9.58253 21.78 8.89291 21.5755 8.29801 21.314C4.9831 19.8588 3.51951 16.18 3.46771 12.754C3.22945 16.3305 4.39707 19.7989 7.63798 21.4908Z" stroke="#292933" stroke-width="0.15" stroke-linejoin="round"/>
<path d="M21.0236 11.8563C21.546 13.4941 21.3433 16.5666 20.5959 18.1138C21.731 16.6542 21.9397 13.4561 21.0236 11.8563Z" stroke="#292933" stroke-width="0.15" stroke-linejoin="round"/>
<path d="M8.71266 14.2507C8.79109 14.2989 8.81033 14.4114 8.7541 14.502C8.69786 14.5941 8.58835 14.6291 8.50992 14.5809C8.43149 14.5327 8.41225 14.4202 8.46848 14.3296C8.52472 14.239 8.63423 14.2025 8.71266 14.2507Z" stroke="#292933" stroke-width="0.15" stroke-linejoin="round"/>
<path d="M6.59633 11.6497C6.65256 11.5591 6.63333 11.4466 6.55489 11.3984C6.47646 11.3502 6.36695 11.3867 6.31072 11.4773C6.25448 11.5679 6.27372 11.6804 6.35215 11.7286C6.43059 11.7768 6.54009 11.7403 6.59633 11.6497Z" stroke="#292933" stroke-width="0.15" stroke-linejoin="round"/>
<path d="M19.9176 15.0926C19.8391 15.0444 19.8199 14.9319 19.8761 14.8413C19.9324 14.7507 20.0419 14.7156 20.1203 14.7624C20.1987 14.8106 20.218 14.9231 20.1617 15.0137C20.1055 15.1043 19.996 15.1408 19.9176 15.0926Z" stroke="#292933" stroke-width="0.15" stroke-linejoin="round"/>
<path d="M14.3499 10.0318C14.335 10.102 14.3736 10.1692 14.4343 10.1809C14.495 10.1926 14.5572 10.1458 14.572 10.0757C14.5868 10.0055 14.5483 9.93821 14.4876 9.92651C14.4254 9.91336 14.3632 9.96014 14.3499 10.0318Z" stroke="#292933" stroke-width="0.15" stroke-linejoin="round"/>
<path d="M7.58583 14.8527C7.60064 14.7825 7.66285 14.7357 7.72357 14.7474C7.78429 14.7591 7.8228 14.8263 7.80799 14.8965C7.79318 14.9667 7.73098 15.0135 7.67025 15.0018C7.60953 14.9901 7.57102 14.9228 7.58583 14.8527Z" stroke="#292933" stroke-width="0.15" stroke-linejoin="round"/>
<path d="M13.427 18.5347C13.4122 18.6049 13.4507 18.6721 13.5114 18.6838C13.5721 18.6955 13.6343 18.6487 13.6492 18.5785C13.664 18.5084 13.6255 18.4411 13.5647 18.4294C13.5025 18.4177 13.4403 18.4645 13.427 18.5347Z" stroke="#292933" stroke-width="0.15" stroke-linejoin="round"/>
<path d="M12.771 15.5277L12.6882 15.3758L12.7192 15.5452L12.589 15.63L12.7429 15.5876L12.8199 15.7337L12.7932 15.5701L12.959 15.4927L12.771 15.5277Z" stroke="#292933" stroke-width="0.15" stroke-linejoin="round"/>
<path d="M14.1462 16.1541C14.0855 16.1424 14.0233 16.1892 14.0085 16.2594C13.9936 16.3296 14.0322 16.3968 14.0929 16.4085C14.1536 16.4202 14.2158 16.3734 14.2306 16.3033C14.2454 16.2331 14.2069 16.1658 14.1462 16.1541Z" stroke="#292933" stroke-width="0.15" stroke-linejoin="round"/>
<path d="M13.9337 16.7016L14.0151 16.852L14.2045 16.8184L14.0373 16.8959L14.0654 17.0595L13.9885 16.9134L13.8346 16.9558L13.9648 16.871L13.9337 16.7016Z" stroke="#292933" stroke-width="0.15" stroke-linejoin="round"/>
<path d="M14.0058 13.3239C14.0621 13.2333 14.0428 13.1208 13.9644 13.0726C13.886 13.0244 13.7764 13.0609 13.7202 13.1515C13.664 13.2421 13.6832 13.3546 13.7616 13.4028C13.8401 13.4496 13.9496 13.4145 14.0058 13.3239Z" stroke="#292933" stroke-width="0.15" stroke-linejoin="round"/>
<path d="M19.8736 15.993L19.955 16.1449L20.1444 16.1113L19.9772 16.1873L20.0053 16.351L19.9284 16.2049L19.8388 16.2295C19.8226 16.3554 19.7856 16.4818 19.7292 16.625C19.6671 16.7828 19.5753 16.9611 19.4525 17.1685C19.3297 17.3745 19.1743 17.6112 18.9789 17.864C18.7851 18.1153 18.5468 18.3826 18.2612 18.6281C17.0847 19.6289 15.7188 20.3754 14.304 20.8006C14.6103 19.8261 14.9196 18.8837 15.226 17.9984C16.364 17.7822 17.4502 17.471 18.4077 17.0794C18.5483 17.0224 18.6489 16.9465 18.714 16.8617C18.7791 16.777 18.8147 16.6718 18.8206 16.5432C18.8265 16.4147 18.7999 16.3299 18.7407 16.2861C18.68 16.2423 18.5808 16.2277 18.4402 16.2496C17.7477 16.3562 16.9885 16.4468 16.1894 16.5199C15.9038 16.5462 15.6551 16.5038 15.445 16.384C15.2348 16.2642 15.0587 16.0801 14.9196 15.8332C14.779 15.5863 14.6755 15.2795 14.6089 14.9171C14.5423 14.5548 14.5097 14.1516 14.5127 13.7133C14.5156 13.2355 14.5571 12.8045 14.637 12.4334C14.7169 12.0609 14.8382 11.7614 15.001 11.5452C15.1638 11.3289 15.3725 11.1989 15.6241 11.1638C15.8756 11.1288 16.1746 11.2047 16.512 11.3903C17.8039 12.0974 18.9878 13.0661 19.9453 14.2407C19.7026 14.2275 19.4495 14.362 19.1891 14.6293C18.3559 14.2071 17.3955 13.855 16.3699 13.5833C16.2101 13.5409 16.0902 13.5555 16.0103 13.6285C15.9304 13.7001 15.889 13.8565 15.886 14.0931C15.883 14.3298 15.92 14.5022 15.997 14.6059C16.0739 14.7097 16.1923 14.7696 16.3507 14.7886C17.1483 14.8806 17.909 14.9975 18.6001 15.1334C19.0662 15.2283 19.3844 15.4197 19.5871 15.5965C19.7884 15.7806 19.8683 15.9442 19.8432 16.1911C19.8428 16.1952 19.8424 16.1992 19.8419 16.2033L19.9047 16.1625L19.8736 15.993Z" stroke="#292933" stroke-width="0.15" stroke-linejoin="round"/>
<path d="M8.36685 16.4723L8.39349 16.6359L8.31653 16.4898L8.16411 16.5322L8.29286 16.4475L8.26178 16.278L8.34465 16.4299L8.53259 16.3963L8.36685 16.4723Z" stroke="#292933" stroke-width="0.15" stroke-linejoin="round"/>
<path d="M34.7678 8.99148V22.0824H32V8.99148H34.7678ZM39.1001 8.99148L41.74 13.4531H41.8423L44.495 8.99148H47.6207L43.6257 15.5369L47.7102 22.0824H44.527L41.8423 17.6144H41.74L39.0554 22.0824H35.8849L39.9822 15.5369L35.9616 8.99148H39.1001ZM59.5597 12.7564C59.5086 12.2408 59.2891 11.8402 58.9013 11.5547C58.5136 11.2692 57.9873 11.1264 57.3225 11.1264C56.8708 11.1264 56.4894 11.1904 56.1783 11.3182C55.8672 11.4418 55.6286 11.6144 55.4624 11.836C55.3005 12.0575 55.2195 12.309 55.2195 12.5902C55.211 12.8246 55.26 13.0291 55.3665 13.2038C55.4773 13.3786 55.6286 13.5298 55.8204 13.6577C56.0121 13.7813 56.2337 13.8899 56.4851 13.9837C56.7366 14.0732 57.005 14.1499 57.2905 14.2138L58.4667 14.495C59.0377 14.6229 59.5619 14.7933 60.0391 15.0064C60.5164 15.2195 60.9297 15.4815 61.2792 15.7926C61.6286 16.1037 61.8992 16.4702 62.091 16.8921C62.287 17.3139 62.3871 17.7976 62.3914 18.3431C62.3871 19.1442 62.1826 19.8388 61.7778 20.4269C61.3772 21.0107 60.7976 21.4645 60.0391 21.7884C59.2849 22.108 58.3751 22.2678 57.3097 22.2678C56.2529 22.2678 55.3324 22.1058 54.5484 21.782C53.7685 21.4581 53.1592 20.9787 52.7202 20.3438C52.2856 19.7046 52.0576 18.9141 52.0363 17.9723H54.7146C54.7444 18.4112 54.8701 18.7777 55.0917 19.0717C55.3175 19.3615 55.618 19.581 55.993 19.7301C56.3722 19.875 56.8005 19.9475 57.2778 19.9475C57.7465 19.9475 58.1535 19.8793 58.4986 19.7429C58.8481 19.6065 59.1187 19.4169 59.3104 19.174C59.5022 18.9311 59.5981 18.652 59.5981 18.3367C59.5981 18.0426 59.5107 17.7955 59.336 17.5952C59.1655 17.3949 58.9141 17.2244 58.5817 17.0838C58.2536 16.9432 57.8509 16.8154 57.3736 16.7003L55.9482 16.3423C54.8445 16.0739 53.9731 15.6541 53.3339 15.0831C52.6947 14.5121 52.3772 13.7429 52.3815 12.7756C52.3772 11.983 52.5881 11.2905 53.0143 10.6982C53.4447 10.1058 54.0349 9.64347 54.7849 9.31108C55.5349 8.9787 56.3871 8.8125 57.3417 8.8125C58.3133 8.8125 59.1613 8.9787 59.8857 9.31108C60.6144 9.64347 61.1812 10.1058 61.586 10.6982C61.9908 11.2905 62.1996 11.9766 62.2124 12.7564H59.5597ZM65.5987 22.0824L62.9269 12.2642H65.6818L67.2031 18.8608H67.2926L68.8779 12.2642H71.5817L73.1925 18.8225H73.2756L74.7713 12.2642H77.5199L74.8544 22.0824H71.9716L70.2841 15.9077H70.1627L68.4752 22.0824H65.5987ZM81.2322 22.2678C80.6058 22.2678 80.0475 22.1591 79.5575 21.9418C79.0674 21.7202 78.6796 21.3942 78.3941 20.9638C78.1129 20.5291 77.9723 19.9879 77.9723 19.3402C77.9723 18.7948 78.0724 18.3367 78.2727 17.9659C78.473 17.5952 78.7457 17.2969 79.0909 17.071C79.436 16.8452 79.8281 16.6747 80.267 16.5597C80.7102 16.4446 81.1747 16.3636 81.6605 16.3168C82.2315 16.2571 82.6917 16.2017 83.0412 16.1506C83.3906 16.0952 83.6441 16.0142 83.8018 15.9077C83.9595 15.8011 84.0383 15.6435 84.0383 15.4347V15.3963C84.0383 14.9915 83.9105 14.6783 83.6548 14.4567C83.4034 14.2351 83.0454 14.1243 82.5809 14.1243C82.0909 14.1243 81.701 14.233 81.4112 14.4503C81.1214 14.6634 80.9296 14.9318 80.8359 15.2557L78.3174 15.0512C78.4453 14.4546 78.6967 13.9389 79.0717 13.5043C79.4467 13.0654 79.9304 12.7287 80.5227 12.4943C81.1193 12.2557 81.8096 12.1364 82.5937 12.1364C83.1392 12.1364 83.6612 12.2003 84.1598 12.3281C84.6626 12.456 85.1079 12.6541 85.4957 12.9226C85.8877 13.1911 86.1967 13.5362 86.4225 13.9581C86.6484 14.3757 86.7613 14.8764 86.7613 15.4602V22.0824H84.1789V20.7209H84.1022C83.9446 21.0277 83.7336 21.2983 83.4694 21.5327C83.2052 21.7628 82.8877 21.9439 82.517 22.076C82.1463 22.2038 81.718 22.2678 81.2322 22.2678ZM82.012 20.3885C82.4126 20.3885 82.7663 20.3097 83.0731 20.152C83.3799 19.9901 83.6207 19.7727 83.7954 19.5C83.9701 19.2273 84.0575 18.9183 84.0575 18.5732V17.5313C83.9723 17.5867 83.8551 17.6378 83.7059 17.6847C83.561 17.7273 83.397 17.7678 83.2137 17.8061C83.0305 17.8402 82.8473 17.8722 82.664 17.902C82.4808 17.9276 82.3146 17.951 82.1654 17.9723C81.8458 18.0192 81.5667 18.0938 81.3281 18.196C81.0895 18.2983 80.9041 18.4368 80.772 18.6115C80.6399 18.782 80.5738 18.995 80.5738 19.2507C80.5738 19.6215 80.7081 19.9048 80.9765 20.1009C81.2493 20.2926 81.5944 20.3885 82.012 20.3885ZM88.3339 25.7642V12.2642H91.0186V13.9134H91.14C91.2593 13.6492 91.4319 13.3807 91.6578 13.108C91.8879 12.831 92.1862 12.6009 92.5526 12.4176C92.9234 12.2301 93.3836 12.1364 93.9333 12.1364C94.6492 12.1364 95.3097 12.3239 95.9149 12.6989C96.52 13.0696 97.0036 13.63 97.3659 14.38C97.7281 15.1257 97.9092 16.0611 97.9092 17.1861C97.9092 18.2813 97.7323 19.206 97.3786 19.9602C97.0292 20.7102 96.5519 21.2791 95.9468 21.6669C95.346 22.0504 94.6727 22.2422 93.9269 22.2422C93.3985 22.2422 92.949 22.1548 92.5782 21.9801C92.2117 21.8054 91.9113 21.586 91.6769 21.3217C91.4426 21.0533 91.2636 20.7827 91.14 20.51H91.0569V25.7642H88.3339ZM90.9994 17.1733C90.9994 17.7571 91.0803 18.2663 91.2423 18.701C91.4042 19.1357 91.6386 19.4744 91.9454 19.7173C92.2522 19.956 92.6251 20.0753 93.064 20.0753C93.5072 20.0753 93.8822 19.9538 94.189 19.711C94.4958 19.4638 94.7281 19.1229 94.8857 18.6882C95.0477 18.2493 95.1286 17.7443 95.1286 17.1733C95.1286 16.6065 95.0498 16.108 94.8921 15.6776C94.7345 15.2472 94.5022 14.9105 94.1954 14.6676C93.8886 14.4247 93.5115 14.3033 93.064 14.3033C92.6208 14.3033 92.2458 14.4205 91.939 14.6548C91.6365 14.8892 91.4042 15.2216 91.2423 15.652C91.0803 16.0824 90.9994 16.5895 90.9994 17.1733Z" fill="#292933"/>
<path d="M102.036 9.17902V6.03414H103.63C103.758 6.03414 103.897 6.07107 104.048 6.14493C104.198 6.21595 104.326 6.32675 104.431 6.47732C104.539 6.62504 104.593 6.81254 104.593 7.03982C104.593 7.26993 104.538 7.46595 104.427 7.62789C104.316 7.78698 104.181 7.90772 104.022 7.9901C103.866 8.07249 103.718 8.11368 103.579 8.11368H102.428V7.60232H103.366C103.46 7.60232 103.56 7.55544 103.668 7.46169C103.779 7.36794 103.835 7.22732 103.835 7.03982C103.835 6.84664 103.779 6.71595 103.668 6.64777C103.56 6.57959 103.465 6.5455 103.383 6.5455H102.727V9.17902H102.036ZM103.937 7.69607L104.721 9.17902H103.962L103.195 7.69607H103.937ZM103.229 11.054C102.758 11.054 102.316 10.966 101.904 10.7898C101.492 10.6137 101.13 10.3694 100.817 10.0569C100.505 9.74436 100.261 9.38215 100.085 8.97022C99.9084 8.55828 99.8203 8.11652 99.8203 7.64493C99.8203 7.17334 99.9084 6.73158 100.085 6.31965C100.261 5.90772 100.505 5.5455 100.817 5.233C101.13 4.9205 101.492 4.67618 101.904 4.50004C102.316 4.32391 102.758 4.23584 103.229 4.23584C103.701 4.23584 104.143 4.32391 104.555 4.50004C104.967 4.67618 105.329 4.9205 105.641 5.233C105.954 5.5455 106.198 5.90772 106.374 6.31965C106.55 6.73158 106.638 7.17334 106.638 7.64493C106.638 8.11652 106.55 8.55828 106.374 8.97022C106.198 9.38215 105.954 9.74436 105.641 10.0569C105.329 10.3694 104.967 10.6137 104.555 10.7898C104.143 10.966 103.701 11.054 103.229 11.054ZM103.229 10.2358C103.707 10.2358 104.141 10.1194 104.533 9.88641C104.925 9.65345 105.238 9.34095 105.471 8.94891C105.704 8.55686 105.82 8.1222 105.82 7.64493C105.82 7.16766 105.704 6.733 105.471 6.34095C105.238 5.94891 104.925 5.63641 104.533 5.40345C104.141 5.1705 103.707 5.05402 103.229 5.05402C102.752 5.05402 102.317 5.1705 101.925 5.40345C101.533 5.63641 101.221 5.94891 100.988 6.34095C100.755 6.733 100.638 7.16766 100.638 7.64493C100.638 8.1222 100.755 8.55686 100.988 8.94891C101.221 9.34095 101.533 9.65345 101.925 9.88641C102.317 10.1194 102.752 10.2358 103.229 10.2358Z" fill="#292933"/>
</svg>
