<svg width="100" height="29" viewBox="0 0 100 29" fill="none" xmlns="http://www.w3.org/2000/svg">
<path d="M7.77713 8.32213C10.8345 7.64715 14.7251 7.68806 17.8905 8.48284C18.2413 8.5705 18.5816 8.66839 18.9117 8.77504C20.1296 9.16805 21.0856 9.65018 21.8166 10.7372L21.6065 10.35C19.7803 7.52151 12.3011 6.90058 9.29547 7.04084C11.9119 6.43599 15.0388 6.36878 16.9967 6.9561C16.8673 6.88496 16.6621 6.78125 16.4083 6.65299C15.7187 6.30451 14.6705 5.7748 13.8106 5.22482C12.7184 4.52646 12.1339 3.61626 13.6034 2.57311C16.2361 0.705952 11.8186 0.957244 10.1582 1.14717C12.196 0.662122 13.6877 0.605143 14.9234 0.774619C12.0628 0.136163 9.17116 0.64459 7.04607 1.95072C5.21843 3.07569 3.81848 4.95307 3.59502 6.40969C3.56371 6.61059 3.80123 6.61207 4.03563 6.61353C4.26659 6.61497 4.49451 6.61639 4.45926 6.80854C4.42244 7.00959 4.292 7.35789 4.16281 7.70286C3.94935 8.27287 3.73928 8.8338 3.96054 8.70638C4.57321 8.35281 5.99092 7.88676 7.42048 7.90867C7.1541 7.9788 6.89956 8.05477 6.65983 8.13659C5.14444 8.65816 3.87471 9.30246 3.00307 10.629C4.22894 9.10424 5.89742 8.73646 7.75934 8.32605L7.77713 8.32213Z" fill="#292933"/>
<path d="M20.1505 10.2045C16.3754 7.52216 7.33337 7.70332 4.08062 10.8824C7.09659 8.36369 16.6062 8.16792 20.1505 10.2045Z" fill="#292933"/>
<path d="M5.69264 13.4249C5.64833 13.436 5.60997 13.4757 5.59877 13.5288C5.58396 13.599 5.62246 13.6662 5.68319 13.6779C5.69067 13.6794 5.69817 13.6799 5.7056 13.6797L5.78587 15.2604C5.83044 16.1389 5.87502 17.0174 5.91992 17.896C5.46985 17.3731 5.01974 16.3605 4.7023 15.288C4.36489 14.1469 4.18583 12.9358 4.14439 12.2579C3.96873 13.6201 4.59181 16.8713 5.92275 17.9515L5.92359 17.9679C6.2462 18.3828 6.59693 18.7466 6.97133 19.0622L6.9383 17.9886C6.94467 18.0392 6.97819 18.0809 7.02479 18.0899C7.08551 18.1016 7.14772 18.0548 7.16253 17.9846C7.17734 17.9144 7.13883 17.8472 7.07811 17.8355C7.0159 17.8238 6.95518 17.8706 6.94037 17.9408C6.93887 17.9479 6.93791 17.955 6.93748 17.962L6.86633 15.65L7.07167 15.5924L7.32769 16.079L7.23742 15.5355L7.79089 15.2798L7.16342 15.3923L6.88669 14.8868L6.99324 15.4507L6.86284 15.5367L6.80297 13.5913L7.01148 13.5326L7.16538 13.8248L7.11063 13.499L7.4436 13.3456L7.06623 13.4128L6.90049 13.1089L6.96412 13.4479L6.80185 13.555L6.7316 11.2721C6.34239 11.6008 5.97686 11.9807 5.64093 12.4117L5.69264 13.4249Z" fill="#292933"/>
<path d="M7.30953 19.6884C7.30212 19.7235 7.32137 19.7571 7.35099 19.763C7.38209 19.7688 7.41171 19.7454 7.41912 19.7103C7.42652 19.6753 7.40727 19.6416 7.37765 19.6358C7.34803 19.6299 7.31693 19.6533 7.30953 19.6884Z" fill="#292933"/>
<path d="M8.86954 20.679C8.85473 20.7491 8.79252 20.7959 8.7318 20.7842C8.67108 20.7711 8.63257 20.7038 8.64738 20.6351C8.66219 20.5649 8.72439 20.5181 8.78512 20.5298C8.84584 20.5415 8.88435 20.6088 8.86954 20.679Z" fill="#292933"/>
<path d="M9.82203 20.7458C9.81463 20.7809 9.83388 20.8145 9.8635 20.8204C9.8946 20.8262 9.92422 20.8028 9.93163 20.7677C9.93903 20.7326 9.91978 20.699 9.89016 20.6932C9.86054 20.6859 9.82944 20.7107 9.82203 20.7458Z" fill="#292933"/>
<path d="M11.1029 20.1499C11.0422 20.1382 11.0037 20.0709 11.0185 20.0007C11.0333 19.9306 11.0941 19.8823 11.1563 19.8955C11.217 19.9072 11.2555 19.9744 11.2407 20.0446C11.2259 20.1148 11.1637 20.1616 11.1029 20.1499Z" fill="#292933"/>
<path d="M10.1382 18.4767C10.1693 18.4826 10.1989 18.4592 10.2063 18.4241C10.2138 18.389 10.1945 18.3553 10.1649 18.3495C10.1338 18.3436 10.1042 18.367 10.0968 18.4021C10.0893 18.4372 10.1086 18.4694 10.1382 18.4767Z" fill="#292933"/>
<path d="M12.3292 21.4656C12.3218 21.5007 12.3411 21.5344 12.3707 21.5402C12.4018 21.5461 12.4314 21.5227 12.4388 21.4876C12.4462 21.4525 12.427 21.4188 12.3973 21.413C12.3677 21.4071 12.3366 21.4305 12.3292 21.4656Z" fill="#292933"/>
<path d="M15.2178 22.0615C15.2252 22.0264 15.2548 22.003 15.2859 22.0089C15.317 22.0147 15.3348 22.0483 15.3274 22.0834C15.32 22.1185 15.2904 22.1419 15.2593 22.1361C15.2296 22.1302 15.2104 22.0966 15.2178 22.0615Z" fill="#292933"/>
<path d="M14.0617 20.3681C13.9832 20.3896 13.9047 20.4101 13.826 20.4296C13.8162 20.4336 13.806 20.4362 13.7956 20.4371C13.2167 20.5788 12.6335 20.666 12.0535 20.6939C11.6804 19.8429 11.305 18.9581 10.9305 18.0754C10.7779 17.7156 10.6252 17.3557 10.473 16.999C9.95213 18.1839 9.45046 19.3015 8.97394 20.238C8.43379 20.035 7.91583 19.7632 7.42896 19.4199C7.81964 18.8589 8.23697 18.067 8.67797 17.1393C8.79026 16.9037 8.89073 16.6884 8.97938 16.4983L9.07309 16.2977C9.12134 16.1933 9.16634 16.0965 9.2077 16.0075C9.25886 15.8974 9.30465 15.7989 9.34391 15.7133C9.41642 15.5585 9.4771 15.4328 9.52593 15.3379C9.57477 15.2429 9.61916 15.1582 9.65912 15.0836C9.64116 15.052 9.62265 15.0184 9.60335 14.9834C9.58486 14.9499 9.5656 14.9149 9.54544 14.8792L9.56172 14.9792L9.48477 14.8331L9.33234 14.8769L9.46109 14.7907L9.44243 14.689C9.40955 14.6247 9.37318 14.5507 9.33355 14.4671L9.30499 14.4085C9.23319 14.2611 9.14636 14.0829 9.04349 13.8798C9.00426 13.8023 8.96187 13.718 8.91631 13.6273C8.82619 13.448 8.72328 13.2432 8.60841 13.0193C8.15409 12.1441 7.71161 11.3946 7.28393 10.8482C7.8522 10.4567 8.46191 10.1586 9.09825 9.94971C9.58513 10.8701 10.0824 11.9337 10.5811 13.0514C11.0665 11.8855 11.5667 10.7007 12.0757 9.57715C12.7195 9.61368 13.3632 9.71741 13.9996 9.88396C13.4935 10.7635 12.9903 11.757 12.4931 12.7972C12.3786 13.0385 12.2763 13.2536 12.1868 13.4419L12.0772 13.6723C11.9648 13.909 11.87 14.1077 11.7901 14.2684C11.7117 14.4291 11.6451 14.5621 11.5918 14.6673C11.5386 14.7725 11.4912 14.8645 11.4498 14.9419C11.4912 15.0091 11.5386 15.0924 11.5903 15.1918C11.6421 15.2911 11.7102 15.4328 11.7946 15.6169C11.8284 15.6902 11.8657 15.7713 11.9063 15.8599C11.9669 15.992 12.0351 16.1407 12.1113 16.305C12.161 16.4124 12.2155 16.5307 12.2749 16.6595L12.2754 16.6608C12.3677 16.8612 12.4717 17.087 12.5878 17.3365C13.0865 18.4206 13.5793 19.455 14.0617 20.3681Z" fill="#292933"/>
<path d="M18.3597 18.1994C18.3523 18.2345 18.3716 18.2681 18.4012 18.274C18.4323 18.2798 18.4619 18.2564 18.4694 18.2213C18.4768 18.1863 18.4575 18.1526 18.4279 18.1468C18.3968 18.1409 18.3657 18.1643 18.3597 18.1994Z" fill="#292933"/>
<path d="M20.6989 17.8406C20.7063 17.8055 20.7359 17.7821 20.767 17.788C20.7981 17.7938 20.8174 17.8274 20.8085 17.8625C20.8011 17.8976 20.7715 17.921 20.7404 17.9152C20.7107 17.9093 20.6915 17.8757 20.6989 17.8406Z" fill="#292933"/>
<path fill-rule="evenodd" clip-rule="evenodd" d="M5.18499 23.7947L5.24359 23.8716C4.4267 23.2565 3.59058 22.1929 3.01639 21.3674C3.35528 22.0585 3.72969 22.6955 4.25504 23.4683C3.69861 23.0592 3.00603 22.3083 2.77369 21.965C3.08002 23.4011 6.67462 27.6015 8.66209 28.0778C8.17965 27.2947 8.63101 26.2778 9.61956 26.4064C10.7309 26.551 10.6525 28.0106 9.77199 28.3042C10.4409 28.4109 11.1734 28.4766 11.9252 28.5C11.6455 28.4532 11.388 28.3963 11.1601 28.3276C10.8449 28.227 10.8561 28.2157 10.9319 28.1394C11.0123 28.0584 11.1656 27.9041 11.0787 27.4919C10.8456 26.7857 11.0499 26.7775 11.6767 26.7524C11.9136 26.7429 12.2108 26.731 12.5675 26.6781C13.0617 26.6051 13.6626 26.4765 14.2175 26.348C9.10161 26.5116 7.69869 26.3669 4.50662 22.8795C4.76536 23.2458 5.0556 23.6254 5.18499 23.7947ZM8.44899 27.787C7.96803 27.245 8.40607 26.3509 9.19484 26.3728C8.53778 26.4619 8.19741 27.1909 8.44899 27.787ZM9.96881 28.2852C10.7132 28.05 10.7472 26.9075 10.2085 26.5379C10.9144 26.8418 10.8671 28.2297 9.96881 28.2852Z" fill="#292933"/>
<path d="M8.92693 27.1155C8.92693 27.1155 9.14003 26.7809 9.57364 26.8393C10.0072 26.8992 10.028 27.3814 10.028 27.3814C10.028 27.3814 9.70534 26.5734 8.92693 27.1155Z" fill="#292933"/>
<path fill-rule="evenodd" clip-rule="evenodd" d="M9.45128 26.5734C9.91448 26.5734 10.2904 26.9445 10.2904 27.4018C10.2904 27.8591 9.91448 28.2302 9.45128 28.2302C8.98808 28.2302 8.6122 27.8591 8.6122 27.4018C8.6122 26.9445 8.98808 26.5734 9.45128 26.5734ZM8.94665 26.9036C8.66843 27.1783 8.66843 27.6253 8.94665 27.9C9.22486 28.1747 9.6777 28.1747 9.95592 27.9C10.2341 27.6253 10.2341 27.1783 9.95592 26.9036C9.6777 26.6289 9.22486 26.6289 8.94665 26.9036Z" fill="#292933"/>
<path d="M12.9905 25.0317C10.9084 24.9397 8.80991 24.3611 7.83616 23.6701C8.75812 23.8732 9.73779 23.993 10.7352 24.0222C7.80952 23.7373 5.81318 22.6079 4.49906 20.9088C4.7018 21.239 4.93562 21.5736 5.20347 21.9154C4.50645 21.4625 3.44687 20.0936 3.16865 18.7728C3.08226 18.9462 3.09514 19.1479 3.10767 19.3439C3.11466 19.4534 3.12155 19.5611 3.11094 19.6611C3.10413 19.729 3.07918 19.8049 3.05391 19.8817C3.02424 19.9719 2.99415 20.0634 2.99255 20.1447C2.98071 20.7086 3.67921 21.4961 4.25192 22.0776C4.34367 22.1696 4.43986 22.2646 4.53605 22.3596L4.59545 22.4168C4.69486 22.5127 4.76618 22.5814 4.79355 22.6109L4.98349 22.7954C6.58673 24.3539 8.34744 26.0656 10.6805 25.7564C10.0456 25.5577 9.08369 25.1881 8.64713 24.8418C9.81474 25.0537 12.4504 25.0785 12.9905 25.0317Z" fill="#292933"/>
<path d="M12.2115 23.4797C11.1978 23.5396 8.83448 23.1963 7.41233 22.5301C6.31279 22.0144 5.33163 21.243 4.49699 20.1107C2.5628 17.478 2.21651 13.7276 3.0038 10.6303C2.05817 17.253 4.98831 22.6119 12.2411 22.739C19.4259 22.8647 23.4763 17.7307 21.8203 10.7355C23.7841 17.4035 19.9764 23.3117 12.2323 23.227C10.6962 23.2095 8.95287 22.8442 7.45228 22.0786C6.38678 21.5366 5.45594 20.7535 4.75301 19.9193C5.34347 20.8806 6.34386 21.7952 7.53664 22.3387C9.04758 23.0283 10.8826 23.3643 12.2115 23.4797Z" fill="#292933"/>
<path d="M16.8223 25.4006C17.4527 25.1406 18.274 24.2683 18.274 24.2683C18.274 24.2683 17.6066 24.8586 16.7423 25.2501C16.2939 25.4532 15.7656 25.573 15.3069 25.5935C15.3054 25.5935 16.22 25.649 16.8223 25.4006Z" fill="#292933"/>
<path d="M15.7087 26.6848C15.0014 27.1421 15.2855 28.362 16.1571 28.4044C15.4113 28.2247 15.1789 27.1918 15.7087 26.6848Z" fill="#292933"/>
<path d="M17.0139 26.4141C17.4875 26.5719 17.7376 27.2921 17.5185 27.7217C17.8929 27.3038 17.6236 26.4535 17.0139 26.4141Z" fill="#292933"/>
<path d="M17.7207 27.7958C18.9268 27.692 20.8802 24.6342 21.0563 24.2923C20.4955 25.185 18.7093 27.283 17.7207 27.7958Z" fill="#292933"/>
<path d="M19.9368 21.5611C18.8683 22.6627 17.1428 23.5524 15.5283 23.8928C17.131 23.7555 19.1377 22.8643 19.9368 21.5611Z" fill="#292933"/>
<path d="M21.0217 22.4642L20.9773 22.5168L22.2485 20.6453C22.2485 20.6453 22.506 21.4473 22.5001 21.966C22.4941 22.4861 21.0809 24.2554 21.0809 24.2554C21.0809 24.2554 22.176 22.5767 22.2736 22.229C22.3713 21.8813 22.0887 21.1873 22.0887 21.1873L21.0616 22.4174C20.554 23.2765 19.231 24.7828 18.4438 25.6243C18.3368 25.7384 18.2462 25.8238 18.1715 25.8942C17.9228 26.1286 17.8501 26.1972 17.9332 26.6061C17.9776 26.8223 18.0131 27.0313 17.8474 27.3863C17.8474 27.3863 17.8829 27.0035 17.7704 26.7142C17.562 26.1736 16.7177 26.2555 16.1384 26.3116C16.0429 26.3209 15.9547 26.3294 15.8777 26.3344C17.4685 26.1766 18.2159 25.5893 18.5251 25.2971C19.4234 24.4468 20.4223 23.2254 21.0217 22.4642Z" fill="#292933"/>
<path d="M21.004 21.7464C21.004 21.7464 22.142 20.3877 22.1539 20.1744C22.1638 19.9949 22.0722 19.8082 21.9697 19.5994C21.9504 19.5601 21.9306 19.5199 21.9112 19.479C21.9025 19.4494 21.8925 19.4179 21.8817 19.3837L21.8638 19.327C21.6744 18.7295 21.7691 18.4606 21.7691 18.4606C21.5309 18.7192 21.741 19.5944 21.9067 19.8617C21.9526 19.983 21.9867 20.0911 21.9541 20.1817C21.8594 20.4505 21.004 21.7464 21.004 21.7464Z" fill="#292933"/>
<path d="M22.6444 11.6737C23.0128 12.3282 23.1742 13.8929 23.0617 14.3546C23.4938 14.2027 23.7927 13.9192 23.8431 12.9754L23.8432 13.1006C23.8452 13.8241 23.8471 14.4929 22.8101 14.5854C22.9699 14.0595 22.8042 12.1909 22.6444 11.6737Z" fill="#292933"/>
<path fill-rule="evenodd" clip-rule="evenodd" d="M23.5802 11.6447C23.6615 11.5643 23.7119 11.4547 23.7119 11.332C23.7119 11.2108 23.6615 11.0997 23.5802 11.0194C23.4988 10.939 23.3878 10.8893 23.2635 10.8893C23.1406 10.8893 23.0282 10.939 22.9468 11.0194C22.8654 11.0997 22.8151 11.2093 22.8151 11.332C22.8151 11.4533 22.8654 11.5643 22.9468 11.6447C23.0282 11.725 23.1391 11.7747 23.2635 11.7747C23.3878 11.7732 23.4988 11.7236 23.5802 11.6447ZM23.04 11.332C23.04 11.2707 23.0652 11.2151 23.1051 11.1757C23.1451 11.1362 23.2013 11.1114 23.2635 11.1114C23.3256 11.1114 23.3818 11.1362 23.4218 11.1757C23.4618 11.2151 23.4869 11.2707 23.4869 11.332C23.4869 11.3934 23.4618 11.4489 23.4218 11.4883C23.3818 11.5278 23.3256 11.5526 23.2635 11.5526C23.2013 11.5526 23.1451 11.5278 23.1051 11.4883C23.0652 11.4489 23.04 11.3934 23.04 11.332Z" fill="#292933"/>
<path d="M22.5563 9.15641C23.169 8.90366 23.65 9.29374 23.8201 9.85038C24.0643 10.6496 24.0125 11.83 23.9385 12.1997L23.9375 12.1635C23.925 11.742 23.8934 10.6709 23.6218 9.92344C23.4531 9.45884 22.9825 9.10528 22.5563 9.15641Z" fill="#292933"/>
<path d="M18.7338 10.9058L18.4585 10.4003L18.5636 10.9657L18.1314 11.2492L18.6435 11.106L18.8995 11.5925L18.8077 11.049L18.9957 10.9628L19.3627 10.7934L18.9765 10.862L18.7338 10.9058Z" fill="#292933"/>
<path d="M15.9034 16.0526C15.9819 16.1008 16.0011 16.2133 15.9449 16.3039C15.8886 16.3944 15.7791 16.4295 15.7007 16.3828C15.6223 16.3345 15.603 16.222 15.6593 16.1315C15.7155 16.0409 15.825 16.0043 15.9034 16.0526Z" fill="#292933"/>
<path d="M19.8617 11.2625L19.9386 11.4086L19.9105 11.2449L20.0777 11.1675L19.8883 11.2011L19.8054 11.0506L19.838 11.2201L19.7078 11.3048L19.8617 11.2625Z" fill="#292933"/>
<path d="M18.5174 14.551C18.5248 14.5159 18.5055 14.4823 18.4759 14.4764C18.4448 14.4706 18.4152 14.494 18.4078 14.529C18.4004 14.5641 18.4196 14.5978 18.4492 14.6036C18.4803 14.6095 18.5114 14.5861 18.5174 14.551Z" fill="#292933"/>
<path d="M18.2105 16.5635C18.1321 16.5152 18.1129 16.4027 18.1691 16.3122C18.2253 16.2216 18.3348 16.1865 18.4133 16.2333C18.4917 16.2815 18.5109 16.394 18.4547 16.4846C18.3985 16.5751 18.289 16.6117 18.2105 16.5635Z" fill="#292933"/>
<path d="M19.5908 17.0503C19.5597 17.0444 19.5301 17.0678 19.5226 17.1029C19.5152 17.138 19.5345 17.1716 19.5641 17.1775C19.5952 17.1833 19.6248 17.1599 19.6322 17.1248C19.6411 17.0897 19.6219 17.0561 19.5908 17.0503Z" fill="#292933"/>
<path d="M4.89826 12.2594L4.74584 11.9672L4.43802 12.0534L4.69848 11.8824L4.63485 11.5435L4.79911 11.8474L5.17647 11.7802L4.84351 11.9336L4.89826 12.2594Z" fill="#292933"/>
<path d="M7.38979 11.4065C7.3972 11.3714 7.37794 11.3378 7.34832 11.3319C7.31721 11.3261 7.28759 11.3495 7.28019 11.3846C7.27278 11.4197 7.29204 11.4533 7.32166 11.4592C7.35276 11.465 7.38238 11.4416 7.38979 11.4065Z" fill="#292933"/>
<path d="M17.8249 19.1595L18.1001 19.665L18.7291 19.5525L18.1741 19.8082L18.2659 20.3517L18.0099 19.8666L17.4993 20.0083L17.9314 19.7249L17.8249 19.1595Z" fill="#292933"/>
<path d="M8.95125 9.60226C8.89501 9.69284 8.91425 9.80534 8.99268 9.85355C9.07112 9.90176 9.18063 9.86524 9.23686 9.77466C9.29309 9.68407 9.27386 9.57158 9.19543 9.52337C9.11699 9.47661 9.00748 9.51168 8.95125 9.60226Z" fill="#292933"/>
<path d="M12.4972 13.3665C12.5046 13.3314 12.5343 13.308 12.5654 13.3138C12.5965 13.3197 12.6157 13.3533 12.6068 13.3884C12.5994 13.4235 12.5683 13.4469 12.5387 13.441C12.5091 13.4352 12.4898 13.4016 12.4972 13.3665Z" fill="#292933"/>
<path d="M3.51158 11.1528C3.59001 11.201 3.69952 11.1645 3.75576 11.0739C3.81199 10.9833 3.79275 10.8708 3.71432 10.8226C3.63589 10.7744 3.52638 10.8109 3.47015 10.9015C3.41391 10.9935 3.43315 11.106 3.51158 11.1528Z" fill="#292933"/>
<path d="M1.65021 11.4886C1.71237 11.4886 1.7686 11.4638 1.80856 11.4243C1.84852 11.3849 1.87368 11.3293 1.87368 11.268C1.87368 11.2066 1.84852 11.1511 1.80856 11.1117C1.7686 11.0722 1.71237 11.0474 1.65021 11.0474C1.58806 11.0474 1.53182 11.0722 1.49187 11.1117C1.45191 11.1511 1.42675 11.2066 1.42675 11.268C1.42675 11.3293 1.45191 11.3849 1.49187 11.4243C1.53182 11.4638 1.58806 11.4886 1.65021 11.4886Z" fill="#292933"/>
<path fill-rule="evenodd" clip-rule="evenodd" d="M1.15778 10.2743C1.32796 9.36559 1.44931 8.88346 2.42158 8.93897C2.39801 8.9476 2.37453 8.95595 2.35117 8.96424C1.98307 9.09502 1.64705 9.2144 1.49815 10.2626C1.45819 10.5461 1.48631 10.7594 1.57214 10.7272C1.84444 10.625 2.16261 10.9464 2.15669 11.278C2.1535 11.5384 2.05176 11.6237 1.92283 11.7319C1.87231 11.7743 1.81762 11.8201 1.76304 11.8814C1.39604 12.2963 1.5529 13.4958 1.82668 13.9239L1.77784 13.2825C1.80264 13.3651 1.82618 13.4521 1.85027 13.541C1.95696 13.9351 2.07422 14.3681 2.35795 14.6339C2.0383 14.6398 1.75121 14.6369 1.48335 14.406C0.789293 13.8099 1.00091 11.1056 1.15778 10.2743ZM1.96727 10.9595C1.88587 10.8792 1.7734 10.8295 1.65057 10.8295C1.52627 10.8295 1.41528 10.8792 1.33388 10.9595C1.25249 11.0399 1.20218 11.1509 1.20218 11.2722C1.20218 11.3949 1.25249 11.5045 1.33388 11.5848C1.41528 11.6652 1.52627 11.7149 1.65057 11.7149C1.77488 11.7149 1.88587 11.6652 1.96727 11.5848C2.04866 11.5045 2.09897 11.3935 2.09897 11.2722C2.09897 11.1495 2.04866 11.0399 1.96727 10.9595Z" fill="#292933"/>
<path d="M2.74337 10.3628C2.87952 9.17793 3.46555 7.62196 3.82072 7.06094C2.9032 7.62927 2.67086 9.68197 2.74337 10.3628Z" fill="#292933"/>
<path d="M21.4938 7.31397C21.2067 4.85803 18.682 1.98716 15.891 1.31218C18.2381 2.09674 20.6103 4.93838 21.4938 7.31397Z" fill="#292933"/>
<path d="M15.9123 27.4345C15.9123 27.4345 16.2261 26.4294 17.1347 27.135C16.7647 26.555 15.9449 26.7333 15.9123 27.4345Z" fill="#292933"/>
<path fill-rule="evenodd" clip-rule="evenodd" d="M15.6963 27.4018C15.6963 26.9445 16.0722 26.5734 16.5354 26.5734C16.9986 26.5734 17.3745 26.9445 17.3745 27.4018C17.3745 27.8591 16.9986 28.2302 16.5354 28.2302C16.0722 28.2302 15.6963 27.8591 15.6963 27.4018ZM16.0307 27.9C16.309 28.1747 16.7618 28.1747 17.04 27.9C17.3182 27.6253 17.3182 27.1783 17.04 26.9036C16.7618 26.6289 16.309 26.6289 16.0307 26.9036C15.7525 27.1783 15.7525 27.6253 16.0307 27.9Z" fill="#292933"/>
<path d="M14.6797 1.61529C14.6427 2.0346 14.3394 2.36771 14.036 2.63215C12.7086 3.79218 13.077 4.41164 14.5332 5.2634C15.0009 5.53661 15.6343 5.89601 16.1552 6.18529C16.038 6.06962 15.6644 5.80334 15.2836 5.53195C15.0632 5.37484 14.8403 5.21601 14.6635 5.0837C13.5092 4.21733 13.2265 3.93682 14.2387 2.83523C14.517 2.5328 14.9017 2.04044 14.6797 1.61529Z" fill="#292933"/>
<path d="M18.8791 3.83022C18.8805 3.83204 18.882 3.83387 18.8835 3.83533C18.8909 3.84556 18.8998 3.85432 18.9101 3.86017C19.2313 4.23272 19.6915 4.80397 19.8824 5.24958C19.8898 5.26418 19.9416 5.36938 19.9312 5.38107C19.915 5.38253 19.8484 5.28318 19.841 5.27149C19.5095 4.80105 19.1706 4.39489 18.7814 3.9712C18.7725 3.96244 18.7636 3.95367 18.7562 3.9449C18.7547 3.94344 18.7533 3.94162 18.7518 3.93979C18.7503 3.93796 18.7488 3.93614 18.7473 3.93468L18.7385 3.92591C18.3596 3.49784 17.9837 3.10045 17.5309 2.74542C17.5176 2.73666 17.4125 2.66215 17.414 2.64754C17.4268 2.63866 17.5133 2.68375 17.5456 2.70057L17.5561 2.70598C18 2.93389 18.5239 3.4467 18.8657 3.81488C18.8687 3.81926 18.8717 3.82218 18.8746 3.8251C18.8761 3.82656 18.8776 3.82839 18.8791 3.83022Z" fill="#292933"/>
<path d="M7.63798 20.9908C7.62762 21.001 7.61727 21.0127 7.61431 21.0287C7.60691 21.0638 7.62614 21.0974 7.65574 21.1033C7.68682 21.1091 7.71642 21.0857 7.72382 21.0507C7.72465 21.0466 7.72362 21.0434 7.72255 21.0401C7.72171 21.0375 7.72086 21.0349 7.72086 21.0317C7.75082 21.047 7.78061 21.0625 7.81039 21.0781C7.89974 21.1246 7.98908 21.1712 8.08342 21.2128C11.5996 22.779 15.5508 21.7154 16.5216 21.1734C14.2767 21.714 12.1235 21.7476 10.3521 21.4232L10.3358 21.3925L10.3417 21.4203C9.58253 21.28 8.89291 21.0755 8.29801 20.814C4.9831 19.3588 3.51951 15.68 3.46771 12.254C3.22945 15.8305 4.39707 19.2989 7.63798 20.9908Z" fill="#292933"/>
<path d="M21.0236 11.3563C21.546 12.9941 21.3433 16.0666 20.5959 17.6138C21.731 16.1542 21.9397 12.9561 21.0236 11.3563Z" fill="#292933"/>
<path d="M8.71266 13.7507C8.79109 13.7989 8.81033 13.9114 8.7541 14.002C8.69786 14.0941 8.58835 14.1291 8.50992 14.0809C8.43149 14.0327 8.41225 13.9202 8.46848 13.8296C8.52472 13.739 8.63423 13.7025 8.71266 13.7507Z" fill="#292933"/>
<path d="M6.59633 11.1497C6.65256 11.0591 6.63333 10.9466 6.55489 10.8984C6.47646 10.8502 6.36695 10.8867 6.31072 10.9773C6.25448 11.0679 6.27372 11.1804 6.35215 11.2286C6.43059 11.2768 6.54009 11.2403 6.59633 11.1497Z" fill="#292933"/>
<path d="M19.9176 14.5926C19.8391 14.5444 19.8199 14.4319 19.8761 14.3413C19.9324 14.2507 20.0419 14.2156 20.1203 14.2624C20.1987 14.3106 20.218 14.4231 20.1617 14.5137C20.1055 14.6043 19.996 14.6408 19.9176 14.5926Z" fill="#292933"/>
<path d="M14.3499 9.53179C14.335 9.60197 14.3736 9.66923 14.4343 9.68093C14.495 9.69263 14.5572 9.64584 14.572 9.57565C14.5868 9.50547 14.5483 9.43821 14.4876 9.42651C14.4254 9.41336 14.3632 9.46014 14.3499 9.53179Z" fill="#292933"/>
<path d="M7.58583 14.3527C7.60064 14.2825 7.66285 14.2357 7.72357 14.2474C7.78429 14.2591 7.8228 14.3263 7.80799 14.3965C7.79318 14.4667 7.73098 14.5135 7.67025 14.5018C7.60953 14.4901 7.57102 14.4228 7.58583 14.3527Z" fill="#292933"/>
<path d="M13.427 18.0347C13.4122 18.1049 13.4507 18.1721 13.5114 18.1838C13.5721 18.1955 13.6343 18.1487 13.6492 18.0785C13.664 18.0084 13.6255 17.9411 13.5647 17.9294C13.5025 17.9177 13.4403 17.9645 13.427 18.0347Z" fill="#292933"/>
<path d="M12.771 15.0277L12.6882 14.8758L12.7192 15.0452L12.589 15.13L12.7429 15.0876L12.8199 15.2337L12.7932 15.0701L12.959 14.9927L12.771 15.0277Z" fill="#292933"/>
<path d="M14.1462 15.6541C14.0855 15.6424 14.0233 15.6892 14.0085 15.7594C13.9936 15.8296 14.0322 15.8968 14.0929 15.9085C14.1536 15.9202 14.2158 15.8734 14.2306 15.8033C14.2454 15.7331 14.2069 15.6658 14.1462 15.6541Z" fill="#292933"/>
<path d="M13.9337 16.2016L14.0151 16.352L14.2045 16.3184L14.0373 16.3959L14.0654 16.5595L13.9885 16.4134L13.8346 16.4558L13.9648 16.371L13.9337 16.2016Z" fill="#292933"/>
<path d="M14.0058 12.8239C14.0621 12.7333 14.0428 12.6208 13.9644 12.5726C13.886 12.5244 13.7764 12.5609 13.7202 12.6515C13.664 12.7421 13.6832 12.8546 13.7616 12.9028C13.8401 12.9496 13.9496 12.9145 14.0058 12.8239Z" fill="#292933"/>
<path d="M19.8736 15.493L19.955 15.6449L20.1444 15.6113L19.9772 15.6873L20.0053 15.851L19.9284 15.7049L19.8388 15.7295C19.8226 15.8554 19.7856 15.9818 19.7292 16.125C19.6671 16.2828 19.5753 16.4611 19.4525 16.6685C19.3297 16.8745 19.1743 17.1112 18.9789 17.364C18.7851 17.6153 18.5468 17.8826 18.2612 18.1281C17.0847 19.1289 15.7188 19.8754 14.304 20.3006C14.6103 19.3261 14.9196 18.3837 15.226 17.4984C16.364 17.2822 17.4502 16.971 18.4077 16.5794C18.5483 16.5224 18.6489 16.4465 18.714 16.3617C18.7791 16.277 18.8147 16.1718 18.8206 16.0432C18.8265 15.9147 18.7999 15.8299 18.7407 15.7861C18.68 15.7423 18.5808 15.7277 18.4402 15.7496C17.7477 15.8562 16.9885 15.9468 16.1894 16.0199C15.9038 16.0462 15.6551 16.0038 15.445 15.884C15.2348 15.7642 15.0587 15.5801 14.9196 15.3332C14.779 15.0863 14.6755 14.7795 14.6089 14.4171C14.5423 14.0548 14.5097 13.6516 14.5127 13.2133C14.5156 12.7355 14.5571 12.3045 14.637 11.9334C14.7169 11.5609 14.8382 11.2614 15.001 11.0452C15.1638 10.8289 15.3725 10.6989 15.6241 10.6638C15.8756 10.6288 16.1746 10.7047 16.512 10.8903C17.8039 11.5974 18.9878 12.5661 19.9453 13.7407C19.7026 13.7275 19.4495 13.862 19.1891 14.1293C18.3559 13.7071 17.3955 13.355 16.3699 13.0833C16.2101 13.0409 16.0902 13.0555 16.0103 13.1285C15.9304 13.2001 15.889 13.3565 15.886 13.5931C15.883 13.8298 15.92 14.0022 15.997 14.1059C16.0739 14.2097 16.1923 14.2696 16.3507 14.2886C17.1483 14.3806 17.909 14.4975 18.6001 14.6334C19.0662 14.7283 19.3844 14.9197 19.5871 15.0965C19.7884 15.2806 19.8683 15.4442 19.8432 15.6911C19.8428 15.6952 19.8424 15.6992 19.8419 15.7033L19.9047 15.6625L19.8736 15.493Z" fill="#292933"/>
<path d="M8.36685 15.9723L8.39349 16.1359L8.31653 15.9898L8.16411 16.0322L8.29286 15.9475L8.26178 15.778L8.34465 15.9299L8.53259 15.8963L8.36685 15.9723Z" fill="#292933"/>
<path d="M7.77713 8.32213C10.8345 7.64715 14.7251 7.68806 17.8905 8.48284C18.2413 8.5705 18.5816 8.66839 18.9117 8.77504C20.1296 9.16805 21.0856 9.65018 21.8166 10.7372L21.6065 10.35C19.7803 7.52151 12.3011 6.90058 9.29547 7.04084C11.9119 6.43599 15.0388 6.36878 16.9967 6.9561C16.8673 6.88496 16.6621 6.78125 16.4083 6.65299C15.7187 6.30451 14.6705 5.7748 13.8106 5.22482C12.7184 4.52646 12.1339 3.61626 13.6034 2.57311C16.2361 0.705952 11.8186 0.957244 10.1582 1.14717C12.196 0.662122 13.6877 0.605143 14.9234 0.774619C12.0628 0.136163 9.17116 0.64459 7.04607 1.95072C5.21843 3.07569 3.81848 4.95307 3.59502 6.40969C3.56371 6.61059 3.80123 6.61207 4.03563 6.61353C4.26659 6.61497 4.49451 6.61639 4.45926 6.80854C4.42244 7.00959 4.292 7.35789 4.16281 7.70286C3.94935 8.27287 3.73928 8.8338 3.96054 8.70638C4.57321 8.35281 5.99092 7.88676 7.42048 7.90867C7.1541 7.9788 6.89956 8.05477 6.65983 8.13659C5.14444 8.65816 3.87471 9.30246 3.00307 10.629C4.22894 9.10424 5.89742 8.73646 7.75934 8.32605L7.77713 8.32213Z" stroke="#292933" stroke-width="0.15" stroke-linejoin="round"/>
<path d="M20.1505 10.2045C16.3754 7.52216 7.33337 7.70332 4.08062 10.8824C7.09659 8.36369 16.6062 8.16792 20.1505 10.2045Z" stroke="#292933" stroke-width="0.15" stroke-linejoin="round"/>
<path d="M5.69264 13.4249C5.64833 13.436 5.60997 13.4757 5.59877 13.5288C5.58396 13.599 5.62246 13.6662 5.68319 13.6779C5.69067 13.6794 5.69817 13.6799 5.7056 13.6797L5.78587 15.2604C5.83044 16.1389 5.87502 17.0174 5.91992 17.896C5.46985 17.3731 5.01974 16.3605 4.7023 15.288C4.36489 14.1469 4.18583 12.9358 4.14439 12.2579C3.96873 13.6201 4.59181 16.8713 5.92275 17.9515L5.92359 17.9679C6.2462 18.3828 6.59693 18.7466 6.97133 19.0622L6.9383 17.9886C6.94467 18.0392 6.97819 18.0809 7.02479 18.0899C7.08551 18.1016 7.14772 18.0548 7.16253 17.9846C7.17734 17.9144 7.13883 17.8472 7.07811 17.8355C7.0159 17.8238 6.95518 17.8706 6.94037 17.9408C6.93887 17.9479 6.93791 17.955 6.93748 17.962L6.86633 15.65L7.07167 15.5924L7.32769 16.079L7.23742 15.5355L7.79089 15.2798L7.16342 15.3923L6.88669 14.8868L6.99324 15.4507L6.86284 15.5367L6.80297 13.5913L7.01148 13.5326L7.16538 13.8248L7.11063 13.499L7.4436 13.3456L7.06623 13.4128L6.90049 13.1089L6.96412 13.4479L6.80185 13.555L6.7316 11.2721C6.34239 11.6008 5.97686 11.9807 5.64093 12.4117L5.69264 13.4249Z" stroke="#292933" stroke-width="0.15" stroke-linejoin="round"/>
<path d="M7.30953 19.6884C7.30212 19.7235 7.32137 19.7571 7.35099 19.763C7.38209 19.7688 7.41171 19.7454 7.41912 19.7103C7.42652 19.6753 7.40727 19.6416 7.37765 19.6358C7.34803 19.6299 7.31693 19.6533 7.30953 19.6884Z" stroke="#292933" stroke-width="0.15" stroke-linejoin="round"/>
<path d="M8.86954 20.679C8.85473 20.7491 8.79252 20.7959 8.7318 20.7842C8.67108 20.7711 8.63257 20.7038 8.64738 20.6351C8.66219 20.5649 8.72439 20.5181 8.78512 20.5298C8.84584 20.5415 8.88435 20.6088 8.86954 20.679Z" stroke="#292933" stroke-width="0.15" stroke-linejoin="round"/>
<path d="M9.82203 20.7458C9.81463 20.7809 9.83388 20.8145 9.8635 20.8204C9.8946 20.8262 9.92422 20.8028 9.93163 20.7677C9.93903 20.7326 9.91978 20.699 9.89016 20.6932C9.86054 20.6859 9.82944 20.7107 9.82203 20.7458Z" stroke="#292933" stroke-width="0.15" stroke-linejoin="round"/>
<path d="M11.1029 20.1499C11.0422 20.1382 11.0037 20.0709 11.0185 20.0007C11.0333 19.9306 11.0941 19.8823 11.1563 19.8955C11.217 19.9072 11.2555 19.9744 11.2407 20.0446C11.2259 20.1148 11.1637 20.1616 11.1029 20.1499Z" stroke="#292933" stroke-width="0.15" stroke-linejoin="round"/>
<path d="M10.1382 18.4767C10.1693 18.4826 10.1989 18.4592 10.2063 18.4241C10.2138 18.389 10.1945 18.3553 10.1649 18.3495C10.1338 18.3436 10.1042 18.367 10.0968 18.4021C10.0893 18.4372 10.1086 18.4694 10.1382 18.4767Z" stroke="#292933" stroke-width="0.15" stroke-linejoin="round"/>
<path d="M12.3292 21.4656C12.3218 21.5007 12.3411 21.5344 12.3707 21.5402C12.4018 21.5461 12.4314 21.5227 12.4388 21.4876C12.4462 21.4525 12.427 21.4188 12.3973 21.413C12.3677 21.4071 12.3366 21.4305 12.3292 21.4656Z" stroke="#292933" stroke-width="0.15" stroke-linejoin="round"/>
<path d="M15.2178 22.0615C15.2252 22.0264 15.2548 22.003 15.2859 22.0089C15.317 22.0147 15.3348 22.0483 15.3274 22.0834C15.32 22.1185 15.2904 22.1419 15.2593 22.1361C15.2296 22.1302 15.2104 22.0966 15.2178 22.0615Z" stroke="#292933" stroke-width="0.15" stroke-linejoin="round"/>
<path d="M14.0617 20.3681C13.9832 20.3896 13.9047 20.4101 13.826 20.4296C13.8162 20.4336 13.806 20.4362 13.7956 20.4371C13.2167 20.5788 12.6335 20.666 12.0535 20.6939C11.6804 19.8429 11.305 18.9581 10.9305 18.0754C10.7779 17.7156 10.6252 17.3557 10.473 16.999C9.95213 18.1839 9.45046 19.3015 8.97394 20.238C8.43379 20.035 7.91583 19.7632 7.42896 19.4199C7.81964 18.8589 8.23697 18.067 8.67797 17.1393C8.79026 16.9037 8.89073 16.6884 8.97938 16.4983L9.07309 16.2977C9.12134 16.1933 9.16634 16.0965 9.2077 16.0075C9.25886 15.8974 9.30465 15.7989 9.34391 15.7133C9.41642 15.5585 9.4771 15.4328 9.52593 15.3379C9.57477 15.2429 9.61916 15.1582 9.65912 15.0836C9.64116 15.052 9.62265 15.0184 9.60335 14.9834C9.58486 14.9499 9.5656 14.9149 9.54544 14.8792L9.56172 14.9792L9.48477 14.8331L9.33234 14.8769L9.46109 14.7907L9.44243 14.689C9.40955 14.6247 9.37318 14.5507 9.33355 14.4671L9.30499 14.4085C9.23319 14.2611 9.14636 14.0829 9.04349 13.8798C9.00426 13.8023 8.96187 13.718 8.91631 13.6273C8.82619 13.448 8.72328 13.2432 8.60841 13.0193C8.15409 12.1441 7.71161 11.3946 7.28393 10.8482C7.8522 10.4567 8.46191 10.1586 9.09825 9.94971C9.58513 10.8701 10.0824 11.9337 10.5811 13.0514C11.0665 11.8855 11.5667 10.7007 12.0757 9.57715C12.7195 9.61368 13.3632 9.71741 13.9996 9.88396C13.4935 10.7635 12.9903 11.757 12.4931 12.7972C12.3786 13.0385 12.2763 13.2536 12.1868 13.4419L12.0772 13.6723C11.9648 13.909 11.87 14.1077 11.7901 14.2684C11.7117 14.4291 11.6451 14.5621 11.5918 14.6673C11.5386 14.7725 11.4912 14.8645 11.4498 14.9419C11.4912 15.0091 11.5386 15.0924 11.5903 15.1918C11.6421 15.2911 11.7102 15.4328 11.7946 15.6169C11.8284 15.6902 11.8657 15.7713 11.9063 15.8599C11.9669 15.992 12.0351 16.1407 12.1113 16.305C12.161 16.4124 12.2155 16.5307 12.2749 16.6595L12.2754 16.6608C12.3677 16.8612 12.4717 17.087 12.5878 17.3365C13.0865 18.4206 13.5793 19.455 14.0617 20.3681Z" stroke="#292933" stroke-width="0.15" stroke-linejoin="round"/>
<path d="M18.3597 18.1994C18.3523 18.2345 18.3716 18.2681 18.4012 18.274C18.4323 18.2798 18.4619 18.2564 18.4694 18.2213C18.4768 18.1863 18.4575 18.1526 18.4279 18.1468C18.3968 18.1409 18.3657 18.1643 18.3597 18.1994Z" stroke="#292933" stroke-width="0.15" stroke-linejoin="round"/>
<path d="M20.6989 17.8406C20.7063 17.8055 20.7359 17.7821 20.767 17.788C20.7981 17.7938 20.8174 17.8274 20.8085 17.8625C20.8011 17.8976 20.7715 17.921 20.7404 17.9152C20.7107 17.9093 20.6915 17.8757 20.6989 17.8406Z" stroke="#292933" stroke-width="0.15" stroke-linejoin="round"/>
<path fill-rule="evenodd" clip-rule="evenodd" d="M5.18499 23.7947L5.24359 23.8716C4.4267 23.2565 3.59058 22.1929 3.01639 21.3674C3.35528 22.0585 3.72969 22.6955 4.25504 23.4683C3.69861 23.0592 3.00603 22.3083 2.77369 21.965C3.08002 23.4011 6.67462 27.6015 8.66209 28.0778C8.17965 27.2947 8.63101 26.2778 9.61956 26.4064C10.7309 26.551 10.6525 28.0106 9.77199 28.3042C10.4409 28.4109 11.1734 28.4766 11.9252 28.5C11.6455 28.4532 11.388 28.3963 11.1601 28.3276C10.8449 28.227 10.8561 28.2157 10.9319 28.1394C11.0123 28.0584 11.1656 27.9041 11.0787 27.4919C10.8456 26.7857 11.0499 26.7775 11.6767 26.7524C11.9136 26.7429 12.2108 26.731 12.5675 26.6781C13.0617 26.6051 13.6626 26.4765 14.2175 26.348C9.10161 26.5116 7.69869 26.3669 4.50662 22.8795C4.76536 23.2458 5.0556 23.6254 5.18499 23.7947ZM8.44899 27.787C7.96803 27.245 8.40607 26.3509 9.19484 26.3728C8.53778 26.4619 8.19741 27.1909 8.44899 27.787ZM9.96881 28.2852C10.7132 28.05 10.7472 26.9075 10.2085 26.5379C10.9144 26.8418 10.8671 28.2297 9.96881 28.2852Z" stroke="#292933" stroke-width="0.15" stroke-linejoin="round"/>
<path d="M8.92693 27.1155C8.92693 27.1155 9.14003 26.7809 9.57364 26.8393C10.0072 26.8992 10.028 27.3814 10.028 27.3814C10.028 27.3814 9.70534 26.5734 8.92693 27.1155Z" stroke="#292933" stroke-width="0.15" stroke-linejoin="round"/>
<path fill-rule="evenodd" clip-rule="evenodd" d="M9.45128 26.5734C9.91448 26.5734 10.2904 26.9445 10.2904 27.4018C10.2904 27.8591 9.91448 28.2302 9.45128 28.2302C8.98808 28.2302 8.6122 27.8591 8.6122 27.4018C8.6122 26.9445 8.98808 26.5734 9.45128 26.5734ZM8.94665 26.9036C8.66843 27.1783 8.66843 27.6253 8.94665 27.9C9.22486 28.1747 9.6777 28.1747 9.95592 27.9C10.2341 27.6253 10.2341 27.1783 9.95592 26.9036C9.6777 26.6289 9.22486 26.6289 8.94665 26.9036Z" stroke="#292933" stroke-width="0.15" stroke-linejoin="round"/>
<path d="M12.9905 25.0317C10.9084 24.9397 8.80991 24.3611 7.83616 23.6701C8.75812 23.8732 9.73779 23.993 10.7352 24.0222C7.80952 23.7373 5.81318 22.6079 4.49906 20.9088C4.7018 21.239 4.93562 21.5736 5.20347 21.9154C4.50645 21.4625 3.44687 20.0936 3.16865 18.7728C3.08226 18.9462 3.09514 19.1479 3.10767 19.3439C3.11466 19.4534 3.12155 19.5611 3.11094 19.6611C3.10413 19.729 3.07918 19.8049 3.05391 19.8817C3.02424 19.9719 2.99415 20.0634 2.99255 20.1447C2.98071 20.7086 3.67921 21.4961 4.25192 22.0776C4.34367 22.1696 4.43986 22.2646 4.53605 22.3596L4.59545 22.4168C4.69486 22.5127 4.76618 22.5814 4.79355 22.6109L4.98349 22.7954C6.58673 24.3539 8.34744 26.0656 10.6805 25.7564C10.0456 25.5577 9.08369 25.1881 8.64713 24.8418C9.81474 25.0537 12.4504 25.0785 12.9905 25.0317Z" stroke="#292933" stroke-width="0.15" stroke-linejoin="round"/>
<path d="M12.2115 23.4797C11.1978 23.5396 8.83448 23.1963 7.41233 22.5301C6.31279 22.0144 5.33163 21.243 4.49699 20.1107C2.5628 17.478 2.21651 13.7276 3.0038 10.6303C2.05817 17.253 4.98831 22.6119 12.2411 22.739C19.4259 22.8647 23.4763 17.7307 21.8203 10.7355C23.7841 17.4035 19.9764 23.3117 12.2323 23.227C10.6962 23.2095 8.95287 22.8442 7.45228 22.0786C6.38678 21.5366 5.45594 20.7535 4.75301 19.9193C5.34347 20.8806 6.34386 21.7952 7.53664 22.3387C9.04758 23.0283 10.8826 23.3643 12.2115 23.4797Z" stroke="#292933" stroke-width="0.15" stroke-linejoin="round"/>
<path d="M16.8223 25.4006C17.4527 25.1406 18.274 24.2683 18.274 24.2683C18.274 24.2683 17.6066 24.8586 16.7423 25.2501C16.2939 25.4532 15.7656 25.573 15.3069 25.5935C15.3054 25.5935 16.22 25.649 16.8223 25.4006Z" stroke="#292933" stroke-width="0.15" stroke-linejoin="round"/>
<path d="M15.7087 26.6848C15.0014 27.1421 15.2855 28.362 16.1571 28.4044C15.4113 28.2247 15.1789 27.1918 15.7087 26.6848Z" stroke="#292933" stroke-width="0.15" stroke-linejoin="round"/>
<path d="M17.0139 26.4141C17.4875 26.5719 17.7376 27.2921 17.5185 27.7217C17.8929 27.3038 17.6236 26.4535 17.0139 26.4141Z" stroke="#292933" stroke-width="0.15" stroke-linejoin="round"/>
<path d="M17.7207 27.7958C18.9268 27.692 20.8802 24.6342 21.0563 24.2923C20.4955 25.185 18.7093 27.283 17.7207 27.7958Z" stroke="#292933" stroke-width="0.15" stroke-linejoin="round"/>
<path d="M19.9368 21.5611C18.8683 22.6627 17.1428 23.5524 15.5283 23.8928C17.131 23.7555 19.1377 22.8643 19.9368 21.5611Z" stroke="#292933" stroke-width="0.15" stroke-linejoin="round"/>
<path d="M21.0217 22.4642L20.9773 22.5168L22.2485 20.6453C22.2485 20.6453 22.506 21.4473 22.5001 21.966C22.4941 22.4861 21.0809 24.2554 21.0809 24.2554C21.0809 24.2554 22.176 22.5767 22.2736 22.229C22.3713 21.8813 22.0887 21.1873 22.0887 21.1873L21.0616 22.4174C20.554 23.2765 19.231 24.7828 18.4438 25.6243C18.3368 25.7384 18.2462 25.8238 18.1715 25.8942C17.9228 26.1286 17.8501 26.1972 17.9332 26.6061C17.9776 26.8223 18.0131 27.0313 17.8474 27.3863C17.8474 27.3863 17.8829 27.0035 17.7704 26.7142C17.562 26.1736 16.7177 26.2555 16.1384 26.3116C16.0429 26.3209 15.9547 26.3294 15.8777 26.3344C17.4685 26.1766 18.2159 25.5893 18.5251 25.2971C19.4234 24.4468 20.4223 23.2254 21.0217 22.4642Z" stroke="#292933" stroke-width="0.15" stroke-linejoin="round"/>
<path d="M21.004 21.7464C21.004 21.7464 22.142 20.3877 22.1539 20.1744C22.1638 19.9949 22.0722 19.8082 21.9697 19.5994C21.9504 19.5601 21.9306 19.5199 21.9112 19.479C21.9025 19.4494 21.8925 19.4179 21.8817 19.3837L21.8638 19.327C21.6744 18.7295 21.7691 18.4606 21.7691 18.4606C21.5309 18.7192 21.741 19.5944 21.9067 19.8617C21.9526 19.983 21.9867 20.0911 21.9541 20.1817C21.8594 20.4505 21.004 21.7464 21.004 21.7464Z" stroke="#292933" stroke-width="0.15" stroke-linejoin="round"/>
<path d="M22.6444 11.6737C23.0128 12.3282 23.1742 13.8929 23.0617 14.3546C23.4938 14.2027 23.7927 13.9192 23.8431 12.9754L23.8432 13.1006C23.8452 13.8241 23.8471 14.4929 22.8101 14.5854C22.9699 14.0595 22.8042 12.1909 22.6444 11.6737Z" stroke="#292933" stroke-width="0.15" stroke-linejoin="round"/>
<path fill-rule="evenodd" clip-rule="evenodd" d="M23.5802 11.6447C23.6615 11.5643 23.7119 11.4547 23.7119 11.332C23.7119 11.2108 23.6615 11.0997 23.5802 11.0194C23.4988 10.939 23.3878 10.8893 23.2635 10.8893C23.1406 10.8893 23.0282 10.939 22.9468 11.0194C22.8654 11.0997 22.8151 11.2093 22.8151 11.332C22.8151 11.4533 22.8654 11.5643 22.9468 11.6447C23.0282 11.725 23.1391 11.7747 23.2635 11.7747C23.3878 11.7732 23.4988 11.7236 23.5802 11.6447ZM23.04 11.332C23.04 11.2707 23.0652 11.2151 23.1051 11.1757C23.1451 11.1362 23.2013 11.1114 23.2635 11.1114C23.3256 11.1114 23.3818 11.1362 23.4218 11.1757C23.4618 11.2151 23.4869 11.2707 23.4869 11.332C23.4869 11.3934 23.4618 11.4489 23.4218 11.4883C23.3818 11.5278 23.3256 11.5526 23.2635 11.5526C23.2013 11.5526 23.1451 11.5278 23.1051 11.4883C23.0652 11.4489 23.04 11.3934 23.04 11.332Z" stroke="#292933" stroke-width="0.15" stroke-linejoin="round"/>
<path d="M22.5563 9.15641C23.169 8.90366 23.65 9.29374 23.8201 9.85038C24.0643 10.6496 24.0125 11.83 23.9385 12.1997L23.9375 12.1635C23.925 11.742 23.8934 10.6709 23.6218 9.92344C23.4531 9.45884 22.9825 9.10528 22.5563 9.15641Z" stroke="#292933" stroke-width="0.15" stroke-linejoin="round"/>
<path d="M18.7338 10.9058L18.4585 10.4003L18.5636 10.9657L18.1314 11.2492L18.6435 11.106L18.8995 11.5925L18.8077 11.049L18.9957 10.9628L19.3627 10.7934L18.9765 10.862L18.7338 10.9058Z" stroke="#292933" stroke-width="0.15" stroke-linejoin="round"/>
<path d="M15.9034 16.0526C15.9819 16.1008 16.0011 16.2133 15.9449 16.3039C15.8886 16.3944 15.7791 16.4295 15.7007 16.3828C15.6223 16.3345 15.603 16.222 15.6593 16.1315C15.7155 16.0409 15.825 16.0043 15.9034 16.0526Z" stroke="#292933" stroke-width="0.15" stroke-linejoin="round"/>
<path d="M19.8617 11.2625L19.9386 11.4086L19.9105 11.2449L20.0777 11.1675L19.8883 11.2011L19.8054 11.0506L19.838 11.2201L19.7078 11.3048L19.8617 11.2625Z" stroke="#292933" stroke-width="0.15" stroke-linejoin="round"/>
<path d="M18.5174 14.551C18.5248 14.5159 18.5055 14.4823 18.4759 14.4764C18.4448 14.4706 18.4152 14.494 18.4078 14.529C18.4004 14.5641 18.4196 14.5978 18.4492 14.6036C18.4803 14.6095 18.5114 14.5861 18.5174 14.551Z" stroke="#292933" stroke-width="0.15" stroke-linejoin="round"/>
<path d="M18.2105 16.5635C18.1321 16.5152 18.1129 16.4027 18.1691 16.3122C18.2253 16.2216 18.3348 16.1865 18.4133 16.2333C18.4917 16.2815 18.5109 16.394 18.4547 16.4846C18.3985 16.5751 18.289 16.6117 18.2105 16.5635Z" stroke="#292933" stroke-width="0.15" stroke-linejoin="round"/>
<path d="M19.5908 17.0503C19.5597 17.0444 19.5301 17.0678 19.5226 17.1029C19.5152 17.138 19.5345 17.1716 19.5641 17.1775C19.5952 17.1833 19.6248 17.1599 19.6322 17.1248C19.6411 17.0897 19.6219 17.0561 19.5908 17.0503Z" stroke="#292933" stroke-width="0.15" stroke-linejoin="round"/>
<path d="M4.89826 12.2594L4.74584 11.9672L4.43802 12.0534L4.69848 11.8824L4.63485 11.5435L4.79911 11.8474L5.17647 11.7802L4.84351 11.9336L4.89826 12.2594Z" stroke="#292933" stroke-width="0.15" stroke-linejoin="round"/>
<path d="M7.38979 11.4065C7.3972 11.3714 7.37794 11.3378 7.34832 11.3319C7.31721 11.3261 7.28759 11.3495 7.28019 11.3846C7.27278 11.4197 7.29204 11.4533 7.32166 11.4592C7.35276 11.465 7.38238 11.4416 7.38979 11.4065Z" stroke="#292933" stroke-width="0.15" stroke-linejoin="round"/>
<path d="M17.8249 19.1595L18.1001 19.665L18.7291 19.5525L18.1741 19.8082L18.2659 20.3517L18.0099 19.8666L17.4993 20.0083L17.9314 19.7249L17.8249 19.1595Z" stroke="#292933" stroke-width="0.15" stroke-linejoin="round"/>
<path d="M8.95125 9.60226C8.89501 9.69284 8.91425 9.80534 8.99268 9.85355C9.07112 9.90176 9.18063 9.86524 9.23686 9.77466C9.29309 9.68407 9.27386 9.57158 9.19543 9.52337C9.11699 9.47661 9.00748 9.51168 8.95125 9.60226Z" stroke="#292933" stroke-width="0.15" stroke-linejoin="round"/>
<path d="M12.4972 13.3665C12.5046 13.3314 12.5343 13.308 12.5654 13.3138C12.5965 13.3197 12.6157 13.3533 12.6068 13.3884C12.5994 13.4235 12.5683 13.4469 12.5387 13.441C12.5091 13.4352 12.4898 13.4016 12.4972 13.3665Z" stroke="#292933" stroke-width="0.15" stroke-linejoin="round"/>
<path d="M3.51158 11.1528C3.59001 11.201 3.69952 11.1645 3.75576 11.0739C3.81199 10.9833 3.79275 10.8708 3.71432 10.8226C3.63589 10.7744 3.52638 10.8109 3.47015 10.9015C3.41391 10.9935 3.43315 11.106 3.51158 11.1528Z" stroke="#292933" stroke-width="0.15" stroke-linejoin="round"/>
<path d="M1.65021 11.4886C1.71237 11.4886 1.7686 11.4638 1.80856 11.4243C1.84852 11.3849 1.87368 11.3293 1.87368 11.268C1.87368 11.2066 1.84852 11.1511 1.80856 11.1117C1.7686 11.0722 1.71237 11.0474 1.65021 11.0474C1.58806 11.0474 1.53182 11.0722 1.49187 11.1117C1.45191 11.1511 1.42675 11.2066 1.42675 11.268C1.42675 11.3293 1.45191 11.3849 1.49187 11.4243C1.53182 11.4638 1.58806 11.4886 1.65021 11.4886Z" stroke="#292933" stroke-width="0.15" stroke-linejoin="round"/>
<path fill-rule="evenodd" clip-rule="evenodd" d="M1.15778 10.2743C1.32796 9.36559 1.44931 8.88346 2.42158 8.93897C2.39801 8.9476 2.37453 8.95595 2.35117 8.96424C1.98307 9.09502 1.64705 9.2144 1.49815 10.2626C1.45819 10.5461 1.48631 10.7594 1.57214 10.7272C1.84444 10.625 2.16261 10.9464 2.15669 11.278C2.1535 11.5384 2.05176 11.6237 1.92283 11.7319C1.87231 11.7743 1.81762 11.8201 1.76304 11.8814C1.39604 12.2963 1.5529 13.4958 1.82668 13.9239L1.77784 13.2825C1.80264 13.3651 1.82618 13.4521 1.85027 13.541C1.95696 13.9351 2.07422 14.3681 2.35795 14.6339C2.0383 14.6398 1.75121 14.6369 1.48335 14.406C0.789293 13.8099 1.00091 11.1056 1.15778 10.2743ZM1.96727 10.9595C1.88587 10.8792 1.7734 10.8295 1.65057 10.8295C1.52627 10.8295 1.41528 10.8792 1.33388 10.9595C1.25249 11.0399 1.20218 11.1509 1.20218 11.2722C1.20218 11.3949 1.25249 11.5045 1.33388 11.5848C1.41528 11.6652 1.52627 11.7149 1.65057 11.7149C1.77488 11.7149 1.88587 11.6652 1.96727 11.5848C2.04866 11.5045 2.09897 11.3935 2.09897 11.2722C2.09897 11.1495 2.04866 11.0399 1.96727 10.9595Z" stroke="#292933" stroke-width="0.15" stroke-linejoin="round"/>
<path d="M2.74337 10.3628C2.87952 9.17793 3.46555 7.62196 3.82072 7.06094C2.9032 7.62927 2.67086 9.68197 2.74337 10.3628Z" stroke="#292933" stroke-width="0.15" stroke-linejoin="round"/>
<path d="M21.4938 7.31397C21.2067 4.85803 18.682 1.98716 15.891 1.31218C18.2381 2.09674 20.6103 4.93838 21.4938 7.31397Z" stroke="#292933" stroke-width="0.15" stroke-linejoin="round"/>
<path d="M15.9123 27.4345C15.9123 27.4345 16.2261 26.4294 17.1347 27.135C16.7647 26.555 15.9449 26.7333 15.9123 27.4345Z" stroke="#292933" stroke-width="0.15" stroke-linejoin="round"/>
<path fill-rule="evenodd" clip-rule="evenodd" d="M15.6963 27.4018C15.6963 26.9445 16.0722 26.5734 16.5354 26.5734C16.9986 26.5734 17.3745 26.9445 17.3745 27.4018C17.3745 27.8591 16.9986 28.2302 16.5354 28.2302C16.0722 28.2302 15.6963 27.8591 15.6963 27.4018ZM16.0307 27.9C16.309 28.1747 16.7618 28.1747 17.04 27.9C17.3182 27.6253 17.3182 27.1783 17.04 26.9036C16.7618 26.6289 16.309 26.6289 16.0307 26.9036C15.7525 27.1783 15.7525 27.6253 16.0307 27.9Z" stroke="#292933" stroke-width="0.15" stroke-linejoin="round"/>
<path d="M14.6797 1.61529C14.6427 2.0346 14.3394 2.36771 14.036 2.63215C12.7086 3.79218 13.077 4.41164 14.5332 5.2634C15.0009 5.53661 15.6343 5.89601 16.1552 6.18529C16.038 6.06962 15.6644 5.80334 15.2836 5.53195C15.0632 5.37484 14.8403 5.21601 14.6635 5.0837C13.5092 4.21733 13.2265 3.93682 14.2387 2.83523C14.517 2.5328 14.9017 2.04044 14.6797 1.61529Z" stroke="#292933" stroke-width="0.15" stroke-linejoin="round"/>
<path d="M18.8791 3.83022C18.8805 3.83204 18.882 3.83387 18.8835 3.83533C18.8909 3.84556 18.8998 3.85432 18.9101 3.86017C19.2313 4.23272 19.6915 4.80397 19.8824 5.24958C19.8898 5.26418 19.9416 5.36938 19.9312 5.38107C19.915 5.38253 19.8484 5.28318 19.841 5.27149C19.5095 4.80105 19.1706 4.39489 18.7814 3.9712C18.7725 3.96244 18.7636 3.95367 18.7562 3.9449C18.7547 3.94344 18.7533 3.94162 18.7518 3.93979C18.7503 3.93796 18.7488 3.93614 18.7473 3.93468L18.7385 3.92591C18.3596 3.49784 17.9837 3.10045 17.5309 2.74542C17.5176 2.73666 17.4125 2.66215 17.414 2.64754C17.4268 2.63866 17.5133 2.68375 17.5456 2.70057L17.5561 2.70598C18 2.93389 18.5239 3.4467 18.8657 3.81488C18.8687 3.81926 18.8717 3.82218 18.8746 3.8251C18.8761 3.82656 18.8776 3.82839 18.8791 3.83022Z" stroke="#292933" stroke-width="0.15" stroke-linejoin="round"/>
<path d="M7.63798 20.9908C7.62762 21.001 7.61727 21.0127 7.61431 21.0287C7.60691 21.0638 7.62614 21.0974 7.65574 21.1033C7.68682 21.1091 7.71642 21.0857 7.72382 21.0507C7.72465 21.0466 7.72362 21.0434 7.72255 21.0401C7.72171 21.0375 7.72086 21.0349 7.72086 21.0317C7.75082 21.047 7.78061 21.0625 7.81039 21.0781C7.89974 21.1246 7.98908 21.1712 8.08342 21.2128C11.5996 22.779 15.5508 21.7154 16.5216 21.1734C14.2767 21.714 12.1235 21.7476 10.3521 21.4232L10.3358 21.3925L10.3417 21.4203C9.58253 21.28 8.89291 21.0755 8.29801 20.814C4.9831 19.3588 3.51951 15.68 3.46771 12.254C3.22945 15.8305 4.39707 19.2989 7.63798 20.9908Z" stroke="#292933" stroke-width="0.15" stroke-linejoin="round"/>
<path d="M21.0236 11.3563C21.546 12.9941 21.3433 16.0666 20.5959 17.6138C21.731 16.1542 21.9397 12.9561 21.0236 11.3563Z" stroke="#292933" stroke-width="0.15" stroke-linejoin="round"/>
<path d="M8.71266 13.7507C8.79109 13.7989 8.81033 13.9114 8.7541 14.002C8.69786 14.0941 8.58835 14.1291 8.50992 14.0809C8.43149 14.0327 8.41225 13.9202 8.46848 13.8296C8.52472 13.739 8.63423 13.7025 8.71266 13.7507Z" stroke="#292933" stroke-width="0.15" stroke-linejoin="round"/>
<path d="M6.59633 11.1497C6.65256 11.0591 6.63333 10.9466 6.55489 10.8984C6.47646 10.8502 6.36695 10.8867 6.31072 10.9773C6.25448 11.0679 6.27372 11.1804 6.35215 11.2286C6.43059 11.2768 6.54009 11.2403 6.59633 11.1497Z" stroke="#292933" stroke-width="0.15" stroke-linejoin="round"/>
<path d="M19.9176 14.5926C19.8391 14.5444 19.8199 14.4319 19.8761 14.3413C19.9324 14.2507 20.0419 14.2156 20.1203 14.2624C20.1987 14.3106 20.218 14.4231 20.1617 14.5137C20.1055 14.6043 19.996 14.6408 19.9176 14.5926Z" stroke="#292933" stroke-width="0.15" stroke-linejoin="round"/>
<path d="M14.3499 9.53179C14.335 9.60197 14.3736 9.66923 14.4343 9.68093C14.495 9.69263 14.5572 9.64584 14.572 9.57565C14.5868 9.50547 14.5483 9.43821 14.4876 9.42651C14.4254 9.41336 14.3632 9.46014 14.3499 9.53179Z" stroke="#292933" stroke-width="0.15" stroke-linejoin="round"/>
<path d="M7.58583 14.3527C7.60064 14.2825 7.66285 14.2357 7.72357 14.2474C7.78429 14.2591 7.8228 14.3263 7.80799 14.3965C7.79318 14.4667 7.73098 14.5135 7.67025 14.5018C7.60953 14.4901 7.57102 14.4228 7.58583 14.3527Z" stroke="#292933" stroke-width="0.15" stroke-linejoin="round"/>
<path d="M13.427 18.0347C13.4122 18.1049 13.4507 18.1721 13.5114 18.1838C13.5721 18.1955 13.6343 18.1487 13.6492 18.0785C13.664 18.0084 13.6255 17.9411 13.5647 17.9294C13.5025 17.9177 13.4403 17.9645 13.427 18.0347Z" stroke="#292933" stroke-width="0.15" stroke-linejoin="round"/>
<path d="M12.771 15.0277L12.6882 14.8758L12.7192 15.0452L12.589 15.13L12.7429 15.0876L12.8199 15.2337L12.7932 15.0701L12.959 14.9927L12.771 15.0277Z" stroke="#292933" stroke-width="0.15" stroke-linejoin="round"/>
<path d="M14.1462 15.6541C14.0855 15.6424 14.0233 15.6892 14.0085 15.7594C13.9936 15.8296 14.0322 15.8968 14.0929 15.9085C14.1536 15.9202 14.2158 15.8734 14.2306 15.8033C14.2454 15.7331 14.2069 15.6658 14.1462 15.6541Z" stroke="#292933" stroke-width="0.15" stroke-linejoin="round"/>
<path d="M13.9337 16.2016L14.0151 16.352L14.2045 16.3184L14.0373 16.3959L14.0654 16.5595L13.9885 16.4134L13.8346 16.4558L13.9648 16.371L13.9337 16.2016Z" stroke="#292933" stroke-width="0.15" stroke-linejoin="round"/>
<path d="M14.0058 12.8239C14.0621 12.7333 14.0428 12.6208 13.9644 12.5726C13.886 12.5244 13.7764 12.5609 13.7202 12.6515C13.664 12.7421 13.6832 12.8546 13.7616 12.9028C13.8401 12.9496 13.9496 12.9145 14.0058 12.8239Z" stroke="#292933" stroke-width="0.15" stroke-linejoin="round"/>
<path d="M19.8736 15.493L19.955 15.6449L20.1444 15.6113L19.9772 15.6873L20.0053 15.851L19.9284 15.7049L19.8388 15.7295C19.8226 15.8554 19.7856 15.9818 19.7292 16.125C19.6671 16.2828 19.5753 16.4611 19.4525 16.6685C19.3297 16.8745 19.1743 17.1112 18.9789 17.364C18.7851 17.6153 18.5468 17.8826 18.2612 18.1281C17.0847 19.1289 15.7188 19.8754 14.304 20.3006C14.6103 19.3261 14.9196 18.3837 15.226 17.4984C16.364 17.2822 17.4502 16.971 18.4077 16.5794C18.5483 16.5224 18.6489 16.4465 18.714 16.3617C18.7791 16.277 18.8147 16.1718 18.8206 16.0432C18.8265 15.9147 18.7999 15.8299 18.7407 15.7861C18.68 15.7423 18.5808 15.7277 18.4402 15.7496C17.7477 15.8562 16.9885 15.9468 16.1894 16.0199C15.9038 16.0462 15.6551 16.0038 15.445 15.884C15.2348 15.7642 15.0587 15.5801 14.9196 15.3332C14.779 15.0863 14.6755 14.7795 14.6089 14.4171C14.5423 14.0548 14.5097 13.6516 14.5127 13.2133C14.5156 12.7355 14.5571 12.3045 14.637 11.9334C14.7169 11.5609 14.8382 11.2614 15.001 11.0452C15.1638 10.8289 15.3725 10.6989 15.6241 10.6638C15.8756 10.6288 16.1746 10.7047 16.512 10.8903C17.8039 11.5974 18.9878 12.5661 19.9453 13.7407C19.7026 13.7275 19.4495 13.862 19.1891 14.1293C18.3559 13.7071 17.3955 13.355 16.3699 13.0833C16.2101 13.0409 16.0902 13.0555 16.0103 13.1285C15.9304 13.2001 15.889 13.3565 15.886 13.5931C15.883 13.8298 15.92 14.0022 15.997 14.1059C16.0739 14.2097 16.1923 14.2696 16.3507 14.2886C17.1483 14.3806 17.909 14.4975 18.6001 14.6334C19.0662 14.7283 19.3844 14.9197 19.5871 15.0965C19.7884 15.2806 19.8683 15.4442 19.8432 15.6911C19.8428 15.6952 19.8424 15.6992 19.8419 15.7033L19.9047 15.6625L19.8736 15.493Z" stroke="#292933" stroke-width="0.15" stroke-linejoin="round"/>
<path d="M8.36685 15.9723L8.39349 16.1359L8.31653 15.9898L8.16411 16.0322L8.29286 15.9475L8.26178 15.778L8.34465 15.9299L8.53259 15.8963L8.36685 15.9723Z" stroke="#292933" stroke-width="0.15" stroke-linejoin="round"/>
<path d="M35.9055 8.40909V21.5H33.1378V8.40909H35.9055ZM40.2379 8.40909L42.8778 12.8707H42.9801L45.6328 8.40909H48.7585L44.7634 14.9545L48.848 21.5H45.6647L42.9801 17.032H42.8778L40.1931 21.5H37.0227L41.12 14.9545L37.0994 8.40909H40.2379ZM60.6975 12.174C60.6463 11.6584 60.4269 11.2578 60.0391 10.9723C59.6513 10.6868 59.125 10.544 58.4603 10.544C58.0086 10.544 57.6272 10.608 57.3161 10.7358C57.005 10.8594 56.7664 11.032 56.6002 11.2536C56.4382 11.4751 56.3573 11.7266 56.3573 12.0078C56.3487 12.2422 56.3978 12.4467 56.5043 12.6214C56.6151 12.7962 56.7664 12.9474 56.9581 13.0753C57.1499 13.1989 57.3715 13.3075 57.6229 13.4013C57.8743 13.4908 58.1428 13.5675 58.4283 13.6314L59.6044 13.9126C60.1755 14.0405 60.6996 14.2109 61.1769 14.424C61.6541 14.6371 62.0675 14.8991 62.4169 15.2102C62.7664 15.5213 63.037 15.8878 63.2287 16.3097C63.4247 16.7315 63.5249 17.2152 63.5291 17.7607C63.5249 18.5618 63.3203 19.2564 62.9155 19.8445C62.5149 20.4283 61.9354 20.8821 61.1769 21.206C60.4226 21.5256 59.5128 21.6854 58.4475 21.6854C57.3907 21.6854 56.4702 21.5234 55.6861 21.1996C54.9063 20.8757 54.2969 20.3963 53.858 19.7614C53.4233 19.1222 53.1953 18.3317 53.174 17.3899H55.8523C55.8821 17.8288 56.0078 18.1953 56.2294 18.4893C56.4553 18.7791 56.7557 18.9986 57.1307 19.1477C57.51 19.2926 57.9382 19.3651 58.4155 19.3651C58.8843 19.3651 59.2912 19.2969 59.6364 19.1605C59.9858 19.0241 60.2564 18.8345 60.4482 18.5916C60.6399 18.3487 60.7358 18.0696 60.7358 17.7543C60.7358 17.4602 60.6485 17.2131 60.4737 17.0128C60.3033 16.8125 60.0519 16.642 59.7195 16.5014C59.3914 16.3608 58.9887 16.233 58.5114 16.1179L57.086 15.7599C55.9823 15.4915 55.1108 15.0717 54.4716 14.5007C53.8324 13.9297 53.5149 13.1605 53.5192 12.1932C53.5149 11.4006 53.7259 10.7081 54.152 10.1158C54.5824 9.52344 55.1726 9.06108 55.9226 8.72869C56.6726 8.39631 57.5249 8.23011 58.4794 8.23011C59.451 8.23011 60.299 8.39631 61.0235 8.72869C61.7522 9.06108 62.3189 9.52344 62.7237 10.1158C63.1286 10.7081 63.3374 11.3942 63.3502 12.174H60.6975ZM66.7365 21.5L64.0646 11.6818H66.8196L68.3409 18.2784H68.4304L70.0156 11.6818H72.7194L74.3302 18.2401H74.4133L75.9091 11.6818H78.6576L75.9922 21.5H73.1094L71.4219 15.3253H71.3004L69.6129 21.5H66.7365ZM82.37 21.6854C81.7435 21.6854 81.1853 21.5767 80.6952 21.3594C80.2052 21.1378 79.8174 20.8118 79.5319 20.3814C79.2506 19.9467 79.11 19.4055 79.11 18.7578C79.11 18.2124 79.2102 17.7543 79.4104 17.3835C79.6107 17.0128 79.8835 16.7145 80.2286 16.4886C80.5738 16.2628 80.9658 16.0923 81.4048 15.9773C81.8479 15.8622 82.3124 15.7812 82.7982 15.7344C83.3692 15.6747 83.8295 15.6193 84.1789 15.5682C84.5283 15.5128 84.7819 15.4318 84.9396 15.3253C85.0972 15.2187 85.1761 15.0611 85.1761 14.8523V14.8139C85.1761 14.4091 85.0482 14.0959 84.7925 13.8743C84.5411 13.6527 84.1832 13.5419 83.7187 13.5419C83.2286 13.5419 82.8387 13.6506 82.5489 13.8679C82.2592 14.081 82.0674 14.3494 81.9736 14.6733L79.4552 14.4688C79.583 13.8722 79.8344 13.3565 80.2094 12.9219C80.5844 12.483 81.0681 12.1463 81.6604 11.9119C82.257 11.6733 82.9474 11.554 83.7315 11.554C84.2769 11.554 84.7989 11.6179 85.2975 11.7457C85.8004 11.8736 86.2457 12.0717 86.6335 12.3402C87.0255 12.6087 87.3344 12.9538 87.5603 13.3757C87.7861 13.7933 87.8991 14.294 87.8991 14.8778V21.5H85.3167V20.1385H85.24C85.0823 20.4453 84.8714 20.7159 84.6072 20.9503C84.343 21.1804 84.0255 21.3615 83.6548 21.4936C83.284 21.6214 82.8558 21.6854 82.37 21.6854ZM83.1498 19.8061C83.5504 19.8061 83.904 19.7273 84.2109 19.5696C84.5177 19.4077 84.7585 19.1903 84.9332 18.9176C85.1079 18.6449 85.1952 18.3359 85.1952 17.9908V16.9489C85.11 17.0043 84.9928 17.0554 84.8437 17.1023C84.6988 17.1449 84.5347 17.1854 84.3515 17.2237C84.1683 17.2578 83.985 17.2898 83.8018 17.3196C83.6185 17.3452 83.4523 17.3686 83.3032 17.3899C82.9836 17.4368 82.7045 17.5114 82.4658 17.6136C82.2272 17.7159 82.0418 17.8544 81.9097 18.0291C81.7776 18.1996 81.7116 18.4126 81.7116 18.6683C81.7116 19.0391 81.8458 19.3224 82.1143 19.5185C82.387 19.7102 82.7322 19.8061 83.1498 19.8061ZM89.4716 25.1818V11.6818H92.1563V13.331H92.2778C92.3971 13.0668 92.5697 12.7983 92.7955 12.5256C93.0256 12.2486 93.3239 12.0185 93.6904 11.8352C94.0611 11.6477 94.5214 11.554 95.0711 11.554C95.787 11.554 96.4475 11.7415 97.0526 12.1165C97.6577 12.4872 98.1414 13.0476 98.5036 13.7976C98.8658 14.5433 99.0469 15.4787 99.0469 16.6037C99.0469 17.6989 98.8701 18.6236 98.5164 19.3778C98.167 20.1278 97.6897 20.6967 97.0846 21.0845C96.4837 21.468 95.8104 21.6598 95.0647 21.6598C94.5363 21.6598 94.0867 21.5724 93.716 21.3977C93.3495 21.223 93.0491 21.0036 92.8147 20.7393C92.5803 20.4709 92.4013 20.2003 92.2778 19.9276H92.1947V25.1818H89.4716ZM92.1371 16.5909C92.1371 17.1747 92.2181 17.6839 92.38 18.1186C92.542 18.5533 92.7763 18.892 93.0832 19.1349C93.39 19.3736 93.7628 19.4929 94.2018 19.4929C94.6449 19.4929 95.0199 19.3714 95.3268 19.1286C95.6336 18.8814 95.8658 18.5405 96.0235 18.1058C96.1854 17.6669 96.2664 17.1619 96.2664 16.5909C96.2664 16.0241 96.1876 15.5256 96.0299 15.0952C95.8722 14.6648 95.64 14.3281 95.3332 14.0852C95.0263 13.8423 94.6492 13.7209 94.2018 13.7209C93.7586 13.7209 93.3836 13.8381 93.0768 14.0724C92.7742 14.3068 92.542 14.6392 92.38 15.0696C92.2181 15.5 92.1371 16.0071 92.1371 16.5909Z" fill="#292933"/>
</svg>
