<svg width="32" height="33" viewBox="0 0 32 33" fill="none" xmlns="http://www.w3.org/2000/svg">
<circle cx="16" cy="16.5" r="16" fill="black"/>
<path d="M13.3567 12.5285C15.3222 12.0946 17.8233 12.1209 19.8582 12.6318C20.0837 12.6882 20.3025 12.7511 20.5146 12.8197C21.2976 13.0723 21.9122 13.3823 22.3821 14.081L22.247 13.8321C21.0731 12.0138 16.265 11.6147 14.3328 11.7048C16.0148 11.316 18.025 11.2728 19.2836 11.6503C19.2004 11.6046 19.0685 11.5379 18.9053 11.4555C18.462 11.2315 17.7882 10.8909 17.2354 10.5374C16.5333 10.0884 16.1575 9.50331 17.1022 8.83271C18.7946 7.6324 15.9548 7.79394 14.8874 7.91604C16.1974 7.60422 17.1564 7.56759 17.9508 7.67654C16.1118 7.2661 14.2529 7.59295 12.8868 8.43261C11.7118 9.1558 10.8119 10.3627 10.6682 11.2991C10.6481 11.4282 10.8008 11.4292 10.9515 11.4301C11.0999 11.4311 11.2465 11.432 11.2238 11.5555C11.2001 11.6847 11.1163 11.9086 11.0332 12.1304C10.896 12.4968 10.761 12.8574 10.9032 12.7755C11.2971 12.5482 12.2085 12.2486 13.1274 12.2627C12.9562 12.3078 12.7926 12.3566 12.6385 12.4092C11.6643 12.7445 10.848 13.1587 10.2877 14.0115C11.0757 13.0313 12.1483 12.7949 13.3453 12.531L13.3567 12.5285Z" fill="white"/>
<path d="M21.311 13.7386C18.8842 12.0142 13.0715 12.1307 10.9804 14.1744C12.9192 12.5552 19.0326 12.4294 21.311 13.7386Z" fill="white"/>
<path d="M12.0167 15.8088C11.9882 15.816 11.9636 15.8415 11.9563 15.8757C11.9468 15.9208 11.9716 15.964 12.0106 15.9715C12.0154 15.9725 12.0203 15.9728 12.025 15.9726L12.0766 16.9888C12.1053 17.5536 12.1339 18.1184 12.1628 18.6832C11.8735 18.347 11.5841 17.696 11.3801 17.0066C11.1631 16.273 11.048 15.4944 11.0214 15.0586C10.9085 15.9343 11.309 18.0244 12.1646 18.7189L12.1652 18.7293C12.3726 18.9961 12.598 19.2299 12.8387 19.4328L12.8175 18.7427C12.8216 18.7752 12.8431 18.802 12.8731 18.8078C12.9121 18.8153 12.9521 18.7852 12.9616 18.7401C12.9711 18.695 12.9464 18.6518 12.9074 18.6442C12.8674 18.6367 12.8283 18.6668 12.8188 18.7119C12.8178 18.7165 12.8172 18.721 12.8169 18.7255L12.7712 17.2393L12.9032 17.2023L13.0678 17.515L13.0098 17.1657L13.3656 17.0013L12.9622 17.0736L12.7843 16.7486L12.8528 17.1112L12.769 17.1664L12.7305 15.9158L12.8645 15.8781L12.9635 16.0659L12.9283 15.8565L13.1423 15.7579L12.8997 15.8011L12.7932 15.6057L12.8341 15.8236L12.7298 15.8925L12.6846 14.4249C12.4344 14.6363 12.1994 14.8804 11.9835 15.1575L12.0167 15.8088Z" fill="white"/>
<path d="M13.0561 19.8354C13.0514 19.858 13.0637 19.8796 13.0828 19.8833C13.1028 19.8871 13.1218 19.8721 13.1266 19.8495C13.1313 19.8269 13.119 19.8053 13.0999 19.8016C13.0809 19.7978 13.0609 19.8128 13.0561 19.8354Z" fill="white"/>
<path d="M14.059 20.4722C14.0495 20.5173 14.0095 20.5474 13.9704 20.5399C13.9314 20.5314 13.9067 20.4882 13.9162 20.444C13.9257 20.3989 13.9657 20.3688 14.0047 20.3763C14.0438 20.3838 14.0685 20.4271 14.059 20.4722Z" fill="white"/>
<path d="M14.6713 20.5152C14.6665 20.5377 14.6789 20.5593 14.698 20.5631C14.718 20.5669 14.737 20.5518 14.7418 20.5293C14.7465 20.5067 14.7341 20.4851 14.7151 20.4813C14.6961 20.4766 14.6761 20.4926 14.6713 20.5152Z" fill="white"/>
<path d="M15.4947 20.1321C15.4557 20.1245 15.431 20.0813 15.4405 20.0362C15.45 19.9911 15.489 19.9601 15.529 19.9685C15.5681 19.976 15.5928 20.0193 15.5833 20.0644C15.5738 20.1095 15.5338 20.1396 15.4947 20.1321Z" fill="white"/>
<path d="M14.8746 19.0565C14.8946 19.0602 14.9136 19.0452 14.9184 19.0226C14.9231 19.0001 14.9107 18.9784 14.8917 18.9747C14.8717 18.9709 14.8527 18.986 14.8479 19.0085C14.8432 19.0311 14.8555 19.0518 14.8746 19.0565Z" fill="white"/>
<path d="M16.2831 20.9779C16.2783 21.0005 16.2907 21.0221 16.3097 21.0258C16.3297 21.0296 16.3488 21.0146 16.3535 20.992C16.3583 20.9694 16.3459 20.9478 16.3269 20.9441C16.3078 20.9403 16.2878 20.9553 16.2831 20.9779Z" fill="white"/>
<path d="M18.14 21.361C18.1448 21.3384 18.1638 21.3234 18.1838 21.3271C18.2038 21.3309 18.2152 21.3525 18.2105 21.3751C18.2057 21.3976 18.1867 21.4127 18.1667 21.4089C18.1476 21.4051 18.1352 21.3835 18.14 21.361Z" fill="white"/>
<path d="M17.3968 20.2723C17.3464 20.2862 17.2959 20.2994 17.2453 20.3119C17.239 20.3145 17.2324 20.3161 17.2258 20.3167C16.8536 20.4078 16.4787 20.4639 16.1059 20.4818C15.866 19.9347 15.6246 19.3659 15.3839 18.7985C15.2858 18.5672 15.1876 18.3358 15.0898 18.1065C14.7549 18.8682 14.4324 19.5867 14.1261 20.1887C13.7789 20.0582 13.4459 19.8835 13.1329 19.6628C13.3841 19.3021 13.6523 18.7931 13.9358 18.1967C14.008 18.0452 14.0726 17.9068 14.1296 17.7846L14.1898 17.6557C14.2209 17.5886 14.2498 17.5263 14.2764 17.4691C14.3093 17.3984 14.3387 17.335 14.3639 17.28C14.4106 17.1804 14.4496 17.0997 14.481 17.0386C14.5124 16.9776 14.5409 16.9231 14.5666 16.8752C14.555 16.8549 14.5431 16.8333 14.5307 16.8108C14.5188 16.7892 14.5065 16.7667 14.4935 16.7438L14.504 16.808L14.4545 16.7141L14.3565 16.7423L14.4393 16.6869L14.4273 16.6215C14.4061 16.5802 14.3828 16.5326 14.3573 16.4789L14.3389 16.4412C14.2928 16.3464 14.2369 16.2319 14.1708 16.1013C14.1456 16.0515 14.1183 15.9973 14.0891 15.939C14.0311 15.8237 13.965 15.692 13.8911 15.5481C13.5991 14.9855 13.3146 14.5037 13.0397 14.1524C13.405 13.9007 13.7969 13.7091 14.206 13.5748C14.519 14.1665 14.8387 14.8503 15.1593 15.5688C15.4713 14.8193 15.7929 14.0576 16.1201 13.3353C16.534 13.3588 16.9478 13.4255 17.3569 13.5325C17.0315 14.098 16.7081 14.7366 16.3884 15.4053C16.3148 15.5605 16.2491 15.6987 16.1915 15.8198L16.1211 15.9679C16.0488 16.1201 15.9879 16.2478 15.9365 16.3511C15.8861 16.4544 15.8433 16.5399 15.809 16.6075C15.7748 16.6752 15.7443 16.7343 15.7177 16.7841C15.7443 16.8273 15.7748 16.8808 15.8081 16.9447C15.8414 17.0086 15.8851 17.0997 15.9394 17.218C15.9611 17.2652 15.9851 17.3173 16.0112 17.3742C16.0501 17.4591 16.094 17.5547 16.143 17.6604C16.1749 17.7294 16.21 17.8055 16.2481 17.8883L16.2485 17.8891C16.3078 18.0179 16.3747 18.163 16.4493 18.3235C16.7699 19.0204 17.0867 19.6853 17.3968 20.2723Z" fill="white"/>
<path d="M20.1598 18.8782C20.1551 18.9008 20.1675 18.9224 20.1865 18.9261C20.2065 18.9299 20.2255 18.9149 20.2303 18.8923C20.2351 18.8697 20.2227 18.8481 20.2036 18.8444C20.1836 18.8406 20.1636 18.8556 20.1598 18.8782Z" fill="white"/>
<path d="M21.6636 18.6475C21.6683 18.625 21.6874 18.6099 21.7074 18.6137C21.7274 18.6174 21.7397 18.6391 21.734 18.6616C21.7293 18.6842 21.7102 18.6992 21.6902 18.6955C21.6712 18.6917 21.6588 18.6701 21.6636 18.6475Z" fill="white"/>
<path fill-rule="evenodd" clip-rule="evenodd" d="M11.6904 22.4751L11.728 22.5246C11.2029 22.1292 10.6654 21.4454 10.2962 20.9148C10.5141 21.359 10.7548 21.7685 11.0925 22.2654C10.7348 22.0024 10.2896 21.5196 10.1402 21.2989C10.3372 22.2221 12.648 24.9224 13.9256 25.2286C13.6155 24.7251 13.9056 24.0715 14.5411 24.1541C15.2556 24.2471 15.2052 25.1854 14.6391 25.3741C15.0691 25.4427 15.5401 25.485 16.0233 25.5C15.8435 25.4699 15.678 25.4333 15.5315 25.3892C15.3289 25.3245 15.3361 25.3172 15.3848 25.2682C15.4365 25.2161 15.535 25.1169 15.4792 24.8519C15.3293 24.398 15.4606 24.3927 15.8636 24.3766C16.0159 24.3705 16.2069 24.3628 16.4362 24.3288C16.754 24.2818 17.1402 24.1992 17.497 24.1165C14.2082 24.2217 13.3063 24.1287 11.2543 21.8868C11.4206 22.1223 11.6072 22.3664 11.6904 22.4751ZM13.7886 25.0417C13.4794 24.6932 13.761 24.1184 14.2681 24.1325C13.8457 24.1898 13.6269 24.6585 13.7886 25.0417ZM14.7657 25.3619C15.2442 25.2107 15.2661 24.4763 14.9198 24.2386C15.3736 24.434 15.3431 25.3262 14.7657 25.3619Z" fill="white"/>
<path d="M14.0959 24.6099C14.0959 24.6099 14.2329 24.3949 14.5116 24.4324C14.7904 24.4709 14.8037 24.7809 14.8037 24.7809C14.8037 24.7809 14.5963 24.2615 14.0959 24.6099Z" fill="white"/>
<path fill-rule="evenodd" clip-rule="evenodd" d="M14.433 24.2615C14.7307 24.2615 14.9724 24.5 14.9724 24.794C14.9724 25.088 14.7307 25.3265 14.433 25.3265C14.1352 25.3265 13.8936 25.088 13.8936 24.794C13.8936 24.5 14.1352 24.2615 14.433 24.2615ZM14.1086 24.4737C13.9297 24.6503 13.9297 24.9377 14.1086 25.1143C14.2874 25.2909 14.5785 25.2909 14.7574 25.1143C14.9362 24.9377 14.9362 24.6503 14.7574 24.4737C14.5785 24.2972 14.2874 24.2972 14.1086 24.4737Z" fill="white"/>
<path d="M16.7082 23.2704C15.3697 23.2112 14.0207 22.8393 13.3947 22.3951C13.9874 22.5256 14.6172 22.6026 15.2584 22.6214C13.3775 22.4383 12.0942 21.7123 11.2494 20.6199C11.3797 20.8322 11.53 21.0473 11.7022 21.2671C11.2541 20.9759 10.573 20.0959 10.3941 19.2468C10.3386 19.3583 10.3469 19.4879 10.3549 19.6139C10.3594 19.6843 10.3639 19.7536 10.357 19.8179C10.3527 19.8615 10.3366 19.9103 10.3204 19.9597C10.3013 20.0177 10.282 20.0765 10.2809 20.1287C10.2733 20.4913 10.7223 20.9975 11.0905 21.3713C11.1495 21.4305 11.2113 21.4915 11.2732 21.5526L11.3114 21.5894C11.3753 21.651 11.4211 21.6952 11.4387 21.7141L11.5608 21.8327C12.5915 22.8347 13.7234 23.935 15.2232 23.7363C14.815 23.6085 14.1967 23.3709 13.916 23.1483C14.6666 23.2845 16.361 23.3005 16.7082 23.2704Z" fill="white"/>
<path d="M16.2074 22.2727C15.5557 22.3112 14.0365 22.0905 13.1222 21.6622C12.4154 21.3307 11.7846 20.8348 11.2481 20.1069C10.0047 18.4144 9.78204 16.0034 10.2882 14.0123C9.68025 18.2698 11.5639 21.7148 16.2264 21.7965C20.8452 21.8773 23.449 18.5769 22.3845 14.0799C23.6469 18.3665 21.1991 22.1647 16.2207 22.1102C15.2332 22.0989 14.1126 21.8641 13.1479 21.372C12.4629 21.0235 11.8645 20.5201 11.4126 19.9838C11.7922 20.6018 12.4353 21.1898 13.2021 21.5392C14.1734 21.9825 15.3531 22.1985 16.2074 22.2727Z" fill="white"/>
<path d="M19.1715 23.5075C19.5767 23.3404 20.1047 22.7796 20.1047 22.7796C20.1047 22.7796 19.6757 23.1591 19.1201 23.4108C18.8318 23.5414 18.4922 23.6184 18.1973 23.6315C18.1963 23.6315 18.7843 23.6672 19.1715 23.5075Z" fill="white"/>
<path d="M18.4556 24.3331C18.0009 24.6271 18.1835 25.4113 18.7439 25.4385C18.2644 25.323 18.115 24.659 18.4556 24.3331Z" fill="white"/>
<path d="M19.2946 24.1591C19.5991 24.2605 19.7599 24.7235 19.6191 24.9996C19.8597 24.731 19.6866 24.1844 19.2946 24.1591Z" fill="white"/>
<path d="M19.749 25.0473C20.5244 24.9806 21.7801 23.0148 21.8934 22.7951C21.5328 23.3689 20.3845 24.7176 19.749 25.0473Z" fill="white"/>
<path d="M21.1736 21.0393C20.4868 21.7474 19.3775 22.3194 18.3396 22.5382C19.3699 22.4499 20.6599 21.877 21.1736 21.0393Z" fill="white"/>
<path d="M21.8711 21.6198L21.8425 21.6536L22.6597 20.4505C22.6597 20.4505 22.8253 20.9661 22.8215 21.2996C22.8177 21.6339 21.9091 22.7713 21.9091 22.7713C21.9091 22.7713 22.6131 21.6922 22.6759 21.4686C22.7387 21.2451 22.557 20.799 22.557 20.799L21.8968 21.5898C21.5705 22.142 20.72 23.1104 20.2138 23.6514C20.1451 23.7247 20.0868 23.7796 20.0388 23.8248C19.879 23.9755 19.8322 24.0196 19.8856 24.2825C19.9142 24.4215 19.937 24.5558 19.8304 24.784C19.8304 24.784 19.8533 24.538 19.781 24.352C19.647 24.0045 19.1042 24.0571 18.7318 24.0932C18.6705 24.0991 18.6137 24.1046 18.5642 24.1078C19.5869 24.0064 20.0673 23.6288 20.2662 23.441C20.8436 22.8943 21.4858 22.1092 21.8711 21.6198Z" fill="white"/>
<path d="M21.8597 21.1584C21.8597 21.1584 22.5913 20.285 22.5989 20.1478C22.6053 20.0324 22.5464 19.9124 22.4805 19.7782C22.4681 19.7529 22.4554 19.7271 22.4429 19.7008C22.4373 19.6817 22.4309 19.6615 22.4239 19.6395L22.4125 19.6031C22.2907 19.2189 22.3516 19.0461 22.3516 19.0461C22.1984 19.2124 22.3335 19.775 22.4401 19.9468C22.4695 20.0248 22.4914 20.0943 22.4705 20.1525C22.4096 20.3253 21.8597 21.1584 21.8597 21.1584Z" fill="white"/>
<path d="M22.9142 14.6831C23.1511 15.1038 23.2548 16.1097 23.1825 16.4065C23.4603 16.3089 23.6525 16.1266 23.6848 15.5199L23.6849 15.6004C23.6862 16.0655 23.6874 16.4954 23.0208 16.5549C23.1235 16.2168 23.017 15.0156 22.9142 14.6831Z" fill="white"/>
<path fill-rule="evenodd" clip-rule="evenodd" d="M23.5158 14.6644C23.5681 14.6128 23.6005 14.5423 23.6005 14.4634C23.6005 14.3855 23.5681 14.3141 23.5158 14.2624C23.4635 14.2108 23.3921 14.1789 23.3122 14.1789C23.2333 14.1789 23.161 14.2108 23.1086 14.2624C23.0563 14.3141 23.024 14.3845 23.024 14.4634C23.024 14.5414 23.0563 14.6128 23.1086 14.6644C23.161 14.7161 23.2323 14.748 23.3122 14.748C23.3921 14.7471 23.4635 14.7152 23.5158 14.6644ZM23.1686 14.4634C23.1686 14.424 23.1847 14.3883 23.2104 14.3629C23.2361 14.3376 23.2723 14.3216 23.3122 14.3216C23.3522 14.3216 23.3883 14.3376 23.414 14.3629C23.4397 14.3883 23.4559 14.424 23.4559 14.4634C23.4559 14.5029 23.4397 14.5386 23.414 14.5639C23.3883 14.5893 23.3522 14.6053 23.3122 14.6053C23.2723 14.6053 23.2361 14.5893 23.2104 14.5639C23.1847 14.5386 23.1686 14.5029 23.1686 14.4634Z" fill="white"/>
<path d="M22.8576 13.0648C23.2515 12.9024 23.5607 13.1531 23.6701 13.511C23.8271 14.0247 23.7938 14.7836 23.7462 15.0212L23.7455 14.9979C23.7375 14.727 23.7172 14.0385 23.5426 13.5579C23.4342 13.2593 23.1316 13.032 22.8576 13.0648Z" fill="white"/>
<path d="M20.4003 14.1895L20.2233 13.8645L20.2909 14.228L20.0131 14.4102L20.3422 14.3181L20.5068 14.6309L20.4478 14.2815L20.5687 14.2261L20.8046 14.1172L20.5563 14.1613L20.4003 14.1895Z" fill="white"/>
<path d="M18.5808 17.4981C18.6312 17.5291 18.6436 17.6014 18.6074 17.6596C18.5713 17.7179 18.5009 17.7404 18.4505 17.7103C18.4 17.6793 18.3877 17.607 18.4238 17.5488C18.46 17.4906 18.5304 17.4671 18.5808 17.4981Z" fill="white"/>
<path d="M21.1254 14.4187L21.1748 14.5126L21.1568 14.4075L21.2643 14.3577L21.1425 14.3793L21.0892 14.2825L21.1101 14.3915L21.0264 14.446L21.1254 14.4187Z" fill="white"/>
<path d="M20.2612 16.5328C20.2659 16.5102 20.2535 16.4886 20.2345 16.4848C20.2145 16.4811 20.1955 16.4961 20.1907 16.5187C20.1859 16.5412 20.1983 16.5629 20.2174 16.5666C20.2374 16.5704 20.2574 16.5553 20.2612 16.5328Z" fill="white"/>
<path d="M20.0639 17.8265C20.0135 17.7955 20.0011 17.7232 20.0373 17.665C20.0734 17.6067 20.1438 17.5842 20.1943 17.6142C20.2447 17.6452 20.257 17.7176 20.2209 17.7758C20.1847 17.834 20.1143 17.8575 20.0639 17.8265Z" fill="white"/>
<path d="M20.9512 18.1395C20.9312 18.1357 20.9122 18.1507 20.9074 18.1733C20.9027 18.1959 20.915 18.2175 20.9341 18.2212C20.9541 18.225 20.9731 18.21 20.9779 18.1874C20.9836 18.1648 20.9712 18.1432 20.9512 18.1395Z" fill="white"/>
<path d="M11.506 15.0596L11.408 14.8718L11.2102 14.9272L11.3776 14.8173L11.3367 14.5994L11.4423 14.7947L11.6849 14.7515L11.4708 14.8502L11.506 15.0596Z" fill="white"/>
<path d="M13.1077 14.5113C13.1125 14.4888 13.1001 14.4672 13.0811 14.4634C13.0611 14.4596 13.042 14.4747 13.0373 14.4972C13.0325 14.5198 13.0449 14.5414 13.0639 14.5452C13.0839 14.5489 13.103 14.5339 13.1077 14.5113Z" fill="white"/>
<path d="M19.816 19.4954L19.9929 19.8203L20.3973 19.748L20.0405 19.9124L20.0995 20.2618L19.9349 19.95L19.6067 20.0411L19.8845 19.8589L19.816 19.4954Z" fill="white"/>
<path d="M14.1115 13.3515C14.0754 13.4097 14.0877 13.482 14.1382 13.513C14.1886 13.544 14.259 13.5205 14.2951 13.4623C14.3313 13.404 14.3189 13.3317 14.2685 13.3007C14.2181 13.2707 14.1477 13.2932 14.1115 13.3515Z" fill="white"/>
<path d="M16.3911 15.7713C16.3958 15.7487 16.4149 15.7337 16.4349 15.7375C16.4549 15.7412 16.4672 15.7628 16.4615 15.7854C16.4568 15.808 16.4368 15.823 16.4177 15.8192C16.3987 15.8155 16.3863 15.7939 16.3911 15.7713Z" fill="white"/>
<path d="M10.6146 14.3482C10.665 14.3792 10.7354 14.3557 10.7716 14.2975C10.8077 14.2393 10.7953 14.1669 10.7449 14.136C10.6945 14.105 10.6241 14.1284 10.588 14.1867C10.5518 14.2458 10.5642 14.3182 10.6146 14.3482Z" fill="white"/>
<path d="M9.41799 14.5641C9.45795 14.5641 9.4941 14.5481 9.51979 14.5228C9.54548 14.4974 9.56165 14.4617 9.56165 14.4223C9.56165 14.3828 9.54548 14.3471 9.51979 14.3218C9.4941 14.2964 9.45795 14.2805 9.41799 14.2805C9.37804 14.2805 9.34189 14.2964 9.3162 14.3218C9.29051 14.3471 9.27434 14.3828 9.27434 14.4223C9.27434 14.4617 9.29051 14.4974 9.3162 14.5228C9.34189 14.5481 9.37804 14.5641 9.41799 14.5641Z" fill="white"/>
<path fill-rule="evenodd" clip-rule="evenodd" d="M9.10143 13.7835C9.21083 13.1993 9.28884 12.8894 9.91388 12.9251C9.89872 12.9306 9.88363 12.936 9.86861 12.9413C9.63197 13.0254 9.41596 13.1021 9.32024 13.776C9.29455 13.9582 9.31263 14.0953 9.36781 14.0747C9.54285 14.0089 9.74739 14.2155 9.74359 14.4287C9.74153 14.5961 9.67613 14.651 9.59325 14.7205C9.56077 14.7477 9.52561 14.7772 9.49053 14.8166C9.2546 15.0834 9.35544 15.8545 9.53144 16.1296L9.50004 15.7173C9.51598 15.7704 9.53112 15.8263 9.5466 15.8835C9.61519 16.1368 9.69057 16.4152 9.87297 16.5861C9.66748 16.5899 9.48292 16.588 9.31072 16.4396C8.86455 16.0564 9.00059 14.3179 9.10143 13.7835ZM9.62181 14.224C9.56949 14.1723 9.49719 14.1404 9.41823 14.1404C9.33831 14.1404 9.26696 14.1723 9.21464 14.224C9.16232 14.2756 9.12997 14.347 9.12997 14.425C9.12997 14.5039 9.16232 14.5743 9.21464 14.626C9.26696 14.6776 9.33831 14.7096 9.41823 14.7096C9.49814 14.7096 9.56949 14.6776 9.62181 14.626C9.67414 14.5743 9.70648 14.5029 9.70648 14.425C9.70648 14.3461 9.67414 14.2756 9.62181 14.224Z" fill="white"/>
<path d="M10.1207 13.8404C10.2083 13.0787 10.585 12.0784 10.8133 11.7177C10.2235 12.0831 10.0741 13.4027 10.1207 13.8404Z" fill="white"/>
<path d="M22.1746 11.8804C21.99 10.3016 20.367 8.45603 18.5728 8.02212C20.0816 8.52648 21.6066 10.3532 22.1746 11.8804Z" fill="white"/>
<path d="M18.5865 24.8151C18.5865 24.8151 18.7882 24.1689 19.3723 24.6225C19.1345 24.2497 18.6074 24.3642 18.5865 24.8151Z" fill="white"/>
<path fill-rule="evenodd" clip-rule="evenodd" d="M18.4476 24.794C18.4476 24.5 18.6893 24.2615 18.987 24.2615C19.2848 24.2615 19.5264 24.5 19.5264 24.794C19.5264 25.088 19.2848 25.3265 18.987 25.3265C18.6893 25.3265 18.4476 25.088 18.4476 24.794ZM18.6626 25.1143C18.8415 25.2909 19.1326 25.2909 19.3114 25.1143C19.4903 24.9377 19.4903 24.6503 19.3114 24.4737C19.1326 24.2972 18.8415 24.2972 18.6626 24.4737C18.4838 24.6503 18.4838 24.9377 18.6626 25.1143Z" fill="white"/>
<path d="M17.7941 8.21698C17.7703 8.48653 17.5753 8.70067 17.3803 8.87067C16.5269 9.6164 16.7638 10.0146 17.6999 10.5622C18.0006 10.7378 18.4077 10.9689 18.7426 11.1548C18.6673 11.0805 18.4271 10.9093 18.1823 10.7348C18.0406 10.6338 17.8974 10.5317 17.7837 10.4467C17.0416 9.88971 16.8599 9.70938 17.5106 9.00122C17.6895 8.8068 17.9368 8.49029 17.7941 8.21698Z" fill="white"/>
<path d="M20.4937 9.64085C20.4946 9.64203 20.4956 9.6432 20.4965 9.64414C20.5013 9.65071 20.507 9.65635 20.5137 9.66011C20.7201 9.89961 21.016 10.2668 21.1387 10.5533C21.1434 10.5627 21.1767 10.6303 21.1701 10.6378C21.1596 10.6388 21.1168 10.5749 21.1121 10.5674C20.899 10.265 20.6811 10.0039 20.4309 9.73149C20.4252 9.72585 20.4195 9.72022 20.4147 9.71458C20.4138 9.71364 20.4128 9.71247 20.4119 9.71129C20.4109 9.71012 20.41 9.70895 20.409 9.70801L20.4033 9.70237C20.1598 9.42718 19.9181 9.17172 19.627 8.94349C19.6184 8.93785 19.5509 8.88995 19.5518 8.88056C19.5601 8.87485 19.6157 8.90384 19.6364 8.91465L19.6432 8.91813C19.9286 9.06465 20.2654 9.39431 20.4851 9.63099C20.487 9.63381 20.4889 9.63569 20.4908 9.63757C20.4918 9.63851 20.4927 9.63968 20.4937 9.64085Z" fill="white"/>
<path d="M13.2673 20.6726C13.2606 20.6792 13.254 20.6867 13.2521 20.697C13.2473 20.7196 13.2597 20.7412 13.2787 20.7449C13.2987 20.7487 13.3177 20.7337 13.3225 20.7111C13.323 20.7085 13.3223 20.7065 13.3216 20.7044C13.3211 20.7027 13.3206 20.701 13.3206 20.6989C13.3398 20.7088 13.359 20.7188 13.3781 20.7287C13.4355 20.7587 13.493 20.7886 13.5536 20.8154C15.814 21.8222 18.3541 21.1385 18.9782 20.79C17.535 21.1375 16.1508 21.1591 15.012 20.9506L15.0016 20.9309L15.0054 20.9488C14.5173 20.8586 14.074 20.7271 13.6916 20.559C11.5606 19.6235 10.6197 17.2586 10.5864 15.0561C10.4332 17.3553 11.1838 19.585 13.2673 20.6726Z" fill="white"/>
<path d="M21.8723 14.4791C22.2082 15.5319 22.0778 17.5071 21.5974 18.5017C22.3271 17.5634 22.4612 15.5075 21.8723 14.4791Z" fill="white"/>
<path d="M13.9581 16.0183C14.0086 16.0493 14.0209 16.1216 13.9848 16.1799C13.9486 16.239 13.8782 16.2616 13.8278 16.2306C13.7774 16.1996 13.765 16.1273 13.8012 16.069C13.8373 16.0108 13.9077 15.9873 13.9581 16.0183Z" fill="white"/>
<path d="M12.5976 14.3462C12.6338 14.288 12.6214 14.2157 12.571 14.1847C12.5206 14.1537 12.4502 14.1772 12.414 14.2354C12.3779 14.2936 12.3902 14.3659 12.4407 14.3969C12.4911 14.4279 12.5615 14.4044 12.5976 14.3462Z" fill="white"/>
<path d="M21.1613 16.5595C21.1109 16.5285 21.0985 16.4562 21.1346 16.398C21.1708 16.3397 21.2412 16.3172 21.2916 16.3473C21.342 16.3782 21.3544 16.4506 21.3183 16.5088C21.2821 16.567 21.2117 16.5905 21.1613 16.5595Z" fill="white"/>
<path d="M17.5821 13.3062C17.5725 13.3513 17.5973 13.3945 17.6363 13.402C17.6754 13.4095 17.7153 13.3795 17.7249 13.3343C17.7344 13.2892 17.7096 13.246 17.6706 13.2385C17.6306 13.23 17.5906 13.2601 17.5821 13.3062Z" fill="white"/>
<path d="M13.2337 16.4053C13.2433 16.3602 13.2833 16.3301 13.3223 16.3376C13.3613 16.3451 13.3861 16.3884 13.3766 16.4335C13.367 16.4786 13.3271 16.5087 13.288 16.5012C13.249 16.4936 13.2242 16.4504 13.2337 16.4053Z" fill="white"/>
<path d="M16.9888 18.7723C16.9793 18.8174 17.004 18.8607 17.0431 18.8682C17.0821 18.8757 17.1221 18.8456 17.1316 18.8005C17.1411 18.7554 17.1164 18.7121 17.0773 18.7046C17.0373 18.6971 16.9974 18.7272 16.9888 18.7723Z" fill="white"/>
<path d="M16.5671 16.8392L16.5138 16.7416L16.5338 16.8505L16.4501 16.905L16.549 16.8778L16.5985 16.9717L16.5814 16.8665L16.6879 16.8167L16.5671 16.8392Z" fill="white"/>
<path d="M17.4511 17.2419C17.4121 17.2344 17.3721 17.2645 17.3626 17.3096C17.3531 17.3547 17.3778 17.398 17.4168 17.4055C17.4559 17.413 17.4959 17.3829 17.5054 17.3378C17.5149 17.2927 17.4902 17.2495 17.4511 17.2419Z" fill="white"/>
<path d="M17.3145 17.5939L17.3669 17.6906L17.4886 17.669L17.3811 17.7188L17.3992 17.824L17.3497 17.73L17.2508 17.7573L17.3345 17.7028L17.3145 17.5939Z" fill="white"/>
<path d="M17.3609 15.4225C17.397 15.3643 17.3847 15.292 17.3342 15.261C17.2838 15.23 17.2134 15.2534 17.1773 15.3117C17.1411 15.3699 17.1535 15.4422 17.2039 15.4732C17.2543 15.5033 17.3247 15.4807 17.3609 15.4225Z" fill="white"/>
<path d="M21.133 17.1384L21.1854 17.236L21.3071 17.2144L21.1996 17.2633L21.2177 17.3685L21.1682 17.2745L21.1107 17.2904C21.1002 17.3713 21.0765 17.4526 21.0402 17.5447C21.0003 17.6461 20.9413 17.7607 20.8623 17.8941C20.7833 18.0265 20.6835 18.1786 20.5579 18.3411C20.4333 18.5027 20.2801 18.6745 20.0965 18.8323C19.3402 19.4757 18.4621 19.9556 17.5526 20.2289C17.7495 19.6025 17.9483 18.9967 18.1453 18.4275C18.8769 18.2885 19.5751 18.0885 20.1907 17.8368C20.281 17.8001 20.3457 17.7513 20.3876 17.6968C20.4294 17.6424 20.4523 17.5747 20.4561 17.4921C20.4599 17.4094 20.4428 17.355 20.4047 17.3268C20.3657 17.2986 20.302 17.2892 20.2116 17.3033C19.7664 17.3719 19.2783 17.4301 18.7646 17.477C18.581 17.494 18.4212 17.4667 18.2861 17.3897C18.151 17.3127 18.0378 17.1943 17.9483 17.0356C17.858 16.8769 17.7914 16.6797 17.7486 16.4467C17.7057 16.2138 17.6848 15.9546 17.6867 15.6728C17.6886 15.3657 17.7153 15.0886 17.7666 14.8501C17.818 14.6106 17.896 14.418 18.0007 14.279C18.1053 14.14 18.2394 14.0564 18.4012 14.0339C18.5629 14.0114 18.7551 14.0602 18.972 14.1795C19.8025 14.6341 20.5636 15.2567 21.1791 16.0119C21.0231 16.0034 20.8604 16.0898 20.693 16.2617C20.1574 15.9903 19.5399 15.7639 18.8807 15.5892C18.7779 15.562 18.7009 15.5714 18.6495 15.6183C18.5981 15.6644 18.5715 15.7649 18.5696 15.917C18.5677 16.0692 18.5914 16.18 18.6409 16.2467C18.6904 16.3134 18.7665 16.3519 18.8683 16.3641C19.3811 16.4233 19.8701 16.4984 20.3143 16.5857C20.614 16.6468 20.8185 16.7698 20.9489 16.8835C21.0783 17.0018 21.1296 17.107 21.1135 17.2657C21.1132 17.2683 21.1129 17.2709 21.1127 17.2736L21.153 17.2473L21.133 17.1384Z" fill="white"/>
<path d="M13.7358 17.4465L13.753 17.5517L13.7035 17.4577L13.6055 17.485L13.6883 17.4305L13.6683 17.3216L13.7216 17.4192L13.8424 17.3976L13.7358 17.4465Z" fill="white"/>
<path d="M13.3567 12.5285C15.3222 12.0946 17.8233 12.1209 19.8582 12.6318C20.0837 12.6882 20.3025 12.7511 20.5146 12.8197C21.2976 13.0723 21.9122 13.3823 22.3821 14.081L22.247 13.8321C21.0731 12.0138 16.265 11.6147 14.3328 11.7048C16.0148 11.316 18.025 11.2728 19.2836 11.6503C19.2004 11.6046 19.0685 11.5379 18.9053 11.4555C18.462 11.2315 17.7882 10.8909 17.2354 10.5374C16.5333 10.0884 16.1575 9.50331 17.1022 8.83271C18.7946 7.6324 15.9548 7.79394 14.8874 7.91604C16.1974 7.60422 17.1564 7.56759 17.9508 7.67654C16.1118 7.2661 14.2529 7.59295 12.8868 8.43261C11.7118 9.1558 10.8119 10.3627 10.6682 11.2991C10.6481 11.4282 10.8008 11.4292 10.9515 11.4301C11.0999 11.4311 11.2465 11.432 11.2238 11.5555C11.2001 11.6847 11.1163 11.9086 11.0332 12.1304C10.896 12.4968 10.761 12.8574 10.9032 12.7755C11.2971 12.5482 12.2085 12.2486 13.1274 12.2627C12.9562 12.3078 12.7926 12.3566 12.6385 12.4092C11.6643 12.7445 10.848 13.1587 10.2877 14.0115C11.0757 13.0313 12.1483 12.7949 13.3453 12.531L13.3567 12.5285Z" stroke="white" stroke-width="0.15" stroke-linejoin="round"/>
<path d="M21.311 13.7386C18.8842 12.0142 13.0715 12.1307 10.9804 14.1744C12.9192 12.5552 19.0326 12.4294 21.311 13.7386Z" stroke="white" stroke-width="0.15" stroke-linejoin="round"/>
<path d="M12.0167 15.8088C11.9882 15.816 11.9636 15.8415 11.9563 15.8757C11.9468 15.9208 11.9716 15.964 12.0106 15.9715C12.0154 15.9725 12.0203 15.9728 12.025 15.9726L12.0766 16.9888C12.1053 17.5536 12.1339 18.1184 12.1628 18.6832C11.8735 18.347 11.5841 17.696 11.3801 17.0066C11.1631 16.273 11.048 15.4944 11.0214 15.0586C10.9085 15.9343 11.309 18.0244 12.1646 18.7189L12.1652 18.7293C12.3726 18.9961 12.598 19.2299 12.8387 19.4328L12.8175 18.7427C12.8216 18.7752 12.8431 18.802 12.8731 18.8078C12.9121 18.8153 12.9521 18.7852 12.9616 18.7401C12.9711 18.695 12.9464 18.6518 12.9074 18.6442C12.8674 18.6367 12.8283 18.6668 12.8188 18.7119C12.8178 18.7165 12.8172 18.721 12.8169 18.7255L12.7712 17.2393L12.9032 17.2023L13.0678 17.515L13.0098 17.1657L13.3656 17.0013L12.9622 17.0736L12.7843 16.7486L12.8528 17.1112L12.769 17.1664L12.7305 15.9158L12.8645 15.8781L12.9635 16.0659L12.9283 15.8565L13.1423 15.7579L12.8997 15.8011L12.7932 15.6057L12.8341 15.8236L12.7298 15.8925L12.6846 14.4249C12.4344 14.6363 12.1994 14.8804 11.9835 15.1575L12.0167 15.8088Z" stroke="white" stroke-width="0.15" stroke-linejoin="round"/>
<path d="M13.0561 19.8354C13.0514 19.858 13.0637 19.8796 13.0828 19.8833C13.1028 19.8871 13.1218 19.8721 13.1266 19.8495C13.1313 19.8269 13.119 19.8053 13.0999 19.8016C13.0809 19.7978 13.0609 19.8128 13.0561 19.8354Z" stroke="white" stroke-width="0.15" stroke-linejoin="round"/>
<path d="M14.059 20.4722C14.0495 20.5173 14.0095 20.5474 13.9704 20.5399C13.9314 20.5314 13.9067 20.4882 13.9162 20.444C13.9257 20.3989 13.9657 20.3688 14.0047 20.3763C14.0438 20.3838 14.0685 20.4271 14.059 20.4722Z" stroke="white" stroke-width="0.15" stroke-linejoin="round"/>
<path d="M14.6713 20.5152C14.6665 20.5377 14.6789 20.5593 14.698 20.5631C14.718 20.5669 14.737 20.5518 14.7418 20.5293C14.7465 20.5067 14.7341 20.4851 14.7151 20.4813C14.6961 20.4766 14.6761 20.4926 14.6713 20.5152Z" stroke="white" stroke-width="0.15" stroke-linejoin="round"/>
<path d="M15.4947 20.1321C15.4557 20.1245 15.431 20.0813 15.4405 20.0362C15.45 19.9911 15.489 19.9601 15.529 19.9685C15.5681 19.976 15.5928 20.0193 15.5833 20.0644C15.5738 20.1095 15.5338 20.1396 15.4947 20.1321Z" stroke="white" stroke-width="0.15" stroke-linejoin="round"/>
<path d="M14.8746 19.0565C14.8946 19.0602 14.9136 19.0452 14.9184 19.0226C14.9231 19.0001 14.9107 18.9784 14.8917 18.9747C14.8717 18.9709 14.8527 18.986 14.8479 19.0085C14.8432 19.0311 14.8555 19.0518 14.8746 19.0565Z" stroke="white" stroke-width="0.15" stroke-linejoin="round"/>
<path d="M16.2831 20.9779C16.2783 21.0005 16.2907 21.0221 16.3097 21.0258C16.3297 21.0296 16.3488 21.0146 16.3535 20.992C16.3583 20.9694 16.3459 20.9478 16.3269 20.9441C16.3078 20.9403 16.2878 20.9553 16.2831 20.9779Z" stroke="white" stroke-width="0.15" stroke-linejoin="round"/>
<path d="M18.14 21.361C18.1448 21.3384 18.1638 21.3234 18.1838 21.3271C18.2038 21.3309 18.2152 21.3525 18.2105 21.3751C18.2057 21.3976 18.1867 21.4127 18.1667 21.4089C18.1476 21.4051 18.1352 21.3835 18.14 21.361Z" stroke="white" stroke-width="0.15" stroke-linejoin="round"/>
<path d="M17.3968 20.2723C17.3464 20.2862 17.2959 20.2994 17.2453 20.3119C17.239 20.3145 17.2324 20.3161 17.2258 20.3167C16.8536 20.4078 16.4787 20.4639 16.1059 20.4818C15.866 19.9347 15.6246 19.3659 15.3839 18.7985C15.2858 18.5672 15.1876 18.3358 15.0898 18.1065C14.7549 18.8682 14.4324 19.5867 14.1261 20.1887C13.7789 20.0582 13.4459 19.8835 13.1329 19.6628C13.3841 19.3021 13.6523 18.7931 13.9358 18.1967C14.008 18.0452 14.0726 17.9068 14.1296 17.7846L14.1898 17.6557C14.2209 17.5886 14.2498 17.5263 14.2764 17.4691C14.3093 17.3984 14.3387 17.335 14.3639 17.28C14.4106 17.1804 14.4496 17.0997 14.481 17.0386C14.5124 16.9776 14.5409 16.9231 14.5666 16.8752C14.555 16.8549 14.5431 16.8333 14.5307 16.8108C14.5188 16.7892 14.5065 16.7667 14.4935 16.7438L14.504 16.808L14.4545 16.7141L14.3565 16.7423L14.4393 16.6869L14.4273 16.6215C14.4061 16.5802 14.3828 16.5326 14.3573 16.4789L14.3389 16.4412C14.2928 16.3464 14.2369 16.2319 14.1708 16.1013C14.1456 16.0515 14.1183 15.9973 14.0891 15.939C14.0311 15.8237 13.965 15.692 13.8911 15.5481C13.5991 14.9855 13.3146 14.5037 13.0397 14.1524C13.405 13.9007 13.7969 13.7091 14.206 13.5748C14.519 14.1665 14.8387 14.8503 15.1593 15.5688C15.4713 14.8193 15.7929 14.0576 16.1201 13.3353C16.534 13.3588 16.9478 13.4255 17.3569 13.5325C17.0315 14.098 16.7081 14.7366 16.3884 15.4053C16.3148 15.5605 16.2491 15.6987 16.1915 15.8198L16.1211 15.9679C16.0488 16.1201 15.9879 16.2478 15.9365 16.3511C15.8861 16.4544 15.8433 16.5399 15.809 16.6075C15.7748 16.6752 15.7443 16.7343 15.7177 16.7841C15.7443 16.8273 15.7748 16.8808 15.8081 16.9447C15.8414 17.0086 15.8851 17.0997 15.9394 17.218C15.9611 17.2652 15.9851 17.3173 16.0112 17.3742C16.0501 17.4591 16.094 17.5547 16.143 17.6604C16.1749 17.7294 16.21 17.8055 16.2481 17.8883L16.2485 17.8891C16.3078 18.0179 16.3747 18.163 16.4493 18.3235C16.7699 19.0204 17.0867 19.6853 17.3968 20.2723Z" stroke="white" stroke-width="0.15" stroke-linejoin="round"/>
<path d="M20.1598 18.8782C20.1551 18.9008 20.1675 18.9224 20.1865 18.9261C20.2065 18.9299 20.2255 18.9149 20.2303 18.8923C20.2351 18.8697 20.2227 18.8481 20.2036 18.8444C20.1836 18.8406 20.1636 18.8556 20.1598 18.8782Z" stroke="white" stroke-width="0.15" stroke-linejoin="round"/>
<path d="M21.6636 18.6475C21.6683 18.625 21.6874 18.6099 21.7074 18.6137C21.7274 18.6174 21.7397 18.6391 21.734 18.6616C21.7293 18.6842 21.7102 18.6992 21.6902 18.6955C21.6712 18.6917 21.6588 18.6701 21.6636 18.6475Z" stroke="white" stroke-width="0.15" stroke-linejoin="round"/>
<path fill-rule="evenodd" clip-rule="evenodd" d="M11.6904 22.4751L11.728 22.5246C11.2029 22.1292 10.6654 21.4454 10.2962 20.9148C10.5141 21.359 10.7548 21.7685 11.0925 22.2654C10.7348 22.0024 10.2896 21.5196 10.1402 21.2989C10.3372 22.2221 12.648 24.9224 13.9256 25.2286C13.6155 24.7251 13.9056 24.0715 14.5411 24.1541C15.2556 24.2471 15.2052 25.1854 14.6391 25.3741C15.0691 25.4427 15.5401 25.485 16.0233 25.5C15.8435 25.4699 15.678 25.4333 15.5315 25.3892C15.3289 25.3245 15.3361 25.3172 15.3848 25.2682C15.4365 25.2161 15.535 25.1169 15.4792 24.8519C15.3293 24.398 15.4606 24.3927 15.8636 24.3766C16.0159 24.3705 16.2069 24.3628 16.4362 24.3288C16.754 24.2818 17.1402 24.1992 17.497 24.1165C14.2082 24.2217 13.3063 24.1287 11.2543 21.8868C11.4206 22.1223 11.6072 22.3664 11.6904 22.4751ZM13.7886 25.0417C13.4794 24.6932 13.761 24.1184 14.2681 24.1325C13.8457 24.1898 13.6269 24.6585 13.7886 25.0417ZM14.7657 25.3619C15.2442 25.2107 15.2661 24.4763 14.9198 24.2386C15.3736 24.434 15.3431 25.3262 14.7657 25.3619Z" stroke="white" stroke-width="0.15" stroke-linejoin="round"/>
<path d="M14.0959 24.6099C14.0959 24.6099 14.2329 24.3949 14.5116 24.4324C14.7904 24.4709 14.8037 24.7809 14.8037 24.7809C14.8037 24.7809 14.5963 24.2615 14.0959 24.6099Z" stroke="white" stroke-width="0.15" stroke-linejoin="round"/>
<path fill-rule="evenodd" clip-rule="evenodd" d="M14.433 24.2615C14.7307 24.2615 14.9724 24.5 14.9724 24.794C14.9724 25.088 14.7307 25.3265 14.433 25.3265C14.1352 25.3265 13.8936 25.088 13.8936 24.794C13.8936 24.5 14.1352 24.2615 14.433 24.2615ZM14.1086 24.4737C13.9297 24.6503 13.9297 24.9377 14.1086 25.1143C14.2874 25.2909 14.5785 25.2909 14.7574 25.1143C14.9362 24.9377 14.9362 24.6503 14.7574 24.4737C14.5785 24.2972 14.2874 24.2972 14.1086 24.4737Z" stroke="white" stroke-width="0.15" stroke-linejoin="round"/>
<path d="M16.7082 23.2704C15.3697 23.2112 14.0207 22.8393 13.3947 22.3951C13.9874 22.5256 14.6172 22.6026 15.2584 22.6214C13.3775 22.4383 12.0942 21.7123 11.2494 20.6199C11.3797 20.8322 11.53 21.0473 11.7022 21.2671C11.2541 20.9759 10.573 20.0959 10.3941 19.2468C10.3386 19.3583 10.3469 19.4879 10.3549 19.6139C10.3594 19.6843 10.3639 19.7536 10.357 19.8179C10.3527 19.8615 10.3366 19.9103 10.3204 19.9597C10.3013 20.0177 10.282 20.0765 10.2809 20.1287C10.2733 20.4913 10.7223 20.9975 11.0905 21.3713C11.1495 21.4305 11.2113 21.4915 11.2732 21.5526L11.3114 21.5894C11.3753 21.651 11.4211 21.6952 11.4387 21.7141L11.5608 21.8327C12.5915 22.8347 13.7234 23.935 15.2232 23.7363C14.815 23.6085 14.1967 23.3709 13.916 23.1483C14.6666 23.2845 16.361 23.3005 16.7082 23.2704Z" stroke="white" stroke-width="0.15" stroke-linejoin="round"/>
<path d="M16.2074 22.2727C15.5557 22.3112 14.0365 22.0905 13.1222 21.6622C12.4154 21.3307 11.7846 20.8348 11.2481 20.1069C10.0047 18.4144 9.78204 16.0034 10.2882 14.0123C9.68025 18.2698 11.5639 21.7148 16.2264 21.7965C20.8452 21.8773 23.449 18.5769 22.3845 14.0799C23.6469 18.3665 21.1991 22.1647 16.2207 22.1102C15.2332 22.0989 14.1126 21.8641 13.1479 21.372C12.4629 21.0235 11.8645 20.5201 11.4126 19.9838C11.7922 20.6018 12.4353 21.1898 13.2021 21.5392C14.1734 21.9825 15.3531 22.1985 16.2074 22.2727Z" stroke="white" stroke-width="0.15" stroke-linejoin="round"/>
<path d="M19.1715 23.5075C19.5767 23.3404 20.1047 22.7796 20.1047 22.7796C20.1047 22.7796 19.6757 23.1591 19.1201 23.4108C18.8318 23.5414 18.4922 23.6184 18.1973 23.6315C18.1963 23.6315 18.7843 23.6672 19.1715 23.5075Z" stroke="white" stroke-width="0.15" stroke-linejoin="round"/>
<path d="M18.4556 24.3331C18.0009 24.6271 18.1835 25.4113 18.7439 25.4385C18.2644 25.323 18.115 24.659 18.4556 24.3331Z" stroke="white" stroke-width="0.15" stroke-linejoin="round"/>
<path d="M19.2946 24.1591C19.5991 24.2605 19.7599 24.7235 19.6191 24.9996C19.8597 24.731 19.6866 24.1844 19.2946 24.1591Z" stroke="white" stroke-width="0.15" stroke-linejoin="round"/>
<path d="M19.749 25.0473C20.5244 24.9806 21.7801 23.0148 21.8934 22.7951C21.5328 23.3689 20.3845 24.7176 19.749 25.0473Z" stroke="white" stroke-width="0.15" stroke-linejoin="round"/>
<path d="M21.1736 21.0393C20.4868 21.7474 19.3775 22.3194 18.3396 22.5382C19.3699 22.4499 20.6599 21.877 21.1736 21.0393Z" stroke="white" stroke-width="0.15" stroke-linejoin="round"/>
<path d="M21.8711 21.6198L21.8425 21.6536L22.6597 20.4505C22.6597 20.4505 22.8253 20.9661 22.8215 21.2996C22.8177 21.6339 21.9091 22.7713 21.9091 22.7713C21.9091 22.7713 22.6131 21.6922 22.6759 21.4686C22.7387 21.2451 22.557 20.799 22.557 20.799L21.8968 21.5898C21.5705 22.142 20.72 23.1104 20.2138 23.6514C20.1451 23.7247 20.0868 23.7796 20.0388 23.8248C19.879 23.9755 19.8322 24.0196 19.8856 24.2825C19.9142 24.4215 19.937 24.5558 19.8304 24.784C19.8304 24.784 19.8533 24.538 19.781 24.352C19.647 24.0045 19.1042 24.0571 18.7318 24.0932C18.6705 24.0991 18.6137 24.1046 18.5642 24.1078C19.5869 24.0064 20.0673 23.6288 20.2662 23.441C20.8436 22.8943 21.4858 22.1092 21.8711 21.6198Z" stroke="white" stroke-width="0.15" stroke-linejoin="round"/>
<path d="M21.8597 21.1584C21.8597 21.1584 22.5913 20.285 22.5989 20.1478C22.6053 20.0324 22.5464 19.9124 22.4805 19.7782C22.4681 19.7529 22.4554 19.7271 22.4429 19.7008C22.4373 19.6817 22.4309 19.6615 22.4239 19.6395L22.4125 19.6031C22.2907 19.2189 22.3516 19.0461 22.3516 19.0461C22.1984 19.2124 22.3335 19.775 22.4401 19.9468C22.4695 20.0248 22.4914 20.0943 22.4705 20.1525C22.4096 20.3253 21.8597 21.1584 21.8597 21.1584Z" stroke="white" stroke-width="0.15" stroke-linejoin="round"/>
<path d="M22.9142 14.6831C23.1511 15.1038 23.2548 16.1097 23.1825 16.4065C23.4603 16.3089 23.6525 16.1266 23.6848 15.5199L23.6849 15.6004C23.6862 16.0655 23.6874 16.4954 23.0208 16.5549C23.1235 16.2168 23.017 15.0156 22.9142 14.6831Z" stroke="white" stroke-width="0.15" stroke-linejoin="round"/>
<path fill-rule="evenodd" clip-rule="evenodd" d="M23.5158 14.6644C23.5681 14.6128 23.6005 14.5423 23.6005 14.4634C23.6005 14.3855 23.5681 14.3141 23.5158 14.2624C23.4635 14.2108 23.3921 14.1789 23.3122 14.1789C23.2333 14.1789 23.161 14.2108 23.1086 14.2624C23.0563 14.3141 23.024 14.3845 23.024 14.4634C23.024 14.5414 23.0563 14.6128 23.1086 14.6644C23.161 14.7161 23.2323 14.748 23.3122 14.748C23.3921 14.7471 23.4635 14.7152 23.5158 14.6644ZM23.1686 14.4634C23.1686 14.424 23.1847 14.3883 23.2104 14.3629C23.2361 14.3376 23.2723 14.3216 23.3122 14.3216C23.3522 14.3216 23.3883 14.3376 23.414 14.3629C23.4397 14.3883 23.4559 14.424 23.4559 14.4634C23.4559 14.5029 23.4397 14.5386 23.414 14.5639C23.3883 14.5893 23.3522 14.6053 23.3122 14.6053C23.2723 14.6053 23.2361 14.5893 23.2104 14.5639C23.1847 14.5386 23.1686 14.5029 23.1686 14.4634Z" stroke="white" stroke-width="0.15" stroke-linejoin="round"/>
<path d="M22.8576 13.0648C23.2515 12.9024 23.5607 13.1531 23.6701 13.511C23.8271 14.0247 23.7938 14.7836 23.7462 15.0212L23.7455 14.9979C23.7375 14.727 23.7172 14.0385 23.5426 13.5579C23.4342 13.2593 23.1316 13.032 22.8576 13.0648Z" stroke="white" stroke-width="0.15" stroke-linejoin="round"/>
<path d="M20.4003 14.1895L20.2233 13.8645L20.2909 14.228L20.0131 14.4102L20.3422 14.3181L20.5068 14.6309L20.4478 14.2815L20.5687 14.2261L20.8046 14.1172L20.5563 14.1613L20.4003 14.1895Z" stroke="white" stroke-width="0.15" stroke-linejoin="round"/>
<path d="M18.5808 17.4981C18.6312 17.5291 18.6436 17.6014 18.6074 17.6596C18.5713 17.7179 18.5009 17.7404 18.4505 17.7103C18.4 17.6793 18.3877 17.607 18.4238 17.5488C18.46 17.4906 18.5304 17.4671 18.5808 17.4981Z" stroke="white" stroke-width="0.15" stroke-linejoin="round"/>
<path d="M21.1254 14.4187L21.1748 14.5126L21.1568 14.4075L21.2643 14.3577L21.1425 14.3793L21.0892 14.2825L21.1101 14.3915L21.0264 14.446L21.1254 14.4187Z" stroke="white" stroke-width="0.15" stroke-linejoin="round"/>
<path d="M20.2612 16.5328C20.2659 16.5102 20.2535 16.4886 20.2345 16.4848C20.2145 16.4811 20.1955 16.4961 20.1907 16.5187C20.1859 16.5412 20.1983 16.5629 20.2174 16.5666C20.2374 16.5704 20.2574 16.5553 20.2612 16.5328Z" stroke="white" stroke-width="0.15" stroke-linejoin="round"/>
<path d="M20.0639 17.8265C20.0135 17.7955 20.0011 17.7232 20.0373 17.665C20.0734 17.6067 20.1438 17.5842 20.1943 17.6142C20.2447 17.6452 20.257 17.7176 20.2209 17.7758C20.1847 17.834 20.1143 17.8575 20.0639 17.8265Z" stroke="white" stroke-width="0.15" stroke-linejoin="round"/>
<path d="M20.9512 18.1395C20.9312 18.1357 20.9122 18.1507 20.9074 18.1733C20.9027 18.1959 20.915 18.2175 20.9341 18.2212C20.9541 18.225 20.9731 18.21 20.9779 18.1874C20.9836 18.1648 20.9712 18.1432 20.9512 18.1395Z" stroke="white" stroke-width="0.15" stroke-linejoin="round"/>
<path d="M11.506 15.0596L11.408 14.8718L11.2102 14.9272L11.3776 14.8173L11.3367 14.5994L11.4423 14.7947L11.6849 14.7515L11.4708 14.8502L11.506 15.0596Z" stroke="white" stroke-width="0.15" stroke-linejoin="round"/>
<path d="M13.1077 14.5113C13.1125 14.4888 13.1001 14.4672 13.0811 14.4634C13.0611 14.4596 13.042 14.4747 13.0373 14.4972C13.0325 14.5198 13.0449 14.5414 13.0639 14.5452C13.0839 14.5489 13.103 14.5339 13.1077 14.5113Z" stroke="white" stroke-width="0.15" stroke-linejoin="round"/>
<path d="M19.816 19.4954L19.9929 19.8203L20.3973 19.748L20.0405 19.9124L20.0995 20.2618L19.9349 19.95L19.6067 20.0411L19.8845 19.8589L19.816 19.4954Z" stroke="white" stroke-width="0.15" stroke-linejoin="round"/>
<path d="M14.1115 13.3515C14.0754 13.4097 14.0877 13.482 14.1382 13.513C14.1886 13.544 14.259 13.5205 14.2951 13.4623C14.3313 13.404 14.3189 13.3317 14.2685 13.3007C14.2181 13.2707 14.1477 13.2932 14.1115 13.3515Z" stroke="white" stroke-width="0.15" stroke-linejoin="round"/>
<path d="M16.3911 15.7713C16.3958 15.7487 16.4149 15.7337 16.4349 15.7375C16.4549 15.7412 16.4672 15.7628 16.4615 15.7854C16.4568 15.808 16.4368 15.823 16.4177 15.8192C16.3987 15.8155 16.3863 15.7939 16.3911 15.7713Z" stroke="white" stroke-width="0.15" stroke-linejoin="round"/>
<path d="M10.6146 14.3482C10.665 14.3792 10.7354 14.3557 10.7716 14.2975C10.8077 14.2393 10.7953 14.1669 10.7449 14.136C10.6945 14.105 10.6241 14.1284 10.588 14.1867C10.5518 14.2458 10.5642 14.3182 10.6146 14.3482Z" stroke="white" stroke-width="0.15" stroke-linejoin="round"/>
<path d="M9.41799 14.5641C9.45795 14.5641 9.4941 14.5481 9.51979 14.5228C9.54548 14.4974 9.56165 14.4617 9.56165 14.4223C9.56165 14.3828 9.54548 14.3471 9.51979 14.3218C9.4941 14.2964 9.45795 14.2805 9.41799 14.2805C9.37804 14.2805 9.34189 14.2964 9.3162 14.3218C9.29051 14.3471 9.27434 14.3828 9.27434 14.4223C9.27434 14.4617 9.29051 14.4974 9.3162 14.5228C9.34189 14.5481 9.37804 14.5641 9.41799 14.5641Z" stroke="white" stroke-width="0.15" stroke-linejoin="round"/>
<path fill-rule="evenodd" clip-rule="evenodd" d="M9.10143 13.7835C9.21083 13.1993 9.28884 12.8894 9.91388 12.9251C9.89872 12.9306 9.88363 12.936 9.86861 12.9413C9.63197 13.0254 9.41596 13.1021 9.32024 13.776C9.29455 13.9582 9.31263 14.0953 9.36781 14.0747C9.54285 14.0089 9.74739 14.2155 9.74359 14.4287C9.74153 14.5961 9.67613 14.651 9.59325 14.7205C9.56077 14.7477 9.52561 14.7772 9.49053 14.8166C9.2546 15.0834 9.35544 15.8545 9.53144 16.1296L9.50004 15.7173C9.51598 15.7704 9.53112 15.8263 9.5466 15.8835C9.61519 16.1368 9.69057 16.4152 9.87297 16.5861C9.66748 16.5899 9.48292 16.588 9.31072 16.4396C8.86455 16.0564 9.00059 14.3179 9.10143 13.7835ZM9.62181 14.224C9.56949 14.1723 9.49719 14.1404 9.41823 14.1404C9.33831 14.1404 9.26696 14.1723 9.21464 14.224C9.16232 14.2756 9.12997 14.347 9.12997 14.425C9.12997 14.5039 9.16232 14.5743 9.21464 14.626C9.26696 14.6776 9.33831 14.7096 9.41823 14.7096C9.49814 14.7096 9.56949 14.6776 9.62181 14.626C9.67414 14.5743 9.70648 14.5029 9.70648 14.425C9.70648 14.3461 9.67414 14.2756 9.62181 14.224Z" stroke="white" stroke-width="0.15" stroke-linejoin="round"/>
<path d="M10.1207 13.8404C10.2083 13.0787 10.585 12.0784 10.8133 11.7177C10.2235 12.0831 10.0741 13.4027 10.1207 13.8404Z" stroke="white" stroke-width="0.15" stroke-linejoin="round"/>
<path d="M22.1746 11.8804C21.99 10.3016 20.367 8.45603 18.5728 8.02212C20.0816 8.52648 21.6066 10.3532 22.1746 11.8804Z" stroke="white" stroke-width="0.15" stroke-linejoin="round"/>
<path d="M18.5865 24.8151C18.5865 24.8151 18.7882 24.1689 19.3723 24.6225C19.1345 24.2497 18.6074 24.3642 18.5865 24.8151Z" stroke="white" stroke-width="0.15" stroke-linejoin="round"/>
<path fill-rule="evenodd" clip-rule="evenodd" d="M18.4476 24.794C18.4476 24.5 18.6893 24.2615 18.987 24.2615C19.2848 24.2615 19.5264 24.5 19.5264 24.794C19.5264 25.088 19.2848 25.3265 18.987 25.3265C18.6893 25.3265 18.4476 25.088 18.4476 24.794ZM18.6626 25.1143C18.8415 25.2909 19.1326 25.2909 19.3114 25.1143C19.4903 24.9377 19.4903 24.6503 19.3114 24.4737C19.1326 24.2972 18.8415 24.2972 18.6626 24.4737C18.4838 24.6503 18.4838 24.9377 18.6626 25.1143Z" stroke="white" stroke-width="0.15" stroke-linejoin="round"/>
<path d="M17.7941 8.21698C17.7703 8.48653 17.5753 8.70067 17.3803 8.87067C16.5269 9.6164 16.7638 10.0146 17.6999 10.5622C18.0006 10.7378 18.4077 10.9689 18.7426 11.1548C18.6673 11.0805 18.4271 10.9093 18.1823 10.7348C18.0406 10.6338 17.8974 10.5317 17.7837 10.4467C17.0416 9.88971 16.8599 9.70938 17.5106 9.00122C17.6895 8.8068 17.9368 8.49029 17.7941 8.21698Z" stroke="white" stroke-width="0.15" stroke-linejoin="round"/>
<path d="M20.4937 9.64085C20.4946 9.64203 20.4956 9.6432 20.4965 9.64414C20.5013 9.65071 20.507 9.65635 20.5137 9.66011C20.7201 9.89961 21.016 10.2668 21.1387 10.5533C21.1434 10.5627 21.1767 10.6303 21.1701 10.6378C21.1596 10.6388 21.1168 10.5749 21.1121 10.5674C20.899 10.265 20.6811 10.0039 20.4309 9.73149C20.4252 9.72585 20.4195 9.72022 20.4147 9.71458C20.4138 9.71364 20.4128 9.71247 20.4119 9.71129C20.4109 9.71012 20.41 9.70895 20.409 9.70801L20.4033 9.70237C20.1598 9.42718 19.9181 9.17172 19.627 8.94349C19.6184 8.93785 19.5509 8.88995 19.5518 8.88056C19.5601 8.87485 19.6157 8.90384 19.6364 8.91465L19.6432 8.91813C19.9286 9.06465 20.2654 9.39431 20.4851 9.63099C20.487 9.63381 20.4889 9.63569 20.4908 9.63757C20.4918 9.63851 20.4927 9.63968 20.4937 9.64085Z" stroke="white" stroke-width="0.15" stroke-linejoin="round"/>
<path d="M13.2673 20.6726C13.2606 20.6792 13.254 20.6867 13.2521 20.697C13.2473 20.7196 13.2597 20.7412 13.2787 20.7449C13.2987 20.7487 13.3177 20.7337 13.3225 20.7111C13.323 20.7085 13.3223 20.7065 13.3216 20.7044C13.3211 20.7027 13.3206 20.701 13.3206 20.6989C13.3398 20.7088 13.359 20.7188 13.3781 20.7287C13.4355 20.7587 13.493 20.7886 13.5536 20.8154C15.814 21.8222 18.3541 21.1385 18.9782 20.79C17.535 21.1375 16.1508 21.1591 15.012 20.9506L15.0016 20.9309L15.0054 20.9488C14.5173 20.8586 14.074 20.7271 13.6916 20.559C11.5606 19.6235 10.6197 17.2586 10.5864 15.0561C10.4332 17.3553 11.1838 19.585 13.2673 20.6726Z" stroke="white" stroke-width="0.15" stroke-linejoin="round"/>
<path d="M21.8723 14.4791C22.2082 15.5319 22.0778 17.5071 21.5974 18.5017C22.3271 17.5634 22.4612 15.5075 21.8723 14.4791Z" stroke="white" stroke-width="0.15" stroke-linejoin="round"/>
<path d="M13.9581 16.0183C14.0086 16.0493 14.0209 16.1216 13.9848 16.1799C13.9486 16.239 13.8782 16.2616 13.8278 16.2306C13.7774 16.1996 13.765 16.1273 13.8012 16.069C13.8373 16.0108 13.9077 15.9873 13.9581 16.0183Z" stroke="white" stroke-width="0.15" stroke-linejoin="round"/>
<path d="M12.5976 14.3462C12.6338 14.288 12.6214 14.2157 12.571 14.1847C12.5206 14.1537 12.4502 14.1772 12.414 14.2354C12.3779 14.2936 12.3902 14.3659 12.4407 14.3969C12.4911 14.4279 12.5615 14.4044 12.5976 14.3462Z" stroke="white" stroke-width="0.15" stroke-linejoin="round"/>
<path d="M21.1613 16.5595C21.1109 16.5285 21.0985 16.4562 21.1346 16.398C21.1708 16.3397 21.2412 16.3172 21.2916 16.3473C21.342 16.3782 21.3544 16.4506 21.3183 16.5088C21.2821 16.567 21.2117 16.5905 21.1613 16.5595Z" stroke="white" stroke-width="0.15" stroke-linejoin="round"/>
<path d="M17.5821 13.3062C17.5725 13.3513 17.5973 13.3945 17.6363 13.402C17.6754 13.4095 17.7153 13.3795 17.7249 13.3343C17.7344 13.2892 17.7096 13.246 17.6706 13.2385C17.6306 13.23 17.5906 13.2601 17.5821 13.3062Z" stroke="white" stroke-width="0.15" stroke-linejoin="round"/>
<path d="M13.2337 16.4053C13.2433 16.3602 13.2833 16.3301 13.3223 16.3376C13.3613 16.3451 13.3861 16.3884 13.3766 16.4335C13.367 16.4786 13.3271 16.5087 13.288 16.5012C13.249 16.4936 13.2242 16.4504 13.2337 16.4053Z" stroke="white" stroke-width="0.15" stroke-linejoin="round"/>
<path d="M16.9888 18.7723C16.9793 18.8174 17.004 18.8607 17.0431 18.8682C17.0821 18.8757 17.1221 18.8456 17.1316 18.8005C17.1411 18.7554 17.1164 18.7121 17.0773 18.7046C17.0373 18.6971 16.9974 18.7272 16.9888 18.7723Z" stroke="white" stroke-width="0.15" stroke-linejoin="round"/>
<path d="M16.5671 16.8392L16.5138 16.7416L16.5338 16.8505L16.4501 16.905L16.549 16.8778L16.5985 16.9717L16.5814 16.8665L16.6879 16.8167L16.5671 16.8392Z" stroke="white" stroke-width="0.15" stroke-linejoin="round"/>
<path d="M17.4511 17.2419C17.4121 17.2344 17.3721 17.2645 17.3626 17.3096C17.3531 17.3547 17.3778 17.398 17.4168 17.4055C17.4559 17.413 17.4959 17.3829 17.5054 17.3378C17.5149 17.2927 17.4902 17.2495 17.4511 17.2419Z" stroke="white" stroke-width="0.15" stroke-linejoin="round"/>
<path d="M17.3145 17.5939L17.3669 17.6906L17.4886 17.669L17.3811 17.7188L17.3992 17.824L17.3497 17.73L17.2508 17.7573L17.3345 17.7028L17.3145 17.5939Z" stroke="white" stroke-width="0.15" stroke-linejoin="round"/>
<path d="M17.3609 15.4225C17.397 15.3643 17.3847 15.292 17.3342 15.261C17.2838 15.23 17.2134 15.2534 17.1773 15.3117C17.1411 15.3699 17.1535 15.4422 17.2039 15.4732C17.2543 15.5033 17.3247 15.4807 17.3609 15.4225Z" stroke="white" stroke-width="0.15" stroke-linejoin="round"/>
<path d="M21.133 17.1384L21.1854 17.236L21.3071 17.2144L21.1996 17.2633L21.2177 17.3685L21.1682 17.2745L21.1107 17.2904C21.1002 17.3713 21.0765 17.4526 21.0402 17.5447C21.0003 17.6461 20.9413 17.7607 20.8623 17.8941C20.7833 18.0265 20.6835 18.1786 20.5579 18.3411C20.4333 18.5027 20.2801 18.6745 20.0965 18.8323C19.3402 19.4757 18.4621 19.9556 17.5526 20.2289C17.7495 19.6025 17.9483 18.9967 18.1453 18.4275C18.8769 18.2885 19.5751 18.0885 20.1907 17.8368C20.281 17.8001 20.3457 17.7513 20.3876 17.6968C20.4294 17.6424 20.4523 17.5747 20.4561 17.4921C20.4599 17.4094 20.4428 17.355 20.4047 17.3268C20.3657 17.2986 20.302 17.2892 20.2116 17.3033C19.7664 17.3719 19.2783 17.4301 18.7646 17.477C18.581 17.494 18.4212 17.4667 18.2861 17.3897C18.151 17.3127 18.0378 17.1943 17.9483 17.0356C17.858 16.8769 17.7914 16.6797 17.7486 16.4467C17.7057 16.2138 17.6848 15.9546 17.6867 15.6728C17.6886 15.3657 17.7153 15.0886 17.7666 14.8501C17.818 14.6106 17.896 14.418 18.0007 14.279C18.1053 14.14 18.2394 14.0564 18.4012 14.0339C18.5629 14.0114 18.7551 14.0602 18.972 14.1795C19.8025 14.6341 20.5636 15.2567 21.1791 16.0119C21.0231 16.0034 20.8604 16.0898 20.693 16.2617C20.1574 15.9903 19.5399 15.7639 18.8807 15.5892C18.7779 15.562 18.7009 15.5714 18.6495 15.6183C18.5981 15.6644 18.5715 15.7649 18.5696 15.917C18.5677 16.0692 18.5914 16.18 18.6409 16.2467C18.6904 16.3134 18.7665 16.3519 18.8683 16.3641C19.3811 16.4233 19.8701 16.4984 20.3143 16.5857C20.614 16.6468 20.8185 16.7698 20.9489 16.8835C21.0783 17.0018 21.1296 17.107 21.1135 17.2657C21.1132 17.2683 21.1129 17.2709 21.1127 17.2736L21.153 17.2473L21.133 17.1384Z" stroke="white" stroke-width="0.15" stroke-linejoin="round"/>
<path d="M13.7358 17.4465L13.753 17.5517L13.7035 17.4577L13.6055 17.485L13.6883 17.4305L13.6683 17.3216L13.7216 17.4192L13.8424 17.3976L13.7358 17.4465Z" stroke="white" stroke-width="0.15" stroke-linejoin="round"/>
</svg>
