<svg width="75" height="75" viewBox="0 0 75 75" fill="none" xmlns="http://www.w3.org/2000/svg">
<circle cx="37.5" cy="37.5" r="37.5" fill="url(#paint0_linear)"/>
<path d="M19.828 51.8752C18.5495 50.7865 17.3519 49.5316 16.2503 48.1002C15.9269 41.7095 15.6086 35.3188 15.2852 28.9331C16.4322 27.4463 17.6804 26.1359 19.0094 25.0019C19.2823 33.958 19.5551 42.9191 19.828 51.8752Z" fill="#EDCEFF"/>
<path d="M43.8299 20.209C42.1017 23.2431 40.3836 26.6703 38.6858 30.2587C38.1249 31.4532 37.6499 32.4612 37.2658 33.2777C36.8818 34.0942 36.5584 34.7796 36.2855 35.334C36.0177 35.8884 35.7903 36.3471 35.6084 36.7099C35.4264 37.0728 35.2647 37.3903 35.1232 37.6575C35.2647 37.8893 35.4264 38.1766 35.6033 38.5193C35.7802 38.862 36.0126 39.3509 36.3006 39.9859C36.5887 40.6159 36.9475 41.4123 37.382 42.3598C37.8166 43.3073 38.3573 44.5018 39.0092 45.918C40.7121 49.6577 42.3948 53.226 44.0422 56.376C41.7682 57.006 39.469 57.3891 37.185 57.5C35.3911 53.3672 33.582 49.0025 31.7881 44.7538C30.0094 48.8412 28.2963 52.6968 26.6692 55.9275C24.8248 55.2269 23.0562 54.2895 21.3937 53.1051C22.7277 51.1697 24.1527 48.438 25.6586 45.2376C26.1841 44.1238 26.6338 43.141 27.0078 42.3346C27.3767 41.5282 27.69 40.8528 27.9325 40.3186C28.1801 39.7843 28.3873 39.3509 28.5541 39.0233C28.7208 38.6957 28.8724 38.4034 29.0089 38.1463C28.8674 37.8943 28.7158 37.6071 28.544 37.3047C28.3721 36.9972 28.1549 36.5688 27.8971 36.0195C27.6344 35.4751 27.3059 34.7897 26.9067 33.9934C26.5075 33.1971 26.0123 32.1891 25.4211 31.0248C23.8697 28.0059 22.3588 25.4203 20.8984 23.5354C22.8389 22.1847 24.9208 21.1565 27.0937 20.4358C28.7562 23.611 30.4541 27.2801 32.157 31.1357C33.8145 27.1138 35.5225 23.0263 37.2608 19.1506C39.4589 19.2766 41.6571 19.6344 43.8299 20.209Z" fill="#EDCEFF"/>
<path d="M59.5367 36.5938C61.1285 36.9214 62.2149 37.5817 62.9072 38.1915C63.5944 38.8265 63.8673 39.391 63.7814 40.2428C63.7359 40.7216 63.6045 41.1953 63.3923 41.7397C63.1801 42.284 62.8668 42.8989 62.4474 43.6145C62.0279 44.3252 61.4974 45.1417 60.8303 46.0136C60.1684 46.8805 59.3548 47.8028 58.3795 48.6495C54.3622 52.1019 49.6981 54.6774 44.8672 56.144C45.9132 52.7823 46.9693 49.5315 48.0153 46.4773C51.9013 45.7313 55.6103 44.6578 58.8798 43.3071C59.3598 43.1105 59.7035 42.8485 59.9258 42.5561C60.1481 42.2638 60.2694 41.9009 60.2896 41.4574C60.3098 41.0139 60.2189 40.7216 60.0168 40.5704C59.8096 40.4192 59.471 40.3688 58.991 40.4444C56.626 40.8123 54.0337 41.1248 51.305 41.3768C50.3297 41.4675 49.4808 41.3213 48.7632 40.9081C48.0457 40.4948 47.4443 39.8597 46.9693 39.008C46.4893 38.1562 46.1355 37.0978 45.9082 35.8479C45.6808 34.598 45.5696 33.2069 45.5797 31.6949C45.5898 30.0469 45.7313 28.5601 46.0042 27.2799C46.277 25.9947 46.6914 24.9615 47.2473 24.2156C47.8031 23.4696 48.5156 23.0211 49.3747 22.9001C50.2337 22.7792 51.2545 23.0412 52.4066 23.6813C56.8181 26.1207 60.8606 29.4622 64.1301 33.5144C63.3014 33.469 62.4373 33.9327 61.5479 34.855C58.7029 33.3985 55.4234 32.1838 51.9215 31.2464C51.3757 31.1002 50.9664 31.1506 50.6936 31.4026C50.4207 31.6496 50.2792 32.1889 50.2691 33.0053C50.259 33.8218 50.3853 34.4165 50.6481 34.7744C50.9108 35.1322 51.3151 35.3389 51.8558 35.4044C54.5795 35.7219 57.1768 36.1251 59.5367 36.5938Z" fill="#EDCEFF"/>
<defs>
<linearGradient id="paint0_linear" x1="37.5" y1="-6.01337e-06" x2="93.3114" y2="27.6602" gradientUnits="userSpaceOnUse">
<stop stop-color="#7B42A9"/>
<stop offset="1" stop-color="#ED0376"/>
</linearGradient>
</defs>
</svg>
