<svg width="34" height="25" viewBox="0 0 34 25" fill="none" xmlns="http://www.w3.org/2000/svg">
<path d="M10.0246 15.045C10.9724 14.4084 11.6265 13.149 11.6265 12.0162C11.6265 10.4179 10.3317 9.1196 8.73176 9.1196C7.13346 9.1196 5.83682 10.4179 5.83682 12.0162C5.83682 13.149 6.49017 14.4084 7.43511 15.045C5.17173 15.62 3.48975 17.5925 3.48975 19.05C3.48975 19.9124 6.11111 20.3438 8.73152 20.3438C9.51844 20.3438 13.9738 20.4519 13.9738 19.05C13.974 17.591 12.2934 15.6195 10.0246 15.045Z" fill="url(#paint0_linear_5074_201685)"/>
<path d="M25.8721 12.1891H15.302C14.9901 12.1891 14.7368 11.9361 14.7368 11.6241C14.7368 11.3122 14.9898 11.0589 15.302 11.0589H25.8721C26.1836 11.0589 26.4371 11.3122 26.4371 11.6241C26.4366 11.9361 26.1834 12.1891 25.8721 12.1891Z" fill="url(#paint1_linear_5074_201685)"/>
<path d="M25.8721 14.6417H15.302C14.9901 14.6417 14.7368 14.3887 14.7368 14.0765C14.7368 13.7643 14.9898 13.5115 15.302 13.5115H25.8721C26.1836 13.5115 26.4371 13.7641 26.4371 14.0765C26.4371 14.3889 26.1834 14.6417 25.8721 14.6417Z" fill="url(#paint2_linear_5074_201685)"/>
<path d="M25.8721 17.0943H15.302C14.9901 17.0943 14.7368 16.841 14.7368 16.5289C14.7368 16.2169 14.9898 15.9639 15.302 15.9639H25.8721C26.1836 15.9639 26.4371 16.2169 26.4371 16.5289C26.4366 16.841 26.1834 17.0943 25.8721 17.0943Z" fill="url(#paint3_linear_5074_201685)"/>
<path d="M22.4697 6.04227H27.0301C27.6968 6.04227 28.2396 6.58502 28.2396 7.2517V21.8494C28.2396 22.5166 27.6968 23.0589 27.0301 23.0589H3.15056C2.48386 23.0589 1.94138 22.5163 1.94138 21.8494V7.2517C1.94138 6.585 2.48389 6.04227 3.15056 6.04227H11.9481V4.10114H3.15056C1.41332 4.10114 0 5.51469 0 7.2517V21.8494C0 23.5869 1.41356 25 3.15056 25H27.0307C28.7682 25 30.1813 23.5864 30.1813 21.8494V7.2517C30.1813 5.51445 28.7677 4.10114 27.0307 4.10114H17.5268V6.04227H22.4697Z" fill="url(#paint4_linear_5074_201685)"/>
<circle cx="28" cy="6" r="6" fill="#372E5E"/>
<path fill-rule="evenodd" clip-rule="evenodd" d="M26.9586 8.24847C26.9733 8.26392 26.9888 8.27888 27.0051 8.29328C27.3151 8.56797 27.7891 8.53933 28.0638 8.22931L30.6616 5.29737C30.9363 4.98735 30.9077 4.51334 30.5976 4.23864C30.2876 3.96395 29.8136 3.99259 29.5389 4.30262L27.5869 6.50566L26.8366 5.30299C26.6173 4.95157 26.1547 4.84443 25.8033 5.06369C25.4518 5.28295 25.3447 5.74558 25.564 6.097L26.7861 8.05578C26.8334 8.13168 26.8921 8.19619 26.9586 8.24847Z" fill="#9DF9B1"/>
<path d="M12.5483 2H16.9266V7.36713H12.5483V2Z" fill="url(#paint5_linear_5074_201685)"/>
<defs>
<linearGradient id="paint0_linear_5074_201685" x1="8.73176" y1="9.1196" x2="16.7352" y2="12.8239" gradientUnits="userSpaceOnUse">
<stop stop-color="#7B42A9"/>
<stop offset="1" stop-color="#ED0376"/>
</linearGradient>
<linearGradient id="paint1_linear_5074_201685" x1="20.5869" y1="11.0589" x2="20.9838" y2="13.0953" gradientUnits="userSpaceOnUse">
<stop stop-color="#7B42A9"/>
<stop offset="1" stop-color="#ED0376"/>
</linearGradient>
<linearGradient id="paint2_linear_5074_201685" x1="20.5869" y1="13.5115" x2="20.9839" y2="15.548" gradientUnits="userSpaceOnUse">
<stop stop-color="#7B42A9"/>
<stop offset="1" stop-color="#ED0376"/>
</linearGradient>
<linearGradient id="paint3_linear_5074_201685" x1="20.5869" y1="15.9639" x2="20.984" y2="18.0007" gradientUnits="userSpaceOnUse">
<stop stop-color="#7B42A9"/>
<stop offset="1" stop-color="#ED0376"/>
</linearGradient>
<linearGradient id="paint4_linear_5074_201685" x1="15.0906" y1="4.10113" x2="33.59" y2="17.3416" gradientUnits="userSpaceOnUse">
<stop stop-color="#7B42A9"/>
<stop offset="1" stop-color="#ED0376"/>
</linearGradient>
<linearGradient id="paint5_linear_5074_201685" x1="14.7375" y1="2" x2="18.2256" y2="3.41022" gradientUnits="userSpaceOnUse">
<stop stop-color="#7B42A9"/>
<stop offset="1" stop-color="#ED0376"/>
</linearGradient>
</defs>
</svg>
