<svg width="22" height="17" viewBox="0 0 22 17" fill="none" xmlns="http://www.w3.org/2000/svg">
<path d="M7.30704 9.64194C7.99789 9.17147 8.47466 8.24055 8.47466 7.40331C8.47466 6.22196 7.53085 5.26233 6.36463 5.26233C5.19959 5.26233 4.25443 6.22196 4.25443 7.40331C4.25443 8.24055 4.73067 9.17147 5.41947 9.64194C3.76963 10.067 2.54358 11.5249 2.54358 12.6022C2.54358 13.2396 4.45437 13.5585 6.36446 13.5585C6.93806 13.5585 10.1857 13.6384 10.1857 12.6022C10.1859 11.5238 8.96081 10.0666 7.30704 9.64194Z" fill="url(#paint0_linear_5254_4814)"/>
<path d="M7.30704 9.64194C7.99789 9.17147 8.47466 8.24055 8.47466 7.40331C8.47466 6.22196 7.53085 5.26233 6.36463 5.26233C5.19959 5.26233 4.25443 6.22196 4.25443 7.40331C4.25443 8.24055 4.73067 9.17147 5.41947 9.64194C3.76963 10.067 2.54358 11.5249 2.54358 12.6022C2.54358 13.2396 4.45437 13.5585 6.36446 13.5585C6.93806 13.5585 10.1857 13.6384 10.1857 12.6022C10.1859 11.5238 8.96081 10.0666 7.30704 9.64194Z" fill="#ED0376"/>
<path d="M18.859 7.53108H11.1542C10.9268 7.53108 10.7422 7.34407 10.7422 7.1135C10.7422 6.88293 10.9266 6.69574 11.1542 6.69574H18.859C19.0861 6.69574 19.2708 6.88293 19.2708 7.1135C19.2705 7.34407 19.0859 7.53108 18.859 7.53108Z" fill="url(#paint1_linear_5254_4814)"/>
<path d="M18.859 7.53108H11.1542C10.9268 7.53108 10.7422 7.34407 10.7422 7.1135C10.7422 6.88293 10.9266 6.69574 11.1542 6.69574H18.859C19.0861 6.69574 19.2708 6.88293 19.2708 7.1135C19.2705 7.34407 19.0859 7.53108 18.859 7.53108Z" fill="#ED0376"/>
<path d="M18.859 9.34386H11.1542C10.9268 9.34386 10.7422 9.15684 10.7422 8.9261C10.7422 8.69536 10.9266 8.50851 11.1542 8.50851H18.859C19.0861 8.50851 19.2708 8.69519 19.2708 8.9261C19.2708 9.15702 19.0859 9.34386 18.859 9.34386Z" fill="url(#paint2_linear_5254_4814)"/>
<path d="M18.859 9.34386H11.1542C10.9268 9.34386 10.7422 9.15684 10.7422 8.9261C10.7422 8.69536 10.9266 8.50851 11.1542 8.50851H18.859C19.0861 8.50851 19.2708 8.69519 19.2708 8.9261C19.2708 9.15702 19.0859 9.34386 18.859 9.34386Z" fill="#ED0376"/>
<path d="M18.859 11.1566H11.1542C10.9268 11.1566 10.7422 10.9695 10.7422 10.7387C10.7422 10.5082 10.9266 10.3211 11.1542 10.3211H18.859C19.0861 10.3211 19.2708 10.5082 19.2708 10.7387C19.2705 10.9695 19.0859 11.1566 18.859 11.1566Z" fill="url(#paint3_linear_5254_4814)"/>
<path d="M18.859 11.1566H11.1542C10.9268 11.1566 10.7422 10.9695 10.7422 10.7387C10.7422 10.5082 10.9266 10.3211 11.1542 10.3211H18.859C19.0861 10.3211 19.2708 10.5082 19.2708 10.7387C19.2705 10.9695 19.0859 11.1566 18.859 11.1566Z" fill="#ED0376"/>
<path d="M16.3788 2.98776H19.703C20.189 2.98776 20.5846 3.38892 20.5846 3.88168V14.6713C20.5846 15.1644 20.189 15.5652 19.703 15.5652H2.29653C1.81056 15.5652 1.41512 15.1642 1.41512 14.6713V3.88168C1.41512 3.38891 1.81058 2.98776 2.29653 2.98776H8.70932V1.55301H2.29653C1.03021 1.55301 0 2.59781 0 3.88168V14.6713C0 15.9555 1.03038 17 2.29653 17H19.7035C20.9699 17 22 15.9552 22 14.6713V3.88168C22 2.59764 20.9696 1.55301 19.7035 1.55301H12.7758V2.98776H16.3788Z" fill="url(#paint4_linear_5254_4814)"/>
<path d="M16.3788 2.98776H19.703C20.189 2.98776 20.5846 3.38892 20.5846 3.88168V14.6713C20.5846 15.1644 20.189 15.5652 19.703 15.5652H2.29653C1.81056 15.5652 1.41512 15.1642 1.41512 14.6713V3.88168C1.41512 3.38891 1.81058 2.98776 2.29653 2.98776H8.70932V1.55301H2.29653C1.03021 1.55301 0 2.59781 0 3.88168V14.6713C0 15.9555 1.03038 17 2.29653 17H19.7035C20.9699 17 22 15.9552 22 14.6713V3.88168C22 2.59764 20.9696 1.55301 19.7035 1.55301H12.7758V2.98776H16.3788Z" fill="#ED0376"/>
<path d="M9.14697 0H12.3384V3.96701H9.14697V0Z" fill="url(#paint5_linear_5254_4814)"/>
<path d="M9.14697 0H12.3384V3.96701H9.14697V0Z" fill="#ED0376"/>
<defs>
<linearGradient id="paint0_linear_5254_4814" x1="6.36463" y1="5.26233" x2="12.2269" y2="7.93818" gradientUnits="userSpaceOnUse">
<stop stop-color="#7B42A9"/>
<stop offset="1" stop-color="#ED0376"/>
</linearGradient>
<linearGradient id="paint1_linear_5254_4814" x1="15.0065" y1="6.69574" x2="15.3037" y2="8.19936" gradientUnits="userSpaceOnUse">
<stop stop-color="#7B42A9"/>
<stop offset="1" stop-color="#ED0376"/>
</linearGradient>
<linearGradient id="paint2_linear_5254_4814" x1="15.0065" y1="8.50851" x2="15.3037" y2="10.0122" gradientUnits="userSpaceOnUse">
<stop stop-color="#7B42A9"/>
<stop offset="1" stop-color="#ED0376"/>
</linearGradient>
<linearGradient id="paint3_linear_5254_4814" x1="15.0065" y1="10.3211" x2="15.3038" y2="11.825" gradientUnits="userSpaceOnUse">
<stop stop-color="#7B42A9"/>
<stop offset="1" stop-color="#ED0376"/>
</linearGradient>
<linearGradient id="paint4_linear_5254_4814" x1="11" y1="1.55301" x2="24.6111" y2="11.1604" gradientUnits="userSpaceOnUse">
<stop stop-color="#7B42A9"/>
<stop offset="1" stop-color="#ED0376"/>
</linearGradient>
<linearGradient id="paint5_linear_5254_4814" x1="10.7427" y1="-3.18068e-07" x2="13.2951" y2="1.01768" gradientUnits="userSpaceOnUse">
<stop stop-color="#7B42A9"/>
<stop offset="1" stop-color="#ED0376"/>
</linearGradient>
</defs>
</svg>