<svg width="39" height="45" viewBox="0 0 39 45" fill="none" xmlns="http://www.w3.org/2000/svg">
<rect width="39" height="45" rx="4" fill="#2C254A" fill-opacity="0.3"/>
<rect width="39" height="45" rx="4" fill="url(#paint0_radial_8948_110928)" fill-opacity="0.3"/>
<path d="M15.8069 16.6419C16.4978 16.1715 16.9745 15.2405 16.9745 14.4033C16.9745 13.2219 16.0307 12.2623 14.8645 12.2623C13.6995 12.2623 12.7543 13.2219 12.7543 14.4033C12.7543 15.2405 13.2305 16.1715 13.9193 16.6419C12.2695 17.0669 11.0435 18.5249 11.0435 19.6021C11.0435 20.2396 12.9542 20.5585 14.8643 20.5585C15.4379 20.5585 18.6856 20.6384 18.6856 19.6021C18.6857 18.5238 17.4607 17.0666 15.8069 16.6419Z" fill="url(#paint1_linear_8948_110928)"/>
<path d="M15.8069 16.6419C16.4978 16.1715 16.9745 15.2405 16.9745 14.4033C16.9745 13.2219 16.0307 12.2623 14.8645 12.2623C13.6995 12.2623 12.7543 13.2219 12.7543 14.4033C12.7543 15.2405 13.2305 16.1715 13.9193 16.6419C12.2695 17.0669 11.0435 18.5249 11.0435 19.6021C11.0435 20.2396 12.9542 20.5585 14.8643 20.5585C15.4379 20.5585 18.6856 20.6384 18.6856 19.6021C18.6857 18.5238 17.4607 17.0666 15.8069 16.6419Z" fill="#ED0376"/>
<path d="M27.359 14.5311H19.6542C19.4268 14.5311 19.2422 14.3441 19.2422 14.1135C19.2422 13.8829 19.4266 13.6957 19.6542 13.6957H27.359C27.5861 13.6957 27.7708 13.8829 27.7708 14.1135C27.7705 14.3441 27.5859 14.5311 27.359 14.5311Z" fill="url(#paint2_linear_8948_110928)"/>
<path d="M27.359 14.5311H19.6542C19.4268 14.5311 19.2422 14.3441 19.2422 14.1135C19.2422 13.8829 19.4266 13.6957 19.6542 13.6957H27.359C27.5861 13.6957 27.7708 13.8829 27.7708 14.1135C27.7705 14.3441 27.5859 14.5311 27.359 14.5311Z" fill="#ED0376"/>
<path d="M27.359 16.3439H19.6542C19.4268 16.3439 19.2422 16.1569 19.2422 15.9261C19.2422 15.6954 19.4266 15.5085 19.6542 15.5085H27.359C27.5861 15.5085 27.7708 15.6952 27.7708 15.9261C27.7708 16.157 27.5859 16.3439 27.359 16.3439Z" fill="url(#paint3_linear_8948_110928)"/>
<path d="M27.359 16.3439H19.6542C19.4268 16.3439 19.2422 16.1569 19.2422 15.9261C19.2422 15.6954 19.4266 15.5085 19.6542 15.5085H27.359C27.5861 15.5085 27.7708 15.6952 27.7708 15.9261C27.7708 16.157 27.5859 16.3439 27.359 16.3439Z" fill="#ED0376"/>
<path d="M27.359 18.1566H19.6542C19.4268 18.1566 19.2422 17.9695 19.2422 17.7387C19.2422 17.5082 19.4266 17.3211 19.6542 17.3211H27.359C27.5861 17.3211 27.7708 17.5082 27.7708 17.7387C27.7705 17.9695 27.5859 18.1566 27.359 18.1566Z" fill="url(#paint4_linear_8948_110928)"/>
<path d="M27.359 18.1566H19.6542C19.4268 18.1566 19.2422 17.9695 19.2422 17.7387C19.2422 17.5082 19.4266 17.3211 19.6542 17.3211H27.359C27.5861 17.3211 27.7708 17.5082 27.7708 17.7387C27.7705 17.9695 27.5859 18.1566 27.359 18.1566Z" fill="#ED0376"/>
<path d="M24.8788 9.98778H28.203C28.689 9.98778 29.0846 10.3889 29.0846 10.8817V21.6713C29.0846 22.1645 28.689 22.5653 28.203 22.5653H10.7965C10.3106 22.5653 9.91512 22.1643 9.91512 21.6713V10.8817C9.91512 10.3889 10.3106 9.98778 10.7965 9.98778H17.2093V8.55302H10.7965C9.53021 8.55302 8.5 9.59783 8.5 10.8817V21.6713C8.5 22.9555 9.53038 24 10.7965 24H28.2035C29.4699 24 30.5 22.9552 30.5 21.6713V10.8817C30.5 9.59765 29.4696 8.55302 28.2035 8.55302H21.2758V9.98778H24.8788Z" fill="url(#paint5_linear_8948_110928)"/>
<path d="M24.8788 9.98778H28.203C28.689 9.98778 29.0846 10.3889 29.0846 10.8817V21.6713C29.0846 22.1645 28.689 22.5653 28.203 22.5653H10.7965C10.3106 22.5653 9.91512 22.1643 9.91512 21.6713V10.8817C9.91512 10.3889 10.3106 9.98778 10.7965 9.98778H17.2093V8.55302H10.7965C9.53021 8.55302 8.5 9.59783 8.5 10.8817V21.6713C8.5 22.9555 9.53038 24 10.7965 24H28.2035C29.4699 24 30.5 22.9552 30.5 21.6713V10.8817C30.5 9.59765 29.4696 8.55302 28.2035 8.55302H21.2758V9.98778H24.8788Z" fill="#ED0376"/>
<path d="M17.647 7H20.8384V10.967H17.647V7Z" fill="url(#paint6_linear_8948_110928)"/>
<path d="M17.647 7H20.8384V10.967H17.647V7Z" fill="#ED0376"/>
<path d="M13.798 35L11.258 31.89V35H9.85797V28.02H11.258V31.15L13.798 28.02H15.488L12.608 31.48L15.568 35H13.798ZM22.0388 28.02L19.6788 32.57V35H18.2788V32.57L15.9088 28.02H17.4888L18.9888 31.21L20.4788 28.02H22.0388ZM22.5063 31.5C22.5063 30.8133 22.6596 30.2 22.9663 29.66C23.2796 29.1133 23.7029 28.69 24.2363 28.39C24.7763 28.0833 25.3796 27.93 26.0463 27.93C26.8263 27.93 27.5096 28.13 28.0963 28.53C28.6829 28.93 29.0929 29.4833 29.3263 30.19H27.7163C27.5563 29.8567 27.3296 29.6067 27.0363 29.44C26.7496 29.2733 26.4163 29.19 26.0363 29.19C25.6296 29.19 25.2663 29.2867 24.9463 29.48C24.6329 29.6667 24.3863 29.9333 24.2063 30.28C24.0329 30.6267 23.9463 31.0333 23.9463 31.5C23.9463 31.96 24.0329 32.3667 24.2063 32.72C24.3863 33.0667 24.6329 33.3367 24.9463 33.53C25.2663 33.7167 25.6296 33.81 26.0363 33.81C26.4163 33.81 26.7496 33.7267 27.0363 33.56C27.3296 33.3867 27.5563 33.1333 27.7163 32.8H29.3263C29.0929 33.5133 28.6829 34.07 28.0963 34.47C27.5163 34.8633 26.8329 35.06 26.0463 35.06C25.3796 35.06 24.7763 34.91 24.2363 34.61C23.7029 34.3033 23.2796 33.88 22.9663 33.34C22.6596 32.8 22.5063 32.1867 22.5063 31.5Z" fill="url(#paint7_linear_8948_110928)"/>
<path d="M13.798 35L11.258 31.89V35H9.85797V28.02H11.258V31.15L13.798 28.02H15.488L12.608 31.48L15.568 35H13.798ZM22.0388 28.02L19.6788 32.57V35H18.2788V32.57L15.9088 28.02H17.4888L18.9888 31.21L20.4788 28.02H22.0388ZM22.5063 31.5C22.5063 30.8133 22.6596 30.2 22.9663 29.66C23.2796 29.1133 23.7029 28.69 24.2363 28.39C24.7763 28.0833 25.3796 27.93 26.0463 27.93C26.8263 27.93 27.5096 28.13 28.0963 28.53C28.6829 28.93 29.0929 29.4833 29.3263 30.19H27.7163C27.5563 29.8567 27.3296 29.6067 27.0363 29.44C26.7496 29.2733 26.4163 29.19 26.0363 29.19C25.6296 29.19 25.2663 29.2867 24.9463 29.48C24.6329 29.6667 24.3863 29.9333 24.2063 30.28C24.0329 30.6267 23.9463 31.0333 23.9463 31.5C23.9463 31.96 24.0329 32.3667 24.2063 32.72C24.3863 33.0667 24.6329 33.3367 24.9463 33.53C25.2663 33.7167 25.6296 33.81 26.0363 33.81C26.4163 33.81 26.7496 33.7267 27.0363 33.56C27.3296 33.3867 27.5563 33.1333 27.7163 32.8H29.3263C29.0929 33.5133 28.6829 34.07 28.0963 34.47C27.5163 34.8633 26.8329 35.06 26.0463 35.06C25.3796 35.06 24.7763 34.91 24.2363 34.61C23.7029 34.3033 23.2796 33.88 22.9663 33.34C22.6596 32.8 22.5063 32.1867 22.5063 31.5Z" fill="#ED0376"/>
<defs>
<radialGradient id="paint0_radial_8948_110928" cx="0" cy="0" r="1" gradientUnits="userSpaceOnUse" gradientTransform="translate(22.8409 10.0893) rotate(93.9796) scale(42.2447 37.6453)">
<stop stop-color="#CE1484" stop-opacity="0.33"/>
<stop offset="1" stop-color="#1A123A" stop-opacity="0"/>
</radialGradient>
<linearGradient id="paint1_linear_8948_110928" x1="14.8645" y1="12.2623" x2="20.7268" y2="14.9382" gradientUnits="userSpaceOnUse">
<stop stop-color="#7B42A9"/>
<stop offset="1" stop-color="#ED0376"/>
</linearGradient>
<linearGradient id="paint2_linear_8948_110928" x1="23.5065" y1="13.6957" x2="23.8037" y2="15.1994" gradientUnits="userSpaceOnUse">
<stop stop-color="#7B42A9"/>
<stop offset="1" stop-color="#ED0376"/>
</linearGradient>
<linearGradient id="paint3_linear_8948_110928" x1="23.5065" y1="15.5085" x2="23.8037" y2="17.0122" gradientUnits="userSpaceOnUse">
<stop stop-color="#7B42A9"/>
<stop offset="1" stop-color="#ED0376"/>
</linearGradient>
<linearGradient id="paint4_linear_8948_110928" x1="23.5065" y1="17.3211" x2="23.8038" y2="18.825" gradientUnits="userSpaceOnUse">
<stop stop-color="#7B42A9"/>
<stop offset="1" stop-color="#ED0376"/>
</linearGradient>
<linearGradient id="paint5_linear_8948_110928" x1="19.5" y1="8.55302" x2="33.1111" y2="18.1604" gradientUnits="userSpaceOnUse">
<stop stop-color="#7B42A9"/>
<stop offset="1" stop-color="#ED0376"/>
</linearGradient>
<linearGradient id="paint6_linear_8948_110928" x1="19.2427" y1="7" x2="21.7951" y2="8.01768" gradientUnits="userSpaceOnUse">
<stop stop-color="#7B42A9"/>
<stop offset="1" stop-color="#ED0376"/>
</linearGradient>
<linearGradient id="paint7_linear_8948_110928" x1="19.5" y1="24" x2="32.4951" y2="35.5007" gradientUnits="userSpaceOnUse">
<stop stop-color="#7B42A9"/>
<stop offset="1" stop-color="#ED0376"/>
</linearGradient>
</defs>
</svg>
