<svg width="16" height="16" viewBox="0 0 16 16" fill="none" xmlns="http://www.w3.org/2000/svg">
<path d="M10.6668 8.66683C8.8259 8.66683 7.3335 7.92063 7.3335 7.00016C7.3335 6.07969 8.8259 5.3335 10.6668 5.3335C12.5078 5.3335 14.0002 6.07969 14.0002 7.00016C14.0002 7.92063 12.5078 8.66683 10.6668 8.66683Z" stroke="#6666FF" stroke-width="1.5" stroke-linecap="round" stroke-linejoin="round"/>
<path d="M7.3335 9.6665C7.3335 10.587 8.8259 11.3332 10.6668 11.3332C12.5078 11.3332 14.0002 10.587 14.0002 9.6665" stroke="#6666FF" stroke-width="1.5" stroke-linecap="round" stroke-linejoin="round"/>
<path d="M2 6.3335C2 7.25396 3.49239 8.00016 5.33333 8.00016C6.08389 8.00016 6.77647 7.87616 7.33367 7.66683" stroke="#6666FF" stroke-width="1.5" stroke-linecap="round" stroke-linejoin="round"/>
<path d="M2 8.6665C2 9.58697 3.49239 10.3332 5.33333 10.3332C6.08374 10.3332 6.7762 10.2092 7.33333 9.99997" stroke="#6666FF" stroke-width="1.5" stroke-linecap="round" stroke-linejoin="round"/>
<path d="M2 3.6665V10.9998C2 11.9203 3.49239 12.6665 5.33333 12.6665C6.08375 12.6665 6.7762 12.5424 7.33333 12.3332" stroke="#6666FF" stroke-width="1.5" stroke-linecap="round" stroke-linejoin="round"/>
<path d="M8.6665 5.6665V3.6665" stroke="#6666FF" stroke-width="1.5" stroke-linecap="round" stroke-linejoin="round"/>
<path d="M7.3335 7V12.3333C7.3335 13.2538 8.8259 14 10.6668 14C12.5078 14 14.0002 13.2538 14.0002 12.3333V7" stroke="#6666FF" stroke-width="1.5" stroke-linecap="round" stroke-linejoin="round"/>
<path d="M5.33333 5.33333C3.49239 5.33333 2 4.58714 2 3.66667C2 2.74619 3.49239 2 5.33333 2C7.17427 2 8.66667 2.74619 8.66667 3.66667C8.66667 4.58714 7.17427 5.33333 5.33333 5.33333Z" stroke="#6666FF" stroke-width="1.5" stroke-linecap="round" stroke-linejoin="round"/>
</svg>
