<svg width="20" height="20" viewBox="0 0 20 20" fill="none" xmlns="http://www.w3.org/2000/svg">
<path d="M19.4704 10C19.7629 10 20.0015 9.76268 19.986 9.47061C19.8642 7.17165 18.9519 4.97878 17.3949 3.26834C15.7188 1.42704 13.416 0.277288 10.937 0.0439907C8.45794 -0.189307 5.98107 0.510631 3.99082 2.00689C2.00057 3.50315 0.640118 5.6881 0.175576 8.13434C-0.288966 10.5806 0.175821 13.1121 1.47902 15.2338C2.78223 17.3555 4.83009 18.9147 7.22205 19.6064C9.614 20.2981 12.178 20.0726 14.4124 18.9739C16.4881 17.9533 18.1407 16.2475 19.0968 14.1532C19.2182 13.8871 19.0833 13.5789 18.8111 13.4717C18.539 13.3645 18.2329 13.499 18.1098 13.7643C17.2516 15.6134 15.784 17.1192 13.9451 18.0234C11.9473 19.0057 9.65489 19.2074 7.51628 18.5889C5.37767 17.9705 3.5467 16.5765 2.38153 14.6795C1.21636 12.7825 0.800801 10.5191 1.21614 8.33194C1.63148 6.1448 2.84784 4.19127 4.62729 2.85349C6.40674 1.51571 8.62127 0.889905 10.8377 1.09849C13.0542 1.30708 15.113 2.33505 16.6117 3.98133C17.9911 5.49671 18.8045 7.43562 18.9252 9.47067C18.9425 9.76264 19.1779 10 19.4704 10Z" fill="#6666FF"/>
</svg>
