<svg width="128" height="128" viewBox="0 0 128 128" fill="none" xmlns="http://www.w3.org/2000/svg">
<path d="M120.588 90.2105C121.408 90.5904 121.767 91.5646 121.366 92.375C114.616 106.022 103.21 116.834 89.1799 122.839C74.6474 129.058 58.3273 129.679 43.3642 124.582C28.401 119.485 15.8534 109.031 8.139 95.2338C0.424544 81.4366 -1.91096 65.2726 1.58246 49.8561C5.07588 34.4395 14.151 20.8612 27.0595 11.7372C39.9679 2.61326 55.7962 -1.41079 71.4949 0.440366C87.1935 2.29153 101.652 9.88692 112.084 21.7632C122.155 33.229 127.786 47.9016 127.994 63.1255C128.006 64.0294 127.263 64.7538 126.359 64.743C125.455 64.7322 124.733 63.9903 124.719 63.0864C124.503 48.6712 119.162 34.782 109.624 23.9237C99.7257 12.655 86.0071 5.44814 71.1115 3.69168C56.2159 1.93521 41.1972 5.75342 28.9491 14.4107C16.701 23.0679 8.09007 35.9516 4.77535 50.5796C1.46063 65.2075 3.67667 80.5447 10.9965 93.636C18.3163 106.727 30.222 116.647 44.4198 121.483C58.6175 126.319 74.1027 125.73 87.8919 119.829C101.179 114.143 111.985 103.912 118.394 90.9986C118.796 90.1888 119.767 89.8305 120.588 90.2105Z" fill="url(#paint0_linear)"/>
<defs>
<linearGradient id="paint0_linear" x1="64" y1="-1.02628e-05" x2="159.251" y2="47.2067" gradientUnits="userSpaceOnUse">
<stop stop-color="#7B42A9"/>
<stop offset="1" stop-color="#ED0376"/>
</linearGradient>
</defs>
</svg>
