<svg width="11" height="15" viewBox="0 0 11 15" fill="none" xmlns="http://www.w3.org/2000/svg">
<path d="M9.27506 6.91686C9.27506 6.31408 9.27506 5.71131 9.27506 5.10853C9.30334 2.6877 7.69152 0.762695 5.51414 0.762695C3.33676 0.762695 1.72494 2.6877 1.72494 5.10853C1.72494 5.71131 1.72494 6.31408 1.72494 6.91686C1.48329 6.91686 1.24165 6.91686 1 6.91686C0.447717 6.91686 8.2866e-07 7.36379 7.84703e-07 7.91608C6.54534e-07 9.55155 3.16459e-07 12.2947 1.29332e-07 13.7632C5.89574e-08 14.3155 0.447715 14.7627 1 14.7627H10C10.5523 14.7627 11 14.315 11 13.7627V7.91686C11 7.36458 10.5523 6.91686 10 6.91686H9.27506ZM3.81748 5.1377C3.81748 3.9127 4.2982 3.09603 5.51414 3.09603C6.7018 3.09603 7.2108 3.9127 7.2108 5.1377C7.2108 5.73075 7.2108 6.32381 7.2108 6.91686H3.81748C3.81748 6.32381 3.81748 5.73075 3.81748 5.1377Z" fill="#EDCEFF"/>
</svg>
