<svg width="959" height="498" viewBox="0 0 959 498" fill="none" xmlns="http://www.w3.org/2000/svg">
<path d="M13.8333 485.67L2 497H996V2L984.167 6.76892C972.333 11.5378 948.667 21.0757 925 43.0138C901.333 64.9519 877.667 99.2902 854 112.212C830.333 125.134 806.667 116.639 783 135.492C759.333 154.346 735.667 200.548 712 207.527C688.333 214.506 664.667 182.262 641 182.443C617.333 182.625 593.667 215.232 570 253.87C546.333 292.508 522.667 337.177 499 353.404C475.333 369.632 451.667 357.418 428 355.99C404.333 354.562 380.667 363.919 357 379.232C333.333 394.545 309.667 415.813 286 401.9C262.333 387.987 238.667 338.893 215 346.403C191.333 353.914 167.667 418.03 144 441.234C120.333 464.438 96.6667 446.729 73 449.205C49.3333 451.681 25.6667 474.34 13.8333 485.67Z" fill="url(#paint0_linear_1114_47316)" fill-opacity="0.1" stroke="#18A0FB" stroke-width="1.5"/>
<defs>
<linearGradient id="paint0_linear_1114_47316" x1="431" y1="19" x2="674" y2="462" gradientUnits="userSpaceOnUse">
<stop stop-color="#6666FF"/>
<stop offset="1" stop-color="#6666FF" stop-opacity="0"/>
</linearGradient>
</defs>
</svg>
