<svg width="1103" height="620" viewBox="0 0 1103 620" fill="none" xmlns="http://www.w3.org/2000/svg">
<path d="M17.2619 625.397L2 640H1284V2L1268.74 8.14661C1253.48 14.2932 1222.95 26.5864 1192.43 54.8622C1161.9 83.138 1131.38 127.396 1100.86 144.051C1070.33 160.706 1039.81 149.756 1009.29 174.057C978.762 198.357 948.238 257.906 917.714 266.901C887.19 275.897 856.667 234.337 826.143 234.572C795.619 234.806 765.095 276.833 734.571 326.633C704.048 376.433 673.524 434.006 643 454.921C612.476 475.837 581.952 460.095 551.429 458.254C520.905 456.413 490.381 468.474 459.857 488.21C429.333 507.947 398.81 535.359 368.286 517.427C337.762 499.495 307.238 436.217 276.714 445.898C246.19 455.578 215.667 538.217 185.143 568.124C154.619 598.031 124.095 575.207 93.5714 578.398C63.0476 581.588 32.5238 610.794 17.2619 625.397Z" fill="url(#paint0_linear_10331_12574)" fill-opacity="0.1" stroke="#18A0FB" stroke-width="1.5"/>
<defs>
<linearGradient id="paint0_linear_10331_12574" x1="555.298" y1="23.9111" x2="868.387" y2="595.063" gradientUnits="userSpaceOnUse">
<stop stop-color="#6666FF"/>
<stop offset="1" stop-color="#6666FF" stop-opacity="0"/>
</linearGradient>
</defs>
</svg>
