<svg width="476" height="235" viewBox="0 0 476 235" fill="none" xmlns="http://www.w3.org/2000/svg">
<path d="M246.5 113.758C274.01 112.263 299.682 103.887 321.813 90.3286C323.456 89.3217 323.684 87.0418 322.304 85.6966L297.8 61.8137C296.856 60.8942 295.425 60.7011 294.258 61.3118C277.322 70.1719 258.042 75.1847 237.587 75.1847C216.944 75.1847 197.499 70.0798 180.452 61.0681C179.275 60.4457 177.826 60.6438 176.88 61.5811L152.649 85.5886C151.288 86.9368 151.521 89.1988 153.153 90.2019C175.553 103.971 201.592 112.426 229.5 113.801" stroke="#6666FF" stroke-width="1.5"/>
<path d="M169.53 78C189.715 89.1511 212.937 95.4914 237.586 95.4914C262.008 95.4914 285.03 89.2678 305.085 78.3069" stroke="#6666FF" stroke-width="1.5" stroke-linejoin="round" stroke-dasharray="23 23"/>
<path d="M295 61C295 27.8629 269.256 1 237.5 1C205.744 1 180 27.8629 180 61" stroke="#6666FF" stroke-width="1.5"/>
<path d="M202 110L211.595 128.812C211.679 128.977 211.822 129.105 211.995 129.172V129.172C228.41 135.497 246.59 135.497 263.005 129.172V129.172C263.178 129.105 263.321 128.977 263.405 128.812L273 110" stroke="#6666FF" stroke-width="1.5" stroke-linecap="round"/>
<circle cx="238" cy="114" r="8.25" stroke="#6666FF" stroke-width="1.5"/>
<path d="M324.517 24.818C324.581 24.7048 324.746 24.593 325 24.593C325.254 24.593 325.419 24.7048 325.483 24.818C327.064 27.6185 329.382 29.9359 332.182 31.5173C332.295 31.5812 332.407 31.7464 332.407 32C332.407 32.2536 332.295 32.4188 332.182 32.4827C329.382 34.0641 327.064 36.3815 325.483 39.182C325.419 39.2952 325.254 39.407 325 39.407C324.746 39.407 324.581 39.2952 324.517 39.182C322.936 36.3815 320.618 34.0641 317.818 32.4827C317.705 32.4188 317.593 32.2536 317.593 32C317.593 31.7464 317.705 31.5812 317.818 31.5173C320.618 29.9359 322.936 27.6185 324.517 24.818L323.864 24.4492L324.517 24.818Z" stroke="#6666FF" stroke-width="1.5"/>
<path d="M157.559 137.816C157.618 137.705 157.769 137.6 158 137.6C158.231 137.6 158.382 137.705 158.441 137.816C160.414 141.539 163.461 144.586 167.184 146.559C167.295 146.618 167.4 146.769 167.4 147C167.4 147.231 167.295 147.382 167.184 147.441C163.461 149.414 160.414 152.461 158.441 156.184C158.382 156.295 158.231 156.4 158 156.4C157.769 156.4 157.618 156.295 157.559 156.184C155.586 152.461 152.539 149.414 148.816 147.441C148.705 147.382 148.6 147.231 148.6 147C148.6 146.769 148.705 146.618 148.816 146.559C152.539 144.586 155.586 141.539 157.559 137.816Z" stroke="#6666FF" stroke-width="1.5"/>
<path d="M326 233L281.75 164.333L259.625 130M149 233L193.25 164.333L215.375 130" stroke="#6666FF" stroke-width="1.5"/>
<circle cx="220" cy="197" r="2.25" stroke="#6666FF" stroke-width="1.5"/>
<circle cx="249" cy="167" r="2.25" stroke="#6666FF" stroke-width="1.5"/>
<circle cx="259" cy="201" r="3.25" stroke="#6666FF" stroke-width="1.5"/>
<circle cx="258.668" cy="21.3367" r="3.58673" stroke="#6666FF" stroke-width="1.5"/>
<circle cx="217.852" cy="22.8673" r="3.58673" stroke="#6666FF" stroke-width="1.5"/>
<path d="M259.704 51.1421C259.704 56.579 257.305 60.3063 253.41 62.7125C249.468 65.1476 243.95 66.25 237.75 66.25C231.549 66.25 226.032 65.1476 222.09 62.7125C218.195 60.3063 215.796 56.579 215.796 51.1421C215.796 45.6396 218.256 39.4373 222.272 34.6078C226.288 29.7796 231.77 26.4235 237.75 26.4235C243.73 26.4235 249.212 29.7796 253.228 34.6078C257.244 39.4373 259.704 45.6396 259.704 51.1421Z" stroke="#6666FF" stroke-width="1.5"/>
<circle cx="238.26" cy="44.2959" r="10.2194" stroke="#6666FF" stroke-width="1.5"/>
<path d="M247.702 56.0822C242.404 61.3809 233.813 61.3809 228.514 56.0822" stroke="#6666FF" stroke-width="1.5"/>
<path d="M241.279 44.9661C240.985 46.6549 239.599 47.8826 238.005 47.8826C236.207 47.8826 234.673 46.3202 234.673 44.2958C234.673 42.2999 236.164 40.7531 237.929 40.71C237.932 40.7168 237.935 40.7245 237.937 40.7329C237.986 40.8907 237.99 41.1459 237.932 41.3735C237.871 41.615 237.838 41.8679 237.838 42.1275C237.838 43.6958 239.045 45.0458 240.629 45.0458C240.853 45.0458 241.07 45.0182 241.279 44.9661Z" stroke="#6666FF" stroke-width="1.5"/>
<path d="M255.097 22.6124V22.6124C251.434 22.6124 248.464 25.5819 248.464 29.245V29.245" stroke="#6666FF" stroke-width="1.5"/>
<path d="M221.679 22.6124V22.6124C225.342 22.6124 228.311 25.5819 228.311 29.245V29.245" stroke="#6666FF" stroke-width="1.5"/>
<path d="M253 63.3535C256.488 65.7728 259.069 69.0483 260.263 72.7858M223.5 63.7108C220.051 66.2491 217.56 69.6495 216.527 73.5" stroke="#6666FF" stroke-width="1.5"/>
<g opacity="0.3">
<path d="M43 234C64.2082 172.818 112.2 124.795 172.387 105M425 234C404.127 173.784 357.309 126.316 298.456 105.959" stroke="#6666FF" stroke-width="1.5"/>
<path d="M0 233H476" stroke="#6666FF" stroke-width="1.5"/>
</g>
</svg>
