<svg width="20" height="18" viewBox="0 0 20 18" fill="none" xmlns="http://www.w3.org/2000/svg">
<path fill-rule="evenodd" clip-rule="evenodd" d="M5.73114 16.5L8.33143 17.1965V16.2858L8.54369 16.0715H10.0295V17.1429V17.8929H8.43756L6.47407 17.0358L5.73114 16.5Z" fill="#CDBDB2"/>
<path fill-rule="evenodd" clip-rule="evenodd" d="M14.2217 16.5L11.6745 17.1965V16.2858L11.4623 16.0715H9.97641V17.1429V17.8929H11.5684L13.5318 17.0358L14.2217 16.5Z" fill="#CDBDB2"/>
<path fill-rule="evenodd" clip-rule="evenodd" d="M8.54368 14.5179L8.33142 16.2857L8.5967 16.0714H11.3561L11.6745 16.2857L11.4623 14.5179L11.0377 14.25L8.9151 14.3036L8.54368 14.5179Z" fill="#393939"/>
<path fill-rule="evenodd" clip-rule="evenodd" d="M7.11086 2.57147L8.38444 5.57147L8.96821 14.3037H11.0377L11.6745 5.57147L12.842 2.57147H7.11086Z" fill="#F89C35"/>
<path fill-rule="evenodd" clip-rule="evenodd" d="M1.53896 9.16079L0.0531158 13.5L3.76774 13.2857H6.15566V11.4108L6.04953 7.55365L5.51887 7.98222L1.53896 9.16079Z" fill="#F89D35"/>
<path fill-rule="evenodd" clip-rule="evenodd" d="M4.35143 9.64288L8.70284 9.75003L8.22529 12L6.15567 11.4643L4.35143 9.64288Z" fill="#D87C30"/>
<path fill-rule="evenodd" clip-rule="evenodd" d="M4.35143 9.69647L6.15567 11.4108V13.125L4.35143 9.69647Z" fill="#EA8D3A"/>
<path fill-rule="evenodd" clip-rule="evenodd" d="M6.15565 11.4643L8.2783 12L8.9682 14.3036L8.49056 14.5714L6.15565 13.1786V11.4643Z" fill="#F89D35"/>
<path fill-rule="evenodd" clip-rule="evenodd" d="M6.15567 13.1786L5.73114 16.5L8.54369 14.5179L6.15567 13.1786Z" fill="#EB8F35"/>
<path fill-rule="evenodd" clip-rule="evenodd" d="M8.70284 9.75L8.96821 14.3036L8.17218 11.9732L8.70284 9.75Z" fill="#EA8E3A"/>
<path fill-rule="evenodd" clip-rule="evenodd" d="M3.71463 13.2322L6.15567 13.1786L5.73114 16.5L3.71463 13.2322Z" fill="#D87C30"/>
<path fill-rule="evenodd" clip-rule="evenodd" d="M1.22057 17.9465L5.73114 16.5L3.71463 13.2322L0.0531158 13.5L1.22057 17.9465Z" fill="#EB8F35"/>
<path fill-rule="evenodd" clip-rule="evenodd" d="M8.38444 5.57147L6.10265 7.50004L4.35143 9.6429L8.70284 9.80366L8.38444 5.57147Z" fill="#E8821E"/>
<path fill-rule="evenodd" clip-rule="evenodd" d="M5.73114 16.5L8.54369 14.5179L8.33142 16.2322V17.1965L6.42105 16.8215L5.73114 16.5Z" fill="#DFCEC3"/>
<path fill-rule="evenodd" clip-rule="evenodd" d="M14.2217 16.5L11.4623 14.5179L11.6745 16.2322V17.1965L13.5849 16.8215L14.2217 16.5Z" fill="#DFCEC3"/>
<path fill-rule="evenodd" clip-rule="evenodd" d="M7.53538 10.7143L8.11916 11.9465L6.04953 11.4108L7.53538 10.7143Z" fill="#393939"/>
<path fill-rule="evenodd" clip-rule="evenodd" d="M1.16745 0.0536499L8.38443 5.57146L7.16396 2.57146L1.16745 0.0536499Z" fill="#E88F35"/>
<path fill-rule="evenodd" clip-rule="evenodd" d="M1.16745 0.0535889L0.212265 3.00002L0.742925 6.2143L0.371463 6.42859L0.902124 6.91073L0.477595 7.28573L1.06132 7.82145L0.689859 8.14287L1.53892 9.2143L5.51887 7.98216C7.46462 6.41073 8.41981 5.60716 8.38443 5.57145C8.34906 5.53573 5.9434 3.69645 1.16745 0.0535889Z" fill="#8E5A30"/>
<path fill-rule="evenodd" clip-rule="evenodd" d="M18.4139 9.16079L19.8997 13.5L16.1851 13.2857H13.7972V11.4108L13.9033 7.55365L14.434 7.98222L18.4139 9.16079Z" fill="#F89D35"/>
<path fill-rule="evenodd" clip-rule="evenodd" d="M15.6014 9.64288L11.25 9.75003L11.7276 12L13.7972 11.4643L15.6014 9.64288Z" fill="#D87C30"/>
<path fill-rule="evenodd" clip-rule="evenodd" d="M15.6014 9.69647L13.7972 11.4108V13.125L15.6014 9.69647Z" fill="#EA8D3A"/>
<path fill-rule="evenodd" clip-rule="evenodd" d="M13.7972 11.4643L11.6745 12L10.9846 14.3036L11.4623 14.5714L13.7972 13.1786V11.4643Z" fill="#F89D35"/>
<path fill-rule="evenodd" clip-rule="evenodd" d="M13.7972 13.1786L14.2217 16.5L11.4623 14.5714L13.7972 13.1786Z" fill="#EB8F35"/>
<path fill-rule="evenodd" clip-rule="evenodd" d="M11.25 9.75L10.9846 14.3036L11.7807 11.9732L11.25 9.75Z" fill="#EA8E3A"/>
<path fill-rule="evenodd" clip-rule="evenodd" d="M16.2382 13.2322L13.7972 13.1786L14.2217 16.5L16.2382 13.2322Z" fill="#D87C30"/>
<path fill-rule="evenodd" clip-rule="evenodd" d="M18.7323 17.9465L14.2217 16.5L16.2382 13.2322L19.8997 13.5L18.7323 17.9465Z" fill="#EB8F35"/>
<path fill-rule="evenodd" clip-rule="evenodd" d="M11.5684 5.57147L13.8502 7.50004L15.6014 9.6429L11.25 9.80366L11.5684 5.57147Z" fill="#E8821E"/>
<path fill-rule="evenodd" clip-rule="evenodd" d="M12.4175 10.7143L11.8337 11.9465L13.9033 11.4108L12.4175 10.7143Z" fill="#393939"/>
<path fill-rule="evenodd" clip-rule="evenodd" d="M18.7854 0.0536499L11.5684 5.57146L12.7889 2.57146L18.7854 0.0536499Z" fill="#E88F35"/>
<path fill-rule="evenodd" clip-rule="evenodd" d="M18.7854 0.0535889L19.7406 3.00002L19.2099 6.2143L19.5814 6.42859L19.0507 6.91073L19.4753 7.28573L18.8915 7.82145L19.263 8.14287L18.4139 9.2143L14.434 7.98216C12.4882 6.41073 11.533 5.60716 11.5684 5.57145C11.6038 5.53573 14.0095 3.69645 18.7854 0.0535889Z" fill="#8E5A30"/>
</svg>
