<svg width="16" height="16" viewBox="0 0 16 16" fill="none" xmlns="http://www.w3.org/2000/svg">
<path d="M10 2.66732V1.33398M10 2.66732V4.00065M10 2.66732H7M2 6.66732V12.6673C2 13.0209 2.14048 13.3601 2.39052 13.6101C2.64057 13.8602 2.97971 14.0007 3.33333 14.0007H12.6667C13.0203 14.0007 13.3594 13.8602 13.6095 13.6101C13.8595 13.3601 14 13.0209 14 12.6673V6.66732M2 6.66732H14M2 6.66732V4.00065C2 3.64703 2.14048 3.30789 2.39052 3.05784C2.64057 2.80779 2.97971 2.66732 3.33333 2.66732H4.66667M14 6.66732V4.00065C14 3.64703 13.8595 3.30789 13.6095 3.05784C13.3594 2.80779 13.0203 2.66732 12.6667 2.66732H12.3333M4.66667 1.33398V4.00065" stroke="#B8B8CC" stroke-width="1.5" stroke-linecap="round" stroke-linejoin="round"/>
</svg>
