<svg width="159" height="109" viewBox="0 0 159 109" fill="none" xmlns="http://www.w3.org/2000/svg">
<g opacity="0.3">
<path d="M101 73.0653C100.619 73.0653 100.244 73.0887 99.875 73.1343M99.125 108H156.5C157.328 108 158 107.334 158 106.513V103.54C158 102.719 157.328 102.054 156.5 102.054H115.5H127.25V89.4177C127.25 76.7444 118.106 66.1876 106 63.8738M122.75 74.5519H150.5C152.571 74.5519 154.25 76.2158 154.25 78.2683V101.682M142.507 56.5604L134.879 49C130.665 53.1755 130.665 59.9454 134.879 64.1209C135.53 64.7661 136.243 65.3116 137 65.7574M142.507 56.5604L150.136 64.1209C147.773 66.4628 144.586 67.4913 141.5 67.2061M142.507 56.5604L145.975 53.1239M137 65.7574L135.5 74.5518H143.375L141.5 67.2061M137 65.7574C138.394 66.5785 139.934 67.0614 141.5 67.2061M136.25 92.3909H145.25C146.078 92.3909 146.75 91.7253 146.75 90.9043V84.2146C146.75 83.3936 146.078 82.7281 145.25 82.7281H136.25C135.422 82.7281 134.75 83.3936 134.75 84.2146V90.9043C134.75 91.7253 135.422 92.3909 136.25 92.3909Z" stroke="#6666FF" stroke-width="1.5"/>
<path d="M31.75 102.054H37H2.5C1.67157 102.054 1 102.719 1 103.54V106.513C1 107.334 1.67157 108 2.5 108H59.875M64 83.5518H8.5C6.42893 83.5518 4.75 85.2157 4.75 87.2682V101.682M23.5 83.5518H15.625M22.75 97.3908H13.75C12.9216 97.3908 12.25 96.7252 12.25 95.9042V93.2146C12.25 92.3936 12.9216 91.728 13.75 91.728H22.75C23.5784 91.728 24.25 92.3936 24.25 93.2146V95.9042C24.25 96.7252 23.5784 97.3908 22.75 97.3908Z" stroke="#6666FF" stroke-width="1.5"/>
</g>
<path d="M76.5 108H66M66 108H46.25C40.5891 108 36 103.911 36 98.25V96.5C36 91.8056 39.8056 88 44.5 88H45.5C49.6421 88 53 91.3579 53 95.5V98.5C53 95.1863 55.6863 92.5 59 92.5H59.5C63.0899 92.5 66 95.4101 66 99V108ZM76 108H86.5M86.5 108H106.25C111.911 108 116.5 103.911 116.5 98.25V96.5C116.5 91.8056 112.694 88 108 88H107C102.858 88 99.5 91.3579 99.5 95.5V98.5C99.5 95.1863 96.8137 92.5 93.5 92.5H93C89.4101 92.5 86.5 95.4101 86.5 99V108Z" stroke="#6666FF" stroke-width="1.5"/>
<path d="M60.7159 64.5V71.5C60.7159 72.6046 61.6134 73.5 62.7205 73.5H67.7321M60.7159 64.5H75.7506M60.7159 64.5V60.5M67.7321 73.5H75.7506M67.7321 73.5L63.7047 84.6613C63.4696 85.3129 63.9536 86 64.6478 86H75.7506M60.7159 47V28.8011C60.7159 20.9394 63.9151 13.4145 69.5807 7.95046L75.2494 2L81.4193 7.95046C87.0849 13.4145 90.2841 20.9394 90.2841 28.8011V47M60.7159 47L47.2639 53.9022C44.8505 55.1405 43.5674 57.8381 44.1321 60.4865L47.4813 76.1912C47.6891 77.1656 49.0413 77.2707 49.3979 76.3402L54.5326 62.9419C54.6398 62.6622 54.8671 62.4451 55.1519 62.3504L60.7159 60.5M60.7159 47V60.5M90.2841 64.5V71.5C90.2841 72.6046 89.3866 73.5 88.2795 73.5H83.2679M90.2841 64.5H75.2494M90.2841 64.5V60.5M83.2679 73.5H75.2494M83.2679 73.5L87.2953 84.6613C87.5304 85.3129 87.0464 86 86.3522 86H75.2494M90.2841 47L103.736 53.9022C106.15 55.1405 107.433 57.8381 106.868 60.4865L103.519 76.1912C103.311 77.1656 101.959 77.2707 101.602 76.3402L96.4674 62.9419C96.3602 62.6622 96.1329 62.4451 95.8481 62.3504L90.2841 60.5M90.2841 47V60.5" stroke="#6666FF" stroke-width="1.5"/>
<circle cx="75.5" cy="32.5" r="8.5" stroke="#6666FF" stroke-width="1.5"/>
<path d="M73.5 90V100" stroke="#6666FF" stroke-width="1.5"/>
<path d="M79 90V100" stroke="#6666FF" stroke-width="1.5"/>
</svg>
