<svg width="12" height="11" viewBox="0 0 12 11" fill="none" xmlns="http://www.w3.org/2000/svg">
<path d="M10.625 10.5H4.5C4.40054 10.5 4.30516 10.4605 4.23483 10.3902C4.16451 10.3198 4.125 10.2245 4.125 10.125V4C4.125 3.90054 4.16451 3.80516 4.23483 3.73483C4.30516 3.66451 4.40054 3.625 4.5 3.625H10.625C10.7245 3.625 10.8198 3.66451 10.8902 3.73483C10.9605 3.80516 11 3.90054 11 4V10.125C11 10.2245 10.9605 10.3198 10.8902 10.3902C10.8198 10.4605 10.7245 10.5 10.625 10.5Z" stroke="#B8B8CC" stroke-linecap="round" stroke-linejoin="round"/>
<path d="M7.875 3.625V0.875C7.875 0.775544 7.83549 0.680161 7.76517 0.609835C7.69484 0.539509 7.59946 0.5 7.5 0.5H1.375C1.27554 0.5 1.18016 0.539509 1.10983 0.609835C1.03951 0.680161 1 0.775544 1 0.875V7C1 7.09946 1.03951 7.19484 1.10983 7.26517C1.18016 7.33549 1.27554 7.375 1.375 7.375H4.125" stroke="#B8B8CC" stroke-linecap="round" stroke-linejoin="round"/>
</svg>
