<svg width="14" height="16" viewBox="0 0 14 16" fill="none" xmlns="http://www.w3.org/2000/svg">
<path d="M9 3.00008V1.66675M9 3.00008V4.33341M9 3.00008H6M1 7.00008V13.0001C1 13.3537 1.14048 13.6928 1.39052 13.9429C1.64057 14.1929 1.97971 14.3334 2.33333 14.3334H11.6667C12.0203 14.3334 12.3594 14.1929 12.6095 13.9429C12.8595 13.6928 13 13.3537 13 13.0001V7.00008M1 7.00008H13M1 7.00008V4.33341C1 3.97979 1.14048 3.64065 1.39052 3.39061C1.64057 3.14056 1.97971 3.00008 2.33333 3.00008H3.66667M13 7.00008V4.33341C13 3.97979 12.8595 3.64065 12.6095 3.39061C12.3594 3.14056 12.0203 3.00008 11.6667 3.00008H11.3333M3.66667 1.66675V4.33341" stroke="#B8B8CC" stroke-width="1.5" stroke-linecap="round" stroke-linejoin="round"/>
</svg>
