<svg width="16" height="16" viewBox="0 0 16 16" fill="none" xmlns="http://www.w3.org/2000/svg">
<path d="M13.3333 5.99998L12.0033 13.564C11.9491 13.8729 11.7877 14.1528 11.5475 14.3545C11.3072 14.5561 11.0036 14.6667 10.69 14.6666H5.31C4.99636 14.6667 4.69275 14.5561 4.45255 14.3545C4.21235 14.1528 4.05093 13.8729 3.99667 13.564L2.66667 5.99998M14 3.99998H10.25M10.25 3.99998V2.66665C10.25 2.31302 10.1095 1.97389 9.85948 1.72384C9.60943 1.47379 9.27029 1.33331 8.91667 1.33331H7.08333C6.72971 1.33331 6.39057 1.47379 6.14052 1.72384C5.89048 1.97389 5.75 2.31302 5.75 2.66665V3.99998M10.25 3.99998H5.75M2 3.99998H5.75" stroke="#FF9999" stroke-width="1.5" stroke-linecap="round" stroke-linejoin="round"/>
</svg>
