<svg width="16" height="16" viewBox="0 0 16 16" fill="none" xmlns="http://www.w3.org/2000/svg">
<path d="M10 2.66683V1.3335M10 2.66683V4.00016M10 2.66683H7M2 6.66683V12.6668C2 13.0205 2.14048 13.3596 2.39052 13.6096C2.64057 13.8597 2.97971 14.0002 3.33333 14.0002H12.6667C13.0203 14.0002 13.3594 13.8597 13.6095 13.6096C13.8595 13.3596 14 13.0205 14 12.6668V6.66683M2 6.66683H14M2 6.66683V4.00016C2 3.64654 2.14048 3.3074 2.39052 3.05735C2.64057 2.80731 2.97971 2.66683 3.33333 2.66683H4.66667M14 6.66683V4.00016C14 3.64654 13.8595 3.3074 13.6095 3.05735C13.3594 2.80731 13.0203 2.66683 12.6667 2.66683H12.3333M4.66667 1.3335V4.00016" stroke="#B8B8CC" stroke-width="1.5" stroke-linecap="round" stroke-linejoin="round"/>
</svg>
