<svg width="20" height="20" viewBox="0 0 20 20" fill="none" xmlns="http://www.w3.org/2000/svg">
<circle cx="10" cy="10" r="10" fill="#CECEDB"/>
<g clip-path="url(#clip0_206_11796)">
<path d="M7.33203 13.1333V6.86666C7.33203 6.81361 7.3531 6.76274 7.39061 6.72524C7.42812 6.68773 7.47899 6.66666 7.53203 6.66666H11.416C11.4691 6.6667 11.5199 6.68781 11.5574 6.72532L12.6067 7.77466C12.6254 7.79329 12.6401 7.81543 12.6502 7.8398C12.6603 7.86417 12.6654 7.89029 12.6654 7.91666V13.1333C12.6654 13.1596 12.6602 13.1856 12.6501 13.2099C12.6401 13.2341 12.6254 13.2562 12.6068 13.2747C12.5882 13.2933 12.5662 13.308 12.5419 13.3181C12.5176 13.3281 12.4916 13.3333 12.4654 13.3333H7.53203C7.50577 13.3333 7.47976 13.3281 7.45549 13.3181C7.43123 13.308 7.40918 13.2933 7.39061 13.2747C7.37204 13.2562 7.35731 13.2341 7.34726 13.2099C7.3372 13.1856 7.33203 13.1596 7.33203 13.1333Z" stroke="white" stroke-width="1.5" stroke-linecap="round" stroke-linejoin="round"/>
<path d="M10.4453 6.88889V8.4C10.4453 8.47072 10.4734 8.53855 10.5234 8.58856C10.5734 8.63857 10.6413 8.66666 10.712 8.66666H12.2231" stroke="white" stroke-width="1.5" stroke-linecap="round" stroke-linejoin="round"/>
</g>
<defs>
<clipPath id="clip0_206_11796">
<rect width="8" height="8" fill="white" transform="translate(6 6)"/>
</clipPath>
</defs>
</svg>
