<svg width="50" height="50" viewBox="0 0 50 50" fill="none" xmlns="http://www.w3.org/2000/svg">
<rect x="0.5" y="0.5" width="49" height="49" rx="7.5" fill="white"/>
<path d="M30.3333 23L29.0033 30.564C28.9491 30.8729 28.7877 31.1528 28.5475 31.3545C28.3072 31.5562 28.0036 31.6667 27.69 31.6667H22.31C21.9964 31.6667 21.6928 31.5562 21.4525 31.3545C21.2123 31.1528 21.0509 30.8729 20.9967 30.564L19.6667 23M31 21H27.25M27.25 21V19.6667C27.25 19.313 27.1095 18.9739 26.8595 18.7239C26.6094 18.4738 26.2703 18.3333 25.9167 18.3333H24.0833C23.7297 18.3333 23.3906 18.4738 23.1405 18.7239C22.8905 18.9739 22.75 19.313 22.75 19.6667V21M27.25 21H22.75M19 21H22.75" stroke="#B8B8CC" stroke-width="1.5" stroke-linecap="round" stroke-linejoin="round"/>
<rect x="0.5" y="0.5" width="49" height="49" rx="7.5" stroke="#E6E6FF"/>
</svg>
