<svg width="47" height="47" viewBox="0 0 47 47" fill="none" xmlns="http://www.w3.org/2000/svg">
<rect x="0.5" y="0.5" width="46" height="46" rx="5.5" fill="white"/>
<path d="M25.8628 17.152L27.3428 15.672C27.5285 15.4862 27.7491 15.3388 27.9918 15.2383C28.2345 15.1377 28.4946 15.0859 28.7573 15.0859C29.02 15.0859 29.2802 15.1377 29.5229 15.2383C29.7656 15.3388 29.9861 15.4862 30.1718 15.672L31.5858 17.086C31.9608 17.4611 32.1714 17.9697 32.1714 18.5C32.1714 19.0303 31.9608 19.539 31.5858 19.914L30.1058 21.394M25.8628 17.152L16.2468 26.767C15.9148 27.099 15.7102 27.5373 15.6688 28.005L15.4268 30.745C15.4138 30.8907 15.4329 31.0374 15.4828 31.1749C15.5327 31.3123 15.6121 31.4372 15.7154 31.5407C15.8188 31.6441 15.9436 31.7236 16.081 31.7736C16.2184 31.8236 16.3651 31.8429 16.5108 31.83L19.2508 31.588C19.7192 31.5471 20.1583 31.3425 20.4908 31.01L30.1058 21.394M25.8628 17.152L30.1058 21.394" stroke="#6666FF" stroke-width="1.5" stroke-linecap="round" stroke-linejoin="round"/>
<rect x="0.5" y="0.5" width="46" height="46" rx="5.5" stroke="#E6E6FF"/>
</svg>
