<svg width="80" height="80" viewBox="0 0 80 80" fill="none" xmlns="http://www.w3.org/2000/svg">
<circle cx="40" cy="40" r="39.5" fill="white" stroke="#E6E6FF"/>
<path d="M40 43C40.7956 43 41.5587 42.6839 42.1213 42.1213C42.6839 41.5587 43 40.7956 43 40C43 39.2044 42.6839 38.4413 42.1213 37.8787C41.5587 37.3161 40.7956 37 40 37C39.2044 37 38.4413 37.3161 37.8787 37.8787C37.3161 38.4413 37 39.2044 37 40C37 40.7956 37.3161 41.5587 37.8787 42.1213C38.4413 42.6839 39.2044 43 40 43Z" stroke="#6666FF" stroke-width="1.5" stroke-linecap="round" stroke-linejoin="round"/>
<path d="M55 40C51.8517 44.985 46.1967 50 40 50C33.8033 50 28.1483 44.985 25 40C28.8317 35.2633 33.32 30 40 30C46.68 30 51.1683 35.2633 55 40Z" stroke="#6666FF" stroke-width="1.5" stroke-linecap="round" stroke-linejoin="round"/>
</svg>
