<svg width="155" height="98" viewBox="0 0 155 98" fill="none" xmlns="http://www.w3.org/2000/svg">
<circle cx="76.9736" cy="15.7412" r="14.9912" stroke="#6666FF" stroke-width="1.5"/>
<circle cx="76.9736" cy="15.7411" r="9.03509" stroke="#6666FF" stroke-width="1.5"/>
<path d="M61.6577 18.2939V18.2939C59.3081 18.2939 57.4033 20.1987 57.4033 22.5483V31.908" stroke="#6666FF" stroke-width="1.5"/>
<path d="M76.5482 31.0571H62C57.5817 31.0571 54 34.6389 54 39.0571V52.3291H63.7851V42.1185V55.7326M63.7851 89.7677V55.7326M63.7851 55.7326H76.5482V44.6712" stroke="#6666FF" stroke-width="1.5"/>
<path d="M63.7852 64.2412H76.5483V96.1491" stroke="#6666FF" stroke-width="1.5"/>
<path d="M61.1313 96.1492C61.1313 91.8641 64.6051 88.3904 68.8901 88.3904C73.1752 88.3904 76.6489 91.8641 76.6489 96.1492V96.25H61.1313V96.1492Z" stroke="#6666FF" stroke-width="1.5"/>
<path d="M63.7852 82.1096L76.5483 73.6008" stroke="#6666FF" stroke-width="1.5"/>
<path d="M56.127 52.7544H63.7848V62.114H62.127C58.8132 62.114 56.127 59.4278 56.127 56.114V52.7544Z" stroke="#6666FF" stroke-width="1.5"/>
<path d="M91.4385 18.2939V18.2939C93.7881 18.2939 95.6929 20.1987 95.6929 22.5483V31.908" stroke="#6666FF" stroke-width="1.5"/>
<path d="M76.5484 31.0571H91.0967C95.515 31.0571 99.0967 34.6389 99.0967 39.0571V52.3291H89.3116V42.1185V55.7326M89.3116 89.7677V55.7326M89.3116 55.7326H76.5484V44.6712" stroke="#6666FF" stroke-width="1.5"/>
<path d="M89.3115 64.2412H76.5484V96.1491" stroke="#6666FF" stroke-width="1.5"/>
<path d="M91.9648 96.1492C91.9648 91.8641 88.4911 88.3904 84.2061 88.3904C79.921 88.3904 76.4473 91.8641 76.4473 96.1492V96.25H91.9648V96.1492Z" stroke="#6666FF" stroke-width="1.5"/>
<path d="M89.3115 82.1096L76.5484 73.6008" stroke="#6666FF" stroke-width="1.5"/>
<path d="M96.9692 52.7544H89.3113V62.114H90.9692C94.2829 62.114 96.9692 59.4278 96.9692 56.114V52.7544Z" stroke="#6666FF" stroke-width="1.5"/>
<g opacity="0.3">
<path d="M14 97.0001C20.8843 77.1699 36.463 61.6052 56 55.1892M138 97.0001C131.224 77.4832 116.027 62.098 96.9229 55.5001" stroke="#6666FF" stroke-width="1.5"/>
<path d="M0 96.5H154.5" stroke="#6666FF" stroke-width="1.5"/>
</g>
<g opacity="0.3">
<path d="M118.164 37.7857V40.7857C118.164 41.2591 118.549 41.6429 119.023 41.6429H121.171M118.164 37.7857H124.607M118.164 37.7857V36.0714M121.171 41.6429H124.607M121.171 41.6429L119.445 46.4263C119.344 46.7055 119.552 47 119.849 47H124.607M118.164 30.2857V22.4862C118.164 19.1169 119.535 15.8919 121.963 13.5502L124.393 11L127.037 13.5502C129.465 15.8919 130.836 19.1169 130.836 22.4862V30.2857M118.164 30.2857L112.399 33.2438C111.364 33.7745 110.815 34.9306 111.057 36.0657L112.492 42.7962C112.581 43.2138 113.161 43.2589 113.313 42.8601L115.514 37.118C115.56 36.9981 115.657 36.905 115.779 36.8645L118.164 36.0714M118.164 30.2857V36.0714M130.836 37.7857V40.7857C130.836 41.2591 130.451 41.6429 129.977 41.6429H127.829M130.836 37.7857H124.393M130.836 37.7857V36.0714M127.829 41.6429H124.393M127.829 41.6429L129.555 46.4263C129.656 46.7055 129.448 47 129.151 47H124.393M130.836 30.2857L136.601 33.2438C137.636 33.7745 138.185 34.9306 137.943 36.0657L136.508 42.7962C136.419 43.2138 135.839 43.2589 135.687 42.8601L133.486 37.118C133.44 36.9981 133.343 36.905 133.221 36.8645L130.836 36.0714M130.836 30.2857V36.0714" stroke="#6666FF" stroke-width="1.5"/>
<circle cx="124.5" cy="24.0713" r="3.64286" stroke="#6666FF" stroke-width="1.5"/>
<path d="M123.643 48.7144V53.0001" stroke="#6666FF" stroke-width="1.5"/>
<path d="M126 48.7144V53.0001" stroke="#6666FF" stroke-width="1.5"/>
</g>
</svg>
