<svg width="92" height="47" viewBox="0 0 92 47" fill="none" xmlns="http://www.w3.org/2000/svg">
<rect x="0.5" y="0.5" width="91" height="46" rx="5.5" fill="white"/>
<path d="M25.7603 23.2857L28.1085 25.634L32.0223 21.7202" stroke="#6666FF" stroke-width="1.5" stroke-linecap="round" stroke-linejoin="round"/>
<path d="M23.0207 28.3734L21.5569 18.1295C21.5291 17.9345 21.5761 17.7362 21.6884 17.5745C21.8008 17.4127 21.9703 17.2995 22.1628 17.2575L28.1602 15.9245C28.3839 15.8748 28.6159 15.8748 28.8396 15.9245L34.8371 17.2583C35.2363 17.3468 35.5009 17.7248 35.4429 18.1303L33.9792 28.3734C33.9244 28.7609 33.5878 31.113 28.4999 31.113C23.412 31.113 23.0754 28.7609 23.0207 28.3734Z" stroke="#6666FF" stroke-width="1.5" stroke-linecap="round" stroke-linejoin="round"/>
<path d="M44.3835 28.5V19.0455H46.0962V23.3896H46.2116L49.9001 19.0455H51.9914L48.3352 23.288L52.0237 28.5H49.9648L47.1441 24.4467L46.0962 25.6839V28.5H44.3835ZM52.275 19.0455H54.2093L56.5222 23.228H56.6145L58.9273 19.0455H60.8616L57.4224 24.973V28.5H55.7143V24.973L52.275 19.0455ZM69.3741 22.2354H67.6475C67.5983 21.9523 67.5075 21.7015 67.3752 21.483C67.2428 21.2614 67.0782 21.0736 66.8812 20.9197C66.6842 20.7659 66.4596 20.6504 66.2072 20.5735C65.9579 20.4935 65.6886 20.4535 65.3993 20.4535C64.8854 20.4535 64.4299 20.5827 64.0328 20.8413C63.6358 21.0967 63.325 21.4722 63.1003 21.9677C62.8756 22.4601 62.7633 23.0618 62.7633 23.7727C62.7633 24.496 62.8756 25.1054 63.1003 25.6009C63.3281 26.0933 63.6389 26.4657 64.0328 26.718C64.4299 26.9673 64.8838 27.092 65.3947 27.092C65.6778 27.092 65.9425 27.055 66.1887 26.9812C66.438 26.9042 66.6612 26.7919 66.8581 26.6442C67.0582 26.4964 67.2259 26.3149 67.3613 26.0994C67.4998 25.884 67.5952 25.6378 67.6475 25.3608L69.3741 25.37C69.3095 25.8194 69.1694 26.241 68.954 26.6349C68.7417 27.0289 68.4631 27.3767 68.1184 27.6783C67.7737 27.9768 67.3706 28.2107 66.9089 28.38C66.4473 28.5462 65.9348 28.6293 65.3716 28.6293C64.5407 28.6293 63.7989 28.4369 63.1465 28.0522C62.494 27.6675 61.9801 27.112 61.6046 26.3857C61.2291 25.6593 61.0414 24.7884 61.0414 23.7727C61.0414 22.754 61.2306 21.883 61.6092 21.1598C61.9877 20.4335 62.5033 19.878 63.1557 19.4933C63.8082 19.1085 64.5468 18.9162 65.3716 18.9162C65.8979 18.9162 66.3872 18.9901 66.8397 19.1378C67.2921 19.2855 67.6953 19.5025 68.0492 19.7887C68.4031 20.0719 68.6939 20.4196 68.9217 20.832C69.1525 21.2414 69.3033 21.7092 69.3741 22.2354Z" fill="#6666FF"/>
<rect x="0.5" y="0.5" width="91" height="46" rx="5.5" stroke="#E6E6FF"/>
</svg>
