<svg width="16" height="16" viewBox="0 0 16 16" fill="none" xmlns="http://www.w3.org/2000/svg">
<path d="M13.3333 6.00016L12.0033 13.5642C11.9491 13.8731 11.7877 14.153 11.5475 14.3546C11.3072 14.5563 11.0036 14.6669 10.69 14.6668H5.31C4.99636 14.6669 4.69275 14.5563 4.45255 14.3546C4.21235 14.153 4.05093 13.8731 3.99667 13.5642L2.66667 6.00016M14 4.00016H10.25M10.25 4.00016V2.66683C10.25 2.31321 10.1095 1.97407 9.85948 1.72402C9.60943 1.47397 9.27029 1.3335 8.91667 1.3335H7.08333C6.72971 1.3335 6.39057 1.47397 6.14052 1.72402C5.89048 1.97407 5.75 2.31321 5.75 2.66683V4.00016M10.25 4.00016H5.75M2 4.00016H5.75" stroke="#B8B8CC" stroke-width="1.5" stroke-linecap="round" stroke-linejoin="round"/>
</svg>
