<!-- License: CC Attribution. Made by zafdesign: https://dribbble.com/zafdesign -->
<svg width="24px" height="24px" viewBox="0 -4.29 30.572 30.572" id="_15_-_List_Apps" data-name="15 - List Apps" xmlns="http://www.w3.org/2000/svg">
  <path id="Path_184" data-name="Path 184" d="M31.286,7.428A2.428,2.428,0,0,0,28.858,5H10.285A2.428,2.428,0,0,0,7.857,7.428h0a2.428,2.428,0,0,0,2.428,2.428H28.858a2.428,2.428,0,0,0,2.428-2.428h0Zm-2,0h0a.428.428,0,0,1-.428.428H10.285a.428.428,0,0,1-.428-.428h0A.428.428,0,0,1,10.285,7H28.858A.428.428,0,0,1,29.286,7.428Z" transform="translate(-0.714 -5)" fill-rule="evenodd"/>
  <path id="Path_185" data-name="Path 185" d="M7,7.428A2.428,2.428,0,0,0,4.572,5H3.142A2.428,2.428,0,0,0,.714,7.428h0A2.428,2.428,0,0,0,3.142,9.857h1.43A2.428,2.428,0,0,0,7,7.429Zm-2,0H5a.427.427,0,0,1-.428.428H3.142a.428.428,0,0,1-.428-.428h0A.428.428,0,0,1,3.142,7h1.43A.427.427,0,0,1,5,7.428Z" transform="translate(-0.714 -5)" fill-rule="evenodd"/>
  <path id="Path_186" data-name="Path 186" d="M7,16a2.429,2.429,0,0,0-2.428-2.428H3.142A2.429,2.429,0,0,0,.714,16v0a2.429,2.429,0,0,0,2.428,2.428h1.43A2.429,2.429,0,0,0,7,16ZM5,16v0a.428.428,0,0,1-.428.428H3.142A.43.43,0,0,1,2.714,16v0a.43.43,0,0,1,.428-.428h1.43A.428.428,0,0,1,5,16Z" transform="translate(-0.714 -5)" fill-rule="evenodd"/>
  <path id="Path_187" data-name="Path 187" d="M7,24.571a2.428,2.428,0,0,0-2.428-2.428H3.142A2.428,2.428,0,0,0,.714,24.571h0A2.428,2.428,0,0,0,3.142,27h1.43A2.428,2.428,0,0,0,7,24.572Zm-2,0H5A.427.427,0,0,1,4.572,25H3.142a.428.428,0,0,1-.428-.428h0a.428.428,0,0,1,.428-.428h1.43A.427.427,0,0,1,5,24.571Z" transform="translate(-0.714 -5)" fill-rule="evenodd"/>
  <path id="Path_188" data-name="Path 188" d="M31.286,24.571a2.428,2.428,0,0,0-2.428-2.428H10.285a2.428,2.428,0,0,0-2.428,2.428h0A2.428,2.428,0,0,0,10.285,27H28.858a2.428,2.428,0,0,0,2.428-2.428Zm-2,0h0a.428.428,0,0,1-.428.428H10.285a.428.428,0,0,1-.428-.428h0a.428.428,0,0,1,.428-.428H28.858A.428.428,0,0,1,29.286,24.571Z" transform="translate(-0.714 -5)" fill-rule="evenodd"/>
  <path id="Path_189" data-name="Path 189" d="M31.286,16a2.428,2.428,0,0,0-2.428-2.428H10.285A2.428,2.428,0,0,0,7.857,16v0a2.428,2.428,0,0,0,2.428,2.428H28.858A2.428,2.428,0,0,0,31.286,16Zm-2,0v0a.428.428,0,0,1-.428.428H10.285A.428.428,0,0,1,9.857,16v0a.428.428,0,0,1,.428-.428H28.858A.428.428,0,0,1,29.286,16Z" transform="translate(-0.714 -5)" fill-rule="evenodd"/>
</svg>
