<svg width="552" height="481" viewBox="0 0 552 481" fill="none" xmlns="http://www.w3.org/2000/svg">
<g clip-path="url(#clip0_16282_64072)">
<path opacity="0.3" d="M94.6379 451.872C196.106 515.208 416.606 459.671 432.785 431.418C450.128 401.138 692.577 82.3097 432.07 136.381C239.272 176.397 307.74 -31.8322 82.7554 4.2105C-76.1164 29.6651 31.4595 412.43 94.6379 451.872Z" fill="#EFEEF5"/>
<path d="M368.127 94.585H195.517C189.751 94.585 185.077 99.2491 185.077 105.003V354.476C185.077 360.23 189.751 364.894 195.517 364.894H368.127C373.893 364.894 378.567 360.23 378.567 354.476V105.003C378.567 99.2491 373.893 94.585 368.127 94.585Z" fill="#B8B8D5"/>
<g opacity="0.45">
<path opacity="0.45" d="M362.752 326.281H226.684C225.075 326.281 223.771 327.582 223.771 329.187V336.26C223.771 337.864 225.075 339.166 226.684 339.166H362.752C364.361 339.166 365.665 337.864 365.665 336.26V329.187C365.665 327.582 364.361 326.281 362.752 326.281Z" fill="white"/>
<path opacity="0.45" d="M362.752 300.535H226.684C225.075 300.535 223.771 301.836 223.771 303.441V310.513C223.771 312.118 225.075 313.419 226.684 313.419H362.752C364.361 313.419 365.665 312.118 365.665 310.513V303.441C365.665 301.836 364.361 300.535 362.752 300.535Z" fill="white"/>
<path opacity="0.45" d="M362.752 273.363H226.684C225.075 273.363 223.771 274.664 223.771 276.269V283.341C223.771 284.946 225.075 286.247 226.684 286.247H362.752C364.361 286.247 365.665 284.946 365.665 283.341V276.269C365.665 274.664 364.361 273.363 362.752 273.363Z" fill="white"/>
<path opacity="0.45" d="M362.752 247.617H226.684C225.075 247.617 223.771 248.918 223.771 250.523V257.595C223.771 259.2 225.075 260.501 226.684 260.501H362.752C364.361 260.501 365.665 259.2 365.665 257.595V250.523C365.665 248.918 364.361 247.617 362.752 247.617Z" fill="white"/>
<path opacity="0.45" d="M362.752 223.307H226.684C225.075 223.307 223.771 224.608 223.771 226.213V233.285C223.771 234.89 225.075 236.191 226.684 236.191H362.752C364.361 236.191 365.665 234.89 365.665 233.285V226.213C365.665 224.608 364.361 223.307 362.752 223.307Z" fill="white"/>
<path opacity="0.45" d="M362.752 197.561H226.684C225.075 197.561 223.771 198.862 223.771 200.467V207.539C223.771 209.144 225.075 210.445 226.684 210.445H362.752C364.361 210.445 365.665 209.144 365.665 207.539V200.467C365.665 198.862 364.361 197.561 362.752 197.561Z" fill="white"/>
<path opacity="0.45" d="M362.752 171.819H226.684C225.075 171.819 223.771 173.12 223.771 174.725V181.798C223.771 183.403 225.075 184.704 226.684 184.704H362.752C364.361 184.704 365.665 183.403 365.665 181.798V174.725C365.665 173.12 364.361 171.819 362.752 171.819Z" fill="white"/>
<path opacity="0.45" d="M362.752 146.072H226.684C225.075 146.072 223.771 147.373 223.771 148.978V156.051C223.771 157.655 225.075 158.957 226.684 158.957H362.752C364.361 158.957 365.665 157.655 365.665 156.051V148.978C365.665 147.373 364.361 146.072 362.752 146.072Z" fill="white"/>
<path opacity="0.45" d="M362.752 120.331H226.684C225.075 120.331 223.771 121.632 223.771 123.237V130.309C223.771 131.914 225.075 133.215 226.684 133.215H362.752C364.361 133.215 365.665 131.914 365.665 130.309V123.237C365.665 121.632 364.361 120.331 362.752 120.331Z" fill="white"/>
</g>
<path d="M280.631 390.639H128.218C126.191 390.639 124.248 389.836 122.815 388.406C121.383 386.977 120.578 385.038 120.578 383.016V179.415C120.578 177.393 121.383 175.454 122.815 174.024C124.248 172.594 126.191 171.791 128.218 171.791H280.631C282.658 171.791 284.601 172.594 286.034 174.024C287.466 175.454 288.271 177.393 288.271 179.415V383.016C288.271 385.038 287.466 386.977 286.034 388.406C284.601 389.836 282.658 390.639 280.631 390.639Z" stroke="#7E7DB1" stroke-width="2.87" stroke-miterlimit="10" stroke-dasharray="17.27 17.27"/>
<path d="M313.353 171.818V327.761C313.353 330.782 312.15 333.679 310.01 335.815C307.869 337.952 304.965 339.152 301.938 339.152H158.643C155.194 339.152 151.887 337.785 149.449 335.352C147.011 332.919 145.641 329.619 145.641 326.178V131.923C145.641 130.397 145.943 128.887 146.529 127.478C147.115 126.069 147.974 124.79 149.056 123.713C150.139 122.636 151.424 121.783 152.838 121.202C154.251 120.622 155.766 120.325 157.294 120.33H275.382L313.353 171.818Z" fill="#515097"/>
<path d="M275.369 120.331V162.114C275.369 164.688 276.393 167.156 278.217 168.976C280.041 170.796 282.515 171.819 285.094 171.819H314.068" fill="#B6B6D3"/>
<g opacity="0.39">
<path opacity="0.39" d="M285.359 289.095H175.082C173.476 289.095 172.174 290.394 172.174 291.996V299.064C172.174 300.666 173.476 301.966 175.082 301.966H285.359C286.965 301.966 288.267 300.666 288.267 299.064V291.996C288.267 290.394 286.965 289.095 285.359 289.095Z" fill="white"/>
<path opacity="0.39" d="M285.359 263.349H175.082C173.476 263.349 172.174 264.648 172.174 266.25V273.318C172.174 274.92 173.476 276.219 175.082 276.219H285.359C286.965 276.219 288.267 274.92 288.267 273.318V266.25C288.267 264.648 286.965 263.349 285.359 263.349Z" fill="white"/>
<path opacity="0.39" d="M285.359 236.177H175.082C173.476 236.177 172.174 237.476 172.174 239.078V246.146C172.174 247.748 173.476 249.048 175.082 249.048H285.359C286.965 249.048 288.267 247.748 288.267 246.146V239.078C288.267 237.476 286.965 236.177 285.359 236.177Z" fill="white"/>
<path opacity="0.39" d="M285.359 211.861H175.082C173.476 211.861 172.174 213.16 172.174 214.763V221.831C172.174 223.433 173.476 224.732 175.082 224.732H285.359C286.965 224.732 288.267 223.433 288.267 221.831V214.763C288.267 213.16 286.965 211.861 285.359 211.861Z" fill="white"/>
<path opacity="0.39" d="M285.359 184.689H175.082C173.476 184.689 172.174 185.989 172.174 187.591V194.659C172.174 196.261 173.476 197.56 175.082 197.56H285.359C286.965 197.56 288.267 196.261 288.267 194.659V187.591C288.267 185.989 286.965 184.689 285.359 184.689Z" fill="white"/>
<path opacity="0.39" d="M246.66 146.072H175.082C173.476 146.072 172.174 147.371 172.174 148.974V156.042C172.174 157.644 173.476 158.943 175.082 158.943H246.66C248.266 158.943 249.568 157.644 249.568 156.042V148.974C249.568 147.371 248.266 146.072 246.66 146.072Z" fill="white"/>
</g>
<path d="M133.397 358.767L123.396 366.895L133.198 378.905L143.2 370.777L133.397 358.767Z" fill="#515097"/>
<path d="M101.59 376.334C129.887 376.334 152.827 353.443 152.827 325.205C152.827 296.967 129.887 274.076 101.59 274.076C73.2919 274.076 50.3521 296.967 50.3521 325.205C50.3521 353.443 73.2919 376.334 101.59 376.334Z" fill="#B8B8D5"/>
<path opacity="0.63" d="M101.589 363.463C122.764 363.463 139.929 346.335 139.929 325.205C139.929 304.076 122.764 286.947 101.589 286.947C80.4151 286.947 63.25 304.076 63.25 325.205C63.25 346.335 80.4151 363.463 101.589 363.463Z" fill="white"/>
<path d="M138.275 364.921L128.608 372.777C127.346 373.803 127.156 375.656 128.184 376.916L171.653 430.178C172.682 431.437 174.539 431.627 175.801 430.601L185.468 422.745C186.73 421.719 186.92 419.866 185.892 418.606L142.422 365.344C141.394 364.085 139.537 363.895 138.275 364.921Z" fill="#6D6CA8"/>
<g opacity="0.33">
<g opacity="0.33">
<path opacity="0.33" d="M139.551 276.445L125.714 273.081L100.598 375.972L114.435 379.335L139.551 276.445Z" fill="white"/>
<path opacity="0.33" d="M114.473 273.481L112.813 273.078L87.6972 375.969L89.3565 376.372L114.473 273.481Z" fill="white"/>
</g>
</g>
<path d="M407.878 169.19C406.142 168.368 404.776 166.929 404.049 165.154C403.285 163.342 403.419 161.399 404.453 159.324C404.863 158.447 405.452 157.664 406.183 157.027C406.913 156.39 407.769 155.912 408.696 155.624C409.625 155.313 410.608 155.192 411.586 155.269C412.564 155.346 413.516 155.62 414.385 156.073C415.261 156.48 416.045 157.062 416.686 157.783C417.328 158.504 417.814 159.349 418.115 160.266C418.432 161.176 418.559 162.141 418.488 163.102C418.417 164.063 418.149 165 417.702 165.854C416.683 167.902 415.224 169.186 413.324 169.706C411.509 170.231 409.562 170.046 407.878 169.19ZM410.264 110.442C411.642 107.662 413.934 105.285 417.14 103.311C420.346 101.338 424.13 100.263 428.492 100.087C432.851 99.9077 437.32 100.954 441.898 103.226C446.156 105.319 449.523 107.956 452.001 111.137C454.366 114.043 455.882 117.544 456.383 121.254C456.84 124.714 456.25 128.231 454.688 131.354C453.615 133.653 451.978 135.646 449.929 137.148C448.091 138.47 446.062 139.506 443.912 140.22C441.844 140.892 438.207 141.949 433 143.39C431.78 143.725 430.579 144.128 429.404 144.597C428.599 144.915 427.834 145.328 427.126 145.825C426.57 146.232 426.057 146.694 425.593 147.202C425.147 147.69 424.408 148.572 423.378 149.848C421.311 152.62 418.81 153.28 415.877 151.83C415.159 151.5 414.513 151.03 413.978 150.448C413.444 149.865 413.03 149.183 412.763 148.44C412.214 146.927 412.427 145.19 413.401 143.229C414.433 141.017 415.9 139.034 417.715 137.399C419.31 136.013 421.135 134.916 423.108 134.157C425.57 133.253 428.077 132.474 430.618 131.825C433.314 131.113 435.284 130.545 436.528 130.12C437.769 129.706 438.947 129.119 440.024 128.376C441.103 127.639 441.97 126.634 442.541 125.461C443.112 124.351 443.436 123.132 443.491 121.886C443.546 120.639 443.331 119.396 442.86 118.241C441.91 115.768 440.057 113.85 437.301 112.487C434.074 110.896 431.295 110.536 428.964 111.406C426.633 112.276 424.161 114.031 421.549 116.671C418.906 119.487 416.193 120.208 413.41 118.833C412.626 118.465 411.927 117.938 411.359 117.286C410.791 116.633 410.366 115.869 410.111 115.043C409.545 113.33 409.596 111.799 410.264 110.451V110.442Z" fill="#515097"/>
<path d="M62.4684 112.685C60.9943 109.949 60.3846 106.707 60.6393 102.958C60.8939 99.2085 62.2122 95.5102 64.5941 91.8628C66.991 88.2123 70.4365 85.1837 74.9306 82.777C79.1251 80.5406 83.2327 79.3343 87.2535 79.1579C90.9931 78.9244 94.725 79.7235 98.0394 81.4675C101.127 83.1052 103.654 85.6255 105.297 88.7056C106.549 90.9147 107.224 93.402 107.261 95.9393C107.274 98.1991 106.943 100.448 106.277 102.608C105.624 104.683 104.375 108.252 102.529 113.317C102.1 114.501 101.736 115.708 101.437 116.932C101.227 117.771 101.118 118.632 101.113 119.497C101.123 120.183 101.201 120.867 101.347 121.537C101.491 122.183 101.796 123.3 102.223 124.878C103.284 128.167 102.372 130.583 99.4866 132.125C98.7993 132.517 98.0406 132.768 97.2551 132.863C96.4696 132.959 95.6728 132.897 94.9115 132.682C93.3625 132.251 92.0698 131.072 91.0331 129.143C89.8311 127.021 89.067 124.681 88.786 122.259C88.5766 120.155 88.7393 118.029 89.2668 115.981C89.9589 113.454 90.7779 110.963 91.7207 108.519C92.7004 105.92 93.3805 103.991 93.761 102.729C94.1414 101.479 94.3457 100.183 94.3677 98.8767C94.3898 97.5729 94.0723 96.2857 93.4464 95.141C92.8718 94.0329 92.0645 93.0615 91.0795 92.293C90.0946 91.5245 88.9551 90.977 87.7389 90.6878C85.1712 90.0241 82.5317 90.4187 79.8203 91.8717C76.6474 93.5669 74.7403 95.6149 74.0992 98.0156C73.458 100.416 73.458 103.449 74.0992 107.115C74.8692 110.897 73.8835 113.519 71.1421 114.981C70.3872 115.404 69.552 115.666 68.69 115.75C67.8279 115.833 66.958 115.736 66.1356 115.465C64.4098 114.936 63.1875 114.009 62.4684 112.685ZM109.019 148.714C107.336 149.644 105.367 149.914 103.495 149.472C101.569 149.035 100.057 147.796 98.9607 145.754C98.484 144.911 98.1883 143.978 98.0924 143.014C97.9964 142.051 98.1024 141.078 98.4034 140.157C98.6917 139.222 99.1658 138.355 99.7974 137.607C100.429 136.859 101.205 136.245 102.08 135.803C102.92 135.327 103.85 135.029 104.81 134.925C105.771 134.822 106.743 134.916 107.666 135.202C108.593 135.474 109.455 135.933 110.197 136.55C110.94 137.167 111.548 137.929 111.985 138.79C113.069 140.805 113.272 142.736 112.591 144.584C111.97 146.361 110.696 147.837 109.028 148.714H109.019Z" fill="#515097"/>
<path d="M394.238 337.591C392.809 336.907 391.688 335.716 391.092 334.25C390.463 332.755 390.574 331.15 391.425 329.434C391.765 328.711 392.252 328.067 392.855 327.541C393.457 327.015 394.162 326.62 394.926 326.38C395.694 326.126 396.505 326.028 397.312 326.093C398.119 326.158 398.904 326.383 399.622 326.757C400.344 327.094 400.989 327.575 401.518 328.17C402.046 328.766 402.447 329.463 402.696 330.219C402.959 330.969 403.064 331.766 403.005 332.559C402.947 333.352 402.725 334.125 402.354 334.829C401.519 336.518 400.32 337.578 398.759 338.008C397.254 338.451 395.636 338.301 394.238 337.591ZM396.206 289.131C397.345 286.841 399.235 284.881 401.878 283.252C404.716 281.57 407.943 280.652 411.244 280.588C414.839 280.444 418.527 281.304 422.308 283.166C425.547 284.686 428.397 286.922 430.64 289.705C432.585 292.104 433.829 294.992 434.236 298.051C434.613 300.905 434.128 303.806 432.843 306.383C431.953 308.28 430.601 309.924 428.91 311.164C427.4 312.253 425.733 313.107 423.967 313.697C422.259 314.254 419.263 315.125 414.978 316.312C413.974 316.589 412.987 316.923 412.021 317.312C411.356 317.574 410.724 317.912 410.138 318.321C409.681 318.657 409.258 319.037 408.875 319.456C408.511 319.864 407.9 320.59 407.046 321.644C405.338 323.925 403.276 324.469 400.858 323.277C400.265 323.004 399.733 322.616 399.292 322.136C398.851 321.655 398.511 321.092 398.292 320.478C397.836 319.231 398.012 317.799 398.818 316.182C399.668 314.358 400.877 312.723 402.372 311.374C403.687 310.225 405.192 309.315 406.822 308.684C408.851 307.935 410.916 307.288 413.01 306.746C415.227 306.148 416.852 305.68 417.886 305.343C418.909 305.001 419.879 304.516 420.767 303.903C421.656 303.295 422.372 302.467 422.843 301.499C423.313 300.583 423.58 299.577 423.626 298.548C423.672 297.52 423.495 296.494 423.108 295.539C422.323 293.503 420.794 291.922 418.52 290.795C415.859 289.479 413.566 289.18 411.639 289.898C409.713 290.615 407.669 292.065 405.509 294.248C403.334 296.571 401.096 297.169 398.795 296.042C398.146 295.738 397.569 295.301 397.1 294.76C396.63 294.22 396.28 293.587 396.072 292.902C395.842 292.296 395.736 291.651 395.759 291.003C395.782 290.356 395.934 289.719 396.206 289.131Z" fill="#515097"/>
</g>
<defs>
<clipPath id="clip0_16282_64072">
<rect width="552" height="481" fill="white"/>
</clipPath>
</defs>
</svg>
