<svg width="22" height="22" viewBox="0 0 22 22" fill="none" xmlns="http://www.w3.org/2000/svg">
<path d="M0 11C0 17.0751 4.92487 22 11 22C17.0751 22 22 17.0751 22 11C22 4.92487 17.0751 0 11 0C4.92487 0 0 4.92487 0 11Z" fill="#EDCEFF" fill-opacity="0.1"/>
<mask id="mask0_4969_7427" style="mask-type:alpha" maskUnits="userSpaceOnUse" x="0" y="0" width="22" height="22">
<circle r="11" transform="matrix(1 0 0 -1 11 11)" fill="url(#paint0_linear_4969_7427)"/>
</mask>
<g mask="url(#mask0_4969_7427)">
<circle opacity="0.2" r="11" transform="matrix(1 0 0 -1 11 11)" fill="#271F4A" fill-opacity="0.4"/>
<path d="M22 11.0001C22 4.92493 17.0751 6.48499e-05 11 6.48499e-05C4.92487 6.48499e-05 0 4.92493 0 11.0001C0 22.7334 2.93333 22.7334 10.2667 22.7334C17.6 22.7334 22 22.7334 22 11.0001Z" fill="#271F4A" fill-opacity="0.4"/>
<g opacity="0.9">
<path opacity="0.2" d="M10.1459 10.2676C10.1832 9.93282 9.94131 9.63514 9.62506 9.59801L5.99741 9.13285C5.49512 9.07703 5.06736 9.50491 5.14175 10.0258L5.6626 13.5231C5.71843 13.8579 6.01598 14.0812 6.35091 14.0254H6.36948C6.70429 13.9695 6.92759 13.672 6.87177 13.337L6.59278 11.4397L11.8384 16.6853C12.0803 16.9272 12.4709 16.9272 12.7128 16.6853C12.9546 16.4434 12.9546 16.0528 12.7128 15.811L7.42976 10.5279L9.45734 10.7884C9.79215 10.8441 10.1087 10.6025 10.1459 10.2676ZM12.2773 11.4288V11.3915C12.3331 11.0567 12.6306 10.8334 12.9656 10.8892L14.7514 11.1496L9.59845 5.99697C9.35659 5.75511 9.35659 5.36448 9.59845 5.12262C9.8403 4.88076 10.2309 4.88076 10.4728 5.12262L15.8114 10.4801L15.5324 8.34083C15.4952 8.00602 15.7185 7.70834 16.0718 7.65252C16.4067 7.61527 16.7043 7.85713 16.7415 8.17338L17.1879 11.7822C17.2438 12.2845 16.8159 12.7122 16.295 12.6379L12.7792 12.117C12.4445 12.0799 12.2214 11.7636 12.2773 11.4288Z" fill="#EDCEFF"/>
</g>
</g>
<defs>
<linearGradient id="paint0_linear_4969_7427" x1="11" y1="-1.76392e-06" x2="27.3713" y2="8.11365" gradientUnits="userSpaceOnUse">
<stop stop-color="#7B42A9"/>
<stop offset="1" stop-color="#ED0376"/>
</linearGradient>
</defs>
</svg>
