<svg width="9" height="3" viewBox="0 0 9 3" fill="none" xmlns="http://www.w3.org/2000/svg">
<path fill-rule="evenodd" clip-rule="evenodd" d="M8.08246 1.08552C8.07579 1.63776 7.6227 2.08004 7.07046 2.07337L0.987928 1.99993C0.435684 1.99326 -0.00659354 1.54017 7.44163e-05 0.987928C0.00674237 0.435684 0.45983 -0.00659354 1.01207 7.44163e-05L7.09461 0.0735164C7.64685 0.0801844 8.08913 0.533272 8.08246 1.08552Z" fill="url(#paint0_linear_5544_2733)"/>
<path fill-rule="evenodd" clip-rule="evenodd" d="M8.08246 1.08552C8.07579 1.63776 7.6227 2.08004 7.07046 2.07337L0.987928 1.99993C0.435684 1.99326 -0.00659354 1.54017 7.44163e-05 0.987928C0.00674237 0.435684 0.45983 -0.00659354 1.01207 7.44163e-05L7.09461 0.0735164C7.64685 0.0801844 8.08913 0.533272 8.08246 1.08552Z" fill="#ED0376"/>
<defs>
<linearGradient id="paint0_linear_5544_2733" x1="4.04127" y1="-1.66245e-07" x2="5.62442" y2="3.05852" gradientUnits="userSpaceOnUse">
<stop stop-color="#7B42A9"/>
<stop offset="1" stop-color="#ED0376"/>
</linearGradient>
</defs>
</svg>
