<svg width="138" height="96" viewBox="0 0 138 96" fill="none" xmlns="http://www.w3.org/2000/svg">
<path d="M101 95V18.0693C101 17.4959 100.773 16.9459 100.368 16.5398L99.9167 16.087C99.3189 15.4872 98.3477 15.4872 97.75 16.087V16.087C97.1523 16.6867 96.1811 16.6867 95.5833 16.087V16.087C94.9856 15.4872 94.0144 15.4872 93.4167 16.087V16.087C92.8189 16.6867 91.8477 16.6867 91.25 16.087V16.087C90.6523 15.4872 89.6811 15.4872 89.0833 16.087V16.087C88.4856 16.6867 87.5144 16.6867 86.9167 16.087V16.087C86.3189 15.4872 85.3477 15.4872 84.75 16.087V16.087C84.1523 16.6867 83.1811 16.6867 82.5833 16.087V16.087C81.9856 15.4872 81.0144 15.4872 80.4167 16.087V16.087C79.8189 16.6867 78.8477 16.6867 78.25 16.087V16.087C77.6523 15.4872 76.6811 15.4872 76.0833 16.087V16.087C75.4856 16.6867 74.5144 16.6867 73.9167 16.087V16.087C73.3189 15.4872 72.3477 15.4872 71.75 16.087V16.087C71.1523 16.6867 70.1811 16.6867 69.5833 16.087V16.087C68.9856 15.4872 68.0144 15.4872 67.4167 16.087V16.087C66.8189 16.6867 65.8477 16.6867 65.25 16.087V16.087C64.6523 15.4872 63.6811 15.4872 63.0833 16.087V16.087C62.4856 16.6867 61.5144 16.6867 60.9167 16.087V16.087C60.3189 15.4872 59.3477 15.4872 58.75 16.087V16.087C58.1523 16.6867 57.1811 16.6867 56.5833 16.087V16.087C55.9856 15.4872 55.0144 15.4872 54.4167 16.087V16.087C53.8189 16.6867 52.8477 16.6867 52.25 16.087V16.087C51.6523 15.4872 50.6811 15.4872 50.0833 16.087V16.087C49.4856 16.6867 48.5144 16.6867 47.9167 16.087V16.087C47.3189 15.4872 46.3477 15.4872 45.75 16.087V16.087C45.1523 16.6867 44.1811 16.6867 43.5833 16.087V16.087C42.9856 15.4872 42.0144 15.4872 41.4167 16.087V16.087C40.8189 16.6867 39.8477 16.6867 39.25 16.087V16.087C38.6523 15.4872 37.6811 15.4872 37.0833 16.087L36.632 16.5398C36.2273 16.9459 36 17.4959 36 18.0693V95" stroke="#6666FF" stroke-width="1.5"/>
<rect opacity="0.8" y="95" width="138" height="1" fill="#E6E6FF"/>
<circle cx="123.5" cy="55.5" r="3.75" stroke="#B8B8CC" stroke-width="1.5"/>
<circle cx="15" cy="6" r="5.25" stroke="#6666FF" stroke-width="1.5"/>
<circle cx="15" cy="65" r="2" fill="#6666FF"/>
<path d="M102 1V9.5" stroke="#B8B8CC" stroke-width="1.5" stroke-linecap="round"/>
<path d="M116.5 15L108 15" stroke="#B8B8CC" stroke-width="1.5" stroke-linecap="round"/>
<path d="M112.012 5L106.001 11.0104" stroke="#B8B8CC" stroke-width="1.5" stroke-linecap="round"/>
<circle cx="54" cy="47" r="2" fill="#292933"/>
<circle cx="82" cy="47" r="2" fill="#292933"/>
<path d="M54.1914 62C61.9234 54.268 74.4594 54.268 82.1914 62" stroke="#292933" stroke-width="1.5" stroke-linecap="round"/>
</svg>
