<svg width="138" height="135" viewBox="0 0 138 135" fill="none" xmlns="http://www.w3.org/2000/svg">
<path d="M44.3366 121.818V132H42.9247L37.7493 124.533H37.6548V132H36.1186V121.818H37.5405L42.7209 129.295H42.8153V121.818H44.3366ZM49.2549 132.154C48.539 132.154 47.9142 131.99 47.3806 131.662C46.847 131.334 46.4327 130.875 46.1377 130.285C45.8427 129.695 45.6952 129.005 45.6952 128.217C45.6952 127.424 45.8427 126.732 46.1377 126.138C46.4327 125.545 46.847 125.085 47.3806 124.756C47.9142 124.428 48.539 124.264 49.2549 124.264C49.9708 124.264 50.5956 124.428 51.1292 124.756C51.6628 125.085 52.0771 125.545 52.3721 126.138C52.6671 126.732 52.8146 127.424 52.8146 128.217C52.8146 129.005 52.6671 129.695 52.3721 130.285C52.0771 130.875 51.6628 131.334 51.1292 131.662C50.5956 131.99 49.9708 132.154 49.2549 132.154ZM49.2599 130.906C49.7239 130.906 50.1084 130.784 50.4133 130.538C50.7182 130.293 50.9436 129.967 51.0894 129.559C51.2386 129.151 51.3131 128.702 51.3131 128.212C51.3131 127.724 51.2386 127.277 51.0894 126.869C50.9436 126.458 50.7182 126.129 50.4133 125.88C50.1084 125.631 49.7239 125.507 49.2599 125.507C48.7925 125.507 48.4048 125.631 48.0965 125.88C47.7916 126.129 47.5646 126.458 47.4154 126.869C47.2696 127.277 47.1967 127.724 47.1967 128.212C47.1967 128.702 47.2696 129.151 47.4154 129.559C47.5646 129.967 47.7916 130.293 48.0965 130.538C48.4048 130.784 48.7925 130.906 49.2599 130.906ZM56.9561 123.141V121.818H64.8361V123.141H61.6592V132H60.128V123.141H56.9561ZM68.1472 132.154C67.4313 132.154 66.8066 131.99 66.2729 131.662C65.7393 131.334 65.325 130.875 65.03 130.285C64.7351 129.695 64.5876 129.005 64.5876 128.217C64.5876 127.424 64.7351 126.732 65.03 126.138C65.325 125.545 65.7393 125.085 66.2729 124.756C66.8066 124.428 67.4313 124.264 68.1472 124.264C68.8631 124.264 69.4879 124.428 70.0215 124.756C70.5551 125.085 70.9694 125.545 71.2644 126.138C71.5594 126.732 71.7069 127.424 71.7069 128.217C71.7069 129.005 71.5594 129.695 71.2644 130.285C70.9694 130.875 70.5551 131.334 70.0215 131.662C69.4879 131.99 68.8631 132.154 68.1472 132.154ZM68.1522 130.906C68.6162 130.906 69.0007 130.784 69.3056 130.538C69.6105 130.293 69.8359 129.967 69.9818 129.559C70.1309 129.151 70.2055 128.702 70.2055 128.212C70.2055 127.724 70.1309 127.277 69.9818 126.869C69.8359 126.458 69.6105 126.129 69.3056 125.88C69.0007 125.631 68.6162 125.507 68.1522 125.507C67.6849 125.507 67.2971 125.631 66.9889 125.88C66.6839 126.129 66.4569 126.458 66.3077 126.869C66.1619 127.277 66.089 127.724 66.089 128.212C66.089 128.702 66.1619 129.151 66.3077 129.559C66.4569 129.967 66.6839 130.293 66.9889 130.538C67.2971 130.784 67.6849 130.906 68.1522 130.906ZM74.3134 129.41L74.3034 127.595H74.5619L77.6045 124.364H79.3844L75.9142 128.043H75.6805L74.3134 129.41ZM72.9462 132V121.818H74.4327V132H72.9462ZM77.7686 132L75.0342 128.371L76.0584 127.332L79.5932 132H77.7686ZM83.2959 132.154C82.5435 132.154 81.8955 131.993 81.352 131.672C80.8117 131.347 80.3941 130.891 80.0991 130.305C79.8075 129.715 79.6616 129.024 79.6616 128.232C79.6616 127.449 79.8075 126.76 80.0991 126.163C80.3941 125.567 80.8051 125.101 81.3321 124.766C81.8624 124.432 82.4822 124.264 83.1915 124.264C83.6223 124.264 84.04 124.335 84.4443 124.478C84.8487 124.621 85.2116 124.844 85.5331 125.149C85.8546 125.454 86.1081 125.85 86.2937 126.337C86.4793 126.821 86.5722 127.41 86.5722 128.102V128.629H80.5018V127.516H85.1155C85.1155 127.125 85.0359 126.778 84.8768 126.477C84.7177 126.172 84.494 125.931 84.2057 125.756C83.9206 125.58 83.5859 125.492 83.2014 125.492C82.7838 125.492 82.4192 125.595 82.1077 125.8C81.7994 126.003 81.5608 126.268 81.3918 126.596C81.226 126.921 81.1432 127.274 81.1432 127.655V128.525C81.1432 129.035 81.2327 129.469 81.4116 129.827C81.5939 130.185 81.8475 130.459 82.1723 130.648C82.4971 130.833 82.8766 130.926 83.3108 130.926C83.5925 130.926 83.8494 130.886 84.0814 130.807C84.3134 130.724 84.5139 130.601 84.6829 130.439C84.852 130.277 84.9812 130.076 85.0707 129.837L86.4777 130.091C86.365 130.505 86.1628 130.868 85.8712 131.18C85.5828 131.488 85.2199 131.728 84.7824 131.901C84.3482 132.07 83.8527 132.154 83.2959 132.154ZM89.288 127.466V132H87.8015V124.364H89.2283V125.607H89.3228C89.4984 125.202 89.7735 124.877 90.1481 124.632C90.5259 124.387 91.0015 124.264 91.5749 124.264C92.0953 124.264 92.551 124.374 92.9421 124.592C93.3332 124.808 93.6365 125.129 93.8519 125.557C94.0673 125.984 94.1751 126.513 94.1751 127.143V132H92.6886V127.322C92.6886 126.768 92.5444 126.336 92.256 126.024C91.9677 125.709 91.5716 125.552 91.0678 125.552C90.7231 125.552 90.4165 125.626 90.1481 125.776C89.8829 125.925 89.6725 126.143 89.5167 126.432C89.3642 126.717 89.288 127.062 89.288 127.466ZM101.471 126.228L100.124 126.467C100.067 126.294 99.9778 126.13 99.8552 125.974C99.7359 125.819 99.5735 125.691 99.368 125.592C99.1625 125.492 98.9056 125.442 98.5974 125.442C98.1765 125.442 97.8251 125.537 97.5434 125.726C97.2617 125.911 97.1208 126.152 97.1208 126.447C97.1208 126.702 97.2153 126.907 97.4042 127.063C97.5931 127.219 97.898 127.347 98.319 127.446L99.532 127.724C100.235 127.887 100.758 128.137 101.103 128.475C101.448 128.813 101.62 129.252 101.62 129.793C101.62 130.25 101.488 130.658 101.222 131.016C100.961 131.37 100.594 131.649 100.124 131.851C99.6563 132.053 99.1144 132.154 98.498 132.154C97.6428 132.154 96.9452 131.972 96.4049 131.607C95.8647 131.239 95.5332 130.717 95.4106 130.041L96.8474 129.822C96.9369 130.197 97.1208 130.48 97.3992 130.673C97.6776 130.862 98.0406 130.956 98.488 130.956C98.9752 130.956 99.3647 130.855 99.6563 130.653C99.948 130.447 100.094 130.197 100.094 129.902C100.094 129.663 100.004 129.463 99.8254 129.3C99.6497 129.138 99.3796 129.015 99.015 128.933L97.7224 128.649C97.0098 128.487 96.4828 128.228 96.1414 127.874C95.8034 127.519 95.6343 127.07 95.6343 126.526C95.6343 126.076 95.7603 125.681 96.0122 125.343C96.2641 125.005 96.6121 124.741 97.0562 124.553C97.5003 124.36 98.0091 124.264 98.5825 124.264C99.4078 124.264 100.057 124.443 100.531 124.801C101.005 125.156 101.319 125.631 101.471 126.228Z" fill="#B8B8CC"/>
<path d="M101 95V18.0693C101 17.4959 100.773 16.9459 100.368 16.5398L99.9167 16.087C99.3189 15.4872 98.3477 15.4872 97.75 16.087V16.087C97.1523 16.6867 96.1811 16.6867 95.5833 16.087V16.087C94.9856 15.4872 94.0144 15.4872 93.4167 16.087V16.087C92.8189 16.6867 91.8477 16.6867 91.25 16.087V16.087C90.6523 15.4872 89.6811 15.4872 89.0833 16.087V16.087C88.4856 16.6867 87.5144 16.6867 86.9167 16.087V16.087C86.3189 15.4872 85.3477 15.4872 84.75 16.087V16.087C84.1523 16.6867 83.1811 16.6867 82.5833 16.087V16.087C81.9856 15.4872 81.0144 15.4872 80.4167 16.087V16.087C79.8189 16.6867 78.8477 16.6867 78.25 16.087V16.087C77.6523 15.4872 76.6811 15.4872 76.0833 16.087V16.087C75.4856 16.6867 74.5144 16.6867 73.9167 16.087V16.087C73.3189 15.4872 72.3477 15.4872 71.75 16.087V16.087C71.1523 16.6867 70.1811 16.6867 69.5833 16.087V16.087C68.9856 15.4872 68.0144 15.4872 67.4167 16.087V16.087C66.8189 16.6867 65.8477 16.6867 65.25 16.087V16.087C64.6523 15.4872 63.6811 15.4872 63.0833 16.087V16.087C62.4856 16.6867 61.5144 16.6867 60.9167 16.087V16.087C60.3189 15.4872 59.3477 15.4872 58.75 16.087V16.087C58.1523 16.6867 57.1811 16.6867 56.5833 16.087V16.087C55.9856 15.4872 55.0144 15.4872 54.4167 16.087V16.087C53.8189 16.6867 52.8477 16.6867 52.25 16.087V16.087C51.6523 15.4872 50.6811 15.4872 50.0833 16.087V16.087C49.4856 16.6867 48.5144 16.6867 47.9167 16.087V16.087C47.3189 15.4872 46.3477 15.4872 45.75 16.087V16.087C45.1523 16.6867 44.1811 16.6867 43.5833 16.087V16.087C42.9856 15.4872 42.0144 15.4872 41.4167 16.087V16.087C40.8189 16.6867 39.8477 16.6867 39.25 16.087V16.087C38.6523 15.4872 37.6811 15.4872 37.0833 16.087L36.632 16.5398C36.2273 16.9459 36 17.4959 36 18.0693V95" stroke="#6666FF" stroke-width="1.5"/>
<rect opacity="0.8" y="95" width="138" height="1" fill="#E6E6FF"/>
<circle cx="123.5" cy="55.5" r="3.75" stroke="#B8B8CC" stroke-width="1.5"/>
<circle cx="15" cy="6" r="5.25" stroke="#6666FF" stroke-width="1.5"/>
<circle cx="15" cy="65" r="2" fill="#6666FF"/>
<path d="M102 1V9.5" stroke="#B8B8CC" stroke-width="1.5" stroke-linecap="round"/>
<path d="M116.5 15L108 15" stroke="#B8B8CC" stroke-width="1.5" stroke-linecap="round"/>
<path d="M112.011 5L106 11.0104" stroke="#B8B8CC" stroke-width="1.5" stroke-linecap="round"/>
<circle cx="54" cy="47" r="2" fill="#292933"/>
<circle cx="82" cy="47" r="2" fill="#292933"/>
<path d="M54.1924 62C61.9244 54.268 74.4604 54.268 82.1924 62" stroke="#292933" stroke-width="1.5" stroke-linecap="round"/>
</svg>
