<svg width="20" height="20" viewBox="0 0 20 20" fill="none" xmlns="http://www.w3.org/2000/svg">
<path d="M10.0057 19.7502C9.70666 19.7502 9.46399 19.507 9.46399 19.2086C9.46399 19.064 9.51979 18.9279 9.62216 18.8256C9.72454 18.7232 9.86049 18.6669 10.0051 18.6669C14.7815 18.6647 18.6675 14.7767 18.6669 10.0002V9.98123C18.6664 9.83607 18.7227 9.70016 18.8245 9.59773C18.9269 9.49482 19.0628 9.43848 19.2074 9.43794H19.2086C19.5065 9.43794 19.7497 9.68061 19.7502 9.97852V10.0002C19.7502 11.3159 19.4924 12.5926 18.9843 13.794C18.74 14.372 18.4377 14.9288 18.0862 15.4498C17.7374 15.9661 17.3371 16.4514 16.8961 16.8924C16.4552 17.3338 15.9699 17.7341 15.4542 18.0829C14.9331 18.435 14.3764 18.7378 13.7989 18.9821C12.5975 19.4908 11.3214 19.7491 10.0057 19.7502ZM7.62287 19.4404C7.57574 19.4404 7.52862 19.4345 7.48312 19.4219C7.19441 19.345 7.02216 19.0477 7.09908 18.759C7.16245 18.5223 7.37749 18.3565 7.62233 18.3565C7.66891 18.3565 7.71604 18.363 7.76208 18.3749C8.05079 18.4519 8.2225 18.7498 8.14612 19.0379C8.08275 19.2752 7.8677 19.4404 7.62287 19.4404ZM5.40095 18.5212C5.30616 18.5212 5.21299 18.4963 5.13012 18.4486C3.67412 17.608 2.45212 16.3968 1.59683 14.9467C1.16404 14.2134 0.829286 13.4258 0.602869 12.6068C0.368869 11.7617 0.250244 10.8848 0.250244 10.0002C0.250244 9.13249 0.364536 8.27125 0.589869 7.44033C0.808702 6.63433 1.13154 5.85866 1.54916 5.13445C1.64558 4.96762 1.82595 4.86362 2.01879 4.86362C2.11358 4.86362 2.20674 4.88854 2.28908 4.9362C2.41474 5.00824 2.50412 5.12524 2.54149 5.26499C2.57941 5.40474 2.55991 5.55045 2.48787 5.67612C1.73279 6.98533 1.33358 8.48033 1.33358 10.0002C1.33358 13.0856 2.99541 15.9635 5.67124 17.5104C5.67179 17.5104 5.67179 17.5104 5.67233 17.5104C5.8397 17.6074 5.94316 17.7877 5.94316 17.9811C5.94262 18.0754 5.9177 18.1685 5.87058 18.2503C5.77362 18.4177 5.59379 18.5212 5.40095 18.5212ZM18.8916 8.13908C18.6479 8.13908 18.4329 7.97495 18.369 7.73933C18.369 7.73879 18.369 7.73879 18.369 7.73879C18.291 7.45008 18.4626 7.15216 18.7509 7.0747C18.7975 7.06224 18.8446 7.05574 18.8922 7.05574C19.1365 7.05574 19.3515 7.22041 19.4149 7.45658C19.4924 7.74474 19.3212 8.04266 19.033 8.12066C18.9864 8.13312 18.9388 8.13908 18.8916 8.13908ZM17.9676 5.92095C17.7748 5.92095 17.5955 5.81804 17.4985 5.65174C15.9494 2.98837 13.0764 1.33358 10.0008 1.33358C8.4722 1.33358 6.97016 1.73658 5.65608 2.49924C5.57374 2.54691 5.47949 2.57237 5.3847 2.57237C5.19187 2.57237 5.01258 2.46891 4.91562 2.30262C4.86849 2.22083 4.84304 2.12766 4.84249 2.03341C4.84195 1.84004 4.94487 1.65912 5.11224 1.56216C5.83862 1.1402 6.61808 0.814661 7.42733 0.593661C8.26204 0.365619 9.12762 0.250244 9.9997 0.250244H10.0002C10.8826 0.250244 11.7574 0.368328 12.6002 0.600703C13.4171 0.826578 14.203 1.15916 14.9353 1.58979C16.3827 2.44074 17.5928 3.65733 18.435 5.10737C18.5851 5.36574 18.4973 5.69779 18.2389 5.84783C18.1567 5.89604 18.0624 5.92095 17.9676 5.92095ZM3.48074 4.0392C3.33612 4.0392 3.20016 3.98287 3.09779 3.88104C2.88654 3.66979 2.88599 3.32637 3.09724 3.11512C3.19962 3.0122 3.33558 2.95587 3.48074 2.95587C3.62483 2.95587 3.76079 3.01166 3.86316 3.11404C3.96554 3.21587 4.02187 3.35183 4.02241 3.49645C4.02241 3.64162 3.96608 3.77758 3.86424 3.87995C3.76187 3.98233 3.62537 4.0392 3.48074 4.0392Z" fill="url(#paint0_linear)"/>
<path d="M8.70855 14.8752C8.70086 14.8752 8.69317 14.875 8.68548 14.8747C8.48874 14.8664 8.31205 14.7519 8.22398 14.5757L6.05731 10.2424C5.92352 9.97485 6.03196 9.64947 6.29954 9.51568C6.56718 9.38194 6.89251 9.49038 7.0263 9.75791L8.75589 13.2172L13.4505 5.93497C13.6065 5.67974 13.9398 5.59914 14.1952 5.75525C14.4504 5.91125 14.5309 6.24464 14.3749 6.49988L9.17065 14.616C9.07201 14.7774 8.89667 14.8752 8.70855 14.8752Z" fill="url(#paint1_linear)"/>
<defs>
<linearGradient id="paint0_linear" x1="10.0002" y1="0.250243" x2="24.5112" y2="7.44189" gradientUnits="userSpaceOnUse">
<stop stop-color="#7B42A9"/>
<stop offset="1" stop-color="#ED0376"/>
</linearGradient>
<linearGradient id="paint1_linear" x1="10.6043" y1="4.04163" x2="17.8535" y2="7.09546" gradientUnits="userSpaceOnUse">
<stop stop-color="#7B42A9"/>
<stop offset="1" stop-color="#ED0376"/>
</linearGradient>
</defs>
</svg>
