<svg width="17" height="16" viewBox="0 0 17 16" fill="none" xmlns="http://www.w3.org/2000/svg">
<path d="M4.5 12.2668V3.7335C4.5 3.51258 4.67909 3.3335 4.9 3.3335H6.76667C6.98758 3.3335 7.16667 3.51258 7.16667 3.7335V12.2668C7.16667 12.4878 6.98758 12.6668 6.76667 12.6668H4.9C4.67909 12.6668 4.5 12.4878 4.5 12.2668Z" stroke="#FFA800" stroke-width="1.5"/>
<path d="M9.83301 12.2663V3.73301C9.83301 3.51209 10.0121 3.33301 10.233 3.33301H12.0997C12.3206 3.33301 12.4997 3.51209 12.4997 3.73301V12.2663C12.4997 12.4873 12.3206 12.6663 12.0997 12.6663H10.233C10.0121 12.6663 9.83301 12.4873 9.83301 12.2663Z" stroke="#FFA800" stroke-width="1.5"/>
</svg>
