<svg width="32" height="32" viewBox="0 0 32 32" fill="none" xmlns="http://www.w3.org/2000/svg">
<path fill-rule="evenodd" clip-rule="evenodd" d="M22.4574 0.253418C22.9645 0.253418 23.4503 0.419099 23.8045 0.71293L31.1503 6.80616C31.4934 7.09078 31.6855 7.47272 31.6855 7.87044V30.2217C31.6855 31.0633 30.8428 31.7455 29.8032 31.7455H2.19534C1.15575 31.7455 0.312988 31.0633 0.312988 30.2217V1.77723C0.312988 0.93565 1.15575 0.253418 2.19534 0.253418H22.4574Z" fill="#EEEEF3"/>
<path d="M31.1511 6.8067L30.9265 6.98408L31.1511 6.8067ZM23.5807 0.890862L30.9265 6.98408L31.3756 6.62931L24.0297 0.536097L23.5807 0.890862ZM31.3726 7.87098V30.2222H32V7.87098H31.3726ZM29.8039 31.4921H2.19608V32H29.8039V31.4921ZM0.627451 30.2222V1.77778H0V30.2222H0.627451ZM2.19608 0.507937H22.4581V0H2.19608V0.507937ZM0.627451 1.77778C0.627451 1.07646 1.32975 0.507937 2.19608 0.507937V0C0.983219 0 0 0.795939 0 1.77778H0.627451ZM2.19608 31.4921C1.32975 31.4921 0.627451 30.9234 0.627451 30.2222H0C0 31.2041 0.983219 32 2.19608 32V31.4921ZM31.3726 30.2222C31.3726 30.9234 30.6702 31.4921 29.8039 31.4921V32C31.0168 32 32 31.2041 32 30.2222H31.3726ZM30.9265 6.98408C31.2125 7.22126 31.3726 7.53956 31.3726 7.87098H32C32 7.40698 31.776 6.96137 31.3756 6.62931L30.9265 6.98408ZM24.0297 0.536097C23.6165 0.193294 23.0498 0 22.4581 0V0.507937C22.8808 0.507937 23.2855 0.646004 23.5807 0.890862L24.0297 0.536097Z" fill="#BBBBDA"/>
<path d="M7.7002 17.7225C7.7002 17.54 7.77536 17.3918 7.92567 17.278C8.07927 17.1643 8.27045 17.1074 8.49922 17.1074C8.73122 17.1074 8.92241 17.1643 9.07274 17.278C9.22634 17.3918 9.30311 17.54 9.30311 17.7225C9.30311 17.9024 9.22798 18.0492 9.07764 18.163C8.9273 18.2741 8.73452 18.3296 8.49922 18.3296C8.26719 18.3296 8.07601 18.2741 7.92567 18.163C7.77536 18.0492 7.7002 17.9024 7.7002 17.7225ZM15.3228 16.1788C15.3228 16.8402 15.1365 17.3706 14.7639 17.7701C14.3946 18.1669 13.8946 18.3654 13.2639 18.3654C12.728 18.3654 12.295 18.2146 11.9649 17.913V19.9368H10.5482V13.9923H11.862L11.911 14.413C12.2541 14.0796 12.7018 13.913 13.2541 13.913C13.9077 13.913 14.4159 14.1087 14.7786 14.5003C15.1414 14.8918 15.3228 15.4315 15.3228 16.1193V16.1788ZM13.9061 16.0955C13.9061 15.696 13.8178 15.3878 13.6414 15.1709C13.4682 14.954 13.2149 14.8455 12.8816 14.8455C12.4371 14.8455 12.1316 14.9831 11.9649 15.2582V17.0161C12.1381 17.2992 12.4469 17.4408 12.8914 17.4408C13.5678 17.4408 13.9061 16.9923 13.9061 16.0955ZM15.9845 16.1074C15.9845 15.4381 16.1692 14.905 16.5384 14.5082C16.911 14.1114 17.4191 13.913 18.0629 13.913C18.5793 13.913 19.0057 14.069 19.3423 14.3812V12.1907H20.7639V18.286H19.4845L19.4159 17.8296C19.0629 18.1868 18.6087 18.3654 18.0531 18.3654C17.4289 18.3654 16.9273 18.1669 16.5482 17.7701C16.1724 17.3706 15.9845 16.8164 15.9845 16.1074ZM17.4012 16.1908C17.4012 16.5929 17.4878 16.9011 17.661 17.1153C17.8342 17.3296 18.0858 17.4368 18.4159 17.4368C18.8538 17.4368 19.1626 17.2873 19.3423 16.9884V15.2939C19.1659 14.995 18.8603 14.8455 18.4257 14.8455C17.7427 14.8455 17.4012 15.2939 17.4012 16.1908ZM22.2492 18.286V14.8336H21.46V13.9923H22.2492V13.6272C22.2492 13.1458 22.4191 12.7728 22.759 12.5082C23.1021 12.241 23.5809 12.1074 24.1953 12.1074C24.3914 12.1074 24.6316 12.1339 24.9159 12.1868L24.9012 13.0757C24.7835 13.0519 24.6397 13.04 24.4698 13.04C23.9371 13.04 23.6708 13.2423 23.6708 13.6471V13.9923H24.7247V14.8336H23.6708V18.286H22.2492Z" fill="#8E8EC2"/>
<path d="M22.4197 7.68532L23.1604 0.302734L31.563 7.41002L22.4197 7.68532Z" fill="#BBBBDA"/>
</svg>
