<svg width="45" height="46" viewBox="0 0 45 46" fill="none" xmlns="http://www.w3.org/2000/svg">
<path fill-rule="evenodd" clip-rule="evenodd" d="M31.1206 1C31.8063 1 32.4631 1.23149 32.9421 1.64202L42.8747 10.1553C43.3386 10.553 43.5984 11.0866 43.5984 11.6423V42.871C43.5984 44.0469 42.4588 45 41.0531 45H3.72343C2.31775 45 1.17822 44.0469 1.17822 42.871V3.12903C1.17822 1.9532 2.31775 1 3.72343 1H31.1206Z" fill="#EEEEF3"/>
<path d="M42.8755 10.1554L42.5719 10.4033L42.8755 10.1554ZM32.6393 1.88996L42.5719 10.4033L43.1791 9.90758L33.2465 1.39429L32.6393 1.88996ZM43.175 11.6424V42.8711H44.0234V11.6424H43.175ZM41.054 44.6453H3.72429V45.3549H41.054V44.6453ZM1.60329 42.8711V3.12913H0.754883V42.8711H1.60329ZM3.72429 1.35494H31.1214V0.645264H3.72429V1.35494ZM1.60329 3.12913C1.60329 2.14928 2.55289 1.35494 3.72429 1.35494V0.645264C2.08433 0.645264 0.754883 1.75733 0.754883 3.12913H1.60329ZM3.72429 44.6453C2.55289 44.6453 1.60329 43.8508 1.60329 42.8711H0.754883C0.754883 44.2429 2.08433 45.3549 3.72429 45.3549V44.6453ZM43.175 42.8711C43.175 43.8508 42.2254 44.6453 41.054 44.6453V45.3549C42.694 45.3549 44.0234 44.2429 44.0234 42.8711H43.175ZM42.5719 10.4033C42.9586 10.7346 43.175 11.1794 43.175 11.6424H44.0234C44.0234 10.9941 43.7205 10.3715 43.1791 9.90758L42.5719 10.4033ZM33.2465 1.39429C32.6877 0.915329 31.9215 0.645264 31.1214 0.645264V1.35494C31.6929 1.35494 32.2402 1.54785 32.6393 1.88996L33.2465 1.39429Z" fill="#BBBBDA"/>
<path d="M11.1665 25.4063C11.1665 25.1512 11.2681 24.9443 11.4714 24.7853C11.6791 24.6264 11.9376 24.5469 12.2469 24.5469C12.5606 24.5469 12.8191 24.6264 13.0224 24.7853C13.2301 24.9443 13.3339 25.1512 13.3339 25.4063C13.3339 25.6576 13.2323 25.8628 13.029 26.0217C12.8257 26.1769 12.5651 26.2546 12.2469 26.2546C11.9332 26.2546 11.6747 26.1769 11.4714 26.0217C11.2681 25.8628 11.1665 25.6576 11.1665 25.4063ZM21.4733 23.2495C21.4733 24.1736 21.2214 24.9147 20.7177 25.4728C20.2183 26.0272 19.5423 26.3045 18.6894 26.3045C17.9648 26.3045 17.3793 26.0938 16.933 25.6724V28.5H15.0174V20.1946H16.7938L16.8601 20.7823C17.324 20.3166 17.9294 20.0837 18.6762 20.0837C19.5599 20.0837 20.247 20.3572 20.7375 20.9043C21.228 21.4513 21.4733 22.2053 21.4733 23.1664V23.2495ZM19.5577 23.1331C19.5577 22.575 19.4384 22.1443 19.1998 21.8413C18.9656 21.5382 18.6232 21.3866 18.1724 21.3866C17.5715 21.3866 17.1583 21.5788 16.933 21.9632V24.4194C17.1672 24.8149 17.5848 25.0126 18.1857 25.0126C19.1004 25.0126 19.5577 24.3861 19.5577 23.1331ZM22.368 23.1497C22.368 22.2146 22.6177 21.4698 23.1171 20.9154C23.6208 20.3609 24.3079 20.0837 25.1784 20.0837C25.8766 20.0837 26.4532 20.3018 26.9083 20.7379V17.6775H28.8305V26.1936H27.1006L27.0078 25.556C26.5305 26.055 25.9163 26.3045 25.1651 26.3045C24.3212 26.3045 23.6429 26.0272 23.1303 25.4728C22.6221 24.9147 22.368 24.1403 22.368 23.1497ZM24.2836 23.2662C24.2836 23.828 24.4007 24.2586 24.6349 24.558C24.8691 24.8574 25.2093 25.0071 25.6556 25.0071C26.2478 25.0071 26.6653 24.7983 26.9083 24.3806V22.0132C26.6697 21.5955 26.2566 21.3866 25.6689 21.3866C24.7454 21.3866 24.2836 22.0132 24.2836 23.2662ZM30.8388 26.1936V21.37H29.7717V20.1946H30.8388V19.6845C30.8388 19.0118 31.0686 18.4906 31.5282 18.121C31.9921 17.7477 32.6395 17.561 33.4702 17.561C33.7353 17.561 34.0601 17.598 34.4446 17.6719L34.4247 18.9139C34.2656 18.8806 34.0712 18.864 33.8414 18.864C33.1211 18.864 32.761 19.1467 32.761 19.7122V20.1946H34.186V21.37H32.761V26.1936H30.8388Z" fill="#8E8EC2"/>
<path d="M31.0693 11.3829L32.071 1.06812L43.4325 10.9982L31.0693 11.3829Z" fill="#BBBBDA"/>
</svg>
