<svg width="12" height="14" viewBox="0 0 12 14" fill="none" xmlns="http://www.w3.org/2000/svg">
<path d="M1 12.64V1.36C1 1.26452 1.03793 1.17295 1.10544 1.10544C1.17295 1.03793 1.26452 1 1.36 1H8.3512C8.44665 1.00008 8.53815 1.03807 8.6056 1.1056L10.4944 2.9944C10.528 3.02794 10.5546 3.06779 10.5727 3.11166C10.5908 3.15552 10.6001 3.20254 10.6 3.25V12.64C10.6 12.6873 10.5907 12.7341 10.5726 12.7778C10.5545 12.8214 10.528 12.8611 10.4946 12.8946C10.4611 12.928 10.4214 12.9545 10.3778 12.9726C10.3341 12.9907 10.2873 13 10.24 13H1.36C1.31272 13 1.26591 12.9907 1.22223 12.9726C1.17856 12.9545 1.13887 12.928 1.10544 12.8946C1.07201 12.8611 1.0455 12.8214 1.0274 12.7778C1.00931 12.7341 1 12.6873 1 12.64V12.64Z" stroke="#B8B8CC" stroke-width="1.5" stroke-linecap="round" stroke-linejoin="round"/>
<path d="M8.19995 3.03999V1.21239C8.20003 1.17043 8.21252 1.12944 8.23587 1.09458C8.25921 1.05972 8.29236 1.03256 8.33112 1.01651C8.36988 1.00047 8.41253 0.996263 8.45368 1.00443C8.49484 1.01259 8.53265 1.03276 8.56235 1.06239L10.5376 3.03759C10.5675 3.06718 10.5879 3.10501 10.5962 3.14626C10.6046 3.18751 10.6004 3.23031 10.5843 3.26919C10.5682 3.30808 10.5409 3.34128 10.5059 3.36458C10.4708 3.38787 10.4296 3.4002 10.3876 3.39999H8.55995C8.46447 3.39999 8.37291 3.36206 8.30539 3.29455C8.23788 3.22703 8.19995 3.13547 8.19995 3.03999Z" fill="black" stroke="#B8B8CC" stroke-width="1.5" stroke-linecap="round" stroke-linejoin="round"/>
</svg>
