<svg width="45" height="46" viewBox="0 0 45 46" fill="none" xmlns="http://www.w3.org/2000/svg">
    <path fill-rule="evenodd" clip-rule="evenodd" d="M31.1206 1C31.8063 1 32.4631 1.23149 32.9421 1.64202L42.8747 10.1553C43.3386 10.553 43.5984 11.0866 43.5984 11.6423V42.871C43.5984 44.0469 42.4588 45 41.0531 45H3.72343C2.31775 45 1.17822 44.0469 1.17822 42.871V3.12903C1.17822 1.9532 2.31775 1 3.72343 1H31.1206Z" fill="#EEEEF3" />
    <path d="M42.8755 10.1554L42.5719 10.4033L42.8755 10.1554ZM32.6393 1.88996L42.5719 10.4033L43.1791 9.90758L33.2465 1.39429L32.6393 1.88996ZM43.175 11.6424V42.8711H44.0234V11.6424H43.175ZM41.054 44.6453H3.72429V45.3549H41.054V44.6453ZM1.60329 42.8711V3.12913H0.754883V42.8711H1.60329ZM3.72429 1.35494H31.1214V0.645264H3.72429V1.35494ZM1.60329 3.12913C1.60329 2.14928 2.55289 1.35494 3.72429 1.35494V0.645264C2.08433 0.645264 0.754883 1.75733 0.754883 3.12913H1.60329ZM3.72429 44.6453C2.55289 44.6453 1.60329 43.8508 1.60329 42.8711H0.754883C0.754883 44.2429 2.08433 45.3549 3.72429 45.3549V44.6453ZM43.175 42.8711C43.175 43.8508 42.2254 44.6453 41.054 44.6453V45.3549C42.694 45.3549 44.0234 44.2429 44.0234 42.8711H43.175ZM42.5719 10.4033C42.9586 10.7346 43.175 11.1794 43.175 11.6424H44.0234C44.0234 10.9941 43.7205 10.3715 43.1791 9.90758L42.5719 10.4033ZM33.2465 1.39429C32.6877 0.915329 31.9215 0.645264 31.1214 0.645264V1.35494C31.6929 1.35494 32.2402 1.54785 32.6393 1.88996L33.2465 1.39429Z" fill="#BBBBDA" />
    <path d="M31.0693 11.3829L32.071 1.06812L43.4325 10.9982L31.0693 11.3829Z" fill="#BBBBDA" />
</svg>