<svg width="19" height="18" viewBox="0 0 19 18" fill="none" xmlns="http://www.w3.org/2000/svg">
<path d="M14.349 5.67608C14.0026 5.4731 13.5573 5.4731 13.1615 5.67608L10.3906 7.35071L8.51042 8.41638L5.78906 10.091C5.44271 10.294 4.9974 10.294 4.60156 10.091L2.47396 8.77161C2.1276 8.56862 1.88021 8.16265 1.88021 7.70594V5.16862C1.88021 4.76265 2.07812 4.35668 2.47396 4.10295L4.60156 2.83429C4.94792 2.63131 5.39323 2.63131 5.78906 2.83429L7.91667 4.1537C8.26302 4.35668 8.51042 4.76265 8.51042 5.21937V6.894L10.3906 5.77758V4.0522C10.3906 3.64623 10.1927 3.24026 9.79687 2.98653L5.83854 0.601458C5.49219 0.398472 5.04687 0.398472 4.65104 0.601458L0.59375 3.03728C0.197917 3.24026 0 3.64623 0 4.0522V8.82235C0 9.22832 0.197917 9.63429 0.59375 9.88802L4.60156 12.2731C4.94792 12.4761 5.39323 12.4761 5.78906 12.2731L8.51042 10.6492L10.3906 9.5328L13.112 7.90892C13.4583 7.70594 13.9036 7.70594 14.2995 7.90892L16.4271 9.17758C16.7734 9.38056 17.0208 9.78653 17.0208 10.2432V12.7806C17.0208 13.1865 16.8229 13.5925 16.4271 13.8462L14.349 15.1149C14.0026 15.3179 13.5573 15.3179 13.1615 15.1149L11.0339 13.8462C10.6875 13.6432 10.4401 13.2373 10.4401 12.7806V11.1567L8.5599 12.2731V13.9477C8.5599 14.3537 8.75781 14.7597 9.15365 15.0134L13.1615 17.3985C13.5078 17.6015 13.9531 17.6015 14.349 17.3985L18.3568 15.0134C18.7031 14.8104 18.9505 14.4044 18.9505 13.9477V9.12683C18.9505 8.72086 18.7526 8.31489 18.3568 8.06116L14.349 5.67608Z" fill="#8247E5"/>
</svg>
