<svg width="75" height="75" viewBox="0 0 75 75" fill="none" xmlns="http://www.w3.org/2000/svg">
<path opacity="0.1" d="M0 37.5C0 58.2107 16.7893 75 37.5 75C58.2107 75 75 58.2107 75 37.5C75 16.7893 58.2107 0 37.5 0C16.7893 0 0 16.7893 0 37.5Z" fill="#EDCEFF"/>
<path d="M47.6839 30.5004C46.976 30.0959 46.0657 30.0959 45.2566 30.5004L39.5929 33.838L35.7497 35.9619L30.1871 39.2994C29.4792 39.704 28.5689 39.704 27.7598 39.2994L23.4109 36.6698C22.7029 36.2653 22.1972 35.4562 22.1972 34.5459V29.4891C22.1972 28.68 22.6018 27.8709 23.4109 27.3652L27.7598 24.8367C28.4678 24.4322 29.378 24.4322 30.1871 24.8367L34.536 27.4663C35.244 27.8709 35.7497 28.68 35.7497 29.5902V32.9277L39.5929 30.7027V27.264C39.5929 26.4549 39.1884 25.6458 38.3793 25.1401L30.2883 20.3867C29.5803 19.9821 28.6701 19.9821 27.8609 20.3867L19.5677 25.2413C18.7586 25.6458 18.354 26.4549 18.354 27.264V36.771C18.354 37.5801 18.7586 38.3892 19.5677 38.8949L27.7598 43.6483C28.4678 44.0529 29.378 44.0529 30.1871 43.6483L35.7497 40.4119L39.5929 38.1869L45.1555 34.9505C45.8635 34.5459 46.7737 34.5459 47.5828 34.9505L51.9317 37.4789C52.6397 37.8835 53.1454 38.6926 53.1454 39.6028V44.6597C53.1454 45.4688 52.7408 46.2779 51.9317 46.7836L47.6839 49.312C46.976 49.7166 46.0657 49.7166 45.2566 49.312L40.9077 46.7836C40.1998 46.379 39.6941 45.5699 39.6941 44.6597V41.4233L35.8508 43.6483V46.9859C35.8508 47.795 36.2554 48.6041 37.0645 49.1098L45.2566 53.8632C45.9646 54.2678 46.8748 54.2678 47.6839 53.8632L55.8761 49.1098C56.5841 48.7052 57.0898 47.8961 57.0898 46.9859V37.3778C57.0898 36.5687 56.6852 35.7596 55.8761 35.2539L47.6839 30.5004Z" fill="white"/>
</svg>
