<svg width="215" height="168" viewBox="0 0 215 168" fill="none" xmlns="http://www.w3.org/2000/svg">
<path d="M212.8 79.2998C199.5 82.7998 186.2 86.3998 172.8 89.9998C172.1 90.2998 171.4 90.5998 170.7 90.8998C167 91.8998 163.4 92.9998 159.7 93.9998C159.4 93.9998 159 94.0998 158.7 94.0998C151 96.0998 143.4 98.0998 135.7 99.9998C134.7 100.3 133.7 100.6 132.7 100.9C120 104.3 107.4 107.6 94.7 111C88 112.7 81.4 114.4 74.7 116.1C74.3 116.3 74 116.5 73.6 116.7C68.6 118.1 63.5 119.4 58.5 120.8C56.5 121.2 54.6 121.6 52.6 122.1C52.2 122.2 51.9 122.4 51.5 122.5C43.5 124.6 35.5 126.8 27.5 128.9C27.2 128.9 26.9 129 26.5 129C25.8 129.5 25 130 24.3 130.4C24.1 130.4 23.8 130.4 23.6 130.4C23.2 130.3 22.8 130.1 22.4 130C22 130.2 21.5 130.4 21.1 130.6C20.5 130.7 20 130.8 19.4 130.9C18.6 131.1 17.9 131.4 17.1 131.6C15.9 131.8 14.7 132.1 13 132.4C13.8 135.2 14.5 137.5 15.2 140C23.6 137.8 31.4 135.7 39.2 133.7C47.1 143.9 56.4 151.7 67.3 157.8C67.2 157.6 67.1 157.4 67.2 157.2C67.5 157.1 67.8 156.9 68.1 156.8C68.5 156.5 68.8 156.2 69.2 155.9C69.2 156.8 69.3 157.8 69.3 158.7C84.1 165.6 99.5 168.7 115.8 166.8C127.4 165.5 138.5 162.4 148.5 156C148.8 156 149.1 155.9 149.3 155.6C149.7 155.3 150.1 155.1 150.5 154.8C150.8 154.8 151.1 154.7 151.3 154.4C151.6 154.2 152 153.9 152.3 153.7C153 153.3 153.6 152.9 154.3 152.4C154.6 152.2 154.9 151.9 155.3 151.7C155.7 151.4 156.2 151.1 156.6 150.8C157.2 150.4 157.7 150 158.3 149.7C159 149.1 159.8 148.5 160.5 147.9C161.8 146.7 163.1 145.6 164.3 144.4C164.5 144.1 164.7 143.9 165 143.7L165.2 143.5C165.5 143.2 165.8 142.9 166.1 142.7L166.2 142.6C166.5 142.3 166.8 142 167 141.7L167.2 141.5C167.5 141.2 167.7 140.9 168 140.7L168.2 140.5C168.4 140.2 168.6 140 168.9 139.8C170 138.5 171.2 137.1 172.3 135.8C172.6 135.4 172.9 135 173.1 134.7L173.2 134.6C173.4 134.3 173.6 134.1 173.8 133.9C174.3 133.2 174.8 132.6 175.2 131.9C175.5 131.5 175.7 131.2 176 130.8C178.4 126.5 180.8 122.1 183.2 117.8C183.4 117.4 183.7 117.1 183.9 116.7C187.1 109.7 189 102.4 190 94.7998C190 94.4998 190.1 94.0998 190.1 93.7998C196.4 91.8998 202.7 89.8998 208.9 87.9998C208.8 87.7998 208.7 87.4998 208.6 87.2998C209.7 87.3998 210.8 87.4998 211.9 87.5998C212.3 87.3998 212.6 87.1998 213 86.9998C213.3 86.9998 213.7 86.8998 214 86.8998C214 85.1998 214 83.5998 214 81.8998C214.2 81.0998 213.6 80.3998 212.8 79.2998ZM151.8 99.8998C151.8 99.9998 151.9 100.1 151.9 100.1C151.8 100.1 151.8 99.9998 151.8 99.8998ZM144.7 102.9C144.7 102.6 144.8 102.3 144.9 102C144.8 102.3 144.7 102.6 144.7 102.9ZM144.8 102.8L144.7 102.9L144.8 102.8ZM145.8 102.9L145.6 102.8L145.8 102.9ZM146.2 102.6C146 102.7 145.9 102.8 145.7 102.9C145.9 102.8 146.1 102.7 146.2 102.6ZM125.7 106C125.6 106.2 125.4 106.5 125.3 106.7C125.4 106.4 125.5 106.2 125.7 106ZM119.5 110C119.5 110 119.6 109.9 119.7 109.9C119.5 110 119.3 110.2 119.5 110ZM96.7 114.9C96.7 114.5 96.7 114.2 96.7 113.8C96.7 114.2 96.7 114.5 96.7 114.9ZM94.8 113C94.8 112.6 94.7 112.2 94.7 111.9C94.7 112.2 94.8 112.6 94.8 113ZM96.8 118.3C111.8 114.4 126.9 110.4 141.9 106.5C142.7 106.3 143.5 106.2 144.8 105.9C144.3 107.2 144 108.1 143.7 108.9C143.4 109.3 143.2 109.6 142.9 110C142.1 110.9 141.4 111.9 140.6 112.8C140.3 113.2 139.9 113.6 139.6 113.9C140 113.9 140.3 113.9 140.7 113.9C140.3 113.9 140 113.9 139.6 113.9C139.3 114.2 139 114.6 138.6 114.9C138.2 115.2 137.9 115.6 137.5 115.9C136.2 117 134.9 118.1 133.6 119.2C133.3 119.4 132.9 119.7 132.6 119.9C131.9 120.3 131.3 120.7 130.6 121.1C130.2 121.3 129.8 121.6 129.5 121.8C129.2 121.8 128.9 121.9 128.6 122.1C128.3 122.3 127.9 122.6 127.6 122.8C127.3 122.9 127 123 126.6 123.2C126.2 123.4 125.9 123.6 125.5 123.8C125.1 123.7 124.8 123.8 124.6 124.1C124.2 124.3 123.8 124.6 123.4 124.8C113.6 128 103.7 128.5 93.8 125.8C92.2 125.1 90.5 124.5 89.1 123.6C88 122.9 87.1 121.9 86.1 121C85.6 121.3 85.2 121.5 84.7 121.8C85.2 121.5 85.6 121.3 86.1 121C89.7 120.1 93.2 119.2 96.8 118.3ZM55.5 124.6C55.6 124.7 55.6 124.7 55.6 124.7L55.7 124.8C55.6 124.7 55.5 124.6 55.5 124.6ZM48.8 128C48.8 128 48.7 128 48.8 128C48.7 128 48.8 128 48.8 128ZM67.6 157.3C67.7 157.3 67.7 157.3 67.6 157.3V157.3ZM69.7 154.9C69.8 154.8 69.7 154.9 69.7 154.9V154.9ZM72.7 156.9C73.4 157.2 74 157.6 74.7 157.9C74.1 157.6 73.4 157.2 72.7 156.9ZM77.2 158.2C77.1 158.4 77 158.6 76.8 158.8C76.9 158.6 77.1 158.4 77.2 158.2ZM95.7 163.9C95.4 163.9 95.1 163.9 94.7 163.9C95 163.9 95.3 163.9 95.7 163.9ZM121.7 162.9C121.6 162.7 121.5 162.5 121.5 162.2C121.5 162.4 121.6 162.6 121.7 162.9C121.7 162.6 121.7 162.2 121.7 161.9C121.7 162.2 121.7 162.5 121.7 162.9ZM146.7 146C146.7 146.7 146.7 147.4 146.7 148.2C146.8 147.4 146.8 146.7 146.7 146ZM170.5 128.8C170.2 129.1 170 129.5 169.7 129.8C169.7 130.1 169.6 130.4 169.6 130.6C169.3 130.7 169 130.8 168.7 130.9C168.7 131.2 168.7 131.5 168.7 131.8C168.3 132.1 168 132.4 167.6 132.7C167.5 132.7 167.5 132.8 167.4 132.9C167.2 132.8 166.9 132.7 166.7 132.7C166.7 133 166.7 133.4 166.7 133.7V133.8C166.4 134.1 166.1 134.5 165.8 134.8C165.5 135.1 165.1 135.4 164.8 135.8C164.8 136.1 164.7 136.4 164.6 136.7C164.3 136.8 164 136.8 163.8 136.8C163.8 137.1 163.7 137.4 163.6 137.7C163.3 137.7 163.1 137.7 162.8 137.7C162.8 138 162.8 138.3 162.8 138.6C162.5 138.7 162.2 138.7 161.8 138.7C161.7 139 161.7 139.3 161.8 139.6C161.5 139.7 161.1 139.7 160.8 139.8C160.5 140.1 160.1 140.4 159.8 140.8C159.7 141.1 159.7 141.4 159.7 141.7C159.4 141.7 159.1 141.8 158.8 141.9L158.6 141.6C158.3 142 158 142.4 157.6 142.7C157.4 143 157.2 143.2 157 143.5C156.9 143.5 156.8 143.6 156.8 143.7C156.6 143.9 156.4 144 156.1 144.2C156 144.5 156 144.8 155.9 145.1C155.6 145.1 155.3 145.2 154.9 145.2C154.8 145.5 154.7 145.7 154.6 146C154.3 146 154.1 146 153.8 146L153.6 145.6C153.4 146 153.1 146.4 152.9 146.7C152.6 146.9 152.2 147 151.9 147.2C151.9 147.5 151.8 147.7 151.7 148C151.4 148 151.1 148 150.8 148C150.4 148.3 150.1 148.5 149.7 148.8L149.8 149.2C149.5 149.2 149.3 149.1 149 149.2C148.6 149.2 148.2 149.1 147.8 149.1C147.8 148.8 147.8 148.6 147.8 148.3C148.4 147.9 149 147.5 149.6 147.1C149.6 146.5 149.6 145.8 149.7 145.2C148.7 145.6 147.8 145.9 146.8 146.3C146.5 146.6 146.1 146.9 145.8 147.3C145.1 147.6 144.5 148 143.8 148.3C143.8 149 143.8 149.6 143.8 150.3C144.1 150.3 144.5 150.3 144.8 150.3C145.2 150 145.5 149.8 145.9 149.5L145.8 149.3H146.3L146.8 149.2C147.1 149.2 147.5 149.2 147.8 149.2C147.8 149.5 147.8 149.8 147.8 150.2C147.4 150.4 147.1 150.7 146.7 150.9L146.8 151.2L146.3 151.1H145.8C145.4 151.4 145.1 151.6 144.7 151.9C144.5 152.1 144.2 152.2 143.9 152.2C142.8 152.8 141.8 153.3 140.7 153.9C140 154.2 139.3 154.5 138.7 154.8L138.8 155.1C138.1 155.4 137.4 155.7 136.7 156C136 156.1 135.3 156.3 134.6 156.4C134 156.6 133.4 156.9 132.8 157.1C132.6 157.3 132.5 157.6 132.5 157.9H132.4C131.8 157.9 131.3 157.9 130.7 157.9C130.2 158 129.6 158.1 129.1 158.2C128.3 158.4 127.5 158.7 126.8 158.9C126.2 159 125.7 159.1 125.1 159.2C124.3 159.4 123.5 159.6 122.7 159.8C122.1 159.9 121.4 159.9 120.8 160C119.4 160.3 118.1 160.5 116.7 160.8C110.4 160.8 104 160.8 97.7 160.8C96 160.5 94.3 160.3 92.6 160C92.3 160 92 160 91.7 159.8C90.7 159.5 89.6 159.3 88.6 159H88.2L87.8 158.9C87 158.6 86.2 158.4 85.5 158.1C84.9 158 84.4 157.8 83.8 157.7C83.1 157.4 82.5 157.2 81.8 156.9C81.5 156.8 81.2 156.7 80.8 156.6C80.5 156.6 80.1 156.6 79.8 156.6C79.4 156.4 79.1 156.2 78.7 155.9L78.2 155.8H77.7C77.4 155.4 77 155.1 76.7 154.7C76.4 154.8 76 154.8 75.7 154.9C75.1 154.5 74.4 154.1 73.8 153.7L73.4 153.8H73C72.3 153.8 71.5 153.9 70.8 153.9C71.5 153.9 72.3 153.8 73 153.8C72.3 153.2 71.5 152.6 70.8 152C70.5 152 70.1 152 69.8 152L69.9 151.7C69.5 151.5 69 151.2 68.6 151C68.3 151 68.1 151 67.8 150.9C67.5 150.6 67.2 150.4 66.8 150.1L66.9 149.8C65.9 149.2 64.8 148.6 63.8 148C62.8 147.3 61.9 146.6 60.9 145.8C60.6 145.5 60.2 145.2 59.9 144.9C59.2 144.5 58.6 144 57.9 143.6H57.5H57.1C57.1 143.3 57 143.1 57 142.8V142.7C56.7 142.7 56.3 142.7 56 142.7C56 142.4 55.9 142.1 55.9 141.9C55.6 141.6 55.2 141.2 54.9 140.9C54.6 140.6 54.2 140.3 53.9 140C53.6 139.7 53.2 139.3 52.9 139C52.6 138.7 52.2 138.4 51.9 138C51.6 137.7 51.2 137.3 50.9 137C50.6 136.7 50.2 136.3 49.9 136C49.6 136 49.3 135.9 49.1 135.8C49 135.5 49 135.2 48.9 134.9C48.6 134.5 48.2 134.2 47.9 133.8C47.5 133.5 47.2 133.3 46.8 133C46.8 132.7 46.9 132.4 46.9 132.1H46.8C47.4 132.1 48.1 132.1 48.7 132.2C48.8 132.5 48.8 132.7 48.9 133C49.2 133 49.5 133.1 49.7 133.2C49.7 133.5 49.8 133.8 49.8 134.1C50.1 134.1 50.4 134.2 50.7 134.3C50.7 134.6 50.8 134.9 50.8 135.2C51.1 135.5 51.4 135.9 51.7 136.2C52 136.5 52.3 136.9 52.7 137.2C53 137.5 53.4 137.9 53.7 138.2C54 138.5 54.4 138.9 54.7 139.2C55.1 139.5 55.4 139.9 55.8 140.2C56.1 140.5 56.5 140.9 56.8 141.2C57.1 141.2 57.3 141.3 57.6 141.3C57.7 141.6 57.8 141.9 57.9 142.2H58.3H58.7C59 142.5 59.4 142.8 59.7 143.1L59.6 143.4C59.9 143.7 60.3 144 60.6 144.3C60.9 144.3 61.1 144.4 61.4 144.4C61.5 144.7 61.6 145 61.7 145.2C62.7 145.9 63.7 146.5 64.7 147.2C65 147.2 65.3 147.3 65.5 147.3C65.9 147.6 66.3 147.8 66.7 148.1C67 148.5 67.4 148.9 67.7 149.3C68 149.3 68.3 149.4 68.6 149.4C68.9 149.6 69.3 149.9 69.6 150.1C69.8 150.3 70.1 150.5 70.5 150.4C70.9 150.7 71.3 150.9 71.7 151.2L71.6 151.5C71.9 151.5 72.2 151.4 72.5 151.4C72.9 151.6 73.3 151.9 73.6 152.1C73.9 152.3 74.2 152.4 74.5 152.4C74.7 152.6 74.8 152.9 74.9 153.2H75.3H75.6C75.9 153.4 76.2 153.5 76.5 153.5C76.6 153.7 76.7 153.9 76.8 154.1C77.1 154.1 77.3 154.2 77.6 154.2C78.2 154.3 78.7 154.5 79.3 154.6C79.8 154.8 80.2 155.1 80.7 155.3C81.2 155.4 81.7 155.5 82.2 155.6C82.4 155.9 82.5 156.1 82.7 156.4C83 156.3 83.4 156.3 83.7 156.3C84 156.5 84.4 156.6 84.7 156.8C85.1 157 85.5 157.2 85.9 157.4C86.2 157.4 86.5 157.4 86.7 157.3C87 157.4 87.3 157.6 87.7 157.7C88.3 157.7 88.8 157.6 89.4 157.6C89.8 157.8 90.3 158 90.7 158.2C91 158.3 91.4 158.5 91.7 158.6C92.6 158.6 93.4 158.6 94.3 158.6C94.5 158.8 94.7 159.1 94.9 159.3C95.5 159.3 96.1 159.2 96.7 159.2C97.4 159.4 98.1 159.5 98.7 159.7C104 159.7 109.4 159.7 114.7 159.7C114.7 159.9 114.7 160.2 114.7 160.4C115 160.2 115.4 159.9 115.7 159.7C116.4 159.5 117 159.4 117.7 159.2C118.3 159.2 118.8 159.2 119.4 159.3C119.6 159 119.8 158.8 120 158.6C120.9 158.6 121.8 158.6 122.7 158.6C123.3 158.5 123.9 158.4 124.5 158.3C125.2 158.1 126 157.8 126.7 157.6C127 157.5 127.3 157.4 127.6 157.4C128.3 157.2 129 156.9 129.7 156.7C130 156.6 130.3 156.5 130.6 156.3C131.1 156 131.6 155.7 132.1 155.4C132.6 155.5 133.1 155.5 133.6 155.6L133.5 155.3C134 155 134.5 154.7 135.1 154.4C135.8 154.3 136.5 154.2 137.2 154.2C137.9 153.9 138.6 153.6 139.3 153.2C140.4 152.6 141.5 152.1 142.6 151.5C142.9 151.1 143.3 150.7 143.6 150.4C143.6 149.7 143.6 149.1 143.6 148.4C140.6 149.8 137.6 151.2 134.5 152.5C134 152.7 133.5 153 133 153.2C132.5 153.3 131.9 153.5 131.4 153.6C131 153.8 130.5 154 130.1 154.2C129.5 154.3 129 154.5 128.4 154.6C128.1 154.8 127.8 155 127.4 155.2C127.1 155.3 126.7 155.4 126.4 155.4C124.7 155.7 123.1 156.1 121.4 156.4C120.6 156.6 119.8 156.9 118.9 157.1C117.4 157.2 115.9 157.3 114.4 157.4C112.9 157.7 111.4 157.9 109.9 158.2C107.6 158.2 105.3 158.2 103 158.2C101.5 158 100 157.7 98.5 157.5C97.3 157.4 96.1 157.3 94.8 157.2C94 157 93.2 156.7 92.5 156.5C91.6 156.4 90.7 156.3 89.8 156.1C89.3 155.9 88.9 155.7 88.4 155.5C88.1 155.4 87.7 155.4 87.4 155.3C86.9 155.2 86.4 155.1 85.9 155.1C85.4 154.9 84.9 154.6 84.4 154.4C83.9 154.3 83.3 154.2 82.8 154.1C82.3 153.9 81.9 153.6 81.4 153.4C81.1 153.2 80.8 153.2 80.5 153.2C80.1 153.2 79.7 153.2 79.4 153.3C79.8 153.3 80.2 153.3 80.5 153.2C80.1 153 79.7 152.8 79.4 152.6C79.1 152.5 78.7 152.4 78.4 152.3C78.2 152.1 78 152.1 77.8 152.1C77.3 151.9 76.9 151.6 76.4 151.4C76.2 151.2 75.9 151.1 75.6 151.2C75.2 151 74.8 150.7 74.4 150.5C74.2 150.3 73.9 150.2 73.6 150.2C73.2 150 72.8 149.7 72.4 149.5C72.2 149.3 71.9 149.2 71.6 149.2C71.2 148.9 70.8 148.7 70.3 148.4C70.1 148.2 69.9 148.1 69.7 148.2C69.2 147.9 68.8 147.6 68.3 147.3C67.7 146.9 67 146.5 66.4 146.2C65 145.3 63.7 144.3 62.3 143.4C62 143.1 61.6 142.9 61.3 142.6C60.4 141.8 59.4 141.1 58.5 140.3C58.1 140 57.7 139.7 57.3 139.4C57 139.1 56.6 138.9 56.3 138.6C55.6 137.9 54.9 137.2 54.1 136.5C53.8 136.2 53.5 135.8 53.2 135.5C52.9 135.2 52.6 134.8 52.2 134.5C51.9 134.2 51.6 133.8 51.2 133.5L51.1 133.6C50.8 133.2 50.5 132.9 50.2 132.5C51.5 131.8 52.8 131 54.3 130.5C56.6 129.7 58.9 129.1 61.2 128.3C62.5 128 63.8 127.7 65.2 127.4C65.9 127.1 66.7 126.9 67.4 126.6C68.7 126.3 70 126 71.3 125.7C72.9 125.3 73.9 125.8 74.3 127.4C73.4 128.3 72.5 129.3 71.6 130.2C70.2 129.7 69 129.2 67.7 128.7C67.5 128.9 67.3 129.2 67.1 129.4C67.8 130.5 68.6 131.6 69.5 133C68.6 134 67.7 135.1 66.9 136C66.1 135.7 65.6 135.5 65.2 135.3C64.9 135 64.6 134.8 64.3 134.5C63.6 134.4 62.9 134.3 62.2 134.1C62 134.3 61.8 134.5 61.6 134.7C61.8 134.9 61.9 135.1 62.1 135.4C62.4 135.7 62.7 136 63.1 136.3C63.5 136.6 63.8 136.9 64.2 137.2C65.3 138.1 66.4 139 67.8 140.2C70.6 136.4 73.3 132.9 75.9 129.3C76.7 128.7 77.4 128 78.2 127.4C77.7 126.5 77.2 125.5 76.4 124C78.8 123.8 81 123.6 83.2 123.4C83.5 123.7 83.9 123.9 84.2 124.2C86.5 125.2 88.9 126.2 91.2 127.2C101.5 131.2 111.9 131.1 122.2 127.2C122.9 126.9 123.6 126.6 124.3 126.3C124.6 126.2 124.9 126.1 125.3 126C125.7 125.8 126.1 125.5 126.5 125.3C126.8 125.4 127.1 125.3 127.3 125C127.7 124.8 128.1 124.5 128.5 124.3C128.8 124.3 129.1 124.2 129.3 124C129.7 123.8 130 123.5 130.4 123.3C131 122.9 131.7 122.5 132.3 122.1C132.7 121.8 133.1 121.6 133.5 121.3C134.1 120.8 134.7 120.4 135.4 119.9C135.7 119.7 136 119.4 136.2 119.2H136.3C136.6 118.9 137 118.6 137.3 118.3C137.6 118 138 117.6 138.3 117.3C138.6 117 139 116.6 139.3 116.3C139.6 116 140 115.6 140.3 115.3C140.6 114.9 140.9 114.6 141.2 114.2C141.5 113.9 141.8 113.5 142.1 113.2L142.2 113.1C142.5 112.8 142.7 112.5 143 112.3C143.5 111.7 143.9 111 144.4 110.4C144.7 110 144.9 109.6 145.2 109.3C146.1 108.1 146.9 106.9 148 105.3C151.8 104.6 155.6 101.7 160.2 104.1C160.2 105.8 160.2 107.4 160.2 108.6C162.3 112.7 165.7 112.2 169.4 111.5C170 110.1 170.9 108.2 172 105.9C168.8 104.5 165.9 103.2 162.2 101.5C167.8 99.8998 172.5 98.5998 177.3 97.1998C178.1 97.5998 178.8 97.8998 179.6 98.2998C179.2 97.2998 178.7 96.2998 178.3 95.2998C178.7 96.2998 179.2 97.2998 179.6 98.2998C179.5 99.1998 179.3 100.1 179.2 101.1C179 101.8 178.7 102.6 178.5 103.3C178.4 103.9 178.3 104.4 178.2 105C178 105.4 177.8 105.9 177.6 106.3C177.5 106.9 177.4 107.4 177.2 108C177 108.4 176.7 108.9 176.5 109.3C176.4 109.8 176.3 110.3 176.2 110.8C176 111.3 175.7 111.8 175.5 112.2C175.3 112.4 175.2 112.7 175.3 113C175.1 113.4 174.8 113.8 174.6 114.2C174.4 114.4 174.3 114.7 174.3 115.1C174.1 115.5 173.9 115.8 173.6 116.2C173.1 117.2 172.7 118.1 172.2 119.1C171.9 119.5 171.7 119.9 171.4 120.3C171.2 120.5 171.1 120.7 171.1 121C170.8 121.4 170.6 121.9 170.3 122.3C169.2 123.9 168.2 125.5 167.1 127.1C166.8 127.5 166.5 127.9 166.2 128.3C165.9 128.6 165.7 129 165.4 129.3C165 129.9 164.5 130.5 164.1 131C163.8 131.4 163.4 131.8 163.1 132.2C162.8 132.5 162.4 132.9 162.1 133.2C161.8 133.5 161.4 133.8 161.1 134.1C160.8 134.4 160.5 134.8 160.1 135.1C159.8 135.4 159.4 135.8 159.1 136.1C158.8 136.4 158.4 136.8 158.1 137.1C157.8 137.4 157.4 137.7 157.1 138.1C156.8 138.4 156.5 138.7 156.1 139.1C155.3 139.8 154.6 140.5 153.8 141.1C152.5 142.1 151.2 143.1 150 144C149.7 144.4 149.5 144.7 149.2 145.1C149.5 145.1 149.8 145.1 150.2 145.2C150.5 145.1 150.9 145.1 151.2 145V145.5C151.5 145.4 151.9 145.3 152.2 145.1C152.6 144.8 152.9 144.5 153.3 144.1C153.6 144.1 153.9 144.1 154.2 144.1C154.2 144.5 154.2 144.8 154.3 145.2C154.6 145.2 154.9 145.1 155.3 145.1C155.4 144.8 155.5 144.5 155.5 144.2C155.1 144.2 154.7 144.1 154.2 144.1C154.2 143.8 154.2 143.6 154.2 143.3C154.9 142.6 155.5 141.9 156.2 141.1C156.5 141.1 156.8 141.1 157.1 141C157.2 140.7 157.2 140.4 157.3 140.1C157.6 140 157.8 140 158.1 140C158.4 139.7 158.8 139.3 159.1 139C159.4 138.7 159.8 138.3 160.1 138C160.4 137.7 160.8 137.3 161.1 137C161.4 136.7 161.7 136.3 162.1 136C162.4 135.6 162.7 135.3 163 134.9C163.1 134.6 163.1 134.3 163.1 134C163.1 134.3 163 134.6 163 134.9C163.4 135 163.8 135.1 164.2 135.1C164.1 134.6 164.1 134.2 164 133.7C164.1 133.5 164.1 133.2 164.1 133C164.4 132.6 164.7 132.3 165.1 131.9C165.4 131.8 165.7 131.7 166 131.6C166 131.3 166 131.1 166 130.8L166.3 130.9C166.6 130.6 166.9 130.2 167.2 129.9H167.3C168 128.9 168.7 127.9 169.4 126.9C169.7 126.9 169.9 126.9 170.2 126.9L170.4 128.2C170.7 128.1 171 128 171.3 127.9C171.3 127.6 171.3 127.2 171.3 126.9C171.6 126.8 171.9 126.7 172.2 126.7C171.9 126.8 171.6 126.9 171.3 126.9C171.3 127.2 171.3 127.6 171.3 127.9C171 128 170.7 128.1 170.4 128.2C170.4 128.4 170.4 128.7 170.4 128.9L170.5 128.8ZM155.8 145C155.8 144.9 155.8 145 155.8 145V145ZM162.6 107.6C163 106.5 163.2 105.9 163.6 104.8C165.5 105.6 167.2 106.3 169.1 107.1C167 111.1 165.1 108.2 162.6 107.6ZM161.9 134.1C161.9 134.1 161.8 134 161.7 133.9L161.9 134.1ZM160 136.1C160 136.1 159.9 136.1 160 136.1V136.1ZM157.8 138C157.7 137.9 157.6 137.8 157.6 137.8L157.8 138ZM183.7 97.8998C183.6 98.5998 183.6 99.1998 183.5 99.8998C183.3 100.6 183 101.4 182.8 102.1C182.7 102.7 182.6 103.3 182.5 103.9C182.2 104.2 181.8 104.6 181.5 104.9C181.6 105.3 181.7 105.6 181.8 106C181.8 106.3 181.8 106.6 181.6 106.9C181.3 107.6 181 108.2 180.7 108.9C180.7 109.2 180.8 109.6 180.8 109.9C180.6 110.2 180.6 110.4 180.6 110.7C180.4 111.1 180.2 111.5 179.9 111.9C179.7 112.2 179.6 112.5 179.4 112.9C179.2 113.3 179 113.7 178.8 114.1C178.8 114.4 178.8 114.6 178.6 114.9C178.6 115.2 178.6 115.6 178.7 115.9C178.5 116.3 178.2 116.6 178 117C177.7 117.4 177.3 117.8 177 118.2C177 118.5 176.9 118.7 176.7 118.9C176 120.3 175.3 121.6 174.6 123C174.4 123.3 174.1 123.7 173.9 124C173.5 124.6 173.1 125.3 172.8 125.9C172.5 125.9 172.2 125.9 171.9 125.9C171.9 126.2 171.9 126.6 171.9 126.9C171.6 126.9 171.2 126.9 170.9 126.9C170.9 126.6 170.9 126.2 170.9 125.9C171.3 125.2 171.7 124.6 172 123.9C172.3 123.5 172.6 123.2 172.8 122.8C172.8 122.5 172.9 122.2 173.2 121.9C173.4 121.6 173.6 121.2 173.9 120.9C173.9 120.6 173.9 120.3 173.9 120C174.1 119.7 174.4 119.4 174.6 119.1C174.7 118.8 174.8 118.5 175 118.2C175.2 118 175.5 117.9 175.8 117.8C175.8 117.5 175.8 117.3 175.8 117L176.1 117.1C176 116.8 176 116.4 176 116.1C176.2 115.8 176.4 115.4 176.7 115.1C176.9 114.8 177.1 114.4 177.4 114.1C177.6 114.1 177.9 114.1 178.1 114.1C178.1 113.8 178.1 113.4 178.1 113.1C178.2 112.8 178.3 112.4 178.4 112.1C178.6 111.7 178.9 111.4 179.1 111C179.1 110.7 179.1 110.4 179 110.1C179.2 109.8 179.2 109.5 179.2 109.2C179.5 108.5 179.7 107.8 180 107.1C180.1 106.8 180.3 106.5 180.4 106.1C180.6 105.7 180.8 105.4 181.1 105L181.2 105.1C181.1 104.8 181.1 104.4 181 104.1C181.1 103.8 181.2 103.4 181.4 103.1C181.6 102.4 181.9 101.7 182.1 101C182.2 100.4 182.3 99.7998 182.4 99.0998C182.7 98.0998 183 97.1998 183.3 96.1998C183.3 95.8998 183.4 95.5998 183.4 95.2998C185.3 95.3998 184.6 96.5998 183.7 97.8998ZM208.7 84.8998C209 84.9998 209.3 84.9998 208.7 84.8998V84.8998Z" fill="#EDCEFF"/>
<path d="M12.7008 84.6999C13.4008 84.3999 14.1008 84.1999 14.7008 83.8999C22.2008 81.9999 29.7008 80.0999 37.2008 78.0999C50.3008 74.5999 63.5008 71.1999 76.6008 67.6999C77.3008 67.3999 78.0008 67.0999 78.7008 66.6999C79.0008 66.6999 79.4008 66.5999 79.7008 66.5999C84.7008 65.2999 89.7008 63.9999 94.7008 62.6999C96.8008 62.0999 98.8008 61.4999 100.901 60.8999C102.501 60.4999 104.101 60.0999 105.701 59.6999C106.501 59.4999 107.201 59.1999 108.001 58.9999C107.601 58.5999 107.201 58.1999 106.801 57.8999C106.401 57.9999 106.001 58.1999 105.501 58.2999C106.001 58.1999 106.401 57.9999 106.801 57.8999C107.201 58.2999 107.601 58.6999 108.001 58.9999C112.301 57.8999 116.501 56.7999 120.801 55.6999C121.801 55.3999 122.801 54.9999 123.801 54.6999C123.101 54.3999 122.401 54.0999 121.701 53.7999C121.401 53.7999 121.101 53.7999 120.901 53.6999C121.201 53.7999 121.501 53.7999 121.701 53.7999C122.401 54.0999 123.101 54.3999 123.801 54.6999C129.401 53.2999 135.001 51.9999 140.601 50.5999C141.001 50.3999 141.401 50.1999 141.801 49.9999C143.101 49.5999 144.501 49.1999 145.801 48.6999C146.101 48.6999 146.401 48.5999 146.801 48.5999C147.501 48.3999 148.301 48.0999 149.001 47.8999C150.901 47.4999 152.901 46.9999 154.801 46.5999C155.201 46.3999 155.601 46.1999 156.001 45.9999C156.601 45.8999 157.201 45.6999 157.801 45.5999C166.101 43.4999 174.401 41.3999 182.801 39.1999C188.801 37.5999 194.901 35.9999 201.101 34.2999C200.901 32.7999 200.801 31.5999 200.501 30.4999C200.201 29.2999 199.701 28.0999 199.101 26.3999C195.901 27.5999 192.901 28.6999 190.001 29.8999C190.301 30.1999 190.501 30.4999 190.801 30.6999C190.501 30.7999 190.201 30.7999 189.901 30.7999C189.901 30.4999 189.901 30.1999 189.901 29.8999C188.901 29.8999 188.001 29.8999 187.001 29.8999C187.701 30.4999 188.301 31.0999 189.001 31.6999C188.301 31.0999 187.701 30.4999 187.001 29.8999C186.301 30.1999 185.601 30.3999 184.901 30.6999C185.601 31.3999 186.201 32.0999 186.901 32.7999C186.201 32.0999 185.601 31.3999 184.901 30.6999C181.601 31.3999 178.201 32.1999 176.201 32.5999C173.601 30.4999 171.801 29.0999 170.001 27.5999C170.001 27.5999 170.001 27.5999 169.901 27.6999L170.001 27.5999C169.701 27.2999 169.401 26.8999 169.001 26.5999C166.601 24.2999 164.301 21.8999 161.901 19.5999C161.501 19.2999 161.201 18.9999 160.801 18.7999C159.501 17.7999 158.201 16.6999 157.001 15.6999C156.301 15.0999 155.501 14.5999 154.801 13.9999C154.201 13.5999 153.501 13.2999 152.901 12.8999C152.701 12.5999 152.401 12.4999 152.101 12.4999C149.101 10.8999 146.101 9.2999 143.101 7.6999C142.401 7.3999 141.701 6.9999 141.001 6.6999C140.701 6.4999 140.301 6.1999 140.001 5.9999C139.501 5.8999 139.001 5.6999 138.401 5.5999C137.901 5.3999 137.401 5.0999 136.901 4.8999C136.601 4.6999 136.301 4.5999 136.001 4.6999C134.601 4.1999 133.301 3.5999 131.901 3.0999C131.601 2.9999 131.301 2.8999 131.001 2.7999C130.701 2.7999 130.301 2.6999 130.001 2.6999C129.701 2.4999 129.401 2.4999 129.101 2.4999C129.101 2.4999 129.101 2.4999 129.101 2.5999C128.001 2.3999 127.001 2.1999 125.901 1.9999C125.601 1.8999 125.301 1.7999 124.901 1.6999C124.201 1.4999 123.601 1.1999 122.901 0.999902C122.001 0.899902 121.001 0.799902 120.101 0.699902C119.001 0.499902 118.001 0.199902 116.901 -9.76548e-05C115.901 -9.76548e-05 114.901 -9.76548e-05 113.801 -0.100098C113.501 -0.100098 113.101 -0.100098 112.801 -0.100098C108.101 -0.100098 103.501 -9.76548e-05 98.8008 -9.76548e-05C98.5008 -9.76548e-05 98.1008 -9.76548e-05 97.8008 -9.76548e-05C95.0008 0.499902 92.2008 1.0999 89.4008 1.5999C88.0008 1.8999 86.7008 1.9999 85.4008 2.2999C76.2008 4.6999 67.7008 8.6999 59.7008 13.8999L56.7008 15.8999C53.4008 18.8999 50.1008 21.8999 46.8008 24.9999C46.2008 25.6999 45.5008 26.2999 44.9008 26.9999C44.2008 27.8999 43.4008 28.7999 42.7008 29.7999C42.4008 30.1999 42.1008 30.5999 41.8008 30.9999C41.6008 31.2999 41.3008 31.5999 41.1008 31.8999C40.3008 32.8999 39.6008 33.8999 38.8008 34.8999C38.6008 35.1999 38.3008 35.4999 38.1008 35.8999C37.7008 36.5999 37.2008 37.2999 36.8008 37.8999C36.2008 38.8999 35.5008 39.8999 34.9008 40.8999C34.5008 41.5999 34.2008 42.1999 33.8008 42.8999C33.6008 43.1999 33.3008 43.5999 33.1008 43.8999C32.8008 44.0999 32.7008 44.3999 32.8008 44.7999C32.6008 45.1999 32.3008 45.4999 32.1008 45.8999C32.0008 46.1999 31.9008 46.4999 31.8008 46.7999C31.6008 47.1999 31.4008 47.4999 31.1008 47.8999C31.0008 48.1999 30.9008 48.5999 30.8008 48.8999C30.6008 49.1999 30.4008 49.5999 30.2008 49.8999C29.7008 51.1999 29.2008 52.5999 28.7008 53.8999C28.5008 54.2999 28.3008 54.5999 28.0008 54.9999C26.3008 61.1999 24.6008 67.3999 22.9008 73.5999C18.2008 75.0999 13.5008 76.4999 8.80078 77.9999C6.40078 78.5999 4.10078 79.1999 1.70078 79.7999C0.600784 80.8999 -0.799216 81.9999 0.800784 83.6999C1.10078 84.3999 1.30078 85.0999 1.60078 85.7999C1.80078 86.2999 2.10078 87.2999 2.20078 87.2999C3.80078 86.8999 5.30078 86.3999 6.90078 85.8999C8.80078 85.4999 10.7008 85.0999 12.7008 84.6999ZM190.801 31.8999C190.401 31.8999 190.101 31.8999 189.701 31.8999C190.101 31.8999 190.401 31.8999 190.801 31.8999ZM189.601 31.8999C189.001 32.2999 188.301 32.5999 187.701 32.9999C188.301 32.5999 189.001 32.2999 189.601 31.8999ZM186.701 32.8999C186.001 32.9999 185.301 32.9999 184.501 33.0999C185.301 32.9999 186.001 32.8999 186.701 32.8999ZM181.601 37.8999C181.301 37.5999 180.901 37.2999 180.601 36.9999C180.901 37.2999 181.301 37.5999 181.601 37.8999ZM178.201 35.2999C178.001 35.4999 177.801 35.6999 177.501 35.8999C177.801 35.6999 178.001 35.4999 178.201 35.2999ZM170.901 36.2999C171.101 36.4999 171.301 36.5999 171.601 36.7999C171.401 36.5999 171.201 36.3999 170.901 36.2999ZM33.5008 63.7999C33.3008 64.4999 33.0008 65.1999 32.8008 65.8999C32.8008 66.1999 32.8008 66.4999 32.6008 66.6999C32.0008 68.3999 31.3008 69.9999 30.7008 71.6999C30.5008 71.5999 30.2008 71.4999 30.0008 71.6999C30.5008 69.2999 31.0008 66.8999 31.5008 64.4999C31.6008 63.8999 31.7008 63.3999 31.8008 62.7999C32.1008 62.0999 32.4008 61.3999 32.6008 60.7999C32.6008 60.4999 32.5008 60.0999 32.5008 59.7999L32.7008 59.8999C33.0008 59.8999 33.3008 59.7999 33.6008 59.8999C33.6008 60.5999 33.7008 61.2999 33.7008 61.9999C33.7008 62.2999 33.7008 62.5999 33.8008 62.8999C33.8008 63.1999 33.6008 63.4999 33.5008 63.7999ZM43.8008 73.7999C44.1008 73.1999 44.4008 72.4999 44.7008 71.8999C44.4008 72.4999 44.1008 73.1999 43.8008 73.7999ZM45.7008 60.0999C47.3008 57.1999 47.4008 57.1999 51.7008 60.4999C49.3008 62.0999 49.3008 62.0999 45.7008 60.0999ZM56.7008 68.8999C57.1008 69.1999 57.4008 69.4999 57.8008 69.7999C57.5008 69.4999 57.1008 69.1999 56.7008 68.8999ZM64.8008 66.1999L64.9008 66.0999C64.9008 66.1999 64.9008 66.1999 64.8008 66.1999ZM65.1008 65.9999C65.0008 65.7999 64.8008 65.5999 64.6008 65.3999C64.8008 65.5999 65.0008 65.7999 65.1008 65.9999ZM79.0008 64.3999C79.3008 64.9999 79.5008 65.3999 79.7008 65.7999C79.5008 65.3999 79.3008 64.9999 79.0008 64.3999ZM91.7008 58.7999C92.0008 58.7999 92.3008 58.7999 92.7008 58.8999C92.3008 58.8999 92.0008 58.7999 91.7008 58.7999ZM112.901 56.2999C113.001 56.1999 113.101 56.0999 113.201 55.9999C113.001 55.7999 112.801 55.6999 112.601 55.4999C112.801 55.6999 113.001 55.7999 113.201 55.9999C113.101 55.9999 113.001 56.0999 112.901 56.2999ZM119.801 47.8999C119.101 48.1999 118.401 48.3999 117.701 48.6999L117.801 48.7999C117.501 48.7999 117.101 48.8999 116.801 48.8999C108.101 51.2999 99.5008 53.5999 90.8008 55.9999C89.7008 56.1999 88.7008 56.4999 87.6008 56.6999C82.0008 57.9999 76.4008 59.2999 70.7008 60.6999C70.4008 60.7999 70.0008 60.7999 69.7008 60.8999C69.9008 60.5999 70.0008 60.1999 70.2008 59.8999C70.0008 59.7999 69.9008 59.6999 69.7008 59.8999C70.1008 59.2999 70.4008 58.5999 70.8008 57.9999C71.1008 57.5999 71.4008 57.1999 71.7008 56.7999V56.6999C71.9008 56.3999 72.2008 56.0999 72.4008 55.7999C73.2008 54.7999 74.1008 53.7999 74.9008 52.7999C74.9008 52.7999 74.9008 52.7999 74.8008 52.7999C77.1008 50.7999 79.5008 48.8999 81.8008 46.8999C82.4008 46.4999 83.0008 46.0999 83.7008 45.7999C86.2008 44.4999 88.7008 43.2999 91.1008 41.9999C98.2008 39.9999 105.301 38.4999 112.701 39.5999C113.101 39.5999 113.401 39.4999 113.801 39.4999C116.101 39.9999 118.401 40.5999 120.701 41.0999C122.101 41.5999 123.401 42.1999 124.801 42.6999C126.101 43.3999 127.401 44.0999 128.701 44.7999C128.701 45.0999 128.701 45.2999 128.801 45.5999C125.701 46.3999 122.701 47.1999 119.801 47.8999ZM153.701 41.8999C153.801 41.7999 153.701 41.8999 153.701 41.8999V41.8999ZM152.801 42.7999C152.401 42.7999 152.101 42.7999 151.701 42.8999C152.101 42.7999 152.501 42.7999 152.801 42.7999ZM148.701 45.8999C148.701 46.1999 148.701 46.4999 148.701 46.8999C148.701 46.4999 148.701 46.1999 148.701 45.8999ZM155.801 44.6999C155.801 44.3999 155.701 44.1999 155.701 43.8999C156.001 43.7999 156.201 43.7999 156.501 43.7999C156.501 43.4999 156.601 43.1999 156.701 42.8999C156.901 43.1999 157.201 43.4999 157.401 43.7999C157.501 44.0999 157.501 44.3999 157.601 44.6999C157.001 44.7999 156.401 44.6999 155.801 44.6999ZM164.701 27.9999L164.801 27.6999C164.001 27.7999 163.301 27.8999 162.501 27.9999C163.301 27.8999 164.001 27.7999 164.801 27.6999L164.701 27.9999ZM151.801 19.7999C152.401 20.1999 153.101 20.5999 153.701 20.9999C153.701 21.2999 153.701 21.5999 153.701 21.8999C154.001 21.8999 154.401 21.7999 154.701 21.7999C155.101 22.0999 155.401 22.3999 155.801 22.7999C156.801 23.4999 157.801 24.2999 158.801 24.9999C159.101 25.2999 159.401 25.4999 159.801 25.7999C159.801 26.0999 159.801 26.3999 159.801 26.7999C160.201 26.7999 160.501 26.6999 160.901 26.6999C161.201 27.0999 161.401 27.3999 161.701 27.7999C162.001 27.7999 162.301 27.8999 162.501 27.8999C162.601 28.1999 162.601 28.4999 162.601 28.7999C162.901 28.7999 163.201 28.8999 163.501 28.8999C163.501 29.1999 163.501 29.4999 163.601 29.7999C163.901 30.0999 164.301 30.4999 164.601 30.7999L164.701 30.6999C165.001 31.0999 165.301 31.3999 165.601 31.7999L165.701 31.8999C166.001 32.1999 166.301 32.4999 166.501 32.7999C166.901 33.0999 167.301 33.3999 167.701 33.6999C167.601 33.9999 167.501 34.2999 167.401 34.5999C166.901 34.5999 166.301 34.5999 165.801 34.5999L165.701 34.4999C165.401 34.1999 165.101 33.8999 164.901 33.5999C164.501 32.9999 164.001 32.3999 163.601 31.7999C163.301 31.6999 163.001 31.6999 162.701 31.5999C162.701 31.2999 162.701 30.9999 162.601 30.6999C162.301 30.3999 161.901 29.9999 161.601 29.6999C161.301 29.5999 161.001 29.5999 160.701 29.5999C160.601 29.2999 160.601 29.0999 160.501 28.7999C160.201 28.6999 159.901 28.6999 159.601 28.6999C159.601 28.3999 159.501 28.0999 159.501 27.8999C159.201 27.8999 158.901 27.7999 158.601 27.6999C158.201 27.3999 157.901 27.0999 157.501 26.6999C157.201 26.3999 156.801 26.0999 156.501 25.7999L156.601 25.4999C156.301 25.1999 155.901 24.8999 155.601 24.5999C155.201 24.2999 154.901 23.9999 154.501 23.6999L154.601 23.5999C154.301 23.2999 153.901 22.9999 153.601 22.6999C153.301 22.6999 153.001 22.5999 152.601 22.5999C152.201 22.2999 151.901 22.0999 151.501 21.7999L151.601 21.4999C151.201 21.1999 150.901 20.8999 150.501 20.6999C150.201 20.6999 149.901 20.6999 149.601 20.6999C149.301 20.4999 148.901 20.1999 148.601 19.9999C148.201 19.5999 147.901 19.1999 147.501 18.7999C147.201 18.7999 146.801 18.7999 146.501 18.7999C146.201 18.5999 145.901 18.3999 145.601 18.0999C145.301 17.9999 144.901 17.7999 144.601 17.6999C144.601 17.3999 144.501 17.0999 144.401 16.7999H144.001H143.601L143.701 16.4999C143.701 16.1999 143.601 15.8999 143.501 15.5999C143.101 15.5999 142.801 15.6999 142.401 15.6999C142.101 15.6999 141.801 15.5999 141.601 15.3999C141.201 15.1999 140.801 14.8999 140.401 14.6999C139.901 14.5999 139.401 14.5999 138.901 14.4999C138.701 14.1999 138.601 13.9999 138.501 13.6999C138.201 13.6999 137.901 13.6999 137.601 13.6999L137.701 13.3999C137.701 13.0999 137.701 12.7999 137.601 12.4999C137.201 12.5999 136.701 12.5999 136.301 12.6999C136.101 12.6999 135.901 12.6999 135.601 12.7999C135.301 12.5999 134.901 12.3999 134.601 12.1999C134.201 11.9999 133.801 11.7999 133.501 11.5999C133.201 11.5999 132.901 11.5999 132.601 11.6999C132.301 11.4999 132.101 11.3999 131.701 11.4999C131.001 11.1999 130.201 10.9999 129.501 10.6999L129.601 10.4999C129.601 10.1999 129.501 9.8999 129.601 9.5999C130.301 9.5999 131.001 9.5999 131.701 9.4999C132.001 9.4999 132.301 9.4999 132.601 9.3999C132.901 9.5999 133.101 9.6999 133.501 9.6999C134.201 10.0999 134.901 10.3999 135.601 10.7999C136.001 10.9999 136.501 11.1999 136.901 11.3999C137.501 11.4999 138.101 11.4999 138.601 11.5999C138.601 11.8999 138.501 12.2999 138.501 12.5999C138.801 12.5999 139.001 12.6999 139.301 12.7999L139.701 12.4999C140.701 12.8999 141.701 13.3999 142.601 13.7999C143.001 13.9999 143.301 14.2999 143.701 14.4999C144.001 14.5999 144.301 14.7999 144.601 14.8999C144.601 15.0999 144.501 15.2999 144.501 15.5999C144.801 15.6999 145.001 15.7999 145.301 15.8999L145.501 15.4999C146.501 16.1999 147.501 16.7999 148.601 17.4999C149.801 18.4999 150.801 19.1999 151.801 19.7999ZM144.701 13.8999C144.401 13.5999 144.001 13.2999 143.701 12.8999C144.101 13.1999 144.401 13.4999 144.701 13.8999ZM142.701 10.9999C143.001 10.9999 143.401 10.8999 143.701 10.8999C143.401 10.8999 143.001 10.8999 142.701 10.9999ZM139.401 10.9999C139.401 10.9999 139.301 10.9999 139.201 10.9999H139.401ZM143.701 10.7999C143.401 10.4999 143.001 10.1999 142.701 9.7999C143.001 10.1999 143.401 10.4999 143.701 10.7999ZM140.701 8.7999C140.701 8.4999 140.701 8.0999 140.601 7.7999C140.701 8.1999 140.701 8.4999 140.701 8.7999ZM131.701 3.3999V3.2999V3.3999ZM122.701 5.3999C122.701 5.5999 122.701 5.6999 122.601 5.8999C122.701 5.6999 122.701 5.4999 122.701 5.3999ZM109.201 3.8999H109.001C109.101 3.8999 109.201 3.8999 109.201 3.8999ZM112.701 1.8999C112.001 1.8999 111.401 1.8999 110.701 1.8999C111.301 1.8999 112.001 1.8999 112.701 1.8999ZM109.701 1.7999C110.001 1.4999 110.301 1.1999 110.601 0.899902C110.401 1.1999 110.001 1.4999 109.701 1.7999ZM107.701 3.8999C107.701 4.1999 107.701 4.4999 107.701 4.7999C107.701 4.4999 107.701 4.1999 107.701 3.8999ZM94.7008 3.8999L94.8008 3.7999C94.4008 3.4999 94.1008 3.1999 93.7008 2.8999C94.1008 3.1999 94.4008 3.4999 94.8008 3.7999L94.7008 3.8999ZM76.8008 7.3999C76.9008 7.4999 77.0008 7.5999 77.1008 7.6999C77.0008 7.5999 76.9008 7.4999 76.8008 7.3999C76.6008 7.5999 76.5008 7.7999 76.3008 7.9999C76.4008 7.7999 76.6008 7.5999 76.8008 7.3999ZM52.6008 25.7999C52.3008 25.4999 52.1008 25.2999 51.8008 24.9999C52.1008 25.2999 52.3008 25.4999 52.6008 25.7999ZM52.7008 27.8999C53.1008 27.5999 53.4008 27.2999 53.8008 26.8999C53.8008 26.6999 53.8008 26.3999 53.9008 26.1999C54.2008 26.0999 54.5008 25.9999 54.9008 25.8999C55.0008 25.5999 55.0008 25.2999 55.1008 24.9999C55.3008 24.9999 55.6008 24.9999 55.8008 24.8999C56.1008 24.5999 56.5008 24.2999 56.8008 23.9999C57.0008 23.7999 57.3008 23.5999 57.6008 23.5999C57.9008 23.2999 58.3008 23.0999 58.6008 22.7999C59.0008 22.4999 59.4008 22.1999 59.7008 21.8999C60.0008 21.4999 60.3008 21.0999 60.6008 20.7999H61.0008H61.4008C61.5008 20.4999 61.6008 20.1999 61.7008 19.8999C62.0008 19.8999 62.2008 19.7999 62.5008 19.7999C62.9008 19.4999 63.3008 19.1999 63.7008 18.8999C64.0008 18.6999 64.4008 18.3999 64.7008 18.1999C64.9008 17.9999 65.2008 17.8999 65.6008 17.7999C67.3008 16.7999 69.0008 15.7999 70.7008 14.8999C71.3008 14.4999 71.9008 14.0999 72.6008 13.6999C73.0008 13.3999 73.3008 13.0999 73.7008 12.7999H74.2008H74.7008C75.1008 12.7999 75.4008 12.7999 75.8008 12.8999C75.8008 12.6999 75.8008 12.3999 75.7008 12.1999C76.2008 11.9999 76.7008 11.8999 77.2008 11.6999C77.7008 11.4999 78.1008 11.1999 78.6008 10.9999C78.9008 10.7999 79.2008 10.6999 79.5008 10.7999C79.6008 10.7999 79.6008 10.6999 79.7008 10.6999C79.6008 10.6999 79.6008 10.7999 79.5008 10.7999C79.9008 10.7999 80.3008 10.8999 80.6008 10.8999C80.9008 10.8999 81.3008 10.8999 81.6008 10.8999C81.6008 10.5999 81.6008 10.2999 81.6008 9.9999C81.9008 9.7999 82.2008 9.7999 82.5008 9.7999C83.5008 9.3999 84.5008 9.0999 85.5008 8.6999C86.3008 8.4999 87.0008 8.1999 87.7008 7.9999C88.0008 7.9999 88.4008 7.9999 88.7008 7.9999C88.9008 7.7999 89.2008 7.7999 89.5008 7.7999C90.6008 7.4999 91.6008 7.2999 92.7008 6.9999C93.0008 6.8999 93.3008 6.6999 93.5008 6.5999C94.5008 6.5999 95.4008 6.6999 96.4008 6.6999C97.5008 6.4999 98.6008 6.1999 99.7008 5.9999C102.401 5.5999 105.001 5.1999 107.701 4.7999C108.701 5.0999 109.701 5.3999 110.701 5.6999C112.001 5.7999 113.401 5.9999 114.701 6.0999C116.101 6.2999 117.501 6.5999 119.001 6.7999C119.601 6.6999 120.101 6.6999 120.701 6.5999C121.001 6.7999 121.401 6.8999 121.701 7.0999C121.701 7.3999 121.701 7.6999 121.701 7.8999C122.501 7.7999 123.201 7.7999 124.001 7.6999C124.501 7.6999 125.101 7.6999 125.601 7.6999C124.901 7.4999 124.201 7.1999 123.601 6.9999C123.301 6.9999 122.901 6.9999 122.601 7.0999C122.901 7.0999 123.301 7.0999 123.601 6.9999C124.301 7.1999 125.001 7.4999 125.601 7.6999C125.901 7.8999 126.301 7.9999 126.601 8.1999C127.301 8.3999 127.901 8.6999 128.601 8.8999C128.901 8.8999 129.201 8.8999 129.601 9.0999C129.601 9.3999 129.601 9.5999 129.601 9.8999C128.901 9.8999 128.201 9.9999 127.501 9.9999C127.201 9.9999 126.901 9.9999 126.601 10.0999C126.301 9.9999 125.901 9.8999 125.601 9.6999C124.901 9.4999 124.201 9.1999 123.501 8.9999C123.201 8.9999 122.901 8.9999 122.501 9.0999C122.201 8.9999 121.901 8.8999 121.601 8.7999C121.301 8.7999 120.901 8.7999 120.601 8.7999C119.501 8.5999 118.501 8.3999 117.401 8.0999C116.101 7.9999 114.901 7.8999 113.601 7.7999C112.901 7.4999 112.301 7.2999 111.601 6.9999C108.301 7.1999 104.901 7.4999 101.601 7.6999C100.901 7.7999 100.301 7.8999 99.6008 7.9999C98.4008 7.9999 97.2008 7.9999 96.0008 8.0999C95.2008 8.2999 94.4008 8.4999 93.6008 8.7999C93.3008 8.7999 92.9008 8.7999 92.6008 8.6999C92.0008 8.7999 91.4008 8.8999 90.8008 8.9999C89.1008 9.6999 87.3008 10.2999 85.6008 10.9999C85.3008 10.8999 84.9008 10.7999 84.6008 10.6999C84.3008 10.8999 84.0008 10.8999 83.7008 10.8999C83.0008 10.8999 82.3008 10.8999 81.6008 10.7999C81.6008 11.0999 81.6008 11.3999 81.6008 11.6999C81.3008 11.7999 81.1008 11.8999 80.8008 11.8999C80.4008 12.0999 80.0008 12.2999 79.7008 12.4999C79.4008 12.6999 79.1008 12.7999 78.8008 12.9999C78.5008 12.8999 78.2008 12.8999 77.9008 12.9999C77.5008 12.9999 77.1008 12.8999 76.7008 12.8999C76.7008 13.1999 76.7008 13.4999 76.7008 13.7999C76.4008 13.8999 76.1008 13.8999 75.8008 13.8999C75.5008 14.0999 75.1008 14.2999 74.8008 14.5999C73.8008 15.1999 72.8008 15.7999 71.9008 16.3999C71.1008 16.8999 70.4008 17.2999 69.6008 17.7999C68.7008 18.1999 67.7008 18.4999 66.8008 18.8999C66.5008 19.1999 66.1008 19.3999 65.8008 19.6999C65.6008 19.8999 65.3008 19.9999 65.0008 20.0999C64.6008 20.0999 64.2008 19.9999 63.8008 19.9999C63.8008 19.6999 63.8008 19.3999 63.8008 19.0999C63.4008 19.3999 63.0008 19.6999 62.6008 19.9999C63.0008 19.9999 63.4008 20.0999 63.7008 20.0999C63.7008 20.3999 63.7008 20.6999 63.7008 21.0999L63.8008 21.2999C63.5008 21.2999 63.3008 21.1999 63.0008 21.2999C62.9008 21.5999 62.8008 21.8999 62.8008 22.1999C62.4008 22.4999 62.0008 22.7999 61.6008 22.9999C61.3008 22.9999 61.0008 23.0999 60.7008 23.0999C60.6008 23.3999 60.5008 23.6999 60.4008 23.9999C60.8008 23.9999 61.2008 24.0999 61.7008 24.0999C62.1008 24.0999 62.5008 24.1999 62.8008 24.1999C63.4008 23.7999 64.0008 23.3999 64.6008 22.8999C65.0008 22.5999 65.3008 22.3999 65.7008 22.0999C67.3008 21.0999 69.0008 19.9999 70.6008 18.9999C72.9008 17.9999 75.2008 16.8999 77.5008 15.8999C78.6008 15.3999 79.8008 14.7999 80.9008 14.2999C81.5008 14.1999 82.0008 13.9999 82.6008 13.8999C83.0008 13.6999 83.5008 13.4999 83.9008 13.2999C84.5008 13.1999 85.0008 12.9999 85.6008 12.8999C89.0008 11.9999 92.4008 11.1999 95.9008 10.2999C96.2008 10.3999 96.4008 10.2999 96.6008 9.9999C97.0008 9.9999 97.3008 9.8999 97.7008 9.8999L98.1008 10.0999L98.6008 9.9999C98.9008 9.9999 99.3008 9.9999 99.6008 9.9999C99.9008 9.9999 100.301 9.8999 100.601 9.8999C104.601 9.8999 108.601 9.8999 112.501 9.8999C115.801 10.2999 119.201 10.6999 122.501 10.9999C123.201 11.2999 123.901 11.4999 124.601 11.7999L125.001 11.9999H125.501C126.001 12.0999 126.601 12.1999 127.101 12.3999C127.601 12.5999 128.001 12.7999 128.501 12.9999C129.101 13.0999 129.601 13.1999 130.201 13.2999C130.601 13.4999 131.101 13.6999 131.501 13.8999C132.001 13.9999 132.601 14.0999 133.101 14.1999C133.501 14.3999 134.001 14.5999 134.401 14.8999C134.701 15.0999 135.001 15.1999 135.301 15.1999C135.601 15.3999 136.001 15.5999 136.301 15.7999C138.201 16.5999 140.101 17.4999 142.001 18.2999C142.701 18.6999 143.501 19.0999 144.201 19.4999C144.601 19.6999 144.901 19.8999 145.301 20.1999C145.701 20.3999 146.001 20.6999 146.401 20.8999C147.001 21.2999 147.701 21.6999 148.301 22.1999C148.701 22.4999 149.001 22.6999 149.401 22.9999C150.001 23.3999 150.601 23.7999 151.301 24.2999C151.701 24.5999 152.101 24.8999 152.501 25.1999C152.801 25.4999 153.101 25.6999 153.401 25.9999C155.101 27.3999 156.701 28.8999 158.401 30.2999C158.701 30.5999 159.001 30.9999 159.401 31.2999C160.101 31.8999 160.801 32.5999 161.401 33.1999C161.901 34.1999 162.401 35.0999 163.301 36.5999C158.201 37.8999 153.301 38.9999 148.401 40.1999C147.801 40.5999 147.201 40.8999 146.501 41.2999C146.501 41.5999 146.401 41.8999 146.401 42.1999C146.701 42.2999 147.001 42.3999 147.301 42.4999C147.501 42.4999 147.801 42.4999 148.001 42.4999C148.101 43.0999 148.201 43.6999 148.301 44.2999C148.001 44.3999 147.601 44.4999 147.301 44.4999V43.9999C147.001 43.9999 146.601 43.9999 146.301 43.9999V44.4999C145.701 43.7999 145.201 43.0999 144.501 42.2999C143.801 42.2999 143.001 42.1999 142.201 42.1999C142.301 41.8999 142.301 41.6999 142.301 41.3999C141.901 41.6999 141.501 41.8999 141.201 42.1999C140.901 42.1999 140.501 42.1999 140.201 42.0999C139.901 42.1999 139.601 42.1999 139.301 42.2999C139.401 41.9999 139.401 41.5999 139.501 41.2999C139.501 40.9999 139.401 40.5999 139.401 40.2999C139.701 39.9999 140.101 39.7999 140.401 39.4999L140.201 39.2999C140.301 38.9999 140.301 38.6999 140.301 38.3999C140.601 38.2999 140.801 38.1999 141.101 38.0999C141.101 37.7999 141.201 37.5999 141.201 37.2999C141.501 37.2999 141.901 37.3999 142.201 37.3999C142.501 37.6999 142.901 37.8999 143.201 38.1999C143.601 38.4999 144.001 38.7999 144.301 39.0999C144.901 38.6999 145.601 38.2999 146.501 37.5999C145.201 36.4999 144.301 35.6999 143.301 34.8999C143.601 34.2999 143.901 33.7999 144.201 33.1999C144.901 32.5999 145.601 31.9999 146.401 31.2999C147.401 31.8999 148.301 32.4999 149.201 33.0999C149.801 33.0999 150.401 33.0999 151.101 33.0999C151.101 32.7999 151.101 32.3999 151.101 32.0999C150.801 31.7999 150.501 31.4999 150.201 31.1999C149.901 30.8999 149.601 30.5999 149.301 30.2999C148.101 29.3999 146.901 28.3999 145.501 27.2999C144.701 28.3999 144.001 29.2999 143.401 30.1999C141.701 32.4999 140.001 34.7999 138.301 37.1999C138.601 37.4999 138.901 37.8999 139.201 38.1999C138.901 37.8999 138.601 37.4999 138.301 37.1999C138.301 37.1999 138.301 37.1999 138.201 37.0999V37.1999C137.201 38.1999 136.201 39.0999 135.201 40.0999C135.801 41.0999 136.501 42.0999 137.101 43.0999C135.201 43.6999 133.401 44.3999 131.501 44.9999C129.501 43.9999 127.601 42.9999 125.601 41.8999C123.801 41.2999 122.001 40.6999 120.201 40.0999C118.501 39.3999 116.901 38.6999 115.201 37.9999C114.901 38.0999 114.501 38.1999 114.201 38.1999C112.901 38.1999 111.601 38.1999 110.301 38.0999C106.301 37.9999 102.301 37.9999 98.3008 37.8999C96.3008 38.5999 94.3008 39.3999 92.3008 40.0999H92.0008H92.1008C91.6008 40.0999 91.0008 39.9999 90.5008 39.9999C89.8008 40.2999 89.1008 40.6999 88.4008 40.9999C87.7008 41.2999 87.1008 41.4999 86.4008 41.7999C85.0008 42.7999 83.6008 43.7999 82.2008 44.6999C81.6008 45.0999 81.0008 45.4999 80.4008 45.8999C78.7008 47.1999 77.1008 48.5999 75.4008 49.8999C75.1008 50.1999 74.7008 50.5999 74.4008 50.8999L74.3008 50.7999C73.7008 51.4999 73.0008 52.1999 72.4008 52.8999L72.5008 52.9999C72.2008 53.2999 72.0008 53.5999 71.7008 53.8999C69.9008 56.4999 68.2008 59.0999 66.4008 61.7999C65.7008 62.1999 65.1008 62.4999 64.4008 62.8999C62.3008 63.3999 60.3008 63.8999 58.1008 64.1999C56.6008 64.3999 55.1008 64.1999 53.4008 64.1999C53.4008 61.6999 53.4008 59.8999 53.4008 57.6999C51.2008 56.6999 49.0008 55.6999 47.3008 54.9999C43.3008 55.8999 42.9008 58.8999 41.8008 61.9999C44.3008 62.9999 46.8008 64.0999 49.3008 65.0999C49.3008 65.5999 49.3008 66.0999 49.3008 66.6999C48.7008 66.7999 48.1008 66.9999 47.5008 67.0999C47.1008 67.2999 46.8008 67.4999 46.4008 67.5999C42.5008 68.4999 38.5008 69.3999 34.2008 70.3999C34.4008 68.3999 34.5008 66.7999 34.6008 65.1999C35.2008 63.3999 35.8008 61.5999 36.3008 59.7999C36.3008 59.4999 36.4008 59.0999 36.4008 58.7999C36.6008 58.3999 36.9008 58.0999 37.1008 57.6999C37.3008 57.1999 37.4008 56.6999 37.6008 56.1999C37.8008 55.6999 38.1008 55.2999 38.3008 54.7999C38.4008 54.5999 38.5008 54.2999 38.5008 53.9999C38.7008 53.5999 39.0008 53.1999 39.2008 52.6999C39.4008 52.4999 39.4008 52.1999 39.4008 51.8999C39.6008 51.4999 39.9008 51.0999 40.1008 50.6999C40.3008 50.4999 40.4008 50.1999 40.4008 49.8999C40.6008 49.4999 40.9008 49.0999 41.1008 48.6999C41.3008 48.4999 41.4008 48.1999 41.4008 47.8999C41.7008 47.4999 41.9008 47.0999 42.2008 46.6999C42.4008 46.4999 42.5008 46.2999 42.5008 45.9999C42.8008 45.5999 43.0008 45.0999 43.3008 44.6999C44.3008 43.0999 45.4008 41.4999 46.4008 39.8999C47.7008 38.1999 49.0008 36.4999 50.3008 34.6999C50.7008 34.3999 51.1008 33.9999 51.4008 33.6999C51.7008 33.3999 51.9008 33.0999 52.2008 32.6999C52.0008 32.5999 51.7008 32.5999 51.5008 32.5999H51.4008C51.3008 32.5999 51.2008 32.5999 51.2008 32.5999H50.9008C50.7008 32.5999 50.6008 32.5999 50.4008 32.5999L50.0008 32.6999C49.7008 33.0999 49.4008 33.3999 49.1008 33.7999C48.4008 34.3999 47.7008 35.0999 47.0008 35.6999C46.7008 35.6999 46.4008 35.6999 46.1008 35.6999C46.1008 35.9999 46.1008 36.2999 46.1008 36.6999C45.8008 37.0999 45.5008 37.3999 45.1008 37.7999C45.1008 38.0999 45.1008 38.3999 45.1008 38.7999L44.8008 38.6999C44.5008 38.9999 44.3008 39.2999 44.0008 39.6999V39.7999C43.7008 39.7999 43.4008 39.7999 43.1008 39.7999C43.0008 39.3999 43.0008 38.9999 42.9008 38.5999C42.9008 38.3999 43.1008 38.1999 43.2008 37.9999C43.3008 37.9999 43.3008 37.8999 43.4008 37.7999C43.8008 37.5999 44.2008 37.2999 44.6008 37.0999L44.2008 36.8999C44.5008 36.5999 44.8008 36.1999 45.1008 35.8999C45.2008 35.5999 45.3008 35.1999 45.4008 34.8999C45.7008 34.5999 45.9008 34.2999 46.2008 33.8999C46.5008 33.4999 46.7008 33.1999 47.0008 32.7999L47.4008 32.8999C47.4008 32.5999 47.5008 32.2999 47.5008 31.9999C47.4008 32.2999 47.4008 32.5999 47.4008 32.8999C47.7008 32.5999 48.1008 32.2999 48.4008 31.9999L48.3008 31.8999L48.4008 31.9999C48.7008 31.5999 48.9008 31.1999 49.2008 30.7999C49.0008 30.9999 48.7008 31.0999 48.5008 31.0999C48.8008 31.0999 49.0008 30.9999 49.2008 30.7999C49.2008 30.4999 49.1008 30.2999 49.1008 29.9999H49.2008V29.8999C49.2008 29.8999 49.1008 29.8999 49.1008 29.9999C48.8008 29.8999 48.5008 29.7999 48.3008 29.5999C48.3008 29.7999 48.3008 29.9999 48.2008 30.0999C47.9008 29.8999 47.6008 29.7999 47.3008 29.7999C47.3008 30.1999 47.2008 30.5999 47.2008 30.8999C47.2008 30.4999 47.3008 30.0999 47.3008 29.7999C47.7008 29.7999 48.0008 29.8999 48.2008 30.0999C48.2008 29.8999 48.3008 29.6999 48.3008 29.5999C48.4008 29.2999 48.4008 29.0999 48.2008 28.7999C48.5008 28.7999 48.9008 28.8999 49.2008 28.8999C49.2008 29.1999 49.2008 29.5999 49.2008 29.8999C49.8008 29.4999 50.5008 28.9999 51.1008 28.5999C52.0008 28.2999 52.4008 28.0999 52.7008 27.8999ZM42.9008 40.0999C43.2008 39.9999 43.4008 39.8999 43.7008 39.7999C43.7008 40.0999 43.7008 40.4999 43.7008 40.7999C43.3008 41.3999 42.9008 42.0999 42.5008 42.6999C42.2008 42.6999 41.9008 42.6999 41.7008 42.6999C41.8008 42.0999 41.9008 41.4999 42.0008 40.9999C42.3008 40.7999 42.6008 40.4999 42.9008 40.0999ZM48.8008 30.8999C48.8008 31.1999 48.8008 31.4999 48.7008 31.8999L48.3008 31.9999L48.8008 31.8999C48.8008 31.5999 48.8008 31.2999 48.8008 30.8999ZM45.6008 29.8999C45.7008 30.1999 45.7008 30.4999 45.7008 30.8999C45.7008 30.4999 45.7008 30.1999 45.6008 29.8999ZM45.6008 29.8999C45.3008 30.1999 45.1008 30.4999 44.8008 30.7999C45.1008 30.4999 45.4008 30.1999 45.6008 29.8999ZM39.6008 44.7999C39.6008 44.4999 39.6008 44.1999 39.7008 43.8999C40.1008 43.5999 40.4008 43.1999 40.8008 42.8999C41.1008 42.8999 41.4008 42.8999 41.7008 42.8999C41.7008 43.2999 41.7008 43.5999 41.8008 43.9999C41.8008 44.2999 41.7008 44.5999 41.7008 44.7999C41.5008 44.8999 41.3008 44.9999 41.0008 44.9999C40.9008 45.2999 40.9008 45.5999 40.9008 45.8999L40.6008 45.7999C40.6008 46.0999 40.6008 46.3999 40.6008 46.6999C40.4008 47.0999 40.1008 47.3999 39.9008 47.7999C39.7008 47.9999 39.6008 48.2999 39.6008 48.5999C39.3008 48.6999 39.1008 48.7999 38.8008 48.8999C38.8008 49.1999 38.8008 49.4999 38.8008 49.7999L38.6008 49.6999C38.7008 49.9999 38.7008 50.2999 38.6008 50.5999C38.4008 50.9999 38.1008 51.3999 37.9008 51.7999C37.7008 52.0999 37.6008 52.3999 37.6008 52.6999C37.4008 53.0999 37.2008 53.3999 36.9008 53.7999C36.7008 54.3999 36.6008 54.8999 36.4008 55.4999C36.2008 55.8999 35.9008 56.3999 35.7008 56.7999C35.6008 57.0999 35.6008 57.4999 35.5008 57.7999C35.3008 57.8999 35.0008 57.9999 34.7008 58.0999C34.7008 58.3999 34.7008 58.5999 34.8008 58.8999C34.7008 59.1999 34.5008 59.4999 34.4008 59.7999C34.1008 59.7999 33.9008 59.7999 33.6008 59.7999C33.6008 59.0999 33.5008 58.3999 33.5008 57.6999C33.5008 57.3999 33.6008 57.0999 33.7008 56.8999C33.6008 56.5999 33.6008 56.2999 33.6008 55.9999C33.8008 55.5999 34.0008 55.1999 34.3008 54.7999C34.5008 54.4999 34.6008 54.1999 34.8008 53.7999C35.0008 53.3999 35.3008 52.9999 35.5008 52.6999C35.5008 52.3999 35.4008 52.1999 35.4008 51.8999C35.6008 51.5999 35.7008 51.3999 35.6008 50.9999C35.8008 50.5999 36.0008 50.2999 36.3008 49.8999C36.4008 49.5999 36.5008 49.1999 36.6008 48.8999C36.9008 48.7999 37.1008 48.6999 37.4008 48.5999C37.4008 48.2999 37.5008 47.9999 37.7008 47.7999C37.6008 47.9999 37.4008 47.9999 37.2008 47.9999C37.3008 47.6999 37.5008 47.2999 37.6008 46.9999C37.8008 46.5999 38.1008 46.2999 38.3008 45.8999C38.5008 45.6999 38.6008 45.3999 38.6008 45.0999C39.1008 44.9999 39.4008 44.8999 39.6008 44.7999ZM4.60078 84.6999C5.00078 84.7999 5.40078 84.7999 5.70078 84.8999C6.00078 84.4999 6.30078 84.0999 6.60078 83.7999C6.30078 84.1999 6.00078 84.5999 5.70078 84.8999C5.40078 84.8999 5.00078 84.7999 4.60078 84.6999Z" fill="#EDCEFF"/>
<path d="M44.5984 119C46.5984 118.4 48.0984 117.9 49.9984 117.3C47.1984 111.2 47.6984 104 42.6984 99.4998C43.6984 93.6998 43.1984 88.7998 38.8984 84.6998C38.4984 84.4998 38.0984 84.2998 37.6984 84.0998C33.0984 83.2998 28.9984 85.2998 24.8984 86.5998C25.5984 90.8998 25.5984 90.8998 27.5984 92.1998C26.2984 97.5998 28.8984 102.2 29.9984 107C31.0984 111.9 32.6984 116.8 34.0984 121.8C35.9984 121.2 37.3984 120.8 39.1984 120.2C37.7984 114.6 36.4984 109.2 35.0984 103.4C36.8984 103.3 38.0984 103.3 39.6984 103.2C41.2984 108.5 42.8984 113.7 44.5984 119ZM33.8984 99.4998C32.8984 95.9998 31.9984 92.7998 30.9984 88.9998C32.9984 88.9998 34.5984 88.9998 36.3984 88.9998C36.9984 92.0998 37.4984 94.7998 38.0984 97.7998C36.5984 98.3998 35.4984 98.7998 33.8984 99.4998ZM38.7984 84.6998L38.6984 84.7998C38.6984 84.8998 38.7984 84.7998 38.7984 84.6998Z" fill="#EDCEFF"/>
<path d="M94.2019 98.9997C94.9019 100.2 95.3019 101 95.8019 101.9C96.2019 102.9 96.6019 103.9 97.1019 105.1C98.8019 104.5 100.302 104 101.902 103.4C101.302 102 100.902 101 100.502 99.9997C99.9019 98.8997 99.4019 97.7997 98.8019 96.7997C98.4019 95.8997 98.0019 94.8997 97.6019 93.9997C97.3019 93.2997 97.0019 92.5997 96.7019 91.9997C93.5019 84.6997 90.4019 77.3997 87.0019 69.6997C85.9019 70.2997 85.3019 70.5997 84.6019 70.9997C84.2019 71.0997 83.9019 71.0997 83.5019 71.1997C82.9019 71.1997 82.3019 71.1997 81.6019 71.2997C78.9019 72.3997 80.2019 74.3997 80.4019 76.1997C81.5019 86.0997 82.6019 95.9997 83.7019 106C83.8019 106.7 83.9019 107.4 84.1019 108.6C85.6019 108.1 86.7019 107.7 87.8019 107.2C90.4019 105.4 87.2019 102.5 89.3019 100.3C90.9019 99.7997 92.6019 99.3997 94.2019 98.9997ZM82.1019 75.5997C82.3019 75.3997 82.4019 75.1997 82.6019 74.9997C83.6019 74.5997 84.6019 74.2997 85.6019 73.8997C84.6019 74.2997 83.6019 74.5997 82.6019 74.9997C82.5019 75.1997 82.3019 75.3997 82.1019 75.5997ZM87.8019 96.1997C87.0019 90.4997 86.3019 85.1997 85.6019 79.8997C85.9019 79.6997 86.2019 79.3997 86.5019 79.1997C88.5019 84.1997 90.4019 89.2997 92.5019 94.5997C91.2019 94.9997 89.9019 95.4997 87.8019 96.1997Z" fill="#EDCEFF"/>
<path d="M164.198 87.1C165.398 86.6 166.298 86.2 166.998 85.9C166.998 83.7 166.998 81.7 166.998 79.6C168.798 79.1 170.498 78.7 172.298 78.3C173.398 80.4 174.398 82.3 175.498 84.2C177.198 83.5 178.498 83 180.198 82.4C178.298 78.4 176.498 74.7 174.798 70.9C174.598 70.4 174.298 69.9 174.098 69.5C173.898 69 173.798 68.4 173.598 67.9C173.398 67.6 173.198 67.2 172.998 66.9C172.898 66.6 172.798 66.3 172.698 66C172.498 65.7 172.298 65.3 172.098 65C171.998 64.7 171.898 64.4 171.798 64C171.598 63.6 171.298 63.1 171.098 62.7C171.198 62.4 171.098 62.2 170.898 62C170.598 61.5 170.398 61 170.098 60.5C169.998 60 169.798 59.5 169.698 59C169.498 58.7 169.298 58.3 169.098 58C168.998 57.7 168.898 57.4 168.798 57C168.598 56.6 168.398 56.2 168.098 55.8C168.198 55.5 168.098 55.2 167.898 55C167.698 54.6 167.398 54.1 167.198 53.7C167.298 53.5 167.198 53.3 167.098 53.1C166.398 52.8 165.798 52.5 165.098 52.2C165.798 52.5 166.398 52.8 167.098 53.1C166.798 52.4 166.498 51.8 166.098 51.1C166.198 50.8 166.098 50.4 165.898 50.2C164.398 48.4 163.598 49.1 163.098 51C162.798 51 162.498 51 162.198 50.9C161.798 50.7 161.398 50.6 161.098 50.4C160.698 50.6 160.198 50.8 159.798 51.1C159.498 51 159.298 51 159.198 51.3C157.398 52.4 158.698 53.6 159.098 54.7C159.198 56.5 159.298 58.4 159.398 60.2C159.998 60.5 160.598 60.9 161.198 61.2C160.598 60.9 159.998 60.5 159.398 60.2C159.598 61.3 159.898 62.3 160.098 63.4C160.798 70.6 161.398 77.8 162.198 85.7C163.098 84.6 163.398 84.3 163.698 84C163.498 84.7 163.798 85.8 164.198 87.1ZM161.698 60.9L161.598 61L161.698 60.9ZM162.598 70.4C162.698 70.6 162.798 70.8 162.898 71.1C162.798 70.8 162.698 70.6 162.598 70.4ZM165.698 60.9C165.798 61.2 165.798 61.6 165.898 61.9C166.098 62.3 166.398 62.7 166.598 63.1C166.798 63.7 166.898 64.3 167.098 64.9C167.298 65.2 167.498 65.5 167.698 65.8C167.798 66.2 167.898 66.5 167.998 66.9C168.198 67.2 168.398 67.6 168.598 67.9C168.698 68.2 168.798 68.5 168.798 68.8C168.998 69.2 169.298 69.7 169.498 70.1C169.698 70.6 169.798 71.2 169.998 71.7C170.298 72 170.598 72.3 170.898 72.7C169.498 73.6 168.098 74.5 166.098 75.8C165.198 71.1 164.498 67.4 163.698 63.6C163.598 62.3 163.498 61.1 163.398 59.8C163.798 59.3 164.198 58.8 164.498 58.2C164.598 58.7 164.798 59.3 164.898 59.8C165.298 60.3 165.498 60.6 165.698 60.9Z" fill="#EDCEFF"/>
<path d="M77.2992 109.9C75.9992 98.9 74.7992 88.4 73.4992 77.8C73.2992 76.7 73.0992 75.6 72.7992 74.4C72.0992 74.3 71.3992 74.1 70.6992 74C70.2992 74.2 69.7992 74.4 69.3992 74.6C69.0992 74.5 68.8992 74.7 68.7992 74.9C68.7992 75.6 68.6992 76.3 68.6992 76.9C68.7992 78.1 68.8992 79.4 68.9992 80.6C69.1992 81.7 69.4992 82.8 69.6992 84C69.7992 86.1 69.8992 88.2 69.9992 90.3C70.1992 91.4 70.3992 92.5 70.5992 93.6C70.6992 94.2 70.8992 94.9 70.9992 95.5C70.8992 95.8 70.8992 96.1 70.7992 96.4C70.4992 96.8 70.0992 97.1 69.7992 97.5C69.5992 97.3 69.5992 97.1 69.5992 96.8C69.3992 96.4 69.1992 95.9 68.9992 95.5C67.1992 91.5 65.3992 87.5 63.5992 83.5C63.2992 83.5 63.0992 83.5 62.7992 83.5C63.0992 83.5 63.2992 83.5 63.5992 83.5C63.3992 83.1 63.0992 82.7 62.8992 82.3C62.9992 82 62.8992 81.8 62.6992 81.5C62.4992 81 62.1992 80.6 61.9992 80.2C61.7992 79.6 61.6992 79.1 61.4992 78.5C61.2992 78.2 61.0992 77.8 60.8992 77.5C60.5992 77.3 60.1992 77 59.8992 76.8C59.3992 77 58.8992 77.2 58.4992 77.5C57.6992 77.9 56.8992 78.2 56.1992 78.6C56.3992 79 56.6992 79.5 56.8992 79.9C57.3992 81.1 57.8992 82.4 58.3992 83.6C58.5992 83.9 58.7992 84.3 58.9992 84.6C59.0992 84.9 59.1992 85.2 59.2992 85.5C59.4992 85.9 59.7992 86.3 59.9992 86.6C63.5992 94.9 67.1992 103.2 70.7992 111.7C73.0992 111.3 75.0992 110.6 77.2992 109.9ZM73.1992 87.9C72.9992 87.7 72.7992 87.6 72.5992 87.4C72.8992 87.5 73.0992 87.7 73.1992 87.9C73.2992 87.9 73.1992 87.9 73.1992 87.9ZM71.4992 99.9C71.5992 100.2 71.5992 100.5 71.4992 100.8C71.2992 100.8 70.9992 100.8 70.7992 100.8C70.6992 100.5 70.5992 100.2 70.6992 99.9C70.9992 99.9 71.2992 99.9 71.4992 99.9Z" fill="#EDCEFF"/>
<path d="M194.201 55.7997C194.301 56.2997 195.201 56.4997 195.701 56.7997C196.301 56.7997 196.901 56.7997 197.601 56.7997C197.601 57.0997 197.601 57.3997 197.701 57.7997C197.001 57.8997 196.201 57.8997 195.501 57.9997C195.601 59.2997 195.701 60.5997 195.901 61.7997C196.101 62.4997 196.401 63.1997 196.601 63.8997C196.701 64.5997 196.901 65.1997 197.001 65.8997C197.301 66.5997 197.501 67.2997 197.801 67.9997C197.901 68.5997 197.901 69.2997 198.001 69.8997C198.301 70.5997 198.501 71.2997 198.801 71.9997C199.101 71.5997 199.501 71.1997 199.801 70.8997C199.501 71.2997 199.101 71.6997 198.801 71.9997C198.901 72.5997 199.101 73.2997 199.201 73.8997C199.401 74.2997 199.601 74.6997 199.801 75.1997C199.701 76.6997 200.301 77.3997 201.901 76.7997C202.201 76.6997 202.601 76.6997 202.901 76.5997C203.401 76.3997 203.801 76.1997 204.301 75.9997C203.901 75.9997 203.401 75.8997 203.001 75.8997C202.801 75.5997 202.601 75.2997 202.201 74.4997C202.601 75.2997 202.801 75.5997 203.001 75.8997C203.401 75.8997 203.901 75.9997 204.301 75.9997C204.901 75.8997 205.401 75.7997 206.001 75.6997C206.701 75.3997 207.501 75.1997 208.201 74.8997C208.801 74.6997 209.501 74.3997 210.101 74.1997C210.701 74.0997 211.301 74.0997 212.201 73.9997C212.001 73.0997 211.901 72.4997 211.801 71.8997C211.501 71.2997 211.201 70.6997 210.901 70.0997C210.601 69.7997 210.301 69.7997 210.001 69.9997C209.301 70.2997 208.701 70.4997 208.001 70.7997C207.301 70.8997 206.601 70.9997 206.001 70.9997C205.401 70.8997 204.701 70.7997 204.101 70.5997C204.201 70.2997 204.101 69.9997 203.901 69.6997C203.601 68.9997 203.401 68.1997 203.101 67.4997C203.001 66.8997 202.901 66.2997 202.801 65.6997C202.601 64.9997 202.301 64.2997 202.101 63.5997C202.001 62.9997 201.901 62.3997 201.801 61.6997C201.601 61.1997 201.401 60.6997 201.201 60.1997C203.201 59.4997 205.201 58.7997 207.401 57.9997C207.101 56.5997 206.901 55.2997 206.701 53.8997C204.501 54.2997 202.401 54.5997 200.101 54.9997C199.201 51.4997 198.501 48.3997 197.701 45.0997C200.001 44.2997 201.901 43.7997 204.001 43.0997C203.601 41.5997 203.101 40.2997 202.701 38.6997C198.601 39.7997 194.901 40.8997 190.801 41.9997C191.701 46.9997 192.901 51.3997 194.201 55.7997Z" fill="#EDCEFF"/>
<path d="M181 69.9C181.2 70.3 181.4 70.8 181.6 71.2C181.7 71.8 181.8 72.3 181.8 72.9C182.1 73.6 182.3 74.2 182.6 74.9C182.7 75.6 182.8 76.2 182.9 76.9C183.1 77.6 183.4 78.3 183.6 79C183.7 79.6 183.8 80.2 183.9 80.9C184.3 81 184.7 81 185.1 81.1C186 81 186.8 80.8 187.7 80.7C188.2 80.5 188.6 80.3 189.1 80.1C189.6 80 190.1 79.9 190.6 79.9C191.4 79.6 192.1 79.4 192.9 79.1C193.5 79 194.1 78.9 194.7 78.8C196.1 78.8 196.7 78.4 195.7 77C195.6 76.7 195.6 76.3 195.5 76C195.5 75.7 195.5 75.3 195.6 75C195.5 74.7 195.3 74.5 195.2 74.2C195.1 74.5 194.9 74.7 194.8 75C194.8 75.3 194.7 75.6 194.7 76C194.4 75.8 194.2 75.8 193.9 75.9L194 76C193.7 75.8 193.3 75.5 193 75.3C192.3 75.3 191.6 75.4 190.9 75.4C190.5 75.6 190.1 75.8 189.7 76C189.5 75.9 189.3 75.9 189.2 76C188.8 75.6 188.4 75.3 188 74.9C187.9 74.3 187.8 73.6 187.7 73C187.5 72.5 187.3 72 187 71.6C186.9 70.8 186.7 69.9 186.6 69.1C186.4 68.7 186.2 68.3 186 67.8C185.8 67.5 185.6 67.2 185.4 66.9C185.3 65.9 185.1 64.9 185 63.9C184.9 63.3 184.8 62.6 184.7 62C184.4 60.7 184.1 59.4 183.9 58.1C183.7 57.4 183.4 56.7 183.2 56C182.8 55 182.5 54 182.1 53L182 53.1C182.1 52.8 182 52.4 181.9 52.1C181.9 51.8 181.8 51.4 181.8 51.1C181.6 50.4 181.3 49.7 181.1 48.9C181 48.3 180.9 47.7 180.8 47.1C180.6 46.7 180.4 46.3 180.1 46C179.3 46 178.6 46.1 177.8 46.1C177.2 46.2 176.6 46.3 175.9 46.4C174.2 47.4 175.2 48.4 175.8 49.4C176.8 53.3 177.9 57.2 178.9 61.1C179.2 62.1 179.4 63.1 179.7 64.1C179.8 64.8 180 65.4 180.1 66.1C180.3 66.6 180.6 67.1 180.8 67.6C180.8 68.2 180.9 69.1 181 69.9ZM185.7 68.9C185.9 68.9 186.2 68.9 186.4 68.9C186.2 68.9 185.9 68.9 185.7 68.9C185.7 69.2 185.7 69.6 185.7 69.9C185.7 69.5 185.7 69.2 185.7 68.9Z" fill="#EDCEFF"/>
<path d="M19.9008 125.4C18.8008 122.1 17.7008 119 16.7008 115.9C16.6008 114.5 16.5008 113.1 16.4008 111.5C17.7008 111.1 18.8008 110.9 19.9008 110.5C22.9008 109.4 24.6008 107.1 24.2008 104.1C23.8008 101 22.6008 97.8997 21.8008 94.7997C21.4008 91.4997 19.4008 88.9997 16.2008 89.1997C13.0008 89.3997 9.90078 90.9997 6.80078 91.8997L6.70078 91.7997V91.8997C6.40078 91.8997 6.10078 91.8997 5.80078 91.8997C5.80078 92.4997 5.80078 93.1997 5.80078 93.7997C6.00078 94.9997 6.20078 96.0997 6.50078 97.1997C8.30078 104.1 10.1008 111 12.0008 117.9C12.8008 120.9 13.6008 123.8 14.4008 127.1C16.5008 126.4 18.1008 125.9 19.9008 125.4ZM16.6008 123.7C16.6008 123.7 16.7008 123.8 16.7008 123.9C16.5008 123.6 16.4008 123.4 16.6008 123.7ZM15.6008 115.8C15.0008 115.4 14.5008 115.3 14.1008 115.3C14.5008 115.3 14.9008 115.5 15.6008 115.8ZM13.1008 116.3C13.2008 116.1 13.3008 116 13.4008 115.8C13.2008 116 13.1008 116.1 13.1008 116.3ZM11.6008 95.8997C11.6008 95.2997 11.7008 94.6997 11.7008 93.9997C13.0008 93.9997 14.3008 93.9997 15.6008 93.9997C15.9008 94.3997 16.2008 94.6997 16.5008 95.0997C17.4008 98.3997 18.2008 101.6 19.2008 105.1C17.7008 106 16.6008 106.6 15.1008 107.5C13.9008 103.3 12.7008 99.5997 11.6008 95.8997Z" fill="#EDCEFF"/>
<path d="M55.1 116.1C57 115.5 58.3 115.1 59.7 114.7C59.9 114.5 60.2 114.2 60.4 114C59.6 111.2 58.7 108.4 57.9 105.6C56.4 99.7001 55 93.9001 53.5 88.0001C53.3 87.6001 53.1 87.3001 52.9 86.9001C52.4 84.6001 51.8 82.2001 51.2 79.6001C49.4 80.2001 48 80.6001 46.7 81.0001C46.5 81.3001 46.2 81.6001 46 81.9001C48.6 91.6001 51.2 101.3 53.9 110.9C54.3 112.5 54.7 114.2 55.1 116.1Z" fill="#EDCEFF"/>
<path d="M150.8 86.7001C146.5 85.4001 147.6 80.6001 145.3 77.9001C143.7 78.5001 142.3 79.1001 140.7 79.8001C141.2 81.1001 141.6 82.0001 141.9 82.9001C141.9 83.2001 142 83.6001 142 83.9001C144.4 90.1001 145.5 91.0001 150.6 90.7001C151.4 90.5001 152.1 90.3001 152.9 90.1001C156.6 89.2001 157.8 86.7001 157.7 83.2001C157.5 77.9001 155.3 73.7001 150.8 70.8001C149.1 69.7001 147.5 68.7001 145.8 67.7001C142.7 66.0001 141.2 63.5001 141.7 60.0001C142.1 59.7001 142.5 59.3001 142.8 59.0001C143.4 59.0001 144 59.0001 144.6 58.9001C145 59.2001 145.3 59.5001 145.7 59.8001V59.9001C146 60.4001 146.3 60.8001 146.5 61.3001C146.6 61.9001 146.7 62.4001 146.8 63.0001C147 63.5001 147.2 64.0001 147.5 64.5001L147.4 64.8001L147.6 65.0001C148.1 65.1001 148.5 65.1001 149 65.2001C149.8 65.1001 150.7 64.9001 151.5 64.8001C151.5 64.1001 151.6 63.5001 151.6 62.8001C151.5 62.2001 151.4 61.6001 151.3 61.0001C151.1 60.6001 150.9 60.2001 150.6 59.8001L150.7 59.9001C150.3 59.1001 150 58.4001 149.6 57.6001C149.7 57.3001 149.6 57.1001 149.3 56.9001C149.1 56.9001 148.8 56.9001 148.6 56.9001C148.8 56.9001 149.1 56.9001 149.3 56.9001C149 56.6001 148.8 56.2001 148.5 55.9001C148.2 55.6001 147.8 55.3001 147.5 55.1001C147.3 54.9001 147 54.8001 146.7 54.9001C145.2 54.9001 143.8 54.9001 142.3 54.9001C142 54.8001 141.7 54.8001 141.5 55.1001C140.8 55.4001 140.1 55.7001 139.4 56.0001C138.5 57.0001 137.5 58.0001 136.6 59.0001C136.6 59.3001 136.6 59.6001 136.6 60.0001C135.4 65.5001 137.3 69.5001 142.1 72.2001C142.5 72.5001 142.9 72.7001 143.3 73.0001C143.6 73.2001 144 73.4001 144.3 73.7001C146.5 75.1001 148.7 76.6001 150.9 78.0001C151.1 80.9001 153.3 83.7001 151.2 86.6001C151.3 86.5001 151 86.6001 150.8 86.7001ZM146.7 56.9001C147 56.9001 147.4 56.9001 147.7 56.9001C147.4 56.9001 147 56.9001 146.7 56.9001ZM148.8 56.8001C148.8 56.8001 148.7 56.7001 148.8 56.8001V56.8001ZM146.7 55.9001C146.7 55.9001 146.6 56.0001 146.5 56.1001C146.6 56.0001 146.7 55.9001 146.7 55.9001ZM146.5 56.0001C146.5 56.1001 146.5 56.1001 146.5 56.0001C146.5 56.1001 146.5 56.1001 146.5 56.0001ZM141.7 56.9001C141.7 56.6001 141.7 56.3001 141.7 56.0001C141.7 56.2001 141.7 56.6001 141.7 56.9001Z" fill="#EDCEFF"/>
<path d="M189.699 29.8997C189.699 29.9997 189.799 29.8997 189.799 29.8997C189.799 29.8997 189.699 29.7997 189.699 29.8997C189.699 29.7997 189.699 29.7997 189.699 29.8997C189.699 29.7997 189.699 29.7997 189.699 29.8997C189.699 29.7997 189.699 29.8997 189.699 29.8997Z" fill="#EDCEFF"/>
<path d="M115.401 79.8997C117.001 85.9997 118.601 92.0997 120.301 98.5997C122.901 97.8997 125.301 97.1997 127.601 96.5997C128.001 96.3997 128.301 96.2997 128.701 96.0997C129.301 95.9997 130.001 95.7997 130.601 95.6997C130.601 95.3997 130.601 95.0997 130.601 94.7997C130.601 95.0997 130.601 95.3997 130.601 95.6997C131.201 95.5997 131.701 95.4997 132.601 95.2997C132.301 94.4997 132.001 93.9997 131.801 93.3997C131.701 92.8997 131.601 92.2997 131.501 91.7997C130.901 90.0997 130.101 91.0997 129.401 91.6997C128.501 91.7997 127.601 91.9997 126.601 92.0997C126.201 92.2997 125.901 92.4997 125.501 92.6997C124.801 91.3997 124.101 90.0997 123.401 88.8997C123.101 88.1997 122.801 87.4997 122.501 86.7997C122.501 86.1997 122.501 85.4997 122.401 84.8997C122.201 84.1997 121.901 83.3997 121.701 82.6997C122.301 79.2997 125.901 80.9997 127.701 78.8997C127.201 77.7997 126.601 76.4997 126.101 75.3997C124.701 75.5997 123.701 75.7997 122.801 75.8997C122.001 76.4997 121.201 77.0997 120.401 77.6997C120.101 77.6997 119.901 77.6997 119.601 77.6997C119.601 77.3997 119.601 77.0997 119.601 76.7997C119.601 76.0997 119.701 75.4997 119.701 74.7997C119.001 72.0997 118.201 69.4997 117.401 66.6997C119.701 65.8997 121.701 65.0997 123.901 64.2997C123.501 62.8997 123.101 61.6997 122.601 60.1997C118.601 61.2997 114.801 62.2997 110.801 63.2997C111.101 64.5997 111.401 65.6997 111.601 66.7997C111.801 67.4997 112.101 68.1997 112.301 68.7997C113.101 72.0997 113.901 75.3997 114.601 78.6997C115.101 79.0997 115.301 79.4997 115.401 79.8997Z" fill="#EDCEFF"/>
<path d="M162.598 86.2998C162.398 86.2998 162.098 86.2998 161.898 86.2998C161.998 86.5998 162.098 86.7998 162.298 87.0998C162.398 86.7998 162.498 86.4998 162.598 86.2998Z" fill="#EDCEFF"/>
<path d="M104.598 89.9998C104.698 90.5998 104.798 91.1998 104.898 91.7998C105.098 92.4998 105.398 93.0998 105.598 93.7998C105.698 94.4998 105.798 95.0998 105.898 95.7998C106.098 96.2998 106.298 96.7998 106.598 97.1998C106.698 98.0998 106.898 98.8998 106.998 99.7998C107.198 100.2 107.398 100.7 107.598 101.1C109.298 101 110.998 100.9 112.798 100.8C112.498 99.5998 112.398 99.1998 112.298 98.6998C112.098 98.2998 111.898 97.7998 111.698 97.3998C111.598 96.7998 111.498 96.2998 111.398 95.6998C111.098 95.0998 110.798 94.3998 110.598 93.7998C110.298 92.5998 110.098 91.4998 109.798 90.2998C109.698 89.4998 109.498 88.5998 109.398 87.7998C109.198 87.4998 108.998 87.0998 108.698 86.7998C108.698 86.4998 108.598 86.1998 108.398 85.8998C107.198 80.6998 106.098 75.4998 104.898 70.1998C106.098 69.5998 107.298 69.0998 108.598 68.4998C108.198 67.1998 107.798 65.9998 107.198 64.2998C105.498 64.8998 103.998 65.4998 102.498 65.9998C102.498 66.1998 102.498 66.4998 102.498 66.6998C102.198 66.6998 101.798 66.7998 101.498 66.7998C101.798 66.7998 102.198 66.6998 102.498 66.6998C102.498 66.4998 102.498 66.1998 102.498 65.9998C102.198 65.9998 101.798 65.9998 101.498 65.9998C98.8984 66.6998 96.1984 67.2998 93.3984 67.9998C93.9984 69.7998 94.3984 70.9998 94.7984 71.9998C96.3984 71.9998 97.6984 71.9998 99.0984 71.9998C100.598 77.3998 102.098 82.5998 103.598 87.7998C104.098 88.5998 104.398 89.2998 104.598 89.9998Z" fill="#EDCEFF"/>
<path d="M92.7 7.9C92.7 7.6 92.7 7.3 92.7 7C91.6 7.3 90.6 7.5 89.5 7.8C90.6 7.8 91.6 7.8 92.7 7.9Z" fill="#EDCEFF"/>
<path d="M109.801 136.3C112.601 136.3 114.201 136.3 116.101 136.3C116.401 138 116.601 139.4 116.801 140.9C116.601 141.2 116.401 141.5 116.201 141.8C115.401 141.9 114.501 142 113.701 142.1C113.701 142.7 113.701 143.2 113.701 143.8C114.401 143.8 115.001 143.8 115.701 143.9C116.301 144 117.001 144.2 117.601 144.3C117.601 145.6 117.601 146.9 117.601 148.5C116.701 148.7 115.701 149 114.801 149.2C114.201 149.5 113.501 149.7 112.901 150C112.801 150.3 112.801 150.6 113.001 150.9C114.201 152.6 115.501 151.5 116.801 151.1C118.101 150.9 119.301 150.7 121.201 150.5C120.301 144.7 119.501 139.3 118.601 133.7C115.501 134 112.801 133.5 109.801 136.3Z" fill="#EDCEFF"/>
<path d="M141.398 137.8C141.198 137.4 140.998 137 140.798 136.6C140.698 136 140.498 135.4 140.398 134.8C140.198 134.5 139.998 134.1 139.798 133.8C139.898 133.5 139.798 133.2 139.598 132.9C139.398 132.4 139.098 131.9 138.898 131.5C138.998 131.3 138.998 131.1 138.798 131C138.498 130.5 138.198 130.1 137.898 129.6C137.798 129.1 137.698 128.5 137.698 128C137.398 127.4 137.098 126.8 136.798 126.2C136.398 126.4 135.998 126.7 135.598 126.9C135.598 127.3 135.698 127.6 135.698 128C135.698 128.6 135.798 129.2 135.798 129.8C135.398 130.1 134.998 130.5 134.598 130.8C134.298 130.8 133.998 130.9 133.798 131.1C133.198 131 132.498 130.8 131.898 130.7C131.598 130.4 131.298 130.1 130.998 129.8C130.798 129.6 130.598 129.4 130.298 129.2C130.098 129.4 129.898 129.6 129.698 129.8C129.398 130.1 129.098 130.5 128.898 130.8C129.198 131.2 129.498 131.6 129.798 132C130.598 132.9 131.298 133.9 132.098 134.8C132.398 135.1 132.598 135.4 132.898 135.7C133.198 136.1 133.498 136.5 133.798 136.9C134.598 137.9 135.398 138.9 136.198 139.8C136.398 140 136.598 140.3 136.898 140.5L136.998 140.6C137.298 141 137.598 141.3 137.798 141.7C138.098 142.1 138.398 142.5 138.798 142.9C139.198 143 139.498 143.2 139.898 143.3C140.198 143.1 140.498 142.9 140.798 142.7C141.398 142 141.998 141.4 142.598 140.7C142.398 140.3 142.098 139.9 141.898 139.5C141.698 139 141.498 138.4 141.398 137.8ZM137.498 137.9C137.498 137.6 137.498 137.3 137.398 137H137.298C137.098 137 136.798 136.9 136.598 136.9L136.498 136.8C136.198 136.4 135.898 136.1 135.598 135.7C135.298 135.3 134.898 134.9 134.598 134.5C134.598 134.2 134.398 133.9 134.198 133.7C134.298 133.4 134.298 133 134.398 132.7L134.498 132.6C134.898 132.3 135.298 132 135.698 131.8C135.898 131.8 136.198 131.8 136.398 131.8C136.498 132.1 136.598 132.4 136.598 132.7C136.898 132.8 137.198 133 137.498 133.1C137.498 133.7 137.498 134.2 137.498 134.8L137.798 134.7C137.698 135 137.698 135.3 137.698 135.5C137.998 135.6 138.198 135.8 138.498 135.9C138.498 136.2 138.398 136.5 138.298 136.8C138.398 137.1 138.398 137.5 138.498 137.8H138.598H138.498C138.198 137.8 137.898 137.8 137.598 137.7L137.498 137.9ZM138.898 137.7C138.898 137.7 138.898 137.8 138.898 137.7C139.098 138.1 139.298 138.4 139.498 138.8C139.298 138.5 139.098 138.1 138.898 137.7Z" fill="#EDCEFF"/>
<path d="M129.7 144.4C128.2 140.1 126.7 135.9 125.2 131.7C124.1 131.9 123.5 132.1 122.5 132.3C124 136.9 125.4 141.2 126.8 145.5C126 146.6 125.3 147.6 124.6 148.6C124.8 148.9 125.1 149.2 125.3 149.5C128.1 148.5 130.9 147.6 133.7 146.6C133.7 146.3 133.6 146 133.6 145.6C132.2 145.2 130.9 144.8 129.7 144.4Z" fill="#EDCEFF"/>
<path d="M93.9984 133.9C93.8984 134.2 93.7984 134.5 93.6984 134.8C93.2984 135.1 92.8984 135.5 92.4984 135.8C92.2984 135.7 92.0984 135.7 91.8984 135.8C91.1984 135.5 90.3984 135.2 89.6984 134.8H89.7984C89.6984 134.1 89.5984 133.5 89.5984 132.8C89.5984 132.5 89.4984 132.2 89.4984 131.9C88.5984 130.8 87.7984 130.1 86.8984 131.9C86.8984 132.2 86.8984 132.6 86.8984 132.9C86.7984 134.1 86.6984 135.3 86.5984 136.5C86.3984 137.3 86.1984 138.1 85.9984 138.9C85.8984 140.5 85.7984 142.1 85.6984 143.7C85.3984 144.8 85.1984 145.8 84.8984 146.9C85.0984 147.3 85.3984 147.6 85.5984 148C86.2984 148.3 86.9984 148.5 87.6984 148.8C88.0984 148.7 88.3984 148.7 88.7984 148.6C88.9984 148.4 89.1984 148.2 89.3984 148C89.4984 147.7 89.5984 147.3 89.7984 147C89.9984 146.7 90.1984 146.3 90.3984 146C90.4984 145.7 90.6984 145.4 90.7984 145.1C91.0984 144.4 91.4984 143.7 91.7984 143V143.1C91.9984 142.8 92.2984 142.4 92.4984 142.1C92.6984 141.9 92.7984 141.6 92.7984 141.2C92.9984 140.8 93.2984 140.4 93.4984 140.1C93.6984 139.8 93.8984 139.4 93.9984 139.1C94.1984 138.7 94.3984 138.4 94.5984 138C93.5984 138 92.5984 138 91.6984 138C91.6984 138.3 91.6984 138.7 91.6984 139C90.6984 140.9 89.5984 142.8 88.5984 144.7C88.2984 144.7 87.9984 144.7 87.6984 144.7C87.6984 143.9 87.6984 143 87.6984 142.2C87.8984 141.8 88.0984 141.4 88.2984 141C88.9984 139.6 87.7984 137.2 90.4984 137C90.8984 137.3 91.2984 137.5 91.6984 137.8V137.9C92.6984 137.9 93.6984 137.9 94.5984 137.9C94.7984 137.7 94.7984 137.5 94.7984 137.2C95.0984 136.8 95.2984 136.3 95.5984 135.9C95.6984 135.2 95.8984 134.5 95.9984 133.8C95.3984 133.8 94.6984 133.8 93.9984 133.9Z" fill="#EDCEFF"/>
<path d="M146.698 119.8C147.098 120.1 147.398 120.4 147.698 120.7L147.798 120.8C148.098 121.1 148.298 121.3 148.598 121.6C150.198 123 151.898 124.5 153.498 125.9C153.898 126.2 154.198 126.5 154.598 126.8C154.898 127.1 155.298 127.4 155.598 127.7L155.698 127.8C155.998 128 156.198 128.3 156.498 128.5C157.198 128.4 157.998 128.3 158.698 128.1C158.898 127.9 159.098 127.6 159.298 127.4C159.098 127.2 158.798 127 158.598 126.8C158.298 126.5 157.898 126.2 157.598 125.9L157.498 125.8C157.198 125.6 156.998 125.3 156.698 125.1C156.098 124.6 155.498 124.1 154.898 123.6C153.898 122.7 152.798 121.7 151.798 120.8C151.398 120.5 151.098 120.2 150.698 119.8C150.598 119.5 150.498 119.2 150.498 118.9C150.198 118.9 149.998 118.9 149.698 118.9H149.598C149.298 118.6 148.998 118.3 148.598 118L148.798 117.6C148.398 117.3 148.098 117 147.698 116.6C146.998 116.9 146.298 117.3 145.598 117.6C145.398 117.8 145.098 118 144.898 118.2C145.198 118.4 145.398 118.6 145.698 118.8C145.998 119.2 146.398 119.5 146.698 119.8Z" fill="#EDCEFF"/>
<path d="M145.702 130.9C145.502 130.5 145.202 130.2 145.002 129.8C144.802 129.5 144.702 129.2 144.502 128.8L144.702 128.9H145.002C144.902 128.6 144.702 128.2 144.602 127.9C144.402 127.6 144.102 127.2 143.902 126.9C144.202 126.9 144.502 127 144.802 126.9C145.102 127.2 145.402 127.6 145.702 127.9L145.802 128C148.402 130 150.902 132 153.502 134C154.302 133.3 154.802 132.9 155.602 132.2C151.102 128.4 146.702 124.7 142.102 120.8C141.102 122 140.302 122.8 139.602 123.7C141.002 126.4 142.402 129.1 143.802 131.8C145.002 134.1 146.302 136.3 147.702 138.8C148.602 138.1 149.102 137.7 149.902 137.1C148.302 135 147.002 132.9 145.702 130.9Z" fill="#EDCEFF"/>
<path d="M150.702 117.2C151.002 117.4 151.402 117.6 151.702 117.9C152.002 117.9 152.402 117.8 152.702 117.8C153.002 118.2 153.402 118.5 153.702 118.9C154.602 119.4 155.702 119.7 156.402 120.4C158.202 122.3 160.102 123.8 163.502 122.5C164.302 121.2 165.402 119.6 166.402 117.9C166.202 117.5 166.002 117.1 165.802 116.6C165.502 116.3 165.102 116 164.802 115.8C164.202 115.5 163.602 115.1 162.902 114.8C159.602 112.5 156.202 110.1 152.602 107.6C152.002 108.9 151.702 109.5 151.502 109.9C153.302 111.8 154.902 113.4 156.502 115C156.202 115.3 155.802 115.6 155.502 116C154.902 116 154.402 116 153.802 116C152.402 115 151.002 114.1 149.302 112.9C148.602 114.1 148.102 115.1 147.602 116C148.302 116.4 148.902 116.7 149.602 117.1C150.102 117 150.402 117.1 150.702 117.2ZM159.202 115.7C160.102 116 160.902 116.4 161.802 116.7C162.302 117.3 162.802 117.9 163.302 118.5C160.502 120.4 160.502 120.4 157.802 116.9C158.202 116.5 158.702 116.1 159.202 115.7Z" fill="#EDCEFF"/>
<path d="M103.798 134.8C103.098 134.5 102.398 134.3 101.698 134C101.398 133.8 101.098 133.8 100.698 134C99.9984 134.3 99.1984 134.5 98.4984 134.8C98.1984 135.1 97.8984 135.5 97.5984 135.8C97.3984 136.2 97.1984 136.5 96.8984 136.9C96.8984 137.9 96.8984 138.9 96.8984 139.9C97.0984 140.3 97.2984 140.6 97.5984 141C97.7984 141.3 97.9984 141.7 98.2984 142C98.6984 142.4 99.0984 142.7 99.4984 143.1H99.3984C100.198 144.9 102.298 146.3 101.298 148.8C100.398 148.8 99.5984 148.8 98.6984 148.9C98.3984 148.2 97.9984 147.6 97.6984 146.9C97.4984 146.7 97.2984 146.6 96.9984 146.7C96.5984 146.8 96.2984 146.8 95.8984 146.9C95.8984 147.6 95.8984 148.2 95.8984 148.9C96.0984 149.3 96.3984 149.6 96.5984 150C97.2984 150.4 97.8984 150.8 98.5984 151.2C100.598 152.3 102.298 151.9 103.498 149.9C103.698 149.7 103.798 149.5 103.798 149.2C103.798 147.8 103.698 146.4 103.698 144.9C102.698 144.2 101.698 143.6 100.598 142.9C100.298 141 100.098 139 99.7984 137.1C100.398 136.9 101.098 136.8 101.698 136.6C102.098 137.4 102.398 138.1 102.798 138.9C103.098 138.9 103.398 138.9 103.798 138.9C103.498 138.9 103.198 138.9 102.798 138.9C103.698 140.3 104.598 140.4 105.498 138.9C105.598 138.6 105.598 138.3 105.498 138C104.998 136.9 104.398 135.8 103.798 134.8Z" fill="#EDCEFF"/>
<path d="M80.7 129.8C81.2 130.2 81.7 130.6 82.2 131C81.3 133 80.5 134.9 79.6 136.7C79.4 137 79.2 137.3 79 137.7C78.9 138 78.7 138.4 78.6 138.7C78.4 139 78.2 139.4 77.9 139.7C77.8 140 77.7 140.3 77.5 140.7C77.3 141 77 141.4 76.8 141.7C76.5 141.9 76.4 142.2 76.4 142.6C76.4 143.2 76.3 144.3 76.5 144.4C78 145.1 78.4 144 78.6 142.8C78.9 142.4 79.1 142.1 79.4 141.7C79.6 141.4 79.9 141.1 80.1 140.8C80.4 140.6 80.5 140.3 80.5 140C80.8 139.6 81 139.2 81.3 138.8C81.5 138.6 81.6 138.4 81.6 138.1C81.9 137.7 82.1 137.3 82.4 136.8C82.6 136.6 82.7 136.4 82.7 136.1C83.1 135.3 83.5 134.6 83.9 133.8C84.6 132.6 85.3 131.5 86.3 130C84.4 129.2 83 128.6 81.6 127.9C81.2 127.6 80.9 127.2 80.5 126.9C80.2 126.7 80 126.7 79.6 126.8C79.3 126.8 79 126.8 78.7 126.8C78.7 127.1 78.7 127.4 78.6 127.7C79.4 128.5 80.1 129.2 80.7 129.8Z" fill="#EDCEFF"/>
<path d="M78.8016 127V126.9C78.8016 126.9 78.8016 126.9 78.8016 127C78.7016 127 78.7016 127 78.8016 127Z" fill="#EDCEFF"/>
<path d="M46.8008 50.1001C48.9008 51.3001 50.3008 52.1001 51.6008 52.9001C52.0008 53.2001 52.3008 53.4001 52.7008 53.7001C52.9008 54.0001 53.2008 54.1001 53.5008 54.1001C53.9008 54.4001 54.3008 54.6001 54.7008 54.9001C55.0008 55.1001 55.3008 55.3001 55.7008 55.6001C56.4008 56.0001 57.1008 56.5001 57.8008 56.9001C58.1008 57.1001 58.4008 57.3001 58.7008 57.5001C59.0008 57.6001 59.3008 57.8001 59.6008 57.9001C60.0008 58.2001 60.4008 58.4001 60.8008 58.7001C61.1008 58.7001 61.5008 58.7001 61.8008 58.6001C62.9008 58.0001 63.3008 57.4001 62.0008 56.6001C61.6008 56.3001 61.2008 56.1001 60.9008 55.8001C60.6008 55.6001 60.2008 55.3001 59.9008 55.1001C59.2008 54.7001 58.6008 54.2001 57.9008 53.8001C57.8008 53.5001 57.6008 53.2001 57.6008 52.9001C57.8008 52.7001 57.9008 52.4001 57.9008 52.1001C58.9008 52.0001 59.8008 51.8001 60.8008 51.7001C61.5008 52.1001 62.1008 52.5001 62.8008 52.9001C63.1008 53.1001 63.5008 53.4001 63.8008 53.6001C64.2008 53.7001 64.5008 53.7001 64.9008 53.8001C65.2008 53.5001 65.5008 53.2001 65.9008 52.9001C66.0008 52.8001 66.2008 52.7001 66.2008 52.6001C66.1008 52.4001 66.0008 52.2001 65.8008 52.0001L65.7008 51.9001C65.7008 51.6001 65.7008 51.4001 65.7008 51.1001C65.4008 51.1001 65.1008 51.1001 64.7008 51.1001L64.8008 50.7001C64.5008 50.7001 64.2008 50.8001 64.0008 50.8001C63.6008 50.5001 63.2008 50.2001 62.8008 50.0001C62.7008 49.8001 62.5008 49.7001 62.3008 49.8001C61.8008 49.5001 61.3008 49.3001 60.8008 49.0001C60.1008 49.0001 59.4008 48.9001 58.8008 48.9001C58.5008 48.5001 58.2008 48.1001 57.9008 47.7001C57.3008 47.0001 56.7008 46.4001 56.1008 45.7001C55.3008 45.3001 54.6008 45.0001 53.8008 44.6001L53.9008 44.7001C53.1008 44.7001 52.3008 44.7001 51.5008 44.8001C50.1008 46.4001 48.6008 48.1001 46.8008 50.1001ZM54.7008 47.7001C54.9008 47.9001 55.1008 48.0001 55.4008 47.9001C55.8008 48.3001 56.3008 48.7001 56.7008 49.1001C56.3008 49.9001 55.9008 50.7001 55.4008 51.7001C54.4008 51.4001 53.6008 51.1001 52.7008 50.8001C52.4008 50.6001 52.0008 50.3001 51.7008 50.1001C50.2008 47.9001 51.5008 47.2001 53.4008 46.9001C53.9008 47.2001 54.3008 47.5001 54.7008 47.7001Z" fill="#EDCEFF"/>
<path d="M84.1983 22.2C84.9983 24.6 85.6983 27.2 86.7983 29.5C87.7983 31.5 87.3983 34.9 91.6983 34.9C90.0983 30.1 88.5983 25.6 86.8983 20.7C87.5983 20.1 88.2983 19.5 89.0983 18.8C83.9983 18.3 80.4983 19.6 80.8983 22C81.8983 22.1 82.9983 22.2 84.1983 22.2Z" fill="#EDCEFF"/>
<path d="M134.8 37.8C134.4 37.6 134 37.3 133.7 37.1C133.5 36.9 133.2 36.8 132.8 36.8C132.4 36.4 132.1 36.1 131.7 35.7C131.7 35.4 131.7 35.1 131.7 34.9C131.9 34.6 132.1 34.2 132.4 33.9C132.5 33.6 132.7 33.3 132.8 33C133 32.6 133.2 32.3 133.5 31.9C134.9 29.4 136.3 27 137.5 24.5C137.8 23.8 137.3 22.7 137.2 21.8C136.7 21.7 136.3 21.6 135.8 21.5C134.5 24.2 133.1 27 131.8 29.7C131.6 30.1 131.3 30.4 131.1 30.8C130.9 31 130.8 31.3 130.8 31.6C130.6 32 130.3 32.4 130.1 32.8C130 33.1 129.9 33.5 129.8 33.8C129.6 34.2 129.4 34.5 129.1 34.9C128.9 35.1 128.8 35.3 128.8 35.6C128.5 35.7 128.3 35.8 128 35.9C128.3 36.2 128.6 36.5 128.9 36.8C129.2 37 129.5 37.3 129.8 37.5C130.1 37.6 130.4 37.8 130.7 37.9C131.4 38.2 132.1 38.6 132.8 38.9C133.1 39.1 133.5 39.4 133.8 39.6C134.1 39.6 134.5 39.6 134.8 39.6C135.1 39.7 135.4 39.7 135.7 39.8C135.7 39.5 135.6 39.2 135.6 38.9C135.3 38.5 135 38.2 134.8 37.8Z" fill="#EDCEFF"/>
<path d="M127.602 35.8999C127.602 35.9999 127.602 35.9999 127.602 36.0999C127.702 36.0999 127.702 35.9999 127.802 35.9999L127.702 35.8999C127.702 35.8999 127.702 35.8999 127.602 35.8999Z" fill="#EDCEFF"/>
<path d="M58.4987 42.9999C60.8987 45.2999 63.3987 47.4999 65.7987 49.7999C66.2987 50.0999 66.8987 50.3999 67.5987 50.7999C68.0987 50.1999 68.5987 49.5999 69.3987 48.5999C65.6987 45.5999 62.2987 42.7999 58.7987 39.9999C58.1987 38.5999 57.4987 37.2999 55.6987 38.6999C55.5987 39.2999 55.2987 40.2999 55.5987 40.5999C56.3987 41.4999 57.4987 42.1999 58.4987 42.9999Z" fill="#EDCEFF"/>
<path d="M95.6984 32.7998C96.6984 32.7998 97.5984 32.6998 98.5984 32.6998C102.398 32.7998 102.398 32.7998 102.598 30.1998C100.998 30.3998 99.2984 30.4998 97.6984 30.6998C97.5984 30.0998 97.4984 29.4998 97.3984 28.8998C97.3984 28.0998 97.3984 27.2998 97.3984 26.4998C98.5984 25.6998 99.5984 24.9998 101.398 23.7998C99.2984 23.1998 97.9984 22.7998 96.5984 22.3998C96.2984 21.4998 95.9984 20.5998 95.6984 19.7998C97.2984 18.7998 98.9984 17.8998 101.198 16.5998C97.7984 15.1998 95.1984 15.6998 92.3984 17.1998C92.8984 18.1998 93.2984 18.9998 93.6984 19.7998C94.4984 24.1998 95.0984 28.4998 95.6984 32.7998Z" fill="#EDCEFF"/>
<path d="M117.498 21.0999C118.998 18.4999 118.198 16.9999 116.498 15.9999C114.498 14.7999 112.398 14.7999 110.598 16.5999C110.398 16.7999 110.498 17.0999 110.398 17.3999C111.398 17.2999 112.298 17.0999 113.498 16.8999C114.898 18.4999 116.098 19.6999 117.498 21.0999Z" fill="#EDCEFF"/>
<path d="M114.701 32.6997C115.401 32.3997 116.001 32.1997 116.701 31.8997C116.801 31.5997 116.901 31.1997 117.001 30.8997C116.801 29.1997 116.701 27.5997 116.501 25.8997C115.501 24.4997 114.401 23.1997 113.301 21.6997C112.601 22.4997 112.101 23.0997 111.401 23.7997C112.301 24.5997 113.001 25.2997 113.701 25.8997C113.801 26.1997 113.901 26.4997 114.001 26.8997C113.801 28.1997 113.701 29.3997 113.501 30.6997C112.201 29.4997 110.801 28.2997 109.301 26.9997C108.301 31.8997 109.301 32.8997 114.701 32.6997Z" fill="#EDCEFF"/>
<path d="M59.7016 23.7998C59.4016 24.0998 59.0016 24.3998 58.7016 24.6998C58.5016 24.8998 58.2016 25.0998 57.9016 25.0998C57.9016 25.3998 57.9016 25.5998 57.7016 25.7998C57.4016 26.0998 57.1016 26.2998 56.7016 26.5998C56.4016 26.7998 56.1016 26.8998 55.8016 26.9998C55.8016 27.2998 55.7016 27.5998 55.6016 27.7998C55.3016 27.7998 55.0016 27.8998 54.7016 27.8998C54.4016 28.1998 54.0016 28.5998 53.7016 28.8998C53.7016 29.1998 53.6016 29.4998 53.6016 29.7998C53.6016 30.1998 53.6016 30.4998 53.7016 30.8998C53.7016 31.1998 53.7016 31.4998 53.8016 31.7998C54.1016 31.4998 54.4016 31.1998 54.7016 30.9998C55.0016 30.6998 55.4016 30.3998 55.7016 29.9998C56.0016 29.6998 56.3016 29.2998 56.6016 28.9998C56.9016 28.6998 57.3016 28.2998 57.6016 27.9998C58.0016 27.6998 58.3016 27.2998 58.7016 26.9998C59.3016 26.5998 59.9016 26.1998 60.5016 25.7998C60.8016 25.4998 61.1016 25.1998 61.4016 24.8998C61.8016 24.5998 62.2016 24.3998 62.6016 24.0998C62.2016 24.0998 61.8016 23.9998 61.5016 23.9998C61.1016 23.9998 60.7016 23.8998 60.2016 23.8998C59.9016 23.8998 59.7016 23.8998 59.4016 23.7998H59.7016Z" fill="#EDCEFF"/>
<path d="M128.6 23.8001C128.8 22.2001 128.9 20.6001 129.1 18.8001C127.7 18.4001 126.5 18.0001 125 17.6001C123.4 20.8001 122 23.7001 120.6 26.7001C120.3 27.4001 120 28.1001 119.6 28.8001C119 29.5001 118.5 30.2001 117.9 30.9001C117.8 31.2001 117.6 31.5001 117.5 31.8001C117.9 32.5001 118.2 33.1001 119.2 35.0001C120 33.2001 120.6 32.0001 120.9 31.3001C122.6 31.6001 123.5 31.8001 124.5 32.0001C124.6 33.1001 124.7 34.2001 124.8 35.5001C125.9 35.6001 126.8 35.7001 127.7 35.8001C127.8 33.2001 127.8 30.7001 127.9 28.1001C128.1 26.8001 128.3 25.3001 128.6 23.8001ZM125.9 26.9001C125.8 27.6001 125.8 28.2001 125.7 28.9001C124.7 30.0001 123.7 29.9001 122.6 29.0001C122.6 28.6001 122.6 28.3001 122.6 27.9001C123.4 26.3001 124.1 24.8001 124.9 23.2001C125.2 23.5001 125.6 23.8001 125.9 24.1001C125.9 24.4001 125.9 24.7001 125.9 25.1001C125.9 25.6001 125.9 26.2001 125.9 26.9001Z" fill="#EDCEFF"/>
<path d="M63.5992 38.9997C65.9992 40.9997 68.3992 42.8997 70.7992 44.8997C71.0992 45.0997 71.2992 45.3997 71.5992 45.5997C72.5992 44.9997 73.5992 44.2997 74.6992 43.6997C74.7992 43.5997 74.9992 43.4997 74.9992 43.4997C74.8992 43.2997 74.7992 42.9997 74.6992 42.7997C74.5992 42.4997 74.4992 42.1997 74.3992 41.8997C74.1992 41.5997 73.8992 41.1997 73.6992 40.8997C73.2992 40.1997 72.8992 39.5997 72.4992 38.8997C72.1992 38.4997 71.9992 38.0997 71.6992 37.6997C71.6992 37.3997 71.5992 37.0997 71.2992 36.8997C71.0992 36.5997 70.7992 36.1997 70.5992 35.8997C70.1992 35.1997 69.7992 34.5997 69.3992 33.8997C69.0992 33.4997 68.8992 33.0997 68.5992 32.6997C68.5992 32.3997 68.4992 32.0997 68.1992 31.8997C67.9992 31.5997 67.6992 31.1997 67.4992 30.8997C66.7992 30.2997 66.0992 29.7997 65.4992 29.1997C65.2992 29.4997 64.9992 29.6997 64.7992 29.9997C64.7992 30.3997 64.7992 30.6997 64.8992 31.0997C65.0992 31.3997 65.2992 31.6997 65.5992 32.0997C65.8992 32.4997 66.1992 32.8997 66.4992 33.2997L66.3992 33.1997C66.7992 33.8997 67.1992 34.5997 67.4992 35.2997C67.8992 35.8997 68.2992 36.5997 68.6992 37.1997C68.9992 37.5997 69.1992 37.9997 69.4992 38.3997C69.4992 38.6997 69.3992 38.8997 69.3992 39.1997L69.7992 39.0997C69.6992 39.3997 69.6992 39.7997 69.5992 40.0997H69.4992L69.5992 40.2997C69.0992 39.9997 68.6992 39.5997 68.1992 39.2997C65.6992 37.3997 63.2992 35.5997 60.6992 33.5997C60.0992 34.0997 59.6992 34.4997 58.6992 35.2997C60.0992 36.4997 61.2992 37.4997 62.4992 38.4997C62.9992 38.3997 63.2992 38.6997 63.5992 38.9997ZM70.6992 39.8997C70.6992 40.1997 70.6992 40.4997 70.5992 40.6997C70.6992 40.3997 70.6992 40.1997 70.6992 39.8997Z" fill="#EDCEFF"/>
<path d="M72.6008 29C72.6008 29.3 72.6008 29.6 72.8008 29.9C73.0008 30.4 73.2008 30.8 73.5008 31.3C73.6008 31.8 73.7008 32.4 73.9008 32.9C74.1008 33.3 74.4008 33.8 74.6008 34.2C74.6008 34.5 74.7008 34.7 74.8008 34.9C75.1008 35.6 75.4008 36.4 75.6008 37.1C75.6008 37.4 75.7008 37.7 75.9008 37.9C76.2008 38.6 76.5008 39.3 76.7008 39.9C76.8008 40.2 76.9008 40.5 77.0008 40.8C77.3008 40.8 77.6008 40.8 78.0008 40.9C78.2008 40.2 78.4008 39.5 78.6008 38.8C78.7008 38.2 78.8008 37.5 79.0008 36.9C80.0008 36.6 80.9008 36.2 81.9008 35.9C82.2008 36.2 82.6008 36.5 82.9008 36.8L83.0008 36.9C83.7008 37 84.4008 37 85.2008 37.1C85.0008 36.4 84.8008 35.7 84.6008 34.9C84.4008 34.6 84.1008 34.4 83.9008 34.1L83.8008 34C83.5008 33.7 83.2008 33.3 82.9008 33C82.6008 32.6 82.3008 32.2 82.0008 31.8C80.9008 30.5 79.8008 29.2 78.8008 27.9C78.5008 27.6 78.3008 27.3 78.0008 27C77.7008 26.6 77.4008 26.3 77.1008 25.9C76.5008 25.2 76.0008 24.4 75.2008 23.5C74.0008 24.2 72.9008 24.8 71.8008 25.4C72.0008 26.4 72.2008 27.2 72.3008 27.9C72.2008 28.2 72.4008 28.6 72.6008 29ZM77.7008 30.8C78.0008 31.2 78.3008 31.6 78.6008 31.9L78.7008 31.8C78.7008 32.1 78.8008 32.4 78.8008 32.7C79.1008 32.7 79.3008 32.8 79.6008 32.9C79.6008 33.2 79.7008 33.5 79.7008 33.8C79.3008 34 78.9008 34.3 78.5008 34.5L78.6008 34.9C78.3008 34.9 77.9008 34.9 77.6008 34.9C77.4008 34.7 77.1008 34.5 76.8008 34.5C76.8008 33.9 76.7008 33.4 76.7008 32.8L76.4008 32.9C76.2008 32.5 76.0008 32 75.7008 31.6C75.6008 31 75.6008 30.4 75.5008 29.8L75.8008 29.9C76.1008 29.9 76.3008 29.8 76.6008 29.8L76.8008 29.7C77.2008 30.1 77.5008 30.5 77.7008 30.8Z" fill="#EDCEFF"/>
<path d="M135.602 39.7998V39.8998L135.702 39.7998C135.702 39.7998 135.702 39.7998 135.602 39.7998C135.702 39.7998 135.602 39.7998 135.602 39.7998Z" fill="#EDCEFF"/>
</svg>
