<svg width="16" height="16" viewBox="0 0 16 16" fill="none" xmlns="http://www.w3.org/2000/svg">
<g clip-path="url(#clip0_31_10692)">
<path d="M7.99998 1.33325C4.31798 1.33325 1.33331 4.31792 1.33331 7.99992C1.33331 11.6819 4.31798 14.6666 7.99998 14.6666C11.682 14.6666 14.6666 11.6819 14.6666 7.99992C14.6666 4.31792 11.682 1.33325 7.99998 1.33325Z" stroke="#6666FF" stroke-width="1.5" stroke-linecap="round" stroke-linejoin="round"/>
<path d="M2.84766 12.2307C2.84766 12.2307 4.33366 10.3333 8.00032 10.3333C11.667 10.3333 13.1537 12.2307 13.1537 12.2307M8.00032 8C8.53076 8 9.03946 7.78929 9.41454 7.41421C9.78961 7.03914 10.0003 6.53043 10.0003 6C10.0003 5.46957 9.78961 4.96086 9.41454 4.58579C9.03946 4.21071 8.53076 4 8.00032 4C7.46989 4 6.96118 4.21071 6.58611 4.58579C6.21104 4.96086 6.00032 5.46957 6.00032 6C6.00032 6.53043 6.21104 7.03914 6.58611 7.41421C6.96118 7.78929 7.46989 8 8.00032 8Z" stroke="#6666FF" stroke-width="1.5" stroke-linecap="round" stroke-linejoin="round"/>
</g>
<defs>
<clipPath id="clip0_31_10692">
<rect width="16" height="16" fill="white"/>
</clipPath>
</defs>
</svg>
