<svg width="47" height="47" viewBox="0 0 47 47" fill="none" xmlns="http://www.w3.org/2000/svg">
<rect x="0.5" y="0.5" width="46" height="46" rx="5.5" fill="white"/>
<path d="M23.5 13.5C17.977 13.5 13.5 17.977 13.5 23.5C13.5 29.023 17.977 33.5 23.5 33.5C29.023 33.5 33.5 29.023 33.5 23.5C33.5 17.977 29.023 13.5 23.5 13.5Z" stroke="#6666FF" stroke-width="1.5" stroke-linecap="round" stroke-linejoin="round"/>
<path d="M15.7715 29.846C15.7715 29.846 18.0005 27 23.5005 27C29.0005 27 31.2305 29.846 31.2305 29.846M23.5005 23.5C24.2961 23.5 25.0592 23.1839 25.6218 22.6213C26.1844 22.0587 26.5005 21.2956 26.5005 20.5C26.5005 19.7044 26.1844 18.9413 25.6218 18.3787C25.0592 17.8161 24.2961 17.5 23.5005 17.5C22.7048 17.5 21.9418 17.8161 21.3792 18.3787C20.8166 18.9413 20.5005 19.7044 20.5005 20.5C20.5005 21.2956 20.8166 22.0587 21.3792 22.6213C21.9418 23.1839 22.7048 23.5 23.5005 23.5Z" stroke="#6666FF" stroke-width="1.5" stroke-linecap="round" stroke-linejoin="round"/>
<rect x="0.5" y="0.5" width="46" height="46" rx="5.5" stroke="#E6E6FF"/>
</svg>
