<svg width="20" height="21" viewBox="0 0 20 21" fill="none" xmlns="http://www.w3.org/2000/svg">
<circle cx="10" cy="10.0127" r="10" fill="#372E5E"/>
<path d="M11.6117 13.4657C12.0036 13.8549 12.6367 13.8527 13.0259 13.4608C13.4151 13.0689 13.4128 12.4357 13.021 12.0466L11.4142 10.451L13.0097 8.84428C13.3988 8.45239 13.3966 7.81923 13.0047 7.43007C12.6129 7.04092 11.9797 7.04313 11.5905 7.43502L9.99502 9.04173L8.38832 7.44623C7.99644 7.05708 7.36327 7.05929 6.97412 7.45118C6.58496 7.84306 6.58718 8.47622 6.97906 8.86538L8.58576 10.4609L6.99019 12.0676C6.60103 12.4595 6.60324 13.0927 6.99513 13.4819C7.38702 13.871 8.02018 13.8688 8.40934 13.4769L10.0049 11.8701L11.6117 13.4657Z" fill="url(#paint0_linear_4887_8350)"/>
<path d="M11.6117 13.4657C12.0036 13.8549 12.6367 13.8527 13.0259 13.4608C13.4151 13.0689 13.4128 12.4357 13.021 12.0466L11.4142 10.451L13.0097 8.84428C13.3988 8.45239 13.3966 7.81923 13.0047 7.43007C12.6129 7.04092 11.9797 7.04313 11.5905 7.43502L9.99502 9.04173L8.38832 7.44623C7.99644 7.05708 7.36327 7.05929 6.97412 7.45118C6.58496 7.84306 6.58718 8.47622 6.97906 8.86538L8.58576 10.4609L6.99019 12.0676C6.60103 12.4595 6.60324 13.0927 6.99513 13.4819C7.38702 13.871 8.02018 13.8688 8.40934 13.4769L10.0049 11.8701L11.6117 13.4657Z" fill="#ED0376"/>
<defs>
<linearGradient id="paint0_linear_4887_8350" x1="10" y1="7.13965" x2="14.9357" y2="9.58578" gradientUnits="userSpaceOnUse">
<stop stop-color="#7B42A9"/>
<stop offset="1" stop-color="#ED0376"/>
</linearGradient>
</defs>
</svg>
