<svg width="80" height="80" viewBox="0 0 80 80" fill="none" xmlns="http://www.w3.org/2000/svg">
<circle cx="40" cy="40" r="40" fill="white"/>
<circle cx="40" cy="40" r="39.5" stroke="#E6E6FF" stroke-opacity="0.7"/>
<path d="M40.002 33.5V37.1667M40.002 44.5V44.5183" stroke="#6666FF" stroke-width="1.5" stroke-linecap="round" stroke-linejoin="round"/>
<path d="M27.1678 51.8369H52.8345C53.4327 51.8327 54.0208 51.6822 54.5475 51.3985C55.0742 51.1148 55.5235 50.7065 55.8562 50.2093C56.1889 49.7121 56.3949 49.141 56.4561 48.5459C56.5174 47.9508 56.4322 47.3498 56.2078 46.7952L43.1912 24.3369C42.8741 23.7638 42.4093 23.2861 41.845 22.9534C41.2808 22.6208 40.6378 22.4453 39.9828 22.4453C39.3279 22.4453 38.6848 22.6208 38.1206 22.9534C37.5564 23.2861 37.0916 23.7638 36.7745 24.3369L23.7578 46.7952C23.5377 47.3371 23.4504 47.9238 23.5033 48.5063C23.5561 49.0888 23.7475 49.6502 24.0615 50.1436C24.3755 50.637 24.803 51.0482 25.3083 51.3428C25.8136 51.6373 26.3821 51.8067 26.9662 51.8369" stroke="#6666FF" stroke-width="1.5" stroke-linecap="round" stroke-linejoin="round"/>
</svg>
