<svg width="24" height="24" viewBox="0 0 24 24" fill="none" xmlns="http://www.w3.org/2000/svg">
<path d="M10.1297 0.723364C9.27017 0.723364 8.56195 1.43565 8.56195 2.30005V3.40044C7.42937 3.8052 6.40099 4.41824 5.5163 5.19885L4.56098 4.65686C3.81211 4.23557 2.84931 4.50223 2.42987 5.25633L0.894802 8.00733C0.472614 8.76632 0.747566 9.73609 1.499 10.1589L2.45435 10.7008C2.36698 11.2182 2.29104 11.7434 2.29104 12.2857C2.29104 12.8275 2.36716 13.3455 2.45435 13.8624L1.499 14.4044C0.747566 14.8272 0.472614 15.7969 0.894802 16.5559L2.42987 19.3069C2.84929 20.061 3.81211 20.3277 4.56098 19.9064L5.5163 19.3726C6.40018 20.1518 7.43089 20.7585 8.56195 21.1628V22.2714C8.56195 23.1358 9.27017 23.8481 10.1297 23.8481H13.2651C14.1246 23.8481 14.8329 23.1358 14.8329 22.2714V21.1628C15.9612 20.7586 16.9882 20.1501 17.8703 19.3726L18.8257 19.9064C19.5745 20.3276 20.5455 20.061 20.9649 19.3069C21.4845 18.3432 22.0354 17.3716 22.5 16.5559C22.9222 15.7969 22.6391 14.8272 21.8876 14.4044L20.9323 13.8624C21.0195 13.3455 21.1038 12.8276 21.1038 12.2857C21.1038 11.7433 21.0197 11.2183 20.9323 10.7008L21.8876 10.1589C22.6391 9.73609 22.9222 8.76632 22.5 8.00733C21.9521 7.05833 21.4071 6.06563 20.9649 5.25633C20.5455 4.50222 19.5745 4.23559 18.8257 4.65686L17.8703 5.19064C16.9882 4.41327 15.9612 3.80453 14.8329 3.40044V2.30005C14.8329 1.43565 14.1246 0.723364 13.2651 0.723364H10.1297ZM11.6974 8.08123C14.0125 8.08123 15.878 9.9574 15.878 12.2857C15.878 14.614 14.0125 16.4902 11.6974 16.4902C9.38234 16.4902 7.5168 14.614 7.5168 12.2857C7.5168 9.95737 9.38234 8.08123 11.6974 8.08123Z" fill="#EDCEFF"/>
</svg>
