<svg width="16" height="16" viewBox="0 0 16 16" fill="none" xmlns="http://www.w3.org/2000/svg">
<g clip-path="url(#clip0_3810_60394)">
<path d="M8 10C9.1046 10 10 9.1046 10 8C10 6.8954 9.1046 6 8 6C6.8954 6 6 6.8954 6 8C6 9.1046 6.8954 10 8 10Z" stroke="#8F8FB2" stroke-width="1.5" stroke-linecap="round" stroke-linejoin="round"/>
<path d="M13.0818 6.93018L12.35 5.16312L13.3335 3.99992L12.0002 2.66659L10.8433 3.65522L9.0387 2.91308L8.6237 1.33325H7.32083L6.89956 2.93401L5.13644 3.67723L4.00016 2.66659L2.66683 3.99992L3.63574 5.19248L2.91516 6.96412L1.3335 7.33325V8.66658L2.93424 9.10359L3.67733 10.8664L2.66683 11.9999L4.00016 13.3333L5.19427 12.3601L6.9315 13.0748L7.3335 14.6666H8.66683L9.06983 13.0754L10.8369 12.3436C11.1314 12.5541 12.0002 13.3333 12.0002 13.3333L13.3335 11.9999L12.3441 10.8329L13.0761 9.06525L14.6668 8.65138L14.6668 7.33325L13.0818 6.93018Z" stroke="#8F8FB2" stroke-width="1.5" stroke-linecap="round" stroke-linejoin="round"/>
</g>
<defs>
<clipPath id="clip0_3810_60394">
<rect width="16" height="16" fill="white"/>
</clipPath>
</defs>
</svg>
