<svg width="22" height="23" viewBox="0 0 22 23" fill="none" xmlns="http://www.w3.org/2000/svg">
<path opacity="0.5" d="M9.47693 0.46936C8.6525 0.46936 7.97319 1.15258 7.97319 1.98169V3.03717C6.88684 3.4254 5.90044 4.01342 5.05185 4.76217L4.13553 4.24231C3.41722 3.83821 2.49372 4.09399 2.0914 4.81731L0.618986 7.45603C0.21403 8.18404 0.47776 9.11422 1.19853 9.51973L2.11488 10.0396C2.03107 10.5358 1.95824 11.0396 1.95824 11.5598C1.95824 12.0795 2.03125 12.5763 2.11488 13.0721L1.19853 13.592C0.47776 13.9975 0.21403 14.9276 0.618986 15.6557L2.0914 18.2944C2.4937 19.0177 3.41722 19.2735 4.13553 18.8694L5.05185 18.3574C5.89966 19.1048 6.88829 19.6867 7.97319 20.0745V21.1379C7.97319 21.967 8.6525 22.6502 9.47693 22.6502H12.4844C13.3088 22.6502 13.9881 21.967 13.9881 21.1379V20.0745C15.0705 19.6868 16.0555 19.1032 16.9016 18.3574L17.818 18.8694C18.5362 19.2734 19.4676 19.0177 19.8699 18.2944C20.3682 17.37 20.8967 16.4381 21.3423 15.6557C21.7473 14.9276 21.4757 13.9975 20.755 13.592L19.8386 13.0721C19.9223 12.5763 20.0031 12.0795 20.0031 11.5598C20.0031 11.0395 19.9224 10.5359 19.8386 10.0396L20.755 9.51973C21.4757 9.11422 21.7473 8.18404 21.3423 7.45603C20.8168 6.54575 20.2941 5.59357 19.8699 4.81731C19.4676 4.09398 18.5362 3.83823 17.818 4.24231L16.9016 4.7543C16.0555 4.00866 15.0704 3.42476 13.9881 3.03717V1.98169C13.9881 1.15258 13.3088 0.46936 12.4844 0.46936H9.47693ZM9.47693 1.47758H12.4844C12.7707 1.47758 12.9856 1.6937 12.9856 1.98169V3.36799C12.9856 3.58099 13.1359 3.78523 13.3381 3.84847C14.5425 4.22022 15.6199 4.86903 16.51 5.72313C16.6654 5.8713 16.9197 5.90159 17.1053 5.79402L18.3114 5.11663C18.5625 4.97536 18.8528 5.06193 18.9928 5.31354L20.4652 7.95224C20.6025 8.19916 20.5101 8.50556 20.2616 8.6454L19.0633 9.32279C18.8795 9.4277 18.7764 9.65848 18.8205 9.8663C18.9363 10.4121 19.0006 10.9786 19.0006 11.5598C19.0006 12.1409 18.9363 12.6996 18.8205 13.2454C18.7764 13.4532 18.8795 13.684 19.0633 13.7889L20.2616 14.4663C20.5101 14.6061 20.6025 14.9125 20.4652 15.1594L18.9928 17.7981C18.8528 18.0497 18.5625 18.1363 18.3114 17.9951L17.1053 17.3177C16.9197 17.2101 16.6654 17.2404 16.51 17.3886C15.6199 18.2426 14.5425 18.8915 13.3381 19.2632C13.1333 19.3272 12.9827 19.5359 12.9856 19.7516V21.1379C12.9856 21.4258 12.7707 21.642 12.4844 21.642H9.47693C9.19057 21.642 8.97568 21.4258 8.97568 21.1379V19.7516C8.97819 19.534 8.823 19.3244 8.61541 19.2632C7.41099 18.8915 6.33364 18.2426 5.44348 17.3886C5.28804 17.2404 5.03376 17.2101 4.84825 17.3177L3.6421 17.9951C3.39103 18.1363 3.1085 18.0497 2.96858 17.7981C2.44304 16.8879 1.9203 15.9357 1.49617 15.1594C1.3588 14.9125 1.44333 14.6061 1.69195 14.4663L2.89023 13.7889C3.07396 13.684 3.17704 13.4532 3.13303 13.2454C3.01717 12.6996 2.96073 12.1409 2.96073 11.5598C2.96073 10.9786 3.01717 10.4121 3.13303 9.8663C3.17704 9.65848 3.07399 9.4277 2.89023 9.32279L1.69195 8.6454C1.44333 8.50553 1.3588 8.19916 1.49617 7.95224C1.99443 7.02783 2.52284 6.09593 2.96858 5.31354C3.1085 5.06193 3.39103 4.97536 3.6421 5.11663L4.84825 5.79402C5.03376 5.90159 5.28804 5.8713 5.44348 5.72313C6.33359 4.86903 7.41099 4.22022 8.61541 3.84847C8.8205 3.78801 8.97425 3.58294 8.97568 3.36799V1.98169C8.97568 1.6937 9.19057 1.47758 9.47693 1.47758ZM10.9807 6.51868C8.2183 6.51868 5.96821 8.7816 5.96821 11.5598C5.96821 14.3379 8.2183 16.6009 10.9807 16.6009C13.743 16.6009 15.9931 14.3379 15.9931 11.5598C15.9931 8.7816 13.743 6.51868 10.9807 6.51868ZM10.9807 7.5269C13.2013 7.5269 14.9906 9.32649 14.9906 11.5598C14.9906 13.793 13.2013 15.5927 10.9807 15.5927C8.76009 15.5927 6.9707 13.793 6.9707 11.5598C6.9707 9.32647 8.76009 7.5269 10.9807 7.5269Z" fill="#EDCEFF"/>
</svg>
