<svg width="14" height="8" viewBox="0 0 14 8" fill="none" xmlns="http://www.w3.org/2000/svg">
<path fill-rule="evenodd" clip-rule="evenodd" d="M13 2.89443L13.4472 2L9.44721 0L9 0.894427L11 1.89443H0V2.89443H13Z" fill="#B9AAF2"/>
<path fill-rule="evenodd" clip-rule="evenodd" d="M13 2.89443L13.4472 2L9.44721 0L9 0.894427L11 1.89443H0V2.89443H13Z" fill="#B9AAF2"/>
<path fill-rule="evenodd" clip-rule="evenodd" d="M13 2.89443L13.4472 2L9.44721 0L9 0.894427L11 1.89443H0V2.89443H13Z" fill="#B9AAF2"/>
<path fill-rule="evenodd" clip-rule="evenodd" d="M13 2.89443L13.4472 2L9.44721 0L9 0.894427L11 1.89443H0V2.89443H13Z" fill="#B9AAF2"/>
<path fill-rule="evenodd" clip-rule="evenodd" d="M0.447235 4.99998H13.4472V5.99998H2.44724L4.44724 6.99998L4.00002 7.89441L2.19345e-05 5.89441L0.447205 5.00004V4.99998H0.447235Z" fill="#B9AAF2"/>
<path fill-rule="evenodd" clip-rule="evenodd" d="M0.447235 4.99998H13.4472V5.99998H2.44724L4.44724 6.99998L4.00002 7.89441L2.19345e-05 5.89441L0.447205 5.00004V4.99998H0.447235Z" fill="#B9AAF2"/>
<path fill-rule="evenodd" clip-rule="evenodd" d="M0.447235 4.99998H13.4472V5.99998H2.44724L4.44724 6.99998L4.00002 7.89441L2.19345e-05 5.89441L0.447205 5.00004V4.99998H0.447235Z" fill="#B9AAF2"/>
<path fill-rule="evenodd" clip-rule="evenodd" d="M0.447235 4.99998H13.4472V5.99998H2.44724L4.44724 6.99998L4.00002 7.89441L2.19345e-05 5.89441L0.447205 5.00004V4.99998H0.447235Z" fill="#B9AAF2"/>
</svg>
