<svg width="20" height="20" viewBox="0 0 20 20" fill="none" xmlns="http://www.w3.org/2000/svg">
<g clip-path="url(#clip0_14600_22528)">
<path d="M10.0001 18.3333C14.6025 18.3333 18.3334 14.6023 18.3334 9.99996C18.3334 5.39759 14.6025 1.66663 10.0001 1.66663C5.39771 1.66663 1.66675 5.39759 1.66675 9.99996C1.66675 14.6023 5.39771 18.3333 10.0001 18.3333Z" stroke="#6666FF" stroke-width="1.5"/>
<path d="M13.819 8.0556C13.1745 6.74752 11.7024 5.83337 9.98959 5.83337C7.8237 5.83337 6.04282 7.29511 5.83325 9.16671" stroke="#6666FF" stroke-width="1.5" stroke-linecap="round" stroke-linejoin="round"/>
<path d="M12.0784 8.10185H13.6669C13.943 8.10185 14.1669 7.87799 14.1669 7.60185V6.25" stroke="#6666FF" stroke-width="1.5" stroke-linecap="round" stroke-linejoin="round"/>
<path d="M6.18091 11.3889C6.82547 13.024 8.2975 14.1667 10.0103 14.1667C12.1763 14.1667 13.9571 12.3395 14.1667 10" stroke="#6666FF" stroke-width="1.5" stroke-linecap="round" stroke-linejoin="round"/>
<path d="M7.92174 11.3518H6.33325C6.05711 11.3518 5.83325 11.5757 5.83325 11.8518V13.6666" stroke="#6666FF" stroke-width="1.5" stroke-linecap="round" stroke-linejoin="round"/>
</g>
<defs>
<clipPath id="clip0_14600_22528">
<rect width="20" height="20" fill="white"/>
</clipPath>
</defs>
</svg>
