<svg width="20" height="19" viewBox="0 0 20 19" fill="none" xmlns="http://www.w3.org/2000/svg">
<path d="M10.2114 18C14.906 18 18.7114 14.1946 18.7114 9.5C18.7114 4.80545 14.906 1 10.2114 1C5.51688 1 1.71143 4.80545 1.71143 9.5C1.71143 14.1946 5.51688 18 10.2114 18Z" stroke="#0EC080" stroke-width="1.5" stroke-linecap="round" stroke-linejoin="round"/>
<path d="M10.3016 13.2244C9.77132 13.2244 9.29902 13.1333 8.88472 12.951C8.47279 12.7663 8.14727 12.513 7.90816 12.1911C7.67142 11.8667 7.54949 11.4927 7.54239 11.0689H9.09069C9.10016 11.2464 9.15816 11.4027 9.26469 11.5376C9.37359 11.6702 9.51801 11.7732 9.69793 11.8466C9.87786 11.92 10.0803 11.9567 10.3052 11.9567C10.5396 11.9567 10.7467 11.9152 10.9266 11.8324C11.1065 11.7495 11.2474 11.6347 11.3492 11.4879C11.451 11.3411 11.5019 11.1719 11.5019 10.9801C11.5019 10.786 11.4475 10.6143 11.3386 10.4652C11.232 10.3137 11.0781 10.1953 10.8769 10.1101C10.678 10.0249 10.4413 9.98224 10.1667 9.98224H9.48841V8.85298H10.1667C10.3987 8.85298 10.6035 8.81274 10.781 8.73224C10.961 8.65175 11.1006 8.54048 11.2001 8.39844C11.2995 8.25402 11.3492 8.08594 11.3492 7.89418C11.3492 7.71188 11.3054 7.55208 11.2178 7.41477C11.1326 7.27509 11.0119 7.16619 10.8556 7.08807C10.7017 7.00994 10.5218 6.97088 10.3158 6.97088C10.1075 6.97088 9.91692 7.00876 9.7441 7.08452C9.57127 7.15791 9.43278 7.26326 9.32861 7.40057C9.22445 7.53788 9.16881 7.69886 9.16171 7.88352H7.68799C7.69509 7.46449 7.81465 7.09517 8.04665 6.77557C8.27866 6.45597 8.59116 6.2062 8.98415 6.02628C9.37951 5.84399 9.82577 5.75284 10.3229 5.75284C10.8248 5.75284 11.264 5.84399 11.6404 6.02628C12.0168 6.20857 12.3092 6.45478 12.5175 6.76491C12.7282 7.07268 12.8324 7.41832 12.83 7.80185C12.8324 8.20904 12.7057 8.54877 12.4501 8.82102C12.1967 9.09328 11.8665 9.2661 11.4593 9.33949V9.39631C11.9943 9.46496 12.4015 9.6508 12.6809 9.95384C12.9626 10.2545 13.1023 10.6309 13.0999 11.0831C13.1023 11.4974 12.9827 11.8655 12.7413 12.1875C12.5021 12.5095 12.1719 12.7628 11.7505 12.9474C11.3291 13.1321 10.8461 13.2244 10.3016 13.2244Z" fill="#0EC080"/>
</svg>
