<svg width="47" height="47" viewBox="0 0 47 47" fill="none" xmlns="http://www.w3.org/2000/svg">
<rect x="0.5" y="0.5" width="46" height="46" rx="5.5" fill="white"/>
<path d="M20.5 13.5H26.5M23.5 21.5V25.5M23.5 33.5C25.6217 33.5 27.6566 32.6571 29.1569 31.1569C30.6571 29.6566 31.5 27.6217 31.5 25.5C31.5 23.3783 30.6571 21.3434 29.1569 19.8431C27.6566 18.3429 25.6217 17.5 23.5 17.5C21.3783 17.5 19.3434 18.3429 17.8431 19.8431C16.3429 21.3434 15.5 23.3783 15.5 25.5C15.5 27.6217 16.3429 29.6566 17.8431 31.1569C19.3434 32.6571 21.3783 33.5 23.5 33.5Z" stroke="#6666FF" stroke-width="1.5" stroke-linecap="round" stroke-linejoin="round"/>
<rect x="0.5" y="0.5" width="46" height="46" rx="5.5" stroke="#E6E6FF"/>
</svg>
