<svg width="51" height="45" viewBox="0 0 51 45" fill="none" xmlns="http://www.w3.org/2000/svg">
<rect width="51" height="45" rx="4" fill="#2C254A" fill-opacity="0.3"/>
<rect width="51" height="45" rx="4" fill="url(#paint0_radial_10503_4779)" fill-opacity="0.3"/>
<path d="M22.5 8C21.4391 8 20.4217 8.42143 19.6716 9.17157C18.9214 9.92172 18.5 10.9391 18.5 12C18.5 13.0609 18.9214 14.0783 19.6716 14.8284C20.4217 15.5786 21.4391 16 22.5 16C23.5609 16 24.5783 15.5786 25.3284 14.8284C26.0786 14.0783 26.5 13.0609 26.5 12C26.5 10.9391 26.0786 9.92172 25.3284 9.17157C24.5783 8.42143 23.5609 8 22.5 8ZM22.5 18C19.83 18 14.5 19.33 14.5 22V24H25.58C25.53 23.67 25.5 23.34 25.5 23C25.5 21.5 26 20 26.91 18.8C25.38 18.28 23.68 18 22.5 18ZM31.5 18C31.37 18 31.26 18.09 31.24 18.21L31.05 19.53C30.75 19.66 30.46 19.82 30.2 20L28.96 19.5C28.85 19.5 28.72 19.5 28.65 19.63L27.65 21.36C27.59 21.47 27.61 21.6 27.71 21.68L28.77 22.5C28.75 22.67 28.74 22.83 28.74 23C28.74 23.17 28.75 23.33 28.77 23.5L27.71 24.32C27.62 24.4 27.59 24.53 27.65 24.64L28.65 26.37C28.71 26.5 28.84 26.5 28.96 26.5L30.2 26C30.46 26.18 30.74 26.35 31.05 26.47L31.24 27.79C31.26 27.91 31.36 28 31.5 28H33.5C33.61 28 33.72 27.91 33.74 27.79L33.93 26.47C34.23 26.34 34.5 26.18 34.77 26L36 26.5C36.13 26.5 36.26 26.5 36.33 26.37L37.33 24.64C37.39 24.53 37.36 24.4 37.27 24.32L36.2 23.5C36.22 23.33 36.24 23.17 36.24 23C36.24 22.83 36.23 22.67 36.2 22.5L37.26 21.68C37.35 21.6 37.38 21.47 37.32 21.36L36.32 19.63C36.26 19.5 36.13 19.5 36 19.5L34.77 20C34.5 19.82 34.23 19.65 33.92 19.53L33.73 18.21C33.72 18.09 33.61 18 33.5 18H31.5ZM32.5 21.5C32.8978 21.5 33.2794 21.658 33.5607 21.9393C33.842 22.2206 34 22.6022 34 23C34 23.3978 33.842 23.7794 33.5607 24.0607C33.2794 24.342 32.8978 24.5 32.5 24.5C31.66 24.5 31 23.83 31 23C31 22.6022 31.158 22.2206 31.4393 21.9393C31.7206 21.658 32.1022 21.5 32.5 21.5Z" fill="url(#paint1_linear_10503_4779)"/>
<path d="M12.7453 32.02V39H11.3453V34.46L9.47531 39H8.41531L6.53531 34.46V39H5.13531V32.02H6.72531L8.94531 37.21L11.1653 32.02H12.7453ZM13.7695 36.21C13.7695 35.65 13.8795 35.1533 14.0995 34.72C14.3261 34.2867 14.6295 33.9533 15.0095 33.72C15.3961 33.4867 15.8261 33.37 16.2995 33.37C16.7128 33.37 17.0728 33.4533 17.3795 33.62C17.6928 33.7867 17.9428 33.9967 18.1295 34.25V33.46H19.5395V39H18.1295V38.19C17.9495 38.45 17.6995 38.6667 17.3795 38.84C17.0661 39.0067 16.7028 39.09 16.2895 39.09C15.8228 39.09 15.3961 38.97 15.0095 38.73C14.6295 38.49 14.3261 38.1533 14.0995 37.72C13.8795 37.28 13.7695 36.7767 13.7695 36.21ZM18.1295 36.23C18.1295 35.89 18.0628 35.6 17.9295 35.36C17.7961 35.1133 17.6161 34.9267 17.3895 34.8C17.1628 34.6667 16.9195 34.6 16.6595 34.6C16.3995 34.6 16.1595 34.6633 15.9395 34.79C15.7195 34.9167 15.5395 35.1033 15.3995 35.35C15.2661 35.59 15.1995 35.8767 15.1995 36.21C15.1995 36.5433 15.2661 36.8367 15.3995 37.09C15.5395 37.3367 15.7195 37.5267 15.9395 37.66C16.1661 37.7933 16.4061 37.86 16.6595 37.86C16.9195 37.86 17.1628 37.7967 17.3895 37.67C17.6161 37.5367 17.7961 37.35 17.9295 37.11C18.0628 36.8633 18.1295 36.57 18.1295 36.23ZM23.9768 33.38C24.6368 33.38 25.1701 33.59 25.5768 34.01C25.9835 34.4233 26.1868 35.0033 26.1868 35.75V39H24.7868V35.94C24.7868 35.5 24.6768 35.1633 24.4568 34.93C24.2368 34.69 23.9368 34.57 23.5568 34.57C23.1701 34.57 22.8635 34.69 22.6368 34.93C22.4168 35.1633 22.3068 35.5 22.3068 35.94V39H20.9068V33.46H22.3068V34.15C22.4935 33.91 22.7301 33.7233 23.0168 33.59C23.3101 33.45 23.6301 33.38 23.9768 33.38ZM27.1581 36.21C27.1581 35.65 27.2681 35.1533 27.4881 34.72C27.7148 34.2867 28.0181 33.9533 28.3981 33.72C28.7848 33.4867 29.2148 33.37 29.6881 33.37C30.1015 33.37 30.4615 33.4533 30.7681 33.62C31.0815 33.7867 31.3315 33.9967 31.5181 34.25V33.46H32.9281V39H31.5181V38.19C31.3381 38.45 31.0881 38.6667 30.7681 38.84C30.4548 39.0067 30.0915 39.09 29.6781 39.09C29.2115 39.09 28.7848 38.97 28.3981 38.73C28.0181 38.49 27.7148 38.1533 27.4881 37.72C27.2681 37.28 27.1581 36.7767 27.1581 36.21ZM31.5181 36.23C31.5181 35.89 31.4515 35.6 31.3181 35.36C31.1848 35.1133 31.0048 34.9267 30.7781 34.8C30.5515 34.6667 30.3081 34.6 30.0481 34.6C29.7881 34.6 29.5481 34.6633 29.3281 34.79C29.1081 34.9167 28.9281 35.1033 28.7881 35.35C28.6548 35.59 28.5881 35.8767 28.5881 36.21C28.5881 36.5433 28.6548 36.8367 28.7881 37.09C28.9281 37.3367 29.1081 37.5267 29.3281 37.66C29.5548 37.7933 29.7948 37.86 30.0481 37.86C30.3081 37.86 30.5515 37.7967 30.7781 37.67C31.0048 37.5367 31.1848 37.35 31.3181 37.11C31.4515 36.8633 31.5181 36.57 31.5181 36.23ZM36.4655 33.37C36.8788 33.37 37.2421 33.4533 37.5555 33.62C37.8688 33.78 38.1155 33.99 38.2955 34.25V33.46H39.7055V39.04C39.7055 39.5533 39.6021 40.01 39.3955 40.41C39.1888 40.8167 38.8788 41.1367 38.4655 41.37C38.0521 41.61 37.5521 41.73 36.9655 41.73C36.1788 41.73 35.5321 41.5467 35.0255 41.18C34.5255 40.8133 34.2421 40.3133 34.1755 39.68H35.5655C35.6388 39.9333 35.7955 40.1333 36.0355 40.28C36.2821 40.4333 36.5788 40.51 36.9255 40.51C37.3321 40.51 37.6621 40.3867 37.9155 40.14C38.1688 39.9 38.2955 39.5333 38.2955 39.04V38.18C38.1155 38.44 37.8655 38.6567 37.5455 38.83C37.2321 39.0033 36.8721 39.09 36.4655 39.09C35.9988 39.09 35.5721 38.97 35.1855 38.73C34.7988 38.49 34.4921 38.1533 34.2655 37.72C34.0455 37.28 33.9355 36.7767 33.9355 36.21C33.9355 35.65 34.0455 35.1533 34.2655 34.72C34.4921 34.2867 34.7955 33.9533 35.1755 33.72C35.5621 33.4867 35.9921 33.37 36.4655 33.37ZM38.2955 36.23C38.2955 35.89 38.2288 35.6 38.0955 35.36C37.9621 35.1133 37.7821 34.9267 37.5555 34.8C37.3288 34.6667 37.0855 34.6 36.8255 34.6C36.5655 34.6 36.3255 34.6633 36.1055 34.79C35.8855 34.9167 35.7055 35.1033 35.5655 35.35C35.4321 35.59 35.3655 35.8767 35.3655 36.21C35.3655 36.5433 35.4321 36.8367 35.5655 37.09C35.7055 37.3367 35.8855 37.5267 36.1055 37.66C36.3321 37.7933 36.5721 37.86 36.8255 37.86C37.0855 37.86 37.3288 37.7967 37.5555 37.67C37.7821 37.5367 37.9621 37.35 38.0955 37.11C38.2288 36.8633 38.2955 36.57 38.2955 36.23ZM46.2228 36.11C46.2228 36.31 46.2095 36.49 46.1828 36.65H42.1328C42.1661 37.05 42.3061 37.3633 42.5528 37.59C42.7995 37.8167 43.1028 37.93 43.4628 37.93C43.9828 37.93 44.3528 37.7067 44.5728 37.26H46.0828C45.9228 37.7933 45.6161 38.2333 45.1628 38.58C44.7095 38.92 44.1528 39.09 43.4928 39.09C42.9595 39.09 42.4795 38.9733 42.0528 38.74C41.6328 38.5 41.3028 38.1633 41.0628 37.73C40.8295 37.2967 40.7128 36.7967 40.7128 36.23C40.7128 35.6567 40.8295 35.1533 41.0628 34.72C41.2961 34.2867 41.6228 33.9533 42.0428 33.72C42.4628 33.4867 42.9461 33.37 43.4928 33.37C44.0195 33.37 44.4895 33.4833 44.9028 33.71C45.3228 33.9367 45.6461 34.26 45.8728 34.68C46.1061 35.0933 46.2228 35.57 46.2228 36.11ZM44.7728 35.71C44.7661 35.35 44.6361 35.0633 44.3828 34.85C44.1295 34.63 43.8195 34.52 43.4528 34.52C43.1061 34.52 42.8128 34.6267 42.5728 34.84C42.3395 35.0467 42.1961 35.3367 42.1428 35.71H44.7728Z" fill="url(#paint2_linear_10503_4779)"/>
<defs>
<radialGradient id="paint0_radial_10503_4779" cx="0" cy="0" r="1" gradientUnits="userSpaceOnUse" gradientTransform="translate(29.8689 10.0893) rotate(95.1981) scale(42.3169 49.1446)">
<stop stop-color="#CE1484" stop-opacity="0.33"/>
<stop offset="1" stop-color="#1A123A" stop-opacity="0"/>
</radialGradient>
<linearGradient id="paint1_linear_10503_4779" x1="25.9306" y1="8" x2="41.973" y2="17.088" gradientUnits="userSpaceOnUse">
<stop stop-color="#7B42A9"/>
<stop offset="1" stop-color="#ED0376"/>
</linearGradient>
<linearGradient id="paint2_linear_10503_4779" x1="25.5" y1="30" x2="32.6926" y2="45.3281" gradientUnits="userSpaceOnUse">
<stop stop-color="#7B42A9"/>
<stop offset="1" stop-color="#ED0376"/>
</linearGradient>
</defs>
</svg>
