<svg width="22" height="22" viewBox="0 0 22 22" fill="none" xmlns="http://www.w3.org/2000/svg">
<path d="M0 11C0 17.0751 4.92487 22 11 22V22C17.0751 22 22 17.0751 22 11V11C22 4.92487 17.0751 0 11 0V0C4.92487 0 0 4.92487 0 11V11Z" fill="url(#paint0_linear_5404_38859)"/>
<mask id="mask0_5404_38859" style="mask-type:alpha" maskUnits="userSpaceOnUse" x="0" y="0" width="22" height="22">
<circle r="11" transform="matrix(1 0 0 -1 11 11)" fill="url(#paint1_linear_5404_38859)"/>
</mask>
<g mask="url(#mask0_5404_38859)">
<circle opacity="0.2" r="11" transform="matrix(1 0 0 -1 11 11)" fill="url(#paint2_linear_5404_38859)"/>
<path d="M10.1464 10.2676C10.1837 9.93282 9.9418 9.63514 9.62554 9.59801L5.9979 9.13285C5.49561 9.07703 5.06785 9.50491 5.14224 10.0258L5.66309 13.5231C5.71891 13.8579 6.01647 14.0812 6.3514 14.0254H6.36997C6.70478 13.9695 6.92808 13.672 6.87226 13.337L6.59326 11.4397L11.8389 16.6853C12.0808 16.9272 12.4714 16.9272 12.7133 16.6853C12.9551 16.4434 12.9551 16.0528 12.7133 15.811L7.43025 10.5279L9.45783 10.7884C9.79264 10.8441 10.1092 10.6025 10.1464 10.2676ZM12.2778 11.4288V11.3915C12.3336 11.0567 12.6311 10.8334 12.9661 10.8892L14.7519 11.1496L9.59894 5.99697C9.35708 5.75511 9.35708 5.36448 9.59894 5.12262C9.84079 4.88076 10.2314 4.88076 10.4733 5.12262L15.8119 10.4801L15.5329 8.34083C15.4957 8.00602 15.7189 7.70834 16.0723 7.65252C16.4071 7.61527 16.7048 7.85713 16.742 8.17338L17.1884 11.7822C17.2443 12.2845 16.8164 12.7122 16.2955 12.6379L12.7797 12.117C12.445 12.0799 12.2219 11.7636 12.2778 11.4288Z" fill="white"/>
</g>
<defs>
<linearGradient id="paint0_linear_5404_38859" x1="11" y1="22" x2="27.3713" y2="13.8863" gradientUnits="userSpaceOnUse">
<stop stop-color="#7B42A9"/>
<stop offset="1" stop-color="#ED0376"/>
</linearGradient>
<linearGradient id="paint1_linear_5404_38859" x1="11" y1="-1.76392e-06" x2="27.3713" y2="8.11365" gradientUnits="userSpaceOnUse">
<stop stop-color="#7B42A9"/>
<stop offset="1" stop-color="#ED0376"/>
</linearGradient>
<linearGradient id="paint2_linear_5404_38859" x1="11" y1="-1.76392e-06" x2="27.3713" y2="8.11365" gradientUnits="userSpaceOnUse">
<stop stop-color="#7B42A9"/>
<stop offset="1" stop-color="#ED0376"/>
</linearGradient>
</defs>
</svg>
