<svg width="46" height="54" viewBox="0 0 46 54" fill="none" xmlns="http://www.w3.org/2000/svg">
<g filter="url(#filter0_dd_4969_7378)">
<path d="M12 27C12 33.0751 16.9249 38 23 38C29.0751 38 34 33.0751 34 27C34 20.9249 29.0751 16 23 16C16.9249 16 12 20.9249 12 27Z" fill="url(#paint0_linear_4969_7378)"/>
<mask id="mask0_4969_7378" style="mask-type:alpha" maskUnits="userSpaceOnUse" x="12" y="16" width="22" height="22">
<circle r="11" transform="matrix(1 0 0 -1 23 27)" fill="url(#paint1_linear_4969_7378)"/>
</mask>
<g mask="url(#mask0_4969_7378)">
<circle opacity="0.2" r="11" transform="matrix(1 0 0 -1 23 27)" fill="url(#paint2_linear_4969_7378)"/>
<path d="M34 27.0001C34 20.9249 29.0751 16.0001 23 16.0001C16.9249 16.0001 12 20.9249 12 27.0001C12 38.7334 14.9333 38.7334 22.2667 38.7334C29.6 38.7334 34 38.7334 34 27.0001Z" fill="url(#paint3_linear_4969_7378)"/>
<path d="M22.1459 26.2676C22.1832 25.9328 21.9413 25.6351 21.6251 25.598L17.9974 25.1329C17.4951 25.077 17.0674 25.5049 17.1417 26.0258L17.6626 29.5231C17.7184 29.8579 18.016 30.0812 18.3509 30.0254H18.3695C18.7043 29.9695 18.9276 29.672 18.8718 29.337L18.5928 27.4397L23.8384 32.6853C24.0803 32.9272 24.4709 32.9272 24.7128 32.6853C24.9546 32.4434 24.9546 32.0528 24.7128 31.811L19.4298 26.5279L21.4573 26.7884C21.7922 26.8441 22.1087 26.6025 22.1459 26.2676ZM24.2773 27.4288V27.3915C24.3331 27.0567 24.6306 26.8334 24.9656 26.8892L26.7514 27.1496L21.5984 21.997C21.3566 21.7551 21.3566 21.3645 21.5984 21.1226C21.8403 20.8808 22.2309 20.8808 22.4728 21.1226L27.8114 26.4801L27.5324 24.3408C27.4952 24.006 27.7185 23.7083 28.0718 23.6525C28.4067 23.6153 28.7043 23.8571 28.7415 24.1734L29.1879 27.7822C29.2438 28.2845 28.8159 28.7122 28.295 28.6379L24.7792 28.117C24.4445 28.0799 24.2214 27.7636 24.2773 27.4288Z" fill="white"/>
</g>
</g>
<defs>
<filter id="filter0_dd_4969_7378" x="0" y="0" width="46" height="54" filterUnits="userSpaceOnUse" color-interpolation-filters="sRGB">
<feFlood flood-opacity="0" result="BackgroundImageFix"/>
<feColorMatrix in="SourceAlpha" type="matrix" values="0 0 0 0 0 0 0 0 0 0 0 0 0 0 0 0 0 0 127 0" result="hardAlpha"/>
<feOffset dy="4"/>
<feGaussianBlur stdDeviation="6"/>
<feComposite in2="hardAlpha" operator="out"/>
<feColorMatrix type="matrix" values="0 0 0 0 0.8 0 0 0 0 0.082353 0 0 0 0 0.521569 0 0 0 0.26 0"/>
<feBlend mode="normal" in2="BackgroundImageFix" result="effect1_dropShadow_4969_7378"/>
<feColorMatrix in="SourceAlpha" type="matrix" values="0 0 0 0 0 0 0 0 0 0 0 0 0 0 0 0 0 0 127 0" result="hardAlpha"/>
<feOffset dy="-4"/>
<feGaussianBlur stdDeviation="6"/>
<feComposite in2="hardAlpha" operator="out"/>
<feColorMatrix type="matrix" values="0 0 0 0 0.482353 0 0 0 0 0.258824 0 0 0 0 0.662745 0 0 0 0.28 0"/>
<feBlend mode="normal" in2="effect1_dropShadow_4969_7378" result="effect2_dropShadow_4969_7378"/>
<feBlend mode="normal" in="SourceGraphic" in2="effect2_dropShadow_4969_7378" result="shape"/>
</filter>
<linearGradient id="paint0_linear_4969_7378" x1="23" y1="38" x2="39.3713" y2="29.8863" gradientUnits="userSpaceOnUse">
<stop stop-color="#7B42A9"/>
<stop offset="1" stop-color="#ED0376"/>
</linearGradient>
<linearGradient id="paint1_linear_4969_7378" x1="11" y1="-1.76392e-06" x2="27.3713" y2="8.11365" gradientUnits="userSpaceOnUse">
<stop stop-color="#7B42A9"/>
<stop offset="1" stop-color="#ED0376"/>
</linearGradient>
<linearGradient id="paint2_linear_4969_7378" x1="11" y1="-1.76392e-06" x2="27.3713" y2="8.11365" gradientUnits="userSpaceOnUse">
<stop stop-color="#7B42A9"/>
<stop offset="1" stop-color="#ED0376"/>
</linearGradient>
<linearGradient id="paint3_linear_4969_7378" x1="23" y1="38.7334" x2="39.5788" y2="30.782" gradientUnits="userSpaceOnUse">
<stop stop-color="#7B42A9"/>
<stop offset="1" stop-color="#ED0376"/>
</linearGradient>
</defs>
</svg>
