<svg width="20" height="20" viewBox="0 0 20 20" fill="none" xmlns="http://www.w3.org/2000/svg">
<path d="M10 20C15.5228 20 20 15.5228 20 10C20 4.47715 15.5228 0 10 0C4.47715 0 0 4.47715 0 10C0 15.5228 4.47715 20 10 20Z" fill="url(#paint0_linear_732_37304)"/>
<path d="M16.3142 9.3886L13.4897 6.56407L13.4846 6.55895L13.4734 6.54916C13.4551 6.53264 13.436 6.51709 13.4161 6.50257C13.4021 6.49138 13.3881 6.48067 13.3732 6.47088C13.3667 6.46622 13.3602 6.4625 13.3532 6.4583C13.1922 6.35284 12.9974 6.31178 12.8075 6.34329C12.6176 6.37479 12.4465 6.47656 12.3281 6.62837L7.93525 11.0217V7.10782C7.93525 6.90207 7.85352 6.70474 7.70803 6.55926C7.56254 6.41377 7.36522 6.33203 7.15946 6.33203C6.95371 6.33203 6.75639 6.41377 6.6109 6.55926C6.46541 6.70474 6.38367 6.90207 6.38367 7.10782V11.0217L4.77991 9.41795C4.63331 9.27817 4.43786 9.20126 4.23532 9.20367C4.03277 9.20608 3.8392 9.28761 3.69597 9.43084C3.55274 9.57407 3.47121 9.76764 3.4688 9.97018C3.4664 10.1727 3.5433 10.3682 3.68309 10.5148L6.61105 13.4427C6.62945 13.4614 6.6489 13.479 6.6693 13.4954C6.68886 13.5112 6.70937 13.5266 6.72987 13.542C6.83566 13.6105 6.95656 13.6523 7.08212 13.6636H7.08538C7.11054 13.6659 7.1357 13.6673 7.16086 13.6673H7.17251C7.19363 13.6673 7.2146 13.6664 7.23541 13.6645H7.25079C7.27082 13.6622 7.29086 13.6599 7.31043 13.6557H7.31928C7.34118 13.651 7.36308 13.6459 7.38451 13.6394H7.38824C7.41163 13.6323 7.43465 13.6241 7.4572 13.6147C7.48933 13.6014 7.52048 13.5858 7.55039 13.5681L7.56809 13.5578C7.5974 13.5399 7.62542 13.52 7.65196 13.4982L7.65988 13.4912C7.67619 13.4772 7.6925 13.4632 7.70648 13.4474L12.1609 8.99022V12.892C12.1609 13.0978 12.2426 13.2951 12.3881 13.4406C12.5336 13.5861 12.7309 13.6678 12.9367 13.6678C13.1424 13.6678 13.3397 13.5861 13.4852 13.4406C13.6307 13.2951 13.7124 13.0978 13.7124 12.892V8.9781L15.2174 10.4859C15.3635 10.6285 15.5599 10.7078 15.7641 10.7065C15.9683 10.7053 16.1637 10.6236 16.308 10.4792C16.4523 10.3348 16.5339 10.1393 16.5351 9.93517C16.5363 9.73102 16.4569 9.53463 16.3142 9.3886Z" fill="white"/>
<defs>
<linearGradient id="paint0_linear_732_37304" x1="1.33818" y1="4.99907" x2="18.6618" y2="15.0005" gradientUnits="userSpaceOnUse">
<stop offset="0.13" stop-color="#348BED"/>
<stop offset="0.31" stop-color="#2B80E8"/>
<stop offset="0.64" stop-color="#1461DB"/>
<stop offset="0.72" stop-color="#0E57D7"/>
</linearGradient>
</defs>
</svg>
