<svg width="16" height="17" viewBox="0 0 16 17" fill="none" xmlns="http://www.w3.org/2000/svg">
<path d="M13.3333 6.50016L12.0033 14.0642C11.9491 14.3731 11.7877 14.653 11.5475 14.8546C11.3072 15.0563 11.0036 15.1669 10.69 15.1668H5.31C4.99636 15.1669 4.69275 15.0563 4.45255 14.8546C4.21235 14.653 4.05093 14.3731 3.99667 14.0642L2.66667 6.50016M14 4.50016H10.25M10.25 4.50016V3.16683C10.25 2.81321 10.1095 2.47407 9.85948 2.22402C9.60943 1.97397 9.27029 1.8335 8.91667 1.8335H7.08333C6.72971 1.8335 6.39057 1.97397 6.14052 2.22402C5.89048 2.47407 5.75 2.81321 5.75 3.16683V4.50016M10.25 4.50016H5.75M2 4.50016H5.75" stroke="#B8B8CC" stroke-width="1.5" stroke-linecap="round" stroke-linejoin="round"/>
</svg>
