<svg width="32" height="32" viewBox="0 0 32 32" fill="none" xmlns="http://www.w3.org/2000/svg">
<rect width="32" height="32" rx="6" fill="#FF9999"/>
<path d="M21.3333 14L20.0033 21.564C19.9491 21.8729 19.7877 22.1528 19.5475 22.3545C19.3072 22.5562 19.0036 22.6667 18.69 22.6667H13.31C12.9964 22.6667 12.6928 22.5562 12.4525 22.3545C12.2123 22.1528 12.0509 21.8729 11.9967 21.564L10.6667 14M22 12H18.25M18.25 12V10.6667C18.25 10.313 18.1095 9.97391 17.8595 9.72386C17.6094 9.47381 17.2703 9.33334 16.9167 9.33334H15.0833C14.7297 9.33334 14.3906 9.47381 14.1405 9.72386C13.8905 9.97391 13.75 10.313 13.75 10.6667V12M18.25 12H13.75M10 12H13.75" stroke="white" stroke-width="1.5" stroke-linecap="round" stroke-linejoin="round"/>
</svg>
