<svg width="20" height="19" viewBox="0 0 20 19" fill="none" xmlns="http://www.w3.org/2000/svg">
<path d="M10.2114 18C14.906 18 18.7114 14.1946 18.7114 9.5C18.7114 4.80545 14.906 1 10.2114 1C5.51688 1 1.71143 4.80545 1.71143 9.5C1.71143 14.1946 5.51688 18 10.2114 18Z" stroke="#0EC080" stroke-width="1.5" stroke-linecap="round" stroke-linejoin="round"/>
<path d="M7.61341 13.125V12.017L10.2022 9.62003C10.4224 9.40696 10.607 9.2152 10.7562 9.04474C10.9077 8.87429 11.0225 8.70739 11.1006 8.54403C11.1788 8.37831 11.2178 8.19957 11.2178 8.00781C11.2178 7.79474 11.1693 7.61127 11.0722 7.45739C10.9752 7.30114 10.8426 7.18158 10.6745 7.09872C10.5064 7.01349 10.3158 6.97088 10.1028 6.97088C9.88022 6.97088 9.68609 7.01586 9.52037 7.10582C9.35465 7.19579 9.22681 7.32481 9.13685 7.4929C9.04689 7.66098 9.00191 7.86103 9.00191 8.09304H7.54239C7.54239 7.61719 7.65011 7.20407 7.86555 6.85369C8.08098 6.50331 8.38283 6.23224 8.77108 6.04048C9.15934 5.84872 9.60679 5.75284 10.1134 5.75284C10.6342 5.75284 11.0876 5.84517 11.4735 6.02983C11.8618 6.21212 12.1636 6.46544 12.379 6.78977C12.5945 7.11411 12.7022 7.4858 12.7022 7.90483C12.7022 8.17945 12.6477 8.45052 12.5388 8.71804C12.4323 8.98556 12.2417 9.28267 11.9671 9.60938C11.6925 9.93371 11.3054 10.3232 10.8059 10.7777L9.7441 11.8182V11.8679H12.7981V13.125H7.61341Z" fill="#0EC080"/>
</svg>
