<svg width="80" height="80" viewBox="0 0 80 80" fill="none" xmlns="http://www.w3.org/2000/svg">
<circle cx="40" cy="40" r="40" fill="white"/>
<circle cx="40" cy="40" r="39.5" stroke="#E6E6FF" stroke-opacity="0.7"/>
<path d="M40 33.5V37.1667M40 44.5V44.5183" stroke="#6666FF" stroke-width="1.5" stroke-linecap="round" stroke-linejoin="round"/>
<path d="M27.1669 51.833H52.8335C53.4318 51.8288 54.0199 51.6783 54.5466 51.3946C55.0733 51.1109 55.5226 50.7026 55.8552 50.2054C56.1879 49.7082 56.3939 49.1371 56.4552 48.542C56.5165 47.9469 56.4312 47.3459 56.2069 46.7913L43.1902 24.333C42.8731 23.7599 42.4083 23.2821 41.8441 22.9495C41.2798 22.6168 40.6368 22.4414 39.9819 22.4414C39.3269 22.4414 38.6839 22.6168 38.1196 22.9495C37.5554 23.2821 37.0906 23.7599 36.7735 24.333L23.7569 46.7913C23.5367 47.3332 23.4495 47.9199 23.5023 48.5024C23.5551 49.0848 23.7465 49.6463 24.0605 50.1397C24.3746 50.6331 24.8021 51.0443 25.3074 51.3389C25.8126 51.6334 26.3811 51.8028 26.9652 51.833" stroke="#6666FF" stroke-width="1.5" stroke-linecap="round" stroke-linejoin="round"/>
</svg>
