<svg width="73" height="62" viewBox="0 0 73 62" fill="none" xmlns="http://www.w3.org/2000/svg">
<path d="M3.43963 44H0.970879V36H3.549C4.32505 36 4.98911 36.1602 5.54119 36.4805C6.09327 36.7982 6.51645 37.2552 6.81072 37.8516C7.10499 38.4453 7.25213 39.1562 7.25213 39.9844C7.25213 40.8177 7.10369 41.5352 6.80682 42.1367C6.50994 42.7357 6.07765 43.1966 5.50994 43.5195C4.94223 43.8398 4.25213 44 3.43963 44ZM1.93963 43.1406H3.37713C4.03859 43.1406 4.58676 43.013 5.02166 42.7578C5.45656 42.5026 5.78077 42.1393 5.99432 41.668C6.20786 41.1966 6.31463 40.6354 6.31463 39.9844C6.31463 39.3385 6.20916 38.7826 5.99822 38.3164C5.78729 37.8477 5.47218 37.4883 5.05291 37.2383C4.63364 36.9857 4.1115 36.8594 3.4865 36.8594H1.93963V43.1406ZM8.53213 44V38H9.42275V38.9062H9.48525C9.59463 38.6094 9.79255 38.3685 10.079 38.1836C10.3655 37.9987 10.6884 37.9062 11.0478 37.9062C11.1155 37.9062 11.2001 37.9076 11.3017 37.9102C11.4032 37.9128 11.48 37.9167 11.5321 37.9219V38.8594C11.5009 38.8516 11.4293 38.8398 11.3173 38.8242C11.2079 38.806 11.092 38.7969 10.9696 38.7969C10.678 38.7969 10.4175 38.8581 10.1884 38.9805C9.96182 39.1003 9.78213 39.2669 9.64932 39.4805C9.51911 39.6914 9.454 39.9323 9.454 40.2031V44H8.53213ZM14.1705 44.1406C13.7903 44.1406 13.4453 44.069 13.1354 43.9258C12.8255 43.7799 12.5794 43.5703 12.3971 43.2969C12.2148 43.0208 12.1237 42.6875 12.1237 42.2969C12.1237 41.9531 12.1914 41.6745 12.3268 41.4609C12.4622 41.2448 12.6432 41.0755 12.8697 40.9531C13.0963 40.8307 13.3463 40.7396 13.6197 40.6797C13.8958 40.6172 14.1731 40.5677 14.4518 40.5313C14.8164 40.4844 15.1119 40.4492 15.3385 40.4258C15.5677 40.3997 15.7343 40.3568 15.8385 40.2969C15.9453 40.237 15.9987 40.1328 15.9987 39.9844V39.9531C15.9987 39.5677 15.8932 39.2682 15.6822 39.0547C15.4739 38.8411 15.1575 38.7344 14.733 38.7344C14.2929 38.7344 13.9479 38.8307 13.6979 39.0234C13.4479 39.2161 13.2721 39.4219 13.1705 39.6406L12.2955 39.3281C12.4518 38.9635 12.6601 38.6797 12.9205 38.4766C13.1835 38.2708 13.47 38.1276 13.7799 38.0469C14.0924 37.9635 14.3997 37.9219 14.7018 37.9219C14.8945 37.9219 15.1158 37.9453 15.3658 37.9922C15.6184 38.0365 15.8619 38.1289 16.0963 38.2695C16.3333 38.4102 16.5299 38.6224 16.6862 38.9062C16.8424 39.1901 16.9205 39.5703 16.9205 40.0469V44H15.9987V43.1875H15.9518C15.8893 43.3177 15.7851 43.457 15.6393 43.6055C15.4934 43.7539 15.2994 43.8802 15.0572 43.9844C14.8151 44.0885 14.5195 44.1406 14.1705 44.1406ZM14.3112 43.3125C14.6757 43.3125 14.983 43.2409 15.233 43.0977C15.4856 42.9544 15.6757 42.7695 15.8033 42.543C15.9335 42.3164 15.9987 42.0781 15.9987 41.8281V40.9844C15.9596 41.0312 15.8737 41.0742 15.7408 41.1133C15.6106 41.1497 15.4596 41.1823 15.2877 41.2109C15.1184 41.237 14.9531 41.2604 14.7916 41.2812C14.6328 41.2995 14.5039 41.3151 14.4049 41.3281C14.1653 41.3594 13.9414 41.4102 13.733 41.4805C13.5273 41.5482 13.3606 41.651 13.233 41.7891C13.108 41.9245 13.0455 42.1094 13.0455 42.3437C13.0455 42.6641 13.164 42.9062 13.401 43.0703C13.6406 43.2318 13.944 43.3125 14.3112 43.3125ZM20.805 46.375C20.3597 46.375 19.9769 46.3177 19.6566 46.2031C19.3363 46.0911 19.0693 45.9427 18.8558 45.7578C18.6449 45.5755 18.4769 45.3802 18.3519 45.1719L19.0863 44.6563C19.1696 44.7656 19.2751 44.8906 19.4027 45.0312C19.5303 45.1745 19.7048 45.2982 19.9261 45.4023C20.1501 45.5091 20.443 45.5625 20.805 45.5625C21.2894 45.5625 21.6891 45.4453 22.0042 45.2109C22.3193 44.9766 22.4769 44.6094 22.4769 44.1094V42.8906H22.3988C22.3311 43 22.2347 43.1354 22.1097 43.2969C21.9873 43.4557 21.8102 43.5977 21.5785 43.7227C21.3493 43.8451 21.0394 43.9062 20.6488 43.9062C20.1644 43.9062 19.7295 43.7917 19.3441 43.5625C18.9613 43.3333 18.6579 43 18.4339 42.5625C18.2126 42.125 18.1019 41.5937 18.1019 40.9687C18.1019 40.3542 18.21 39.819 18.4261 39.3633C18.6423 38.9049 18.943 38.5508 19.3285 38.3008C19.7139 38.0482 20.1592 37.9219 20.6644 37.9219C21.055 37.9219 21.3649 37.987 21.5941 38.1172C21.8259 38.2448 22.0029 38.3906 22.1253 38.5547C22.2503 38.7161 22.3467 38.849 22.4144 38.9531H22.5081V38H23.3988V44.1719C23.3988 44.6875 23.2816 45.1068 23.0472 45.4297C22.8154 45.7552 22.5029 45.9935 22.1097 46.1445C21.7191 46.2982 21.2842 46.375 20.805 46.375ZM20.7738 43.0781C21.1436 43.0781 21.4561 42.9935 21.7113 42.8242C21.9665 42.6549 22.1605 42.4115 22.2933 42.0938C22.4261 41.776 22.4925 41.3958 22.4925 40.9531C22.4925 40.5208 22.4274 40.1393 22.2972 39.8086C22.167 39.4779 21.9743 39.2187 21.7191 39.0312C21.4639 38.8437 21.1488 38.75 20.7738 38.75C20.3831 38.75 20.0576 38.849 19.7972 39.0469C19.5394 39.2448 19.3454 39.5104 19.2152 39.8438C19.0876 40.1771 19.0238 40.5469 19.0238 40.9531C19.0238 41.3698 19.0889 41.7383 19.2191 42.0586C19.3519 42.3763 19.5472 42.6263 19.805 42.8086C20.0654 42.9883 20.3884 43.0781 20.7738 43.0781ZM29.5056 44.1406C29.1254 44.1406 28.7804 44.069 28.4705 43.9258C28.1606 43.7799 27.9145 43.5703 27.7322 43.2969C27.5499 43.0208 27.4588 42.6875 27.4588 42.2969C27.4588 41.9531 27.5265 41.6745 27.6619 41.4609C27.7973 41.2448 27.9783 41.0755 28.2049 40.9531C28.4314 40.8307 28.6814 40.7396 28.9549 40.6797C29.2309 40.6172 29.5082 40.5677 29.7869 40.5313C30.1515 40.4844 30.4471 40.4492 30.6736 40.4258C30.9028 40.3997 31.0694 40.3568 31.1736 40.2969C31.2804 40.237 31.3338 40.1328 31.3338 39.9844V39.9531C31.3338 39.5677 31.2283 39.2682 31.0174 39.0547C30.809 38.8411 30.4926 38.7344 30.0681 38.7344C29.628 38.7344 29.283 38.8307 29.033 39.0234C28.783 39.2161 28.6072 39.4219 28.5056 39.6406L27.6306 39.3281C27.7869 38.9635 27.9952 38.6797 28.2556 38.4766C28.5187 38.2708 28.8051 38.1276 29.115 38.0469C29.4275 37.9635 29.7348 37.9219 30.0369 37.9219C30.2296 37.9219 30.451 37.9453 30.701 37.9922C30.9536 38.0365 31.1971 38.1289 31.4314 38.2695C31.6684 38.4102 31.865 38.6224 32.0213 38.9062C32.1775 39.1901 32.2556 39.5703 32.2556 40.0469V44H31.3338V43.1875H31.2869C31.2244 43.3177 31.1202 43.457 30.9744 43.6055C30.8286 43.7539 30.6346 43.8802 30.3924 43.9844C30.1502 44.0885 29.8546 44.1406 29.5056 44.1406ZM29.6463 43.3125C30.0109 43.3125 30.3181 43.2409 30.5681 43.0977C30.8207 42.9544 31.0109 42.7695 31.1385 42.543C31.2687 42.3164 31.3338 42.0781 31.3338 41.8281V40.9844C31.2947 41.0312 31.2088 41.0742 31.076 41.1133C30.9457 41.1497 30.7947 41.1823 30.6228 41.2109C30.4536 41.237 30.2882 41.2604 30.1267 41.2812C29.9679 41.2995 29.839 41.3151 29.74 41.3281C29.5004 41.3594 29.2765 41.4102 29.0681 41.4805C28.8624 41.5482 28.6957 41.651 28.5681 41.7891C28.4431 41.9245 28.3806 42.1094 28.3806 42.3437C28.3806 42.6641 28.4991 42.9062 28.7361 43.0703C28.9757 43.2318 29.2791 43.3125 29.6463 43.3125ZM34.6401 40.3906V44H33.7183V38H34.6089V38.9375H34.687C34.8276 38.6328 35.0412 38.388 35.3276 38.2031C35.6141 38.0156 35.9839 37.9219 36.437 37.9219C36.8433 37.9219 37.1987 38.0052 37.5034 38.1719C37.8081 38.3359 38.0451 38.5859 38.2144 38.9219C38.3836 39.2552 38.4683 39.6771 38.4683 40.1875V44H37.5464V40.25C37.5464 39.7786 37.424 39.4115 37.1792 39.1484C36.9344 38.8828 36.5985 38.75 36.1714 38.75C35.8771 38.75 35.6141 38.8138 35.3823 38.9414C35.1532 39.069 34.9722 39.2552 34.8394 39.5C34.7065 39.7448 34.6401 40.0417 34.6401 40.3906ZM42.1985 44.125C41.6985 44.125 41.257 43.9987 40.8742 43.7461C40.4914 43.4909 40.1919 43.1315 39.9758 42.668C39.7597 42.2018 39.6516 41.651 39.6516 41.0156C39.6516 40.3854 39.7597 39.8385 39.9758 39.375C40.1919 38.9115 40.4927 38.5534 40.8781 38.3008C41.2636 38.0482 41.7089 37.9219 42.2141 37.9219C42.6047 37.9219 42.9133 37.987 43.1399 38.1172C43.369 38.2448 43.5435 38.3906 43.6633 38.5547C43.7857 38.7161 43.8807 38.849 43.9485 38.9531H44.0266V36H44.9485V44H44.0578V43.0781H43.9485C43.8807 43.1875 43.7844 43.3255 43.6594 43.4922C43.5344 43.6562 43.356 43.8034 43.1242 43.9336C42.8925 44.0612 42.5839 44.125 42.1985 44.125ZM42.3235 43.2969C42.6932 43.2969 43.0057 43.2005 43.261 43.0078C43.5162 42.8125 43.7102 42.543 43.843 42.1992C43.9758 41.8529 44.0422 41.4531 44.0422 41C44.0422 40.5521 43.9771 40.1602 43.8469 39.8242C43.7167 39.4857 43.524 39.2227 43.2688 39.0352C43.0136 38.8451 42.6985 38.75 42.3235 38.75C41.9328 38.75 41.6073 38.8503 41.3469 39.0508C41.0891 39.2487 40.8951 39.5182 40.7649 39.8594C40.6373 40.1979 40.5735 40.5781 40.5735 41C40.5735 41.4271 40.6386 41.8151 40.7688 42.1641C40.9016 42.5104 41.0969 42.7865 41.3547 42.9922C41.6151 43.1953 41.938 43.2969 42.3235 43.2969ZM52.0124 44H49.5436V36H52.1217C52.8978 36 53.5618 36.1602 54.1139 36.4805C54.666 36.7982 55.0892 37.2552 55.3835 37.8516C55.6777 38.4453 55.8249 39.1562 55.8249 39.9844C55.8249 40.8177 55.6764 41.5352 55.3796 42.1367C55.0827 42.7357 54.6504 43.1966 54.0827 43.5195C53.515 43.8398 52.8249 44 52.0124 44ZM50.5124 43.1406H51.9499C52.6113 43.1406 53.1595 43.013 53.5944 42.7578C54.0293 42.5026 54.3535 42.1393 54.5671 41.668C54.7806 41.1966 54.8874 40.6354 54.8874 39.9844C54.8874 39.3385 54.7819 38.7826 54.571 38.3164C54.36 37.8477 54.0449 37.4883 53.6256 37.2383C53.2064 36.9857 52.6842 36.8594 52.0592 36.8594H50.5124V43.1406ZM57.1049 44V38H57.9955V38.9062H58.058C58.1674 38.6094 58.3653 38.3685 58.6517 38.1836C58.9382 37.9987 59.2611 37.9062 59.6205 37.9062C59.6882 37.9062 59.7728 37.9076 59.8744 37.9102C59.976 37.9128 60.0528 37.9167 60.1049 37.9219V38.8594C60.0736 38.8516 60.002 38.8398 59.89 38.8242C59.7806 38.806 59.6648 38.7969 59.5424 38.7969C59.2507 38.7969 58.9903 38.8581 58.7611 38.9805C58.5345 39.1003 58.3549 39.2669 58.222 39.4805C58.0918 39.6914 58.0267 39.9323 58.0267 40.2031V44H57.1049ZM63.2325 44.125C62.6909 44.125 62.2156 43.9961 61.8067 43.7383C61.4005 43.4805 61.0828 43.1198 60.8536 42.6562C60.6271 42.1927 60.5138 41.651 60.5138 41.0312C60.5138 40.4062 60.6271 39.8607 60.8536 39.3945C61.0828 38.9284 61.4005 38.5664 61.8067 38.3086C62.2156 38.0508 62.6909 37.9219 63.2325 37.9219C63.7742 37.9219 64.2481 38.0508 64.6544 38.3086C65.0633 38.5664 65.381 38.9284 65.6075 39.3945C65.8367 39.8607 65.9513 40.4062 65.9513 41.0312C65.9513 41.651 65.8367 42.1927 65.6075 42.6562C65.381 43.1198 65.0633 43.4805 64.6544 43.7383C64.2481 43.9961 63.7742 44.125 63.2325 44.125ZM63.2325 43.2969C63.644 43.2969 63.9825 43.1914 64.2481 42.9805C64.5138 42.7695 64.7104 42.4922 64.838 42.1484C64.9656 41.8047 65.0294 41.4323 65.0294 41.0312C65.0294 40.6302 64.9656 40.2565 64.838 39.9102C64.7104 39.5638 64.5138 39.2839 64.2481 39.0703C63.9825 38.8568 63.644 38.75 63.2325 38.75C62.8211 38.75 62.4825 38.8568 62.2169 39.0703C61.9513 39.2839 61.7547 39.5638 61.6271 39.9102C61.4994 40.2565 61.4356 40.6302 61.4356 41.0312C61.4356 41.4323 61.4994 41.8047 61.6271 42.1484C61.7547 42.4922 61.9513 42.7695 62.2169 42.9805C62.4825 43.1914 62.8211 43.2969 63.2325 43.2969ZM67.1385 46.25V38H68.0291V38.9531H68.1385C68.2062 38.849 68.3 38.7161 68.4197 38.5547C68.5421 38.3906 68.7166 38.2448 68.9432 38.1172C69.1724 37.987 69.4822 37.9219 69.8729 37.9219C70.3781 37.9219 70.8234 38.0482 71.2088 38.3008C71.5942 38.5534 71.895 38.9115 72.1112 39.375C72.3273 39.8385 72.4354 40.3854 72.4354 41.0156C72.4354 41.651 72.3273 42.2018 72.1112 42.668C71.895 43.1315 71.5955 43.4909 71.2127 43.7461C70.8299 43.9987 70.3885 44.125 69.8885 44.125C69.5031 44.125 69.1945 44.0612 68.9627 43.9336C68.7309 43.8034 68.5526 43.6562 68.4276 43.4922C68.3026 43.3255 68.2062 43.1875 68.1385 43.0781H68.0604V46.25H67.1385ZM68.0447 41C68.0447 41.4531 68.1112 41.8529 68.244 42.1992C68.3768 42.543 68.5708 42.8125 68.826 43.0078C69.0812 43.2005 69.3937 43.2969 69.7635 43.2969C70.1489 43.2969 70.4705 43.1953 70.7283 42.9922C70.9888 42.7865 71.1841 42.5104 71.3143 42.1641C71.4471 41.8151 71.5135 41.4271 71.5135 41C71.5135 40.5781 71.4484 40.1979 71.3182 39.8594C71.1906 39.5182 70.9966 39.2487 70.7362 39.0508C70.4783 38.8503 70.1541 38.75 69.7635 38.75C69.3885 38.75 69.0734 38.8451 68.8182 39.0352C68.563 39.2227 68.3703 39.4857 68.2401 39.8242C68.1099 40.1602 68.0447 40.5521 68.0447 41ZM15.0787 59.125C14.5371 59.125 14.0618 58.9961 13.6529 58.7383C13.2467 58.4805 12.929 58.1198 12.6998 57.6562C12.4733 57.1927 12.36 56.651 12.36 56.0312C12.36 55.4062 12.4733 54.8607 12.6998 54.3945C12.929 53.9284 13.2467 53.5664 13.6529 53.3086C14.0618 53.0508 14.5371 52.9219 15.0787 52.9219C15.6204 52.9219 16.0944 53.0508 16.5006 53.3086C16.9095 53.5664 17.2272 53.9284 17.4537 54.3945C17.6829 54.8607 17.7975 55.4062 17.7975 56.0312C17.7975 56.651 17.6829 57.1927 17.4537 57.6562C17.2272 58.1198 16.9095 58.4805 16.5006 58.7383C16.0944 58.9961 15.6204 59.125 15.0787 59.125ZM15.0787 58.2969C15.4902 58.2969 15.8287 58.1914 16.0944 57.9805C16.36 57.7695 16.5566 57.4922 16.6842 57.1484C16.8118 56.8047 16.8756 56.4323 16.8756 56.0312C16.8756 55.6302 16.8118 55.2565 16.6842 54.9102C16.5566 54.5638 16.36 54.2839 16.0944 54.0703C15.8287 53.8568 15.4902 53.75 15.0787 53.75C14.6673 53.75 14.3287 53.8568 14.0631 54.0703C13.7975 54.2839 13.6009 54.5638 13.4733 54.9102C13.3457 55.2565 13.2819 55.6302 13.2819 56.0312C13.2819 56.4323 13.3457 56.8047 13.4733 57.1484C13.6009 57.4922 13.7975 57.7695 14.0631 57.9805C14.3287 58.1914 14.6673 58.2969 15.0787 58.2969ZM18.9847 59V53H19.8753V53.9062H19.9378C20.0472 53.6094 20.2451 53.3685 20.5316 53.1836C20.818 52.9987 21.141 52.9062 21.5003 52.9062C21.568 52.9062 21.6527 52.9076 21.7542 52.9102C21.8558 52.9128 21.9326 52.9167 21.9847 52.9219V53.8594C21.9535 53.8516 21.8818 53.8398 21.7699 53.8242C21.6605 53.806 21.5446 53.7969 21.4222 53.7969C21.1305 53.7969 20.8701 53.8581 20.641 53.9805C20.4144 54.1003 20.2347 54.2669 20.1019 54.4805C19.9717 54.6914 19.9066 54.9323 19.9066 55.2031V59H18.9847Z" fill="#666680"/>
<path d="M30.9109 51H32.1219V56.2617C32.1219 56.8216 31.9903 57.3177 31.7273 57.75C31.4643 58.1797 31.0945 58.5182 30.6179 58.7656C30.1414 59.0104 29.5828 59.1328 28.9422 59.1328C28.3041 59.1328 27.7469 59.0104 27.2703 58.7656C26.7937 58.5182 26.4239 58.1797 26.1609 57.75C25.8979 57.3177 25.7664 56.8216 25.7664 56.2617V51H26.9734V56.1641C26.9734 56.526 27.0528 56.8477 27.2117 57.1289C27.3732 57.4102 27.601 57.6315 27.8953 57.793C28.1896 57.9518 28.5385 58.0312 28.9422 58.0312C29.3484 58.0312 29.6987 57.9518 29.9929 57.793C30.2898 57.6315 30.5164 57.4102 30.6726 57.1289C30.8315 56.8477 30.9109 56.526 30.9109 56.1641V51ZM33.563 61.25V53H34.7036V53.9727H34.8013C34.869 53.8477 34.9666 53.7031 35.0942 53.5391C35.2218 53.375 35.3989 53.2318 35.6255 53.1094C35.8521 52.9844 36.1515 52.9219 36.5239 52.9219C37.0083 52.9219 37.4406 53.0443 37.8208 53.2891C38.201 53.5339 38.4992 53.8867 38.7153 54.3477C38.9341 54.8086 39.0435 55.3633 39.0435 56.0117C39.0435 56.6602 38.9354 57.2161 38.7192 57.6797C38.5031 58.1406 38.2062 58.4961 37.8286 58.7461C37.451 58.9935 37.02 59.1172 36.5356 59.1172C36.1711 59.1172 35.8729 59.056 35.6411 58.9336C35.4119 58.8112 35.2323 58.668 35.1021 58.5039C34.9718 58.3398 34.8716 58.194 34.8013 58.0664H34.731V61.25H33.563ZM34.7075 56C34.7075 56.4219 34.7687 56.7917 34.8911 57.1094C35.0135 57.4271 35.1906 57.6758 35.4224 57.8555C35.6541 58.0326 35.938 58.1211 36.2739 58.1211C36.6229 58.1211 36.9146 58.0286 37.1489 57.8437C37.3833 57.6562 37.5604 57.4023 37.6802 57.082C37.8026 56.7617 37.8638 56.401 37.8638 56C37.8638 55.6042 37.8039 55.2487 37.6841 54.9336C37.5669 54.6185 37.3898 54.3698 37.1528 54.1875C36.9185 54.0052 36.6255 53.9141 36.2739 53.9141C35.9354 53.9141 35.6489 54.0013 35.4146 54.1758C35.1828 54.3503 35.007 54.5937 34.8872 54.9062C34.7674 55.2187 34.7075 55.5833 34.7075 56ZM41.3 51V59H40.132V51H41.3ZM45.1787 59.1211C44.6162 59.1211 44.1253 58.9922 43.706 58.7344C43.2867 58.4766 42.9612 58.1159 42.7294 57.6523C42.4977 57.1888 42.3818 56.6471 42.3818 56.0273C42.3818 55.4049 42.4977 54.8607 42.7294 54.3945C42.9612 53.9284 43.2867 53.5664 43.706 53.3086C44.1253 53.0508 44.6162 52.9219 45.1787 52.9219C45.7411 52.9219 46.232 53.0508 46.6513 53.3086C47.0706 53.5664 47.3961 53.9284 47.6279 54.3945C47.8596 54.8607 47.9755 55.4049 47.9755 56.0273C47.9755 56.6471 47.8596 57.1888 47.6279 57.6523C47.3961 58.1159 47.0706 58.4766 46.6513 58.7344C46.232 58.9922 45.7411 59.1211 45.1787 59.1211ZM45.1826 58.1406C45.5471 58.1406 45.8492 58.0443 46.0888 57.8516C46.3284 57.6589 46.5055 57.4023 46.6201 57.082C46.7372 56.7617 46.7958 56.4089 46.7958 56.0234C46.7958 55.6406 46.7372 55.2891 46.6201 54.9687C46.5055 54.6458 46.3284 54.3867 46.0888 54.1914C45.8492 53.9961 45.5471 53.8984 45.1826 53.8984C44.8154 53.8984 44.5107 53.9961 44.2685 54.1914C44.0289 54.3867 43.8505 54.6458 43.7333 54.9687C43.6188 55.2891 43.5615 55.6406 43.5615 56.0234C43.5615 56.4089 43.6188 56.7617 43.7333 57.082C43.8505 57.4023 44.0289 57.6589 44.2685 57.8516C44.5107 58.0443 44.8154 58.1406 45.1826 58.1406ZM50.8053 59.1328C50.4251 59.1328 50.0814 59.0625 49.7741 58.9219C49.4668 58.7786 49.2233 58.5716 49.0436 58.3008C48.8665 58.0299 48.778 57.6979 48.778 57.3047C48.778 56.9661 48.8431 56.6875 48.9733 56.4687C49.1035 56.25 49.2793 56.0768 49.5006 55.9492C49.722 55.8216 49.9694 55.7253 50.2428 55.6602C50.5163 55.5951 50.7949 55.5456 51.0788 55.5117C51.4381 55.4701 51.7298 55.4362 51.9538 55.4102C52.1777 55.3815 52.3405 55.3359 52.442 55.2734C52.5436 55.2109 52.5944 55.1094 52.5944 54.9687V54.9414C52.5944 54.6003 52.498 54.3359 52.3053 54.1484C52.1152 53.9609 51.8314 53.8672 51.4538 53.8672C51.0605 53.8672 50.7506 53.9544 50.5241 54.1289C50.3001 54.3008 50.1452 54.4922 50.0592 54.7031L48.9616 54.4531C49.0918 54.0885 49.2819 53.7943 49.5319 53.5703C49.7845 53.3437 50.0749 53.1797 50.403 53.0781C50.7311 52.974 51.0762 52.9219 51.4381 52.9219C51.6777 52.9219 51.9316 52.9505 52.1999 53.0078C52.4707 53.0625 52.7233 53.1641 52.9577 53.3125C53.1947 53.4609 53.3887 53.6732 53.5397 53.9492C53.6907 54.2227 53.7663 54.5781 53.7663 55.0156V59H52.6256V58.1797H52.5788C52.5032 58.3307 52.39 58.4792 52.2389 58.625C52.0879 58.7708 51.8939 58.8919 51.6569 58.9883C51.4199 59.0846 51.1361 59.1328 50.8053 59.1328ZM51.0592 58.1953C51.3822 58.1953 51.6582 58.1315 51.8874 58.0039C52.1191 57.8763 52.2949 57.7096 52.4147 57.5039C52.5371 57.2956 52.5983 57.0729 52.5983 56.8359V56.0625C52.5566 56.1042 52.4759 56.1432 52.3561 56.1797C52.2389 56.2135 52.1048 56.2435 51.9538 56.2695C51.8027 56.293 51.6556 56.3151 51.5124 56.3359C51.3691 56.3542 51.2493 56.3698 51.153 56.3828C50.9264 56.4115 50.7194 56.4596 50.5319 56.5273C50.347 56.5951 50.1986 56.6927 50.0866 56.8203C49.9772 56.9453 49.9225 57.112 49.9225 57.3203C49.9225 57.6094 50.0293 57.8281 50.2428 57.9766C50.4564 58.1224 50.7285 58.1953 51.0592 58.1953ZM57.348 59.1172C56.8637 59.1172 56.4314 58.9935 56.0512 58.7461C55.6736 58.4961 55.3767 58.1406 55.1605 57.6797C54.947 57.2161 54.8402 56.6602 54.8402 56.0117C54.8402 55.3633 54.9483 54.8086 55.1644 54.3477C55.3832 53.8867 55.6827 53.5339 56.0629 53.2891C56.4431 53.0443 56.8741 52.9219 57.3558 52.9219C57.7282 52.9219 58.0277 52.9844 58.2543 53.1094C58.4834 53.2318 58.6605 53.375 58.7855 53.5391C58.9131 53.7031 59.0121 53.8477 59.0824 53.9727H59.1527V51H60.3207V59H59.1801V58.0664H59.0824C59.0121 58.194 58.9105 58.3398 58.7777 58.5039C58.6475 58.668 58.4678 58.8112 58.2387 58.9336C58.0095 59.056 57.7126 59.1172 57.348 59.1172ZM57.6058 58.1211C57.9418 58.1211 58.2256 58.0326 58.4574 57.8555C58.6918 57.6758 58.8689 57.4271 58.9887 57.1094C59.1111 56.7917 59.1722 56.4219 59.1722 56C59.1722 55.5833 59.1124 55.2187 58.9926 54.9062C58.8728 54.5937 58.697 54.3503 58.4652 54.1758C58.2334 54.0013 57.947 53.9141 57.6058 53.9141C57.2543 53.9141 56.9613 54.0052 56.7269 54.1875C56.4926 54.3698 56.3155 54.6185 56.1957 54.9336C56.0785 55.2487 56.0199 55.6042 56.0199 56C56.0199 56.401 56.0798 56.7617 56.1996 57.082C56.3194 57.4023 56.4965 57.6562 56.7308 57.8437C56.9678 58.0286 57.2595 58.1211 57.6058 58.1211Z" fill="#6666FF"/>
<path d="M45 3.6V20.4C45 20.5591 44.9368 20.7117 44.8243 20.8243C44.7117 20.9368 44.5591 21 44.4 21H27.6C27.4409 21 27.2883 20.9368 27.1757 20.8243C27.0632 20.7117 27 20.5591 27 20.4V3.6C27 3.44087 27.0632 3.28826 27.1757 3.17574C27.2883 3.06321 27.4409 3 27.6 3H44.4C44.5591 3 44.7117 3.06321 44.8243 3.17574C44.9368 3.28826 45 3.44087 45 3.6Z" stroke="#6666FF" stroke-width="1.5" stroke-linecap="round" stroke-linejoin="round"/>
<path d="M27 16L34 13L45 18M40 10C39.4696 10 38.9609 9.78929 38.5858 9.41421C38.2107 9.03914 38 8.53043 38 8C38 7.46957 38.2107 6.96086 38.5858 6.58579C38.9609 6.21071 39.4696 6 40 6C40.5304 6 41.0391 6.21071 41.4142 6.58579C41.7893 6.96086 42 7.46957 42 8C42 8.53043 41.7893 9.03914 41.4142 9.41421C41.0391 9.78929 40.5304 10 40 10Z" stroke="#6666FF" stroke-width="1.5" stroke-linecap="round" stroke-linejoin="round"/>
</svg>
