<svg width="16" height="16" viewBox="0 0 16 16" fill="none" xmlns="http://www.w3.org/2000/svg">
<g clip-path="url(#clip0_4277_21501)">
<path d="M7.05725 7.0572L11.2998 4.7002L8.94285 8.94286M7.05725 7.0572L4.7002 11.2999L8.94285 8.94286M7.05725 7.0572L8.94285 8.94286" stroke="#8F8FB2" stroke-width="1.5" stroke-linecap="round" stroke-linejoin="round"/>
<path d="M8.00016 14.6663C11.682 14.6663 14.6668 11.6815 14.6668 7.99967C14.6668 4.31777 11.682 1.33301 8.00016 1.33301C4.31826 1.33301 1.3335 4.31777 1.3335 7.99967C1.3335 11.6815 4.31826 14.6663 8.00016 14.6663Z" stroke="#8F8FB2" stroke-width="1.5" stroke-linecap="round" stroke-linejoin="round"/>
<path d="M12.6667 8H12" stroke="#8F8FB2" stroke-width="1.5" stroke-linecap="round" stroke-linejoin="round"/>
<path d="M4.00016 8H3.3335" stroke="#8F8FB2" stroke-width="1.5" stroke-linecap="round" stroke-linejoin="round"/>
<path d="M8 3.33301V3.99967" stroke="#8F8FB2" stroke-width="1.5" stroke-linecap="round" stroke-linejoin="round"/>
<path d="M8 12V12.6667" stroke="#8F8FB2" stroke-width="1.5" stroke-linecap="round" stroke-linejoin="round"/>
<path d="M4.7002 4.7002L5.1716 5.1716" stroke="#8F8FB2" stroke-width="1.5" stroke-linecap="round" stroke-linejoin="round"/>
<path d="M10.8286 10.8281L11.3 11.2995" stroke="#8F8FB2" stroke-width="1.5" stroke-linecap="round" stroke-linejoin="round"/>
</g>
<defs>
<clipPath id="clip0_4277_21501">
<rect width="16" height="16" fill="white"/>
</clipPath>
</defs>
</svg>
