<svg width="14" height="12" viewBox="0 0 14 12" fill="none" xmlns="http://www.w3.org/2000/svg">
<path d="M14 1.42016C13.4839 1.66184 12.9307 1.82411 12.3492 1.89777C12.9427 1.52259 13.3988 0.928743 13.6127 0.222116C13.0584 0.568524 12.4419 0.820562 11.7883 0.956363C11.2646 0.367124 10.5183 0 9.69231 0C8.10584 0 6.81942 1.35571 6.81942 3.02906C6.81942 3.26614 6.84561 3.49746 6.89471 3.71957C4.50737 3.59298 2.39171 2.38688 0.974359 0.553563C0.726678 1.0024 0.585925 1.52259 0.585925 2.0773C0.585925 3.12803 1.0922 4.05562 1.86361 4.59998C1.39225 4.58387 0.949264 4.44692 0.56192 4.2202C0.56192 4.23286 0.56192 4.24552 0.56192 4.25818C0.56192 5.72667 1.55265 6.95003 2.86525 7.22969C2.6252 7.29874 2.37098 7.33557 2.10911 7.33557C1.92362 7.33557 1.74359 7.31716 1.56792 7.28033C1.93453 8.48298 2.99509 9.36108 4.25095 9.38525C3.26896 10.1978 2.03055 10.6811 0.684124 10.6811C0.451719 10.6811 0.223677 10.6673 0 10.6385C1.27005 11.4994 2.78014 12 4.40262 12C9.68576 12 12.575 7.38391 12.575 3.38122C12.575 3.25002 12.5717 3.11768 12.5674 2.98878C13.1282 2.56181 13.6148 2.02781 14 1.42016Z" fill="#1D9BF0"/>
</svg>
