<svg width="14" height="11" viewBox="0 0 14 11" fill="none" xmlns="http://www.w3.org/2000/svg">
<path d="M13.6092 1.89062C13.4798 1.13464 12.8631 0.584106 12.1475 0.412231C11.0767 0.171875 9.0948 0 6.95052 0C4.8075 0 2.79391 0.171875 1.72177 0.412231C1.00743 0.584106 0.389523 1.09973 0.260105 1.89062C0.129418 2.75 0 3.95312 0 5.5C0 7.04688 0.129418 8.25 0.291825 9.10938C0.422512 9.86536 1.03915 10.4159 1.75349 10.5878C2.89034 10.8281 4.83922 11 6.98351 11C9.12779 11 11.0767 10.8281 12.2135 10.5878C12.9279 10.4159 13.5445 9.90027 13.6752 9.10938C13.8046 8.25 13.967 7.01196 14 5.5C13.934 3.95312 13.7716 2.75 13.6092 1.89062ZM5.19703 7.90625V3.09375L9.15951 5.5L5.19703 7.90625Z" fill="#F20000"/>
</svg>
