<?xml version="1.0" encoding="utf-8"?>
<!-- Generator: Adobe Illustrator 23.0.1, SVG Export Plug-In . SVG Version: 6.00 Build 0)  -->
<svg version="1.1"
	 id="svg29" xmlns:cc="http://creativecommons.org/ns#" xmlns:dc="http://purl.org/dc/elements/1.1/" xmlns:rdf="http://www.w3.org/1999/02/22-rdf-syntax-ns#" xmlns:svg="http://www.w3.org/2000/svg"
	 xmlns="http://www.w3.org/2000/svg" xmlns:xlink="http://www.w3.org/1999/xlink" x="0px" y="0px" viewBox="0 0 544 154"
	 style="enable-background:new 0 0 544 154;" xml:space="preserve">
<style type="text/css">
	.st0{fill:#1C4F79;}
	.st1{fill:#6AB1EC;}
</style>
<path id="path72455" class="st0" d="M15.2,100.1c-3,0-4.5-1.5-4.5-4.5V21c0-3,1.5-4.5,4.5-4.5s4.5,1.5,4.5,4.5v74.6
	C19.7,98.6,18.2,100.1,15.2,100.1z"/>
<path id="path72457" class="st0" d="M78.7,37.9c8.2,0,14.3,1.9,18.1,5.8c3.9,3.9,5.8,9.9,5.8,18.1v33.7c0,1.4-0.4,2.6-1.3,3.4
	c-0.8,0.8-1.8,1.1-3.3,1.1c-1.4,0-2.6-0.4-3.4-1.1c-0.8-0.8-1.1-2-1.1-3.4V61.8c0-3.9-0.5-6.8-1.4-8.9s-2.4-3.6-4.5-4.5
	S82.5,47,78.7,47h-3.5C69,47,64,47.9,60.4,49.6c-3.7,1.7-5.5,4.2-5.5,7.5v38.4c0,1.4-0.4,2.6-1.3,3.4c-0.8,0.8-1.8,1.1-3.3,1.1
	s-2.6-0.4-3.4-1.1c-0.8-0.8-1.1-2-1.1-3.4V42.4c0-1.4,0.4-2.5,1.1-3.3c0.8-0.8,2-1.3,3.4-1.3s2.5,0.4,3.3,1.3
	c0.8,0.8,1.3,1.8,1.3,3.3v3.5c4.4-5.4,11.2-8.1,20.4-8.1L78.7,37.9L78.7,37.9z"/>
<path id="path72459" class="st0" d="M172,38.4c1.8,0.9,2.8,2.1,2.8,3.6c0,0.6-0.2,1.4-0.6,2.4l-23.8,52.2c-1.1,2.3-2.9,3.4-5.3,3.4
	c-2.3,0-4-1.2-5-3.5L118,44.3c-0.3-0.7-0.5-1.4-0.5-2.3c0-1.7,1-2.9,2.9-3.6c0.7-0.3,1.4-0.5,2.1-0.5c1.8,0,3,1,3.8,2.9l19.1,44.9
	l20.6-45c0.8-1.8,2.1-2.8,3.9-2.8C170.6,37.9,171.3,38.1,172,38.4z"/>
<path id="path72461" class="st0" d="M196,72.7v3.6c0,3.8,0.5,6.7,1.4,8.8s2.4,3.6,4.5,4.5s5.1,1.4,8.9,1.4h10.3
	c4.7,0,8.1-0.5,10.3-1.5s3.6-2.8,4.2-5.3c0.3-1.4,0.8-2.5,1.5-3.1c0.8-0.8,1.8-1.1,3.3-1.1s2.6,0.4,3.4,1.3c0.8,0.8,1.1,1.9,0.9,3.4
	c-0.8,5.3-3.2,9.2-7,11.7c-3.9,2.5-9.4,3.8-16.5,3.8h-10.3c-8.1,0-14.2-1.9-18.1-5.8s-5.8-9.9-5.8-18V61.8c0-8.2,1.9-14.3,5.8-18.1
	c3.9-3.9,10-5.9,18.1-5.8h10.3c8.2,0,14.3,1.9,18.1,5.8c3.8,3.9,5.8,9.9,5.8,18.1v6.3c0,1.4-0.4,2.6-1.3,3.4
	c-0.8,0.8-1.8,1.1-3.3,1.1L196,72.7L196,72.7z M196,63.6h40v-1.8c0-3.9-0.5-6.8-1.4-8.9s-2.4-3.6-4.5-4.5S225,47,221.2,47h-10.3
	c-3.9-0.1-6.8,0.3-8.9,1.3c-2.1,0.9-3.6,2.5-4.5,4.7c-0.9,2.1-1.4,5.1-1.4,8.9v1.7H196z"/>
<path id="path72463" class="st0" d="M282.7,100.1c-5.3,0-9.4-1.1-12.3-3.3c-2.9-2.3-4.8-5.6-5.5-10.1c-0.3-1.5,0-2.7,0.9-3.5
	c0.8-0.8,2-1.3,3.5-1.3c1.4,0,2.5,0.4,3.1,1.1c0.7,0.7,1.2,1.8,1.6,3.3c0.4,1.8,1.3,3,2.5,3.6c1.3,0.7,3.4,1,6.2,1h20.6
	c3.5,0,5.9-0.6,7.2-1.8c1.3-1.3,1.9-3.7,1.9-7.3s-0.6-6-1.9-7.2c-1.3-1.3-3.6-1.9-7.2-1.9H283c-11.7,0-17.5-5.8-17.5-17.5
	c0-6,1.4-10.4,4.3-13.2c2.9-2.9,7.3-4.3,13.2-4.3h19.6c9.7,0,15.3,4.2,16.9,12.5c0.3,1.5,0,2.7-0.9,3.5c-0.8,0.8-2,1.3-3.5,1.3
	c-1.3,0-2.4-0.3-3.1-1s-1.2-1.8-1.6-3.3s-1.2-2.5-2.4-3c-1.2-0.6-2.9-0.9-5.3-0.9h-19.6c-3.4,0-5.6,0.5-6.8,1.6
	c-1.1,1.1-1.6,3.4-1.6,6.8c0,3.3,0.5,5.5,1.6,6.7c1.2,1.2,3.4,1.8,6.8,1.8h20.3c6.1,0,10.7,1.5,13.6,4.5c3,2.9,4.5,7.5,4.5,13.6
	S320,92.5,317,95.5c-2.9,2.9-7.5,4.4-13.6,4.4L282.7,100.1L282.7,100.1z"/>
<path id="path72465" class="st0" d="M369.7,91c3,0,4.5,1.5,4.5,4.5c0,1.4-0.4,2.6-1.3,3.4c-0.8,0.8-1.8,1.1-3.3,1.1
	c-8.1,0-14-1.9-17.9-5.7c-3.8-3.8-5.7-9.7-5.7-17.7V46.9h-6.7c-1.4,0-2.6-0.4-3.4-1.1c-0.8-0.8-1.1-2-1.1-3.4s0.4-2.5,1.1-3.3
	c0.8-0.8,2-1.3,3.4-1.3h6.7V27c0-3,1.5-4.5,4.5-4.5S355,24,355,27v10.8h15c1.4,0,2.5,0.4,3.3,1.3c0.8,0.8,1.3,1.8,1.3,3.3
	s-0.4,2.6-1.3,3.4c-0.8,0.8-1.8,1.1-3.3,1.1h-15v29.7c0,3.8,0.4,6.7,1.3,8.8c0.9,2,2.4,3.4,4.4,4.3C363,90.6,366,91,369.7,91
	L369.7,91z"/>
<path id="path72467" class="st0" d="M421.1,37.9c8.2,0,14.3,1.9,18.1,5.8c3.9,3.9,5.8,9.9,5.8,18.1v33.7c0,1.4-0.4,2.6-1.3,3.4
	c-0.8,0.8-1.8,1.1-3.3,1.1c-1.4,0-2.6-0.4-3.4-1.1c-0.8-0.8-1.1-2-1.1-3.4v-4c-4.4,5.7-11.2,8.6-20.4,8.6h-7c-6.9,0-12-1.6-15.2-4.9
	c-3.3-3.3-4.9-8.3-4.9-15.2s1.6-12,4.9-15.2c3.3-3.3,8.3-4.9,15.2-4.9h27.4c-0.3-4.9-1.5-8.2-3.6-10.1c-2.2-1.8-5.9-2.8-11.2-2.8
	h-7.3c-4.7,0-8.1,0.4-10.3,1.3c-2.2,0.8-3.6,2.1-4.4,4c-0.6,1.5-1.2,2.6-1.9,3.1c-0.7,0.6-1.7,0.9-3,0.9s-2.4-0.3-3.3-1
	c-0.8-0.7-1.3-1.6-1.3-2.6c0-0.4,0-0.8,0.1-1c1-4.7,3.4-8.1,7.3-10.3c3.9-2.3,9.5-3.4,16.7-3.4L421.1,37.9z M435.4,80.8
	c0.2-0.7,0.3-1.2,0.5-1.5V68.9h-27.4c-4.4,0-7.3,0.8-8.8,2.3s-2.3,4.4-2.3,8.8s0.8,7.3,2.3,8.8s4.4,2.3,8.8,2.3h7
	C427,91,433.7,87.6,435.4,80.8L435.4,80.8z"/>
<path id="path72472" class="st0" d="M119.4,141.1c-0.3,0-0.6-0.1-0.8-0.3s-0.3-0.5-0.3-0.8v-18c0-0.3,0.1-0.6,0.3-0.8
	s0.5-0.3,0.8-0.3h7.3c2.6,0,4.5,0.6,5.7,1.8s1.8,3.1,1.8,5.7v5.1c0,2.6-0.6,4.5-1.8,5.7s-3.1,1.8-5.7,1.8L119.4,141.1L119.4,141.1z
	 M126.7,138.9c1.3,0,2.4-0.2,3.2-0.5s1.3-0.9,1.7-1.7c0.3-0.8,0.5-1.8,0.5-3.2v-5.1c0-1.3-0.2-2.4-0.5-3.2s-0.9-1.3-1.7-1.7
	c-0.8-0.3-1.8-0.5-3.2-0.5h-6.2v15.8L126.7,138.9L126.7,138.9z"/>
<path id="path72474" class="st0" d="M143.6,141.1c-0.3,0-0.6-0.1-0.8-0.3s-0.3-0.5-0.3-0.8v-12.8c0-0.3,0.1-0.6,0.3-0.8
	s0.5-0.3,0.8-0.3s0.6,0.1,0.8,0.3s0.3,0.4,0.3,0.8V140c0,0.3-0.1,0.6-0.3,0.8S144,141.1,143.6,141.1z M143.2,123.6
	c-0.4,0-0.7-0.1-1-0.3c-0.2-0.2-0.3-0.6-0.3-1v-0.8c0-0.8,0.4-1.2,1.3-1.2h0.8c0.4,0,0.7,0.1,0.9,0.3s0.3,0.5,0.3,0.9v0.8
	c0,0.4-0.1,0.7-0.3,1c-0.2,0.2-0.5,0.3-0.9,0.3H143.2L143.2,123.6z"/>
<path id="path72476" class="st0" d="M166,126.1c0.3,0,0.6,0.1,0.8,0.3s0.3,0.4,0.3,0.8V143c0,1.4-0.3,2.5-1,3.2s-1.7,1-3.2,1h-5.6
	c-1.2,0-2.2-0.3-2.8-0.8c-0.7-0.5-1.1-1.2-1.2-2.3c-0.1-0.4,0-0.6,0.2-0.8s0.5-0.3,0.9-0.3c0.3,0,0.6,0.1,0.7,0.2
	c0.2,0.2,0.3,0.4,0.4,0.8s0.3,0.6,0.6,0.7s0.7,0.2,1.3,0.2h5.6c0.8,0,1.3-0.1,1.6-0.4s0.4-0.8,0.4-1.6v-3.8
	c-1.1,1.3-2.7,1.9-4.9,1.9h-1.2c-2,0-3.4-0.5-4.4-1.4c-0.9-0.9-1.4-2.4-1.4-4.3v-3.5c0-2,0.5-3.4,1.4-4.4c0.9-0.9,2.4-1.4,4.4-1.4
	h2.5c1.6,0,2.8,0.5,3.6,1.4v-0.3c0-0.3,0.1-0.6,0.3-0.8C165.4,126.2,165.6,126.1,166,126.1L166,126.1z M160,138.9
	c1.5,0,2.7-0.2,3.6-0.6s1.3-1,1.3-1.8v-5.7c0-0.9-0.3-1.5-0.9-1.9s-1.5-0.6-2.7-0.6h-2.5c-0.9,0-1.6,0.1-2.2,0.3
	c-0.5,0.2-0.9,0.6-1.1,1.1s-0.3,1.2-0.3,2.2v3.5c0,0.9,0.1,1.6,0.3,2.1s0.6,0.9,1.1,1.1s1.2,0.3,2.2,0.3L160,138.9L160,138.9z"/>
<path id="path72478" class="st0" d="M176.8,141.1c-0.3,0-0.6-0.1-0.8-0.3s-0.3-0.5-0.3-0.8v-12.8c0-0.3,0.1-0.6,0.3-0.8
	s0.5-0.3,0.8-0.3s0.6,0.1,0.8,0.3s0.3,0.4,0.3,0.8V140c0,0.3-0.1,0.6-0.3,0.8S177.2,141.1,176.8,141.1z M176.4,123.6
	c-0.4,0-0.7-0.1-1-0.3c-0.2-0.2-0.3-0.6-0.3-1v-0.8c0-0.8,0.4-1.2,1.3-1.2h0.8c0.4,0,0.7,0.1,0.9,0.3s0.3,0.5,0.3,0.9v0.8
	c0,0.4-0.1,0.7-0.3,1c-0.2,0.2-0.5,0.3-0.9,0.3H176.4L176.4,123.6z"/>
<path id="path72480" class="st0" d="M193.1,138.9c0.7,0,1.1,0.4,1.1,1.1c0,0.3-0.1,0.6-0.3,0.8s-0.4,0.3-0.8,0.3
	c-1.9,0-3.4-0.5-4.3-1.4s-1.4-2.3-1.4-4.3v-7.2h-1.6c-0.3,0-0.6-0.1-0.8-0.3s-0.3-0.5-0.3-0.8s0.1-0.6,0.3-0.8s0.5-0.3,0.8-0.3h1.6
	v-2.6c0-0.7,0.4-1.1,1.1-1.1s1.1,0.4,1.1,1.1v2.6h3.6c0.3,0,0.6,0.1,0.8,0.3s0.3,0.4,0.3,0.8s-0.1,0.6-0.3,0.8s-0.4,0.3-0.8,0.3
	h-3.6v7.2c0,0.9,0.1,1.6,0.3,2.1s0.6,0.8,1.1,1C191.5,138.8,192.2,138.9,193.1,138.9L193.1,138.9z"/>
<path id="path72482" class="st0" d="M208.2,126.1c2,0,3.4,0.5,4.4,1.4c0.9,0.9,1.4,2.4,1.4,4.4v8.1c0,0.3-0.1,0.6-0.3,0.8
	s-0.4,0.3-0.8,0.3c-0.3,0-0.6-0.1-0.8-0.3s-0.3-0.5-0.3-0.8v-1c-1.1,1.4-2.7,2.1-4.9,2.1h-1.7c-1.7,0-2.9-0.4-3.7-1.2
	s-1.2-2-1.2-3.7s0.4-2.9,1.2-3.7s2-1.2,3.7-1.2h6.6c-0.1-1.2-0.4-2-0.9-2.4s-1.4-0.7-2.7-0.7h-1.8c-1.1,0-2,0.1-2.5,0.3
	s-0.9,0.5-1.1,1c-0.1,0.4-0.3,0.6-0.5,0.8c-0.2,0.1-0.4,0.2-0.7,0.2s-0.6-0.1-0.8-0.2c-0.2-0.2-0.3-0.4-0.3-0.6v-0.2
	c0.2-1.1,0.8-2,1.8-2.5c0.9-0.5,2.3-0.8,4-0.8L208.2,126.1L208.2,126.1z M211.6,136.5c0-0.2,0.1-0.3,0.1-0.4v-2.5h-6.6
	c-1.1,0-1.8,0.2-2.1,0.5c-0.4,0.4-0.5,1.1-0.5,2.1s0.2,1.8,0.5,2.1c0.4,0.4,1.1,0.5,2.1,0.5h1.7
	C209.6,138.9,211.2,138.1,211.6,136.5L211.6,136.5z"/>
<path id="path72484" class="st0" d="M227,141.1c-1.5,0-2.6-0.4-3.3-1.1s-1.1-1.8-1.1-3.3V121c0-0.3,0.1-0.6,0.3-0.8s0.5-0.3,0.8-0.3
	s0.6,0.1,0.8,0.3s0.3,0.4,0.3,0.8v15.7c0,0.9,0.2,1.5,0.5,1.8s0.9,0.5,1.8,0.5c0.4,0,0.6,0.1,0.8,0.3s0.3,0.4,0.3,0.8
	c0,0.3-0.1,0.6-0.3,0.8C227.6,141,227.3,141.1,227,141.1L227,141.1z"/>
<path id="path72486" class="st0" d="M249,141.1c-1.8,0-3.1-0.4-4-1.1s-1.5-1.9-1.6-3.5c0-0.4,0.1-0.6,0.2-0.8
	c0.2-0.2,0.5-0.3,0.8-0.3c0.7,0,1,0.4,1.1,1.1c0.1,0.9,0.4,1.5,1,1.9c0.5,0.3,1.4,0.5,2.5,0.5h4.4c0.9,0,1.6-0.1,2.2-0.3
	c0.5-0.2,0.9-0.6,1.1-1.1s0.3-1.2,0.3-2.1s-0.1-1.6-0.3-2.2c-0.2-0.5-0.6-0.9-1.1-1.1s-1.2-0.3-2.1-0.3h-3.9c-1.8,0-3.2-0.4-4.1-1.3
	s-1.3-2.3-1.3-4.1c0-1.9,0.4-3.2,1.3-4.1s2.3-1.3,4.1-1.3h3.9c1.7,0,2.9,0.4,3.8,1.1s1.4,1.8,1.6,3.2c0,0.4,0,0.6-0.2,0.8
	s-0.5,0.3-0.8,0.3s-0.6-0.1-0.8-0.2c-0.2-0.2-0.3-0.5-0.3-0.8c-0.1-0.8-0.4-1.3-0.9-1.7c-0.5-0.3-1.3-0.5-2.3-0.5h-3.9
	c-1.2,0-2.1,0.2-2.5,0.7c-0.5,0.4-0.7,1.3-0.7,2.5s0.2,2.1,0.7,2.6s1.3,0.7,2.6,0.7h3.9c2,0,3.4,0.5,4.3,1.4s1.4,2.4,1.4,4.3
	s-0.5,3.4-1.4,4.3s-2.4,1.4-4.3,1.4L249,141.1L249,141.1z"/>
<path id="path72488" class="st0" d="M269,134.5v0.9c0,0.9,0.1,1.6,0.3,2.1s0.6,0.9,1.1,1.1s1.2,0.3,2.2,0.3h2.5c1.1,0,2-0.1,2.5-0.4
	c0.5-0.2,0.9-0.7,1-1.3c0.1-0.3,0.2-0.6,0.4-0.8s0.4-0.3,0.8-0.3s0.6,0.1,0.8,0.3s0.3,0.5,0.2,0.8c-0.2,1.3-0.8,2.2-1.7,2.8
	s-2.3,0.9-4,0.9h-2.5c-2,0-3.4-0.5-4.4-1.4c-0.9-0.9-1.4-2.4-1.4-4.3v-3.5c0-2,0.5-3.4,1.4-4.4c0.9-0.9,2.4-1.4,4.4-1.4h2.5
	c2,0,3.4,0.5,4.4,1.4c0.9,0.9,1.4,2.4,1.4,4.4v1.5c0,0.3-0.1,0.6-0.3,0.8s-0.4,0.3-0.8,0.3L269,134.5L269,134.5z M269,132.3h9.6
	v-0.4c0-0.9-0.1-1.6-0.3-2.2c-0.2-0.5-0.6-0.9-1.1-1.1s-1.2-0.3-2.2-0.3h-2.4c-0.9,0-1.6,0.1-2.2,0.3c-0.5,0.2-0.9,0.6-1.1,1.1
	s-0.3,1.2-0.3,2.2V132.3z"/>
<path id="path72490" class="st0" d="M294.3,141.1c-2,0-3.4-0.5-4.4-1.4c-0.9-0.9-1.4-2.4-1.4-4.4v-3.5c0-2,0.5-3.4,1.4-4.4
	c0.9-0.9,2.4-1.4,4.4-1.4h2.5c1.5,0,2.7,0.3,3.5,0.8s1.4,1.3,1.6,2.3c0.1,0.4,0,0.6-0.2,0.8s-0.5,0.3-0.9,0.3
	c-0.3,0-0.5-0.1-0.7-0.2s-0.3-0.4-0.4-0.8c-0.1-0.4-0.4-0.7-0.9-0.8c-0.4-0.2-1.1-0.2-2-0.2h-2.5c-0.9,0-1.6,0.1-2.2,0.3
	s-0.9,0.6-1.1,1.1s-0.3,1.2-0.3,2.2v3.5c0,0.9,0.1,1.6,0.3,2.2c0.2,0.5,0.6,0.9,1.1,1.1s1.2,0.3,2.2,0.3h2.5c0.9,0,1.5-0.1,2-0.2
	c0.4-0.2,0.7-0.4,0.9-0.8c0.1-0.3,0.3-0.6,0.4-0.8s0.4-0.2,0.7-0.2c0.4,0,0.6,0.1,0.8,0.3s0.3,0.5,0.2,0.8c-0.2,1.1-0.7,1.8-1.6,2.3
	c-0.8,0.5-2,0.8-3.5,0.8L294.3,141.1L294.3,141.1z"/>
<path id="path72492" class="st0" d="M322,126.1c0.3,0,0.6,0.1,0.8,0.3s0.3,0.4,0.3,0.8V140c0,0.3-0.1,0.6-0.3,0.8s-0.4,0.3-0.8,0.3
	s-0.6-0.1-0.8-0.3c-0.2-0.2-0.3-0.5-0.3-0.8v-0.8c-1.1,1.3-2.7,1.9-4.9,1.9h-0.8c-2,0-3.4-0.5-4.4-1.4c-0.9-0.9-1.4-2.4-1.4-4.4
	v-8.1c0-0.3,0.1-0.6,0.3-0.8s0.5-0.3,0.8-0.3s0.6,0.1,0.8,0.3s0.3,0.4,0.3,0.8v8.1c0,0.9,0.1,1.6,0.3,2.2c0.2,0.5,0.6,0.9,1.1,1.1
	s1.2,0.3,2.2,0.3h0.8c1.5,0,2.7-0.2,3.6-0.6s1.3-1,1.3-1.8v-9.2c0-0.3,0.1-0.6,0.3-0.8C321.3,126.2,321.6,126.1,322,126.1L322,126.1
	z"/>
<path id="path72494" class="st0" d="M339.8,126.1c0.3,0,0.6,0.1,0.8,0.3s0.3,0.4,0.3,0.8c0,0.3-0.1,0.6-0.3,0.8s-0.4,0.3-0.8,0.3
	c-1.8,0-3.2,0.4-4.2,1.1c-0.9,0.7-1.4,1.8-1.4,3.1v7.5c0,0.3-0.1,0.6-0.3,0.8s-0.4,0.3-0.8,0.3c-0.3,0-0.6-0.1-0.8-0.3
	s-0.3-0.5-0.3-0.8v-12.8c0-0.3,0.1-0.6,0.3-0.8s0.5-0.3,0.8-0.3s0.6,0.1,0.8,0.3c0.2,0.2,0.3,0.4,0.3,0.8v1.6c0.6-0.9,1.4-1.6,2.3-2
	C337.5,126.4,338.6,126.1,339.8,126.1L339.8,126.1z"/>
<path id="path72496" class="st0" d="M348.4,141.1c-0.3,0-0.6-0.1-0.8-0.3s-0.3-0.5-0.3-0.8v-12.8c0-0.3,0.1-0.6,0.3-0.8
	s0.5-0.3,0.8-0.3s0.6,0.1,0.8,0.3c0.2,0.2,0.3,0.4,0.3,0.8V140c0,0.3-0.1,0.6-0.3,0.8S348.7,141.1,348.4,141.1z M348,123.6
	c-0.4,0-0.7-0.1-1-0.3c-0.2-0.2-0.3-0.6-0.3-1v-0.8c0-0.8,0.4-1.2,1.3-1.2h0.8c0.4,0,0.7,0.1,0.9,0.3s0.3,0.5,0.3,0.9v0.8
	c0,0.4-0.1,0.7-0.3,1c-0.2,0.2-0.5,0.3-0.9,0.3H348L348,123.6z"/>
<path id="path72498" class="st0" d="M364.7,138.9c0.7,0,1.1,0.4,1.1,1.1c0,0.3-0.1,0.6-0.3,0.8s-0.4,0.3-0.8,0.3
	c-1.9,0-3.4-0.5-4.3-1.4s-1.4-2.3-1.4-4.3v-7.2h-1.6c-0.3,0-0.6-0.1-0.8-0.3s-0.3-0.5-0.3-0.8s0.1-0.6,0.3-0.8
	c0.2-0.2,0.5-0.3,0.8-0.3h1.6v-2.6c0-0.7,0.4-1.1,1.1-1.1s1.1,0.4,1.1,1.1v2.6h3.6c0.3,0,0.6,0.1,0.8,0.3s0.3,0.4,0.3,0.8
	s-0.1,0.6-0.3,0.8c-0.2,0.2-0.4,0.3-0.8,0.3h-3.6v7.2c0,0.9,0.1,1.6,0.3,2.1s0.6,0.8,1.1,1C363,138.8,363.7,138.9,364.7,138.9
	L364.7,138.9z"/>
<path id="path72500" class="st0" d="M374.4,141.1c-0.3,0-0.6-0.1-0.8-0.3s-0.3-0.5-0.3-0.8v-12.8c0-0.3,0.1-0.6,0.3-0.8
	s0.5-0.3,0.8-0.3s0.6,0.1,0.8,0.3s0.3,0.4,0.3,0.8V140c0,0.3-0.1,0.6-0.3,0.8S374.8,141.1,374.4,141.1z M374,123.6
	c-0.4,0-0.7-0.1-1-0.3c-0.2-0.2-0.3-0.6-0.3-1v-0.8c0-0.8,0.4-1.2,1.3-1.2h0.8c0.4,0,0.7,0.1,0.9,0.3s0.3,0.5,0.3,0.9v0.8
	c0,0.4-0.1,0.7-0.3,1c-0.2,0.2-0.5,0.3-0.9,0.3H374L374,123.6z"/>
<path id="path72502" class="st0" d="M386,134.5v0.9c0,0.9,0.1,1.6,0.3,2.1s0.6,0.9,1.1,1.1s1.2,0.3,2.2,0.3h2.5c1.1,0,2-0.1,2.5-0.4
	s0.9-0.7,1-1.3c0.1-0.3,0.2-0.6,0.4-0.8s0.4-0.3,0.8-0.3s0.6,0.1,0.8,0.3s0.3,0.5,0.2,0.8c-0.2,1.3-0.8,2.2-1.7,2.8s-2.3,0.9-4,0.9
	h-2.5c-2,0-3.4-0.5-4.4-1.4c-0.9-0.9-1.4-2.4-1.4-4.3v-3.5c0-2,0.5-3.4,1.4-4.4c0.9-0.9,2.4-1.4,4.4-1.4h2.5c2,0,3.4,0.5,4.4,1.4
	c0.9,0.9,1.4,2.4,1.4,4.4v1.5c0,0.3-0.1,0.6-0.3,0.8s-0.4,0.3-0.8,0.3L386,134.5L386,134.5z M386,132.3h9.6v-0.4
	c0-0.9-0.1-1.6-0.3-2.2c-0.2-0.5-0.6-0.9-1.1-1.1s-1.2-0.3-2.2-0.3h-2.4c-0.9,0-1.6,0.1-2.2,0.3c-0.5,0.2-0.9,0.6-1.1,1.1
	s-0.3,1.2-0.3,2.2V132.3z"/>
<path id="path72504" class="st0" d="M409.6,141.1c-1.3,0-2.3-0.3-3-0.8s-1.2-1.4-1.3-2.4c-0.1-0.4,0-0.6,0.2-0.8s0.5-0.3,0.8-0.3
	s0.6,0.1,0.8,0.3s0.3,0.4,0.4,0.8s0.3,0.7,0.6,0.9s0.8,0.2,1.5,0.2h5c0.8,0,1.4-0.1,1.7-0.4s0.5-0.9,0.5-1.8s-0.2-1.4-0.5-1.7
	s-0.9-0.5-1.7-0.5h-4.9c-2.8,0-4.2-1.4-4.2-4.2c0-1.4,0.3-2.5,1-3.2s1.8-1,3.2-1h4.7c2.3,0,3.7,1,4.1,3c0.1,0.4,0,0.6-0.2,0.8
	s-0.5,0.3-0.8,0.3s-0.6-0.1-0.8-0.2c-0.2-0.2-0.3-0.4-0.4-0.8s-0.3-0.6-0.6-0.7s-0.7-0.2-1.3-0.2h-4.7c-0.8,0-1.4,0.1-1.6,0.4
	c-0.3,0.3-0.4,0.8-0.4,1.6s0.1,1.3,0.4,1.6s0.8,0.4,1.6,0.4h4.9c1.5,0,2.6,0.4,3.3,1.1s1.1,1.8,1.1,3.3s-0.4,2.6-1.1,3.3
	s-1.8,1.1-3.3,1.1L409.6,141.1L409.6,141.1z"/>
<path id="path134114" class="st1" d="M490,37.5L468.9,8.4h-12.6l27.6,37.2L490,37.5z M535.7,8.4h-12.5L496,45.6l-6.2,8.1l-32.6,44
	h12.6l26.2-36l26.2,36h12.4l-32.6-44L535.7,8.4L535.7,8.4z"/>
</svg>
