<svg width="27" height="27" viewBox="0 0 27 27" fill="none" xmlns="http://www.w3.org/2000/svg">
<rect width="27" height="27" rx="6" fill="#F2F2FE"/>
<path d="M6.25 7.75H7.75V6.25C6.925 6.25 6.25 6.925 6.25 7.75ZM6.25 13.75H7.75V12.25H6.25V13.75ZM9.25 19.75H10.75V18.25H9.25V19.75ZM6.25 10.75H7.75V9.25H6.25V10.75ZM13.75 6.25H12.25V7.75H13.75V6.25ZM18.25 6.25V7.75H19.75C19.75 6.925 19.075 6.25 18.25 6.25ZM7.75 19.75V18.25H6.25C6.25 19.075 6.925 19.75 7.75 19.75ZM6.25 16.75H7.75V15.25H6.25V16.75ZM10.75 6.25H9.25V7.75H10.75V6.25ZM12.25 19.75H13.75V18.25H12.25V19.75ZM18.25 13.75H19.75V12.25H18.25V13.75ZM18.25 19.75C19.075 19.75 19.75 19.075 19.75 18.25H18.25V19.75ZM18.25 10.75H19.75V9.25H18.25V10.75ZM18.25 16.75H19.75V15.25H18.25V16.75ZM15.25 19.75H16.75V18.25H15.25V19.75ZM15.25 7.75H16.75V6.25H15.25V7.75ZM9.25 16.75H16.75V9.25H9.25V16.75ZM10.75 10.75H15.25V15.25H10.75V10.75Z" fill="#8084F7"/>
</svg>
