<svg width="19" height="20" viewBox="0 0 19 20" fill="none" xmlns="http://www.w3.org/2000/svg">
<path d="M13.972 18.2808H1.6C1.44087 18.2808 1.28826 18.2176 1.17574 18.105C1.06321 17.9925 1 17.8399 1 17.6808V7.88077C1 7.72164 1.06321 7.56903 1.17574 7.4565C1.28826 7.34398 1.44087 7.28077 1.6 7.28077H4.368C4.71337 7.28077 5.05286 7.19134 5.3534 7.02118C5.65395 6.85101 5.90531 6.60592 6.083 6.30977L8.793 1.79277C8.99739 1.45162 9.31937 1.1969 9.6984 1.07652C10.0774 0.956138 10.4874 0.978387 10.8512 1.13908C11.2149 1.29978 11.5075 1.58785 11.6737 1.94911C11.84 2.31037 11.8685 2.71993 11.754 3.10077L10.732 6.50877C10.7052 6.59828 10.6997 6.6928 10.7159 6.78482C10.7321 6.87683 10.7696 6.96379 10.8253 7.03877C10.8811 7.11375 10.9536 7.17467 11.037 7.21668C11.1205 7.2587 11.2126 7.28064 11.306 7.28077H15.881C16.1885 7.28071 16.492 7.35157 16.7677 7.48785C17.0434 7.62412 17.2839 7.82215 17.4706 8.06652C17.6573 8.3109 17.7852 8.59504 17.8442 8.89686C17.9033 9.19868 17.8919 9.51005 17.811 9.80677L15.901 16.8068C15.7857 17.2298 15.5345 17.6033 15.1861 17.8696C14.8378 18.136 14.4105 18.2804 13.972 18.2808Z" stroke="#6ABC10" stroke-width="1.5" stroke-linecap="round"/>
<path d="M4.5 18.2808V7.28076" stroke="#6ABC10" stroke-width="1.5" stroke-linecap="round" stroke-linejoin="round"/>
</svg>
