<svg width="19" height="20" viewBox="0 0 19 20" fill="none" xmlns="http://www.w3.org/2000/svg">
<path d="M13.972 1H1.6C1.44087 1 1.28826 1.06321 1.17574 1.17574C1.06321 1.28826 1 1.44087 1 1.6V11.4C1 11.5591 1.06321 11.7117 1.17574 11.8243C1.28826 11.9368 1.44087 12 1.6 12H4.368C4.71337 12 5.05286 12.0894 5.3534 12.2596C5.65395 12.4298 5.90531 12.6748 6.083 12.971L8.793 17.488C8.99739 17.8291 9.31937 18.0839 9.6984 18.2042C10.0774 18.3246 10.4874 18.3024 10.8512 18.1417C11.2149 17.981 11.5075 17.6929 11.6737 17.3317C11.84 16.9704 11.8685 16.5608 11.754 16.18L10.732 12.772C10.7052 12.6825 10.6997 12.588 10.7159 12.4959C10.7321 12.4039 10.7696 12.317 10.8253 12.242C10.8811 12.167 10.9536 12.1061 11.037 12.0641C11.1205 12.0221 11.2126 12.0001 11.306 12H15.881C16.1885 12.0001 16.492 11.9292 16.7677 11.7929C17.0434 11.6566 17.2839 11.4586 17.4706 11.2142C17.6573 10.9699 17.7852 10.6857 17.8442 10.3839C17.9033 10.0821 17.8919 9.77071 17.811 9.474L15.901 2.474C15.7857 2.05092 15.5345 1.67748 15.1861 1.41114C14.8378 1.14481 14.4105 1.00035 13.972 1Z" stroke="#FF8080" stroke-width="1.5" stroke-linecap="round"/>
<path d="M4.5 12V1" stroke="#FF8080" stroke-width="1.5" stroke-linecap="round" stroke-linejoin="round"/>
</svg>
