<svg width="36" height="36" viewBox="0 0 36 36" xmlns="http://www.w3.org/2000/svg">
<path fill-rule="evenodd" clip-rule="evenodd" d="M18 5.625C11.1655 5.625 5.625 11.1655 5.625 18C5.625 24.8345 11.1655 30.375 18 30.375C24.8345 30.375 30.375 24.8345 30.375 18C30.375 11.1655 24.8345 5.625 18 5.625ZM3.375 18C3.375 9.92284 9.92284 3.375 18 3.375C26.0772 3.375 32.625 9.92284 32.625 18C32.625 26.0772 26.0772 32.625 18 32.625C9.92284 32.625 3.375 26.0772 3.375 18Z" />
<path fill-rule="evenodd" clip-rule="evenodd" d="M18 11.625C16.136 11.625 14.625 13.136 14.625 15C14.625 16.864 16.136 18.375 18 18.375C19.864 18.375 21.375 16.864 21.375 15C21.375 13.136 19.864 11.625 18 11.625ZM12.375 15C12.375 11.8934 14.8934 9.375 18 9.375C21.1066 9.375 23.625 11.8934 23.625 15C23.625 18.1066 21.1066 20.625 18 20.625C14.8934 20.625 12.375 18.1066 12.375 15Z" />
<path fill-rule="evenodd" clip-rule="evenodd" d="M14.9997 25.125C13.9514 25.1247 12.9309 25.4623 12.0896 26.0878C11.2483 26.7133 10.6311 27.5932 10.3294 28.5972C10.1506 29.1923 9.52332 29.5297 8.92828 29.3509C8.33324 29.1721 7.9958 28.5448 8.17458 27.9498C8.61546 26.4824 9.51759 25.1963 10.7471 24.2821C11.9766 23.3681 13.468 22.8746 15 22.875C15.0001 22.875 14.9999 22.875 15 22.875L20.9996 22.875C20.9997 22.875 20.9995 22.875 20.9996 22.875C22.5336 22.8746 24.0271 23.3692 25.2575 24.2854C26.4879 25.2016 27.3898 26.4905 27.8289 27.9605C28.0068 28.5558 27.6684 29.1826 27.073 29.3604C26.4777 29.5383 25.8509 29.1999 25.6731 28.6045C25.3726 27.5988 24.7556 26.7169 23.9137 26.09C23.0718 25.4631 22.05 25.1246 21.0004 25.125L14.9997 25.125Z" />
</svg>
