<svg width="36" height="36" viewBox="0 0 36 36" xmlns="http://www.w3.org/2000/svg">
<path fill-rule="evenodd" clip-rule="evenodd" d="M18 5.625C11.1655 5.625 5.625 11.1655 5.625 18C5.625 24.8345 11.1655 30.375 18 30.375C24.8345 30.375 30.375 24.8345 30.375 18C30.375 11.1655 24.8345 5.625 18 5.625ZM3.375 18C3.375 9.92284 9.92284 3.375 18 3.375C26.0772 3.375 32.625 9.92284 32.625 18C32.625 26.0772 26.0772 32.625 18 32.625C9.92284 32.625 3.375 26.0772 3.375 18Z" />
<path fill-rule="evenodd" clip-rule="evenodd" d="M18 10.875C18.6213 10.875 19.125 11.3787 19.125 12V18C19.125 18.6213 18.6213 19.125 18 19.125C17.3787 19.125 16.875 18.6213 16.875 18V12C16.875 11.3787 17.3787 10.875 18 10.875Z" />
<path fill-rule="evenodd" clip-rule="evenodd" d="M16.875 24C16.875 23.3787 17.3787 22.875 18 22.875H18.015C18.6363 22.875 19.14 23.3787 19.14 24C19.14 24.6213 18.6363 25.125 18.015 25.125H18C17.3787 25.125 16.875 24.6213 16.875 24Z" />
</svg>
