<svg width="36" height="36" viewBox="0 0 36 36" xmlns="http://www.w3.org/2000/svg">
<path fill-rule="evenodd" clip-rule="evenodd" d="M18 12.375C18.6213 12.375 19.125 12.8787 19.125 13.5V16.5C19.125 17.1213 18.6213 17.625 18 17.625C17.3787 17.625 16.875 17.1213 16.875 16.5V13.5C16.875 12.8787 17.3787 12.375 18 12.375ZM18 21.375C18.6213 21.375 19.125 21.8787 19.125 22.5V22.515C19.125 23.1363 18.6213 23.64 18 23.64C17.3787 23.64 16.875 23.1363 16.875 22.515V22.5C16.875 21.8787 17.3787 21.375 18 21.375Z" />
<path fill-rule="evenodd" clip-rule="evenodd" d="M15.89 3.89875C16.5248 3.52452 17.2482 3.32715 17.985 3.32715C18.7219 3.32715 19.4452 3.52452 20.08 3.89875C20.7113 4.27094 21.232 4.80455 21.5885 5.44461L32.2333 23.8106C32.2598 23.8564 32.2831 23.9039 32.3029 23.9529C32.5553 24.5768 32.6512 25.253 32.5823 25.9225C32.5133 26.5919 32.2816 27.2344 31.9073 27.7937C31.5331 28.3531 31.0276 28.8124 30.4351 29.1316C29.8425 29.4507 29.1809 29.62 28.5079 29.6248L28.5 29.6248H7.5C7.47242 29.6248 7.44507 29.6238 7.41798 29.6218C7.37167 29.6252 7.32465 29.6257 7.27708 29.6233C6.61996 29.5894 5.98048 29.3988 5.41202 29.0674C4.84356 28.7361 4.36262 28.2735 4.00936 27.7184C3.6561 27.1632 3.44076 26.5317 3.38133 25.8764C3.32189 25.2211 3.42008 24.561 3.66771 23.9514C3.68739 23.9029 3.71044 23.8559 3.73667 23.8106L14.3815 5.44457C14.7381 4.80452 15.2587 4.27093 15.89 3.89875ZM7.4172 27.3778C7.44454 27.3758 7.47215 27.3748 7.5 27.3748H28.4957C28.8004 27.3721 29.0998 27.2951 29.3681 27.1506C29.6374 27.0056 29.8672 26.7968 30.0373 26.5425C30.2074 26.2883 30.3128 25.9963 30.3441 25.6919C30.373 25.4109 30.3381 25.1273 30.2422 24.8622L19.6367 6.56392L19.6256 6.54442C19.4635 6.25135 19.2258 6.00707 18.9373 5.83697C18.6488 5.66686 18.3199 5.57715 17.985 5.57715C17.6501 5.57715 17.3213 5.66686 17.0327 5.83697C16.7442 6.00707 16.5065 6.25135 16.3444 6.54442L16.3333 6.56392L5.72737 24.8629C5.63326 25.1217 5.59721 25.3983 5.62213 25.6731C5.64915 25.971 5.74703 26.2581 5.9076 26.5104C6.06817 26.7627 6.28678 26.973 6.54517 27.1236C6.80356 27.2742 7.09423 27.3609 7.39293 27.3763C7.40104 27.3767 7.40913 27.3772 7.4172 27.3778Z" />
</svg>
