<svg width="36" height="36" viewBox="0 0 36 36" xmlns="http://www.w3.org/2000/svg">
<path fill-rule="evenodd" clip-rule="evenodd" d="M18 29.625C18.6213 29.625 19.125 29.1213 19.125 28.5L19.125 7.5C19.125 6.87868 18.6213 6.375 18 6.375C17.3787 6.375 16.875 6.87868 16.875 7.5L16.875 28.5C16.875 29.1213 17.3787 29.625 18 29.625Z" />
<path fill-rule="evenodd" clip-rule="evenodd" d="M18.7955 6.7045C18.3562 6.26517 17.6438 6.26517 17.2045 6.7045L11.2045 12.7045C10.7652 13.1438 10.7652 13.8562 11.2045 14.2955C11.6438 14.7348 12.3562 14.7348 12.7955 14.2955L18.7955 8.2955C19.2348 7.85616 19.2348 7.14384 18.7955 6.7045Z" />
<path fill-rule="evenodd" clip-rule="evenodd" d="M24.7955 14.2955C25.2348 13.8562 25.2348 13.1438 24.7955 12.7045L18.7955 6.7045C18.3562 6.26517 17.6438 6.26517 17.2045 6.7045C16.7652 7.14384 16.7652 7.85616 17.2045 8.29549L23.2045 14.2955C23.6438 14.7348 24.3562 14.7348 24.7955 14.2955Z" />
</svg>
