<svg width="36" height="36" viewBox="0 0 36 36" xmlns="http://www.w3.org/2000/svg">
<path fill-rule="evenodd" clip-rule="evenodd" d="M18 6.375C17.3787 6.375 16.875 6.87868 16.875 7.5L16.875 28.5C16.875 29.1213 17.3787 29.625 18 29.625C18.6213 29.625 19.125 29.1213 19.125 28.5L19.125 7.5C19.125 6.87868 18.6213 6.375 18 6.375Z" />
<path fill-rule="evenodd" clip-rule="evenodd" d="M17.2045 29.2955C17.6438 29.7348 18.3562 29.7348 18.7955 29.2955L24.7955 23.2955C25.2348 22.8562 25.2348 22.1438 24.7955 21.7045C24.3562 21.2652 23.6438 21.2652 23.2045 21.7045L17.2045 27.7045C16.7652 28.1438 16.7652 28.8562 17.2045 29.2955Z"  />
<path fill-rule="evenodd" clip-rule="evenodd" d="M11.2045 21.7045C10.7652 22.1438 10.7652 22.8562 11.2045 23.2955L17.2045 29.2955C17.6438 29.7348 18.3562 29.7348 18.7955 29.2955C19.2348 28.8562 19.2348 28.1438 18.7955 27.7045L12.7955 21.7045C12.3562 21.2652 11.6438 21.2652 11.2045 21.7045Z" />
</svg>
