<svg width="36" height="36" viewBox="0 0 36 36"  xmlns="http://www.w3.org/2000/svg">
<path fill-rule="evenodd" clip-rule="evenodd" d="M6.375 18C6.375 17.3787 6.87868 16.875 7.5 16.875H28.5C29.1213 16.875 29.625 17.3787 29.625 18C29.625 18.6213 29.1213 19.125 28.5 19.125H7.5C6.87868 19.125 6.375 18.6213 6.375 18Z" />
<path fill-rule="evenodd" clip-rule="evenodd" d="M29.2955 17.2045C29.7348 17.6438 29.7348 18.3562 29.2955 18.7955L23.2955 24.7955C22.8562 25.2348 22.1438 25.2348 21.7045 24.7955C21.2652 24.3562 21.2652 23.6438 21.7045 23.2045L27.7045 17.2045C28.1438 16.7652 28.8562 16.7652 29.2955 17.2045Z" />
<path fill-rule="evenodd" clip-rule="evenodd" d="M21.7045 11.2045C22.1438 10.7652 22.8562 10.7652 23.2955 11.2045L29.2955 17.2045C29.7348 17.6438 29.7348 18.3562 29.2955 18.7955C28.8562 19.2348 28.1438 19.2348 27.7045 18.7955L21.7045 12.7955C21.2652 12.3562 21.2652 11.6438 21.7045 11.2045Z"  />
</svg>
