<svg width="120" height="120" viewBox="0 0 120 120" fill="none" xmlns="http://www.w3.org/2000/svg">
    <path d="M1 14.7667C1 7.16354 7.16354 1 14.7667 1H105.233C112.836 1 119 7.16354 119 14.7667V105.233C119 112.836 112.836 119 105.233 119H14.7667C7.16354 119 1 112.836 1 105.233V14.7667Z" fill="#F7F9FA"/>
    <path d="M48.5927 38.3633L59.8427 56.5167H60.1836L71.4336 38.3633H77.6552L63.9336 60.1815L77.6552 81.9997H71.4336L60.1836 64.1872H59.8427L48.5927 81.9997H42.3711L56.4336 60.1815L42.3711 38.3633H48.5927Z" fill="#ABB8CF"/>
    <path d="M14.7541 1.96721H105.246V0H14.7541V1.96721ZM118.033 14.7541V105.246H120V14.7541H118.033ZM105.246 118.033H14.7541V120H105.246V118.033ZM1.96721 105.246V14.7541H0V105.246H1.96721ZM14.7541 118.033C7.6921 118.033 1.96721 112.308 1.96721 105.246H0C0 113.394 6.60564 120 14.7541 120V118.033ZM118.033 105.246C118.033 112.308 112.308 118.033 105.246 118.033V120C113.394 120 120 113.394 120 105.246H118.033ZM105.246 1.96721C112.308 1.96721 118.033 7.6921 118.033 14.7541H120C120 6.60564 113.394 0 105.246 0V1.96721ZM14.7541 0C6.60564 0 0 6.60564 0 14.7541H1.96721C1.96721 7.6921 7.6921 1.96721 14.7541 1.96721V0Z" fill="#ABB8CF"/>
</svg>
