<svg width="120" height="120" viewBox="0 0 120 120" fill="none" xmlns="http://www.w3.org/2000/svg">
<circle cx="60" cy="60" r="59" fill="#F7F9FA" stroke="#ABB8CF" stroke-width="2"/>
<path d="M60.0003 57.6667C65.155 57.6667 69.3337 53.488 69.3337 48.3333C69.3337 43.1787 65.155 39 60.0003 39C54.8457 39 50.667 43.1787 50.667 48.3333C50.667 53.488 54.8457 57.6667 60.0003 57.6667Z" stroke="#ABB8CF" stroke-width="2" stroke-linecap="round" stroke-linejoin="round"/>
<path d="M46 81V76.3333C46 73.858 46.9833 71.484 48.7337 69.7337C50.484 67.9833 52.858 67 55.3333 67H64.6667C67.142 67 69.516 67.9833 71.2663 69.7337C73.0167 71.484 74 73.858 74 76.3333V81" stroke="#ABB8CF" stroke-width="2" stroke-linecap="round" stroke-linejoin="round"/>
</svg>
