<svg width="36" height="36" viewBox="0 0 36 36" xmlns="http://www.w3.org/2000/svg">
<path fill-rule="evenodd" clip-rule="evenodd" d="M11.25 27.8164C9.07774 27.8164 6.94374 28.3882 5.0625 29.4743C4.52443 29.785 3.83639 29.6006 3.52573 29.0626C3.21507 28.5245 3.39943 27.8364 3.9375 27.5258C6.16079 26.2422 8.68278 25.5664 11.25 25.5664C13.6031 25.5664 15.9181 26.1341 18 27.2173C20.0819 26.1341 22.3969 25.5664 24.75 25.5664C27.3172 25.5664 29.8392 26.2422 32.0625 27.5258C32.6006 27.8364 32.7849 28.5245 32.4743 29.0626C32.1636 29.6006 31.4756 29.785 30.9375 29.4743C29.0563 28.3882 26.9223 27.8164 24.75 27.8164C22.5777 27.8164 20.4437 28.3882 18.5625 29.4743C18.2144 29.6753 17.7856 29.6753 17.4375 29.4743C15.5563 28.3882 13.4223 27.8164 11.25 27.8164Z" />
<path fill-rule="evenodd" clip-rule="evenodd" d="M11.25 8.31641C9.07774 8.31641 6.94374 8.88821 5.0625 9.97434C4.52443 10.285 3.83639 10.1006 3.52573 9.56256C3.21507 9.02448 3.39943 8.33644 3.9375 8.02578C6.16079 6.74217 8.68278 6.06641 11.25 6.06641C13.6031 6.06641 15.9181 6.63413 18 7.71727C20.0819 6.63413 22.3969 6.06641 24.75 6.06641C27.3172 6.06641 29.8392 6.74217 32.0625 8.02578C32.6006 8.33644 32.7849 9.02448 32.4743 9.56256C32.1636 10.1006 31.4756 10.285 30.9375 9.97434C29.0563 8.88821 26.9223 8.31641 24.75 8.31641C22.5777 8.31641 20.4437 8.88821 18.5625 9.97434C18.2144 10.1753 17.7856 10.1753 17.4375 9.97434C15.5563 8.88821 13.4223 8.31641 11.25 8.31641Z" />
<path fill-rule="evenodd" clip-rule="evenodd" d="M4.5 7.875C5.12132 7.875 5.625 8.37868 5.625 9V28.5C5.625 29.1213 5.12132 29.625 4.5 29.625C3.87868 29.625 3.375 29.1213 3.375 28.5V9C3.375 8.37868 3.87868 7.875 4.5 7.875Z" />
<path fill-rule="evenodd" clip-rule="evenodd" d="M18 7.875C18.6213 7.875 19.125 8.37868 19.125 9V28.5C19.125 29.1213 18.6213 29.625 18 29.625C17.3787 29.625 16.875 29.1213 16.875 28.5V9C16.875 8.37868 17.3787 7.875 18 7.875Z" />
<path fill-rule="evenodd" clip-rule="evenodd" d="M31.5 7.875C32.1213 7.875 32.625 8.37868 32.625 9V28.5C32.625 29.1213 32.1213 29.625 31.5 29.625C30.8787 29.625 30.375 29.1213 30.375 28.5V9C30.375 8.37868 30.8787 7.875 31.5 7.875Z" />
</svg>
