<svg width="36" height="36" viewBox="0 0 36 36" xmlns="http://www.w3.org/2000/svg">
<path fill-rule="evenodd" clip-rule="evenodd" d="M27.7955 8.2045C28.2348 8.64384 28.2348 9.35616 27.7955 9.7955L9.7955 27.7955C9.35616 28.2348 8.64384 28.2348 8.2045 27.7955C7.76517 27.3562 7.76517 26.6438 8.2045 26.2045L26.2045 8.2045C26.6438 7.76517 27.3562 7.76517 27.7955 8.2045Z" />
<path fill-rule="evenodd" clip-rule="evenodd" d="M8.2045 8.2045C8.64384 7.76517 9.35616 7.76517 9.7955 8.2045L27.7955 26.2045C28.2348 26.6438 28.2348 27.3562 27.7955 27.7955C27.3562 28.2348 26.6438 28.2348 26.2045 27.7955L8.2045 9.7955C7.76517 9.35616 7.76517 8.64384 8.2045 8.2045Z" />
</svg>
