<svg width="36" height="36" viewBox="0 0 36 36" fill="none" xmlns="http://www.w3.org/2000/svg">
<path d="M28.5 27C29.8924 27 31.2277 26.4469 32.2123 25.4623C33.1969 24.4777 33.75 23.1424 33.75 21.75C33.75 20.3576 33.1969 19.0223 32.2123 18.0377C31.2277 17.0531 29.8924 16.5 28.5 16.5H27C27.2189 15.5249 27.2222 14.5206 27.0098 13.5444C26.7974 12.5682 26.3734 11.6392 25.7621 10.8104C25.1508 9.98163 24.3641 9.26935 23.4469 8.71422C22.5297 8.15909 21.5001 7.77199 20.4167 7.575C19.3332 7.37802 18.2173 7.37502 17.1326 7.56617C16.048 7.75732 15.0157 8.13889 14.0949 8.68907C12.2351 9.80023 10.942 11.5308 10.5 13.5C8.90091 13.436 7.32829 13.9056 6.05139 14.8286C4.77449 15.7515 3.87272 17.0703 3.50049 18.5592C3.12827 20.0481 3.30873 21.6145 4.01098 22.9902C4.71324 24.3658 5.89361 25.4652 7.34998 26.1" stroke="#778194" stroke-width="2.25" stroke-linecap="round" stroke-linejoin="round"/>
<path d="M18 19.5V33" stroke="#778194" stroke-width="2.25" stroke-linecap="round" stroke-linejoin="round"/>
<path d="M13.5 28.5L18 33L22.5 28.5" stroke="#778194" stroke-width="2.25" stroke-linecap="round" stroke-linejoin="round"/>
</svg>
