<svg width="36" height="36" viewBox="0 0 36 36" xmlns="http://www.w3.org/2000/svg">
<path fill-rule="evenodd" clip-rule="evenodd" d="M16.9374 6.45805C18.1533 6.24378 19.4034 6.24713 20.6179 6.46795C21.8324 6.68877 22.9919 7.12356 24.0295 7.75158C25.0672 8.37969 25.9653 9.1904 26.6675 10.1424C27.37 11.0947 27.8619 12.169 28.1091 13.305C28.2576 13.9878 28.3155 14.6827 28.2828 15.3748H28.5C30.1908 15.3748 31.8123 16.0465 33.0078 17.242C34.2034 18.4375 34.875 20.0591 34.875 21.7498C34.875 23.4406 34.2034 25.0621 33.0078 26.2576C31.8123 27.4532 30.1908 28.1248 28.5 28.1248C27.8787 28.1248 27.375 27.6211 27.375 26.9998C27.375 26.3785 27.8787 25.8748 28.5 25.8748C29.594 25.8748 30.6432 25.4402 31.4168 24.6666C32.1904 23.893 32.625 22.8438 32.625 21.7498C32.625 20.6558 32.1904 19.6066 31.4168 18.833C30.6432 18.0594 29.594 17.6248 28.5 17.6248H27C26.6583 17.6248 26.3352 17.4695 26.1217 17.2028C25.9082 16.9361 25.8275 16.5868 25.9023 16.2534C26.0853 15.4381 26.0881 14.5995 25.9105 13.7834C25.7329 12.9669 25.377 12.1832 24.8568 11.478C24.3364 10.7725 23.661 10.1586 22.8644 9.67646C22.0677 9.19423 21.1677 8.8548 20.2154 8.68166C19.2631 8.50851 18.2814 8.50586 17.3279 8.6739C16.3744 8.84194 15.472 9.17656 14.6719 9.65463C13.0553 10.6205 11.9668 12.1018 11.5977 13.7462C11.4787 14.2763 10.9978 14.6456 10.455 14.6239C9.10344 14.5698 7.7796 14.9673 6.71043 15.7401C5.64222 16.5122 4.89798 17.6076 4.59192 18.8319C4.28607 20.0553 4.43344 21.3432 5.01299 22.4785C5.59318 23.615 6.5745 24.5345 7.79953 25.0685C8.36909 25.3168 8.62955 25.9798 8.38128 26.5493C8.13301 27.1189 7.47003 27.3794 6.90047 27.1311C5.21275 26.3954 3.83333 25.1162 3.00901 23.5015C2.18405 21.8855 1.97049 20.0406 2.4091 18.2862C2.84749 16.5326 3.90679 14.9904 5.39238 13.9166C6.63568 13.0179 8.11514 12.4919 9.64781 12.3881C10.3109 10.464 11.6844 8.8186 13.5179 7.72312C14.5594 7.10082 15.7215 6.67232 16.9374 6.45805Z" />
<path fill-rule="evenodd" clip-rule="evenodd" d="M18 18.375C18.6213 18.375 19.125 18.8787 19.125 19.5V33C19.125 33.6213 18.6213 34.125 18 34.125C17.3787 34.125 16.875 33.6213 16.875 33V19.5C16.875 18.8787 17.3787 18.375 18 18.375Z" />
<path fill-rule="evenodd" clip-rule="evenodd" d="M12.7045 27.7045C13.1438 27.2652 13.8562 27.2652 14.2955 27.7045L18 31.409L21.7045 27.7045C22.1438 27.2652 22.8562 27.2652 23.2955 27.7045C23.7348 28.1438 23.7348 28.8562 23.2955 29.2955L18.7955 33.7955C18.3562 34.2348 17.6438 34.2348 17.2045 33.7955L12.7045 29.2955C12.2652 28.8562 12.2652 28.1438 12.7045 27.7045Z" />
</svg>
