<svg width="36" height="36" viewBox="0 0 36 36" xmlns="http://www.w3.org/2000/svg">
<path fill-rule="evenodd" clip-rule="evenodd" d="M20.9545 7.45496C21.9611 6.44833 23.3264 5.88281 24.75 5.88281C26.1736 5.88281 27.5389 6.44833 28.5455 7.45496C29.5521 8.46159 30.1176 9.82687 30.1176 11.2505C30.1176 12.674 29.5521 14.0393 28.5455 15.0459L12.7955 30.7959C12.5845 31.0069 12.2984 31.1255 12 31.1255H6C5.37868 31.1255 4.875 30.6218 4.875 30.0005V24.0005C4.875 23.7021 4.99353 23.4159 5.2045 23.205L20.9545 7.45496ZM24.75 8.13281C23.9232 8.13281 23.1302 8.46128 22.5455 9.04595L7.125 24.4664V28.8755H11.534L26.9545 13.455C27.5392 12.8703 27.8676 12.0773 27.8676 11.2505C27.8676 10.4236 27.5392 9.63062 26.9545 9.04595C26.3698 8.46128 25.5768 8.13281 24.75 8.13281Z" />
<path fill-rule="evenodd" clip-rule="evenodd" d="M19.4545 8.9545C19.8938 8.51517 20.6062 8.51517 21.0455 8.9545L27.0455 14.9545C27.4848 15.3938 27.4848 16.1062 27.0455 16.5455C26.6062 16.9848 25.8938 16.9848 25.4545 16.5455L19.4545 10.5455C19.0152 10.1062 19.0152 9.39384 19.4545 8.9545Z" />
</svg>
