<svg width="36" height="36" viewBox="0 0 36 36" xmlns="http://www.w3.org/2000/svg">
<path fill-rule="evenodd" clip-rule="evenodd" d="M3.7045 3.7045C4.14384 3.26517 4.85616 3.26517 5.2955 3.7045L32.2955 30.7045C32.7348 31.1438 32.7348 31.8562 32.2955 32.2955C31.8562 32.7348 31.1438 32.7348 30.7045 32.2955L3.7045 5.2955C3.26517 4.85616 3.26517 4.14384 3.7045 3.7045Z" />
<path fill-rule="evenodd" clip-rule="evenodd" d="M16.6718 15.0856C17.111 15.5251 17.1107 16.2375 16.6712 16.6766C16.3194 17.0283 16.1216 17.5053 16.1214 18.0027C16.1212 18.5001 16.3187 18.9773 16.6703 19.3291C17.0219 19.681 17.4989 19.8788 17.9963 19.879C18.4938 19.8791 18.9709 19.6817 19.3228 19.3301C19.7623 18.8909 20.4746 18.8912 20.9138 19.3306C21.353 19.7701 21.3527 20.4825 20.9132 20.9216C20.1392 21.6951 19.0897 22.1294 17.9955 22.129C16.9014 22.1286 15.8522 21.6935 15.0787 20.9196C14.3053 20.1456 13.871 19.0961 13.8714 18.0019C13.8718 16.9077 14.3068 15.8585 15.0808 15.0851C15.5203 14.6459 16.2326 14.6462 16.6718 15.0856Z" />
<path fill-rule="evenodd" clip-rule="evenodd" d="M16.3169 8.72736L29.1906 21.5871C30.0594 20.5403 30.8954 19.3457 31.6975 18C27.8833 11.5985 23.308 8.62509 18 8.62509L17.996 8.62508C17.434 8.62309 16.8731 8.65734 16.3169 8.72736ZM18.002 6.37509C16.559 6.37016 15.1225 6.56909 13.7351 6.96597C13.3518 7.07562 13.0552 7.37991 12.9553 7.76586C12.8555 8.15182 12.9674 8.56178 13.2494 8.84352L28.4504 24.028C28.6669 24.2442 28.9621 24.363 29.2679 24.3569C29.5738 24.3508 29.864 24.2204 30.0717 23.9957C31.476 22.4762 32.7755 20.6597 33.9767 18.5584C34.1744 18.2125 34.1744 17.7878 33.9768 17.4419C29.8547 10.2287 24.5411 6.37587 18.002 6.37509ZM10.879 9.35707C11.2278 9.87126 11.0937 10.5708 10.5795 10.9196C8.31137 12.4581 6.21146 14.7978 4.3025 18.0002C8.11667 24.4016 12.692 27.3751 18 27.3751C20.685 27.3751 23.1426 26.6177 25.4065 25.0909C25.9216 24.7435 26.6208 24.8794 26.9682 25.3945C27.3156 25.9097 27.1797 26.6089 26.6645 26.9563C24.0354 28.7295 21.141 29.6251 18 29.6251C11.46 29.6251 6.14573 25.7722 2.02324 18.5583C1.82556 18.2124 1.82559 17.7877 2.0233 17.4418C4.13529 13.747 6.55741 10.929 9.31648 9.05756C9.83068 8.70878 10.5302 8.84288 10.879 9.35707Z" />
</svg>
