<svg width="36" height="36" viewBox="0 0 36 36" fill="none" xmlns="http://www.w3.org/2000/svg">
<path d="M4.5 4.5L31.5 31.5" stroke="#778194" stroke-width="2.25" stroke-linecap="round" stroke-linejoin="round"/>
<path d="M15.8759 15.8805C15.313 16.443 14.9966 17.2061 14.9963 18.0019C14.9961 18.7977 15.3119 19.5611 15.8744 20.124C16.437 20.6869 17.2001 21.0033 17.9959 21.0036C18.7917 21.0039 19.555 20.688 20.1179 20.1255" stroke="#778194" stroke-width="2.25" stroke-linecap="round" stroke-linejoin="round"/>
<path d="M26.0355 26.0235C23.589 27.6735 20.913 28.5 18 28.5C12 28.5 7.0005 25.0005 3 18C5.0535 14.4075 7.3695 11.7375 9.948 9.9885M14.0445 8.0475C15.3306 7.67958 16.6623 7.49526 18 7.5C24 7.5 28.9995 10.9995 33 18C31.833 20.0415 30.582 21.786 29.2455 23.232L14.0445 8.0475Z" stroke="#778194" stroke-width="2.25" stroke-linecap="round" stroke-linejoin="round"/>
</svg>
