<svg width="36" height="36" viewBox="0 0 36 36" xmlns="http://www.w3.org/2000/svg">
<path fill-rule="evenodd" clip-rule="evenodd" d="M18 16.125C16.9645 16.125 16.125 16.9645 16.125 18C16.125 19.0355 16.9645 19.875 18 19.875C19.0355 19.875 19.875 19.0355 19.875 18C19.875 16.9645 19.0355 16.125 18 16.125ZM13.875 18C13.875 15.7218 15.7218 13.875 18 13.875C20.2782 13.875 22.125 15.7218 22.125 18C22.125 20.2782 20.2782 22.125 18 22.125C15.7218 22.125 13.875 20.2782 13.875 18Z" />
<path fill-rule="evenodd" clip-rule="evenodd" d="M4.30244 18C8.11662 24.4015 12.692 27.375 18 27.375C23.308 27.375 27.8834 24.4015 31.6976 18C27.8834 11.5985 23.308 8.625 18 8.625C12.692 8.625 8.11662 11.5985 4.30244 18ZM2.02324 17.4418C6.14573 10.2279 11.46 6.375 18 6.375C24.54 6.375 29.8543 10.2279 33.9768 17.4418C34.1744 17.7877 34.1744 18.2123 33.9768 18.5582C29.8543 25.7721 24.54 29.625 18 29.625C11.46 29.625 6.14573 25.7721 2.02324 18.5582C1.82559 18.2123 1.82559 17.7877 2.02324 17.4418Z" />
</svg>
