<svg width="36" height="36" viewBox="0 0 36 36" xmlns="http://www.w3.org/2000/svg">
<path fill-rule="evenodd" clip-rule="evenodd" d="M21 3.375C21.6213 3.375 22.125 3.87868 22.125 4.5V10.5C22.125 10.5995 22.1645 10.6948 22.2348 10.7652C22.3052 10.8355 22.4005 10.875 22.5 10.875H28.5C29.1213 10.875 29.625 11.3787 29.625 12C29.625 12.6213 29.1213 13.125 28.5 13.125H22.5C21.8038 13.125 21.1361 12.8484 20.6438 12.3562C20.1516 11.8639 19.875 11.1962 19.875 10.5V4.5C19.875 3.87868 20.3787 3.375 21 3.375Z" />
<path fill-rule="evenodd" clip-rule="evenodd" d="M10.5 5.625C10.0027 5.625 9.52581 5.82254 9.17417 6.17417C8.82254 6.52581 8.625 7.00272 8.625 7.5V28.5C8.625 28.9973 8.82254 29.4742 9.17417 29.8258C9.52581 30.1775 10.0027 30.375 10.5 30.375H25.5C25.9973 30.375 26.4742 30.1775 26.8258 29.8258C27.1775 29.4742 27.375 28.9973 27.375 28.5V12.466L20.534 5.625H10.5ZM7.58318 4.58318C8.35677 3.8096 9.40598 3.375 10.5 3.375H21C21.2984 3.375 21.5845 3.49353 21.7955 3.7045L29.2955 11.2045C29.5065 11.4155 29.625 11.7016 29.625 12V28.5C29.625 29.594 29.1904 30.6432 28.4168 31.4168C27.6432 32.1904 26.594 32.625 25.5 32.625H10.5C9.40598 32.625 8.35677 32.1904 7.58318 31.4168C6.8096 30.6432 6.375 29.594 6.375 28.5V7.5C6.375 6.40598 6.8096 5.35677 7.58318 4.58318Z" />
</svg>
