<svg width="36" height="36" viewBox="0 0 36 36" fill="none" xmlns="http://www.w3.org/2000/svg">
<path d="M21 12V9C21 8.20435 20.6839 7.44129 20.1213 6.87868C19.5587 6.31607 18.7956 6 18 6H7.5C6.70435 6 5.94129 6.31607 5.37868 6.87868C4.81607 7.44129 4.5 8.20435 4.5 9V27C4.5 27.7956 4.81607 28.5587 5.37868 29.1213C5.94129 29.6839 6.70435 30 7.5 30H18C18.7956 30 19.5587 29.6839 20.1213 29.1213C20.6839 28.5587 21 27.7956 21 27V24" stroke="#778194" stroke-width="2.25" stroke-linecap="round" stroke-linejoin="round"/>
<path d="M30 18H10.5M10.5 18L15 13.5M10.5 18L15 22.5" stroke="#778194" stroke-width="2.25" stroke-linecap="round" stroke-linejoin="round"/>
</svg>
