<svg width="36" height="36" viewBox="0 0 36 36" xmlns="http://www.w3.org/2000/svg">
<path fill-rule="evenodd" clip-rule="evenodd" d="M4.58318 6.08318C5.35677 5.3096 6.40598 4.875 7.5 4.875H18C19.094 4.875 20.1432 5.3096 20.9168 6.08318C21.6904 6.85677 22.125 7.90598 22.125 9V12C22.125 12.6213 21.6213 13.125 21 13.125C20.3787 13.125 19.875 12.6213 19.875 12V9C19.875 8.50272 19.6775 8.02581 19.3258 7.67417C18.9742 7.32254 18.4973 7.125 18 7.125H7.5C7.00272 7.125 6.52581 7.32254 6.17417 7.67417C5.82254 8.02581 5.625 8.50272 5.625 9V27C5.625 27.4973 5.82254 27.9742 6.17417 28.3258C6.52581 28.6775 7.00272 28.875 7.5 28.875H18C18.4973 28.875 18.9742 28.6775 19.3258 28.3258C19.6775 27.9742 19.875 27.4973 19.875 27V24C19.875 23.3787 20.3787 22.875 21 22.875C21.6213 22.875 22.125 23.3787 22.125 24V27C22.125 28.094 21.6904 29.1432 20.9168 29.9168C20.1432 30.6904 19.094 31.125 18 31.125H7.5C6.40598 31.125 5.35677 30.6904 4.58318 29.9168C3.8096 29.1432 3.375 28.094 3.375 27V9C3.375 7.90598 3.8096 6.85677 4.58318 6.08318Z" />
<path fill-rule="evenodd" clip-rule="evenodd" d="M15.7955 12.7045C16.2348 13.1438 16.2348 13.8562 15.7955 14.2955L13.216 16.875H30C30.6213 16.875 31.125 17.3787 31.125 18C31.125 18.6213 30.6213 19.125 30 19.125H13.216L15.7955 21.7045C16.2348 22.1438 16.2348 22.8562 15.7955 23.2955C15.3562 23.7348 14.6438 23.7348 14.2045 23.2955L9.7045 18.7955C9.26517 18.3562 9.26517 17.6438 9.7045 17.2045L14.2045 12.7045C14.6438 12.2652 15.3562 12.2652 15.7955 12.7045Z" />
</svg>
