<svg width="36" height="36" viewBox="0 0 36 36" xmlns="http://www.w3.org/2000/svg">
<path fill-rule="evenodd" clip-rule="evenodd" d="M4.58318 6.08318C5.35677 5.3096 6.40598 4.875 7.5 4.875H18C19.094 4.875 20.1432 5.3096 20.9168 6.08318C21.6904 6.85677 22.125 7.90598 22.125 9V12C22.125 12.6213 21.6213 13.125 21 13.125C20.3787 13.125 19.875 12.6213 19.875 12V9C19.875 8.50272 19.6775 8.02581 19.3258 7.67417C18.9742 7.32254 18.4973 7.125 18 7.125H7.5C7.00272 7.125 6.52581 7.32254 6.17417 7.67417C5.82254 8.02581 5.625 8.50272 5.625 9V27C5.625 27.4973 5.82254 27.9742 6.17417 28.3258C6.52581 28.6775 7.00272 28.875 7.5 28.875H18C18.4973 28.875 18.9742 28.6775 19.3258 28.3258C19.6775 27.9742 19.875 27.4973 19.875 27V24C19.875 23.3787 20.3787 22.875 21 22.875C21.6213 22.875 22.125 23.3787 22.125 24V27C22.125 28.094 21.6904 29.1432 20.9168 29.9168C20.1432 30.6904 19.094 31.125 18 31.125H7.5C6.40598 31.125 5.35677 30.6904 4.58318 29.9168C3.8096 29.1432 3.375 28.094 3.375 27V9C3.375 7.90598 3.8096 6.85677 4.58318 6.08318Z" />
<path fill-rule="evenodd" clip-rule="evenodd" d="M26.2045 12.7045C26.6438 12.2652 27.3562 12.2652 27.7955 12.7045L32.2955 17.2045C32.7348 17.6438 32.7348 18.3562 32.2955 18.7955L27.7955 23.2955C27.3562 23.7348 26.6438 23.7348 26.2045 23.2955C25.7652 22.8562 25.7652 22.1438 26.2045 21.7045L28.784 19.125H10.5C9.87868 19.125 9.375 18.6213 9.375 18C9.375 17.3787 9.87868 16.875 10.5 16.875H28.784L26.2045 14.2955C25.7652 13.8562 25.7652 13.1438 26.2045 12.7045Z" />
</svg>
