<svg width="36" height="36" viewBox="0 0 36 36" xmlns="http://www.w3.org/2000/svg">
<path fill-rule="evenodd" clip-rule="evenodd" d="M7.5 8.625C6.46447 8.625 5.625 9.46447 5.625 10.5V25.5C5.625 26.5355 6.46447 27.375 7.5 27.375H28.5C29.5355 27.375 30.375 26.5355 30.375 25.5V10.5C30.375 9.46447 29.5355 8.625 28.5 8.625H7.5ZM3.375 10.5C3.375 8.22183 5.22183 6.375 7.5 6.375H28.5C30.7782 6.375 32.625 8.22183 32.625 10.5V25.5C32.625 27.7782 30.7782 29.625 28.5 29.625H7.5C5.22183 29.625 3.375 27.7782 3.375 25.5V10.5Z" />
<path fill-rule="evenodd" clip-rule="evenodd" d="M3.56394 9.87608C3.90859 9.35911 4.60707 9.21942 5.12404 9.56406L18 18.148L30.876 9.56406C31.3929 9.21942 32.0914 9.35911 32.4361 9.87608C32.7807 10.3931 32.641 11.0915 32.124 11.4362L18.624 20.4362C18.2461 20.6881 17.7538 20.6881 17.376 20.4362L3.87596 11.4362C3.35899 11.0915 3.21929 10.3931 3.56394 9.87608Z" />
</svg>
