<svg width="36" height="36" viewBox="0 0 36 36" xmlns="http://www.w3.org/2000/svg">
<path fill-rule="evenodd" clip-rule="evenodd" d="M4.875 9C4.875 8.37868 5.37868 7.875 6 7.875H30C30.6213 7.875 31.125 8.37868 31.125 9C31.125 9.62132 30.6213 10.125 30 10.125H6C5.37868 10.125 4.875 9.62132 4.875 9Z" />
<path fill-rule="evenodd" clip-rule="evenodd" d="M4.875 18C4.875 17.3787 5.37868 16.875 6 16.875H30C30.6213 16.875 31.125 17.3787 31.125 18C31.125 18.6213 30.6213 19.125 30 19.125H6C5.37868 19.125 4.875 18.6213 4.875 18Z" />
<path fill-rule="evenodd" clip-rule="evenodd" d="M4.875 27C4.875 26.3787 5.37868 25.875 6 25.875H30C30.6213 25.875 31.125 26.3787 31.125 27C31.125 27.6213 30.6213 28.125 30 28.125H6C5.37868 28.125 4.875 27.6213 4.875 27Z" />
</svg>
