<svg width="36" height="36" viewBox="0 0 36 36" fill="none" xmlns="http://www.w3.org/2000/svg">
<path d="M4.5 30L6.45 24.15C4.76467 21.6574 4.15499 18.7056 4.73433 15.8435C5.31367 12.9813 7.04259 10.4035 9.59965 8.58941C12.1567 6.77531 15.3679 5.84835 18.6361 5.98086C21.9044 6.11337 25.0073 7.29635 27.3679 9.30984C29.7286 11.3233 31.1863 14.0303 31.4701 16.9275C31.7539 19.8246 30.8444 22.7148 28.9108 25.0607C26.9772 27.4065 24.151 29.0484 20.9577 29.681C17.7644 30.3136 14.4213 29.894 11.55 28.5L4.5 30" stroke="#778194" stroke-width="2.25" stroke-linecap="round" stroke-linejoin="round"/>
<path d="M18 18V18.015" stroke="#778194" stroke-width="2.25" stroke-linecap="round" stroke-linejoin="round"/>
<path d="M12 18V18.015" stroke="#778194" stroke-width="2.25" stroke-linecap="round" stroke-linejoin="round"/>
<path d="M24 18V18.015" stroke="#778194" stroke-width="2.25" stroke-linecap="round" stroke-linejoin="round"/>
</svg>
