<svg width="36" height="36" viewBox="0 0 36 36" xmlns="http://www.w3.org/2000/svg">
<path fill-rule="evenodd" clip-rule="evenodd" d="M18.5906 7.10529C15.5594 6.98239 12.5955 7.84375 10.2506 9.50731C7.90811 11.1692 6.35511 13.5071 5.83697 16.067C5.31952 18.6234 5.85993 21.2692 7.38196 23.5202C7.57786 23.81 7.62787 24.1743 7.51727 24.5061L6.18904 28.4908L11.3159 27.4C11.5608 27.3479 11.8161 27.379 12.0413 27.4883C14.6876 28.773 17.7809 29.1639 20.7391 28.5778C23.697 27.9918 26.2864 26.4762 28.0427 24.3455C29.7955 22.219 30.6037 19.6227 30.3505 17.0375C30.097 14.4505 28.793 12.0044 26.6379 10.1661C24.4798 8.32543 21.6217 7.22819 18.5906 7.10529ZM4.43695 31.1239C4.54426 31.13 4.65049 31.1204 4.75274 31.0968L11.4143 29.6794C14.4282 31.0481 17.8783 31.4383 21.1763 30.7849C24.605 30.1057 27.6679 28.3376 29.7789 25.7766C31.8933 23.2114 32.9041 20.0273 32.5897 16.8182C32.2756 13.6108 30.6641 10.643 28.098 8.45426C25.5348 6.26799 22.187 4.99927 18.6817 4.85714C15.1764 4.71502 11.7179 5.70759 8.9487 7.67222C6.17707 9.63855 4.27222 12.4561 3.63169 15.6206C3.02716 18.6073 3.59603 21.6739 5.21222 24.3061L3.43875 29.6265C3.40379 29.7255 3.38244 29.83 3.37649 29.9373C3.36865 30.0754 3.38666 30.2117 3.4274 30.34C3.47651 30.4957 3.55733 30.6343 3.66104 30.7502C3.76454 30.8662 3.89327 30.962 4.04251 31.0282C4.16546 31.0831 4.29888 31.1162 4.43695 31.1239Z" />
<path fill-rule="evenodd" clip-rule="evenodd" d="M18 16.875C18.6213 16.875 19.125 17.3787 19.125 18V18.015C19.125 18.6363 18.6213 19.14 18 19.14C17.3787 19.14 16.875 18.6363 16.875 18.015V18C16.875 17.3787 17.3787 16.875 18 16.875Z" />
<path fill-rule="evenodd" clip-rule="evenodd" d="M12 16.875C12.6213 16.875 13.125 17.3787 13.125 18V18.015C13.125 18.6363 12.6213 19.14 12 19.14C11.3787 19.14 10.875 18.6363 10.875 18.015V18C10.875 17.3787 11.3787 16.875 12 16.875Z" />
<path fill-rule="evenodd" clip-rule="evenodd" d="M24 16.875C24.6213 16.875 25.125 17.3787 25.125 18V18.015C25.125 18.6363 24.6213 19.14 24 19.14C23.3787 19.14 22.875 18.6363 22.875 18.015V18C22.875 17.3787 23.3787 16.875 24 16.875Z" />
</svg>
