<svg width="36" height="36" viewBox="0 0 36 36" xmlns="http://www.w3.org/2000/svg">
<path fill-rule="evenodd" clip-rule="evenodd" d="M18 17.625C17.7929 17.625 17.625 17.7929 17.625 18C17.625 18.2071 17.7929 18.375 18 18.375C18.2071 18.375 18.375 18.2071 18.375 18C18.375 17.7929 18.2071 17.625 18 17.625ZM15.375 18C15.375 16.5503 16.5503 15.375 18 15.375C19.4497 15.375 20.625 16.5503 20.625 18C20.625 19.4497 19.4497 20.625 18 20.625C16.5503 20.625 15.375 19.4497 15.375 18Z" />
<path fill-rule="evenodd" clip-rule="evenodd" d="M18 28.125C17.7929 28.125 17.625 28.2929 17.625 28.5C17.625 28.7071 17.7929 28.875 18 28.875C18.2071 28.875 18.375 28.7071 18.375 28.5C18.375 28.2929 18.2071 28.125 18 28.125ZM15.375 28.5C15.375 27.0503 16.5503 25.875 18 25.875C19.4497 25.875 20.625 27.0503 20.625 28.5C20.625 29.9497 19.4497 31.125 18 31.125C16.5503 31.125 15.375 29.9497 15.375 28.5Z" />
<path fill-rule="evenodd" clip-rule="evenodd" d="M18 7.125C17.7929 7.125 17.625 7.29289 17.625 7.5C17.625 7.70711 17.7929 7.875 18 7.875C18.2071 7.875 18.375 7.70711 18.375 7.5C18.375 7.29289 18.2071 7.125 18 7.125ZM15.375 7.5C15.375 6.05025 16.5503 4.875 18 4.875C19.4497 4.875 20.625 6.05025 20.625 7.5C20.625 8.94975 19.4497 10.125 18 10.125C16.5503 10.125 15.375 8.94975 15.375 7.5Z" />
</svg>
