<svg width="36" height="36" viewBox="0 0 36 36" xmlns="http://www.w3.org/2000/svg">
<path fill-rule="evenodd" clip-rule="evenodd" d="M7.5 17.625C7.29289 17.625 7.125 17.7929 7.125 18C7.125 18.2071 7.29289 18.375 7.5 18.375C7.70711 18.375 7.875 18.2071 7.875 18C7.875 17.7929 7.70711 17.625 7.5 17.625ZM4.875 18C4.875 16.5503 6.05025 15.375 7.5 15.375C8.94975 15.375 10.125 16.5503 10.125 18C10.125 19.4497 8.94975 20.625 7.5 20.625C6.05025 20.625 4.875 19.4497 4.875 18Z" />
<path fill-rule="evenodd" clip-rule="evenodd" d="M18 17.625C17.7929 17.625 17.625 17.7929 17.625 18C17.625 18.2071 17.7929 18.375 18 18.375C18.2071 18.375 18.375 18.2071 18.375 18C18.375 17.7929 18.2071 17.625 18 17.625ZM15.375 18C15.375 16.5503 16.5503 15.375 18 15.375C19.4497 15.375 20.625 16.5503 20.625 18C20.625 19.4497 19.4497 20.625 18 20.625C16.5503 20.625 15.375 19.4497 15.375 18Z" />
<path fill-rule="evenodd" clip-rule="evenodd" d="M28.5 17.625C28.2929 17.625 28.125 17.7929 28.125 18C28.125 18.2071 28.2929 18.375 28.5 18.375C28.7071 18.375 28.875 18.2071 28.875 18C28.875 17.7929 28.7071 17.625 28.5 17.625ZM25.875 18C25.875 16.5503 27.0503 15.375 28.5 15.375C29.9497 15.375 31.125 16.5503 31.125 18C31.125 19.4497 29.9497 20.625 28.5 20.625C27.0503 20.625 25.875 19.4497 25.875 18Z" />
</svg>
