<svg width="36" height="36" viewBox="0 0 36 36" fill="none" xmlns="http://www.w3.org/2000/svg">
<path d="M30 16.5C29.6332 13.8603 28.4086 11.4145 26.515 9.53925C24.6213 7.664 22.1636 6.46338 19.5205 6.12233C16.8774 5.78128 14.1954 6.31872 11.8878 7.65187C9.58017 8.98502 7.77487 11.0399 6.75 13.5M6 7.5V13.5H12" stroke="#778194" stroke-width="2.25" stroke-linecap="round" stroke-linejoin="round"/>
<path d="M6 19.5C6.36684 22.1397 7.5914 24.5855 9.48504 26.4608C11.3787 28.336 13.8364 29.5366 16.4795 29.8777C19.1226 30.2187 21.8046 29.6813 24.1122 28.3481C26.4198 27.015 28.2251 24.9601 29.25 22.5M30 28.5V22.5H24" stroke="#778194" stroke-width="2.25" stroke-linecap="round" stroke-linejoin="round"/>
</svg>
