<svg width="36" height="36" viewBox="0 0 36 36" xmlns="http://www.w3.org/2000/svg">
<path fill-rule="evenodd" clip-rule="evenodd" d="M11.325 6.67779C13.8463 5.22121 16.7766 4.634 19.6645 5.00663C22.5523 5.37926 25.2376 6.69104 27.3066 8.73992C29.3755 10.7888 30.7135 13.4611 31.1143 16.3452C31.1998 16.9606 30.7703 17.5288 30.1549 17.6143C29.5394 17.6999 28.9712 17.2703 28.8857 16.6549C28.5528 14.2596 27.4417 12.0403 25.7234 10.3387C24.005 8.63705 21.7749 7.5476 19.3765 7.23813C16.9781 6.92866 14.5445 7.41634 12.4506 8.62604C10.8653 9.54188 9.54125 10.8331 8.58798 12.375H12C12.6213 12.375 13.125 12.8787 13.125 13.5C13.125 14.1214 12.6213 14.625 12 14.625H6.77516C6.75812 14.6254 6.74104 14.6254 6.72393 14.625H6C5.37868 14.625 4.875 14.1214 4.875 13.5V7.50005C4.875 6.87873 5.37868 6.37505 6 6.37505C6.62132 6.37505 7.125 6.87873 7.125 7.50005V10.5105C8.22523 8.95386 9.65469 7.64277 11.325 6.67779Z" />
<path fill-rule="evenodd" clip-rule="evenodd" d="M5.84513 18.3858C6.46054 18.3003 7.02875 18.7299 7.11428 19.3453C7.44715 21.7405 8.55832 23.9599 10.2766 25.6615C11.9949 27.3631 14.2251 28.4526 16.6234 28.7621C19.0218 29.0715 21.4555 28.5838 23.5494 27.3741C25.1347 26.4583 26.4587 25.1671 27.412 23.6251H24C23.3787 23.6251 22.875 23.1215 22.875 22.5001C22.875 21.8788 23.3787 21.3751 24 21.3751H29.2248C29.2419 21.3747 29.2589 21.3747 29.2761 21.3751H30C30.6213 21.3751 31.125 21.8788 31.125 22.5001V28.5001C31.125 29.1215 30.6213 29.6251 30 29.6251C29.3787 29.6251 28.875 29.1215 28.875 28.5001V25.4897C27.7748 27.0463 26.3453 28.3574 24.6749 29.3224C22.1536 30.779 19.2234 31.3662 16.3355 30.9936C13.4476 30.6209 10.7624 29.3091 8.69343 27.2603C6.62444 25.2114 5.2865 22.5391 4.88569 19.655C4.80017 19.0396 5.22972 18.4714 5.84513 18.3858Z" />
</svg>
