<svg width="36" height="36" viewBox="0 0 36 36" xmlns="http://www.w3.org/2000/svg">
<path fill-rule="evenodd" clip-rule="evenodd" d="M15 5.625C9.82233 5.625 5.625 9.82233 5.625 15C5.625 20.1777 9.82233 24.375 15 24.375C20.1777 24.375 24.375 20.1777 24.375 15C24.375 9.82233 20.1777 5.625 15 5.625ZM3.375 15C3.375 8.57969 8.57969 3.375 15 3.375C21.4203 3.375 26.625 8.57969 26.625 15C26.625 21.4203 21.4203 26.625 15 26.625C8.57969 26.625 3.375 21.4203 3.375 15Z" />
<path fill-rule="evenodd" clip-rule="evenodd" d="M21.7045 21.7045C22.1438 21.2652 22.8562 21.2652 23.2955 21.7045L32.2955 30.7045C32.7348 31.1438 32.7348 31.8562 32.2955 32.2955C31.8562 32.7348 31.1438 32.7348 30.7045 32.2955L21.7045 23.2955C21.2652 22.8562 21.2652 22.1438 21.7045 21.7045Z" />
</svg>
