<svg width="36" height="36" viewBox="0 0 36 36" xmlns="http://www.w3.org/2000/svg">
<path fill-rule="evenodd" clip-rule="evenodd" d="M18.7562 3.6669C18.673 3.59126 18.5809 3.53014 18.4832 3.48376C18.3303 3.41093 18.1649 3.37494 18 3.375C17.8351 3.37494 17.6698 3.41093 17.5168 3.48376C17.4191 3.53015 17.327 3.59126 17.2439 3.6669C13.9605 6.56684 9.67789 8.07646 5.30143 7.87619C4.78373 7.8525 4.31683 8.18553 4.17067 8.68273C3.44776 11.1419 3.22656 13.7213 3.52022 16.2677C3.81389 18.814 4.61641 21.2754 5.88012 23.5054C7.14383 25.7355 8.84293 27.6888 10.8764 29.2492C12.91 30.8097 15.2364 31.9454 17.7175 32.589C17.9028 32.637 18.0972 32.637 18.2825 32.589C20.7636 31.9454 23.09 30.8097 25.1236 29.2492C27.1571 27.6888 28.8562 25.7355 30.1199 23.5054C31.3836 21.2754 32.1861 18.814 32.4798 16.2677C32.7734 13.7213 32.5522 11.1419 31.8293 8.68273C31.6832 8.18553 31.2163 7.8525 30.6986 7.87619C26.3221 8.07646 22.0395 6.56684 18.7562 3.6669ZM18 5.96904C14.6228 8.66354 10.4306 10.1358 6.10896 10.1438C5.64944 12.0613 5.529 14.0467 5.75541 16.0099C6.01452 18.2567 6.72264 20.4285 7.83767 22.3962C8.95271 24.3639 10.4519 26.0874 12.2462 27.4642C13.9631 28.7817 15.9167 29.7561 18 30.3352C20.0833 29.7561 22.0369 28.7817 23.7538 27.4642C25.5481 26.0874 27.0473 24.3639 28.1623 22.3962C29.2774 20.4285 29.9855 18.2567 30.2446 16.0099C30.471 14.0467 30.3506 12.0613 29.891 10.1438C25.5694 10.1358 21.3772 8.66354 18 5.96904Z" />
<path fill-rule="evenodd" clip-rule="evenodd" d="M18 16.125C17.7929 16.125 17.625 16.2929 17.625 16.5C17.625 16.7071 17.7929 16.875 18 16.875C18.2071 16.875 18.375 16.7071 18.375 16.5C18.375 16.2929 18.2071 16.125 18 16.125ZM15.375 16.5C15.375 15.0503 16.5503 13.875 18 13.875C19.4497 13.875 20.625 15.0503 20.625 16.5C20.625 17.9497 19.4497 19.125 18 19.125C16.5503 19.125 15.375 17.9497 15.375 16.5Z" />
<path fill-rule="evenodd" clip-rule="evenodd" d="M18 16.875C18.6213 16.875 19.125 17.3787 19.125 18V21.75C19.125 22.3713 18.6213 22.875 18 22.875C17.3787 22.875 16.875 22.3713 16.875 21.75V18C16.875 17.3787 17.3787 16.875 18 16.875Z" />
</svg>
