<svg width="36" height="36" viewBox="0 0 36 36" fill="none" xmlns="http://www.w3.org/2000/svg">
<path d="M18 4.5C21.5037 7.59986 26.0767 9.21385 30.75 9C31.4304 11.3145 31.6386 13.7422 31.3622 16.1388C31.0858 18.5353 30.3305 20.8519 29.1411 22.9508C27.9517 25.0497 26.3526 26.8881 24.4387 28.3567C22.5248 29.8254 20.3352 30.8943 18 31.5C15.6648 30.8943 13.4752 29.8254 11.5613 28.3567C9.64741 26.8881 8.04826 25.0497 6.85889 22.9508C5.66952 20.8519 4.9142 18.5353 4.63781 16.1388C4.36142 13.7422 4.56961 11.3145 5.25 9C9.92329 9.21385 14.4962 7.59986 18 4.5" stroke="#778194" stroke-width="2.25" stroke-linecap="round" stroke-linejoin="round"/>
<path d="M18 18C18.8284 18 19.5 17.3284 19.5 16.5C19.5 15.6716 18.8284 15 18 15C17.1716 15 16.5 15.6716 16.5 16.5C16.5 17.3284 17.1716 18 18 18Z" stroke="#778194" stroke-width="2.25" stroke-linecap="round" stroke-linejoin="round"/>
<path d="M18 18V21.75" stroke="#778194" stroke-width="2.25" stroke-linecap="round" stroke-linejoin="round"/>
</svg>
