<svg width="36" height="36" viewBox="0 0 36 36" fill="none" xmlns="http://www.w3.org/2000/svg">
<path d="M15 21L31.5 4.5" stroke="#778194" stroke-width="2.25" stroke-linecap="round" stroke-linejoin="round"/>
<path d="M31.5001 4.5L21.7501 31.5C21.6843 31.6436 21.5786 31.7653 21.4457 31.8506C21.3127 31.936 21.1581 31.9813 21.0001 31.9813C20.8421 31.9813 20.6875 31.936 20.5545 31.8506C20.4216 31.7653 20.3159 31.6436 20.2501 31.5L15.0001 21L4.50011 15.75C4.35649 15.6842 4.2348 15.5785 4.14947 15.4456C4.06415 15.3126 4.0188 15.158 4.0188 15C4.0188 14.842 4.06415 14.6874 4.14947 14.5544C4.2348 14.4215 4.35649 14.3158 4.50011 14.25L31.5001 4.5Z" stroke="#778194" stroke-width="2.25" stroke-linecap="round" stroke-linejoin="round"/>
</svg>
