<svg width="36" height="36" viewBox="0 0 36 36" xmlns="http://www.w3.org/2000/svg">
<path fill-rule="evenodd" clip-rule="evenodd" d="M32.2955 3.7045C32.7348 4.14384 32.7348 4.85616 32.2955 5.2955L15.7955 21.7955C15.3562 22.2348 14.6438 22.2348 14.2045 21.7955C13.7652 21.3562 13.7652 20.6438 14.2045 20.2045L30.7045 3.7045C31.1438 3.26517 31.8562 3.26517 32.2955 3.7045Z" />
<path fill-rule="evenodd" clip-rule="evenodd" d="M32.2955 3.70454C32.6039 4.01296 32.7063 4.47188 32.5581 4.88213L22.8081 31.8821C22.7975 31.9115 22.7857 31.9404 22.7727 31.9687C22.6172 32.3082 22.3674 32.5958 22.0532 32.7975C21.739 32.9991 21.3734 33.1063 21 33.1063C20.6266 33.1063 20.2611 32.9991 19.9468 32.7975C19.6391 32.6 19.3932 32.32 19.2371 31.9897L14.1615 21.8386L4.01036 16.763C3.68004 16.6069 3.40008 16.361 3.20258 16.0532C3.00091 15.739 2.89371 15.3734 2.89371 15C2.89371 14.6266 3.00091 14.2611 3.20258 13.9468C3.40424 13.6326 3.69189 13.3829 4.03134 13.2273C4.0597 13.2143 4.08858 13.2025 4.11791 13.1919L31.1179 3.44191C31.5282 3.29376 31.9871 3.39611 32.2955 3.70454ZM5.60776 15.0461L15.5031 19.9938C15.7208 20.1027 15.8974 20.2792 16.0062 20.4969L20.9539 30.3923L29.6279 6.37219L5.60776 15.0461Z" />
</svg>
