<svg width="36" height="36" viewBox="0 0 36 36" xmlns="http://www.w3.org/2000/svg">
<path d="M18 32.6205C17.1654 32.6327 16.3518 32.3584 15.6949 31.8434C15.038 31.3285 14.5774 30.6039 14.39 29.7905C14.3454 29.604 14.2645 29.4282 14.1519 29.2729C14.0392 29.1177 13.8971 28.9862 13.7337 28.8859C13.5703 28.7856 13.3887 28.7185 13.1993 28.6884C13.0099 28.6583 12.8165 28.6658 12.63 28.7105C12.482 28.7497 12.3405 28.8103 12.21 28.8905C11.4996 29.3244 10.6639 29.5068 9.83734 29.4084C9.01076 29.31 8.24132 28.9364 7.65271 28.3478C7.0641 27.7592 6.69054 26.9897 6.5921 26.1631C6.49367 25.3366 6.67607 24.5008 7.10999 23.7905C7.30916 23.46 7.36947 23.0642 7.27765 22.6894C7.18583 22.3146 6.94937 21.9914 6.62 21.7905C6.49566 21.7077 6.35643 21.65 6.21002 21.6205C5.4042 21.42 4.6886 20.9558 4.17719 20.3016C3.66577 19.6474 3.38794 18.8409 3.38794 18.0105C3.38794 17.1801 3.66577 16.3736 4.17719 15.7194C4.6886 15.0652 5.4042 14.601 6.21002 14.4005C6.58525 14.308 6.90896 14.0715 7.11108 13.7421C7.31321 13.4127 7.37745 13.0169 7.28998 12.6405C7.25078 12.4925 7.19015 12.3509 7.10999 12.2205C6.67607 11.5101 6.49367 10.6744 6.5921 9.84784C6.69054 9.02126 7.0641 8.25182 7.65271 7.66321C8.24132 7.0746 9.01076 6.70103 9.83734 6.6026C10.6639 6.50417 11.4996 6.68656 12.21 7.12048C12.4056 7.24263 12.6275 7.31637 12.8573 7.33557C13.0871 7.35477 13.3182 7.3189 13.5314 7.2309C13.7445 7.1429 13.9336 7.00531 14.0829 6.82959C14.2323 6.65387 14.3375 6.44502 14.39 6.22046C14.5905 5.41464 15.0547 4.69909 15.7089 4.18768C16.3631 3.67627 17.1696 3.39844 18 3.39844C18.8304 3.39844 19.6369 3.67627 20.2911 4.18768C20.9453 4.69909 21.4095 5.41464 21.61 6.22046C21.6529 6.40623 21.7325 6.58158 21.8441 6.73615C21.9557 6.89071 22.0971 7.02137 22.26 7.12048C22.4237 7.22289 22.6062 7.29154 22.7968 7.32245C22.9874 7.35336 23.1823 7.3459 23.37 7.30048C23.518 7.26128 23.6595 7.20064 23.79 7.12048C24.5004 6.68656 25.3361 6.50417 26.1627 6.6026C26.9892 6.70103 27.7587 7.0746 28.3473 7.66321C28.9359 8.25182 29.3095 9.02126 29.4079 9.84784C29.5063 10.6744 29.3239 11.5101 28.89 12.2205C28.6908 12.5509 28.6305 12.9468 28.7224 13.3216C28.8142 13.6964 29.0506 14.0195 29.38 14.2205C29.5043 14.3032 29.6436 14.361 29.79 14.3905C30.5958 14.5909 31.3114 15.0552 31.8228 15.7094C32.3342 16.3636 32.6121 17.1701 32.6121 18.0005C32.6121 18.8309 32.3342 19.6374 31.8228 20.2916C31.3114 20.9458 30.5958 21.41 29.79 21.6105C29.6035 21.6551 29.4277 21.736 29.2725 21.8486C29.1173 21.9612 28.9857 22.1033 28.8854 22.2668C28.7851 22.4302 28.718 22.6118 28.6879 22.8012C28.6578 22.9906 28.6654 23.184 28.71 23.3705C28.7492 23.5185 28.8099 23.66 28.89 23.7905C29.3239 24.5008 29.5063 25.3366 29.4079 26.1631C29.3095 26.9897 28.9359 27.7592 28.3473 28.3478C27.7587 28.9364 26.9892 29.31 26.1627 29.4084C25.3361 29.5068 24.5004 29.3244 23.79 28.8905C23.4595 28.6913 23.0637 28.631 22.6889 28.7228C22.3141 28.8147 21.9909 29.0511 21.79 29.3805C21.7072 29.5048 21.6495 29.6441 21.62 29.7905C21.4322 30.6056 20.9702 31.3315 20.3112 31.8466C19.6522 32.3618 18.8363 32.635 18 32.6205ZM13 26.4205C13.8332 26.4197 14.6425 26.6995 15.2974 27.2147C15.9522 27.7299 16.4146 28.4505 16.61 29.2605C16.6778 29.584 16.8572 29.8734 17.1168 30.0781C17.3763 30.2828 17.6996 30.3899 18.03 30.3805C18.36 30.3879 18.6822 30.2802 18.9413 30.0758C19.2005 29.8714 19.3804 29.5831 19.45 29.2605C19.5419 28.8868 19.6903 28.5294 19.89 28.2005C20.4033 27.3612 21.2289 26.76 22.1853 26.5294C23.1417 26.2987 24.1506 26.4574 24.99 26.9705C25.2689 27.1355 25.5948 27.2031 25.9163 27.1625C26.2378 27.1219 26.5367 26.9755 26.7659 26.7463C26.995 26.5172 27.1414 26.2183 27.182 25.8968C27.2226 25.5753 27.155 25.2494 26.99 24.9705C26.7957 24.64 26.6509 24.2829 26.56 23.9105C26.328 22.9544 26.4853 21.9453 26.9973 21.1052C27.5092 20.265 28.3339 19.6626 29.29 19.4305C29.6092 19.3542 29.8934 19.1726 30.0967 18.9149C30.3 18.6573 30.4106 18.3387 30.4106 18.0105C30.4106 17.6823 30.3 17.3637 30.0967 17.106C29.8934 16.8484 29.6092 16.6668 29.29 16.5905C28.9163 16.4987 28.5589 16.3503 28.23 16.1505C27.3906 15.6373 26.7896 14.8116 26.5589 13.8552C26.3282 12.8988 26.4869 11.8899 27 11.0505C27.165 10.7716 27.2326 10.4457 27.192 10.1242C27.1514 9.80269 27.005 9.50375 26.7759 9.2746C26.5467 9.04544 26.2479 8.8991 25.9263 8.85852C25.6048 8.81794 25.2789 8.88545 25 9.05048C24.6707 9.24717 24.3132 9.39219 23.94 9.48047C23.4665 9.59808 22.9743 9.62065 22.4921 9.54681C22.0098 9.47298 21.5469 9.30424 21.1303 9.05035C20.7137 8.79647 20.3515 8.46246 20.0648 8.06769C19.7781 7.67292 19.5726 7.22523 19.46 6.75049C19.3837 6.43129 19.2021 6.1471 18.9445 5.94379C18.6868 5.74048 18.3682 5.62988 18.04 5.62988C17.7118 5.62988 17.3932 5.74048 17.1356 5.94379C16.8779 6.1471 16.6963 6.43129 16.62 6.75049C16.4821 7.31827 16.2121 7.84546 15.8318 8.28912C15.4516 8.73278 14.972 9.08039 14.4321 9.30359C13.8921 9.52679 13.307 9.61926 12.7245 9.57355C12.142 9.52783 11.5786 9.34518 11.08 9.04047C10.8011 8.87544 10.4752 8.80793 10.1537 8.84851C9.83217 8.88909 9.53329 9.0355 9.30414 9.26465C9.07499 9.4938 8.92858 9.79268 8.888 10.1142C8.84742 10.4357 8.91499 10.7616 9.08002 11.0405C9.27671 11.3697 9.42173 11.7272 9.51001 12.1005C9.74198 13.0566 9.58465 14.0657 9.07269 14.9058C8.56073 15.746 7.73609 16.3484 6.78003 16.5805C6.46083 16.6568 6.17664 16.8384 5.97333 17.096C5.77002 17.3536 5.65942 17.6723 5.65942 18.0005C5.65942 18.3287 5.77002 18.6473 5.97333 18.905C6.17664 19.1626 6.46083 19.3442 6.78003 19.4205C7.13381 19.5154 7.47102 19.6638 7.78003 19.8605C8.19645 20.1138 8.55885 20.4467 8.84656 20.8401C9.13427 21.2336 9.34163 21.6799 9.45679 22.1536C9.57194 22.6272 9.59264 23.1188 9.5177 23.6005C9.44276 24.0821 9.27364 24.5443 9.02002 24.9605C8.85499 25.2394 8.78742 25.5653 8.828 25.8868C8.86858 26.2083 9.01499 26.5072 9.24414 26.7363C9.47329 26.9655 9.77217 27.1119 10.0937 27.1525C10.4152 27.193 10.7411 27.1255 11.02 26.9605C11.3505 26.7662 11.7076 26.6214 12.08 26.5305C12.3711 26.4579 12.6699 26.4209 12.97 26.4205H13Z" />
<path d="M18 23.6199C16.8885 23.6199 15.8019 23.2903 14.8777 22.6727C13.9535 22.0552 13.2332 21.1775 12.8078 20.1506C12.3825 19.1237 12.2711 17.9936 12.488 16.9035C12.7048 15.8133 13.2401 14.8119 14.0261 14.026C14.812 13.24 15.8134 12.7047 16.9036 12.4879C17.9938 12.271 19.1238 12.3823 20.1507 12.8077C21.1776 13.2331 22.0553 13.9534 22.6729 14.8776C23.2904 15.8018 23.62 16.8884 23.62 17.9999C23.62 19.4904 23.0279 20.9199 21.974 21.9738C20.92 23.0278 19.4905 23.6199 18 23.6199ZM18 14.6199C17.3315 14.6199 16.678 14.8181 16.1222 15.1895C15.5664 15.5609 15.1331 16.0888 14.8773 16.7064C14.6214 17.324 14.5545 18.0037 14.685 18.6593C14.8154 19.315 15.1373 19.9172 15.61 20.3899C16.0827 20.8626 16.6849 21.1845 17.3406 21.315C17.9962 21.4454 18.6759 21.3785 19.2935 21.1226C19.9111 20.8668 20.439 20.4335 20.8104 19.8777C21.1818 19.3219 21.38 18.6684 21.38 17.9999C21.3774 17.1043 21.0204 16.2461 20.3871 15.6128C19.7538 14.9795 18.8956 14.6225 18 14.6199Z" />
</svg>
