<svg width="36" height="36" viewBox="0 0 36 36" xmlns="http://www.w3.org/2000/svg">
<path fill-rule="evenodd" clip-rule="evenodd" d="M17.9895 1.87793C18.4177 1.87793 18.8088 2.12104 18.9983 2.50505L23.3654 11.3539L33.1298 12.7691C33.5538 12.8305 33.9061 13.1275 34.0385 13.535C34.1708 13.9425 34.0602 14.3897 33.7532 14.6886L26.6774 21.5762L28.3458 31.3022C28.4182 31.7245 28.2445 32.1512 27.8978 32.4029C27.5511 32.6545 27.0915 32.6874 26.7125 32.4877L17.9994 27.8963L9.2655 32.4882C8.88647 32.6875 8.42716 32.6543 8.08071 32.4026C7.73426 32.1509 7.56076 31.7243 7.63317 31.3022L9.30158 21.5762L2.22577 14.6886C1.91876 14.3897 1.80815 13.9425 1.94047 13.535C2.0728 13.1275 2.4251 12.8305 2.84911 12.7691L12.6135 11.3539L16.9806 2.50505C17.1702 2.12104 17.5612 1.87793 17.9895 1.87793ZM17.9895 5.54495L14.3693 12.8803C14.2054 13.2125 13.8884 13.4427 13.5218 13.4958L5.4308 14.6684L11.2952 20.3768C11.5607 20.6353 11.6819 21.0079 11.6193 21.3731L10.2362 29.4358L17.4764 25.6292C17.8045 25.4567 18.1965 25.4569 18.5244 25.6297L25.7423 29.4332L24.3597 21.3731C24.297 21.0079 24.4182 20.6353 24.6838 20.3768L30.5481 14.6684L22.4571 13.4958C22.0905 13.4427 21.7736 13.2125 21.6096 12.8803L17.9895 5.54495Z" />
</svg>
