<svg width="36" height="36" viewBox="0 0 36 36" xmlns="http://www.w3.org/2000/svg">
<path fill-rule="evenodd" clip-rule="evenodd" d="M18 5.625C11.1655 5.625 5.625 11.1655 5.625 18C5.625 24.8345 11.1655 30.375 18 30.375C24.8345 30.375 30.375 24.8345 30.375 18C30.375 11.1655 24.8345 5.625 18 5.625ZM3.375 18C3.375 9.92284 9.92284 3.375 18 3.375C26.0772 3.375 32.625 9.92284 32.625 18C32.625 26.0772 26.0772 32.625 18 32.625C9.92284 32.625 3.375 26.0772 3.375 18Z" />
<path fill-rule="evenodd" clip-rule="evenodd" d="M18 9.375C18.6213 9.375 19.125 9.87868 19.125 10.5V17.534L23.2955 21.7045C23.7348 22.1438 23.7348 22.8562 23.2955 23.2955C22.8562 23.7348 22.1438 23.7348 21.7045 23.2955L17.2045 18.7955C16.9935 18.5845 16.875 18.2984 16.875 18V10.5C16.875 9.87868 17.3787 9.375 18 9.375Z" />
</svg>
