<svg width="36" height="36" viewBox="0 0 36 36" fill="none" xmlns="http://www.w3.org/2000/svg">
<path d="M6 10.5H30" stroke="#778194" stroke-width="2.25" stroke-linecap="round" stroke-linejoin="round"/>
<path d="M15 16.5V25.5" stroke="#778194" stroke-width="2.25" stroke-linecap="round" stroke-linejoin="round"/>
<path d="M21 16.5V25.5" stroke="#778194" stroke-width="2.25" stroke-linecap="round" stroke-linejoin="round"/>
<path d="M7.5 10.5L9 28.5C9 29.2956 9.31607 30.0587 9.87868 30.6213C10.4413 31.1839 11.2044 31.5 12 31.5H24C24.7956 31.5 25.5587 31.1839 26.1213 30.6213C26.6839 30.0587 27 29.2956 27 28.5L28.5 10.5" stroke="#778194" stroke-width="2.25" stroke-linecap="round" stroke-linejoin="round"/>
<path d="M13.5 10.5V6C13.5 5.60218 13.658 5.22064 13.9393 4.93934C14.2206 4.65804 14.6022 4.5 15 4.5H21C21.3978 4.5 21.7794 4.65804 22.0607 4.93934C22.342 5.22064 22.5 5.60218 22.5 6V10.5" stroke="#778194" stroke-width="2.25" stroke-linecap="round" stroke-linejoin="round"/>
</svg>
