<svg width="36" height="36" viewBox="0 0 36 36" xmlns="http://www.w3.org/2000/svg">
<path fill-rule="evenodd" clip-rule="evenodd" d="M4.875 10.5C4.875 9.87868 5.37868 9.375 6 9.375H30C30.6213 9.375 31.125 9.87868 31.125 10.5C31.125 11.1213 30.6213 11.625 30 11.625H6C5.37868 11.625 4.875 11.1213 4.875 10.5Z" />
<path fill-rule="evenodd" clip-rule="evenodd" d="M15 15.375C15.6213 15.375 16.125 15.8787 16.125 16.5V25.5C16.125 26.1213 15.6213 26.625 15 26.625C14.3787 26.625 13.875 26.1213 13.875 25.5V16.5C13.875 15.8787 14.3787 15.375 15 15.375Z" />
<path fill-rule="evenodd" clip-rule="evenodd" d="M21 15.375C21.6213 15.375 22.125 15.8787 22.125 16.5V25.5C22.125 26.1213 21.6213 26.625 21 26.625C20.3787 26.625 19.875 26.1213 19.875 25.5V16.5C19.875 15.8787 20.3787 15.375 21 15.375Z" />
<path fill-rule="evenodd" clip-rule="evenodd" d="M7.40658 9.37895C8.02575 9.32735 8.56952 9.78746 8.62112 10.4066L10.1211 28.4066C10.1237 28.4377 10.125 28.4689 10.125 28.5001C10.125 28.9973 10.3225 29.4743 10.6742 29.8259C11.0258 30.1775 11.5027 30.3751 12 30.3751H24C24.4973 30.3751 24.9742 30.1775 25.3258 29.8259C25.6775 29.4743 25.875 28.9973 25.875 28.5001C25.875 28.4689 25.8763 28.4377 25.8789 28.4066L27.3789 10.4066C27.4305 9.78746 27.9743 9.32735 28.5934 9.37895C29.2126 9.43055 29.6727 9.97431 29.6211 10.5935L28.1247 28.5506C28.1115 29.6263 27.6785 30.6552 26.9168 31.4169C26.1432 32.1905 25.094 32.6251 24 32.6251H12C10.906 32.6251 9.85677 32.1905 9.08319 31.4169C8.32151 30.6552 7.88846 29.6263 7.87531 28.5506L6.37889 10.5935C6.32729 9.97431 6.7874 9.43055 7.40658 9.37895Z" />
<path fill-rule="evenodd" clip-rule="evenodd" d="M15 5.625C14.9005 5.625 14.8052 5.66451 14.7348 5.73483C14.6645 5.80516 14.625 5.90054 14.625 6V10.5C14.625 11.1213 14.1213 11.625 13.5 11.625C12.8787 11.625 12.375 11.1213 12.375 10.5V6C12.375 5.30381 12.6516 4.63613 13.1438 4.14384C13.6361 3.65156 14.3038 3.375 15 3.375H21C21.6962 3.375 22.3639 3.65156 22.8562 4.14384C23.3484 4.63613 23.625 5.30381 23.625 6V10.5C23.625 11.1213 23.1213 11.625 22.5 11.625C21.8787 11.625 21.375 11.1213 21.375 10.5V6C21.375 5.90054 21.3355 5.80516 21.2652 5.73483C21.1948 5.66451 21.0995 5.625 21 5.625H15Z" />
</svg>
