<svg width="36" height="36" viewBox="0 0 36 36" xmlns="http://www.w3.org/2000/svg">
<path fill-rule="evenodd" clip-rule="evenodd" d="M10.5 17.625C9.46447 17.625 8.625 18.4645 8.625 19.5V28.5C8.625 29.5355 9.46447 30.375 10.5 30.375H25.5C26.5355 30.375 27.375 29.5355 27.375 28.5V19.5C27.375 18.4645 26.5355 17.625 25.5 17.625H10.5ZM6.375 19.5C6.375 17.2218 8.22183 15.375 10.5 15.375H25.5C27.7782 15.375 29.625 17.2218 29.625 19.5V28.5C29.625 30.7782 27.7782 32.625 25.5 32.625H10.5C8.22183 32.625 6.375 30.7782 6.375 28.5V19.5Z" />
<path fill-rule="evenodd" clip-rule="evenodd" d="M18 23.625C17.7929 23.625 17.625 23.7929 17.625 24C17.625 24.2071 17.7929 24.375 18 24.375C18.2071 24.375 18.375 24.2071 18.375 24C18.375 23.7929 18.2071 23.625 18 23.625ZM15.375 24C15.375 22.5503 16.5503 21.375 18 21.375C19.4497 21.375 20.625 22.5503 20.625 24C20.625 25.4497 19.4497 26.625 18 26.625C16.5503 26.625 15.375 25.4497 15.375 24Z" />
<path fill-rule="evenodd" clip-rule="evenodd" d="M18 4.125C16.7071 4.125 15.4671 4.63861 14.5529 5.55285C13.6386 6.46709 13.125 7.70707 13.125 9V16.5C13.125 17.1213 12.6213 17.625 12 17.625C11.3787 17.625 10.875 17.1213 10.875 16.5V9C10.875 7.11033 11.6257 5.29806 12.9619 3.96186C14.2981 2.62567 16.1103 1.875 18 1.875C19.8897 1.875 21.7019 2.62567 23.0381 3.96186C24.3743 5.29806 25.125 7.11033 25.125 9C25.125 9.62132 24.6213 10.125 24 10.125C23.3787 10.125 22.875 9.62132 22.875 9C22.875 7.70707 22.3614 6.46709 21.4471 5.55285C20.5329 4.63861 19.2929 4.125 18 4.125Z" />
</svg>
