<svg width="36" height="36" viewBox="0 0 36 36" xmlns="http://www.w3.org/2000/svg">
<path fill-rule="evenodd" clip-rule="evenodd" d="M20.2154 8.68166C19.2631 8.50851 18.2814 8.50586 17.3279 8.6739C16.3744 8.84194 15.472 9.17656 14.6719 9.65463C13.0553 10.6205 11.9668 12.1018 11.5977 13.7462C11.4824 14.2598 11.0264 14.6248 10.5 14.6248C8.91105 14.6248 7.39668 15.229 6.2877 16.2898C5.18042 17.3489 4.56818 18.7745 4.56818 20.2498C4.56818 21.7251 5.18042 23.1507 6.2877 24.2098C7.39668 25.2706 8.91105 25.8748 10.5 25.8748C11.1213 25.8748 11.625 26.3785 11.625 26.9998C11.625 27.6211 11.1213 28.1248 10.5 28.1248C8.34578 28.1248 6.27028 27.3067 4.73245 25.8357C3.19291 24.3631 2.31818 22.3549 2.31818 20.2498C2.31818 18.1447 3.19291 16.1365 4.73245 14.6639C6.06373 13.3905 7.79793 12.6063 9.63733 12.4187C10.2964 10.4814 11.6746 8.82441 13.5179 7.72312C14.5594 7.10082 15.7215 6.67232 16.9374 6.45805C18.1533 6.24378 19.4034 6.24713 20.6179 6.46795C21.8324 6.68877 22.9918 7.12356 24.0295 7.75158C25.0672 8.37969 25.9653 9.1904 26.6675 10.1424C27.37 11.0947 27.8619 12.169 28.1091 13.305C28.2576 13.9878 28.3155 14.6827 28.2828 15.3748H28.5C30.1908 15.3748 31.8123 16.0465 33.0078 17.242C34.2034 18.4375 34.875 20.0591 34.875 21.7498C34.875 23.4406 34.2034 25.0621 33.0078 26.2576C31.8123 27.4532 30.1908 28.1248 28.5 28.1248H27C26.3787 28.1248 25.875 27.6211 25.875 26.9998C25.875 26.3785 26.3787 25.8748 27 25.8748H28.5C29.594 25.8748 30.6432 25.4402 31.4168 24.6666C32.1904 23.893 32.625 22.8438 32.625 21.7498C32.625 20.6558 32.1904 19.6066 31.4168 18.833C30.6432 18.0594 29.594 17.6248 28.5 17.6248H27C26.6583 17.6248 26.3352 17.4695 26.1217 17.2028C25.9082 16.9361 25.8275 16.5868 25.9023 16.2534C26.0853 15.4381 26.0881 14.5995 25.9105 13.7834C25.7329 12.9669 25.377 12.1832 24.8568 11.478C24.3364 10.7725 23.661 10.1586 22.8644 9.67646C22.0677 9.19423 21.1677 8.8548 20.2154 8.68166Z" />
<path fill-rule="evenodd" clip-rule="evenodd" d="M17.2045 17.2045C17.6438 16.7652 18.3562 16.7652 18.7955 17.2045L23.2955 21.7045C23.7348 22.1438 23.7348 22.8562 23.2955 23.2955C22.8562 23.7348 22.1438 23.7348 21.7045 23.2955L18 19.591L14.2955 23.2955C13.8562 23.7348 13.1438 23.7348 12.7045 23.2955C12.2652 22.8562 12.2652 22.1438 12.7045 21.7045L17.2045 17.2045Z" />
<path fill-rule="evenodd" clip-rule="evenodd" d="M18 16.875C18.6213 16.875 19.125 17.3787 19.125 18V31.5C19.125 32.1213 18.6213 32.625 18 32.625C17.3787 32.625 16.875 32.1213 16.875 31.5V18C16.875 17.3787 17.3787 16.875 18 16.875Z" />
</svg>
