<svg width="36" height="36" viewBox="0 0 36 36" fill="none" xmlns="http://www.w3.org/2000/svg">
<path d="M10.4999 27C8.62835 27 6.83342 26.2888 5.51001 25.023C4.1866 23.7571 3.44312 22.0402 3.44312 20.25C3.44312 18.4598 4.1866 16.7429 5.51001 15.477C6.83342 14.2112 8.62835 13.5 10.4999 13.5C10.942 11.5308 12.2351 9.80023 14.0948 8.68907C15.0157 8.13889 16.0479 7.75732 17.1326 7.56617C18.2173 7.37502 19.3332 7.37802 20.4166 7.575C21.5 7.77199 22.5297 8.15909 23.4469 8.71422C24.364 9.26935 25.1508 9.98163 25.7621 10.8104C26.3734 11.6392 26.7974 12.5682 27.0097 13.5444C27.2221 14.5206 27.2188 15.5249 26.9999 16.5H28.4999C29.8923 16.5 31.2277 17.0531 32.2122 18.0377C33.1968 19.0223 33.7499 20.3576 33.7499 21.75C33.7499 23.1424 33.1968 24.4777 32.2122 25.4623C31.2277 26.4469 29.8923 27 28.4999 27H26.9999" stroke="#778194" stroke-width="2.25" stroke-linecap="round" stroke-linejoin="round"/>
<path d="M13.5 22.5L18 18L22.5 22.5" stroke="#778194" stroke-width="2.25" stroke-linecap="round" stroke-linejoin="round"/>
<path d="M18 18V31.5" stroke="#778194" stroke-width="2.25" stroke-linecap="round" stroke-linejoin="round"/>
</svg>
