<svg width="36" height="36" viewBox="0 0 36 36" xmlns="http://www.w3.org/2000/svg">
<path fill-rule="evenodd" clip-rule="evenodd" d="M18 5.625C15.3076 5.625 13.125 7.80761 13.125 10.5C13.125 13.1924 15.3076 15.375 18 15.375C20.6924 15.375 22.875 13.1924 22.875 10.5C22.875 7.80761 20.6924 5.625 18 5.625ZM10.875 10.5C10.875 6.56497 14.065 3.375 18 3.375C21.935 3.375 25.125 6.56497 25.125 10.5C25.125 14.435 21.935 17.625 18 17.625C14.065 17.625 10.875 14.435 10.875 10.5Z" />
<path fill-rule="evenodd" clip-rule="evenodd" d="M15 23.625C13.7071 23.625 12.4671 24.1386 11.5529 25.0529C10.6386 25.9671 10.125 27.2071 10.125 28.5V31.5C10.125 32.1213 9.62132 32.625 9 32.625C8.37868 32.625 7.875 32.1213 7.875 31.5V28.5C7.875 26.6103 8.62567 24.7981 9.96186 23.4619C11.2981 22.1257 13.1103 21.375 15 21.375H21C22.8897 21.375 24.7019 22.1257 26.0381 23.4619C27.3743 24.7981 28.125 26.6103 28.125 28.5V31.5C28.125 32.1213 27.6213 32.625 27 32.625C26.3787 32.625 25.875 32.1213 25.875 31.5V28.5C25.875 27.2071 25.3614 25.9671 24.4471 25.0529C23.5329 24.1386 22.2929 23.625 21 23.625H15Z" />
</svg>
