<svg width="36" height="36" viewBox="0 0 36 36" xmlns="http://www.w3.org/2000/svg">
<path fill-rule="evenodd" clip-rule="evenodd" d="M13.5 5.625C10.8076 5.625 8.625 7.80761 8.625 10.5C8.625 13.1924 10.8076 15.375 13.5 15.375C16.1924 15.375 18.375 13.1924 18.375 10.5C18.375 7.80761 16.1924 5.625 13.5 5.625ZM6.375 10.5C6.375 6.56497 9.56497 3.375 13.5 3.375C17.435 3.375 20.625 6.56497 20.625 10.5C20.625 14.435 17.435 17.625 13.5 17.625C9.56497 17.625 6.375 14.435 6.375 10.5Z" />
<path fill-rule="evenodd" clip-rule="evenodd" d="M10.5 23.625C9.20707 23.625 7.96709 24.1386 7.05285 25.0529C6.13861 25.9671 5.625 27.2071 5.625 28.5V31.5C5.625 32.1213 5.12132 32.625 4.5 32.625C3.87868 32.625 3.375 32.1213 3.375 31.5V28.5C3.375 26.6103 4.12567 24.7981 5.46186 23.4619C6.79806 22.1257 8.61033 21.375 10.5 21.375H16.5C18.3897 21.375 20.2019 22.1257 21.5381 23.4619C22.8743 24.7981 23.625 26.6103 23.625 28.5V31.5C23.625 32.1213 23.1213 32.625 22.5 32.625C21.8787 32.625 21.375 32.1213 21.375 31.5V28.5C21.375 27.2071 20.8614 25.9671 19.9471 25.0529C19.0329 24.1386 17.7929 23.625 16.5 23.625H10.5Z" />
<path fill-rule="evenodd" clip-rule="evenodd" d="M22.9102 4.41556C23.0643 3.81366 23.6771 3.45065 24.279 3.60476C25.8117 3.99717 27.1701 4.88851 28.1401 6.13825C29.1102 7.38799 29.6368 8.92505 29.6368 10.5071C29.6368 12.0892 29.1102 13.6262 28.1401 14.876C27.1701 16.1257 25.8117 17.017 24.279 17.4095C23.6771 17.5636 23.0643 17.2006 22.9102 16.5987C22.756 15.9967 23.119 15.3839 23.721 15.2298C24.7696 14.9613 25.699 14.3514 26.3628 13.4963C27.0265 12.6412 27.3868 11.5896 27.3868 10.5071C27.3868 9.42465 27.0265 8.37298 26.3628 7.51789C25.699 6.6628 24.7696 6.05294 23.721 5.78445C23.119 5.63034 22.756 5.01747 22.9102 4.41556Z" />
<path fill-rule="evenodd" clip-rule="evenodd" d="M25.9107 22.4437C26.066 21.8421 26.6796 21.4803 27.2812 21.6356C28.8039 22.0287 30.1537 22.9145 31.1203 24.155C32.0869 25.3955 32.6159 26.9209 32.625 28.4934L32.625 28.4999H32.625V31.4999C32.625 32.1212 32.1213 32.6249 31.5 32.6249C30.8787 32.6249 30.375 32.1212 30.375 31.4999V28.5033C30.3681 27.4284 30.0062 26.3859 29.3455 25.538C28.6841 24.6892 27.7606 24.0831 26.7188 23.8142C26.1172 23.6588 25.7554 23.0452 25.9107 22.4437Z" />
</svg>
