<svg width="36" height="36" viewBox="0 0 36 36" fill="none" xmlns="http://www.w3.org/2000/svg">
<path d="M13.5 16.5C16.8137 16.5 19.5 13.8137 19.5 10.5C19.5 7.18629 16.8137 4.5 13.5 4.5C10.1863 4.5 7.5 7.18629 7.5 10.5C7.5 13.8137 10.1863 16.5 13.5 16.5Z" stroke="#778194" stroke-width="2.25" stroke-linecap="round" stroke-linejoin="round"/>
<path d="M4.5 31.5V28.5C4.5 26.9087 5.13214 25.3826 6.25736 24.2574C7.38258 23.1321 8.9087 22.5 10.5 22.5H16.5C18.0913 22.5 19.6174 23.1321 20.7426 24.2574C21.8679 25.3826 22.5 26.9087 22.5 28.5V31.5" stroke="#778194" stroke-width="2.25" stroke-linecap="round" stroke-linejoin="round"/>
<path d="M24 4.695C25.2906 5.02545 26.4346 5.77605 27.2515 6.82847C28.0684 7.88088 28.5118 9.17524 28.5118 10.5075C28.5118 11.8398 28.0684 13.1341 27.2515 14.1865C26.4346 15.2389 25.2906 15.9895 24 16.32" stroke="#778194" stroke-width="2.25" stroke-linecap="round" stroke-linejoin="round"/>
<path d="M31.5 31.5V28.5C31.4924 27.1757 31.0469 25.8912 30.2329 24.8466C29.4189 23.802 28.2822 23.056 27 22.725" stroke="#778194" stroke-width="2.25" stroke-linecap="round" stroke-linejoin="round"/>
</svg>
