<svg width="17" height="23" viewBox="0 0 17 23" fill="none" xmlns="http://www.w3.org/2000/svg">
<g clip-path="url(#alertCircle)">
<path fill-rule="evenodd" clip-rule="evenodd" d="M8.125 4.25C4.32804 4.25 1.25 7.32804 1.25 11.125C1.25 14.922 4.32804 18 8.125 18C11.922 18 15 14.922 15 11.125C15 7.32804 11.922 4.25 8.125 4.25ZM0 11.125C0 6.63769 3.63769 3 8.125 3C12.6123 3 16.25 6.63769 16.25 11.125C16.25 15.6123 12.6123 19.25 8.125 19.25C3.63769 19.25 0 15.6123 0 11.125Z" fill="currentColor"/>
<path fill-rule="evenodd" clip-rule="evenodd" d="M8.125 6.72266C8.40546 6.72266 8.63281 7.03396 8.63281 7.41797V11.1263C8.63281 11.5103 8.40546 11.8216 8.125 11.8216C7.84454 11.8216 7.61719 11.5103 7.61719 11.1263V7.41797C7.61719 7.03396 7.84454 6.72266 8.125 6.72266Z" fill="currentColor"/>
<path fill-rule="evenodd" clip-rule="evenodd" d="M7.61719 14.832C7.61719 14.448 7.84454 14.1367 8.125 14.1367H8.13177C8.41223 14.1367 8.63958 14.448 8.63958 14.832C8.63958 15.216 8.41223 15.5273 8.13177 15.5273H8.125C7.84454 15.5273 7.61719 15.216 7.61719 14.832Z" fill="currentColor"/>
</g>
<defs>
<clipPath id="alertCircle">
<rect width="16.25" height="22.25" fill="white"/>
</clipPath>
</defs>
</svg>
