<svg version="1.1" id="svg38" xmlns="http://www.w3.org/2000/svg" x="0" y="0" viewBox="460.1 326.3 523.9 136.1" width="112" xml:space="preserve">
  <g id="g7">
    <path id="canvas_background" d="M205 12h582v402H205V12z" fill="none"/>
  </g>
  <g id="g36">
    <path fill="currentColor" id="path72455" class="st1" d="M464.6 415.3c-3 0-4.5-1.5-4.5-4.5v-74.6c0-3 1.5-4.5 4.5-4.5s4.5 1.5 4.5 4.5v74.6c0 3-1.5 4.5-4.5 4.5z"/>
    <path fill="currentColor" id="path72457" class="st1" d="M528.1 353.1c8.2 0 14.3 1.9 18.1 5.8 3.9 3.9 5.8 9.9 5.8 18.1v33.7c0 1.4-.4 2.6-1.3 3.4-.8.8-1.8 1.1-3.3 1.1-1.4 0-2.6-.4-3.4-1.1-.8-.8-1.1-2-1.1-3.4V377c0-3.9-.5-6.8-1.4-8.9-.9-2.1-2.4-3.6-4.5-4.5-2.1-.9-5.1-1.4-8.9-1.4h-3.5c-6.2 0-11.2.9-14.8 2.6-3.7 1.7-5.5 4.2-5.5 7.5v38.4c0 1.4-.4 2.6-1.3 3.4-.8.8-1.8 1.1-3.3 1.1s-2.6-.4-3.4-1.1c-.8-.8-1.1-2-1.1-3.4v-53.1c0-1.4.4-2.5 1.1-3.3.8-.8 2-1.3 3.4-1.3s2.5.4 3.3 1.3c.8.8 1.3 1.8 1.3 3.3v3.5c4.4-5.4 11.2-8.1 20.4-8.1h3.4v.1z"/>
    <path fill="currentColor" id="path72459" class="st1" d="M621.4 353.6c1.8.9 2.8 2.1 2.8 3.6 0 .6-.2 1.4-.6 2.4l-23.8 52.2c-1.1 2.3-2.9 3.4-5.3 3.4-2.3 0-4-1.2-5-3.5l-22.1-52.2c-.3-.7-.5-1.4-.5-2.3 0-1.7 1-2.9 2.9-3.6.7-.3 1.4-.5 2.1-.5 1.8 0 3 1 3.8 2.9l19.1 44.9 20.6-45c.8-1.8 2.1-2.8 3.9-2.8.7 0 1.4.2 2.1.5z"/>
    <path fill="currentColor" id="path72461" class="st1" d="M645.4 387.9v3.6c0 3.8.5 6.7 1.4 8.8s2.4 3.6 4.5 4.5 5.1 1.4 8.9 1.4h10.3c4.7 0 8.1-.5 10.3-1.5 2.2-1 3.6-2.8 4.2-5.3.3-1.4.8-2.5 1.5-3.1.8-.8 1.8-1.1 3.3-1.1s2.6.4 3.4 1.3c.8.8 1.1 1.9.9 3.4-.8 5.3-3.2 9.2-7 11.7-3.9 2.5-9.4 3.8-16.5 3.8h-10.3c-8.1 0-14.2-1.9-18.1-5.8s-5.8-9.9-5.8-18V377c0-8.2 1.9-14.3 5.8-18.1 3.9-3.9 10-5.9 18.1-5.8h10.3c8.2 0 14.3 1.9 18.1 5.8s5.8 9.9 5.8 18.1v6.3c0 1.4-.4 2.6-1.3 3.4-.8.8-1.8 1.1-3.3 1.1h-44.5v.1zm0-9.1h40V377c0-3.9-.5-6.8-1.4-8.9s-2.4-3.6-4.5-4.5-5.1-1.4-8.9-1.4h-10.3c-3.9-.1-6.8.3-8.9 1.3-2.1.9-3.6 2.5-4.5 4.7-.9 2.1-1.4 5.1-1.4 8.9l-.1 1.7z"/>
    <path fill="currentColor" id="path72463" class="st1" d="M732.1 415.3c-5.3 0-9.4-1.1-12.3-3.3-2.9-2.3-4.8-5.6-5.5-10.1-.3-1.5 0-2.7.9-3.5.8-.8 2-1.3 3.5-1.3 1.4 0 2.5.4 3.1 1.1.7.7 1.2 1.8 1.6 3.3.4 1.8 1.3 3 2.5 3.6 1.3.7 3.4 1 6.2 1h20.6c3.5 0 5.9-.6 7.2-1.8 1.3-1.3 1.9-3.7 1.9-7.3s-.6-6-1.9-7.2c-1.3-1.3-3.6-1.9-7.2-1.9h-20.3c-11.7 0-17.5-5.8-17.5-17.5 0-6 1.4-10.4 4.3-13.2 2.9-2.9 7.3-4.3 13.2-4.3H752c9.7 0 15.3 4.2 16.9 12.5.3 1.5 0 2.7-.9 3.5-.8.8-2 1.3-3.5 1.3-1.3 0-2.4-.3-3.1-1s-1.2-1.8-1.6-3.3-1.2-2.5-2.4-3c-1.2-.6-2.9-.9-5.3-.9h-19.6c-3.4 0-5.6.5-6.8 1.6-1.1 1.1-1.6 3.4-1.6 6.8 0 3.3.5 5.5 1.6 6.7 1.2 1.2 3.4 1.8 6.8 1.8h20.3c6.1 0 10.7 1.5 13.6 4.5 3 2.9 4.5 7.5 4.5 13.6s-1.5 10.7-4.5 13.7c-2.9 2.9-7.5 4.4-13.6 4.4l-20.7.2z"/>
    <path fill="currentColor" id="path72465" class="st1" d="M819.1 406.2c3 0 4.5 1.5 4.5 4.5 0 1.4-.4 2.6-1.3 3.4-.8.8-1.8 1.1-3.3 1.1-8.1 0-14-1.9-17.9-5.7-3.8-3.8-5.7-9.7-5.7-17.7v-29.7h-6.7c-1.4 0-2.6-.4-3.4-1.1-.8-.8-1.1-2-1.1-3.4s.4-2.5 1.1-3.3c.8-.8 2-1.3 3.4-1.3h6.7v-10.8c0-3 1.5-4.5 4.5-4.5s4.5 1.5 4.5 4.5V353h15c1.4 0 2.5.4 3.3 1.3.8.8 1.3 1.8 1.3 3.3s-.4 2.6-1.3 3.4c-.8.8-1.8 1.1-3.3 1.1h-15v29.7c0 3.8.4 6.7 1.3 8.8.9 2 2.4 3.4 4.4 4.3 2.3.9 5.3 1.3 9 1.3z"/>
    <path fill="currentColor" id="path72467" class="st1" d="M870.5 353.1c8.2 0 14.3 1.9 18.1 5.8 3.9 3.9 5.8 9.9 5.8 18.1v33.7c0 1.4-.4 2.6-1.3 3.4-.8.8-1.8 1.1-3.3 1.1-1.4 0-2.6-.4-3.4-1.1-.8-.8-1.1-2-1.1-3.4v-4c-4.4 5.7-11.2 8.6-20.4 8.6h-7c-6.9 0-12-1.6-15.2-4.9-3.3-3.3-4.9-8.3-4.9-15.2s1.6-12 4.9-15.2c3.3-3.3 8.3-4.9 15.2-4.9h27.4c-.3-4.9-1.5-8.2-3.6-10.1-2.2-1.8-5.9-2.8-11.2-2.8h-7.3c-4.7 0-8.1.4-10.3 1.3-2.2.8-3.6 2.1-4.4 4-.6 1.5-1.2 2.6-1.9 3.1-.7.6-1.7.9-3 .9s-2.4-.3-3.3-1c-.8-.7-1.3-1.6-1.3-2.6 0-.4 0-.8.1-1 1-4.7 3.4-8.1 7.3-10.3 3.9-2.3 9.5-3.4 16.7-3.4l7.4-.1zm14.3 42.9c.2-.7.3-1.2.5-1.5v-10.4h-27.4c-4.4 0-7.3.8-8.8 2.3s-2.3 4.4-2.3 8.8.8 7.3 2.3 8.8 4.4 2.3 8.8 2.3h7c11.5-.1 18.2-3.5 19.9-10.3z"/>
    <path fill="currentColor" id="path72472" class="st1" d="M568.8 456.3c-.3 0-.6-.1-.8-.3s-.3-.5-.3-.8v-18c0-.3.1-.6.3-.8s.5-.3.8-.3h7.3c2.6 0 4.5.6 5.7 1.8s1.8 3.1 1.8 5.7v5.1c0 2.6-.6 4.5-1.8 5.7s-3.1 1.8-5.7 1.8l-7.3.1zm7.3-2.2c1.3 0 2.4-.2 3.2-.5s1.3-.9 1.7-1.7c.3-.8.5-1.8.5-3.2v-5.1c0-1.3-.2-2.4-.5-3.2s-.9-1.3-1.7-1.7c-.8-.3-1.8-.5-3.2-.5h-6.2V454l6.2.1z"/>
    <path fill="currentColor" id="path72474" class="st1" d="M593 456.3c-.3 0-.6-.1-.8-.3s-.3-.5-.3-.8v-12.8c0-.3.1-.6.3-.8s.5-.3.8-.3.6.1.8.3.3.4.3.8v12.8c0 .3-.1.6-.3.8s-.4.3-.8.3zm-.4-17.5c-.4 0-.7-.1-1-.3-.2-.2-.3-.6-.3-1v-.8c0-.8.4-1.2 1.3-1.2h.8c.4 0 .7.1.9.3s.3.5.3.9v.8c0 .4-.1.7-.3 1-.2.2-.5.3-.9.3h-.8z"/>
    <path fill="currentColor" id="path72476" class="st1" d="M615.4 441.3c.3 0 .6.1.8.3.2.2.3.4.3.8v15.8c0 1.4-.3 2.5-1 3.2-.7.7-1.7 1-3.2 1h-5.6c-1.2 0-2.2-.3-2.8-.8-.7-.5-1.1-1.2-1.2-2.3-.1-.4 0-.6.2-.8s.5-.3.9-.3c.3 0 .6.1.7.2.2.2.3.4.4.8s.3.6.6.7c.3.1.7.2 1.3.2h5.6c.8 0 1.3-.1 1.6-.4.3-.3.4-.8.4-1.6v-3.8c-1.1 1.3-2.7 1.9-4.9 1.9h-1.2c-2 0-3.4-.5-4.4-1.4-.9-.9-1.4-2.4-1.4-4.3V447c0-2 .5-3.4 1.4-4.4.9-.9 2.4-1.4 4.4-1.4h2.5c1.6 0 2.8.5 3.6 1.4v-.3c0-.3.1-.6.3-.8.1-.1.3-.2.7-.2zm-6 12.8c1.5 0 2.7-.2 3.6-.6s1.3-1 1.3-1.8V446c0-.9-.3-1.5-.9-1.9-.6-.4-1.5-.6-2.7-.6h-2.5c-.9 0-1.6.1-2.2.3-.5.2-.9.6-1.1 1.1s-.3 1.2-.3 2.2v3.5c0 .9.1 1.6.3 2.1s.6.9 1.1 1.1 1.2.3 2.2.3h1.2z"/>
    <path fill="currentColor" id="path72478" class="st1" d="M626.2 456.3c-.3 0-.6-.1-.8-.3s-.3-.5-.3-.8v-12.8c0-.3.1-.6.3-.8s.5-.3.8-.3.6.1.8.3.3.4.3.8v12.8c0 .3-.1.6-.3.8s-.4.3-.8.3zm-.4-17.5c-.4 0-.7-.1-1-.3-.2-.2-.3-.6-.3-1v-.8c0-.8.4-1.2 1.3-1.2h.8c.4 0 .7.1.9.3s.3.5.3.9v.8c0 .4-.1.7-.3 1-.2.2-.5.3-.9.3h-.8z"/>
    <path fill="currentColor" id="path72480" class="st1" d="M642.5 454.1c.7 0 1.1.4 1.1 1.1 0 .3-.1.6-.3.8-.2.2-.4.3-.8.3-1.9 0-3.4-.5-4.3-1.4-.9-.9-1.4-2.3-1.4-4.3v-7.2h-1.6c-.3 0-.6-.1-.8-.3-.2-.2-.3-.5-.3-.8s.1-.6.3-.8c.2-.2.5-.3.8-.3h1.6v-2.6c0-.7.4-1.1 1.1-1.1.7 0 1.1.4 1.1 1.1v2.6h3.6c.3 0 .6.1.8.3s.3.4.3.8-.1.6-.3.8c-.2.2-.4.3-.8.3H639v7.2c0 .9.1 1.6.3 2.1s.6.8 1.1 1c.5.3 1.2.4 2.1.4z"/>
    <path fill="currentColor" id="path72482" class="st1" d="M657.6 441.3c2 0 3.4.5 4.4 1.4.9.9 1.4 2.4 1.4 4.4v8.1c0 .3-.1.6-.3.8-.2.2-.4.3-.8.3-.3 0-.6-.1-.8-.3s-.3-.5-.3-.8v-1c-1.1 1.4-2.7 2.1-4.9 2.1h-1.7c-1.7 0-2.9-.4-3.7-1.2s-1.2-2-1.2-3.7.4-2.9 1.2-3.7 2-1.2 3.7-1.2h6.6c-.1-1.2-.4-2-.9-2.4s-1.4-.7-2.7-.7h-1.8c-1.1 0-2 .1-2.5.3s-.9.5-1.1 1c-.1.4-.3.6-.5.8-.2.1-.4.2-.7.2-.3 0-.6-.1-.8-.2-.2-.2-.3-.4-.3-.6v-.2c.2-1.1.8-2 1.8-2.5.9-.5 2.3-.8 4-.8l1.9-.1zm3.4 10.4c0-.2.1-.3.1-.4v-2.5h-6.6c-1.1 0-1.8.2-2.1.5-.4.4-.5 1.1-.5 2.1s.2 1.8.5 2.1c.4.4 1.1.5 2.1.5h1.7c2.8.1 4.4-.7 4.8-2.3z"/>
    <path fill="currentColor" id="path72484" class="st1" d="M676.4 456.3c-1.5 0-2.6-.4-3.3-1.1-.7-.7-1.1-1.8-1.1-3.3v-15.7c0-.3.1-.6.3-.8s.5-.3.8-.3.6.1.8.3.3.4.3.8v15.7c0 .9.2 1.5.5 1.8s.9.5 1.8.5c.4 0 .6.1.8.3.2.2.3.4.3.8 0 .3-.1.6-.3.8-.3.1-.6.2-.9.2z"/>
    <path fill="currentColor" id="path72486" class="st1" d="M698.4 456.3c-1.8 0-3.1-.4-4-1.1-.9-.7-1.5-1.9-1.6-3.5 0-.4.1-.6.2-.8.2-.2.5-.3.8-.3.7 0 1 .4 1.1 1.1.1.9.4 1.5 1 1.9.5.3 1.4.5 2.5.5h4.4c.9 0 1.6-.1 2.2-.3.5-.2.9-.6 1.1-1.1.2-.5.3-1.2.3-2.1s-.1-1.6-.3-2.2c-.2-.5-.6-.9-1.1-1.1s-1.2-.3-2.1-.3H699c-1.8 0-3.2-.4-4.1-1.3-.9-.9-1.3-2.3-1.3-4.1 0-1.9.4-3.2 1.3-4.1.9-.9 2.3-1.3 4.1-1.3h3.9c1.7 0 2.9.4 3.8 1.1.9.7 1.4 1.8 1.6 3.2 0 .4 0 .6-.2.8s-.5.3-.8.3-.6-.1-.8-.2c-.2-.2-.3-.5-.3-.8-.1-.8-.4-1.3-.9-1.7-.5-.3-1.3-.5-2.3-.5h-3.9c-1.2 0-2.1.2-2.5.7-.5.4-.7 1.3-.7 2.5s.2 2.1.7 2.6 1.3.7 2.6.7h3.9c2 0 3.4.5 4.3 1.4s1.4 2.4 1.4 4.3-.5 3.4-1.4 4.3-2.4 1.4-4.3 1.4h-4.7z"/>
    <path fill="currentColor" id="path72488" class="st1" d="M718.4 449.7v.9c0 .9.1 1.6.3 2.1s.6.9 1.1 1.1 1.2.3 2.2.3h2.5c1.1 0 2-.1 2.5-.4.5-.2.9-.7 1-1.3.1-.3.2-.6.4-.8s.4-.3.8-.3.6.1.8.3.3.5.2.8c-.2 1.3-.8 2.2-1.7 2.8s-2.3.9-4 .9H722c-2 0-3.4-.5-4.4-1.4-.9-.9-1.4-2.4-1.4-4.3v-3.5c0-2 .5-3.4 1.4-4.4.9-.9 2.4-1.4 4.4-1.4h2.5c2 0 3.4.5 4.4 1.4.9.9 1.4 2.4 1.4 4.4v1.5c0 .3-.1.6-.3.8s-.4.3-.8.3l-10.8.2zm0-2.2h9.6v-.4c0-.9-.1-1.6-.3-2.2-.2-.5-.6-.9-1.1-1.1s-1.2-.3-2.2-.3H722c-.9 0-1.6.1-2.2.3-.5.2-.9.6-1.1 1.1s-.3 1.2-.3 2.2v.4z"/>
    <path fill="currentColor" id="path72490" class="st1" d="M743.7 456.3c-2 0-3.4-.5-4.4-1.4-.9-.9-1.4-2.4-1.4-4.4V447c0-2 .5-3.4 1.4-4.4.9-.9 2.4-1.4 4.4-1.4h2.5c1.5 0 2.7.3 3.5.8s1.4 1.3 1.6 2.3c.1.4 0 .6-.2.8s-.5.3-.9.3c-.3 0-.5-.1-.7-.2-.2-.1-.3-.4-.4-.8-.1-.4-.4-.7-.9-.8-.4-.2-1.1-.2-2-.2h-2.5c-.9 0-1.6.1-2.2.3s-.9.6-1.1 1.1c-.2.5-.3 1.2-.3 2.2v3.5c0 .9.1 1.6.3 2.2.2.5.6.9 1.1 1.1s1.2.3 2.2.3h2.5c.9 0 1.5-.1 2-.2.4-.2.7-.4.9-.8.1-.3.3-.6.4-.8s.4-.2.7-.2c.4 0 .6.1.8.3s.3.5.2.8c-.2 1.1-.7 1.8-1.6 2.3-.8.5-2 .8-3.5.8h-2.4z"/>
    <path fill="currentColor" id="path72492" class="st1" d="M771.4 441.3c.3 0 .6.1.8.3s.3.4.3.8v12.8c0 .3-.1.6-.3.8s-.4.3-.8.3-.6-.1-.8-.3c-.2-.2-.3-.5-.3-.8v-.8c-1.1 1.3-2.7 1.9-4.9 1.9h-.8c-2 0-3.4-.5-4.4-1.4-.9-.9-1.4-2.4-1.4-4.4v-8.1c0-.3.1-.6.3-.8s.5-.3.8-.3.6.1.8.3.3.4.3.8v8.1c0 .9.1 1.6.3 2.2.2.5.6.9 1.1 1.1s1.2.3 2.2.3h.8c1.5 0 2.7-.2 3.6-.6s1.3-1 1.3-1.8v-9.2c0-.3.1-.6.3-.8.1-.3.4-.4.8-.4z"/>
    <path fill="currentColor" id="path72494" class="st1" d="M789.2 441.3c.3 0 .6.1.8.3s.3.4.3.8c0 .3-.1.6-.3.8s-.4.3-.8.3c-1.8 0-3.2.4-4.2 1.1-.9.7-1.4 1.8-1.4 3.1v7.5c0 .3-.1.6-.3.8s-.4.3-.8.3c-.3 0-.6-.1-.8-.3s-.3-.5-.3-.8v-12.8c0-.3.1-.6.3-.8s.5-.3.8-.3.6.1.8.3c.2.2.3.4.3.8v1.6c.6-.9 1.4-1.6 2.3-2 1-.4 2.1-.7 3.3-.7z"/>
    <path fill="currentColor" id="path72496" class="st1" d="M797.8 456.3c-.3 0-.6-.1-.8-.3s-.3-.5-.3-.8v-12.8c0-.3.1-.6.3-.8s.5-.3.8-.3.6.1.8.3c.2.2.3.4.3.8v12.8c0 .3-.1.6-.3.8s-.5.3-.8.3zm-.4-17.5c-.4 0-.7-.1-1-.3-.2-.2-.3-.6-.3-1v-.8c0-.8.4-1.2 1.3-1.2h.8c.4 0 .7.1.9.3s.3.5.3.9v.8c0 .4-.1.7-.3 1-.2.2-.5.3-.9.3h-.8z"/>
    <path fill="currentColor" id="path72498" class="st1" d="M814.1 454.1c.7 0 1.1.4 1.1 1.1 0 .3-.1.6-.3.8s-.4.3-.8.3c-1.9 0-3.4-.5-4.3-1.4s-1.4-2.3-1.4-4.3v-7.2h-1.6c-.3 0-.6-.1-.8-.3s-.3-.5-.3-.8.1-.6.3-.8c.2-.2.5-.3.8-.3h1.6v-2.6c0-.7.4-1.1 1.1-1.1s1.1.4 1.1 1.1v2.6h3.6c.3 0 .6.1.8.3s.3.4.3.8-.1.6-.3.8c-.2.2-.4.3-.8.3h-3.6v7.2c0 .9.1 1.6.3 2.1s.6.8 1.1 1c.4.3 1.1.4 2.1.4z"/>
    <path fill="currentColor" id="path72500" class="st1" d="M823.8 456.3c-.3 0-.6-.1-.8-.3s-.3-.5-.3-.8v-12.8c0-.3.1-.6.3-.8s.5-.3.8-.3.6.1.8.3.3.4.3.8v12.8c0 .3-.1.6-.3.8s-.4.3-.8.3zm-.4-17.5c-.4 0-.7-.1-1-.3-.2-.2-.3-.6-.3-1v-.8c0-.8.4-1.2 1.3-1.2h.8c.4 0 .7.1.9.3s.3.5.3.9v.8c0 .4-.1.7-.3 1-.2.2-.5.3-.9.3h-.8z"/>
    <path fill="currentColor" id="path72502" class="st1" d="M835.4 449.7v.9c0 .9.1 1.6.3 2.1s.6.9 1.1 1.1 1.2.3 2.2.3h2.5c1.1 0 2-.1 2.5-.4s.9-.7 1-1.3c.1-.3.2-.6.4-.8s.4-.3.8-.3.6.1.8.3.3.5.2.8c-.2 1.3-.8 2.2-1.7 2.8s-2.3.9-4 .9H839c-2 0-3.4-.5-4.4-1.4-.9-.9-1.4-2.4-1.4-4.3v-3.5c0-2 .5-3.4 1.4-4.4.9-.9 2.4-1.4 4.4-1.4h2.5c2 0 3.4.5 4.4 1.4.9.9 1.4 2.4 1.4 4.4v1.5c0 .3-.1.6-.3.8s-.4.3-.8.3l-10.8.2zm0-2.2h9.6v-.4c0-.9-.1-1.6-.3-2.2-.2-.5-.6-.9-1.1-1.1s-1.2-.3-2.2-.3H839c-.9 0-1.6.1-2.2.3-.5.2-.9.6-1.1 1.1s-.3 1.2-.3 2.2v.4z"/>
    <path fill="currentColor" id="path72504" class="st1" d="M859 456.3c-1.3 0-2.3-.3-3-.8s-1.2-1.4-1.3-2.4c-.1-.4 0-.6.2-.8s.5-.3.8-.3.6.1.8.3.3.4.4.8.3.7.6.9.8.2 1.5.2h5c.8 0 1.4-.1 1.7-.4s.5-.9.5-1.8-.2-1.4-.5-1.7-.9-.5-1.7-.5h-4.9c-2.8 0-4.2-1.4-4.2-4.2 0-1.4.3-2.5 1-3.2s1.8-1 3.2-1h4.7c2.3 0 3.7 1 4.1 3 .1.4 0 .6-.2.8s-.5.3-.8.3-.6-.1-.8-.2c-.2-.2-.3-.4-.4-.8s-.3-.6-.6-.7-.7-.2-1.3-.2h-4.7c-.8 0-1.4.1-1.6.4-.3.3-.4.8-.4 1.6s.1 1.3.4 1.6.8.4 1.6.4h4.9c1.5 0 2.6.4 3.3 1.1s1.1 1.8 1.1 3.3-.4 2.6-1.1 3.3c-.7.7-1.8 1.1-3.3 1.1l-5-.1z"/>
    <path fill="currentColor" id="svg_1" class="st1" d="M918.1 326.3l26.8 36.7 26.8-36.7H984L950.9 371l32.1 43.4h-12.3L944.9 379l-25.8 35.5h-12.4l32.1-43.4-33.1-44.7h12.4z"/>
  </g>
</svg>
