<svg width="112" height="30" viewBox="0 0 112 30" fill="none" xmlns="http://www.w3.org/2000/svg">
<path d="M15.6804 28.5037C15.644 28.5076 15.6071 28.5032 15.5726 28.491C15.538 28.4787 15.5066 28.4588 15.4807 28.4328C15.4548 28.4068 15.435 28.3753 15.4227 28.3407C15.4105 28.306 15.4062 28.269 15.4101 28.2324V23.7933C15.4062 23.7568 15.4105 23.7198 15.4227 23.6851C15.435 23.6504 15.4548 23.6189 15.4807 23.5929C15.5066 23.5669 15.538 23.5471 15.5726 23.5348C15.6071 23.5225 15.644 23.5182 15.6804 23.5221H17.4748C18.1139 23.5221 18.5809 23.67 18.8759 23.966C19.1709 24.2619 19.3183 24.7305 19.3183 25.3717V26.6294C19.3183 27.2706 19.1709 27.7392 18.8759 28.0351C18.5809 28.3311 18.1139 28.479 17.4748 28.479L15.6804 28.5037ZM17.4748 27.9611C17.7422 27.9664 18.0084 27.9246 18.2614 27.8378C18.4504 27.759 18.6007 27.6083 18.6793 27.4186C18.7679 27.1653 18.8095 26.8978 18.8022 26.6294V25.3717C18.8074 25.1034 18.7658 24.8364 18.6793 24.5825C18.6007 24.3928 18.4504 24.2421 18.2614 24.1633C18.0089 24.0744 17.7423 24.0326 17.4748 24.04H15.9508V27.9365L17.4748 27.9611Z" fill="white"/>
<path d="M21.5128 28.5037C21.4819 28.5075 21.4507 28.5033 21.4214 28.4914C21.3922 28.4795 21.3656 28.4602 21.3436 28.4349C21.3217 28.4097 21.3049 28.3791 21.2945 28.3454C21.2842 28.3118 21.2805 28.2759 21.2838 28.2403V25.1754C21.2849 25.1233 21.299 25.0726 21.3246 25.0295C21.3501 24.9864 21.3859 24.9527 21.4277 24.9325C21.4695 24.9122 21.5155 24.9063 21.5601 24.9154C21.6048 24.9246 21.6462 24.9483 21.6793 24.9839C21.7014 25.0085 21.7185 25.0385 21.7293 25.0716C21.7401 25.1047 21.7443 25.1402 21.7418 25.1754V28.2403C21.7434 28.3111 21.721 28.3798 21.6793 28.4319C21.6579 28.4573 21.6319 28.4769 21.6031 28.4893C21.5743 28.5017 21.5435 28.5066 21.5128 28.5037ZM21.4295 24.3134C21.3553 24.3154 21.2824 24.2902 21.2213 24.2416C21.1761 24.1731 21.1539 24.088 21.1589 24.0022V23.8106C21.1589 23.6191 21.2422 23.5233 21.4295 23.5233H21.5961C21.63 23.5177 21.6646 23.5212 21.6972 23.5337C21.7297 23.5461 21.7593 23.5671 21.7835 23.595C21.8078 23.6229 21.826 23.6569 21.8368 23.6943C21.8477 23.7318 21.8508 23.7716 21.8459 23.8106V24.0022C21.8476 24.0876 21.8257 24.1714 21.7834 24.2416C21.758 24.2674 21.7283 24.287 21.6961 24.2993C21.6639 24.3117 21.6299 24.3165 21.5961 24.3134H21.4295Z" fill="white"/>
<path d="M26.8631 24.6828C26.9357 24.681 27.0062 24.7074 27.0597 24.7564C27.0858 24.7817 27.1059 24.8124 27.1187 24.8463C27.1314 24.8802 27.1365 24.9166 27.1335 24.9527V28.8286C27.1586 29.1124 27.0702 29.3945 26.8877 29.6136C26.7801 29.7057 26.6549 29.7749 26.5196 29.8171C26.3844 29.8593 26.2419 29.8735 26.101 29.8589H24.7243C24.4793 29.8723 24.2368 29.8032 24.0359 29.6626C23.9464 29.5978 23.8731 29.513 23.822 29.4151C23.7708 29.3172 23.743 29.2088 23.7409 29.0984C23.728 29.0646 23.7258 29.0277 23.7346 28.9926C23.7434 28.9575 23.7628 28.9259 23.7901 28.9022C23.8202 28.8758 23.8553 28.8557 23.8933 28.843C23.9313 28.8304 23.9714 28.8255 24.0114 28.8286C24.0725 28.8262 24.1328 28.8434 24.1834 28.8776C24.2353 28.9316 24.2696 29.0001 24.2818 29.0739C24.2881 29.1133 24.3052 29.1502 24.3312 29.1806C24.3572 29.2109 24.3912 29.2334 24.4293 29.2456C24.5323 29.2798 24.6403 29.2964 24.7489 29.2947H26.1256C26.1939 29.3157 26.2667 29.3177 26.3361 29.3005C26.4055 29.2833 26.4689 29.2475 26.5195 29.1971C26.57 29.1466 26.6058 29.0834 26.6231 29.0141C26.6403 28.9449 26.6383 28.8722 26.6172 28.804V27.8719C26.4651 28.0357 26.2775 28.1628 26.0688 28.2435C25.8601 28.3243 25.6357 28.3566 25.4126 28.338H25.1176C24.7264 28.3649 24.3396 28.2421 24.0359 27.9945C23.7877 27.7012 23.6642 27.3226 23.6918 26.9397V26.0811C23.6647 25.6907 23.7878 25.3047 24.0359 25.0017C24.3375 24.7503 24.7259 24.6269 25.1176 24.6583H25.7322C25.8959 24.6479 26.0599 24.6733 26.2127 24.7326C26.3655 24.7919 26.5036 24.8838 26.6172 25.0017V24.9281C26.6154 24.8557 26.6418 24.7853 26.691 24.7319C26.7401 24.6945 26.8016 24.677 26.8631 24.6828V24.6828ZM25.3881 27.8228C25.69 27.8346 25.9912 27.7845 26.2731 27.6756C26.3664 27.6454 26.4477 27.5863 26.5052 27.5069C26.5626 27.4276 26.5933 27.332 26.5927 27.2341V25.8358C26.6006 25.7455 26.5843 25.6547 26.5454 25.5728C26.5065 25.4909 26.4464 25.4208 26.3714 25.3697C26.1689 25.2582 25.9385 25.2071 25.7076 25.2225H25.093C24.91 25.2176 24.7273 25.2425 24.5522 25.2961C24.4914 25.3208 24.4361 25.3574 24.3896 25.4037C24.3432 25.4501 24.3065 25.5052 24.2818 25.5659C24.2242 25.7398 24.1992 25.9227 24.208 26.1056V26.9642C24.2009 27.139 24.2259 27.3136 24.2818 27.4794C24.3065 27.5401 24.3432 27.5953 24.3896 27.6416C24.4361 27.6879 24.4914 27.7245 24.5522 27.7492C24.7264 27.8067 24.9098 27.8316 25.093 27.8228H25.3881Z" fill="white"/>
<path d="M29.3321 28.5037C29.3013 28.5075 29.27 28.5033 29.2408 28.4914C29.2115 28.4795 29.1849 28.4602 29.1629 28.4349C29.141 28.4097 29.1242 28.3791 29.1139 28.3454C29.1035 28.3118 29.0999 28.2759 29.1031 28.2403V25.1754C29.1042 25.1233 29.1184 25.0726 29.1439 25.0295C29.1694 24.9864 29.2052 24.9527 29.247 24.9325C29.2888 24.9122 29.3348 24.9063 29.3795 24.9154C29.4241 24.9246 29.4655 24.9483 29.4987 24.9839C29.5208 25.0085 29.5378 25.0385 29.5486 25.0716C29.5594 25.1047 29.5637 25.1402 29.5611 25.1754V28.2403C29.5627 28.3111 29.5403 28.3798 29.4987 28.4319C29.4773 28.4573 29.4512 28.4769 29.4224 28.4893C29.3936 28.5017 29.3628 28.5066 29.3321 28.5037ZM29.2489 24.3134C29.1746 24.3154 29.1017 24.2902 29.0407 24.2416C28.9954 24.1731 28.9733 24.088 28.9782 24.0022V23.8106C28.9782 23.6191 29.0615 23.5233 29.2489 23.5233H29.4154C29.4494 23.5177 29.484 23.5212 29.5165 23.5337C29.549 23.5461 29.5786 23.5671 29.6028 23.595C29.6271 23.6229 29.6454 23.6569 29.6562 23.6943C29.667 23.7318 29.6701 23.7716 29.6652 23.8106V24.0022C29.6669 24.0876 29.645 24.1714 29.6028 24.2416C29.5773 24.2674 29.5476 24.287 29.5154 24.2993C29.4832 24.3117 29.4492 24.3165 29.4154 24.3134H29.2489Z" fill="white"/>
<path d="M33.2501 27.9716C33.289 27.9678 33.3283 27.972 33.3652 27.984C33.4021 27.996 33.4356 28.0154 33.4632 28.0408C33.4909 28.0662 33.512 28.0969 33.5251 28.1308C33.5381 28.1646 33.5427 28.2008 33.5386 28.2365C33.5406 28.3076 33.5123 28.3767 33.4599 28.4291C33.4329 28.4547 33.4001 28.4744 33.3638 28.4869C33.3276 28.4994 33.2887 28.5043 33.2501 28.5014C32.8407 28.5284 32.436 28.4074 32.1224 28.1642C31.9893 28.0227 31.8883 27.8582 31.8252 27.6804C31.7622 27.5026 31.7384 27.315 31.7552 27.1287V25.3947H31.3356C31.2591 25.3947 31.1857 25.3668 31.1316 25.3171C31.0775 25.2675 31.0471 25.2001 31.0471 25.1298C31.0471 25.0596 31.0775 24.9922 31.1316 24.9425C31.1857 24.8928 31.2591 24.8649 31.3356 24.8649H31.7552V24.2388C31.7552 24.1685 31.7856 24.1011 31.8397 24.0514C31.8938 24.0018 31.9672 23.9738 32.0437 23.9738C32.1202 23.9738 32.1936 24.0018 32.2477 24.0514C32.3018 24.1011 32.3322 24.1685 32.3322 24.2388V24.8649H33.2763C33.3538 24.8631 33.429 24.889 33.4861 24.9372C33.529 24.9742 33.5585 25.0223 33.5706 25.0752C33.5828 25.1281 33.5771 25.1831 33.5543 25.2328C33.5315 25.2826 33.4926 25.3248 33.4429 25.3538C33.3932 25.3827 33.3351 25.397 33.2763 25.3947H32.3322V27.1287C32.3246 27.3003 32.3512 27.4717 32.4109 27.6344C32.4378 27.6909 32.4774 27.7416 32.5271 27.7831C32.5768 27.8246 32.6355 27.856 32.6994 27.8752C32.8706 27.9511 33.0605 27.9843 33.2501 27.9716V27.9716Z" fill="white"/>
<path d="M36.8554 24.8837C37.2166 24.8572 37.5738 24.9779 37.8542 25.2212C38.087 25.517 38.2011 25.8979 38.1721 26.2821V28.2351C38.1738 28.3063 38.1493 28.3755 38.104 28.4279C38.0806 28.4535 38.0522 28.4732 38.0208 28.4857C37.9894 28.4983 37.9558 28.5032 37.9223 28.5003C37.8887 28.5041 37.8546 28.4998 37.8227 28.4878C37.7908 28.4759 37.7618 28.4564 37.7378 28.431C37.7139 28.4056 37.6956 28.3748 37.6843 28.3409C37.673 28.307 37.669 28.2708 37.6726 28.2351V27.994C37.5387 28.1665 37.3679 28.3025 37.1743 28.3906C36.9808 28.4787 36.7702 28.5163 36.5602 28.5003H36.1743C36.0198 28.5151 35.864 28.4956 35.717 28.443C35.57 28.3904 35.4349 28.3058 35.3203 28.1946C35.2058 28.0835 35.1143 27.9482 35.0517 27.7974C34.9891 27.6466 34.9568 27.4836 34.9568 27.3189C34.9568 27.1541 34.9891 26.9911 35.0517 26.8403C35.1143 26.6895 35.2058 26.5543 35.3203 26.4431C35.4349 26.332 35.57 26.2474 35.717 26.1947C35.864 26.1421 36.0198 26.1226 36.1743 26.1374H37.6726C37.6789 25.9235 37.6055 25.7156 37.4683 25.5588C37.2868 25.4331 37.0715 25.3738 36.8554 25.39H36.4467C36.2551 25.3807 36.0633 25.4051 35.8792 25.4624C35.8239 25.4816 35.7731 25.513 35.7301 25.5546C35.6871 25.5961 35.6528 25.6469 35.6295 25.7035C35.611 25.7785 35.5714 25.8458 35.516 25.8963C35.4677 25.9265 35.413 25.9431 35.3571 25.9446C35.2939 25.943 35.2319 25.9265 35.1754 25.8963C35.1555 25.8783 35.1393 25.8562 35.1276 25.8314C35.1159 25.8065 35.109 25.7794 35.1073 25.7517V25.7035C35.1251 25.5756 35.1714 25.4541 35.2425 25.3492C35.3137 25.2443 35.4074 25.1591 35.516 25.1007C35.7996 24.9596 36.1111 24.8934 36.424 24.9078L36.8554 24.8837V24.8837ZM37.6272 27.3912C37.6272 27.343 37.6499 27.3189 37.6499 27.2948V26.692H36.1516C35.9843 26.6715 35.8155 26.7142 35.6749 26.8125C35.5792 26.9605 35.5387 27.141 35.5614 27.3189C35.5457 27.4963 35.5856 27.6743 35.6749 27.8252C35.8142 27.9268 35.9841 27.9698 36.1516 27.9457H36.5375C37.1732 27.9698 37.5364 27.777 37.6272 27.3912V27.3912Z" fill="white"/>
<path d="M41.3315 28.4955C41.1854 28.5164 41.0364 28.5029 40.8964 28.4561C40.7564 28.4092 40.6292 28.3303 40.5249 28.2256C40.4205 28.1209 40.3419 27.9932 40.2952 27.8527C40.2485 27.7122 40.235 27.5628 40.2559 27.4162V23.5648C40.2571 23.5114 40.2737 23.4594 40.3037 23.4153C40.3337 23.3711 40.3757 23.3366 40.4248 23.3159C40.4739 23.2951 40.5279 23.2891 40.5803 23.2984C40.6328 23.3077 40.6814 23.3321 40.7203 23.3685C40.7462 23.3938 40.7663 23.4245 40.7789 23.4584C40.7916 23.4923 40.7967 23.5287 40.7937 23.5648V27.4162C40.7745 27.4941 40.7757 27.5756 40.7972 27.6529C40.8186 27.7303 40.8596 27.8007 40.9162 27.8574C40.9727 27.9142 41.0429 27.9553 41.12 27.9769C41.197 27.9984 41.2783 27.9996 41.3559 27.9804C41.3922 27.9765 41.4289 27.9808 41.4632 27.993C41.4976 28.0052 41.5288 28.025 41.5546 28.0508C41.5804 28.0767 41.6001 28.108 41.6122 28.1425C41.6244 28.177 41.6287 28.2138 41.6248 28.2502C41.6267 28.3227 41.6004 28.3931 41.5515 28.4465C41.4812 28.4744 41.407 28.491 41.3315 28.4955V28.4955Z" fill="white"/>
<path d="M46.3986 28.4989C46.0635 28.5213 45.7309 28.4255 45.4539 28.2267C45.3356 28.119 45.2406 27.986 45.1754 27.8366C45.1103 27.6873 45.0764 27.525 45.076 27.3608C45.0744 27.2915 45.0908 27.2231 45.1233 27.1628C45.1747 27.1134 45.2424 27.0868 45.3122 27.0886C45.4775 27.0886 45.5484 27.1876 45.572 27.3608C45.5736 27.453 45.5959 27.5435 45.6369 27.6252C45.6779 27.7068 45.7365 27.7772 45.8082 27.8309C45.9922 27.9227 46.1951 27.9652 46.3986 27.9546H47.4378C47.6137 27.9595 47.7892 27.9344 47.9574 27.8804C48.0158 27.8555 48.0689 27.8186 48.1136 27.7718C48.1582 27.7251 48.1934 27.6694 48.2172 27.6082C48.2709 27.441 48.2949 27.2649 48.288 27.0886C48.2927 26.9043 48.2688 26.7205 48.2172 26.5443C48.1934 26.483 48.1582 26.4274 48.1136 26.3807C48.0689 26.3339 48.0158 26.297 47.9574 26.2721C47.7978 26.2159 47.6297 26.1907 47.4614 26.1979H46.5403C46.3661 26.2296 46.1872 26.2169 46.0186 26.161C45.85 26.1051 45.6968 26.0075 45.5718 25.8765C45.4467 25.7455 45.3536 25.585 45.3002 25.4084C45.2468 25.2318 45.2347 25.0444 45.265 24.8618C45.2479 24.6798 45.2663 24.496 45.3191 24.3216C45.3719 24.1473 45.4579 23.9859 45.572 23.8474C45.8413 23.6099 46.1896 23.4942 46.5403 23.5258H47.4614C47.7815 23.5062 48.0983 23.6023 48.3589 23.7979C48.5795 23.9994 48.7153 24.2839 48.7367 24.5897C48.7367 24.6887 48.7367 24.7381 48.6895 24.7876C48.6381 24.8371 48.5704 24.8637 48.5006 24.8618C48.4349 24.8602 48.3703 24.8433 48.3116 24.8124C48.2644 24.7585 48.239 24.6875 48.2408 24.6144C48.2354 24.5326 48.2137 24.453 48.1771 24.3805C48.1405 24.3081 48.0897 24.2445 48.0282 24.1938C47.8604 24.1041 47.6732 24.0615 47.485 24.0701H46.5639C46.4596 24.0436 46.3506 24.0456 46.2472 24.076C46.1439 24.1064 46.0497 24.1642 45.9739 24.2437C45.898 24.3232 45.8429 24.4218 45.8138 24.5301C45.7848 24.6383 45.7829 24.7526 45.8082 24.8618C45.7837 25.0905 45.8428 25.3203 45.9735 25.5051C46.1482 25.6458 46.3691 25.7081 46.5876 25.6783H47.5086C47.6914 25.6624 47.8753 25.6849 48.0497 25.7444C48.2241 25.8038 48.3854 25.8991 48.5242 26.0247C48.7392 26.2217 48.889 26.4851 48.9521 26.7769C49.0153 27.0687 48.9885 27.374 48.8757 27.6489C48.7629 27.9238 48.5698 28.1541 48.3242 28.3069C48.0785 28.4596 47.793 28.5268 47.5086 28.4989H46.3986Z" fill="white"/>
<path d="M51.1361 26.8617V27.0922C51.129 27.2748 51.1539 27.4571 51.2094 27.6302C51.2339 27.6936 51.2703 27.7512 51.3164 27.7996C51.3625 27.848 51.4174 27.8863 51.4778 27.912C51.6508 27.972 51.8328 27.9981 52.0147 27.9889H52.6249C52.8331 28.006 53.0422 27.9708 53.235 27.8864C53.2991 27.857 53.3551 27.8111 53.3978 27.7528C53.4405 27.6946 53.4684 27.626 53.479 27.5534C53.4964 27.4782 53.5298 27.4081 53.5767 27.3484C53.6308 27.299 53.7002 27.2718 53.7719 27.2718C53.8437 27.2718 53.913 27.299 53.9672 27.3484C53.9927 27.3744 54.0108 27.4073 54.0195 27.4436C54.0281 27.4798 54.0269 27.5178 54.016 27.5534C54.0007 27.6974 53.9556 27.8362 53.884 27.9601C53.8123 28.084 53.7158 28.19 53.6011 28.2707C53.3028 28.4424 52.9644 28.5223 52.6249 28.5012H52.0147C51.6263 28.5294 51.2423 28.4012 50.9409 28.1426C50.6945 27.8362 50.5719 27.4409 50.5992 27.041V26.1444C50.5724 25.7367 50.6945 25.3336 50.9409 25.0172C51.2402 24.7545 51.6258 24.6258 52.0147 24.6585H52.6249C53.0132 24.6303 53.3972 24.7586 53.6987 25.0172C53.9489 25.3314 54.0716 25.7362 54.0404 26.1444V26.5286C54.0422 26.6043 54.0159 26.6778 53.9672 26.7336C53.942 26.7607 53.9115 26.7817 53.8778 26.795C53.844 26.8083 53.8078 26.8136 53.7719 26.8104L51.1361 26.8617V26.8617ZM51.1361 26.2981H53.479V26.1956C53.4839 26.0048 53.4592 25.8145 53.4058 25.632C53.3813 25.5686 53.3449 25.511 53.2988 25.4626C53.2527 25.4142 53.1978 25.376 53.1374 25.3502C52.9644 25.2902 52.7824 25.2642 52.6005 25.2734H52.0147C51.833 25.2682 51.6516 25.2942 51.4778 25.3502C51.4174 25.376 51.3625 25.4142 51.3164 25.4626C51.2703 25.511 51.2339 25.5686 51.2094 25.632C51.1522 25.8136 51.1274 26.0046 51.1361 26.1956V26.2981Z" fill="white"/>
<path d="M57.2764 28.5013C56.8959 28.5293 56.5197 28.4019 56.2244 28.145C55.9793 27.8328 55.8591 27.4307 55.8897 27.0252V26.1345C55.8634 25.7295 55.9831 25.3291 56.2244 25.0148C56.5177 24.7539 56.8954 24.6259 57.2764 24.6585H57.8741C58.1652 24.6442 58.4545 24.7146 58.7109 24.8621C58.809 24.9264 58.8936 25.0116 58.9594 25.1123C59.0252 25.2131 59.0708 25.3271 59.0934 25.4474C59.106 25.4825 59.1081 25.5208 59.0996 25.5572C59.091 25.5936 59.0722 25.6264 59.0456 25.651C59.0163 25.6784 58.9822 25.6992 58.9453 25.7123C58.9083 25.7255 58.8692 25.7306 58.8304 25.7273C58.7715 25.7258 58.7139 25.7083 58.663 25.6764C58.6152 25.651 58.5913 25.5746 58.5674 25.4728C58.5546 25.42 58.5273 25.3724 58.489 25.3362C58.4506 25.2999 58.403 25.2766 58.3522 25.2693C58.1974 25.2199 58.0351 25.2026 57.8741 25.2184H57.2764C57.0983 25.2133 56.9207 25.2391 56.7504 25.2947C56.689 25.3161 56.6332 25.3526 56.5875 25.4012C56.5418 25.4499 56.5075 25.5093 56.4874 25.5746C56.4314 25.755 56.4071 25.9448 56.4157 26.1345V27.0252C56.4109 27.2148 56.4351 27.4039 56.4874 27.5851C56.5114 27.6481 56.5471 27.7053 56.5923 27.7534C56.6374 27.8015 56.6912 27.8394 56.7504 27.865C56.9198 27.9246 57.0981 27.9505 57.2764 27.9414H57.8741C58.0347 27.9425 58.195 27.9254 58.3522 27.8905C58.4442 27.8517 58.5204 27.7796 58.5674 27.6869C58.5944 27.6166 58.6264 27.5485 58.663 27.4833C58.687 27.4324 58.7587 27.4324 58.8304 27.4324C58.8656 27.4293 58.901 27.4345 58.9341 27.4477C58.9672 27.4609 58.9971 27.4818 59.0217 27.5088C59.0467 27.5346 59.0645 27.5673 59.0729 27.6033C59.0814 27.6393 59.0802 27.677 59.0695 27.7124C59.0553 27.8357 59.013 27.9535 58.9464 28.0555C58.8797 28.1575 58.7907 28.2406 58.687 28.2977C58.4306 28.4452 58.1413 28.5156 57.8502 28.5013H57.2764Z" fill="white"/>
<path d="M63.6754 24.8809C63.7448 24.8791 63.8121 24.905 63.8631 24.9533C63.888 24.9781 63.9072 25.0083 63.9194 25.0417C63.9315 25.075 63.9364 25.1108 63.9335 25.1463V28.2347C63.9353 28.306 63.91 28.3752 63.8631 28.4277C63.8111 28.4742 63.7444 28.4998 63.6754 28.4998C63.6065 28.4998 63.5398 28.4742 63.4877 28.4277C63.4408 28.3752 63.4156 28.306 63.4173 28.2347V28.0416C63.2721 28.2027 63.0931 28.3278 62.8939 28.4072C62.6947 28.4866 62.4806 28.5184 62.2677 28.5001H62.08C61.7066 28.5266 61.3375 28.4058 61.0477 28.1623C60.8071 27.8663 60.6892 27.4851 60.7192 27.1006V25.1463C60.7204 25.0937 60.7363 25.0427 60.7651 24.9993C60.7939 24.9558 60.8343 24.9219 60.8814 24.9015C60.9285 24.8811 60.9803 24.8751 61.0306 24.8843C61.0809 24.8935 61.1276 24.9174 61.165 24.9533C61.1898 24.9781 61.2091 25.0083 61.2212 25.0417C61.2334 25.075 61.2382 25.1108 61.2354 25.1463V27.1006C61.2307 27.2803 61.2545 27.4596 61.3057 27.6315C61.3293 27.6912 61.3643 27.7454 61.4087 27.791C61.453 27.8366 61.5057 27.8726 61.5638 27.8969C61.7301 27.9534 61.9051 27.9779 62.08 27.9693H62.2677C62.5559 27.9808 62.8434 27.9316 63.1123 27.8245C63.2014 27.7948 63.279 27.7367 63.3338 27.6586C63.3887 27.5805 63.4179 27.4865 63.4173 27.3902V25.1704C63.4156 25.0991 63.4408 25.0299 63.4877 24.9774C63.5112 24.905 63.5816 24.8809 63.6754 24.8809V24.8809Z" fill="white"/>
<path d="M68.0476 24.8809C68.1162 24.8791 68.1829 24.9051 68.2335 24.9533C68.2581 24.9782 68.2771 25.0084 68.2892 25.0418C68.3012 25.0752 68.306 25.111 68.3032 25.1466C68.3049 25.2179 68.2799 25.2872 68.2335 25.3398C68.2095 25.3654 68.1805 25.3852 68.1483 25.3977C68.1162 25.4102 68.0818 25.4152 68.0476 25.4122C67.7038 25.3948 67.3632 25.4875 67.0718 25.6779C66.9655 25.768 66.8808 25.8825 66.8243 26.0124C66.7679 26.1424 66.7413 26.2842 66.7466 26.4266V28.2381C66.7483 28.3094 66.7233 28.3787 66.6769 28.4313C66.6529 28.4569 66.6239 28.4767 66.5917 28.4892C66.5596 28.5017 66.5252 28.5067 66.491 28.5037C66.4565 28.5076 66.4217 28.5033 66.389 28.4913C66.3564 28.4793 66.3267 28.4598 66.3022 28.4344C66.2777 28.4089 66.259 28.378 66.2474 28.3441C66.2359 28.3101 66.2318 28.2739 66.2354 28.2381V25.1466C66.2366 25.094 66.2524 25.0429 66.2809 24.9994C66.3094 24.9559 66.3494 24.9219 66.396 24.9015C66.4427 24.8811 66.494 24.8751 66.5438 24.8843C66.5936 24.8935 66.6398 24.9175 66.6769 24.9533C66.7015 24.9782 66.7205 25.0084 66.7326 25.0418C66.7446 25.0752 66.7494 25.111 66.7466 25.1466V25.533C66.8773 25.3229 67.0626 25.1554 67.2809 25.0499C67.5237 24.943 67.784 24.8856 68.0476 24.8809V24.8809Z" fill="white"/>
<path d="M69.9267 28.5037C69.8855 28.5075 69.8439 28.5033 69.8048 28.4914C69.7658 28.4795 69.7303 28.4602 69.7011 28.4349C69.6718 28.4097 69.6494 28.3791 69.6356 28.3454C69.6218 28.3118 69.6169 28.2759 69.6213 28.2403V25.1754C69.6228 25.1233 69.6416 25.0726 69.6757 25.0295C69.7097 24.9864 69.7575 24.9527 69.8132 24.9325C69.8689 24.9122 69.9302 24.9063 69.9897 24.9154C70.0493 24.9246 70.1045 24.9483 70.1487 24.9839C70.1781 25.0085 70.2009 25.0385 70.2153 25.0716C70.2297 25.1047 70.2354 25.1402 70.232 25.1754V28.2403C70.2364 28.2759 70.2315 28.3118 70.2177 28.3454C70.2039 28.3791 70.1815 28.4097 70.1522 28.4349C70.123 28.4602 70.0875 28.4795 70.0485 28.4914C70.0095 28.5033 69.9678 28.5075 69.9267 28.5037V28.5037ZM69.8156 24.3134C69.7166 24.3154 69.6195 24.2902 69.538 24.2416C69.4777 24.1731 69.4481 24.088 69.4548 24.0022V23.8106C69.4548 23.6191 69.5658 23.5233 69.8156 23.5233H70.0377C70.0829 23.5177 70.1291 23.5212 70.1725 23.5337C70.2159 23.5461 70.2553 23.5671 70.2876 23.595C70.3199 23.6229 70.3443 23.6569 70.3587 23.6943C70.3732 23.7318 70.3773 23.7716 70.3708 23.8106V24.0022C70.373 24.0876 70.3439 24.1714 70.2875 24.2416C70.2535 24.2674 70.2139 24.287 70.171 24.2993C70.1281 24.3117 70.0828 24.3165 70.0377 24.3134H69.8156Z" fill="white"/>
<path d="M73.9566 27.9716C73.9955 27.9678 74.0349 27.972 74.0718 27.984C74.1086 27.996 74.1421 28.0154 74.1698 28.0408C74.1974 28.0662 74.2186 28.0969 74.2316 28.1308C74.2446 28.1646 74.2493 28.2008 74.2451 28.2365C74.2471 28.3076 74.2189 28.3767 74.1665 28.4291C74.1395 28.4547 74.1067 28.4744 74.0704 28.4869C74.0341 28.4994 73.9953 28.5043 73.9566 28.5014C73.5472 28.5284 73.1426 28.4074 72.8289 28.1642C72.6958 28.0227 72.5948 27.8582 72.5318 27.6804C72.4687 27.5026 72.4449 27.315 72.4618 27.1287V25.3947H72.0422C71.9656 25.3947 71.8923 25.3668 71.8382 25.3171C71.7841 25.2675 71.7537 25.2001 71.7537 25.1298C71.7537 25.0596 71.7841 24.9922 71.8382 24.9425C71.8923 24.8928 71.9656 24.8649 72.0422 24.8649H72.4618V24.2388C72.4618 24.1685 72.4922 24.1011 72.5463 24.0514C72.6004 24.0018 72.6737 23.9738 72.7502 23.9738C72.8268 23.9738 72.9001 24.0018 72.9542 24.0514C73.0083 24.1011 73.0387 24.1685 73.0387 24.2388V24.8649H73.9829C74.0604 24.8631 74.1356 24.889 74.1927 24.9372C74.2355 24.9742 74.265 25.0223 74.2772 25.0752C74.2894 25.1281 74.2837 25.1831 74.2608 25.2328C74.238 25.2826 74.1991 25.3248 74.1495 25.3538C74.0998 25.3827 74.0417 25.397 73.9829 25.3947H73.0387V27.1287C73.0311 27.3003 73.0578 27.4717 73.1174 27.6344C73.1443 27.6909 73.184 27.7416 73.2337 27.7831C73.2834 27.8246 73.3421 27.856 73.4059 27.8752C73.5751 27.9566 73.7667 27.9901 73.9566 27.9716V27.9716Z" fill="white"/>
<path d="M76.1361 28.5037C76.095 28.5075 76.0533 28.5033 76.0143 28.4914C75.9753 28.4795 75.9398 28.4602 75.9105 28.4349C75.8813 28.4097 75.8589 28.3791 75.8451 28.3454C75.8313 28.3118 75.8264 28.2759 75.8308 28.2403V25.1754C75.8322 25.1233 75.8511 25.0726 75.8851 25.0295C75.9192 24.9864 75.9669 24.9527 76.0226 24.9325C76.0784 24.9122 76.1397 24.9063 76.1992 24.9154C76.2587 24.9246 76.314 24.9483 76.3582 24.9839C76.3876 25.0085 76.4103 25.0385 76.4247 25.0716C76.4391 25.1047 76.4448 25.1402 76.4415 25.1754V28.2403C76.4435 28.3111 76.4137 28.3798 76.3582 28.4319C76.3296 28.4573 76.2949 28.4769 76.2565 28.4893C76.2181 28.5017 76.177 28.5066 76.1361 28.5037V28.5037ZM76.0251 24.3134C75.9261 24.3154 75.8289 24.2902 75.7475 24.2416C75.6872 24.1731 75.6576 24.088 75.6642 24.0022V23.8106C75.6642 23.6191 75.7753 23.5233 76.0251 23.5233H76.2472C76.2924 23.5177 76.3386 23.5212 76.3819 23.5337C76.4253 23.5461 76.4647 23.5671 76.4971 23.595C76.5294 23.6229 76.5538 23.6569 76.5682 23.6943C76.5826 23.7318 76.5868 23.7716 76.5803 23.8106V24.0022C76.5825 24.0876 76.5533 24.1714 76.497 24.2416C76.463 24.2674 76.4234 24.287 76.3805 24.2993C76.3376 24.3117 76.2923 24.3165 76.2472 24.3134H76.0251Z" fill="white"/>
<path d="M78.7338 26.8617V27.0922C78.7267 27.2748 78.7515 27.4571 78.807 27.6302C78.8316 27.6936 78.868 27.7512 78.9141 27.7996C78.9602 27.848 79.0151 27.8863 79.0755 27.912C79.2484 27.972 79.4304 27.9981 79.6124 27.9889H80.2225C80.4308 28.006 80.6399 27.9708 80.8327 27.8864C80.8946 27.8537 80.9486 27.8068 80.9909 27.7491C81.0331 27.6915 81.0625 27.6246 81.0767 27.5534C81.0941 27.4782 81.1275 27.4081 81.1743 27.3484C81.2285 27.299 81.2978 27.2718 81.3696 27.2718C81.4413 27.2718 81.5106 27.299 81.5648 27.3484C81.5904 27.3744 81.6085 27.4073 81.6171 27.4436C81.6258 27.4798 81.6245 27.5178 81.6136 27.5534C81.5983 27.6974 81.5533 27.8362 81.4816 27.9601C81.41 28.084 81.3134 28.19 81.1987 28.2707C80.9005 28.4424 80.5621 28.5223 80.2225 28.5012H79.6124C79.224 28.5294 78.84 28.4012 78.5385 28.1426C78.2921 27.8362 78.1695 27.4409 78.1969 27.041V26.1444C78.17 25.7367 78.2922 25.3336 78.5385 25.0172C78.8379 24.7545 79.2235 24.6258 79.6124 24.6585H80.2225C80.6109 24.6303 80.9949 24.7586 81.2964 25.0172C81.5465 25.3314 81.6692 25.7362 81.638 26.1444V26.5286C81.6399 26.6043 81.6136 26.6778 81.5648 26.7336C81.5397 26.7607 81.5092 26.7817 81.4754 26.795C81.4416 26.8083 81.4055 26.8136 81.3696 26.8104L78.7338 26.8617V26.8617ZM78.7338 26.2981H81.0767V26.1956C81.0816 26.0048 81.0568 25.8145 81.0035 25.632C80.9789 25.5686 80.9425 25.511 80.8964 25.4626C80.8503 25.4142 80.7954 25.376 80.735 25.3502C80.5621 25.2902 80.3801 25.2642 80.1981 25.2734H79.6124C79.4306 25.2682 79.2493 25.2942 79.0755 25.3502C79.0151 25.376 78.9602 25.4142 78.9141 25.4626C78.868 25.511 78.8316 25.5686 78.807 25.632C78.7499 25.8136 78.725 26.0046 78.7338 26.1956V26.2981Z" fill="white"/>
<path d="M84.5397 28.4762C84.2823 28.4887 84.0273 28.4214 83.8103 28.2839C83.7199 28.2148 83.6451 28.1277 83.5907 28.0284C83.5363 27.929 83.5034 27.8196 83.4942 27.707C83.4814 27.6738 83.4792 27.6376 83.4879 27.6032C83.4966 27.5688 83.5158 27.5379 83.5428 27.5146C83.5968 27.4683 83.6659 27.4428 83.7373 27.4428C83.8088 27.4428 83.8779 27.4683 83.9319 27.5146C83.9832 27.5676 84.0171 27.6346 84.0291 27.707C84.0479 27.7949 84.1002 27.8723 84.175 27.9233C84.2904 27.9699 84.416 27.9865 84.5397 27.9714H85.7555C85.9005 27.9895 86.0472 27.9554 86.1689 27.8752C86.2629 27.7512 86.3063 27.5967 86.2904 27.4425C86.2988 27.3698 86.2923 27.2962 86.2715 27.226C86.2506 27.1558 86.2157 27.0905 86.1689 27.0338C86.051 26.9444 85.9036 26.9015 85.7555 26.9136H84.5641C83.8832 26.9136 83.5428 26.5771 83.5428 25.9039C83.5173 25.7658 83.526 25.6236 83.5683 25.4895C83.6106 25.3555 83.6852 25.2336 83.7856 25.1343C83.886 25.035 84.0093 24.9613 84.1449 24.9195C84.2805 24.8776 84.4243 24.869 84.5641 24.8942H85.7069C86.2661 24.8942 86.6065 25.1346 86.7038 25.6154C86.7166 25.6486 86.7188 25.6848 86.7101 25.7192C86.7014 25.7536 86.6822 25.7845 86.6552 25.8078C86.6022 25.8558 86.5325 25.8817 86.4606 25.8799C86.393 25.8783 86.3266 25.8619 86.2661 25.8318C86.2148 25.7789 86.1809 25.7118 86.1689 25.6395C86.1627 25.6008 86.1457 25.5646 86.12 25.5349C86.0942 25.5052 86.0607 25.4832 86.023 25.4712C85.9211 25.4377 85.8142 25.4214 85.7069 25.4231H84.5641C84.3695 25.4231 84.2236 25.4472 84.175 25.5193C84.0801 25.5824 84.0108 25.6766 83.9792 25.7852C83.9475 25.8939 83.9557 26.0101 84.0021 26.1135C84.0486 26.2168 84.1304 26.3006 84.2331 26.3502C84.3359 26.3999 84.4531 26.4121 84.5641 26.3847H85.7555C85.9046 26.3707 86.055 26.3876 86.1971 26.4343C86.3391 26.4811 86.4698 26.5567 86.5806 26.6563C86.6914 26.7559 86.7799 26.8772 86.8405 27.0126C86.9011 27.148 86.9324 27.2945 86.9324 27.4425C86.9324 27.5906 86.9011 27.737 86.8405 27.8724C86.7799 28.0078 86.6914 28.1292 86.5806 28.2288C86.4698 28.3284 86.3391 28.404 86.1971 28.4507C86.055 28.4975 85.9046 28.5144 85.7555 28.5003L84.5397 28.4762V28.4762Z" fill="white"/>
<path d="M0.879977 18.3439C0.293326 18.3439 0 18.0493 0 17.4601V2.80875C0 2.21956 0.293326 1.92496 0.879977 1.92496C1.46663 1.92496 1.75995 2.21956 1.75995 2.80875V17.4601C1.75995 18.0493 1.46663 18.3439 0.879977 18.3439Z" fill="white"/>
<path d="M13.2977 6.12797C14.9012 6.12797 16.094 6.50113 16.8371 7.26709C17.5802 8.03304 17.9713 9.21144 17.9713 10.8219V17.4406C17.9791 17.5637 17.9604 17.687 17.9165 17.8022C17.8727 17.9174 17.8047 18.0218 17.7171 18.1083C17.6307 18.1878 17.5285 18.2481 17.4173 18.2853C17.3062 18.3226 17.1884 18.3359 17.0718 18.3244C16.8316 18.3345 16.5957 18.2579 16.4069 18.1083C16.3291 18.0167 16.27 17.9106 16.2331 17.796C16.1962 17.6814 16.1822 17.5606 16.1918 17.4406V10.8219C16.2162 10.2268 16.1231 9.63279 15.918 9.07396C15.8367 8.87558 15.7171 8.69534 15.5661 8.54364C15.415 8.39195 15.2356 8.27181 15.0381 8.19016C14.4813 7.98566 13.8901 7.89226 13.2977 7.9152H12.6132C11.4008 7.9152 10.4231 8.09196 9.71908 8.42584C9.0151 8.75972 8.64355 9.25072 8.64355 9.89884V17.4406C8.65133 17.5637 8.63265 17.687 8.58878 17.8022C8.54492 17.9174 8.4769 18.0218 8.38934 18.1083C8.30289 18.1878 8.20076 18.2481 8.08958 18.2853C7.97839 18.3226 7.86066 18.3359 7.74402 18.3244C7.50347 18.3371 7.26671 18.2601 7.07915 18.1083C7.00131 18.0167 6.94224 17.9106 6.90533 17.796C6.86842 17.6814 6.85439 17.5606 6.86404 17.4406V7.01177C6.85367 6.77647 6.93029 6.54564 7.07915 6.36365C7.25834 6.19344 7.49747 6.10161 7.74402 6.10833C7.86367 6.10049 7.98357 6.11932 8.09513 6.16346C8.20669 6.20759 8.30716 6.27596 8.38934 6.36365C8.47456 6.44776 8.54124 6.54892 8.58503 6.66057C8.62882 6.77223 8.64876 6.89188 8.64355 7.01177V7.69916C9.50398 6.63861 10.8337 6.10833 12.6328 6.10833H13.2977V6.12797Z" fill="white"/>
<path d="M31.5425 6.2261C31.8945 6.40286 32.0901 6.63854 32.0901 6.93314C32.0795 7.09606 32.0397 7.25574 31.9727 7.40449L27.3186 17.6565C27.2347 17.861 27.0903 18.0347 26.905 18.1541C26.7196 18.2735 26.5022 18.3329 26.2822 18.3243C26.068 18.3275 25.8582 18.2629 25.6826 18.1394C25.5071 18.016 25.3748 17.8402 25.3044 17.6369L20.9828 7.38485C20.9185 7.24301 20.8851 7.08899 20.885 6.93314C20.885 6.59926 21.0806 6.36358 21.4521 6.2261C21.581 6.16579 21.7207 6.13238 21.8628 6.1279C22.2148 6.1279 22.4494 6.3243 22.6059 6.69746L26.3409 15.5158L30.3692 6.67782C30.4237 6.51792 30.5264 6.37905 30.6631 6.28049C30.7997 6.18193 30.9636 6.1286 31.1319 6.1279C31.2739 6.13238 31.4137 6.16579 31.5425 6.2261V6.2261Z" fill="white"/>
<path d="M36.2353 12.9624V13.6695C36.2122 14.2581 36.3052 14.8455 36.5091 15.3978C36.5904 15.5962 36.71 15.7764 36.861 15.9281C37.0121 16.0798 37.1915 16.1999 37.389 16.2816C37.9458 16.4861 38.537 16.5795 39.1294 16.5565H41.1436C42.0627 16.5565 42.7276 16.4583 43.1578 16.2619C43.3674 16.1667 43.5513 16.0226 43.6941 15.8415C43.837 15.6605 43.9347 15.4477 43.9791 15.221C44.0113 14.9923 44.1138 14.7795 44.2724 14.6122C44.4616 14.4654 44.6956 14.3891 44.9345 14.3962C45.1735 14.4034 45.4025 14.4936 45.5826 14.6515C45.6635 14.7402 45.7218 14.8473 45.7524 14.9636C45.7831 15.0799 45.7852 15.2019 45.7586 15.3192C45.6022 16.3601 45.1328 17.1261 44.3898 17.6171C43.6467 18.1081 42.5516 18.3634 41.1632 18.3634H39.149C37.565 18.3634 36.3722 17.9903 35.6095 17.2243C34.8469 16.4583 34.4753 15.28 34.4753 13.6891V10.8217C34.4753 9.21121 34.8469 8.01318 35.6095 7.26686C36.3722 6.52054 37.565 6.10811 39.149 6.12775H41.1632C42.7667 6.12775 43.9595 6.5009 44.7026 7.26686C45.4457 8.03282 45.8368 9.21121 45.8368 10.8217V12.059C45.8446 12.1821 45.8259 12.3054 45.7821 12.4207C45.7382 12.5359 45.6702 12.6403 45.5826 12.7268C45.4962 12.8062 45.394 12.8665 45.2829 12.9038C45.1717 12.941 45.0539 12.9543 44.9373 12.9428L36.2353 12.9624V12.9624ZM36.2353 11.1752H44.0573V10.8217C44.0817 10.2266 43.9886 9.63256 43.7835 9.07373C43.7022 8.87535 43.5826 8.69511 43.4316 8.54342C43.2806 8.39173 43.1011 8.27159 42.9036 8.18994C42.3468 7.98544 41.7556 7.89204 41.1632 7.91498H39.149C38.3864 7.89534 37.8193 7.9739 37.4086 8.1703C37.2077 8.25689 37.0262 8.38326 36.875 8.54185C36.7238 8.70045 36.606 8.88803 36.5286 9.09337C36.325 9.65259 36.232 10.2463 36.2548 10.8413V11.1752H36.2353Z" fill="white"/>
<path d="M53.19 18.344C52.147 18.344 51.3453 18.128 50.7847 17.6959C50.1828 17.2005 49.797 16.4889 49.7092 15.7123C49.6732 15.5925 49.6707 15.4651 49.7017 15.3439C49.7327 15.2227 49.7962 15.1124 49.8852 15.0249C49.9767 14.9389 50.0844 14.8721 50.2019 14.8283C50.3194 14.7844 50.4444 14.7645 50.5696 14.7696C50.6801 14.7604 50.7913 14.7749 50.8958 14.8121C51.0003 14.8493 51.0958 14.9085 51.1758 14.9856C51.3336 15.1712 51.4413 15.3943 51.4887 15.6337C51.5114 15.7811 51.5672 15.9214 51.6519 16.0439C51.7366 16.1664 51.848 16.2679 51.9776 16.3408C52.2318 16.4782 52.6424 16.5372 53.19 16.5372H57.2183C57.9027 16.5372 58.3721 16.4193 58.6263 16.1836C58.8805 15.9283 58.9978 15.457 58.9978 14.7499C58.9978 14.0429 58.8805 13.5715 58.6263 13.3358C58.3721 13.1002 57.9223 12.9627 57.2183 12.9627H53.2486C50.9607 12.9627 49.8265 11.8236 49.8265 9.5257C49.8265 8.34731 50.1003 7.48315 50.6674 6.93323C51.2345 6.38331 52.0949 6.08871 53.2486 6.08871H57.0814C58.9783 6.08871 60.0733 6.91359 60.3862 8.5437C60.4221 8.6635 60.4247 8.79089 60.3937 8.91206C60.3627 9.03324 60.2992 9.14357 60.2102 9.2311C60.1187 9.31705 60.011 9.38388 59.8935 9.42771C59.776 9.47154 59.651 9.4915 59.5258 9.48642C59.3059 9.50354 59.0881 9.43298 58.9196 9.29002C58.7618 9.10444 58.6541 8.88128 58.6067 8.6419C58.5814 8.51304 58.5255 8.3922 58.4438 8.28963C58.3621 8.18707 58.257 8.10579 58.1374 8.05271C57.8097 7.91583 57.4553 7.85539 57.101 7.87595H53.2682C52.6033 7.87595 52.1731 7.97415 51.9384 8.19019C51.7038 8.40623 51.6256 8.85794 51.6256 9.5257C51.6256 10.1935 51.7233 10.6059 51.9384 10.8416C52.1536 11.0773 52.6033 11.1951 53.2682 11.1951H57.2379C58.4307 11.1951 59.3302 11.4897 59.8973 12.0789C60.4644 12.6681 60.7773 13.5519 60.7773 14.7499C60.7773 15.948 60.484 16.8514 59.8973 17.4406C59.3107 18.0298 58.4307 18.3047 57.2379 18.3047L53.19 18.344Z" fill="white"/>
<path d="M70.2024 16.5567C70.7891 16.5567 71.0824 16.8513 71.0824 17.4405C71.0902 17.5636 71.0715 17.6869 71.0276 17.8021C70.9838 17.9173 70.9157 18.0217 70.8282 18.1082C70.7417 18.1877 70.6396 18.248 70.5284 18.2852C70.4172 18.3225 70.2995 18.3358 70.1829 18.3243C68.5989 18.3243 67.4452 17.9511 66.6825 17.2048C65.9199 16.4585 65.5679 15.2997 65.5679 13.7285V7.89547H64.2577C64.0175 7.90564 63.7816 7.82899 63.5928 7.67943C63.515 7.58782 63.4559 7.48168 63.419 7.36709C63.3821 7.2525 63.3681 7.13172 63.3777 7.01168C63.3673 6.77638 63.444 6.54555 63.5928 6.36356C63.772 6.19335 64.0111 6.10152 64.2577 6.10824H65.5679V3.98713C65.5679 3.39793 65.8612 3.10333 66.4478 3.10333C67.0345 3.10333 67.3278 3.39793 67.3278 3.98713V6.10824H70.2611C70.3807 6.1004 70.5006 6.11923 70.6122 6.16337C70.7237 6.20751 70.8242 6.27587 70.9064 6.36356C70.9916 6.44767 71.0583 6.54883 71.1021 6.66048C71.1459 6.77214 71.1658 6.89179 71.1606 7.01168C71.1712 7.13211 71.155 7.2534 71.1132 7.3668C71.0715 7.48019 71.0052 7.58287 70.9191 7.66741C70.8331 7.75196 70.7294 7.81627 70.6156 7.85571C70.5018 7.89515 70.3807 7.90873 70.2611 7.89547H67.3278V13.7285C67.3278 14.4748 67.406 15.0444 67.582 15.4568C67.7522 15.8375 68.0596 16.1393 68.4425 16.3014C69.0088 16.4929 69.6052 16.5795 70.2024 16.5567V16.5567Z" fill="white"/>
<path d="M80.2539 6.1279C81.8574 6.1279 83.0502 6.50106 83.7933 7.26701C84.5364 8.03297 84.9275 9.21137 84.9275 10.8218V17.4405C84.9353 17.5636 84.9166 17.6869 84.8728 17.8022C84.8289 17.9174 84.7609 18.0218 84.6733 18.1083C84.5869 18.1877 84.4847 18.248 84.3736 18.2853C84.2624 18.3225 84.1446 18.3358 84.028 18.3243C83.7878 18.3345 83.5519 18.2578 83.3631 18.1083C83.2853 18.0166 83.2262 17.9105 83.1893 17.7959C83.1524 17.6813 83.1384 17.5605 83.148 17.4405V16.6549C82.2876 17.7744 80.9579 18.3439 79.1588 18.3439H77.7899C76.4406 18.3439 75.4433 18.0297 74.8176 17.3816C74.1918 16.7335 73.8594 15.7515 73.8594 14.3963C73.8594 13.0412 74.1723 12.0395 74.8176 11.411C75.4629 10.7826 76.4406 10.4487 77.7899 10.4487H83.148C83.0894 9.48633 82.8547 8.83821 82.444 8.46505C82.0334 8.09189 81.2903 7.91513 80.2539 7.91513H78.8264C77.9073 7.91513 77.2424 7.99369 76.8122 8.17045C76.6201 8.22993 76.4435 8.33116 76.2948 8.46693C76.1461 8.6027 76.029 8.7697 75.9518 8.95605C75.8821 9.18769 75.7541 9.39737 75.5802 9.56489C75.4122 9.69278 75.2039 9.75554 74.9936 9.74165C74.7624 9.75212 74.5347 9.68281 74.3483 9.54525C74.2716 9.48366 74.2092 9.40611 74.1653 9.31795C74.1214 9.22979 74.0971 9.13312 74.094 9.03461C74.0887 8.96849 74.0953 8.90195 74.1136 8.83821C74.1863 8.41547 74.3523 8.01441 74.5993 7.66439C74.8463 7.31438 75.1681 7.02427 75.5411 6.8153C76.3038 6.36358 77.3988 6.14754 78.8068 6.14754L80.2539 6.1279ZM83.0502 14.5534C83.0706 14.4515 83.1034 14.3526 83.148 14.2588V12.2163H77.7899C76.9295 12.2163 76.3624 12.3734 76.0691 12.668C75.7758 12.9626 75.6193 13.5322 75.6193 14.3963C75.6193 15.2605 75.7758 15.83 76.0691 16.1246C76.3624 16.4192 76.9295 16.5763 77.7899 16.5763H79.1588C81.4076 16.5567 82.7178 15.8889 83.0502 14.5534Z" fill="white"/>
<path d="M89.562 0.864441L94.8028 8.07229L100.044 0.864441H102.449L95.9761 9.64349L102.253 18.1672H99.848L94.8028 11.195L89.7576 18.1672H87.3328L93.6099 9.64349L87.1372 0.864441H89.562Z" fill="white"/>
<path d="M108.785 7.20819C108.146 7.20819 107.584 7.07683 107.098 6.81411C106.612 6.55139 106.233 6.17974 105.96 5.69915C105.694 5.21856 105.561 4.66429 105.561 4.03632C105.561 3.40835 105.694 2.85407 105.96 2.37349C106.233 1.8929 106.612 1.52124 107.098 1.25852C107.584 0.995802 108.146 0.864441 108.785 0.864441C109.424 0.864441 109.987 0.995802 110.472 1.25852C110.958 1.52124 111.334 1.8929 111.601 2.37349C111.867 2.85407 112 3.40835 112 4.03632C112 4.66429 111.867 5.21856 111.601 5.69915C111.334 6.17974 110.958 6.55139 110.472 6.81411C109.987 7.07683 109.424 7.20819 108.785 7.20819ZM108.785 6.59304C109.291 6.59304 109.734 6.48731 110.113 6.27585C110.499 6.05799 110.795 5.75682 111.002 5.37235C111.215 4.98788 111.321 4.54254 111.321 4.03632C111.321 3.5301 111.215 3.08475 111.002 2.70028C110.795 2.31582 110.499 2.01785 110.113 1.80639C109.734 1.58853 109.291 1.47959 108.785 1.47959C108.279 1.47959 107.833 1.58853 107.447 1.80639C107.068 2.01785 106.772 2.31582 106.559 2.70028C106.346 3.08475 106.239 3.5301 106.239 4.03632C106.239 4.54254 106.346 4.98788 106.559 5.37235C106.772 5.75682 107.068 6.05799 107.447 6.27585C107.833 6.48731 108.279 6.59304 108.785 6.59304ZM107.417 2.22931H109.185C109.504 2.22931 109.76 2.30941 109.953 2.4696C110.153 2.62339 110.253 2.82844 110.253 3.08475V3.45C110.253 3.62301 110.193 3.7768 110.073 3.91137C109.96 4.04593 109.804 4.14525 109.604 4.20933V4.21894C109.724 4.28302 109.817 4.36312 109.883 4.45923C109.957 4.55535 110.02 4.69632 110.073 4.88215L110.373 5.81449H109.614L109.324 4.90137C109.278 4.74759 109.211 4.63865 109.125 4.57458C109.038 4.50409 108.925 4.46885 108.785 4.46885H108.156V5.81449H107.417V2.22931ZM108.965 3.87292C109.138 3.87292 109.271 3.83447 109.364 3.75758C109.464 3.68068 109.514 3.57816 109.514 3.45V3.15204C109.514 3.05592 109.474 2.97903 109.394 2.92136C109.321 2.86368 109.221 2.83485 109.095 2.83485H108.156V3.87292H108.965Z" fill="white"/>
</svg>
