<svg width="18" height="20" viewBox="0 0 18 20" fill="none" xmlns="http://www.w3.org/2000/svg">
<path fill-rule="evenodd" clip-rule="evenodd" d="M3 3.75C2.30964 3.75 1.75 4.30964 1.75 5V17C1.75 17.6904 2.30964 18.25 3 18.25H15C15.6904 18.25 16.25 17.6904 16.25 17V5C16.25 4.30964 15.6904 3.75 15 3.75H3ZM0.25 5C0.25 3.48122 1.48122 2.25 3 2.25H15C16.5188 2.25 17.75 3.48122 17.75 5V17C17.75 18.5188 16.5188 19.75 15 19.75H3C1.48122 19.75 0.25 18.5188 0.25 17V5Z" fill="#778194"/>
<path fill-rule="evenodd" clip-rule="evenodd" d="M13 0.25C13.4142 0.25 13.75 0.585786 13.75 1V5C13.75 5.41421 13.4142 5.75 13 5.75C12.5858 5.75 12.25 5.41421 12.25 5V1C12.25 0.585786 12.5858 0.25 13 0.25Z" fill="#778194"/>
<path fill-rule="evenodd" clip-rule="evenodd" d="M5 0.25C5.41421 0.25 5.75 0.585786 5.75 1V5C5.75 5.41421 5.41421 5.75 5 5.75C4.58579 5.75 4.25 5.41421 4.25 5V1C4.25 0.585786 4.58579 0.25 5 0.25Z" fill="#778194"/>
<path fill-rule="evenodd" clip-rule="evenodd" d="M0.25 9C0.25 8.58579 0.585786 8.25 1 8.25H17C17.4142 8.25 17.75 8.58579 17.75 9C17.75 9.41421 17.4142 9.75 17 9.75H1C0.585786 9.75 0.25 9.41421 0.25 9Z" fill="#778194"/>
</svg>
