<svg width="24" height="24" viewBox="0 0 24 24" fill="none" xmlns="http://www.w3.org/2000/svg">
<path d="M12 2C6.5 2 2 6.5 2 12C2 17.5 6.5 22 12 22C17.5 22 22 17.5 22 12C22 6.5 17.5 2 12 2ZM12 20.625C7.25 20.625 3.375 16.75 3.375 12C3.375 7.25 7.25 3.375 12 3.375C16.75 3.375 20.625 7.25 20.625 12C20.625 16.75 16.75 20.625 12 20.625Z" fill="#778194"/>
<path d="M11.6557 10.4C11.9508 10.7 12.3443 10.9 12.7377 11C13.3279 11.2 13.8197 11.5 14.3115 12C14.8033 12.4 15 13.1 15 13.7C15 14.4 14.7049 15.2 14.2131 15.7C13.8197 16.1 13.3279 16.4 12.7377 16.5V18H11.6557V16.7C11.0656 16.7 10.4754 16.4 9.98361 16.1C9.59016 15.8 9.29508 15.5 9 15.1L9.98361 14C10.1803 14.3 10.4754 14.6 10.7705 14.8C11.0656 15.1 11.5574 15.2 11.9508 15.2C12.2459 15.2 12.6393 15.1 12.9344 14.8C13.1311 14.5 13.2295 14.2 13.2295 13.9C13.2295 13.6 13.1311 13.3 12.9344 13.1C12.6393 12.9 12.2459 12.7 11.9508 12.6C11.3607 12.3 10.6721 12 10.1803 11.5C9.78689 11.1 9.59016 10.5 9.59016 9.9C9.4918 9.3 9.78689 8.7 10.1803 8.2C10.5738 7.8 11.0656 7.5 11.5574 7.4V6H12.7377V7.4C13.1311 7.4 13.5246 7.5 13.8197 7.7C14.1148 7.9 14.4098 8.1 14.7049 8.4L13.8197 9.6C13.5246 9.2 13.0328 8.9 12.4426 8.9C12.1475 8.8 11.8525 9 11.5574 9.2C11.3607 9.3 11.2623 9.6 11.2623 9.8C11.2623 10 11.3607 10.3 11.6557 10.4Z" fill="#778194"/>
</svg>
