<svg width="24" height="25" viewBox="0 0 24 25" fill="none" xmlns="http://www.w3.org/2000/svg">
<path d="M4.00098 7.50391H20.001" stroke="#D3D9E5" stroke-width="1.5" stroke-linecap="round" stroke-linejoin="round"/>
<path d="M10.001 11.4961V17.4961" stroke="#D3D9E5" stroke-width="1.5" stroke-linecap="round" stroke-linejoin="round"/>
<path d="M13.999 11.4961V17.4961" stroke="#D3D9E5" stroke-width="1.5" stroke-linecap="round" stroke-linejoin="round"/>
<path d="M4.99902 7.50391L5.99902 19.5039C5.99902 20.0343 6.20974 20.543 6.58481 20.9181C6.95988 21.2932 7.46859 21.5039 7.99902 21.5039H15.999C16.5295 21.5039 17.0382 21.2932 17.4132 20.9181C17.7883 20.543 17.999 20.0343 17.999 19.5039L18.999 7.50391" stroke="#D3D9E5" stroke-width="1.5" stroke-linecap="round" stroke-linejoin="round"/>
<path d="M9 7.5V4.5C9 4.23478 9.10536 3.98043 9.29289 3.79289C9.48043 3.60536 9.73478 3.5 10 3.5H14C14.2652 3.5 14.5196 3.60536 14.7071 3.79289C14.8946 3.98043 15 4.23478 15 4.5V7.5" stroke="#D3D9E5" stroke-width="1.5" stroke-linecap="round" stroke-linejoin="round"/>
</svg>
