<svg width="32" height="32" viewBox="0 0 32 32" fill="none" xmlns="http://www.w3.org/2000/svg">
<path fill-rule="evenodd" clip-rule="evenodd" d="M15.5555 5.74515C16.6362 5.55469 17.7475 5.55767 18.827 5.75396C19.9066 5.95024 20.9372 6.33672 21.8595 6.89496C22.782 7.45328 23.5802 8.17391 24.2044 9.02012C24.8289 9.86665 25.2662 10.8216 25.4859 11.8314C25.6179 12.4382 25.6693 13.0559 25.6403 13.6712H25.8333C27.3362 13.6712 28.7776 14.2682 29.8403 15.3309C30.903 16.3936 31.5 17.8349 31.5 19.3378C31.5 20.8407 30.903 22.2821 29.8403 23.3448C28.7776 24.4075 27.3362 25.0045 25.8333 25.0045C25.281 25.0045 24.8333 24.5568 24.8333 24.0045C24.8333 23.4522 25.281 23.0045 25.8333 23.0045C26.8058 23.0045 27.7384 22.6182 28.4261 21.9306C29.1137 21.2429 29.5 20.3103 29.5 19.3378C29.5 18.3654 29.1137 17.4327 28.4261 16.7451C27.7384 16.0575 26.8058 15.6712 25.8333 15.6712H24.5C24.1963 15.6712 23.9091 15.5331 23.7193 15.2961C23.5295 15.059 23.4578 14.7485 23.5243 14.4521C23.6869 13.7274 23.6894 12.982 23.5316 12.2565C23.3737 11.5308 23.0573 10.8342 22.5949 10.2073C22.1323 9.58019 21.532 9.03455 20.8239 8.60597C20.1157 8.17731 19.3157 7.8756 18.4693 7.7217C17.6227 7.56779 16.7502 7.56543 15.9026 7.7148C15.055 7.86417 14.2529 8.16161 13.5417 8.58656C12.1047 9.44511 11.1371 10.7618 10.809 12.2235C10.7033 12.6947 10.2759 13.023 9.7933 13.0037C8.59194 12.9556 7.41519 13.309 6.46482 13.9959C5.5153 14.6822 4.85376 15.6559 4.5817 16.7441C4.30983 17.8316 4.44083 18.9764 4.95598 19.9855C5.47171 20.9958 6.34399 21.8131 7.43291 22.2878C7.93919 22.5085 8.17071 23.0978 7.95002 23.6041C7.72934 24.1104 7.14002 24.3419 6.63374 24.1212C5.13355 23.4673 3.90739 22.3302 3.17467 20.8949C2.44137 19.4584 2.25154 17.8185 2.64141 16.2591C3.03109 14.7003 3.97269 13.3294 5.29322 12.375C6.39837 11.5762 7.71345 11.1086 9.07582 11.0163C9.66526 9.30597 10.8861 7.84343 12.5159 6.86967C13.4417 6.3165 14.4747 5.93561 15.5555 5.74515Z" fill="currentColor"/>
<path fill-rule="evenodd" clip-rule="evenodd" d="M16.5 16.3384C17.0523 16.3384 17.5 16.7861 17.5 17.3384V29.3384C17.5 29.8907 17.0523 30.3384 16.5 30.3384C15.9477 30.3384 15.5 29.8907 15.5 29.3384V17.3384C15.5 16.7861 15.9477 16.3384 16.5 16.3384Z" fill="currentColor"/>
<path fill-rule="evenodd" clip-rule="evenodd" d="M11.7929 24.6313C12.1834 24.2407 12.8166 24.2407 13.2071 24.6313L16.5 27.9242L19.7929 24.6313C20.1834 24.2407 20.8166 24.2407 21.2071 24.6313C21.5976 25.0218 21.5976 25.655 21.2071 26.0455L17.2071 30.0455C16.8166 30.436 16.1834 30.436 15.7929 30.0455L11.7929 26.0455C11.4024 25.655 11.4024 25.0218 11.7929 24.6313Z" fill="currentColor"/>
</svg>
