<svg width="215" height="195" viewBox="0 0 215 195" fill="none" xmlns="http://www.w3.org/2000/svg">
<circle cx="93" cy="78" r="78" fill="#DEE6EF"/>
<path d="M33.28 117.08V160.61L114.51 113.71V70.1797L33.28 117.08Z" fill="#817BC0"/>
<g style="mix-blend-mode:multiply">
<path d="M83.48 189.59L112.58 194.07L199.93 144.38L167.09 125.66L158.93 123.93L83.48 189.59Z" fill="#B8BAF0"/>
</g>
<path d="M33.28 160.611L114.51 113.711L164.71 142.691L83.48 189.591L33.28 160.611Z" fill="#94A3D9"/>
<path d="M83.48 146.07V189.59L33.28 160.61V117.08L83.48 146.07Z" fill="#B2ACF4"/>
<path d="M164.71 99.1697V142.69L114.51 113.71V70.1797L164.71 99.1697Z" fill="#B2ACF4"/>
<path d="M83.48 146.06V189.59L164.71 142.69V99.1699L83.48 146.06Z" fill="#817BC0"/>
<path d="M83.48 146.07V151.37L164.71 104.47V99.1699L83.48 146.07Z" fill="#98AFFF"/>
<path d="M83.48 146.07V151.36L33.28 122.38V117.08L83.48 146.07Z" fill="#F4F3FF"/>
<path d="M83.48 146.07L164.71 99.1699L188.87 104.09L107.64 150.98L83.48 146.07Z" fill="#C5D5FF"/>
<path d="M33.2801 117.08L14.5601 93.6305L95.7801 46.7305L114.51 70.1805L33.2801 117.08Z" fill="#C5D5FF"/>
<path d="M52.46 142.029L83.48 146.059L33.28 117.079L2.26001 113.039L52.46 142.029Z" fill="#C5D5FF"/>
<path d="M164.71 99.1695L178.85 77.9995L128.65 49.0195L114.51 70.1795L164.71 99.1695Z" fill="#C5D5FF"/>
<rect x="146" y="38" width="54" height="9" rx="4.5" fill="white"/>
<rect y="65" width="33" height="7" rx="3.5" fill="white"/>
<rect x="10" y="42" width="23" height="5" rx="2.5" fill="#DEE6EF"/>
<rect x="156" y="47" width="23" height="5" rx="2.5" fill="#DEE6EF"/>
<rect y="72" width="23" height="5" rx="2.5" fill="#DEE6EF"/>
<rect x="8" y="47" width="23" height="5" rx="2.5" fill="white"/>
<ellipse cx="177.148" cy="98.9552" rx="20.0481" ry="22.0601" transform="rotate(-28.5164 177.148 98.9552)" fill="#9CA9F1" fill-opacity="0.12"/>
<rect width="26.0395" height="5.90175" rx="2.95088" transform="matrix(0.778043 0.628211 -0.570348 0.821403 191.917 107.846)" fill="#6486C8"/>
<path d="M194.763 89.3841C200.58 100.089 197.408 113.053 187.679 118.339C177.95 123.625 165.348 119.232 159.532 108.526C153.715 97.821 156.887 84.8574 166.616 79.5714C176.345 74.2854 188.947 78.6787 194.763 89.3841ZM163.644 106.292C168.103 114.498 177.763 117.866 185.221 113.814C192.678 109.762 195.11 99.8247 190.651 91.6185C186.192 83.4123 176.532 80.0446 169.075 84.0966C161.617 88.1486 159.186 98.0858 163.644 106.292Z" fill="#9CA9F1"/>
</svg>
