<svg width="18" height="18" viewBox="0 0 18 18" fill="none" xmlns="http://www.w3.org/2000/svg">
<path d="M9 1.5C4.86 1.5 1.5 4.86 1.5 9C1.5 13.14 4.86 16.5 9 16.5C13.14 16.5 16.5 13.14 16.5 9C16.5 4.86 13.14 1.5 9 1.5ZM10.0575 13.5675V15H8.055V13.5525C6.7725 13.2825 5.685 12.4575 5.6025 11.0025H7.0725C7.1475 11.79 7.6875 12.405 9.06 12.405C10.53 12.405 10.86 11.67 10.86 11.2125C10.86 10.59 10.53 10.005 8.8575 9.6075C6.9975 9.1575 5.7225 8.3925 5.7225 6.855C5.7225 5.565 6.765 4.725 8.055 4.4475V3H10.0575V4.4625C11.4525 4.8 12.15 5.8575 12.195 7.005H10.725C10.6875 6.1725 10.245 5.6025 9.06 5.6025C7.935 5.6025 7.26 6.1125 7.26 6.8325C7.26 7.4625 7.7475 7.875 9.2625 8.265C10.7775 8.655 12.3975 9.3075 12.3975 11.1975C12.39 12.57 11.3625 13.32 10.0575 13.5675Z" fill="#93CF89"/>
</svg>
