<svg width="150" height="38" viewBox="0 0 150 38" fill="none" xmlns="http://www.w3.org/2000/svg">
<path d="M1.1883 24.6552C0.3961 24.6552 0 24.25 0 23.4398V3.29143C0 2.48118 0.3961 2.07605 1.1883 2.07605C1.9805 2.07605 2.3766 2.48118 2.3766 3.29143V23.4398C2.3766 24.25 1.9805 24.6552 1.1883 24.6552Z" fill="#0C469C"/>
<path d="M17.9569 7.85599C20.1223 7.85599 21.7331 8.36915 22.7365 9.42248C23.74 10.4758 24.2681 12.0963 24.2681 14.311V23.4129C24.2786 23.5822 24.2534 23.7518 24.1942 23.9102C24.1349 24.0687 24.0431 24.2122 23.9248 24.3312C23.8081 24.4405 23.6702 24.5234 23.5201 24.5746C23.3699 24.6258 23.2109 24.6441 23.0534 24.6283C22.729 24.6423 22.4105 24.5369 22.1556 24.3312C22.0505 24.2052 21.9707 24.0592 21.9209 23.9016C21.871 23.7441 21.8521 23.578 21.8651 23.4129V14.311C21.898 13.4927 21.7724 12.6758 21.4954 11.9073C21.3857 11.6345 21.2241 11.3866 21.0202 11.178C20.8162 10.9694 20.5739 10.8042 20.3071 10.6919C19.5552 10.4107 18.7569 10.2822 17.9569 10.3138H17.0327C15.3955 10.3138 14.0752 10.5568 13.1245 11.016C12.1739 11.4751 11.6721 12.1503 11.6721 13.0416V23.4129C11.6826 23.5822 11.6574 23.7518 11.5982 23.9102C11.539 24.0687 11.4471 24.2122 11.3289 24.3312C11.2121 24.4405 11.0742 24.5234 10.9241 24.5746C10.7739 24.6258 10.6149 24.6441 10.4574 24.6283C10.1326 24.6457 9.81288 24.5399 9.55961 24.3312C9.4545 24.2052 9.37473 24.0592 9.32489 23.9016C9.27504 23.7441 9.25609 23.578 9.26913 23.4129V9.07137C9.25513 8.7478 9.35859 8.43036 9.55961 8.18009C9.80158 7.94602 10.1245 7.81974 10.4574 7.82898C10.619 7.8182 10.7809 7.84409 10.9316 7.90479C11.0822 7.96549 11.2179 8.0595 11.3289 8.18009C11.4439 8.29576 11.534 8.43487 11.5931 8.58842C11.6523 8.74196 11.6792 8.9065 11.6721 9.07137V10.0167C12.834 8.55821 14.6297 7.82898 17.0591 7.82898H17.9569V7.85599Z" fill="#0C469C"/>
<path d="M42.5943 7.99094C43.0696 8.23402 43.3337 8.55812 43.3337 8.96324C43.3194 9.1873 43.2657 9.40689 43.1752 9.61145L36.8904 23.7099C36.7771 23.9911 36.5821 24.2299 36.3319 24.3942C36.0816 24.5584 35.788 24.6401 35.4909 24.6282C35.2016 24.6326 34.9183 24.5437 34.6812 24.374C34.4442 24.2043 34.2655 23.9624 34.1705 23.6829L28.3347 9.58444C28.2478 9.38939 28.2028 9.17757 28.2026 8.96324C28.2026 8.5041 28.4667 8.18 28.9684 7.99094C29.1424 7.908 29.3311 7.86205 29.523 7.8559C29.9983 7.8559 30.3152 8.12598 30.5264 8.63914L35.5701 20.766L41.0099 8.61213C41.0834 8.39225 41.2221 8.20127 41.4067 8.06574C41.5913 7.9302 41.8125 7.85686 42.0397 7.8559C42.2316 7.86205 42.4203 7.908 42.5943 7.99094Z" fill="#0C469C"/>
<path d="M48.9313 17.2549V18.2272C48.9001 19.0366 49.0257 19.8444 49.301 20.6039C49.4108 20.8767 49.5723 21.1246 49.7763 21.3332C49.9802 21.5418 50.2226 21.707 50.4893 21.8193C51.2412 22.1005 52.0395 22.229 52.8395 22.1974H55.5594C56.8005 22.1974 57.6983 22.0624 58.2793 21.7923C58.5623 21.6614 58.8106 21.4631 59.0035 21.2141C59.1965 20.9651 59.3284 20.6726 59.3883 20.3608C59.4318 20.0463 59.5703 19.7536 59.7844 19.5236C60.0399 19.3217 60.3559 19.2168 60.6785 19.2266C61.0012 19.2365 61.3105 19.3605 61.5537 19.5776C61.6629 19.6996 61.7416 19.8469 61.783 20.0068C61.8244 20.1668 61.8272 20.3346 61.7914 20.4959C61.5801 21.9273 60.9463 22.9807 59.9429 23.6559C58.9394 24.3311 57.4607 24.6822 55.5858 24.6822H52.8659C50.7269 24.6822 49.1161 24.169 48.0863 23.1157C47.0564 22.0624 46.5547 20.4419 46.5547 18.2542V14.3109C46.5547 12.0962 47.0564 10.4487 48.0863 9.4224C49.1161 8.39607 50.7269 7.82889 52.8659 7.8559H55.5858C57.7511 7.8559 59.3619 8.36906 60.3654 9.4224C61.3688 10.4757 61.897 12.0962 61.897 14.3109V16.0125C61.9075 16.1818 61.8822 16.3514 61.823 16.5098C61.7638 16.6683 61.6719 16.8118 61.5537 16.9308C61.437 17.0401 61.299 17.123 61.1489 17.1742C60.9988 17.2254 60.8398 17.2437 60.6823 17.2279L48.9313 17.2549ZM48.9313 14.7971H59.494V14.3109C59.5269 13.4926 59.4012 12.6757 59.1243 11.9072C59.0145 11.6344 58.853 11.3865 58.649 11.1779C58.445 10.9693 58.2027 10.8041 57.936 10.6918C57.1841 10.4106 56.3858 10.2821 55.5858 10.3137H52.8659C51.836 10.2867 51.0702 10.3947 50.5157 10.6648C50.2444 10.7839 49.9993 10.9576 49.7952 11.1757C49.591 11.3938 49.4319 11.6518 49.3274 11.9342C49.0524 12.7032 48.9269 13.5197 48.9577 14.3379V14.7971H48.9313Z" fill="#0C469C"/>
<path d="M71.8265 24.6553C70.4181 24.6553 69.3354 24.3582 68.5784 23.764C67.7657 23.0827 67.2447 22.1041 67.1261 21.0362C67.0776 20.8714 67.0741 20.6962 67.116 20.5296C67.1578 20.363 67.2435 20.2112 67.3637 20.0909C67.4874 19.9727 67.6328 19.8808 67.7914 19.8205C67.9501 19.7602 68.1188 19.7328 68.288 19.7398C68.4372 19.7271 68.5874 19.747 68.7285 19.7983C68.8696 19.8495 68.9985 19.9308 69.1066 20.0369C69.3197 20.2921 69.4651 20.599 69.5291 20.9281C69.5597 21.1308 69.6351 21.3237 69.7494 21.4922C69.8638 21.6607 70.0142 21.8003 70.1892 21.9004C70.5325 22.0895 71.0871 22.1705 71.8265 22.1705H77.2662C78.1905 22.1705 78.8242 22.0085 79.1675 21.6844C79.5108 21.3333 79.6692 20.6851 79.6692 19.7128C79.6692 18.7404 79.5108 18.0922 79.1675 17.7681C78.8242 17.444 78.2169 17.255 77.2662 17.255H71.9057C68.8161 17.255 67.2845 15.6885 67.2845 12.5285C67.2845 10.908 67.6542 9.71961 68.42 8.96337C69.1858 8.20713 70.3477 7.802 71.9057 7.802H77.0814C79.6428 7.802 81.1216 8.93636 81.5441 11.1781C81.5926 11.3428 81.5961 11.518 81.5542 11.6846C81.5123 11.8513 81.4266 12.003 81.3065 12.1234C81.1828 12.2416 81.0374 12.3335 80.8788 12.3937C80.7201 12.454 80.5513 12.4815 80.3822 12.4745C80.0852 12.498 79.7912 12.401 79.5636 12.2044C79.3505 11.9492 79.205 11.6423 79.1411 11.3131C79.1069 11.1359 79.0315 10.9697 78.9212 10.8287C78.8108 10.6876 78.6689 10.5759 78.5073 10.5029C78.0648 10.3146 77.5863 10.2315 77.1078 10.2598H71.9321C71.0343 10.2598 70.4533 10.3948 70.1364 10.6919C69.8195 10.989 69.7139 11.6102 69.7139 12.5285C69.7139 13.4468 69.846 14.014 70.1364 14.3381C70.4269 14.6622 71.0343 14.8242 71.9321 14.8242H77.2926C78.9034 14.8242 80.1181 15.2293 80.8839 16.0396C81.6497 16.8499 82.0722 18.0652 82.0722 19.7128C82.0722 21.3603 81.6761 22.6027 80.8839 23.4129C80.0917 24.2232 78.9034 24.6013 77.2926 24.6013L71.8265 24.6553Z" fill="#0C469C"/>
<path d="M94.7998 22.1974C95.592 22.1974 95.9881 22.6025 95.9881 23.4127C95.9985 23.582 95.9733 23.7517 95.9141 23.9101C95.8549 24.0685 95.763 24.2121 95.6448 24.331C95.528 24.4403 95.3901 24.5233 95.24 24.5745C95.0898 24.6256 94.9308 24.6439 94.7733 24.6281C92.6344 24.6281 91.0764 24.115 90.0466 23.0886C89.0167 22.0623 88.5414 20.4688 88.5414 18.3081V10.2866H86.7721C86.4477 10.3006 86.1292 10.1952 85.8743 9.98952C85.7692 9.86353 85.6894 9.71756 85.6396 9.55998C85.5897 9.4024 85.5708 9.23631 85.5838 9.07123C85.5698 8.74765 85.6733 8.43021 85.8743 8.17995C86.1163 7.94587 86.4392 7.81959 86.7721 7.82884H88.5414V4.91192C88.5414 4.10166 88.9375 3.69653 89.7297 3.69653C90.5219 3.69653 90.918 4.10166 90.918 4.91192V7.82884H94.879C95.0405 7.81806 95.2025 7.84394 95.3531 7.90464C95.5037 7.96534 95.6394 8.05935 95.7504 8.17995C95.8655 8.29561 95.9555 8.43473 96.0147 8.58827C96.0738 8.74181 96.1007 8.90636 96.0937 9.07123C96.1079 9.23685 96.0861 9.40364 96.0297 9.55958C95.9733 9.71552 95.8838 9.85672 95.7676 9.97298C95.6514 10.0893 95.5114 10.1777 95.3577 10.2319C95.2041 10.2862 95.0405 10.3048 94.879 10.2866H90.918V18.3081C90.918 19.3345 91.0236 20.1177 91.2613 20.6849C91.491 21.2084 91.9062 21.6233 92.4232 21.8463C93.188 22.1097 93.9933 22.2287 94.7998 22.1974Z" fill="#0C469C"/>
<path d="M108.373 7.8559C110.538 7.8559 112.149 8.36906 113.152 9.42239C114.156 10.4757 114.684 12.0962 114.684 14.3109V23.4128C114.694 23.5821 114.669 23.7517 114.61 23.9101C114.551 24.0686 114.459 24.2121 114.341 24.3311C114.224 24.4404 114.086 24.5233 113.936 24.5745C113.786 24.6257 113.627 24.644 113.469 24.6282C113.145 24.6422 112.826 24.5368 112.571 24.3311C112.466 24.2051 112.387 24.0591 112.337 23.9016C112.287 23.744 112.268 23.5779 112.281 23.4128V22.3325C111.119 23.8719 109.323 24.6552 106.894 24.6552H105.046C103.223 24.6552 101.877 24.2231 101.032 23.3318C100.187 22.4405 99.7378 21.0901 99.7378 19.2265C99.7378 17.3629 100.16 15.9855 101.032 15.1212C101.903 14.2569 103.223 13.7978 105.046 13.7978H112.281C112.202 12.4744 111.885 11.5831 111.33 11.0699C110.776 10.5567 109.772 10.3137 108.373 10.3137H106.445C105.204 10.3137 104.306 10.4217 103.725 10.6648C103.466 10.7466 103.227 10.8858 103.027 11.0725C102.826 11.2592 102.668 11.4889 102.563 11.7451C102.469 12.0637 102.296 12.352 102.062 12.5824C101.835 12.7583 101.553 12.8446 101.269 12.8255C100.957 12.8399 100.65 12.7445 100.398 12.5554C100.294 12.4707 100.21 12.364 100.151 12.2428C100.092 12.1216 100.059 11.9886 100.055 11.8532C100.047 11.7622 100.056 11.6707 100.081 11.5831C100.179 11.0017 100.403 10.4502 100.737 9.96886C101.07 9.48752 101.505 9.08857 102.009 8.80119C103.039 8.18 104.517 7.8829 106.419 7.8829L108.373 7.8559ZM112.149 19.4425C112.176 19.3024 112.221 19.1664 112.281 19.0374V16.2285H105.046C103.884 16.2285 103.118 16.4446 102.722 16.8497C102.326 17.2549 102.114 18.0381 102.114 19.2265C102.114 20.4149 102.326 21.1981 102.722 21.6032C103.118 22.0084 103.884 22.2244 105.046 22.2244H106.894C109.931 22.1974 111.7 21.2791 112.149 19.4425Z" fill="#0C469C"/>
<path d="M28.7041 35.7287C28.6649 35.733 28.6253 35.7282 28.5882 35.7148C28.551 35.7013 28.5173 35.6796 28.4895 35.6511C28.4616 35.6226 28.4403 35.5881 28.4272 35.5502C28.4141 35.5122 28.4094 35.4717 28.4136 35.4316V30.5701C28.4094 30.53 28.4141 30.4895 28.4272 30.4516C28.4403 30.4136 28.4616 30.3791 28.4895 30.3506C28.5173 30.3221 28.551 30.3004 28.5882 30.2869C28.6253 30.2735 28.6649 30.2687 28.7041 30.273H30.6318C31.3183 30.273 31.8201 30.435 32.1369 30.7591C32.4538 31.0832 32.6123 31.5964 32.6123 32.2986V33.6761C32.6123 34.3783 32.4538 34.8914 32.1369 35.2155C31.8201 35.5396 31.3183 35.7017 30.6318 35.7017L28.7041 35.7287ZM30.6318 35.1345C30.919 35.1402 31.2049 35.0945 31.4768 34.9995C31.6799 34.9132 31.8413 34.7481 31.9257 34.5403C32.0209 34.2629 32.0656 33.97 32.0577 33.6761V32.2986C32.0633 32.0049 32.0186 31.7124 31.9257 31.4344C31.8413 31.2266 31.6799 31.0615 31.4768 30.9752C31.2055 30.8778 30.9191 30.8321 30.6318 30.8402H28.9945V35.1075L30.6318 35.1345Z" fill="#0C469C"/>
<path d="M35.0948 35.7288C35.0556 35.733 35.016 35.7283 34.9789 35.7148C34.9418 35.7014 34.908 35.6797 34.8802 35.6512C34.8523 35.6227 34.8311 35.5882 34.818 35.5502C34.8048 35.5122 34.8002 35.4717 34.8043 35.4317V31.9746C34.8057 31.9158 34.8236 31.8586 34.856 31.81C34.8884 31.7614 34.9338 31.7234 34.9869 31.7005C35.0399 31.6777 35.0982 31.671 35.1548 31.6813C35.2115 31.6916 35.264 31.7184 35.3061 31.7585C35.3341 31.7863 35.3557 31.8201 35.3694 31.8575C35.3831 31.8948 35.3885 31.9348 35.3853 31.9746V35.4317C35.3873 35.5115 35.3589 35.589 35.3061 35.6478C35.2789 35.6764 35.2458 35.6985 35.2093 35.7125C35.1728 35.7265 35.1337 35.7321 35.0948 35.7288ZM34.9892 31.0023C34.895 31.0045 34.8026 30.9761 34.7251 30.9213C34.6677 30.844 34.6396 30.748 34.6459 30.6512V30.4351C34.6459 30.219 34.7515 30.111 34.9892 30.111H35.2004C35.2435 30.1047 35.2874 30.1087 35.3287 30.1227C35.3699 30.1368 35.4074 30.1605 35.4382 30.1919C35.4689 30.2234 35.4921 30.2618 35.5058 30.304C35.5196 30.3462 35.5235 30.3911 35.5173 30.4351V30.6512C35.5194 30.7475 35.4917 30.842 35.4381 30.9213C35.4058 30.9503 35.3681 30.9725 35.3273 30.9864C35.2865 31.0003 35.2433 31.0057 35.2004 31.0023H34.9892Z" fill="#0C469C"/>
<path d="M41.0097 31.6774C41.0877 31.6754 41.1634 31.7045 41.2209 31.7585C41.2489 31.7863 41.2705 31.82 41.2842 31.8574C41.2979 31.8948 41.3033 31.9348 41.3001 31.9745V36.2419C41.3271 36.5543 41.2321 36.865 41.0361 37.1061C40.9206 37.2075 40.786 37.2838 40.6408 37.3302C40.4955 37.3767 40.3424 37.3923 40.191 37.3762H38.7123C38.4491 37.391 38.1887 37.3149 37.9729 37.1602C37.8767 37.0887 37.798 36.9955 37.743 36.8877C37.688 36.7799 37.6582 36.6605 37.656 36.539C37.6421 36.5017 37.6397 36.4611 37.6492 36.4224C37.6586 36.3838 37.6794 36.349 37.7088 36.3229C37.7411 36.2938 37.7788 36.2717 37.8196 36.2578C37.8604 36.2439 37.9036 36.2385 37.9465 36.2419C38.0121 36.2393 38.0769 36.2582 38.1313 36.2959C38.1871 36.3553 38.2239 36.4307 38.237 36.5119C38.2437 36.5554 38.2621 36.596 38.29 36.6294C38.318 36.6628 38.3545 36.6876 38.3954 36.701C38.506 36.7387 38.6221 36.7569 38.7387 36.755H40.2175C40.2909 36.7781 40.369 36.7804 40.4436 36.7614C40.5181 36.7425 40.5862 36.7031 40.6405 36.6476C40.6949 36.592 40.7333 36.5224 40.7518 36.4462C40.7704 36.3699 40.7682 36.2899 40.7456 36.2149V35.1885C40.5821 35.3689 40.3807 35.5088 40.1565 35.5977C39.9323 35.6866 39.6913 35.7222 39.4517 35.7017H39.1348C38.7146 35.7314 38.2991 35.5962 37.9729 35.3236C37.7063 35.0006 37.5736 34.5838 37.6032 34.1622V33.2169C37.5741 32.7871 37.7063 32.3621 37.9729 32.0285C38.2968 31.7517 38.714 31.6159 39.1348 31.6504H39.7949C39.9707 31.639 40.1469 31.6669 40.311 31.7322C40.4752 31.7975 40.6235 31.8986 40.7456 32.0285V31.9475C40.7436 31.8677 40.772 31.7902 40.8248 31.7315C40.8776 31.6903 40.9436 31.671 41.0097 31.6774ZM39.4253 35.1345C39.7496 35.1475 40.0732 35.0923 40.3759 34.9725C40.4762 34.9392 40.5635 34.8742 40.6252 34.7868C40.6869 34.6994 40.7198 34.5941 40.7192 34.4863V32.9468C40.7277 32.8474 40.7102 32.7475 40.6684 32.6573C40.6266 32.5671 40.5621 32.4899 40.4815 32.4337C40.264 32.3109 40.0165 32.2546 39.7685 32.2716H39.1084C38.9117 32.2662 38.7155 32.2936 38.5274 32.3526C38.4621 32.3798 38.4027 32.4201 38.3528 32.4711C38.3029 32.5222 38.2635 32.5829 38.237 32.6497C38.1751 32.8411 38.1483 33.0426 38.1577 33.2439V34.1892C38.1501 34.3816 38.1769 34.5739 38.237 34.7564C38.2635 34.8233 38.3029 34.884 38.3528 34.935C38.4027 34.986 38.4621 35.0263 38.5274 35.0535C38.7146 35.1167 38.9115 35.1442 39.1084 35.1345H39.4253Z" fill="#0C469C"/>
<path d="M43.8617 35.7288C43.8225 35.733 43.7829 35.7283 43.7458 35.7148C43.7086 35.7014 43.6749 35.6797 43.647 35.6512C43.6192 35.6227 43.5979 35.5882 43.5848 35.5502C43.5717 35.5122 43.567 35.4717 43.5712 35.4317V31.9746C43.5725 31.9158 43.5905 31.8586 43.6229 31.81C43.6553 31.7614 43.7007 31.7234 43.7537 31.7005C43.8067 31.6777 43.865 31.671 43.9217 31.6813C43.9783 31.6916 44.0308 31.7184 44.0729 31.7585C44.1009 31.7863 44.1225 31.8201 44.1362 31.8575C44.1499 31.8948 44.1554 31.9348 44.1521 31.9746V35.4317C44.1541 35.5115 44.1257 35.589 44.0729 35.6478C44.0457 35.6764 44.0127 35.6985 43.9762 35.7125C43.9396 35.7265 43.9005 35.7321 43.8617 35.7288ZM43.756 31.0023C43.6618 31.0045 43.5694 30.9761 43.492 30.9213C43.4346 30.844 43.4064 30.748 43.4127 30.6512V30.4351C43.4127 30.219 43.5184 30.111 43.756 30.111H43.9673C44.0103 30.1047 44.0542 30.1087 44.0955 30.1227C44.1368 30.1368 44.1743 30.1605 44.205 30.1919C44.2358 30.2234 44.259 30.2618 44.2727 30.304C44.2864 30.3462 44.2904 30.3911 44.2842 30.4351V30.6512C44.2863 30.7475 44.2586 30.842 44.2049 30.9213C44.1726 30.9503 44.135 30.9725 44.0941 30.9864C44.0533 31.0003 44.0102 31.0057 43.9673 31.0023H43.756Z" fill="#0C469C"/>
<path d="M48.1662 35.1345C48.2053 35.1303 48.2449 35.135 48.2821 35.1485C48.3192 35.1619 48.3529 35.1836 48.3808 35.2121C48.4086 35.2406 48.4299 35.2751 48.443 35.3131C48.4561 35.3511 48.4608 35.3916 48.4566 35.4316C48.4586 35.5114 48.4302 35.5889 48.3774 35.6477C48.3502 35.6763 48.3172 35.6984 48.2807 35.7124C48.2441 35.7264 48.205 35.732 48.1662 35.7287C47.7539 35.759 47.3465 35.6233 47.0307 35.3506C46.8967 35.1919 46.7949 35.0074 46.7315 34.808C46.668 34.6086 46.644 34.3982 46.661 34.1892V32.2446H46.2385C46.1614 32.2446 46.0876 32.2133 46.0331 32.1576C45.9786 32.1019 45.948 32.0263 45.948 31.9475C45.948 31.8687 45.9786 31.7932 46.0331 31.7375C46.0876 31.6817 46.1614 31.6504 46.2385 31.6504H46.661V30.9482C46.661 30.8694 46.6916 30.7939 46.7461 30.7381C46.8005 30.6824 46.8744 30.6511 46.9515 30.6511C47.0285 30.6511 47.1024 30.6824 47.1568 30.7381C47.2113 30.7939 47.2419 30.8694 47.2419 30.9482V31.6504H48.1926C48.2706 31.6484 48.3463 31.6775 48.4038 31.7315C48.447 31.773 48.4766 31.827 48.4889 31.8863C48.5012 31.9456 48.4954 32.0072 48.4724 32.0631C48.4494 32.1189 48.4103 32.1662 48.3603 32.1987C48.3103 32.2311 48.2517 32.2472 48.1926 32.2446H47.2419V34.1892C47.2343 34.3817 47.2611 34.5739 47.3211 34.7564C47.3483 34.8198 47.3881 34.8766 47.4382 34.9232C47.4882 34.9697 47.5473 35.0049 47.6116 35.0265C47.784 35.1115 47.9753 35.1488 48.1662 35.1345Z" fill="#0C469C"/>
<path d="M52.1533 31.6774C52.5735 31.6477 52.989 31.7829 53.3152 32.0556C53.5859 32.3868 53.7186 32.8136 53.6849 33.2439V35.4316C53.6868 35.5114 53.6584 35.5889 53.6056 35.6477C53.5785 35.6763 53.5454 35.6984 53.5089 35.7124C53.4724 35.7264 53.4333 35.732 53.3944 35.7287C53.3552 35.733 53.3156 35.7282 53.2785 35.7148C53.2414 35.7013 53.2076 35.6796 53.1798 35.6511C53.1519 35.6226 53.1307 35.5881 53.1175 35.5502C53.1044 35.5122 53.0998 35.4717 53.1039 35.4316V35.1615C52.9482 35.3548 52.7494 35.5072 52.5243 35.6059C52.2992 35.7045 52.0543 35.7467 51.81 35.7287H51.3611C51.1813 35.7453 51.0002 35.7235 50.8291 35.6645C50.6581 35.6056 50.501 35.5108 50.3677 35.3863C50.2345 35.2618 50.128 35.1103 50.0552 34.9414C49.9824 34.7725 49.9448 34.5899 49.9448 34.4053C49.9448 34.2207 49.9824 34.0381 50.0552 33.8692C50.128 33.7003 50.2345 33.5488 50.3677 33.4243C50.501 33.2998 50.6581 33.205 50.8291 33.1461C51.0002 33.0871 51.1813 33.0652 51.3611 33.0819H53.1039C53.1113 32.8422 53.0259 32.6093 52.8663 32.4337C52.6551 32.2929 52.4047 32.2265 52.1533 32.2446H51.6779C51.455 32.2341 51.2319 32.2615 51.0178 32.3256C50.9535 32.3472 50.8944 32.3824 50.8443 32.429C50.7943 32.4755 50.7544 32.5323 50.7273 32.5957C50.7058 32.6798 50.6598 32.7552 50.5953 32.8118C50.5391 32.8456 50.4755 32.8642 50.4104 32.8658C50.337 32.864 50.2648 32.8456 50.1992 32.8118C50.176 32.7916 50.1571 32.7668 50.1435 32.739C50.1299 32.7112 50.1219 32.6808 50.1199 32.6497V32.5957C50.1406 32.4525 50.1945 32.3164 50.2772 32.1989C50.3599 32.0814 50.469 31.986 50.5953 31.9205C50.9252 31.7625 51.2876 31.6884 51.6515 31.7044L52.1533 31.6774ZM53.0511 34.4863C53.0511 34.4323 53.0775 34.4053 53.0775 34.3783V33.7031H51.3347C51.14 33.6801 50.9437 33.7279 50.7801 33.8381C50.6688 34.0039 50.6218 34.206 50.6481 34.4053C50.6299 34.6041 50.6763 34.8034 50.7801 34.9725C50.9422 35.0863 51.1398 35.1344 51.3347 35.1075H51.7836C52.523 35.1345 52.9455 34.9185 53.0511 34.4863Z" fill="#0C469C"/>
<path d="M57.1177 35.7288C56.9599 35.7518 56.799 35.7369 56.6478 35.6853C56.4966 35.6337 56.3591 35.5468 56.2464 35.4316C56.1337 35.3163 56.0488 35.1757 55.9983 35.021C55.9479 34.8664 55.9333 34.7018 55.9558 34.5404V30.3C55.9572 30.2412 55.9752 30.1841 56.0075 30.1355C56.0399 30.0868 56.0853 30.0488 56.1384 30.026C56.1914 30.0032 56.2497 29.9965 56.3063 30.0068C56.363 30.0171 56.4155 30.0439 56.4576 30.084C56.4855 30.1118 56.5072 30.1456 56.5209 30.1829C56.5346 30.2203 56.54 30.2603 56.5368 30.3V34.5404C56.5161 34.6262 56.5174 34.716 56.5406 34.8011C56.5637 34.8862 56.608 34.9638 56.6691 35.0262C56.7302 35.0887 56.806 35.134 56.8892 35.1577C56.9725 35.1814 57.0603 35.1828 57.1441 35.1616C57.1833 35.1573 57.2229 35.1621 57.26 35.1755C57.2972 35.1889 57.3309 35.2107 57.3587 35.2392C57.3866 35.2677 57.4078 35.3022 57.421 35.3401C57.4341 35.3781 57.4388 35.4186 57.4346 35.4587C57.4366 35.5385 57.4082 35.6159 57.3554 35.6747C57.2795 35.7055 57.1992 35.7237 57.1177 35.7288Z" fill="#0C469C"/>
<path d="M62.9269 35.7287C62.5522 35.7532 62.1804 35.6486 61.8706 35.4316C61.7383 35.314 61.6321 35.1688 61.5593 35.0058C61.4864 34.8427 61.4485 34.6656 61.4481 34.4863C61.4463 34.4107 61.4646 34.3361 61.5009 34.2703C61.5584 34.2163 61.6342 34.1872 61.7122 34.1892C61.897 34.1892 61.9763 34.2973 62.0027 34.4863C62.0045 34.587 62.0293 34.6858 62.0752 34.7749C62.121 34.864 62.1866 34.9409 62.2667 34.9995C62.4725 35.0997 62.6993 35.1461 62.9269 35.1345H64.0888C64.2855 35.1399 64.4817 35.1126 64.6697 35.0535C64.7351 35.0263 64.7945 34.9861 64.8444 34.935C64.8943 34.884 64.9337 34.8233 64.9602 34.7564C65.0203 34.5739 65.0471 34.3817 65.0394 34.1892C65.0447 33.9881 65.0179 33.7874 64.9602 33.595C64.9337 33.5282 64.8943 33.4675 64.8444 33.4164C64.7945 33.3654 64.7351 33.3251 64.6697 33.298C64.4913 33.2365 64.3033 33.2091 64.1152 33.2169H63.0853C62.8905 33.2515 62.6905 33.2377 62.502 33.1766C62.3135 33.1156 62.1422 33.0091 62.0024 32.8661C61.8626 32.7231 61.7585 32.5478 61.6988 32.3551C61.6391 32.1623 61.6256 31.9577 61.6594 31.7585C61.6403 31.5597 61.6609 31.3591 61.7199 31.1688C61.7789 30.9784 61.8751 30.8023 62.0027 30.6511C62.3038 30.3919 62.6932 30.2656 63.0853 30.3H64.1152C64.4731 30.2786 64.8273 30.3835 65.1187 30.5971C65.3654 30.817 65.5172 31.1276 65.5412 31.4614C65.5412 31.5694 65.5412 31.6234 65.4883 31.6774C65.4309 31.7314 65.3551 31.7605 65.2771 31.7585C65.2036 31.7567 65.1315 31.7382 65.0658 31.7044C65.013 31.6456 64.9846 31.5682 64.9866 31.4884C64.9806 31.3991 64.9563 31.3121 64.9154 31.233C64.8744 31.1539 64.8177 31.0845 64.749 31.0292C64.5613 30.9313 64.3521 30.8848 64.1416 30.8942H63.1117C62.9951 30.8653 62.8732 30.8675 62.7576 30.9007C62.6421 30.9338 62.5368 30.9969 62.452 31.0836C62.3671 31.1704 62.3055 31.2781 62.2731 31.3963C62.2406 31.5145 62.2384 31.6392 62.2667 31.7585C62.2394 32.008 62.3054 32.2589 62.4516 32.4607C62.6469 32.6143 62.8938 32.6823 63.1382 32.6497H64.168C64.3724 32.6324 64.578 32.6569 64.773 32.7218C64.968 32.7868 65.1483 32.8908 65.3035 33.0279C65.5439 33.2429 65.7114 33.5304 65.782 33.849C65.8526 34.1675 65.8227 34.5008 65.6965 34.8008C65.5704 35.1009 65.3545 35.3524 65.0798 35.5191C64.8052 35.6858 64.486 35.7592 64.168 35.7287H62.9269Z" fill="#0C469C"/>
<path d="M68.2083 33.9462V34.1893C68.2006 34.3817 68.2275 34.5739 68.2875 34.7564C68.3141 34.8233 68.3535 34.884 68.4034 34.935C68.4532 34.9861 68.5126 35.0264 68.578 35.0535C68.7651 35.1168 68.9621 35.1442 69.1589 35.1346H69.8191C70.0444 35.1526 70.2707 35.1155 70.4793 35.0265C70.5487 34.9955 70.6093 34.9471 70.6554 34.8857C70.7016 34.8243 70.7319 34.752 70.7433 34.6754C70.7622 34.5962 70.7983 34.5223 70.849 34.4593C70.9076 34.4073 70.9826 34.3786 71.0602 34.3786C71.1379 34.3786 71.2129 34.4073 71.2715 34.4593C71.2991 34.4867 71.3187 34.5215 71.3281 34.5597C71.3374 34.5978 71.3361 34.6379 71.3243 34.6754C71.3077 34.8273 71.259 34.9736 71.1815 35.1042C71.1039 35.2348 70.9995 35.3466 70.8754 35.4316C70.5526 35.6127 70.1865 35.6969 69.8191 35.6747H69.1589C68.7387 35.7044 68.3232 35.5692 67.997 35.2966C67.7304 34.9736 67.5978 34.5569 67.6274 34.1352V33.1899C67.5983 32.7601 67.7305 32.3352 67.997 32.0016C68.3209 31.7247 68.7382 31.5889 69.1589 31.6234H69.8191C70.2393 31.5937 70.6548 31.729 70.981 32.0016C71.2517 32.3328 71.3845 32.7596 71.3507 33.1899V33.5951C71.3527 33.6749 71.3243 33.7523 71.2715 33.8111C71.2443 33.8398 71.2113 33.8619 71.1747 33.8759C71.1382 33.8899 71.0991 33.8955 71.0602 33.8922L68.2083 33.9462ZM68.2083 33.352H70.7433V33.244C70.7486 33.0428 70.7219 32.8421 70.6641 32.6498C70.6376 32.5829 70.5982 32.5222 70.5483 32.4712C70.4984 32.4201 70.439 32.3798 70.3736 32.3527C70.1865 32.2894 69.9896 32.262 69.7927 32.2717H69.1589C68.9623 32.2663 68.7661 32.2936 68.578 32.3527C68.5126 32.3798 68.4532 32.4201 68.4034 32.4712C68.3535 32.5222 68.3141 32.5829 68.2875 32.6498C68.2257 32.8412 68.1988 33.0426 68.2083 33.244V33.352Z" fill="#0C469C"/>
<path d="M74.8896 35.7287C74.4693 35.7584 74.0538 35.6232 73.7277 35.3506C73.4569 35.0193 73.3242 34.5926 73.358 34.1622V33.2169C73.3289 32.7871 73.4611 32.3621 73.7277 32.0285C74.0516 31.7517 74.4688 31.6159 74.8896 31.6504H75.5497C75.8713 31.6352 76.1908 31.7099 76.474 31.8665C76.5823 31.9348 76.6758 32.0252 76.7485 32.1321C76.8211 32.239 76.8715 32.36 76.8965 32.4877C76.9104 32.5249 76.9128 32.5656 76.9033 32.6042C76.8939 32.6429 76.873 32.6776 76.8437 32.7038C76.8114 32.7328 76.7737 32.7549 76.7329 32.7689C76.692 32.7828 76.6489 32.7882 76.606 32.7848C76.5409 32.7831 76.4773 32.7646 76.4212 32.7308C76.3683 32.7038 76.3419 32.6227 76.3155 32.5147C76.3014 32.4586 76.2712 32.4081 76.2289 32.3696C76.1865 32.3312 76.134 32.3064 76.0779 32.2986C75.9068 32.2463 75.7275 32.2279 75.5497 32.2446H74.8896C74.6929 32.2392 74.4967 32.2666 74.3086 32.3256C74.2408 32.3483 74.1791 32.3871 74.1286 32.4387C74.0782 32.4903 74.0403 32.5534 74.0181 32.6227C73.9563 32.8141 73.9294 33.0156 73.9389 33.2169V34.1622C73.9336 34.3634 73.9604 34.564 74.0181 34.7564C74.0447 34.8233 74.0841 34.884 74.134 34.935C74.1839 34.986 74.2432 35.0263 74.3086 35.0535C74.4957 35.1167 74.6927 35.1442 74.8896 35.1345H75.5497C75.7271 35.1357 75.9042 35.1176 76.0779 35.0805C76.1795 35.0393 76.2636 34.9628 76.3155 34.8644C76.3454 34.7898 76.3807 34.7176 76.4212 34.6484C76.4476 34.5944 76.5268 34.5944 76.606 34.5944C76.6449 34.5911 76.684 34.5966 76.7205 34.6106C76.757 34.6246 76.7901 34.6467 76.8173 34.6754C76.8449 34.7027 76.8645 34.7375 76.8739 34.7757C76.8832 34.8139 76.8819 34.854 76.8701 34.8914C76.8544 35.0223 76.8077 35.1473 76.7341 35.2556C76.6604 35.3638 76.5621 35.4521 76.4476 35.5126C76.1644 35.6692 75.8449 35.7439 75.5233 35.7287H74.8896Z" fill="#0C469C"/>
<path d="M82.2042 31.6775C82.2823 31.6754 82.358 31.7045 82.4155 31.7585C82.4435 31.7863 82.4651 31.8201 82.4788 31.8574C82.4925 31.8948 82.4979 31.9348 82.4947 31.9745V35.4316C82.4967 35.5114 82.4683 35.5889 82.4155 35.6477C82.3569 35.6998 82.2819 35.7284 82.2042 35.7284C82.1266 35.7284 82.0516 35.6998 81.993 35.6477C81.9402 35.5889 81.9118 35.5114 81.9138 35.4316V35.2156C81.7503 35.3959 81.5488 35.5358 81.3247 35.6248C81.1005 35.7137 80.8594 35.7492 80.6198 35.7287H80.4086C79.9884 35.7584 79.5729 35.6232 79.2467 35.3506C78.976 35.0193 78.8432 34.5926 78.877 34.1622V31.9745C78.8784 31.9157 78.8963 31.8586 78.9287 31.81C78.9611 31.7613 79.0065 31.7233 79.0595 31.7005C79.1125 31.6777 79.1709 31.671 79.2275 31.6813C79.2841 31.6916 79.3366 31.7184 79.3787 31.7585C79.4067 31.7863 79.4283 31.8201 79.442 31.8574C79.4557 31.8948 79.4612 31.9348 79.4579 31.9745V34.1622C79.4527 34.3634 79.4794 34.5641 79.5372 34.7564C79.5637 34.8233 79.6031 34.884 79.653 34.935C79.7029 34.9861 79.7623 35.0264 79.8276 35.0535C80.0148 35.1168 80.2117 35.1442 80.4086 35.1345H80.6198C80.9442 35.1475 81.2677 35.0923 81.5705 34.9725C81.6707 34.9392 81.7581 34.8742 81.8198 34.7868C81.8815 34.6994 81.9144 34.5942 81.9138 34.4863V32.0016C81.9118 31.9218 81.9402 31.8443 81.993 31.7855C82.0194 31.7045 82.0986 31.6775 82.2042 31.6775Z" fill="#0C469C"/>
<path d="M86.9045 31.6775C86.9825 31.6754 87.0582 31.7045 87.1157 31.7585C87.1437 31.7863 87.1653 31.8201 87.179 31.8574C87.1927 31.8948 87.1982 31.9348 87.1949 31.9745C87.1969 32.0544 87.1685 32.1318 87.1157 32.1906C87.0885 32.2192 87.0555 32.2414 87.019 32.2554C86.9825 32.2694 86.9433 32.2749 86.9045 32.2716C86.5137 32.2521 86.1266 32.3558 85.7954 32.5687C85.6746 32.6695 85.5783 32.7975 85.5141 32.9428C85.45 33.0881 85.4197 33.2467 85.4257 33.406V35.4316C85.4277 35.5114 85.3993 35.5889 85.3465 35.6477C85.3193 35.6763 85.2863 35.6984 85.2497 35.7125C85.2132 35.7265 85.1741 35.732 85.1352 35.7287C85.096 35.733 85.0565 35.7282 85.0193 35.7148C84.9822 35.7014 84.9485 35.6796 84.9206 35.6511C84.8928 35.6227 84.8715 35.5882 84.8584 35.5502C84.8452 35.5122 84.8406 35.4717 84.8447 35.4316V31.9745C84.8461 31.9157 84.8641 31.8586 84.8964 31.81C84.9288 31.7613 84.9742 31.7233 85.0273 31.7005C85.0803 31.6777 85.1386 31.671 85.1952 31.6813C85.2519 31.6916 85.3044 31.7184 85.3465 31.7585C85.3745 31.7863 85.3961 31.8201 85.4098 31.8574C85.4235 31.8948 85.4289 31.9348 85.4257 31.9745V32.4067C85.5743 32.1717 85.7849 31.9845 86.033 31.8665C86.309 31.7469 86.6048 31.6827 86.9045 31.6775Z" fill="#0C469C"/>
<path d="M89.1756 35.7288C89.1365 35.733 89.0969 35.7283 89.0597 35.7148C89.0226 35.7014 88.9889 35.6797 88.961 35.6512C88.9332 35.6227 88.9119 35.5882 88.8988 35.5502C88.8856 35.5122 88.881 35.4717 88.8851 35.4317V31.9746C88.8865 31.9158 88.9045 31.8586 88.9368 31.81C88.9692 31.7614 89.0146 31.7234 89.0677 31.7005C89.1207 31.6777 89.179 31.671 89.2356 31.6813C89.2923 31.6916 89.3448 31.7184 89.3869 31.7585C89.4149 31.7863 89.4365 31.8201 89.4502 31.8575C89.4639 31.8948 89.4693 31.9348 89.4661 31.9746V35.4317C89.4703 35.4717 89.4656 35.5122 89.4525 35.5502C89.4393 35.5882 89.4181 35.6227 89.3902 35.6512C89.3624 35.6797 89.3286 35.7014 89.2915 35.7148C89.2544 35.7283 89.2148 35.733 89.1756 35.7288ZM89.07 31.0023C88.9758 31.0045 88.8834 30.9761 88.8059 30.9213C88.7485 30.844 88.7204 30.748 88.7267 30.6512V30.4351C88.7267 30.219 88.8323 30.111 89.07 30.111H89.2812C89.3243 30.1047 89.3682 30.1087 89.4095 30.1227C89.4507 30.1368 89.4882 30.1605 89.519 30.1919C89.5497 30.2234 89.5729 30.2618 89.5867 30.304C89.6004 30.3462 89.6043 30.3911 89.5981 30.4351V30.6512C89.6003 30.7475 89.5725 30.842 89.5189 30.9213C89.4866 30.9503 89.4489 30.9725 89.4081 30.9864C89.3673 31.0003 89.3241 31.0057 89.2812 31.0023H89.07Z" fill="#0C469C"/>
<path d="M93.4794 35.1345C93.5186 35.1303 93.5582 35.135 93.5953 35.1485C93.6324 35.1619 93.6662 35.1836 93.694 35.2121C93.7219 35.2406 93.7431 35.2751 93.7563 35.3131C93.7694 35.3511 93.774 35.3916 93.7699 35.4316C93.7719 35.5114 93.7434 35.5889 93.6907 35.6477C93.6635 35.6763 93.6304 35.6984 93.5939 35.7124C93.5574 35.7264 93.5183 35.732 93.4794 35.7287C93.0672 35.759 92.6597 35.6233 92.3439 35.3506C92.2099 35.1919 92.1082 35.0074 92.0447 34.808C91.9812 34.6086 91.9573 34.3982 91.9742 34.1892V32.2446H91.5517C91.4747 32.2446 91.4008 32.2133 91.3463 32.1576C91.2918 32.1019 91.2612 32.0263 91.2612 31.9475C91.2612 31.8687 91.2918 31.7932 91.3463 31.7375C91.4008 31.6817 91.4747 31.6504 91.5517 31.6504H91.9742V30.9482C91.9742 30.8694 92.0048 30.7939 92.0593 30.7381C92.1138 30.6824 92.1876 30.6511 92.2647 30.6511C92.3417 30.6511 92.4156 30.6824 92.4701 30.7381C92.5246 30.7939 92.5552 30.8694 92.5552 30.9482V31.6504H93.5058C93.5838 31.6484 93.6596 31.6775 93.7171 31.7315C93.7602 31.773 93.7899 31.827 93.8021 31.8863C93.8144 31.9456 93.8087 32.0072 93.7857 32.0631C93.7627 32.1189 93.7236 32.1662 93.6735 32.1987C93.6235 32.2311 93.565 32.2472 93.5058 32.2446H92.5552V34.1892C92.5475 34.3817 92.5743 34.5739 92.6344 34.7564C92.6615 34.8198 92.7014 34.8766 92.7514 34.9232C92.8015 34.9697 92.8606 35.0049 92.9249 35.0265C93.0952 35.1177 93.2882 35.1553 93.4794 35.1345Z" fill="#0C469C"/>
<path d="M96.0409 35.7288C96.0017 35.733 95.9621 35.7283 95.925 35.7148C95.8878 35.7014 95.8541 35.6797 95.8263 35.6512C95.7984 35.6227 95.7771 35.5882 95.764 35.5502C95.7509 35.5122 95.7462 35.4717 95.7504 35.4317V31.9746C95.7517 31.9158 95.7697 31.8586 95.8021 31.81C95.8345 31.7614 95.8799 31.7234 95.9329 31.7005C95.9859 31.6777 96.0443 31.671 96.1009 31.6813C96.1575 31.6916 96.2101 31.7184 96.2521 31.7585C96.2801 31.7863 96.3018 31.8201 96.3155 31.8575C96.3292 31.8948 96.3346 31.9348 96.3314 31.9746V35.4317C96.3333 35.5115 96.3049 35.589 96.2521 35.6478C96.225 35.6764 96.1919 35.6985 96.1554 35.7125C96.1189 35.7265 96.0798 35.7321 96.0409 35.7288ZM95.9352 31.0023C95.8411 31.0045 95.7486 30.9761 95.6712 30.9213C95.6138 30.844 95.5856 30.748 95.5919 30.6512V30.4351C95.5919 30.219 95.6976 30.111 95.9352 30.111H96.1465C96.1896 30.1047 96.2335 30.1087 96.2747 30.1227C96.316 30.1368 96.3535 30.1605 96.3843 30.1919C96.415 30.2234 96.4382 30.2618 96.4519 30.304C96.4657 30.3462 96.4696 30.3911 96.4634 30.4351V30.6512C96.4655 30.7475 96.4378 30.842 96.3842 30.9213C96.3519 30.9503 96.3142 30.9725 96.2734 30.9864C96.2325 31.0003 96.1894 31.0057 96.1465 31.0023H95.9352Z" fill="#0C469C"/>
<path d="M99.1043 33.9462V34.1893C99.0966 34.3817 99.1235 34.5739 99.1835 34.7564C99.2101 34.8233 99.2495 34.884 99.2994 34.935C99.3492 34.9861 99.4086 35.0264 99.474 35.0535C99.6611 35.1168 99.8581 35.1442 100.055 35.1346H100.715C100.94 35.1526 101.167 35.1155 101.375 35.0265C101.442 34.992 101.501 34.9426 101.546 34.8818C101.592 34.821 101.624 34.7505 101.639 34.6754C101.658 34.5962 101.694 34.5223 101.745 34.4593C101.804 34.4073 101.879 34.3786 101.956 34.3786C102.034 34.3786 102.109 34.4073 102.167 34.4593C102.195 34.4867 102.215 34.5215 102.224 34.5597C102.233 34.5978 102.232 34.6379 102.22 34.6754C102.204 34.8273 102.155 34.9736 102.077 35.1042C102 35.2348 101.895 35.3466 101.771 35.4316C101.449 35.6127 101.083 35.6969 100.715 35.6747H100.055C99.6347 35.7044 99.2192 35.5692 98.893 35.2966C98.6264 34.9736 98.4938 34.5569 98.5234 34.1352V33.1899C98.4943 32.7601 98.6265 32.3352 98.893 32.0016C99.2169 31.7247 99.6342 31.5889 100.055 31.6234H100.715C101.135 31.5937 101.551 31.729 101.877 32.0016C102.148 32.3328 102.28 32.7596 102.247 33.1899V33.5951C102.249 33.6749 102.22 33.7523 102.167 33.8111C102.14 33.8398 102.107 33.8619 102.071 33.8759C102.034 33.8899 101.995 33.8955 101.956 33.8922L99.1043 33.9462ZM99.1043 33.352H101.639V33.244C101.645 33.0428 101.618 32.8421 101.56 32.6498C101.534 32.5829 101.494 32.5222 101.444 32.4712C101.394 32.4201 101.335 32.3798 101.27 32.3527C101.082 32.2894 100.886 32.262 100.689 32.2717H100.055C99.8583 32.2663 99.6621 32.2936 99.474 32.3527C99.4086 32.3798 99.3492 32.4201 99.2994 32.4712C99.2495 32.5222 99.2101 32.5829 99.1835 32.6498C99.1217 32.8412 99.0948 33.0426 99.1043 33.244V33.352Z" fill="#0C469C"/>
<path d="M105.336 35.7288C105.057 35.7427 104.78 35.6672 104.544 35.5127C104.446 35.435 104.365 35.3373 104.306 35.2256C104.247 35.114 104.211 34.991 104.201 34.8645C104.187 34.8273 104.185 34.7866 104.194 34.748C104.204 34.7094 104.224 34.6746 104.254 34.6485C104.312 34.5964 104.387 34.5677 104.465 34.5677C104.543 34.5677 104.618 34.5964 104.676 34.6485C104.732 34.7079 104.769 34.7832 104.782 34.8645C104.802 34.9633 104.859 35.0503 104.94 35.1076C105.066 35.1599 105.202 35.1785 105.336 35.1616H106.657C106.814 35.182 106.974 35.1436 107.106 35.0536C107.208 34.9142 107.255 34.7407 107.238 34.5674C107.247 34.4858 107.24 34.4031 107.217 34.3242C107.194 34.2454 107.157 34.1719 107.106 34.1083C106.978 34.0078 106.818 33.9597 106.657 33.9732H105.363C104.623 33.9732 104.254 33.5951 104.254 32.8389C104.226 32.6837 104.236 32.5239 104.282 32.3733C104.327 32.2227 104.408 32.0858 104.517 31.9742C104.627 31.8627 104.76 31.7799 104.908 31.7329C105.055 31.6859 105.211 31.6762 105.363 31.7045H106.604C107.211 31.7045 107.581 31.9746 107.687 32.5148C107.701 32.552 107.703 32.5927 107.693 32.6313C107.684 32.67 107.663 32.7047 107.634 32.7309C107.576 32.7849 107.501 32.8139 107.423 32.8119C107.349 32.8101 107.277 32.7916 107.211 32.7579C107.156 32.6984 107.119 32.6231 107.106 32.5418C107.099 32.4984 107.081 32.4577 107.053 32.4243C107.025 32.391 106.988 32.3662 106.947 32.3527C106.837 32.3151 106.721 32.2968 106.604 32.2987H105.363C105.152 32.2987 104.993 32.3257 104.94 32.4068C104.837 32.4777 104.762 32.5835 104.728 32.7056C104.693 32.8276 104.702 32.9582 104.753 33.0743C104.803 33.1904 104.892 33.2846 105.003 33.3403C105.115 33.396 105.242 33.4098 105.363 33.3791H106.657C106.819 33.3633 106.982 33.3822 107.136 33.4348C107.291 33.4873 107.432 33.5722 107.553 33.6841C107.673 33.796 107.769 33.9324 107.835 34.0845C107.901 34.2366 107.935 34.4011 107.935 34.5674C107.935 34.7338 107.901 34.8983 107.835 35.0504C107.769 35.2025 107.673 35.3389 107.553 35.4508C107.432 35.5626 107.291 35.6476 107.136 35.7001C106.982 35.7526 106.819 35.7716 106.657 35.7558L105.336 35.7288Z" fill="#0C469C"/>
<path d="M120.943 0.617676L128.02 10.5298L135.097 0.617676H138.345L129.604 12.6905L138.081 24.4122H134.833L128.02 14.8242L121.207 24.4122H117.932L126.409 12.6905L117.668 0.617676H120.943Z" fill="#71B1E1"/>
<path d="M149.998 4.99298C150.025 5.89059 149.789 6.77597 149.321 7.53578C148.853 8.29559 148.174 8.89524 147.37 9.25795C146.567 9.62067 145.676 9.72994 144.811 9.57179C143.947 9.41363 143.148 8.99524 142.518 8.37018C141.887 7.74513 141.453 6.94185 141.272 6.06321C141.09 5.18456 141.169 4.27052 141.499 3.43813C141.829 2.60574 142.394 1.89286 143.122 1.39079C143.85 0.888711 144.708 0.620278 145.586 0.619857C146.159 0.601349 146.73 0.700783 147.264 0.912251C147.799 1.12372 148.286 1.44291 148.698 1.85085C149.11 2.25879 149.437 2.74716 149.66 3.28693C149.883 3.82671 149.998 4.40688 149.998 4.99298ZM142.3 4.99298C142.3 5.89642 142.651 6.76286 143.276 7.40169C143.9 8.04052 144.748 8.39941 145.631 8.39941C146.515 8.39941 147.362 8.04052 147.987 7.40169C148.612 6.76286 148.963 5.89642 148.963 4.99298C148.979 4.53847 148.906 4.08522 148.749 3.65974C148.592 3.23427 148.353 2.84512 148.047 2.51506C147.741 2.185 147.374 1.92067 146.967 1.73752C146.56 1.55438 146.121 1.4561 145.676 1.44845C145.227 1.45385 144.783 1.54989 144.37 1.73107C143.956 1.91224 143.582 2.17499 143.269 2.50426C142.955 2.83353 142.708 3.22285 142.542 3.64991C142.376 4.07697 142.293 4.53338 142.3 4.99298ZM144.956 7.34066H143.966V2.9215C144.515 2.81576 145.073 2.76947 145.631 2.7834C146.146 2.74332 146.662 2.85515 147.117 3.10563C147.248 3.22784 147.352 3.37735 147.422 3.5441C147.492 3.71084 147.526 3.89095 147.522 4.07232C147.504 4.31976 147.406 4.55399 147.243 4.73758C147.08 4.92116 146.861 5.0435 146.622 5.08505V5.13108C146.838 5.20911 147.027 5.35169 147.163 5.54042C147.3 5.72914 147.377 5.95535 147.387 6.18983C147.44 6.5715 147.546 6.94348 147.702 7.29462H146.622C146.443 6.96528 146.322 6.6072 146.261 6.23587C146.248 6.12962 146.213 6.02725 146.16 5.93476C146.107 5.84226 146.037 5.76149 145.953 5.69719C145.869 5.63288 145.774 5.58633 145.672 5.56027C145.57 5.5342 145.465 5.52914 145.361 5.54537H144.911L144.956 7.34066ZM144.956 4.80885H145.406C145.946 4.80885 146.397 4.62472 146.397 4.16439C146.397 3.70406 146.126 3.47389 145.496 3.47389C145.226 3.47389 145.046 3.51993 144.956 3.51993V4.80885Z" fill="#0C469C"/>
</svg>
