<svg width="71" height="71" viewBox="0 0 71 71" fill="none" xmlns="http://www.w3.org/2000/svg">
<circle cx="35.5" cy="35.5" r="32" fill="#E3EDF4"/>
<path fill-rule="evenodd" clip-rule="evenodd" d="M27.5001 61.5001C45.1732 61.5001 59.5001 47.1732 59.5001 29.5001C59.5001 20.8286 56.0509 12.9628 50.4498 7.19957C60.5908 12.5677 67.5 23.227 67.5 35.5C67.5 53.1731 53.1731 67.5 35.5 67.5C26.4983 67.5 18.3648 63.7832 12.5503 57.8005C17.0123 60.1625 22.1 61.5001 27.5001 61.5001Z" fill="#4C88FF" fill-opacity="0.16"/>
<circle cx="48.5" cy="25.5" r="3.5" stroke="#4C88FF" stroke-opacity="0.16"/>
<circle cx="17.5" cy="49.5" r="2.5" stroke="#4C88FF" stroke-opacity="0.16"/>
<circle cx="57.5" cy="40.5" r="2.5" stroke="#4C88FF" stroke-opacity="0.16"/>
<circle cx="36.5" cy="11.5" r="2.5" stroke="#4C88FF" stroke-opacity="0.16"/>
<circle cx="35.5" cy="34.5" r="2.5" stroke="#4C88FF" stroke-opacity="0.16"/>
<circle cx="19" cy="26" r="5" stroke="#4C88FF" stroke-opacity="0.16"/>
<circle cx="45" cy="51" r="6" stroke="#4C88FF" stroke-opacity="0.16"/>
</svg>
