<svg width="80" height="14" viewBox="0 0 80 14" fill="none" xmlns="http://www.w3.org/2000/svg">
<path d="M0.687158 13.7816C0.229053 13.7816 0 13.5471 0 13.0847V1.53129C0 1.06889 0.229053 0.837688 0.687158 0.837688C1.14526 0.837688 1.37432 1.06889 1.37432 1.53464V13.0847C1.37432 13.5471 1.14526 13.7816 0.687158 13.7816Z" fill="white"/>
<path d="M10.3848 4.14823C11.6379 4.14823 12.5676 4.4431 13.1503 5.04623C13.7297 5.64937 14.0362 6.57753 14.0362 7.84746V13.0679C14.043 13.1651 14.0261 13.2623 13.9924 13.3528C13.9587 13.4432 13.9048 13.527 13.8375 13.594C13.7701 13.6577 13.6893 13.7046 13.6051 13.7347C13.5175 13.7649 13.4265 13.7749 13.3356 13.7649C13.147 13.7716 12.9651 13.7113 12.8168 13.594C12.7562 13.5203 12.7091 13.4365 12.6821 13.3494C12.6518 13.2589 12.6417 13.1651 12.6484 13.0679V7.85082C12.6686 7.38171 12.5945 6.9126 12.4362 6.47366C12.3722 6.31617 12.2779 6.17544 12.16 6.05481C12.0421 5.93418 11.9006 5.84036 11.7491 5.7767C11.3145 5.61586 10.8531 5.54215 10.3916 5.5589H9.856C8.90948 5.5589 8.14485 5.69963 7.59579 5.96099C7.04674 6.22235 6.75706 6.61104 6.75706 7.1237V13.0679C6.76379 13.1651 6.74695 13.2623 6.71327 13.3528C6.67958 13.4432 6.62569 13.527 6.55832 13.594C6.49095 13.6577 6.41011 13.7046 6.3259 13.7347C6.23832 13.7649 6.14737 13.7749 6.05642 13.7649C5.86779 13.7749 5.68253 13.7146 5.53769 13.594C5.47706 13.5203 5.4299 13.4365 5.40295 13.3494C5.37263 13.2589 5.36253 13.1651 5.36927 13.0679V4.84519C5.36253 4.6609 5.41979 4.47661 5.53769 4.33587C5.67916 4.20184 5.86442 4.12813 6.05642 4.13483C6.15074 4.12813 6.24506 4.14488 6.32927 4.17839C6.41685 4.2119 6.49432 4.26551 6.55832 4.33587C6.62569 4.40289 6.67621 4.48331 6.7099 4.57043C6.74358 4.65755 6.76042 4.75137 6.75706 4.84854V5.39136C7.42737 4.55367 8.46821 4.13818 9.87285 4.13818H10.3916V4.14823H10.3848Z" fill="white"/>
<path d="M24.6299 4.2253C24.9062 4.36603 25.0577 4.55032 25.0577 4.78152C25.051 4.90885 25.0173 5.03618 24.9668 5.15346L21.3322 13.2388C21.2682 13.3997 21.1537 13.537 21.0089 13.6309C20.864 13.7247 20.6956 13.7716 20.5238 13.7649C20.3554 13.7682 20.1937 13.718 20.0556 13.6208C19.9175 13.5236 19.8165 13.3863 19.7592 13.2254L16.384 5.14005C16.3335 5.02948 16.3065 4.9055 16.3065 4.78487C16.3065 4.52016 16.4581 4.33587 16.7478 4.22865C16.8489 4.18174 16.9567 4.15493 17.0678 4.15158C17.344 4.15158 17.5259 4.30572 17.6472 4.60058L20.5642 11.5534L23.7137 4.58383C23.7575 4.4565 23.835 4.34928 23.9428 4.27221C24.0506 4.19514 24.1786 4.15158 24.3099 4.15158C24.4211 4.15158 24.5289 4.17839 24.6299 4.2253Z" fill="white"/>
<path d="M28.2947 9.53627V10.0925C28.2779 10.5549 28.3486 11.0207 28.507 11.4563C28.571 11.6137 28.6653 11.7545 28.7832 11.8751C28.9011 11.9957 29.0425 12.0895 29.1941 12.1532C29.6286 12.314 30.0901 12.3878 30.5516 12.371H32.1246C32.8421 12.371 33.3608 12.2939 33.6977 12.1398C33.8627 12.0661 34.0042 11.9522 34.1154 11.8081C34.2265 11.664 34.304 11.4965 34.3377 11.3189C34.3646 11.1379 34.4421 10.9704 34.5667 10.8397C34.715 10.7224 34.8968 10.6655 35.0821 10.6688C35.2674 10.6755 35.4459 10.7459 35.5874 10.8699C35.6514 10.9402 35.6952 11.024 35.7187 11.1145C35.7423 11.2049 35.7457 11.3021 35.7221 11.3959C35.6008 12.2169 35.2337 12.82 34.6543 13.2087C34.075 13.5974 33.2194 13.7984 32.1347 13.7984H30.5617C29.3255 13.7984 28.3924 13.5036 27.7996 12.9004C27.2034 12.2973 26.9137 11.3691 26.9137 10.1126V7.85084C26.9137 6.5809 27.2034 5.63599 27.7996 5.04961C28.3958 4.45988 29.3255 4.13485 30.5617 4.15161H32.1347C33.3878 4.15161 34.3175 4.44647 34.8968 5.04961C35.4762 5.65274 35.7827 6.5809 35.7827 7.85084V8.82591C35.7895 8.92308 35.7726 9.02025 35.739 9.11072C35.7053 9.20119 35.6514 9.28496 35.584 9.35198C35.5166 9.41564 35.4358 9.46255 35.3482 9.49271C35.2606 9.52286 35.1697 9.53292 35.0787 9.52287L28.2947 9.53627ZM28.2947 8.12895H34.4017V7.85084C34.4219 7.38173 34.3478 6.91263 34.1895 6.47368C34.1255 6.31619 34.0312 6.17546 33.9133 6.05483C33.7954 5.93421 33.6539 5.84039 33.5023 5.77672C33.0678 5.61589 32.6063 5.54217 32.1448 5.55892H30.5718C29.9756 5.54217 29.5343 5.60583 29.2143 5.75997C29.056 5.82698 28.9145 5.92751 28.7966 6.05148C28.6787 6.17546 28.5878 6.3229 28.5272 6.48708C28.3688 6.92938 28.2947 7.39514 28.315 7.86424V8.12895H28.2947V8.12895Z" fill="white"/>
<path d="M41.5326 13.7816C40.7175 13.7816 40.091 13.6107 39.6531 13.2723C39.1849 12.8803 38.8817 12.3207 38.8143 11.7075C38.7874 11.6137 38.784 11.5131 38.8076 11.416C38.8312 11.3188 38.8817 11.235 38.9491 11.1647C39.0198 11.0977 39.104 11.044 39.195 11.0105C39.2859 10.977 39.3836 10.9603 39.4813 10.9636C39.5689 10.9569 39.6531 10.967 39.7373 10.9971C39.8181 11.0273 39.8922 11.0742 39.9562 11.1345C40.0809 11.2819 40.1651 11.4562 40.1988 11.6438C40.2156 11.7611 40.2594 11.8717 40.3268 11.9689C40.3941 12.066 40.4783 12.1464 40.5828 12.2034C40.7815 12.3106 41.1015 12.3575 41.5293 12.3575H44.6754C45.2109 12.3575 45.5781 12.2637 45.7735 12.0794C45.9722 11.8784 46.0631 11.5064 46.0631 10.9502C46.0631 10.394 45.9722 10.0221 45.7735 9.83442C45.5747 9.65013 45.2244 9.53956 44.6754 9.53956H41.5764C39.7912 9.53956 38.9053 8.64155 38.9053 6.8288C38.9053 5.90064 39.1175 5.21708 39.5621 4.78484C40.0034 4.35259 40.6771 4.11804 41.5764 4.11804H44.5676C46.0497 4.11804 46.9052 4.76808 47.1478 6.05477C47.1747 6.14859 47.1781 6.24912 47.1545 6.34629C47.1309 6.44346 47.0804 6.52723 47.0097 6.59759C46.9389 6.66461 46.8547 6.71822 46.7638 6.75173C46.6728 6.78524 46.5751 6.80199 46.4775 6.79864C46.3057 6.81204 46.1339 6.75508 46.0025 6.64451C45.8779 6.49707 45.7937 6.32283 45.76 6.13519C45.7398 6.03467 45.696 5.9375 45.632 5.85708C45.568 5.77666 45.4871 5.713 45.3928 5.66944C45.1368 5.56221 44.8606 5.5153 44.5844 5.5287H41.5899C41.0712 5.5287 40.7343 5.60577 40.5524 5.77666C40.3705 5.94755 40.3099 6.30273 40.3099 6.8288C40.3099 7.35486 40.3874 7.67989 40.5524 7.86753C40.7175 8.05517 41.0712 8.14564 41.5899 8.14564H44.6888C45.6219 8.14564 46.3225 8.37684 46.7671 8.8426C47.2084 9.30835 47.4543 10.0053 47.4543 10.9469C47.4543 11.8884 47.2252 12.6021 46.7671 13.0679C46.309 13.5337 45.6219 13.7481 44.6888 13.7481L41.5326 13.7816Z" fill="white"/>
<path d="M54.8177 12.3711C55.2758 12.3711 55.5049 12.6023 55.5049 13.068C55.5116 13.1652 55.4948 13.2624 55.4611 13.3528C55.4274 13.4433 55.3735 13.5271 55.3062 13.5941C55.2388 13.6577 55.1579 13.7047 55.0704 13.7348C54.9828 13.765 54.8918 13.775 54.8009 13.765C53.5647 13.765 52.662 13.4701 52.0691 12.8837C51.4729 12.294 51.2001 11.3826 51.2001 10.1428V5.54222H50.1761C49.9875 5.54892 49.8056 5.48861 49.6574 5.37133C49.5967 5.29761 49.5496 5.21384 49.5226 5.12673C49.4923 5.03625 49.4822 4.94243 49.4889 4.84526C49.4822 4.66097 49.5395 4.47668 49.6574 4.33595C49.7955 4.20192 49.9841 4.1282 50.1761 4.1349H51.2001V2.46288C51.2001 1.99712 51.4291 1.76592 51.8872 1.76592C52.3453 1.76592 52.5744 1.99712 52.5744 2.46288V4.1349H54.8649C54.9592 4.1282 55.0535 4.14495 55.1377 4.17846C55.2253 4.21197 55.3028 4.26558 55.3668 4.33595C55.4341 4.40296 55.4847 4.48338 55.5184 4.5705C55.552 4.65762 55.5689 4.75144 55.5655 4.84861C55.5723 4.94243 55.5622 5.03961 55.5285 5.13008C55.4948 5.22055 55.4443 5.30096 55.3769 5.36798C55.3095 5.43499 55.2287 5.48526 55.1411 5.51541C55.0535 5.54557 54.9592 5.55562 54.8649 5.54557H52.5744V10.1428C52.5744 10.7325 52.635 11.1815 52.7731 11.5066C52.9045 11.8081 53.147 12.046 53.4434 12.1734C53.8847 12.3208 54.3529 12.3878 54.8177 12.3711Z" fill="white"/>
<path d="M62.6661 4.14822C63.9192 4.14822 64.8488 4.44308 65.4282 5.04622C66.0076 5.64935 66.3141 6.57751 66.3141 7.84744V13.0679C66.3208 13.1651 66.3074 13.2622 66.2703 13.3527C66.2366 13.4432 66.1827 13.527 66.1154 13.594C66.048 13.6576 65.9672 13.7045 65.883 13.7347C65.7954 13.7649 65.7044 13.7749 65.6135 13.7649C65.4248 13.7716 65.243 13.7112 65.0947 13.594C65.0341 13.5203 64.987 13.4365 64.96 13.3494C64.9297 13.2589 64.9196 13.1651 64.9263 13.0679V12.448C64.256 13.3293 63.2152 13.7783 61.8105 13.7783H60.7427C59.6884 13.7783 58.9103 13.5303 58.4219 13.021C57.9335 12.5117 57.6741 11.7343 57.6741 10.6688C57.6741 9.59988 57.9166 8.8091 58.4219 8.31654C58.9272 7.82063 59.6884 7.55928 60.7427 7.55928H64.9263C64.8792 6.80201 64.6973 6.28934 64.3773 5.99448C64.0573 5.69961 63.4779 5.56223 62.6661 5.56223H61.5512C60.8337 5.56223 60.315 5.62254 59.9781 5.76328C59.8299 5.81019 59.6884 5.8906 59.5739 5.99783C59.4594 6.10505 59.3651 6.23573 59.3078 6.38316C59.2539 6.5641 59.1529 6.73164 59.0181 6.86232C58.8867 6.96284 58.7251 7.0131 58.56 7.00305C58.3781 7.00975 58.203 6.95614 58.0547 6.84892C57.9941 6.80201 57.947 6.73834 57.9133 6.67133C57.8796 6.60431 57.8594 6.52725 57.856 6.44683C57.8526 6.39322 57.856 6.34295 57.8729 6.29269C57.9301 5.96097 58.0581 5.64265 58.2535 5.36789C58.4455 5.09313 58.6981 4.86192 58.9878 4.69774C59.584 4.34256 60.4396 4.17167 61.5377 4.17167L62.6661 4.14822ZM64.8488 10.7927C64.8657 10.7123 64.8893 10.6353 64.9263 10.5615V8.94984H60.7427C60.0724 8.94984 59.6278 9.07381 59.3987 9.30501C59.1697 9.53622 59.0484 9.98522 59.0484 10.6688C59.0484 11.349 59.1697 11.798 59.3987 12.0325C59.6278 12.2637 60.0691 12.3877 60.7427 12.3877H61.8105C63.5688 12.3709 64.5895 11.8449 64.8488 10.7927Z" fill="white"/>
<path d="M69.9352 0L74.0278 5.68288L78.1204 0H80L74.9474 6.92266L79.8484 13.6409H77.9688L74.0278 8.14568L70.0867 13.6409H68.1937L73.0947 6.92266L68.0421 0H69.9352Z" fill="white"/>
</svg>
