<svg width="112" height="18" viewBox="0 0 112 18" fill="none" xmlns="http://www.w3.org/2000/svg">
    <path d="M0.887282 17.9274C0.295761 17.9274 0 17.6223 0 17.0208V1.99209C0 1.39059 0.295761 1.08984 0.887282 1.08984C1.4788 1.08984 1.77456 1.39059 1.77456 1.99645V17.0208C1.77456 17.6223 1.4788 17.9274 0.887282 17.9274Z" fill="white"/>
    <path d="M13.4095 5.39628C15.0275 5.39628 16.228 5.77985 16.9804 6.56441C17.7285 7.34897 18.1243 8.55632 18.1243 10.2083V16.9991C18.133 17.1255 18.1113 17.2519 18.0678 17.3696C18.0243 17.4873 17.9547 17.5962 17.8677 17.6834C17.7807 17.7662 17.6763 17.8272 17.5676 17.8665C17.4545 17.9057 17.3371 17.9188 17.2196 17.9057C16.9761 17.9144 16.7412 17.836 16.5498 17.6834C16.4715 17.5875 16.4106 17.4785 16.3758 17.3652C16.3367 17.2475 16.3236 17.1255 16.3323 16.9991V10.2126C16.3584 9.60241 16.2628 8.99219 16.0583 8.4212C15.9757 8.21635 15.8539 8.03328 15.7017 7.87637C15.5494 7.71946 15.3668 7.59741 15.171 7.5146C14.61 7.30538 14.0141 7.20949 13.4182 7.23129H12.7267C11.5045 7.23129 10.5172 7.41435 9.80821 7.75433C9.09925 8.0943 8.7252 8.59991 8.7252 9.26679V16.9991C8.7339 17.1255 8.71215 17.2519 8.66866 17.3696C8.62517 17.4873 8.55557 17.5962 8.46859 17.6834C8.3816 17.7662 8.27721 17.8272 8.16848 17.8665C8.05539 17.9057 7.93796 17.9188 7.82052 17.9057C7.57695 17.9188 7.33774 17.8403 7.15071 17.6834C7.07242 17.5875 7.01153 17.4785 6.97673 17.3652C6.93759 17.2475 6.92454 17.1255 6.93324 16.9991V6.30289C6.92454 6.06316 6.99848 5.82343 7.15071 5.64037C7.33339 5.46602 7.57261 5.37013 7.82052 5.37885C7.94231 5.37013 8.06409 5.39192 8.17283 5.43551C8.28591 5.4791 8.38595 5.54884 8.46859 5.64037C8.55557 5.72754 8.62082 5.83215 8.66431 5.94548C8.7078 6.0588 8.72955 6.18084 8.7252 6.30725V7.01335C9.59074 5.92368 10.9347 5.38321 12.7484 5.38321H13.4182V5.39628H13.4095Z" fill="white"/>
    <path d="M31.8031 5.49628C32.1598 5.67935 32.3555 5.91907 32.3555 6.21982C32.3468 6.38545 32.3033 6.55108 32.2381 6.70364L27.545 17.2211C27.4624 17.4303 27.3145 17.6091 27.1275 17.7311C26.9404 17.8531 26.723 17.9142 26.5012 17.9054C26.2837 17.9098 26.0749 17.8444 25.8966 17.718C25.7183 17.5916 25.5878 17.4129 25.5138 17.2037L21.1557 6.6862C21.0905 6.54236 21.0557 6.38109 21.0557 6.22418C21.0557 5.87985 21.2514 5.64012 21.6254 5.50064C21.7559 5.43962 21.8951 5.40475 22.0386 5.40039C22.3953 5.40039 22.6302 5.60089 22.7867 5.98445L26.5533 15.0287L30.6201 5.96266C30.6766 5.79703 30.7766 5.65755 30.9158 5.5573C31.055 5.45705 31.2203 5.40039 31.3899 5.40039C31.5335 5.40039 31.6726 5.43526 31.8031 5.49628Z" fill="white"/>
    <path d="M36.5352 12.4046V13.1282C36.5135 13.7297 36.6048 14.3355 36.8092 14.9021C36.8919 15.107 37.0137 15.2901 37.1659 15.447C37.3181 15.6039 37.5008 15.7259 37.6965 15.8087C38.2576 16.018 38.8535 16.1139 39.4493 16.0921H41.4805C42.4069 16.0921 43.0767 15.9918 43.5117 15.7913C43.7248 15.6954 43.9075 15.5472 44.051 15.3598C44.1945 15.1724 44.2946 14.9544 44.3381 14.7234C44.3729 14.4881 44.4729 14.2701 44.6338 14.1001C44.8252 13.9476 45.0601 13.8735 45.2993 13.8778C45.5385 13.8866 45.769 13.9781 45.9517 14.1394C46.0344 14.2309 46.0909 14.3399 46.1213 14.4576C46.1518 14.5752 46.1561 14.7016 46.1257 14.8237C45.9691 15.8916 45.495 16.6761 44.7469 17.1817C43.9988 17.6873 42.8941 17.9489 41.4936 17.9489H39.4624C37.8661 17.9489 36.6613 17.5653 35.8959 16.7807C35.126 15.9962 34.752 14.7888 34.752 13.1543V10.2122C34.752 8.56026 35.126 7.33111 35.8959 6.56834C36.6657 5.80122 37.8661 5.37842 39.4624 5.40022H41.4936C43.1115 5.40022 44.312 5.78378 45.0601 6.56834C45.8082 7.3529 46.204 8.56026 46.204 10.2122V11.4806C46.2127 11.607 46.1909 11.7334 46.1474 11.8511C46.1039 11.9687 46.0344 12.0777 45.9474 12.1649C45.8604 12.2477 45.756 12.3087 45.6429 12.348C45.5298 12.3872 45.4124 12.4003 45.295 12.3872L36.5352 12.4046ZM36.5352 10.574H44.4207V10.2122C44.4468 9.60198 44.3511 8.99177 44.1467 8.42078C44.0641 8.21592 43.9423 8.03286 43.7901 7.87595C43.6378 7.71903 43.4551 7.59699 43.2594 7.51418C42.6983 7.30496 42.1025 7.20907 41.5066 7.23086H39.4754C38.7056 7.20907 38.1358 7.29188 37.7226 7.49238C37.5182 7.57956 37.3355 7.71032 37.1833 7.87159C37.0311 8.03286 36.9136 8.22464 36.8353 8.43822C36.6309 9.01356 36.5352 9.61942 36.5613 10.2296V10.574H36.5352Z" fill="white"/>
    <path d="M53.6279 17.9269C52.5753 17.9269 51.7663 17.7046 51.2009 17.2643C50.5964 16.7544 50.2049 16.0265 50.1179 15.2288C50.0831 15.1068 50.0788 14.976 50.1092 14.8496C50.1397 14.7232 50.2049 14.6143 50.2919 14.5227C50.3832 14.4356 50.492 14.3658 50.6094 14.3222C50.7268 14.2787 50.853 14.2569 50.9791 14.2612C51.0922 14.2525 51.2009 14.2656 51.3097 14.3048C51.414 14.344 51.5097 14.4051 51.5924 14.4835C51.7533 14.6753 51.862 14.9019 51.9055 15.146C51.9273 15.2986 51.9838 15.4424 52.0708 15.5688C52.1578 15.6952 52.2665 15.7998 52.4014 15.8739C52.658 16.0134 53.0712 16.0744 53.6235 16.0744H57.6859C58.3774 16.0744 58.8515 15.9524 59.1038 15.7127C59.3604 15.4511 59.4778 14.9673 59.4778 14.2438C59.4778 13.5202 59.3604 13.0364 59.1038 12.7923C58.8472 12.5526 58.3948 12.4088 57.6859 12.4088H53.6844C51.3793 12.4088 50.2354 11.2407 50.2354 8.88261C50.2354 7.67526 50.5094 6.78609 51.0835 6.22382C51.6533 5.66155 52.5231 5.35645 53.6844 5.35645H57.5467C59.4604 5.35645 60.5652 6.20203 60.8783 7.87576C60.9131 7.9978 60.9175 8.12856 60.887 8.25496C60.8566 8.38137 60.7913 8.49033 60.7 8.58187C60.6087 8.66904 60.4999 8.73878 60.3825 8.78236C60.2651 8.82595 60.1389 8.84774 60.0128 8.84339C59.791 8.86082 59.5692 8.78672 59.3995 8.64289C59.2386 8.45111 59.1299 8.22445 59.0864 7.98037C59.0603 7.84961 59.0037 7.72321 58.9211 7.6186C58.8385 7.51399 58.7341 7.43117 58.6123 7.37451C58.2817 7.23503 57.9251 7.17401 57.5684 7.19145H53.7018C53.032 7.19145 52.5971 7.2917 52.3622 7.51399C52.1273 7.73628 52.0491 8.1983 52.0491 8.88261C52.0491 9.56693 52.1491 9.98972 52.3622 10.2338C52.5753 10.4779 53.032 10.5956 53.7018 10.5956H57.7033C58.9081 10.5956 59.8127 10.8963 60.3869 11.5022C60.9566 12.108 61.2741 13.0146 61.2741 14.2394C61.2741 15.4642 60.9784 16.3926 60.3869 16.9985C59.7953 17.6043 58.9081 17.8833 57.7033 17.8833L53.6279 17.9269Z" fill="white"/>
    <path d="M70.7817 16.0921C71.3733 16.0921 71.669 16.3928 71.669 16.9987C71.6777 17.1251 71.656 17.2515 71.6125 17.3692C71.569 17.4869 71.4994 17.5958 71.4124 17.683C71.3254 17.7658 71.221 17.8268 71.1079 17.8661C70.9949 17.9053 70.8774 17.9184 70.76 17.9053C69.1638 17.9053 67.9981 17.5217 67.2326 16.759C66.4628 15.9918 66.1105 14.8063 66.1105 13.1936V7.20911H64.7883C64.5447 7.21782 64.3099 7.13937 64.1185 6.98681C64.0402 6.89092 63.9793 6.78196 63.9445 6.66863C63.9054 6.55095 63.8923 6.4289 63.901 6.3025C63.8923 6.06277 63.9663 5.82305 64.1185 5.63998C64.2968 5.46563 64.5404 5.36974 64.7883 5.37846H66.1105V3.20348C66.1105 2.59762 66.4063 2.29688 66.9978 2.29688C67.5893 2.29688 67.8851 2.59762 67.8851 3.20348V5.37846H70.8426C70.9644 5.36974 71.0862 5.39154 71.1949 5.43512C71.308 5.47871 71.408 5.54845 71.4907 5.63998C71.5777 5.72716 71.6429 5.83176 71.6864 5.94509C71.7299 6.05841 71.7517 6.18046 71.7473 6.30686C71.756 6.4289 71.743 6.55531 71.6995 6.67299C71.656 6.79067 71.5907 6.89528 71.5037 6.98245C71.4167 7.06963 71.3124 7.13501 71.1993 7.17424C71.0862 7.21347 70.9644 7.22654 70.8426 7.21347H67.8851V13.1936C67.8851 13.9607 67.9633 14.5448 68.1417 14.9676C68.3113 15.3598 68.6244 15.6693 69.0072 15.8349C69.577 16.0267 70.1815 16.1139 70.7817 16.0921Z" fill="white"/>
    <path d="M80.9165 5.39648C82.5345 5.39648 83.735 5.78005 84.4831 6.56461C85.2312 7.34917 85.627 8.55652 85.627 10.2085V16.9993C85.6357 17.1257 85.6183 17.2521 85.5704 17.3697C85.5269 17.4874 85.4573 17.5964 85.3704 17.6836C85.2834 17.7664 85.179 17.8274 85.0702 17.8666C84.9572 17.9059 84.8397 17.9189 84.7223 17.9059C84.4787 17.9146 84.2439 17.8361 84.0525 17.6836C83.9742 17.5877 83.9133 17.4787 83.8785 17.3654C83.8394 17.2477 83.8263 17.1257 83.835 16.9993V16.1929C82.9695 17.3392 81.6255 17.9233 79.8118 17.9233H78.433C77.0717 17.9233 76.0669 17.6008 75.4363 16.9382C74.8056 16.2757 74.4707 15.2645 74.4707 13.8785C74.4707 12.488 74.7839 11.4594 75.4363 10.8187C76.0887 10.1736 77.0717 9.83361 78.433 9.83361H83.835C83.7741 8.84855 83.5392 8.18167 83.126 7.79811C82.7129 7.41455 81.9648 7.23584 80.9165 7.23584H79.4769C78.5505 7.23584 77.8807 7.3143 77.4457 7.49736C77.2543 7.55838 77.0717 7.66299 76.9238 7.80247C76.7759 7.94195 76.6541 8.11193 76.5802 8.30372C76.5106 8.53908 76.3801 8.75702 76.2061 8.92701C76.0365 9.05777 75.8277 9.12315 75.6146 9.11007C75.3797 9.11879 75.1536 9.04905 74.9622 8.90957C74.8839 8.84855 74.823 8.76573 74.7795 8.67856C74.736 8.59139 74.7099 8.49114 74.7056 8.38653C74.7012 8.31679 74.7056 8.25141 74.7273 8.18603C74.8013 7.75452 74.9665 7.34045 75.2188 6.98304C75.4667 6.62563 75.7929 6.32488 76.167 6.11131C76.9368 5.64929 78.0416 5.42699 79.4595 5.42699L80.9165 5.39648ZM83.735 14.0397C83.7567 13.9351 83.7872 13.8349 83.835 13.739V11.6425H78.433C77.5675 11.6425 76.9934 11.8037 76.6976 12.1045C76.4018 12.4052 76.2453 12.9893 76.2453 13.8785C76.2453 14.7633 76.4018 15.3473 76.6976 15.6524C76.9934 15.9532 77.5631 16.1144 78.433 16.1144H79.8118C82.0822 16.0927 83.4001 15.4083 83.735 14.0397Z" fill="white"/>
    <path d="M90.3028 0L95.5873 7.39232L100.872 0H103.299L96.7747 9.00503L103.103 17.7442H100.676L95.5873 10.5959L90.4985 17.7442H88.0541L94.3825 9.00503L87.8584 0H90.3028Z" fill="white"/>
    <path d="M111.998 3.26469C112.02 3.93593 111.841 4.59409 111.493 5.16072C111.145 5.72735 110.637 6.17629 110.036 6.44653C109.436 6.71677 108.771 6.79958 108.127 6.6819C107.483 6.56421 106.883 6.25039 106.413 5.78401C105.943 5.31763 105.617 4.72049 105.482 4.06233C105.348 3.40853 105.404 2.72422 105.652 2.10529C105.9 1.48635 106.322 0.954595 106.866 0.579748C107.409 0.204902 108.049 0.00440259 108.705 0.00440259C109.132 -0.00867345 109.558 0.0654241 109.958 0.222337C110.358 0.379249 110.719 0.618976 111.028 0.924084C111.337 1.22919 111.58 1.59096 111.746 1.99632C111.911 2.39296 111.998 2.82447 111.998 3.26469ZM106.248 3.26469C106.248 3.94029 106.509 4.58537 106.979 5.06047C107.444 5.53557 108.079 5.8058 108.736 5.8058C109.397 5.8058 110.028 5.53993 110.493 5.06047C110.958 4.58537 111.224 3.93593 111.224 3.26469C111.237 2.92472 111.18 2.5891 111.063 2.27092C110.945 1.95273 110.767 1.66506 110.541 1.41661C110.315 1.16817 110.036 0.972029 109.732 0.83691C109.427 0.701791 109.101 0.627694 108.766 0.623335C108.431 0.627694 108.101 0.697433 107.792 0.832552C107.483 0.967671 107.205 1.16381 106.97 1.4079C106.735 1.65198 106.552 1.94401 106.426 2.2622C106.304 2.58038 106.244 2.92036 106.248 3.26469ZM108.231 5.01252H107.492V1.71736C107.901 1.63891 108.318 1.60404 108.736 1.61276C109.123 1.58224 109.506 1.66506 109.845 1.85248C109.945 1.94401 110.019 2.05298 110.071 2.17938C110.123 2.30579 110.149 2.43655 110.145 2.57166C110.132 2.75473 110.058 2.92908 109.936 3.06855C109.815 3.20367 109.649 3.29521 109.471 3.32572V3.36059C109.632 3.41725 109.775 3.52622 109.875 3.66569C109.975 3.80517 110.036 3.97516 110.041 4.14951C110.08 4.43282 110.158 4.71178 110.276 4.9733H109.475C109.34 4.72921 109.253 4.45897 109.206 4.18438C109.197 4.10592 109.171 4.02746 109.132 3.95772C109.093 3.88799 109.04 3.82696 108.975 3.77902C108.914 3.73107 108.84 3.6962 108.766 3.67877C108.692 3.66133 108.61 3.65698 108.536 3.66569H108.201L108.231 5.01252ZM108.231 3.12522H108.566C108.971 3.12522 109.306 2.98574 109.306 2.64576C109.306 2.30579 109.106 2.13144 108.631 2.13144C108.431 2.13144 108.297 2.16631 108.227 2.16631V3.12522H108.231Z" fill="white"/>
</svg>
