<svg width="80" height="14" viewBox="0 0 80 14" fill="none" xmlns="http://www.w3.org/2000/svg">
    <path d="M0.687158 13.8824C0.229053 13.8824 0 13.6479 0 13.1855V1.63208C0 1.16968 0.229053 0.938477 0.687158 0.938477C1.14526 0.938477 1.37432 1.16968 1.37432 1.63543V13.1855C1.37432 13.6479 1.14526 13.8824 0.687158 13.8824Z" fill="#4C88FF"/>
    <path d="M10.3849 4.24875C11.6379 4.24875 12.5676 4.54361 13.1503 5.14675C13.7297 5.74988 14.0362 6.67804 14.0362 7.94798V13.1685C14.043 13.2656 14.0261 13.3628 13.9924 13.4533C13.9587 13.5437 13.9049 13.6275 13.8375 13.6945C13.7701 13.7582 13.6893 13.8051 13.6051 13.8353C13.5175 13.8654 13.4265 13.8755 13.3356 13.8654C13.147 13.8721 12.9651 13.8118 12.8169 13.6945C12.7562 13.6208 12.7091 13.537 12.6821 13.4499C12.6518 13.3594 12.6417 13.2656 12.6484 13.1685V7.95133C12.6686 7.48222 12.5945 7.01312 12.4362 6.57417C12.3722 6.41668 12.2779 6.27595 12.16 6.15532C12.0421 6.0347 11.9006 5.94088 11.7491 5.87721C11.3145 5.71638 10.8531 5.64266 10.3916 5.65941H9.85601C8.90948 5.65941 8.14485 5.80014 7.5958 6.0615C7.04675 6.32286 6.75706 6.71155 6.75706 7.22422V13.1685C6.7638 13.2656 6.74696 13.3628 6.71327 13.4533C6.67959 13.5437 6.62569 13.6275 6.55833 13.6945C6.49096 13.7582 6.41012 13.8051 6.32591 13.8353C6.23833 13.8654 6.14738 13.8755 6.05643 13.8654C5.8678 13.8755 5.68254 13.8151 5.53769 13.6945C5.47706 13.6208 5.42991 13.537 5.40296 13.4499C5.37264 13.3594 5.36254 13.2656 5.36927 13.1685V4.9457C5.36254 4.76141 5.4198 4.57712 5.53769 4.43639C5.67917 4.30236 5.86443 4.22864 6.05643 4.23534C6.15075 4.22864 6.24506 4.2454 6.32927 4.2789C6.41685 4.31241 6.49433 4.36602 6.55833 4.43639C6.62569 4.5034 6.67622 4.58382 6.70991 4.67094C6.74359 4.75806 6.76043 4.85188 6.75706 4.94905V5.49188C7.42738 4.65419 8.46822 4.23869 9.87285 4.23869H10.3916V4.24875H10.3849Z" fill="#4C88FF"/>
    <path d="M24.6299 4.32567C24.9062 4.4664 25.0577 4.65069 25.0577 4.88189C25.051 5.00922 25.0173 5.13655 24.9668 5.25383L21.3322 13.3392C21.2682 13.5 21.1537 13.6374 21.0089 13.7312C20.864 13.8251 20.6956 13.872 20.5238 13.8653C20.3554 13.8686 20.1937 13.8184 20.0556 13.7212C19.9175 13.624 19.8165 13.4866 19.7592 13.3258L16.384 5.24043C16.3335 5.12985 16.3065 5.00587 16.3065 4.88525C16.3065 4.62054 16.4581 4.43624 16.7478 4.32902C16.8489 4.28211 16.9567 4.2553 17.0678 4.25195C17.344 4.25195 17.5259 4.40609 17.6472 4.70095L20.5642 11.6538L23.7137 4.6842C23.7575 4.55687 23.835 4.44965 23.9428 4.37258C24.0506 4.29551 24.1786 4.25195 24.3099 4.25195C24.4211 4.25195 24.5289 4.27876 24.6299 4.32567Z" fill="#4C88FF"/>
    <path d="M28.2947 9.63674V10.193C28.2779 10.6554 28.3486 11.1211 28.507 11.5567C28.571 11.7142 28.6653 11.8549 28.7832 11.9756C28.9011 12.0962 29.0425 12.19 29.1941 12.2537C29.6286 12.4145 30.0901 12.4882 30.5516 12.4715H32.1246C32.8421 12.4715 33.3609 12.3944 33.6977 12.2403C33.8628 12.1666 34.0042 12.0526 34.1154 11.9086C34.2265 11.7645 34.304 11.5969 34.3377 11.4193C34.3646 11.2384 34.4421 11.0709 34.5667 10.9402C34.715 10.8229 34.8969 10.7659 35.0821 10.7693C35.2674 10.776 35.4459 10.8464 35.5874 10.9703C35.6514 11.0407 35.6952 11.1245 35.7188 11.2149C35.7423 11.3054 35.7457 11.4026 35.7221 11.4964C35.6009 12.3173 35.2337 12.9205 34.6543 13.3092C34.075 13.6979 33.2194 13.8989 32.1347 13.8989H30.5617C29.3255 13.8989 28.3924 13.604 27.7996 13.0009C27.2034 12.3978 26.9137 11.4696 26.9137 10.2131V7.95131C26.9137 6.68138 27.2034 5.73647 27.7996 5.15008C28.3958 4.56035 29.3255 4.23533 30.5617 4.25208H32.1347C33.3878 4.25208 34.3175 4.54695 34.8969 5.15008C35.4762 5.75322 35.7828 6.68138 35.7828 7.95131V8.92638C35.7895 9.02356 35.7726 9.12073 35.739 9.2112C35.7053 9.30167 35.6514 9.38544 35.584 9.45245C35.5166 9.51612 35.4358 9.56303 35.3482 9.59318C35.2606 9.62334 35.1697 9.63339 35.0788 9.62334L28.2947 9.63674ZM28.2947 8.22943H34.4017V7.95131C34.4219 7.48221 34.3478 7.0131 34.1895 6.57415C34.1255 6.41667 34.0312 6.27594 33.9133 6.15531C33.7954 6.03468 33.6539 5.94086 33.5023 5.8772C33.0678 5.71636 32.6063 5.64264 32.1449 5.6594H30.5718C29.9756 5.64264 29.5343 5.70631 29.2143 5.86044C29.056 5.92746 28.9145 6.02798 28.7966 6.15196C28.6787 6.27594 28.5878 6.42337 28.5272 6.58756C28.3689 7.02986 28.2947 7.49561 28.315 7.96472V8.22943H28.2947Z" fill="#4C88FF"/>
    <path d="M41.5326 13.8823C40.7175 13.8823 40.091 13.7114 39.6531 13.373C39.1849 12.981 38.8817 12.4214 38.8143 11.8082C38.7874 11.7144 38.784 11.6139 38.8076 11.5167C38.8312 11.4195 38.8817 11.3357 38.9491 11.2654C39.0198 11.1984 39.104 11.1448 39.195 11.1112C39.2859 11.0777 39.3836 11.061 39.4813 11.0643C39.5689 11.0576 39.6531 11.0677 39.7373 11.0978C39.8181 11.128 39.8922 11.1749 39.9562 11.2352C40.0809 11.3827 40.1651 11.5569 40.1988 11.7445C40.2156 11.8618 40.2594 11.9724 40.3268 12.0696C40.3941 12.1667 40.4783 12.2472 40.5828 12.3041C40.7815 12.4113 41.1015 12.4582 41.5293 12.4582H44.6754C45.2109 12.4582 45.5781 12.3644 45.7735 12.1801C45.9722 11.9791 46.0631 11.6072 46.0631 11.0509C46.0631 10.4947 45.9722 10.1228 45.7735 9.93513C45.5747 9.75084 45.2244 9.64027 44.6754 9.64027H41.5764C39.7912 9.64027 38.9053 8.74227 38.9053 6.92951C38.9053 6.00135 39.1175 5.3178 39.5621 4.88555C40.0034 4.4533 40.6771 4.21875 41.5764 4.21875H44.5676C46.0497 4.21875 46.9052 4.8688 47.1478 6.15548C47.1747 6.24931 47.1781 6.34983 47.1545 6.447C47.1309 6.54417 47.0804 6.62794 47.0097 6.69831C46.9389 6.76532 46.8547 6.81893 46.7638 6.85244C46.6728 6.88595 46.5751 6.9027 46.4775 6.89935C46.3057 6.91275 46.1339 6.85579 46.0025 6.74522C45.8779 6.59778 45.7937 6.42354 45.76 6.2359C45.7398 6.13538 45.696 6.03821 45.632 5.95779C45.568 5.87737 45.4871 5.81371 45.3928 5.77015C45.1368 5.66292 44.8606 5.61601 44.5844 5.62942H41.5899C41.0712 5.62942 40.7343 5.70648 40.5524 5.87737C40.3705 6.04826 40.3099 6.40344 40.3099 6.92951C40.3099 7.45558 40.3874 7.7806 40.5524 7.96824C40.7175 8.15588 41.0712 8.24635 41.5899 8.24635H44.6888C45.6219 8.24635 46.3225 8.47756 46.7671 8.94331C47.2084 9.40906 47.4543 10.106 47.4543 11.0476C47.4543 11.9891 47.2252 12.7029 46.7671 13.1686C46.309 13.6344 45.6219 13.8488 44.6888 13.8488L41.5326 13.8823Z" fill="#4C88FF"/>
    <path d="M54.8177 12.4718C55.2758 12.4718 55.5049 12.703 55.5049 13.1688C55.5116 13.266 55.4948 13.3631 55.4611 13.4536C55.4274 13.5441 55.3735 13.6278 55.3061 13.6949C55.2388 13.7585 55.1579 13.8054 55.0704 13.8356C54.9828 13.8657 54.8918 13.8758 54.8009 13.8657C53.5647 13.8657 52.662 13.5709 52.0691 12.9845C51.4729 12.3948 51.2001 11.4834 51.2001 10.2436V5.643H50.1761C49.9875 5.6497 49.8056 5.58939 49.6574 5.47211C49.5967 5.39839 49.5496 5.31463 49.5226 5.22751C49.4923 5.13704 49.4822 5.04321 49.4889 4.94604C49.4822 4.76175 49.5395 4.57746 49.6574 4.43673C49.7955 4.3027 49.9841 4.22898 50.1761 4.23568H51.2001V2.56366C51.2001 2.0979 51.4291 1.8667 51.8872 1.8667C52.3453 1.8667 52.5744 2.0979 52.5744 2.56366V4.23568H54.8649C54.9592 4.22898 55.0535 4.24573 55.1377 4.27924C55.2253 4.31275 55.3028 4.36636 55.3668 4.43673C55.4341 4.50374 55.4847 4.58416 55.5184 4.67128C55.552 4.7584 55.5689 4.85222 55.5655 4.94939C55.5722 5.04321 55.5621 5.14039 55.5285 5.23086C55.4948 5.32133 55.4442 5.40174 55.3769 5.46876C55.3095 5.53577 55.2287 5.58604 55.1411 5.61619C55.0535 5.64635 54.9592 5.6564 54.8649 5.64635H52.5744V10.2436C52.5744 10.8333 52.635 11.2823 52.7731 11.6073C52.9045 11.9089 53.147 12.1468 53.4434 12.2741C53.8847 12.4216 54.3529 12.4886 54.8177 12.4718Z" fill="#4C88FF"/>
    <path d="M62.6661 4.24902C63.9192 4.24902 64.8488 4.54389 65.4282 5.14702C66.0076 5.75016 66.3141 6.67831 66.3141 7.94825V13.1687C66.3208 13.2659 66.3074 13.3631 66.2703 13.4535C66.2366 13.544 66.1827 13.6278 66.1154 13.6948C66.048 13.7584 65.9672 13.8054 65.8829 13.8355C65.7954 13.8657 65.7044 13.8757 65.6135 13.8657C65.4248 13.8724 65.2429 13.8121 65.0947 13.6948C65.0341 13.6211 64.9869 13.5373 64.96 13.4502C64.9297 13.3597 64.9196 13.2659 64.9263 13.1687V12.5488C64.256 13.4301 63.2152 13.8791 61.8105 13.8791H60.7427C59.6884 13.8791 58.9103 13.6311 58.4219 13.1218C57.9335 12.6125 57.6741 11.8351 57.6741 10.7696C57.6741 9.70069 57.9166 8.90991 58.4219 8.41735C58.9272 7.92144 59.6884 7.66008 60.7427 7.66008H64.9263C64.8792 6.90281 64.6973 6.39015 64.3773 6.09528C64.0573 5.80042 63.4779 5.66304 62.6661 5.66304H61.5512C60.8337 5.66304 60.3149 5.72335 59.9781 5.86408C59.8299 5.91099 59.6884 5.99141 59.5739 6.09864C59.4594 6.20586 59.365 6.33654 59.3078 6.48397C59.2539 6.66491 59.1528 6.83245 59.0181 6.96313C58.8867 7.06365 58.7251 7.11391 58.56 7.10386C58.3781 7.11056 58.2029 7.05695 58.0547 6.94972C57.9941 6.90281 57.9469 6.83915 57.9133 6.77214C57.8796 6.70512 57.8594 6.62805 57.856 6.54763C57.8526 6.49402 57.856 6.44376 57.8728 6.3935C57.9301 6.06178 58.0581 5.74346 58.2535 5.46869C58.4455 5.19393 58.6981 4.96273 58.9878 4.79855C59.584 4.44337 60.4396 4.27248 61.5377 4.27248L62.6661 4.24902ZM64.8488 10.8936C64.8657 10.8131 64.8893 10.7361 64.9263 10.6624V9.05064H60.7427C60.0724 9.05064 59.6278 9.17462 59.3987 9.40582C59.1697 9.63702 59.0484 10.086 59.0484 10.7696C59.0484 11.4498 59.1697 11.8988 59.3987 12.1333C59.6278 12.3645 60.0691 12.4885 60.7427 12.4885H61.8105C63.5688 12.4718 64.5895 11.9457 64.8488 10.8936Z" fill="#4C88FF"/>
    <path d="M69.9352 0.100586L74.0278 5.78346L78.1204 0.100586H80L74.9474 7.02324L79.8484 13.7415H77.9688L74.0278 8.24627L70.0867 13.7415H68.1937L73.0947 7.02324L68.0421 0.100586H69.9352Z" fill="#4C88FF"/>
</svg>
