<svg width="18" height="18" viewBox="0 0 18 18" fill="none" xmlns="http://www.w3.org/2000/svg">
<path d="M6.75 3C3.435 3 0.75 5.685 0.75 9C0.75 12.315 3.435 15 6.75 15C10.065 15 12.75 12.315 12.75 9C12.75 5.685 10.065 3 6.75 3ZM9 7.875H7.5V11.625H6V7.875H4.5V6.75H9V7.875ZM15.1875 2.8125L17.25 3.75L15.1875 4.6875L14.25 6.75L13.3125 4.6875L11.25 3.75L13.3125 2.8125L14.25 0.75L15.1875 2.8125ZM15.1875 13.3125L17.25 14.25L15.1875 15.1875L14.25 17.25L13.3125 15.1875L11.25 14.25L13.3125 13.3125L14.25 11.25L15.1875 13.3125Z" fill="#8084F7"/>
</svg>
