<svg width="27" height="27" viewBox="0 0 27 27" fill="none" xmlns="http://www.w3.org/2000/svg">
<rect width="27" height="27" rx="6" fill="#FAF2DD"/>
<path d="M17 12.25C18.245 12.25 19.2425 11.245 19.2425 10C19.2425 8.755 18.245 7.75 17 7.75C15.755 7.75 14.75 8.755 14.75 10C14.75 11.245 15.755 12.25 17 12.25ZM11 12.25C12.245 12.25 13.2425 11.245 13.2425 10C13.2425 8.755 12.245 7.75 11 7.75C9.755 7.75 8.75 8.755 8.75 10C8.75 11.245 9.755 12.25 11 12.25ZM11 13.75C9.2525 13.75 5.75 14.6275 5.75 16.375V18.25H16.25V16.375C16.25 14.6275 12.7475 13.75 11 13.75ZM17 13.75C16.7825 13.75 16.535 13.765 16.2725 13.7875C17.1425 14.4175 17.75 15.265 17.75 16.375V18.25H22.25V16.375C22.25 14.6275 18.7475 13.75 17 13.75Z" fill="#F6C559"/>
</svg>
