<svg width="27" height="27" viewBox="0 0 27 27" fill="none" xmlns="http://www.w3.org/2000/svg">
<rect width="27" height="27" rx="6" fill="#EEF7F1"/>
<path d="M12.5 12C14.1569 12 15.5 10.6569 15.5 9C15.5 7.34315 14.1569 6 12.5 6C10.8431 6 9.5 7.34315 9.5 9C9.5 10.6569 10.8431 12 12.5 12Z" fill="#93CF89"/>
<path d="M12.7625 13.5075C10.715 13.4325 6.5 14.4525 6.5 16.5V18H13.655C11.8025 15.93 12.7325 13.5825 12.7625 13.5075Z" fill="#93CF89"/>
<path d="M19.5725 16.515C19.8425 16.0725 20 15.555 20 15C20 13.3425 18.6575 12 17 12C15.3425 12 14 13.3425 14 15C14 16.6575 15.3425 18 17 18C17.555 18 18.0725 17.835 18.515 17.5725L20.4425 19.5L21.5 18.4425L19.5725 16.515ZM17 16.5C16.175 16.5 15.5 15.825 15.5 15C15.5 14.175 16.175 13.5 17 13.5C17.825 13.5 18.5 14.175 18.5 15C18.5 15.825 17.825 16.5 17 16.5Z" fill="#93CF89"/>
</svg>
