<svg width="25" height="25" viewBox="0 0 25 25" fill="none" xmlns="http://www.w3.org/2000/svg">
    <path fill-rule="evenodd" clip-rule="evenodd" d="M14.541 5.46997C15.212 4.79889 16.1222 4.42188 17.0713 4.42188C18.0203 4.42188 18.9305 4.79889 19.6016 5.46997C20.2727 6.14106 20.6497 7.05125 20.6497 8.0003C20.6497 8.94936 20.2727 9.85955 19.6016 10.5306L9.10162 21.0306C8.96097 21.1713 8.7702 21.2503 8.57129 21.2503H4.57129C4.15708 21.2503 3.82129 20.9145 3.82129 20.5003V16.5003C3.82129 16.3014 3.90031 16.1106 4.04096 15.97L14.541 5.46997ZM17.0713 5.92188C16.5201 5.92188 15.9914 6.14085 15.6016 6.53063L5.32129 16.811V19.7503H8.26063L18.541 9.46997C18.9307 9.08019 19.1497 8.55154 19.1497 8.0003C19.1497 7.44907 18.9307 6.92041 18.541 6.53063C18.1512 6.14085 17.6225 5.92188 17.0713 5.92188Z" fill="#778194"/>
    <path fill-rule="evenodd" clip-rule="evenodd" d="M13.541 6.46967C13.8339 6.17678 14.3087 6.17678 14.6016 6.46967L18.6016 10.4697C18.8945 10.7626 18.8945 11.2374 18.6016 11.5303C18.3087 11.8232 17.8339 11.8232 17.541 11.5303L13.541 7.53033C13.2481 7.23744 13.2481 6.76256 13.541 6.46967Z" fill="#778194"/>
</svg>
