<svg width="100" height="27" viewBox="0 0 100 27" fill="none" xmlns="http://www.w3.org/2000/svg">
<g clip-path="url(#clip0_1467_270)">
<path d="M33.1515 6.62402C33.4277 6.62402 33.6517 6.86273 33.6517 7.15717V20.0546C33.6517 20.3491 33.4277 20.5878 33.1515 20.5878H31.4443C31.1681 20.5878 30.9443 20.3491 30.9443 20.0546V7.15717C30.9443 6.86273 31.1681 6.62402 31.4443 6.62402H33.1515Z" fill="#16171C"/>
<path d="M35.3349 20.5878C34.93 20.5878 34.693 20.1015 34.9256 19.7483L39.0756 13.4466L35.3079 7.45403C35.0851 7.09982 35.3233 6.62402 35.7233 6.62402H37.5829C37.7519 6.62402 37.9093 6.71502 38.0017 6.86593L39.304 8.99505C39.7349 9.71666 40.1568 10.4383 40.5698 11.1599C40.9919 10.4383 41.4137 9.71666 41.862 8.99505L43.1904 6.86224C43.283 6.71345 43.4394 6.62402 43.607 6.62402H45.3979C45.798 6.62402 46.0361 7.1003 45.813 7.45447L42.0905 13.3622L46.1807 19.7541C46.4073 20.1081 46.1695 20.5878 45.7676 20.5878H43.8532C43.6857 20.5878 43.5292 20.4983 43.4365 20.3494L41.7478 17.6356C41.3346 16.9797 40.9391 16.3237 40.5435 15.6583C40.1391 16.3237 39.7349 16.9797 39.3129 17.6356L37.5719 20.3552C37.4788 20.5006 37.3242 20.5878 37.159 20.5878H35.3349Z" fill="#16171C"/>
<path d="M54.789 20.8125C51.6326 20.8125 49.7112 19.2474 49.4919 16.5376C49.4683 16.2442 49.6949 16.0049 49.9709 16.0049H51.5935C51.8651 16.0049 52.0808 16.2381 52.1342 16.5217C52.3645 17.7416 53.3257 18.4415 54.8065 18.4415C56.3097 18.4415 57.3029 17.7386 57.3029 16.6515C57.3029 15.7518 56.6173 15.227 54.956 14.8428L53.5759 14.5241C50.9828 13.9243 49.7259 12.6404 49.7259 10.6443C49.7259 8.10457 51.7212 6.39893 54.701 6.39893C57.5148 6.39893 59.3333 7.87631 59.6279 10.3588C59.6633 10.6571 59.4342 10.9067 59.1521 10.9067H57.5985C57.3375 10.9067 57.1269 10.6897 57.058 10.4212C56.793 9.38847 55.9348 8.76995 54.7098 8.76995C53.3737 8.76995 52.4332 9.4822 52.4332 10.5037C52.4332 11.3659 53.0837 11.8438 54.6922 12.2187L55.9492 12.5092C58.7445 13.1371 59.9839 14.3648 59.9839 16.464C59.9839 19.1538 58.015 20.8125 54.789 20.8125Z" fill="#16171C"/>
<path d="M63.571 20.5879C63.3514 20.5879 63.1576 20.4352 63.093 20.2115L60.5439 11.3814C60.445 11.0385 60.6855 10.6914 61.0219 10.6914H62.6666C62.8937 10.6914 63.0924 10.8547 63.1503 11.089L63.9049 14.1495C64.1861 15.321 64.441 16.5767 64.6959 17.8045C64.9773 16.5767 65.2585 15.321 65.5486 14.1495L66.3356 11.0838C66.3952 10.8521 66.5927 10.6914 66.818 10.6914H68.392C68.6178 10.6914 68.8156 10.8527 68.8746 11.0851L69.6535 14.1495C69.9437 15.3116 70.2249 16.5674 70.4974 17.795C70.7523 16.5674 70.9984 15.321 71.271 14.1495L72.0175 11.0903C72.0748 10.8554 72.2738 10.6914 72.5014 10.6914H74.189C74.5254 10.6914 74.7658 11.0385 74.667 11.3814L72.118 20.2115C72.0533 20.4352 71.8595 20.5879 71.64 20.5879H69.703C69.481 20.5879 69.2855 20.4317 69.2231 20.2045L68.2472 16.6517C68.0274 15.8177 67.8165 14.9368 67.6055 14.0558C67.3945 14.9368 67.1836 15.8177 66.955 16.6517L65.9708 20.2056C65.9081 20.4324 65.713 20.5879 65.4912 20.5879H63.571Z" fill="#16171C"/>
<path d="M78.1714 20.7562C76.3166 20.7562 74.9805 19.7722 74.9805 17.7947C74.9805 15.5643 76.6683 14.927 78.6021 14.7396C80.2985 14.5615 80.8963 14.4772 80.8963 13.8399V13.7743C80.8963 13.0433 80.325 12.5373 79.3756 12.5373C78.6235 12.5373 78.0736 12.8548 77.8373 13.3531C77.7203 13.6 77.515 13.8212 77.2555 13.8212H75.8101C75.5223 13.8212 75.2897 13.5609 75.3493 13.2606C75.6897 11.5445 77.1473 10.4849 79.4548 10.4849C81.995 10.4849 83.4542 11.7594 83.4542 13.8774V20.0543C83.4542 20.3488 83.2304 20.5875 82.9542 20.5875H81.4228C81.1465 20.5875 80.9226 20.3488 80.9226 20.0543V19.1911H80.8875C80.3953 20.1563 79.5953 20.7562 78.1714 20.7562ZM78.8921 18.835C80.1404 18.835 80.9138 18.0385 80.9138 16.97V15.9767C80.615 16.1546 79.8855 16.2858 79.0504 16.4265C78.1626 16.567 77.4593 16.9326 77.4593 17.7198C77.4593 18.4226 78.0219 18.835 78.8921 18.835Z" fill="#16171C"/>
<path d="M85.422 24.5049C85.1458 24.5049 84.9219 24.2662 84.9219 23.9717V11.2242C84.9219 10.9297 85.1458 10.691 85.422 10.691H86.9797C87.2559 10.691 87.4799 10.9297 87.4799 11.2242V12.0312H87.5062C88.0775 11.0003 89.0533 10.4849 90.2576 10.4849C92.6308 10.4849 94.257 12.5935 94.257 15.6299C94.257 18.7319 92.6661 20.7937 90.2399 20.7937C89.0181 20.7937 88.0775 20.222 87.5414 19.1068H87.515V23.9717C87.515 24.2662 87.2912 24.5049 87.015 24.5049H85.422ZM89.5719 18.5445C90.8289 18.5445 91.6464 17.4855 91.6464 15.6299C91.6464 13.7743 90.8289 12.7153 89.5719 12.7153C88.2621 12.7153 87.3919 13.868 87.3919 15.6299C87.3919 17.4012 88.2621 18.5445 89.5719 18.5445Z" fill="#16171C"/>
<path d="M97.1179 6.39919C95.5377 6.39919 94.2578 5.01885 94.2578 3.32118C94.2578 1.62351 95.5377 0.243164 97.1179 0.243164C98.703 0.243164 99.9829 1.62351 99.9829 3.32118C99.9829 5.01885 98.7079 6.39919 97.1179 6.39919ZM97.1179 5.61119C98.3042 5.61648 99.2593 4.59046 99.2593 3.32118C99.2593 2.05718 98.3042 1.03118 97.1179 1.03118C95.9414 1.03118 94.9863 2.05718 94.9863 3.32118C94.9863 4.58517 95.9414 5.61648 97.1179 5.61119ZM96.3245 4.70681C96.1998 4.70681 96.0988 4.5982 96.0988 4.46421V2.11469C96.0988 1.9807 96.1998 1.87208 96.3245 1.87208H97.4083C97.8415 1.86679 98.2845 2.1894 98.2845 2.79231C98.2845 3.17839 98.1073 3.4534 97.8612 3.60678L98.2127 4.35482C98.2885 4.51617 98.1794 4.70681 98.0113 4.70681H97.8104C97.724 4.70681 97.6452 4.65384 97.6074 4.57036L97.2361 3.74956H96.7437V4.46421C96.7437 4.5982 96.6427 4.70681 96.5182 4.70681H96.3245ZM96.7437 2.99925C96.7437 3.13323 96.8447 3.24185 96.9694 3.24185H97.2163C97.4033 3.24185 97.5954 3.09376 97.5954 2.79231C97.5954 2.48557 97.3935 2.3745 97.2212 2.3745H96.9694C96.8447 2.3745 96.7437 2.48312 96.7437 2.61711V2.99925Z" fill="#16171C"/>
<path opacity="0.7" d="M12.3344 0.382564C12.4988 0.205794 12.7593 0.199281 12.9162 0.368015L18.599 6.47846L12.2144 6.6415L12.2073 0.72605C12.2029 0.603973 12.2455 0.478161 12.3344 0.382564Z" fill="#16171C"/>
<path d="M18.5984 6.47837C18.7554 6.6471 18.7492 6.92719 18.5849 7.10397L12.2229 13.9448L0.705862 13.9331C0.599184 13.9369 0.493131 13.8964 0.413647 13.8109C0.256723 13.6422 0.26278 13.3621 0.427177 13.1853L6.64842 6.49582C6.7317 6.40629 6.83961 6.36043 6.94625 6.35891L18.2845 6.35758C18.3984 6.34712 18.5135 6.38713 18.5984 6.47837Z" fill="#16171C"/>
<path opacity="0.7" d="M12.9296 26.6281C12.7652 26.8048 12.5047 26.8114 12.3478 26.6426L6.66504 20.5322L13.0431 20.3691L13.0566 26.2847C13.0611 26.4067 13.0185 26.5324 12.9296 26.6281Z" fill="#16171C"/>
<path d="M6.66463 20.5325C6.5077 20.3639 6.51376 20.0838 6.67815 19.9069L13.0266 13.0808L24.5571 13.0779C24.6639 13.0741 24.7699 13.1146 24.8493 13.2C25.0063 13.3688 25.0003 13.6489 24.8358 13.8256L18.6147 20.5151C18.5313 20.6047 18.4235 20.6504 18.3167 20.652L6.9785 20.6533C6.86464 20.6639 6.74949 20.6238 6.66463 20.5325Z" fill="#16171C"/>
</g>
<defs>
<clipPath id="clip0_1467_270">
<rect width="100" height="27" fill="white"/>
</clipPath>
</defs>
</svg>
