<svg width="88" height="31" viewBox="0 0 88 31" fill="none" xmlns="http://www.w3.org/2000/svg">
<g clip-path="url(#clip0_2200_65)">
<path d="M84.4975 12C82.5654 12 81.0005 10.4304 81.0005 8.5C81.0005 6.56959 82.5654 5 84.4975 5C86.4356 5 88.0005 6.56959 88.0005 8.5C88.0005 10.4304 86.4416 12 84.4975 12ZM84.4975 11.104C85.948 11.11 87.1157 9.9433 87.1157 8.5C87.1157 7.06271 85.948 5.89605 84.4975 5.89605C83.059 5.89605 81.8913 7.06271 81.8913 8.5C81.8913 9.93729 83.059 11.11 84.4975 11.104ZM83.5274 10.0756C83.3751 10.0756 83.2516 9.95209 83.2516 9.79974V7.1281C83.2516 6.97574 83.3751 6.85223 83.5274 6.85223H84.8526C85.3823 6.84622 85.924 7.21306 85.924 7.89863C85.924 8.33763 85.7073 8.65034 85.4063 8.82474L85.8361 9.67534C85.9288 9.85882 85.7954 10.0756 85.5899 10.0756H85.3442C85.2386 10.0756 85.1423 10.0154 85.0961 9.92044L84.6419 8.98711H84.04V9.79974C84.04 9.95209 83.9165 10.0756 83.7642 10.0756H83.5274ZM84.04 8.13393C84.04 8.28629 84.1635 8.40979 84.3159 8.40979H84.6179C84.8466 8.40979 85.0813 8.24141 85.0813 7.89863C85.0813 7.54983 84.8345 7.42354 84.6239 7.42354H84.3159C84.1635 7.42354 84.04 7.54705 84.04 7.6994V8.13393Z" fill="#292933"/>
<path opacity="0.7" d="M15.3585 29.7681C15.1613 29.9653 14.8487 29.9726 14.6605 29.7843L7.84229 22.9661L15.5026 22.7842L15.511 29.3848C15.5163 29.521 15.4652 29.6614 15.3585 29.7681Z" fill="#292933"/>
<path d="M7.84118 22.9659C7.6529 22.7776 7.66017 22.4651 7.85742 22.2679L15.4906 14.6348L29.3087 14.6478C29.4367 14.6436 29.564 14.6888 29.6593 14.7841C29.8476 14.9724 29.8404 15.2849 29.6431 15.4822L22.1788 22.9464C22.0789 23.0464 21.9495 23.0975 21.8215 23.0992L8.21777 23.1007C8.08116 23.1124 7.943 23.0677 7.84118 22.9659Z" fill="#292933"/>
<path opacity="0.7" d="M14.6425 0.482901C14.8398 0.285656 15.1523 0.278388 15.3406 0.466667L22.1588 7.28484L14.5064 7.46676L14.4901 0.866169C14.4848 0.729953 14.5359 0.589569 14.6425 0.482901Z" fill="#292933"/>
<path d="M22.1598 7.28406C22.348 7.47233 22.3408 7.78486 22.1435 7.98211L14.5267 15.599L0.692267 15.6022C0.564275 15.6064 0.437033 15.5612 0.341668 15.4659C0.153389 15.2776 0.160656 14.9651 0.3579 14.7678L7.82217 7.30353C7.92208 7.20363 8.05156 7.15246 8.1795 7.15076L21.7832 7.14928C21.9198 7.1376 22.0579 7.18224 22.1598 7.28406Z" fill="#292933"/>
<path d="M35.0005 5.93188C35.0005 5.65574 35.2243 5.43188 35.5005 5.43188H39.3605C39.6366 5.43188 39.8605 5.65574 39.8605 5.93188V24.2369C39.8605 24.513 39.6366 24.7369 39.3605 24.7369H35.5005C35.2243 24.7369 35.0005 24.513 35.0005 24.2369V5.93188Z" fill="#292933"/>
<path d="M47.6714 14.8819L42.2858 6.19535C42.0792 5.86226 42.3188 5.43188 42.7107 5.43188H46.6595C46.835 5.43188 46.9977 5.5239 47.0881 5.67434L50.4794 11.3179H50.5334L53.9515 5.6729C54.0421 5.52328 54.2043 5.43188 54.3792 5.43188H58.3264C58.7189 5.43188 58.9583 5.8634 58.7507 6.19644L53.3684 14.8279L59.2694 23.9657C59.4842 24.2984 59.2454 24.7369 58.8493 24.7369H54.6476C54.4735 24.7369 54.312 24.6464 54.2211 24.4979L50.5334 18.4729H50.4794L46.8185 24.4966C46.7278 24.6458 46.5658 24.7369 46.3912 24.7369H42.1932C41.7966 24.7369 41.5579 24.2972 41.7739 23.9646L47.6714 14.8819Z" fill="#292933"/>
<path d="M68.4921 12.749C72.1371 13.748 75.8901 14.936 75.8901 19.067C75.8901 22.766 73.0821 25.169 68.2491 25.169C63.4256 25.169 59.7478 22.8775 59.4646 18.8925C59.4451 18.6171 59.6709 18.392 59.9471 18.392H63.8071C64.0832 18.392 64.3015 18.618 64.3454 18.8906C64.6148 20.5678 66.2739 21.2 68.2491 21.2C70.0581 21.2 71.0301 20.498 71.0301 19.526C71.0301 17.987 68.9511 17.636 66.2241 16.826C62.9031 15.854 59.9871 14.423 59.9871 10.859C59.9871 6.647 63.2811 5 67.4391 5C71.7461 5 75.1662 7.16786 75.5817 10.7741C75.6141 11.0551 75.3854 11.291 75.1026 11.291H71.1915C70.9436 11.291 70.7385 11.1071 70.6646 10.8706C70.2888 9.66841 69.1153 8.969 67.4391 8.969C65.9811 8.969 64.8471 9.428 64.8471 10.508C64.8471 11.696 66.0621 12.074 68.4921 12.749Z" fill="#292933"/>
</g>
<defs>
<clipPath id="clip0_2200_65">
<rect width="88" height="31" fill="white"/>
</clipPath>
</defs>
</svg>
