<svg width="150" height="150" viewBox="0 0 150 150" fill="none" xmlns="http://www.w3.org/2000/svg">
<path d="M141.152 149.728C136.422 149.728 132.591 145.885 132.591 141.159C132.591 136.433 136.422 132.59 141.152 132.59C145.897 132.59 149.728 136.433 149.728 141.159C149.728 145.885 145.912 149.728 141.152 149.728ZM141.152 147.534C144.703 147.549 147.562 144.693 147.562 141.159C147.562 137.64 144.703 134.784 141.152 134.784C137.63 134.784 134.772 137.64 134.772 141.159C134.772 144.678 137.63 147.549 141.152 147.534ZM138.777 145.016C138.404 145.016 138.102 144.714 138.102 144.341V137.8C138.102 137.427 138.404 137.125 138.777 137.125H142.022C143.318 137.11 144.645 138.008 144.645 139.687C144.645 140.761 144.114 141.527 143.377 141.954L144.429 144.037C144.656 144.486 144.33 145.016 143.826 145.016H143.225C142.967 145.016 142.731 144.869 142.618 144.637L141.506 142.351H140.032V144.341C140.032 144.714 139.73 145.016 139.357 145.016H138.777ZM140.032 140.263C140.032 140.636 140.335 140.938 140.708 140.938H141.447C142.007 140.938 142.581 140.526 142.581 139.687C142.581 138.833 141.977 138.524 141.462 138.524H140.708C140.335 138.524 140.032 138.826 140.032 139.199V140.263Z" fill="#16171C"/>
<path opacity="0.7" d="M73.2151 1.78608C74.2015 0.799864 75.7639 0.763523 76.7053 1.70491L110.796 35.7957L72.4951 36.7053L72.4531 3.7024C72.4264 3.02134 72.6817 2.31942 73.2151 1.78608Z" fill="#16171C"/>
<path d="M110.795 35.7956C111.737 36.737 111.701 38.2997 110.714 39.2858L72.5491 77.4512L3.45839 77.3861C2.81844 77.4074 2.18223 77.1812 1.7054 76.7045C0.764013 75.7631 0.800349 74.2004 1.78657 73.2143L39.1078 35.8931C39.6073 35.3936 40.2547 35.1377 40.8943 35.1293L108.913 35.1218C109.596 35.0636 110.286 35.2865 110.795 35.7956Z" fill="#16171C"/>
<path opacity="0.7" d="M76.7861 148.214C75.7997 149.2 74.237 149.237 73.2959 148.295L39.2051 114.205L77.4671 113.295L77.5481 146.298C77.5748 146.979 77.3192 147.681 76.7861 148.214Z" fill="#16171C"/>
<path d="M39.2045 114.205C38.2631 113.263 38.2994 111.701 39.2855 110.714L77.3696 72.6304L146.541 72.6142C147.181 72.5929 147.818 72.8191 148.294 73.2958C149.236 74.2372 149.199 75.7999 148.213 76.786L110.892 114.107C110.393 114.607 109.745 114.863 109.106 114.871L41.0873 114.878C40.4042 114.937 39.7136 114.714 39.2045 114.205Z" fill="#16171C"/>
</svg>
