<svg width="681" height="171" viewBox="0 0 681 171" fill="none" xmlns="http://www.w3.org/2000/svg">
<path d="M225.76 41.9518C227.641 41.9518 229.166 43.4636 229.166 45.3284V127.012C229.166 128.877 227.641 130.389 225.76 130.389H214.134C212.253 130.389 210.729 128.877 210.729 127.012V45.3284C210.729 43.4636 212.253 41.9518 214.134 41.9518H225.76Z" fill="#16171C"/>
<path d="M240.628 130.389C237.871 130.389 236.257 127.309 237.841 125.072L266.102 85.1613L240.444 47.2085C238.927 44.9652 240.549 41.9518 243.273 41.9518H255.937C257.088 41.9518 258.16 42.5281 258.789 43.4839L267.658 56.9683C270.592 61.5385 273.465 66.1088 276.278 70.679C279.152 66.1088 282.025 61.5385 285.078 56.9683L294.124 43.4605C294.755 42.5182 295.82 41.9518 296.961 41.9518H309.157C311.882 41.9518 313.503 44.9682 311.984 47.2113L286.634 84.6271L314.488 125.109C316.031 127.351 314.412 130.389 311.675 130.389H298.638C297.497 130.389 296.431 129.822 295.8 128.879L284.3 111.692C281.486 107.538 278.793 103.383 276.099 99.1687C273.345 103.383 270.592 107.538 267.718 111.692L255.862 128.916C255.228 129.837 254.175 130.389 253.05 130.389H240.628Z" fill="#16171C"/>
<path d="M373.111 131.813C351.616 131.813 338.531 121.901 337.038 104.739C336.877 102.881 338.42 101.365 340.3 101.365H351.35C353.199 101.365 354.668 102.842 355.032 104.638C356.6 112.364 363.146 116.797 373.23 116.797C383.467 116.797 390.231 112.345 390.231 105.46C390.231 99.7623 385.562 96.4385 374.248 94.005L364.85 91.987C347.191 88.1883 338.631 80.0569 338.631 67.4145C338.631 51.3297 352.219 40.5273 372.512 40.5273C391.674 40.5273 404.058 49.8841 406.064 65.6065C406.305 67.4959 404.745 69.0764 402.824 69.0764H392.244C390.466 69.0764 389.032 67.702 388.563 66.0015C386.758 59.4611 380.914 55.5438 372.572 55.5438C363.473 55.5438 357.068 60.0547 357.068 66.5242C357.068 71.9848 361.498 75.0118 372.452 77.386L381.012 79.2259C400.048 83.2026 408.488 90.9779 408.488 104.273C408.488 121.308 395.08 131.813 373.111 131.813Z" fill="#16171C"/>
<path d="M432.915 130.389C431.42 130.389 430.1 129.422 429.66 128.005L412.301 72.0811C411.627 69.9097 413.265 67.7113 415.556 67.7113H426.756C428.303 67.7113 429.656 68.7456 430.05 70.2294L435.189 89.6128C437.104 97.032 438.84 104.985 440.576 112.761C442.492 104.985 444.407 97.032 446.383 89.6128L451.742 70.1965C452.148 68.7289 453.493 67.7113 455.027 67.7113H465.746C467.284 67.7113 468.631 68.7331 469.033 70.2047L474.337 89.6128C476.313 96.9727 478.228 104.926 480.084 112.701C481.82 104.926 483.496 97.032 485.352 89.6128L490.436 70.2377C490.826 68.7499 492.181 67.7113 493.731 67.7113H505.224C507.515 67.7113 509.152 69.9097 508.479 72.0811L491.12 128.005C490.68 129.422 489.36 130.389 487.865 130.389H474.674C473.162 130.389 471.831 129.4 471.406 127.961L464.76 105.46C463.263 100.178 461.827 94.5985 460.39 89.0193C458.953 94.5985 457.517 100.178 455.96 105.46L449.258 127.968C448.831 129.404 447.502 130.389 445.992 130.389H432.915Z" fill="#16171C"/>
<path d="M532.345 131.457C519.714 131.457 510.615 125.225 510.615 112.701C510.615 98.5752 522.109 94.5392 535.278 93.3521C546.831 92.2244 550.902 91.6902 550.902 87.6541V87.2387C550.902 82.6091 547.011 79.404 540.546 79.404C535.424 79.404 531.679 81.4149 530.07 84.5708C529.273 86.1346 527.875 87.5354 526.108 87.5354H516.265C514.305 87.5354 512.721 85.8872 513.127 83.9854C515.445 73.1165 525.371 66.4055 541.085 66.4055C558.384 66.4055 568.321 74.4776 568.321 87.8916V127.012C568.321 128.877 566.797 130.389 564.916 130.389H554.487C552.606 130.389 551.081 128.877 551.081 127.012V121.545H550.842C547.49 127.658 542.042 131.457 532.345 131.457ZM537.253 119.29C545.754 119.29 551.021 114.245 551.021 107.478V101.187C548.986 102.314 544.018 103.145 538.331 104.036C532.285 104.926 527.496 107.241 527.496 112.227C527.496 116.678 531.327 119.29 537.253 119.29Z" fill="#16171C"/>
<path d="M581.726 155.199C579.845 155.199 578.32 153.687 578.32 151.822V71.0879C578.32 69.2231 579.845 67.7113 581.726 67.7113H592.334C594.215 67.7113 595.74 69.2231 595.74 71.0879V76.1989H595.919C599.81 69.67 606.455 66.4055 614.656 66.4055C630.818 66.4055 641.892 79.7601 641.892 98.9907C641.892 118.637 631.058 131.695 614.536 131.695C606.215 131.695 599.81 128.074 596.159 121.011H595.979V151.822C595.979 153.687 594.455 155.199 592.574 155.199H581.726ZM609.987 117.45C618.547 117.45 624.114 110.743 624.114 98.9907C624.114 87.2387 618.547 80.5317 609.987 80.5317C601.067 80.5317 595.141 87.8322 595.141 98.9907C595.141 110.209 601.067 117.45 609.987 117.45Z" fill="#16171C"/>
<path d="M661.37 40.5292C650.609 40.5292 641.893 31.787 641.893 21.0351C641.893 10.2832 650.609 1.54102 661.37 1.54102C672.165 1.54102 680.881 10.2832 680.881 21.0351C680.881 31.787 672.198 40.5292 661.37 40.5292ZM661.37 35.5385C669.449 35.572 675.953 29.0739 675.953 21.0351C675.953 13.0298 669.449 6.53178 661.37 6.53178C653.358 6.53178 646.854 13.0298 646.854 21.0351C646.854 29.0404 653.358 35.572 661.37 35.5385ZM655.967 29.8108C655.118 29.8108 654.43 29.1229 654.43 28.2743V13.394C654.43 12.5454 655.118 11.8575 655.967 11.8575H663.348C666.298 11.824 669.315 13.8672 669.315 17.6856C669.315 20.1308 668.108 21.8725 666.432 22.8439L668.826 27.5815C669.342 28.6034 668.599 29.8108 667.454 29.8108H666.086C665.498 29.8108 664.961 29.4753 664.704 28.9466L662.175 23.7482H658.822V28.2743C658.822 29.1229 658.134 29.8108 657.286 29.8108H655.967ZM658.822 18.9962C658.822 19.8448 659.51 20.5327 660.359 20.5327H662.04C663.314 20.5327 664.622 19.5948 664.622 17.6856C664.622 15.7429 663.247 15.0395 662.074 15.0395H660.359C659.51 15.0395 658.822 15.7274 658.822 16.576V18.9962Z" fill="#16171C"/>
<path opacity="0.7" d="M83.9944 2.42165C85.1139 1.30211 86.8878 1.26086 87.9565 2.32951L126.656 41.029L83.1768 42.0616L83.1291 4.59706C83.0988 3.82391 83.3889 3.0271 83.9944 2.42165Z" fill="#16171C"/>
<path d="M126.655 41.029C127.724 42.0976 127.682 43.8715 126.563 44.9911L83.2378 88.3161L4.80666 88.242C4.08018 88.2661 3.35796 88.0096 2.81667 87.4683C1.74802 86.3996 1.78927 84.6258 2.90881 83.5062L45.2755 41.1395C45.8426 40.5725 46.5775 40.282 47.3037 40.2724L124.517 40.264C125.293 40.1977 126.077 40.4511 126.655 41.029Z" fill="#16171C"/>
<path opacity="0.7" d="M88.0484 168.645C86.9289 169.764 85.155 169.806 84.0863 168.737L45.3869 130.038L88.8214 129.005L88.9137 166.47C88.9439 167.243 88.6539 168.039 88.0484 168.645Z" fill="#16171C"/>
<path d="M45.3861 130.038C44.3174 128.97 44.3587 127.196 45.4782 126.076L88.711 82.8436L167.234 82.8254C167.961 82.8013 168.683 83.0578 169.224 83.5991C170.293 84.6677 170.252 86.4416 169.132 87.5612L126.766 129.928C126.198 130.495 125.464 130.785 124.737 130.795L47.5236 130.803C46.7482 130.87 45.964 130.616 45.3861 130.038Z" fill="#16171C"/>
</svg>
