<svg width="500" height="500" viewBox="0 0 500 500" fill="none" xmlns="http://www.w3.org/2000/svg">
<path d="M470.507 499.093C454.74 499.093 441.969 486.284 441.969 470.53C441.969 454.777 454.74 441.968 470.507 441.968C486.323 441.968 499.094 454.777 499.094 470.53C499.094 486.284 486.372 499.093 470.507 499.093ZM470.507 491.78C482.344 491.829 491.873 482.309 491.873 470.53C491.873 458.801 482.344 449.28 470.507 449.28C458.767 449.28 449.238 458.801 449.238 470.53C449.238 482.26 458.767 491.829 470.507 491.78ZM462.59 483.388C461.347 483.388 460.339 482.38 460.339 481.137V459.335C460.339 458.091 461.347 457.083 462.59 457.083H473.405C477.727 457.034 482.148 460.028 482.148 465.623C482.148 469.205 480.38 471.757 477.924 473.18L481.431 480.122C482.187 481.619 481.099 483.388 479.421 483.388H477.416C476.555 483.388 475.769 482.897 475.392 482.122L471.686 474.505H466.774V481.137C466.774 482.38 465.766 483.388 464.522 483.388H462.59ZM466.774 467.543C466.774 468.786 467.782 469.794 469.025 469.794H471.489C473.356 469.794 475.271 468.42 475.271 465.623C475.271 462.776 473.257 461.746 471.538 461.746H469.025C467.782 461.746 466.774 462.754 466.774 463.997V467.543Z" fill="#16171C"/>
<path opacity="0.7" d="M244.05 5.95367C247.338 2.66628 252.546 2.54514 255.684 5.6831L369.32 119.319L241.65 122.351L241.51 12.3414C241.421 10.0712 242.272 7.73147 244.05 5.95367Z" fill="#16171C"/>
<path d="M369.317 119.318C372.455 122.456 372.334 127.665 369.047 130.952L241.829 258.17L11.5268 257.953C9.39362 258.024 7.27292 257.27 5.6835 255.681C2.54554 252.543 2.66666 247.334 5.95406 244.047L130.358 119.643C132.023 117.978 134.181 117.125 136.313 117.097L363.041 117.072C365.318 116.878 367.62 117.621 369.317 119.318Z" fill="#16171C"/>
<path opacity="0.7" d="M255.954 494.046C252.666 497.334 247.457 497.455 244.32 494.317L130.684 380.681L258.224 377.649L258.494 487.659C258.583 489.929 257.731 492.269 255.954 494.046Z" fill="#16171C"/>
<path d="M130.683 380.683C127.545 377.545 127.666 372.336 130.953 369.048L257.9 242.102L488.473 242.048C490.606 241.977 492.727 242.731 494.316 244.32C497.454 247.458 497.333 252.667 494.046 255.954L369.642 380.358C367.977 382.023 365.819 382.876 363.687 382.904L136.959 382.929C134.682 383.123 132.38 382.38 130.683 380.683Z" fill="#16171C"/>
</svg>
