<svg width="32" height="32" viewBox="0 0 32 32" fill="none" xmlns="http://www.w3.org/2000/svg">
<path d="M16 32C24.8366 32 32 24.8366 32 16C32 7.16344 24.8366 0 16 0C7.16344 0 0 7.16344 0 16C0 24.8366 7.16344 32 16 32Z" fill="#F0F0F0"/>
<path d="M0 16.0001C0 7.1635 7.1635 0 16 0C24.8365 0 32 7.1635 32 16.0001" fill="#D80027"/>
<path d="M9.7391 8.34765C9.7391 6.01652 11.3774 4.06915 13.5652 3.59134C13.2289 3.51796 12.8801 3.47815 12.5217 3.47815C9.83222 3.47815 7.6521 5.65827 7.6521 8.34771C7.6521 11.0371 9.83222 13.2173 12.5217 13.2173C12.88 13.2173 13.2288 13.1775 13.5652 13.104C11.3774 12.6262 9.7391 10.6788 9.7391 8.34765Z" fill="#F0F0F0"/>
<path d="M16 3.82581L16.3454 4.88862H17.4629L16.5587 5.54556L16.9041 6.60837L16 5.95156L15.0959 6.60837L15.4412 5.54556L14.5371 4.88862H15.6546L16 3.82581Z" fill="#F0F0F0"/>
<path d="M13.2892 5.9129L13.6345 6.97578H14.752L13.8479 7.63265L14.1933 8.69547L13.2892 8.03865L12.3849 8.69547L12.7304 7.63265L11.8262 6.97578H12.9437L13.2892 5.9129Z" fill="#F0F0F0"/>
<path d="M18.7112 5.9129L19.0566 6.97578H20.1741L19.2699 7.63265L19.6154 8.69547L18.7112 8.03865L17.807 8.69547L18.1524 7.63265L17.2483 6.97578H18.3658L18.7112 5.9129Z" fill="#F0F0F0"/>
<path d="M17.6675 9.04333L18.0128 10.1062H19.1303L18.2262 10.7631L18.5716 11.8259L17.6675 11.1691L16.7633 11.8259L17.1087 10.7631L16.2046 10.1062H17.322L17.6675 9.04333Z" fill="#F0F0F0"/>
<path d="M14.3326 9.04333L14.6779 10.1062H15.7955L14.8913 10.7631L15.2368 11.8259L14.3326 11.1691L13.4284 11.8259L13.7738 10.7631L12.8696 10.1062H13.9872L14.3326 9.04333Z" fill="#F0F0F0"/>
</svg>
