<?xml version="1.0" encoding="utf-8"?><svg xmlns="http://www.w3.org/2000/svg" xmlns:xlink="http://www.w3.org/1999/xlink"><symbol viewBox="0 0 36 36" id="account" xmlns="http://www.w3.org/2000/svg"><path fill-rule="evenodd" clip-rule="evenodd" d="M18 5.625c-6.835 0-12.375 5.54-12.375 12.375 0 6.834 5.54 12.375 12.375 12.375 6.834 0 12.375-5.54 12.375-12.375S24.835 5.625 18 5.625zM3.375 18C3.375 9.923 9.923 3.375 18 3.375S32.625 9.923 32.625 18 26.077 32.625 18 32.625 3.375 26.077 3.375 18z"/><path fill-rule="evenodd" clip-rule="evenodd" d="M18 11.625a3.375 3.375 0 100 6.75 3.375 3.375 0 000-6.75zM12.375 15a5.625 5.625 0 1111.25 0 5.625 5.625 0 01-11.25 0zM15 25.125a4.875 4.875 0 00-4.67 3.472 1.125 1.125 0 11-2.155-.647A7.125 7.125 0 0115 22.875h6a7.126 7.126 0 016.829 5.085 1.125 1.125 0 11-2.156.645A4.875 4.875 0 0021 25.125h-6z"/></symbol><symbol viewBox="0 0 36 36" id="alert-circle" xmlns="http://www.w3.org/2000/svg"><path fill-rule="evenodd" clip-rule="evenodd" d="M18 5.625c-6.835 0-12.375 5.54-12.375 12.375 0 6.834 5.54 12.375 12.375 12.375 6.834 0 12.375-5.54 12.375-12.375S24.835 5.625 18 5.625zM3.375 18C3.375 9.923 9.923 3.375 18 3.375S32.625 9.923 32.625 18 26.077 32.625 18 32.625 3.375 26.077 3.375 18z"/><path fill-rule="evenodd" clip-rule="evenodd" d="M18 10.875c.621 0 1.125.504 1.125 1.125v6a1.125 1.125 0 01-2.25 0v-6c0-.621.504-1.125 1.125-1.125zM16.875 24c0-.621.504-1.125 1.125-1.125h.015a1.125 1.125 0 010 2.25H18A1.125 1.125 0 0116.875 24z"/></symbol><symbol viewBox="0 0 36 36" id="alert-triangle" xmlns="http://www.w3.org/2000/svg"><path fill-rule="evenodd" clip-rule="evenodd" d="M18 12.375c.621 0 1.125.504 1.125 1.125v3a1.125 1.125 0 01-2.25 0v-3c0-.621.504-1.125 1.125-1.125zm0 9c.621 0 1.125.504 1.125 1.125v.015a1.125 1.125 0 01-2.25 0V22.5c0-.621.504-1.125 1.125-1.125z"/><path fill-rule="evenodd" clip-rule="evenodd" d="M15.89 3.899a4.125 4.125 0 015.698 1.546L32.233 23.81c.027.045.05.093.07.142a4.126 4.126 0 01-3.795 5.672H7.5c-.028 0-.055-.001-.082-.003a1.14 1.14 0 01-.14.001 4.125 4.125 0 01-3.61-5.672c.02-.048.042-.095.069-.14L14.382 5.445a4.125 4.125 0 011.508-1.546zM7.417 27.378c.028-.002.055-.003.083-.003h20.996a1.875 1.875 0 001.746-2.513L19.637 6.564l-.011-.02a1.875 1.875 0 00-3.282 0l-.01.02L5.726 24.863a1.875 1.875 0 001.69 2.515z"/></symbol><symbol viewBox="0 0 36 36" id="arrow-down" xmlns="http://www.w3.org/2000/svg"><path fill-rule="evenodd" clip-rule="evenodd" d="M18 6.375c-.621 0-1.125.504-1.125 1.125v21a1.125 1.125 0 002.25 0v-21c0-.621-.504-1.125-1.125-1.125z"/><path fill-rule="evenodd" clip-rule="evenodd" d="M17.204 29.296c.44.439 1.152.439 1.591 0l6-6a1.125 1.125 0 00-1.59-1.591l-6 6c-.44.439-.44 1.151 0 1.59z"/><path fill-rule="evenodd" clip-rule="evenodd" d="M11.204 21.704c-.439.44-.439 1.152 0 1.591l6 6a1.125 1.125 0 001.591-1.59l-6-6a1.125 1.125 0 00-1.59 0z"/></symbol><symbol viewBox="0 0 36 36" id="arrow-left" xmlns="http://www.w3.org/2000/svg"><path fill-rule="evenodd" clip-rule="evenodd" d="M14.296 11.204c.439.44.439 1.152 0 1.591l-4.08 4.08H28.5a1.125 1.125 0 010 2.25H10.216l4.08 4.08a1.125 1.125 0 01-1.591 1.59l-6-6a1.125 1.125 0 010-1.59l6-6c.439-.44 1.151-.44 1.59 0z"/></symbol><symbol viewBox="0 0 36 36" id="arrow-right" xmlns="http://www.w3.org/2000/svg"><path fill-rule="evenodd" clip-rule="evenodd" d="M6.375 18c0-.621.504-1.125 1.125-1.125h21a1.125 1.125 0 010 2.25h-21A1.125 1.125 0 016.375 18z"/><path fill-rule="evenodd" clip-rule="evenodd" d="M29.296 17.204c.439.44.439 1.152 0 1.591l-6 6a1.125 1.125 0 01-1.591-1.59l6-6c.439-.44 1.151-.44 1.59 0z"/><path fill-rule="evenodd" clip-rule="evenodd" d="M21.704 11.204c.44-.439 1.152-.439 1.591 0l6 6a1.125 1.125 0 01-1.59 1.591l-6-6a1.125 1.125 0 010-1.59z"/></symbol><symbol viewBox="0 0 36 36" id="arrow-up" xmlns="http://www.w3.org/2000/svg"><path fill-rule="evenodd" clip-rule="evenodd" d="M18 29.625c.621 0 1.125-.504 1.125-1.125v-21a1.125 1.125 0 00-2.25 0v21c0 .621.504 1.125 1.125 1.125z"/><path fill-rule="evenodd" clip-rule="evenodd" d="M18.796 6.705a1.125 1.125 0 00-1.591 0l-6 6a1.125 1.125 0 001.59 1.59l6-6c.44-.439.44-1.151 0-1.59z"/><path fill-rule="evenodd" clip-rule="evenodd" d="M24.796 14.296c.439-.44.439-1.152 0-1.591l-6-6a1.125 1.125 0 00-1.591 1.59l6 6c.439.44 1.151.44 1.59 0z"/></symbol><symbol fill="none" viewBox="0 0 120 120" id="avatar" xmlns="http://www.w3.org/2000/svg"><circle cx="60" cy="60" r="59" fill="#F7F9FA" stroke="#ABB8CF" stroke-width="2"/><path d="M60 57.667A9.333 9.333 0 1060 39a9.333 9.333 0 000 18.667zM46 81v-4.667A9.333 9.333 0 0155.333 67h9.334A9.333 9.333 0 0174 76.333V81" stroke="#ABB8CF" stroke-width="2" stroke-linecap="round" stroke-linejoin="round"/></symbol><symbol viewBox="0 0 36 36" id="bell" xmlns="http://www.w3.org/2000/svg"><path fill-rule="evenodd" clip-rule="evenodd" d="M18 5.625a1.875 1.875 0 00-1.875 1.855 1.13 1.13 0 01-.665 1.047 9.375 9.375 0 00-5.335 8V21c0 .045-.003.09-.008.135a7.124 7.124 0 01-1.244 3.24h18.254a7.125 7.125 0 01-1.244-3.24 1.132 1.132 0 01-.008-.135v-4.473a9.375 9.375 0 00-5.356-8.01 1.125 1.125 0 01-.644-1.017A1.875 1.875 0 0018 5.625zm-4.061 1.153a4.125 4.125 0 018.122 0 11.625 11.625 0 016.064 9.722v4.429a4.876 4.876 0 002.43 3.592A1.125 1.125 0 0130 26.625H6a1.125 1.125 0 01-.554-2.104 4.876 4.876 0 002.429-3.592V16.5l.001-.053a11.625 11.625 0 016.063-9.67z"/><path fill-rule="evenodd" clip-rule="evenodd" d="M13.5 24.375c.621 0 1.125.504 1.125 1.125V27a3.375 3.375 0 006.75 0v-1.5a1.125 1.125 0 012.25 0V27a5.625 5.625 0 11-11.25 0v-1.5c0-.621.504-1.125 1.125-1.125z"/></symbol><symbol viewBox="0 0 36 36" id="book" xmlns="http://www.w3.org/2000/svg"><path fill-rule="evenodd" clip-rule="evenodd" d="M11.25 27.816c-2.172 0-4.306.572-6.188 1.658a1.125 1.125 0 11-1.125-1.948A14.625 14.625 0 0118 27.217a14.624 14.624 0 0114.063.309 1.125 1.125 0 01-1.126 1.948 12.375 12.375 0 00-12.375 0 1.125 1.125 0 01-1.125 0 12.375 12.375 0 00-6.187-1.658zM11.25 8.316c-2.172 0-4.306.572-6.188 1.658a1.125 1.125 0 01-1.125-1.948A14.625 14.625 0 0118 7.717a14.625 14.625 0 0114.063.309 1.125 1.125 0 01-1.126 1.948 12.375 12.375 0 00-12.375 0 1.125 1.125 0 01-1.125 0 12.375 12.375 0 00-6.187-1.658z"/><path fill-rule="evenodd" clip-rule="evenodd" d="M4.5 7.875c.621 0 1.125.504 1.125 1.125v19.5a1.125 1.125 0 01-2.25 0V9c0-.621.504-1.125 1.125-1.125zM18 7.875c.621 0 1.125.504 1.125 1.125v19.5a1.125 1.125 0 01-2.25 0V9c0-.621.504-1.125 1.125-1.125zM31.5 7.875c.621 0 1.125.504 1.125 1.125v19.5a1.125 1.125 0 01-2.25 0V9c0-.621.504-1.125 1.125-1.125z"/></symbol><symbol viewBox="0 0 36 36" id="check" xmlns="http://www.w3.org/2000/svg"><path fill-rule="evenodd" clip-rule="evenodd" d="M30.796 9.704c.439.44.439 1.152 0 1.591l-15 15c-.44.44-1.152.44-1.591 0l-7.5-7.5a1.125 1.125 0 011.59-1.59L15 23.909 29.204 9.705c.44-.44 1.152-.44 1.591 0z"/></symbol><symbol viewBox="0 0 36 36" id="chevron-down" xmlns="http://www.w3.org/2000/svg"><path fill-rule="evenodd" clip-rule="evenodd" d="M8.204 12.704c.44-.439 1.152-.439 1.591 0L18 20.91l8.204-8.204a1.125 1.125 0 011.591 1.59l-9 9c-.439.44-1.151.44-1.59 0l-9-9a1.125 1.125 0 010-1.59z"/></symbol><symbol viewBox="0 0 36 36" id="chevron-left" xmlns="http://www.w3.org/2000/svg"><path fill-rule="evenodd" clip-rule="evenodd" d="M23.296 8.204c.439.44.439 1.152 0 1.591L15.09 18l8.205 8.204a1.125 1.125 0 01-1.591 1.591l-9-9a1.125 1.125 0 010-1.59l9-9c.439-.44 1.151-.44 1.59 0z"/></symbol><symbol viewBox="0 0 36 36" id="chevron-right" xmlns="http://www.w3.org/2000/svg"><path fill-rule="evenodd" clip-rule="evenodd" d="M12.704 8.204c.44-.439 1.152-.439 1.591 0l9 9c.44.44.44 1.152 0 1.591l-9 9a1.125 1.125 0 01-1.59-1.59L20.909 18l-8.204-8.204a1.125 1.125 0 010-1.591z"/></symbol><symbol viewBox="0 0 36 36" id="chevron-up" xmlns="http://www.w3.org/2000/svg"><path fill-rule="evenodd" clip-rule="evenodd" d="M17.204 12.704c.44-.439 1.152-.439 1.591 0l9 9a1.125 1.125 0 01-1.59 1.591L18 15.091l-8.204 8.205a1.125 1.125 0 01-1.591-1.591l9-9z"/></symbol><symbol viewBox="0 0 36 36" id="close" xmlns="http://www.w3.org/2000/svg"><path fill-rule="evenodd" clip-rule="evenodd" d="M27.796 8.204c.439.44.439 1.152 0 1.591l-18 18a1.125 1.125 0 01-1.591-1.59l18-18c.439-.44 1.151-.44 1.59 0z"/><path fill-rule="evenodd" clip-rule="evenodd" d="M8.204 8.204c.44-.439 1.152-.439 1.591 0l18 18a1.125 1.125 0 01-1.59 1.591l-18-18a1.125 1.125 0 010-1.59z"/></symbol><symbol viewBox="0 0 36 36" id="date" xmlns="http://www.w3.org/2000/svg"><path fill-rule="evenodd" clip-rule="evenodd" d="M9 8.625c-1.036 0-1.875.84-1.875 1.875v18c0 1.035.84 1.875 1.875 1.875h18c1.035 0 1.875-.84 1.875-1.875v-18c0-1.036-.84-1.875-1.875-1.875H9zM4.875 10.5A4.125 4.125 0 019 6.375h18a4.125 4.125 0 014.125 4.125v18A4.125 4.125 0 0127 32.625H9A4.125 4.125 0 014.875 28.5v-18z"/><path fill-rule="evenodd" clip-rule="evenodd" d="M24 3.375c.621 0 1.125.504 1.125 1.125v6a1.125 1.125 0 01-2.25 0v-6c0-.621.504-1.125 1.125-1.125zM12 3.375c.621 0 1.125.504 1.125 1.125v6a1.125 1.125 0 01-2.25 0v-6c0-.621.504-1.125 1.125-1.125zM4.875 16.5c0-.621.504-1.125 1.125-1.125h24a1.125 1.125 0 010 2.25H6A1.125 1.125 0 014.875 16.5z"/></symbol><symbol fill="none" viewBox="0 0 4 4" id="dot" xmlns="http://www.w3.org/2000/svg"><rect width="4" height="4" rx="2" fill="#778194"/></symbol><symbol viewBox="0 0 36 36" id="download" xmlns="http://www.w3.org/2000/svg"><path fill-rule="evenodd" clip-rule="evenodd" d="M16.937 6.458a10.46 10.46 0 013.68.01c1.215.22 2.375.656 3.412 1.284a9.167 9.167 0 012.639 2.39 8.302 8.302 0 011.441 3.163c.149.683.206 1.378.174 2.07h.217a6.375 6.375 0 010 12.75 1.125 1.125 0 010-2.25 4.125 4.125 0 000-8.25H27a1.125 1.125 0 01-1.098-1.372 5.707 5.707 0 00.008-2.47 6.051 6.051 0 00-1.053-2.305 6.918 6.918 0 00-1.993-1.802 7.82 7.82 0 00-2.649-.994 8.21 8.21 0 00-2.887-.008 7.832 7.832 0 00-2.656.98c-1.617.966-2.705 2.448-3.074 4.092-.12.53-.6.9-1.143.878A5.992 5.992 0 006.71 15.74a5.46 5.46 0 00-2.118 3.092 5.216 5.216 0 00.421 3.646 5.644 5.644 0 002.787 2.59 1.125 1.125 0 01-.9 2.063 7.894 7.894 0 01-3.891-3.63 7.465 7.465 0 01-.6-5.215 7.71 7.71 0 012.983-4.37 8.215 8.215 0 014.256-1.528c.663-1.924 2.036-3.57 3.87-4.665a10.081 10.081 0 013.42-1.265z"/><path fill-rule="evenodd" clip-rule="evenodd" d="M18 18.375c.621 0 1.125.504 1.125 1.125V33a1.125 1.125 0 01-2.25 0V19.5c0-.621.504-1.125 1.125-1.125z"/><path fill-rule="evenodd" clip-rule="evenodd" d="M12.704 27.704c.44-.439 1.152-.439 1.591 0L18 31.41l3.704-3.704a1.125 1.125 0 011.591 1.59l-4.5 4.5c-.439.44-1.151.44-1.59 0l-4.5-4.5a1.125 1.125 0 010-1.59z"/></symbol><symbol viewBox="0 0 36 36" id="edit" xmlns="http://www.w3.org/2000/svg"><path fill-rule="evenodd" clip-rule="evenodd" d="M20.954 7.455a5.368 5.368 0 117.591 7.59l-15.75 15.75c-.21.212-.497.33-.795.33H6A1.125 1.125 0 014.875 30v-6c0-.298.119-.584.33-.795l15.75-15.75zm3.796.678c-.827 0-1.62.328-2.204.913L7.125 24.466v4.41h4.409l15.42-15.421a3.118 3.118 0 00-2.204-5.322z"/><path fill-rule="evenodd" clip-rule="evenodd" d="M19.454 8.954c.44-.439 1.152-.439 1.591 0l6 6a1.125 1.125 0 01-1.59 1.591l-6-6a1.125 1.125 0 010-1.59z"/></symbol><symbol viewBox="0 0 36 36" id="eye" xmlns="http://www.w3.org/2000/svg"><path fill-rule="evenodd" clip-rule="evenodd" d="M18 16.125a1.875 1.875 0 100 3.75 1.875 1.875 0 000-3.75zM13.875 18a4.125 4.125 0 118.25 0 4.125 4.125 0 01-8.25 0z"/><path fill-rule="evenodd" clip-rule="evenodd" d="M4.302 18c3.815 6.401 8.39 9.375 13.698 9.375S27.883 24.401 31.698 18C27.883 11.598 23.308 8.625 18 8.625S8.117 11.598 4.302 18zm-2.279-.558C6.146 10.228 11.46 6.375 18 6.375c6.54 0 11.854 3.853 15.977 11.067.197.346.197.77 0 1.116C29.854 25.772 24.54 29.625 18 29.625c-6.54 0-11.854-3.853-15.977-11.067a1.125 1.125 0 010-1.116z"/></symbol><symbol viewBox="0 0 36 36" id="eye-off" xmlns="http://www.w3.org/2000/svg"><path fill-rule="evenodd" clip-rule="evenodd" d="M3.704 3.704c.44-.439 1.152-.439 1.591 0l27 27a1.125 1.125 0 01-1.59 1.591l-27-27a1.125 1.125 0 010-1.59z"/><path fill-rule="evenodd" clip-rule="evenodd" d="M16.672 15.086c.439.44.439 1.152 0 1.59a1.876 1.876 0 002.65 2.654 1.125 1.125 0 011.591 1.592 4.125 4.125 0 11-5.832-5.837 1.125 1.125 0 011.59 0z"/><path fill-rule="evenodd" clip-rule="evenodd" d="M16.317 8.727l12.874 12.86A28.268 28.268 0 0031.698 18C27.883 11.598 23.308 8.625 18 8.625h-.004a13.073 13.073 0 00-1.68.102zm1.685-2.352a15.324 15.324 0 00-4.267.591 1.125 1.125 0 00-.486 1.878L28.45 24.028a1.125 1.125 0 001.622-.032c1.404-1.52 2.704-3.336 3.905-5.438.197-.346.197-.77 0-1.116-4.122-7.213-9.436-11.066-15.975-11.067zm-7.123 2.982a1.125 1.125 0 01-.3 1.563C8.311 12.458 6.211 14.798 4.302 18c3.815 6.402 8.39 9.375 13.698 9.375 2.685 0 5.143-.757 7.407-2.284a1.125 1.125 0 111.258 1.865c-2.63 1.774-5.524 2.67-8.665 2.67-6.54 0-11.854-3.854-15.977-11.068a1.125 1.125 0 010-1.116c2.112-3.695 4.534-6.513 7.293-8.384a1.125 1.125 0 011.563.3z"/></symbol><symbol viewBox="0 0 36 36" id="file" xmlns="http://www.w3.org/2000/svg"><path fill-rule="evenodd" clip-rule="evenodd" d="M21 3.375c.621 0 1.125.504 1.125 1.125v6a.375.375 0 00.375.375h6a1.125 1.125 0 010 2.25h-6a2.625 2.625 0 01-2.625-2.625v-6c0-.621.504-1.125 1.125-1.125z"/><path fill-rule="evenodd" clip-rule="evenodd" d="M10.5 5.625A1.875 1.875 0 008.625 7.5v21a1.875 1.875 0 001.875 1.875h15a1.875 1.875 0 001.875-1.875V12.466l-6.841-6.841H10.5zM7.583 4.583A4.125 4.125 0 0110.5 3.375H21c.298 0 .584.119.796.33l7.5 7.5c.21.21.329.497.329.795v16.5a4.125 4.125 0 01-4.125 4.125h-15A4.125 4.125 0 016.375 28.5v-21c0-1.094.435-2.143 1.208-2.917z"/></symbol><symbol viewBox="0 0 36 36" id="locked" xmlns="http://www.w3.org/2000/svg"><path fill-rule="evenodd" clip-rule="evenodd" d="M10.5 17.625c-1.036 0-1.875.84-1.875 1.875v9c0 1.035.84 1.875 1.875 1.875h15c1.035 0 1.875-.84 1.875-1.875v-9c0-1.035-.84-1.875-1.875-1.875h-15zM6.375 19.5a4.125 4.125 0 014.125-4.125h15a4.125 4.125 0 014.125 4.125v9a4.125 4.125 0 01-4.125 4.125h-15A4.125 4.125 0 016.375 28.5v-9z"/><path fill-rule="evenodd" clip-rule="evenodd" d="M18 23.625a.375.375 0 100 .75.375.375 0 000-.75zM15.375 24a2.625 2.625 0 115.25 0 2.625 2.625 0 01-5.25 0zM18 5.625a4.875 4.875 0 00-4.875 4.875v6a1.125 1.125 0 01-2.25 0v-6a7.125 7.125 0 0114.25 0v6a1.125 1.125 0 01-2.25 0v-6A4.875 4.875 0 0018 5.625z"/></symbol><symbol viewBox="0 0 36 36" id="login" xmlns="http://www.w3.org/2000/svg"><path fill-rule="evenodd" clip-rule="evenodd" d="M4.583 6.083A4.125 4.125 0 017.5 4.875H18A4.125 4.125 0 0122.125 9v3a1.125 1.125 0 01-2.25 0V9A1.875 1.875 0 0018 7.125H7.5A1.875 1.875 0 005.625 9v18A1.875 1.875 0 007.5 28.875H18A1.875 1.875 0 0019.875 27v-3a1.125 1.125 0 012.25 0v3A4.125 4.125 0 0118 31.125H7.5A4.125 4.125 0 013.375 27V9c0-1.094.435-2.143 1.208-2.917z"/><path fill-rule="evenodd" clip-rule="evenodd" d="M15.796 12.704c.439.44.439 1.152 0 1.591l-2.58 2.58H30a1.125 1.125 0 010 2.25H13.216l2.58 2.58a1.125 1.125 0 01-1.591 1.59l-4.5-4.5a1.125 1.125 0 010-1.59l4.5-4.5c.439-.44 1.151-.44 1.59 0z"/></symbol><symbol viewBox="0 0 36 36" id="logout" xmlns="http://www.w3.org/2000/svg"><path fill-rule="evenodd" clip-rule="evenodd" d="M4.583 6.083A4.125 4.125 0 017.5 4.875H18A4.125 4.125 0 0122.125 9v3a1.125 1.125 0 01-2.25 0V9A1.875 1.875 0 0018 7.125H7.5A1.875 1.875 0 005.625 9v18A1.875 1.875 0 007.5 28.875H18A1.875 1.875 0 0019.875 27v-3a1.125 1.125 0 012.25 0v3A4.125 4.125 0 0118 31.125H7.5A4.125 4.125 0 013.375 27V9c0-1.094.435-2.143 1.208-2.917z"/><path fill-rule="evenodd" clip-rule="evenodd" d="M26.204 12.704c.44-.439 1.152-.439 1.591 0l4.5 4.5c.44.44.44 1.152 0 1.591l-4.5 4.5a1.125 1.125 0 01-1.59-1.59l2.579-2.58H10.5a1.125 1.125 0 010-2.25h18.284l-2.58-2.58a1.125 1.125 0 010-1.59z"/></symbol><symbol viewBox="0 0 36 36" id="mail" xmlns="http://www.w3.org/2000/svg"><path fill-rule="evenodd" clip-rule="evenodd" d="M7.5 8.625c-1.036 0-1.875.84-1.875 1.875v15c0 1.035.84 1.875 1.875 1.875h21c1.035 0 1.875-.84 1.875-1.875v-15c0-1.036-.84-1.875-1.875-1.875h-21zM3.375 10.5A4.125 4.125 0 017.5 6.375h21a4.125 4.125 0 014.125 4.125v15a4.125 4.125 0 01-4.125 4.125h-21A4.125 4.125 0 013.375 25.5v-15z"/><path fill-rule="evenodd" clip-rule="evenodd" d="M3.564 9.876a1.125 1.125 0 011.56-.312L18 18.148l12.876-8.584a1.125 1.125 0 111.248 1.872l-13.5 9c-.378.252-.87.252-1.248 0l-13.5-9a1.125 1.125 0 01-.312-1.56z"/></symbol><symbol viewBox="0 0 36 36" id="menu" xmlns="http://www.w3.org/2000/svg"><path fill-rule="evenodd" clip-rule="evenodd" d="M4.875 9c0-.621.504-1.125 1.125-1.125h24a1.125 1.125 0 010 2.25H6A1.125 1.125 0 014.875 9zM4.875 18c0-.621.504-1.125 1.125-1.125h24a1.125 1.125 0 010 2.25H6A1.125 1.125 0 014.875 18zM4.875 27c0-.621.504-1.125 1.125-1.125h24a1.125 1.125 0 010 2.25H6A1.125 1.125 0 014.875 27z"/></symbol><symbol viewBox="0 0 36 36" id="message" xmlns="http://www.w3.org/2000/svg"><path fill-rule="evenodd" clip-rule="evenodd" d="M18.59 7.105c-3.03-.123-5.995.739-8.34 2.402-2.342 1.662-3.895 4-4.413 6.56-.517 2.556.023 5.202 1.545 7.453.196.29.246.654.135.986L6.19 28.491l5.127-1.091c.245-.052.5-.021.725.088 2.647 1.285 5.74 1.676 8.698 1.09 2.958-.586 5.547-2.102 7.304-4.232 1.753-2.127 2.56-4.723 2.308-7.308-.254-2.588-1.558-5.034-3.713-6.872-2.158-1.84-5.016-2.938-8.047-3.06zM4.438 31.124a1.12 1.12 0 00.316-.027l6.661-1.418c3.014 1.37 6.464 1.76 9.762 1.106 3.429-.68 6.492-2.447 8.603-5.008 2.114-2.566 3.125-5.75 2.81-8.959-.313-3.207-1.925-6.175-4.491-8.364C25.535 6.268 22.187 5 18.682 4.857c-3.506-.142-6.964.85-9.733 2.815-2.772 1.967-4.677 4.784-5.317 7.949-.605 2.986-.036 6.053 1.58 8.685l-1.773 5.32a1.12 1.12 0 00.222 1.124 1.118 1.118 0 00.776.374z"/><path fill-rule="evenodd" clip-rule="evenodd" d="M18 16.875c.621 0 1.125.504 1.125 1.125v.015a1.125 1.125 0 01-2.25 0V18c0-.621.504-1.125 1.125-1.125zM12 16.875c.621 0 1.125.504 1.125 1.125v.015a1.125 1.125 0 01-2.25 0V18c0-.621.504-1.125 1.125-1.125zM24 16.875c.621 0 1.125.504 1.125 1.125v.015a1.125 1.125 0 01-2.25 0V18c0-.621.504-1.125 1.125-1.125z"/></symbol><symbol viewBox="0 0 36 36" id="minus" xmlns="http://www.w3.org/2000/svg"><path fill-rule="evenodd" clip-rule="evenodd" d="M6.375 18c0-.621.504-1.125 1.125-1.125h21a1.125 1.125 0 010 2.25h-21A1.125 1.125 0 016.375 18z"/></symbol><symbol viewBox="0 0 36 36" id="more-horizontal" xmlns="http://www.w3.org/2000/svg"><path fill-rule="evenodd" clip-rule="evenodd" d="M7.5 17.625a.375.375 0 100 .75.375.375 0 000-.75zM4.875 18a2.625 2.625 0 115.25 0 2.625 2.625 0 01-5.25 0zM18 17.625a.375.375 0 100 .75.375.375 0 000-.75zM15.375 18a2.625 2.625 0 115.25 0 2.625 2.625 0 01-5.25 0zM28.5 17.625a.375.375 0 100 .75.375.375 0 000-.75zM25.875 18a2.625 2.625 0 115.25 0 2.625 2.625 0 01-5.25 0z"/></symbol><symbol viewBox="0 0 36 36" id="more-vertical" xmlns="http://www.w3.org/2000/svg"><path fill-rule="evenodd" clip-rule="evenodd" d="M18 17.625a.375.375 0 100 .75.375.375 0 000-.75zM15.375 18a2.625 2.625 0 115.25 0 2.625 2.625 0 01-5.25 0zM18 28.125a.375.375 0 100 .75.375.375 0 000-.75zm-2.625.375a2.625 2.625 0 115.25 0 2.625 2.625 0 01-5.25 0zM18 7.125a.375.375 0 100 .75.375.375 0 000-.75zm-2.625.375a2.625 2.625 0 115.25 0 2.625 2.625 0 01-5.25 0z"/></symbol><symbol viewBox="0 0 36 36" id="plus" xmlns="http://www.w3.org/2000/svg"><path fill-rule="evenodd" clip-rule="evenodd" d="M18 6.375c.621 0 1.125.504 1.125 1.125v21a1.125 1.125 0 01-2.25 0v-21c0-.621.504-1.125 1.125-1.125z"/><path fill-rule="evenodd" clip-rule="evenodd" d="M6.375 18c0-.621.504-1.125 1.125-1.125h21a1.125 1.125 0 010 2.25h-21A1.125 1.125 0 016.375 18z"/></symbol><symbol viewBox="0 0 36 36" id="refresh" xmlns="http://www.w3.org/2000/svg"><path fill-rule="evenodd" clip-rule="evenodd" d="M11.325 6.678a13.275 13.275 0 0119.79 9.667 1.125 1.125 0 11-2.23.31 11.025 11.025 0 00-20.297-4.28H12a1.125 1.125 0 010 2.25H6A1.125 1.125 0 014.875 13.5v-6a1.125 1.125 0 012.25 0v3.01a13.275 13.275 0 014.2-3.832zM5.845 18.386a1.125 1.125 0 011.27.96 11.025 11.025 0 0020.297 4.28H24a1.125 1.125 0 110-2.25h6c.621 0 1.125.503 1.125 1.124v6a1.125 1.125 0 11-2.25 0v-3.01a13.275 13.275 0 01-23.99-5.835 1.125 1.125 0 01.96-1.27z"/></symbol><symbol viewBox="0 0 36 36" id="search" xmlns="http://www.w3.org/2000/svg"><path fill-rule="evenodd" clip-rule="evenodd" d="M15 5.625a9.375 9.375 0 100 18.75 9.375 9.375 0 000-18.75zM3.375 15C3.375 8.58 8.58 3.375 15 3.375S26.625 8.58 26.625 15 21.42 26.625 15 26.625 3.375 21.42 3.375 15z"/><path fill-rule="evenodd" clip-rule="evenodd" d="M21.704 21.704c.44-.439 1.152-.439 1.591 0l9 9a1.125 1.125 0 01-1.59 1.591l-9-9a1.125 1.125 0 010-1.59z"/></symbol><symbol viewBox="0 0 36 36" id="security" xmlns="http://www.w3.org/2000/svg"><path fill-rule="evenodd" clip-rule="evenodd" d="M18.756 3.667A1.119 1.119 0 0018 3.375a1.123 1.123 0 00-.756.292A16.875 16.875 0 015.3 7.877a1.125 1.125 0 00-1.13.806 19.125 19.125 0 0013.546 23.906c.186.048.38.048.566 0A19.126 19.126 0 0031.828 8.683a1.125 1.125 0 00-1.13-.807c-4.377.2-8.66-1.31-11.943-4.21zM18 5.969a19.125 19.125 0 01-11.891 4.175A16.875 16.875 0 0018 30.335a16.875 16.875 0 0011.891-20.191A19.125 19.125 0 0118 5.969z"/><path fill-rule="evenodd" clip-rule="evenodd" d="M18 16.125a.375.375 0 100 .75.375.375 0 000-.75zm-2.625.375a2.625 2.625 0 115.25 0 2.625 2.625 0 01-5.25 0z"/><path fill-rule="evenodd" clip-rule="evenodd" d="M18 16.875c.621 0 1.125.504 1.125 1.125v3.75a1.125 1.125 0 01-2.25 0V18c0-.621.504-1.125 1.125-1.125z"/></symbol><symbol viewBox="0 0 36 36" id="send" xmlns="http://www.w3.org/2000/svg"><path fill-rule="evenodd" clip-rule="evenodd" d="M32.295 3.704c.44.44.44 1.152 0 1.591l-16.5 16.5a1.125 1.125 0 01-1.59-1.59l16.5-16.5c.439-.44 1.151-.44 1.59 0z"/><path fill-rule="evenodd" clip-rule="evenodd" d="M32.295 3.705c.309.308.411.767.263 1.177l-9.75 27a1.95 1.95 0 01-3.571.108l-5.075-10.151L4.01 16.763a1.95 1.95 0 01.108-3.571l27-9.75c.41-.148.87-.046 1.177.263zM5.608 15.046l9.895 4.948c.218.109.394.285.503.503l4.948 9.895 8.674-24.02-24.02 8.674z"/></symbol><symbol viewBox="0 0 36 36" id="settings" xmlns="http://www.w3.org/2000/svg"><path d="M18 32.62a3.65 3.65 0 01-3.61-2.83 1.46 1.46 0 00-1.76-1.08c-.148.04-.29.1-.42.18a3.71 3.71 0 01-5.1-5.1 1.46 1.46 0 00-.49-2 1.149 1.149 0 00-.41-.17 3.72 3.72 0 010-7.22 1.47 1.47 0 001.08-1.76 1.57 1.57 0 00-.18-.42 3.71 3.71 0 015.1-5.1 1.45 1.45 0 002.18-.9 3.72 3.72 0 017.22 0 1.431 1.431 0 00.65.9 1.45 1.45 0 001.11.18c.148-.039.29-.1.42-.18a3.71 3.71 0 015.1 5.1 1.46 1.46 0 00.49 2c.124.083.264.141.41.17a3.72 3.72 0 010 7.22 1.459 1.459 0 00-1.08 1.76c.04.148.1.29.18.42a3.71 3.71 0 01-5.1 5.1 1.46 1.46 0 00-2 .49c-.083.125-.14.264-.17.41A3.65 3.65 0 0118 32.62zm-5-6.2a3.71 3.71 0 013.61 2.84 1.41 1.41 0 001.42 1.12 1.42 1.42 0 001.42-1.12 3.71 3.71 0 015.54-2.29 1.46 1.46 0 002-2 3.93 3.93 0 01-.43-1.06 3.71 3.71 0 012.73-4.48 1.46 1.46 0 000-2.84A3.71 3.71 0 0127 11.05a1.46 1.46 0 00-2-2c-.33.197-.687.342-1.06.43a3.69 3.69 0 01-4.48-2.73 1.46 1.46 0 00-2.84 0 3.71 3.71 0 01-5.54 2.29 1.46 1.46 0 00-2 2c.197.33.342.687.43 1.06a3.71 3.71 0 01-2.73 4.48 1.46 1.46 0 000 2.84c.354.095.691.244 1 .44a3.71 3.71 0 011.24 5.1 1.46 1.46 0 002 2 3.93 3.93 0 011.95-.54H13z"/><path d="M18 23.62a5.62 5.62 0 110-11.24 5.62 5.62 0 010 11.24zm0-9A3.38 3.38 0 1021.38 18 3.39 3.39 0 0018 14.62z"/></symbol><symbol viewBox="0 0 36 36" id="star" xmlns="http://www.w3.org/2000/svg"><path fill-rule="evenodd" clip-rule="evenodd" d="M17.99 1.878c.428 0 .819.243 1.008.627l4.367 8.849 9.765 1.415a1.125 1.125 0 01.623 1.92l-7.076 6.887 1.669 9.726a1.125 1.125 0 01-1.634 1.186L18 27.896l-8.733 4.592a1.125 1.125 0 01-1.633-1.186l1.669-9.726-7.076-6.887a1.125 1.125 0 01.623-1.92l9.764-1.415 4.368-8.849c.19-.384.58-.627 1.008-.627zm0 3.667l-3.62 7.335c-.165.332-.482.563-.848.616L5.43 14.668l5.864 5.709c.266.258.387.63.324.996l-1.383 8.063 7.24-3.807c.329-.172.72-.172 1.048 0l7.218 3.804-1.382-8.06a1.125 1.125 0 01.324-.996l5.864-5.709-8.09-1.172a1.125 1.125 0 01-.848-.616l-3.62-7.335z"/></symbol><symbol viewBox="0 0 36 36" id="star-filled" xmlns="http://www.w3.org/2000/svg"><path d="M18 26.625l-9.258 4.867 1.768-10.31-7.5-7.3 10.35-1.5 4.63-9.38 4.629 9.38 10.35 1.5-7.5 7.3 1.768 10.31L18 26.625z"/><path fill-rule="evenodd" clip-rule="evenodd" d="M17.99 1.878c.428 0 .819.243 1.008.627l4.367 8.849 9.765 1.415a1.125 1.125 0 01.623 1.92l-7.076 6.887 1.669 9.726a1.125 1.125 0 01-1.634 1.186L18 27.896l-8.733 4.592a1.125 1.125 0 01-1.633-1.186l1.669-9.726-7.076-6.887a1.125 1.125 0 01.623-1.92l9.764-1.415 4.368-8.849c.19-.384.58-.627 1.008-.627zm0 3.667l-3.62 7.335c-.165.332-.482.563-.848.616L5.43 14.668l5.864 5.709c.266.258.387.63.324.996l-1.383 8.063 7.24-3.807c.329-.172.72-.172 1.048 0l7.218 3.804-1.382-8.06a1.125 1.125 0 01.324-.996l5.864-5.709-8.09-1.172a1.125 1.125 0 01-.848-.616l-3.62-7.335z"/></symbol><symbol viewBox="0 0 36 36" id="star-half-filled" xmlns="http://www.w3.org/2000/svg"><path fill-rule="evenodd" clip-rule="evenodd" d="M17.99 1.878c.428 0 .819.243 1.008.627l4.367 8.849 9.765 1.415a1.125 1.125 0 01.623 1.92l-7.076 6.887 1.669 9.726a1.125 1.125 0 01-1.634 1.186L18 27.896l-8.733 4.592a1.125 1.125 0 01-1.633-1.186l1.669-9.726-7.076-6.887a1.125 1.125 0 01.623-1.92l9.764-1.415 4.368-8.849c.19-.384.58-.627 1.008-.627zm0 3.667l-3.62 7.335c-.165.332-.482.563-.848.616L5.43 14.668l5.864 5.709c.266.258.387.63.324.996l-1.383 8.063 7.24-3.807c.329-.172.72-.172 1.048 0l7.218 3.804-1.382-8.06a1.125 1.125 0 01.324-.996l5.864-5.709-8.09-1.172a1.125 1.125 0 01-.848-.616l-3.62-7.335z"/><path d="M18 26.625l-9.258 4.867 1.768-10.31-7.5-7.3 10.35-1.5 4.63-9.38.01 23.623z"/></symbol><symbol viewBox="0 0 36 36" id="switch-down" xmlns="http://www.w3.org/2000/svg"><path d="M18 24.75l-6.75-9h13.5l-6.75 9z"/></symbol><symbol viewBox="0 0 36 36" id="switch-left" xmlns="http://www.w3.org/2000/svg"><path d="M13.5 18l9-6.75v13.5l-9-6.75z"/></symbol><symbol viewBox="0 0 36 36" id="switch-right" xmlns="http://www.w3.org/2000/svg"><path d="M24.75 18l-9-6.75v13.5l9-6.75z"/></symbol><symbol viewBox="0 0 36 36" id="switch-up" xmlns="http://www.w3.org/2000/svg"><path d="M18 13.5l-6.75 9h13.5l-6.75-9z"/></symbol><symbol viewBox="0 0 36 36" id="time" xmlns="http://www.w3.org/2000/svg"><path fill-rule="evenodd" clip-rule="evenodd" d="M18 5.625c-6.835 0-12.375 5.54-12.375 12.375 0 6.834 5.54 12.375 12.375 12.375 6.834 0 12.375-5.54 12.375-12.375S24.835 5.625 18 5.625zM3.375 18C3.375 9.923 9.923 3.375 18 3.375S32.625 9.923 32.625 18 26.077 32.625 18 32.625 3.375 26.077 3.375 18z"/><path fill-rule="evenodd" clip-rule="evenodd" d="M18 9.375c.621 0 1.125.504 1.125 1.125v7.034l4.17 4.17a1.125 1.125 0 01-1.59 1.591l-4.5-4.5a1.125 1.125 0 01-.33-.795v-7.5c0-.621.504-1.125 1.125-1.125z"/></symbol><symbol viewBox="0 0 36 36" id="trash" xmlns="http://www.w3.org/2000/svg"><path fill-rule="evenodd" clip-rule="evenodd" d="M4.875 10.5c0-.621.504-1.125 1.125-1.125h24a1.125 1.125 0 010 2.25H6A1.125 1.125 0 014.875 10.5zM15 15.375c.621 0 1.125.504 1.125 1.125v9a1.125 1.125 0 01-2.25 0v-9c0-.621.504-1.125 1.125-1.125zM21 15.375c.621 0 1.125.504 1.125 1.125v9a1.125 1.125 0 01-2.25 0v-9c0-.621.504-1.125 1.125-1.125z"/><path fill-rule="evenodd" clip-rule="evenodd" d="M7.407 9.379a1.125 1.125 0 011.214 1.028l1.5 18c.003.03.004.062.004.093A1.875 1.875 0 0012 30.375h12a1.875 1.875 0 001.875-1.875c0-.031.001-.062.004-.093l1.5-18a1.125 1.125 0 012.242.187L28.125 28.55A4.125 4.125 0 0124 32.625H12a4.125 4.125 0 01-4.125-4.074L6.38 10.594a1.125 1.125 0 011.028-1.215z"/><path fill-rule="evenodd" clip-rule="evenodd" d="M15 5.625a.375.375 0 00-.375.375v4.5a1.125 1.125 0 01-2.25 0V6A2.625 2.625 0 0115 3.375h6A2.625 2.625 0 0123.625 6v4.5a1.125 1.125 0 01-2.25 0V6A.375.375 0 0021 5.625h-6z"/></symbol><symbol viewBox="0 0 36 36" id="unlocked" xmlns="http://www.w3.org/2000/svg"><path fill-rule="evenodd" clip-rule="evenodd" d="M10.5 17.625c-1.036 0-1.875.84-1.875 1.875v9c0 1.035.84 1.875 1.875 1.875h15c1.035 0 1.875-.84 1.875-1.875v-9c0-1.035-.84-1.875-1.875-1.875h-15zM6.375 19.5a4.125 4.125 0 014.125-4.125h15a4.125 4.125 0 014.125 4.125v9a4.125 4.125 0 01-4.125 4.125h-15A4.125 4.125 0 016.375 28.5v-9z"/><path fill-rule="evenodd" clip-rule="evenodd" d="M18 23.625a.375.375 0 100 .75.375.375 0 000-.75zM15.375 24a2.625 2.625 0 115.25 0 2.625 2.625 0 01-5.25 0zM18 4.125A4.875 4.875 0 0013.125 9v7.5a1.125 1.125 0 01-2.25 0V9a7.125 7.125 0 0114.25 0 1.125 1.125 0 01-2.25 0A4.875 4.875 0 0018 4.125z"/></symbol><symbol viewBox="0 0 36 36" id="upload" xmlns="http://www.w3.org/2000/svg"><path fill-rule="evenodd" clip-rule="evenodd" d="M20.215 8.682a8.21 8.21 0 00-2.887-.008 7.832 7.832 0 00-2.656.98c-1.617.966-2.705 2.448-3.074 4.092a1.125 1.125 0 01-1.098.879c-1.589 0-3.103.604-4.212 1.665-1.108 1.059-1.72 2.485-1.72 3.96s.612 2.9 1.72 3.96c1.109 1.06 2.623 1.665 4.212 1.665a1.125 1.125 0 010 2.25c-2.154 0-4.23-.818-5.768-2.29-1.54-1.472-2.414-3.48-2.414-5.585s.875-4.113 2.414-5.586a8.316 8.316 0 014.905-2.245c.66-1.938 2.038-3.595 3.88-4.696a10.081 10.081 0 013.42-1.265 10.46 10.46 0 013.68.01c1.215.22 2.375.656 3.412 1.284a9.167 9.167 0 012.639 2.39 8.302 8.302 0 011.441 3.163c.149.683.206 1.378.174 2.07h.217a6.375 6.375 0 010 12.75H27a1.125 1.125 0 010-2.25h1.5a4.125 4.125 0 000-8.25H27a1.125 1.125 0 01-1.098-1.372 5.707 5.707 0 00.008-2.47 6.051 6.051 0 00-1.053-2.305 6.918 6.918 0 00-1.993-1.802 7.82 7.82 0 00-2.649-.994z"/><path fill-rule="evenodd" clip-rule="evenodd" d="M17.204 17.204c.44-.439 1.152-.439 1.591 0l4.5 4.5a1.125 1.125 0 01-1.59 1.591L18 19.591l-3.704 3.704a1.125 1.125 0 01-1.591-1.59l4.5-4.5z"/><path fill-rule="evenodd" clip-rule="evenodd" d="M18 16.875c.621 0 1.125.504 1.125 1.125v13.5a1.125 1.125 0 01-2.25 0V18c0-.621.504-1.125 1.125-1.125z"/></symbol><symbol viewBox="0 0 36 36" id="user" xmlns="http://www.w3.org/2000/svg"><path fill-rule="evenodd" clip-rule="evenodd" d="M18 5.625a4.875 4.875 0 100 9.75 4.875 4.875 0 000-9.75zM10.875 10.5a7.125 7.125 0 1114.25 0 7.125 7.125 0 01-14.25 0zM15 23.625a4.875 4.875 0 00-4.875 4.875v3a1.125 1.125 0 01-2.25 0v-3A7.125 7.125 0 0115 21.375h6a7.125 7.125 0 017.125 7.125v3a1.125 1.125 0 01-2.25 0v-3A4.875 4.875 0 0021 23.625h-6z"/></symbol><symbol viewBox="0 0 36 36" id="users" xmlns="http://www.w3.org/2000/svg"><path fill-rule="evenodd" clip-rule="evenodd" d="M13.5 5.625a4.875 4.875 0 100 9.75 4.875 4.875 0 000-9.75zM6.375 10.5a7.125 7.125 0 1114.25 0 7.125 7.125 0 01-14.25 0zM10.5 23.625A4.875 4.875 0 005.625 28.5v3a1.125 1.125 0 01-2.25 0v-3a7.125 7.125 0 017.125-7.125h6a7.125 7.125 0 017.125 7.125v3a1.125 1.125 0 01-2.25 0v-3a4.875 4.875 0 00-4.875-4.875h-6zM22.91 4.416a1.125 1.125 0 011.369-.811 7.124 7.124 0 010 13.805 1.125 1.125 0 11-.558-2.18 4.875 4.875 0 000-9.446 1.125 1.125 0 01-.81-1.368zM25.91 22.444a1.125 1.125 0 011.371-.808 7.125 7.125 0 015.344 6.857V31.5a1.125 1.125 0 01-2.25 0v-2.997a4.875 4.875 0 00-3.656-4.689 1.125 1.125 0 01-.808-1.37z"/></symbol></svg>