<?xml version="1.0" encoding="utf-8"?><svg xmlns="http://www.w3.org/2000/svg" xmlns:xlink="http://www.w3.org/1999/xlink"><symbol fill="none" viewBox="0 0 36 36" id="alert-circle" xmlns="http://www.w3.org/2000/svg"><path d="M18 31.5c7.456 0 13.5-6.044 13.5-13.5S25.456 4.5 18 4.5 4.5 10.544 4.5 18 10.544 31.5 18 31.5zM18 12v6M18 24h.015" stroke="#778194" stroke-width="2.25" stroke-linecap="round" stroke-linejoin="round"/></symbol><symbol fill="none" viewBox="0 0 36 36" id="alert-triangle" xmlns="http://www.w3.org/2000/svg"><path d="M18 22.5v.015m0-9.015v3-3zM7.5 28.5h21a3 3 0 002.76-4.125L20.61 6a3 3 0 00-5.25 0L4.71 24.375A3 3 0 007.335 28.5" stroke="#778194" stroke-width="2.25" stroke-linecap="round" stroke-linejoin="round"/></symbol><symbol fill="none" viewBox="0 0 36 36" id="arrow-down" xmlns="http://www.w3.org/2000/svg"><path d="M18 7.5v21M24 22.5l-6 6M12 22.5l6 6" stroke="#778194" stroke-width="2.25" stroke-linecap="round" stroke-linejoin="round"/></symbol><symbol fill="none" viewBox="0 0 36 36" id="arrow-left" xmlns="http://www.w3.org/2000/svg"><path d="M28.5 18h-21M13.5 24l-6-6M13.5 12l-6 6" stroke="#778194" stroke-width="2.25" stroke-linecap="round" stroke-linejoin="round"/></symbol><symbol fill="none" viewBox="0 0 36 36" id="arrow-right" xmlns="http://www.w3.org/2000/svg"><path d="M7.5 18h21M22.5 24l6-6M22.5 12l6 6" stroke="#778194" stroke-width="2.25" stroke-linecap="round" stroke-linejoin="round"/></symbol><symbol fill="none" viewBox="0 0 36 36" id="arrow-up" xmlns="http://www.w3.org/2000/svg"><path d="M18 28.5v-21M12 13.5l6-6M24 13.5l-6-6" stroke="#778194" stroke-width="2.25" stroke-linecap="round" stroke-linejoin="round"/></symbol><symbol fill="none" viewBox="0 0 36 36" id="bell" xmlns="http://www.w3.org/2000/svg"><path d="M15 7.5a3 3 0 016 0 10.5 10.5 0 016 9V21a6 6 0 003 4.5H6A6 6 0 009 21v-4.5a10.5 10.5 0 016-9M13.5 25.5V27a4.5 4.5 0 109 0v-1.5" stroke="#778194" stroke-width="2.25" stroke-linecap="round" stroke-linejoin="round"/></symbol><symbol fill="none" viewBox="0 0 36 36" id="book" xmlns="http://www.w3.org/2000/svg"><path d="M4.5 28.5a13.5 13.5 0 0113.5 0 13.5 13.5 0 0113.5 0M4.5 9A13.5 13.5 0 0118 9a13.5 13.5 0 0113.5 0M4.5 9v19.5M18 9v19.5M31.5 9v19.5" stroke="#778194" stroke-width="2.25" stroke-linecap="round" stroke-linejoin="round"/></symbol><symbol fill="none" viewBox="0 0 36 36" id="date" xmlns="http://www.w3.org/2000/svg"><path d="M27 7.5H9a3 3 0 00-3 3v18a3 3 0 003 3h18a3 3 0 003-3v-18a3 3 0 00-3-3zM24 4.5v6M12 4.5v6M6 16.5h24" stroke="#778194" stroke-width="2.25" stroke-linecap="round" stroke-linejoin="round"/></symbol><symbol fill="none" viewBox="0 0 36 36" id="download" xmlns="http://www.w3.org/2000/svg"><path d="M28.5 27a5.25 5.25 0 100-10.5H27c.219-.975.222-1.98.01-2.956a7.178 7.178 0 00-1.248-2.734 8.042 8.042 0 00-2.315-2.096 8.946 8.946 0 00-3.03-1.139 9.335 9.335 0 00-3.284-.009 8.957 8.957 0 00-3.038 1.123C12.235 9.8 10.942 11.531 10.5 13.5a7.117 7.117 0 00-4.449 1.329 6.585 6.585 0 00-2.55 3.73 6.34 6.34 0 00.51 4.431A6.77 6.77 0 007.35 26.1M18 19.5V33M13.5 28.5L18 33l4.5-4.5" stroke="#778194" stroke-width="2.25" stroke-linecap="round" stroke-linejoin="round"/></symbol><symbol fill="none" viewBox="0 0 36 36" id="edit" xmlns="http://www.w3.org/2000/svg"><path d="M6 30h6l15.75-15.75a4.243 4.243 0 00-6-6L6 24v6zM20.25 9.75l6 6" stroke="#778194" stroke-width="2.25" stroke-linecap="round" stroke-linejoin="round"/></symbol><symbol fill="none" viewBox="0 0 36 36" id="eye" xmlns="http://www.w3.org/2000/svg"><path d="M18 21a3 3 0 100-6 3 3 0 000 6z" stroke="#778194" stroke-width="2.25" stroke-linecap="round" stroke-linejoin="round"/><path d="M33 18c-4 7-9 10.5-15 10.5S7 25 3 18c4-7 9-10.5 15-10.5S29 11 33 18z" stroke="#778194" stroke-width="2.25" stroke-linecap="round" stroke-linejoin="round"/></symbol><symbol fill="none" viewBox="0 0 36 36" id="eye-off" xmlns="http://www.w3.org/2000/svg"><path d="M4.5 4.5l27 27M15.876 15.88a3 3 0 004.242 4.245" stroke="#778194" stroke-width="2.25" stroke-linecap="round" stroke-linejoin="round"/><path d="M26.035 26.023C23.59 27.673 20.913 28.5 18 28.5 12 28.5 7 25 3 18c2.053-3.592 4.37-6.262 6.948-8.011m4.096-1.942A14.199 14.199 0 0118 7.5c6 0 11 3.5 15 10.5-1.167 2.041-2.418 3.786-3.755 5.232l-15.2-15.184z" stroke="#778194" stroke-width="2.25" stroke-linecap="round" stroke-linejoin="round"/></symbol><symbol fill="none" viewBox="0 0 36 36" id="file" xmlns="http://www.w3.org/2000/svg"><path d="M21 4.5v6a1.5 1.5 0 001.5 1.5h6" stroke="#778194" stroke-width="2.25" stroke-linecap="round" stroke-linejoin="round"/><path d="M25.5 31.5h-15a3 3 0 01-3-3v-21a3 3 0 013-3H21l7.5 7.5v16.5a3 3 0 01-3 3z" stroke="#778194" stroke-width="2.25" stroke-linecap="round" stroke-linejoin="round"/></symbol><symbol fill="none" viewBox="0 0 36 36" id="login" xmlns="http://www.w3.org/2000/svg"><path d="M21 12V9a3 3 0 00-3-3H7.5a3 3 0 00-3 3v18a3 3 0 003 3H18a3 3 0 003-3v-3M30 18H10.5m0 0l4.5-4.5M10.5 18l4.5 4.5" stroke="#778194" stroke-width="2.25" stroke-linecap="round" stroke-linejoin="round"/></symbol><symbol fill="none" viewBox="0 0 36 36" id="logout" xmlns="http://www.w3.org/2000/svg"><path d="M21 12V9a3 3 0 00-3-3H7.5a3 3 0 00-3 3v18a3 3 0 003 3H18a3 3 0 003-3v-3M10.5 18h21m0 0L27 13.5m4.5 4.5L27 22.5" stroke="#778194" stroke-width="2.25" stroke-linecap="round" stroke-linejoin="round"/></symbol><symbol fill="none" viewBox="0 0 36 36" id="mail" xmlns="http://www.w3.org/2000/svg"><path d="M28.5 7.5h-21a3 3 0 00-3 3v15a3 3 0 003 3h21a3 3 0 003-3v-15a3 3 0 00-3-3z" stroke="#778194" stroke-width="2.25" stroke-linecap="round" stroke-linejoin="round"/><path d="M4.5 10.5l13.5 9 13.5-9" stroke="#778194" stroke-width="2.25" stroke-linecap="round" stroke-linejoin="round"/></symbol><symbol fill="none" viewBox="0 0 36 36" id="message" xmlns="http://www.w3.org/2000/svg"><path d="M4.5 30l1.95-5.85c-1.685-2.493-2.295-5.444-1.716-8.306.58-2.863 2.309-5.44 4.866-7.255 2.557-1.814 5.768-2.74 9.036-2.608 3.268.132 6.371 1.315 8.732 3.329 2.36 2.013 3.818 4.72 4.102 7.617.284 2.898-.626 5.788-2.56 8.134-1.933 2.346-4.759 3.987-7.952 4.62-3.194.633-6.537.213-9.408-1.181L4.5 30M18 18v.015M12 18v.015M24 18v.015" stroke="#778194" stroke-width="2.25" stroke-linecap="round" stroke-linejoin="round"/></symbol><symbol fill="none" viewBox="0 0 36 36" id="minus" xmlns="http://www.w3.org/2000/svg"><path d="M7.5 18h21" stroke="#778194" stroke-width="2.25" stroke-linecap="round" stroke-linejoin="round"/></symbol><symbol fill="none" viewBox="0 0 36 36" id="plus" xmlns="http://www.w3.org/2000/svg"><path d="M18 7.5v21M7.5 18h21" stroke="#778194" stroke-width="2.25" stroke-linecap="round" stroke-linejoin="round"/></symbol><symbol fill="none" viewBox="0 0 36 36" id="refresh" xmlns="http://www.w3.org/2000/svg"><path d="M30 16.5a12.15 12.15 0 00-23.25-3M6 7.5v6h6M6 19.5a12.15 12.15 0 0023.25 3m.75 6v-6h-6" stroke="#778194" stroke-width="2.25" stroke-linecap="round" stroke-linejoin="round"/></symbol><symbol fill="none" viewBox="0 0 36 36" id="search" xmlns="http://www.w3.org/2000/svg"><path d="M15 25.5c5.799 0 10.5-4.701 10.5-10.5S20.799 4.5 15 4.5 4.5 9.201 4.5 15 9.201 25.5 15 25.5zM31.5 31.5l-9-9" stroke="#778194" stroke-width="2.25" stroke-linecap="round" stroke-linejoin="round"/></symbol><symbol fill="none" viewBox="0 0 36 36" id="security" xmlns="http://www.w3.org/2000/svg"><path d="M18 4.5A18 18 0 0030.75 9 18 18 0 0118 31.5 18 18 0 015.25 9 18 18 0 0018 4.5" stroke="#778194" stroke-width="2.25" stroke-linecap="round" stroke-linejoin="round"/><path d="M18 18a1.5 1.5 0 100-3 1.5 1.5 0 000 3zM18 18v3.75" stroke="#778194" stroke-width="2.25" stroke-linecap="round" stroke-linejoin="round"/></symbol><symbol fill="none" viewBox="0 0 36 36" id="send" xmlns="http://www.w3.org/2000/svg"><path d="M15 21L31.5 4.5M31.5 4.5l-9.75 27a.825.825 0 01-1.5 0L15 21 4.5 15.75a.825.825 0 010-1.5l27-9.75z" stroke="#778194" stroke-width="2.25" stroke-linecap="round" stroke-linejoin="round"/></symbol><symbol fill="none" viewBox="0 0 36 36" id="settings" xmlns="http://www.w3.org/2000/svg"><path d="M15.488 6.476c.639-2.635 4.386-2.635 5.024 0a2.586 2.586 0 003.86 1.599c2.314-1.41 4.965 1.239 3.555 3.555a2.585 2.585 0 001.598 3.857c2.633.64 2.633 4.386 0 5.025a2.585 2.585 0 00-1.6 3.86c1.41 2.314-1.239 4.965-3.555 3.555a2.585 2.585 0 00-3.858 1.598c-.639 2.633-4.386 2.633-5.024 0a2.585 2.585 0 00-3.86-1.6c-2.315 1.41-4.965-1.239-3.555-3.555a2.586 2.586 0 00-1.598-3.858c-2.633-.639-2.633-4.386 0-5.024a2.586 2.586 0 001.6-3.86c-1.41-2.315 1.239-4.965 3.555-3.555 1.5.912 3.443.105 3.857-1.598z" stroke="#778194" stroke-width="2.25" stroke-linecap="round" stroke-linejoin="round"/><path d="M18 22.5a4.5 4.5 0 100-9 4.5 4.5 0 000 9z" stroke="#778194" stroke-width="2.25" stroke-linecap="round" stroke-linejoin="round"/></symbol><symbol fill="none" viewBox="0 0 36 36" id="star" xmlns="http://www.w3.org/2000/svg"><path d="M18 26.625l-9.258 4.867 1.768-10.309-7.5-7.3 10.35-1.5 4.63-9.38 4.629 9.38 10.35 1.5-7.5 7.3 1.768 10.31L18 26.624z" stroke="#778194" stroke-width="2.25" stroke-linecap="round" stroke-linejoin="round"/></symbol><symbol fill="none" viewBox="0 0 36 36" id="star-filled" xmlns="http://www.w3.org/2000/svg"><path d="M18 26.625l-9.258 4.867 1.768-10.309-7.5-7.3 10.35-1.5 4.63-9.38 4.629 9.38 10.35 1.5-7.5 7.3 1.768 10.31L18 26.624z" fill="#778194" stroke="#778194" stroke-width="2.25" stroke-linecap="round" stroke-linejoin="round"/></symbol><symbol fill="none" viewBox="0 0 36 36" id="star-half-filled" xmlns="http://www.w3.org/2000/svg"><path d="M18 26.625l-9.258 4.867 1.768-10.309-7.5-7.3 10.35-1.5 4.63-9.38 4.629 9.38 10.35 1.5-7.5 7.3 1.768 10.31L18 26.624z" stroke="#778194" stroke-width="2.25" stroke-linecap="round" stroke-linejoin="round"/><path d="M18 26.625l-9.258 4.867 1.768-10.309-7.5-7.3 10.35-1.5 4.63-9.38.01 23.622z" fill="#778194"/></symbol><symbol fill="none" viewBox="0 0 36 36" id="time" xmlns="http://www.w3.org/2000/svg"><path d="M18 31.5c7.456 0 13.5-6.044 13.5-13.5S25.456 4.5 18 4.5 4.5 10.544 4.5 18 10.544 31.5 18 31.5z" stroke="#778194" stroke-width="2.25" stroke-linecap="round" stroke-linejoin="round"/><path d="M18 10.5V18l4.5 4.5" stroke="#778194" stroke-width="2.25" stroke-linecap="round" stroke-linejoin="round"/></symbol><symbol fill="none" viewBox="0 0 36 36" id="trash" xmlns="http://www.w3.org/2000/svg"><path d="M6 10.5h24M15 16.5v9M21 16.5v9M7.5 10.5l1.5 18a3 3 0 003 3h12a3 3 0 003-3l1.5-18M13.5 10.5V6A1.5 1.5 0 0115 4.5h6A1.5 1.5 0 0122.5 6v4.5" stroke="#778194" stroke-width="2.25" stroke-linecap="round" stroke-linejoin="round"/></symbol><symbol fill="none" viewBox="0 0 36 36" id="upload" xmlns="http://www.w3.org/2000/svg"><path d="M10.5 27c-1.872 0-3.667-.711-4.99-1.977-1.323-1.266-2.067-2.983-2.067-4.773 0-1.79.744-3.507 2.067-4.773C6.833 14.211 8.628 13.5 10.5 13.5c.442-1.97 1.735-3.7 3.595-4.81a8.958 8.958 0 013.038-1.124 9.335 9.335 0 013.284.009 8.947 8.947 0 013.03 1.14 8.043 8.043 0 012.315 2.095 7.176 7.176 0 011.248 2.734c.212.977.209 1.98-.01 2.956h1.5a5.25 5.25 0 110 10.5H27" stroke="#778194" stroke-width="2.25" stroke-linecap="round" stroke-linejoin="round"/><path d="M13.5 22.5L18 18l4.5 4.5M18 18v13.5" stroke="#778194" stroke-width="2.25" stroke-linecap="round" stroke-linejoin="round"/></symbol><symbol fill="none" viewBox="0 0 36 36" id="user" xmlns="http://www.w3.org/2000/svg"><path d="M18 16.5a6 6 0 100-12 6 6 0 000 12zM9 31.5v-3a6 6 0 016-6h6a6 6 0 016 6v3" stroke="#778194" stroke-width="2.25" stroke-linecap="round" stroke-linejoin="round"/></symbol><symbol fill="none" viewBox="0 0 36 36" id="users" xmlns="http://www.w3.org/2000/svg"><path d="M13.5 16.5a6 6 0 100-12 6 6 0 000 12zM4.5 31.5v-3a6 6 0 016-6h6a6 6 0 016 6v3M24 4.695a6 6 0 010 11.625M31.5 31.5v-3a6 6 0 00-4.5-5.775" stroke="#778194" stroke-width="2.25" stroke-linecap="round" stroke-linejoin="round"/></symbol></svg>