<svg width="16" height="16" viewBox="0 0 16 16" fill="none" xmlns="http://www.w3.org/2000/svg">
<path d="M9.33301 7.99824C9.33301 6.3371 7.78834 4.6665 5.90443 4.6665C5.68128 4.6665 4.9457 4.66651 4.76158 4.66651C2.86803 4.66651 1.33301 6.15818 1.33301 7.99824C1.33301 9.58384 2.47283 10.9108 3.99967 11.2474C4.24471 11.3015 4.49971 11.33 4.76158 11.33" stroke="#B8B8CC" stroke-width="1.5" stroke-linecap="round" stroke-linejoin="round"/>
<path d="M6.66699 7.99824C6.66699 9.65938 8.21166 11.33 10.0956 11.33C10.3187 11.33 11.0543 11.33 11.2384 11.33C13.132 11.33 14.667 9.83831 14.667 7.99824C14.667 6.41264 13.5272 5.08574 12.0003 4.74906C11.7553 4.69503 11.5003 4.6665 11.2384 4.6665" stroke="#B8B8CC" stroke-width="1.5" stroke-linecap="round" stroke-linejoin="round"/>
</svg>
