<svg width="754" height="375" viewBox="0 0 754 375" fill="none" xmlns="http://www.w3.org/2000/svg">
<rect x="19" y="7.5" width="16" height="2" rx="1" fill="#6666FF"/>
<path d="M44.1186 14V3.81818H47.7479C48.54 3.81818 49.1963 3.96236 49.7166 4.25071C50.237 4.53906 50.6264 4.93347 50.8849 5.43395C51.1435 5.93111 51.2727 6.49124 51.2727 7.11435C51.2727 7.74077 51.1418 8.30421 50.88 8.80469C50.6214 9.30185 50.2304 9.69626 49.7067 9.98793C49.1863 10.2763 48.5317 10.4205 47.7429 10.4205H45.2472V9.1179H47.6037C48.1042 9.1179 48.5102 9.03172 48.8217 8.85938C49.1333 8.68371 49.362 8.44508 49.5078 8.14347C49.6536 7.84186 49.7266 7.49882 49.7266 7.11435C49.7266 6.72988 49.6536 6.38849 49.5078 6.0902C49.362 5.7919 49.1316 5.55824 48.8168 5.3892C48.5052 5.22017 48.0942 5.13565 47.5838 5.13565H45.6548V14H44.1186ZM55.6553 14.1541C54.9394 14.1541 54.3146 13.9901 53.781 13.6619C53.2474 13.3338 52.8331 12.8748 52.5381 12.2848C52.2431 11.6948 52.0956 11.0054 52.0956 10.2166C52.0956 9.42448 52.2431 8.73177 52.5381 8.13849C52.8331 7.54522 53.2474 7.08452 53.781 6.75639C54.3146 6.42827 54.9394 6.2642 55.6553 6.2642C56.3712 6.2642 56.996 6.42827 57.5296 6.75639C58.0632 7.08452 58.4775 7.54522 58.7725 8.13849C59.0675 8.73177 59.2149 9.42448 59.2149 10.2166C59.2149 11.0054 59.0675 11.6948 58.7725 12.2848C58.4775 12.8748 58.0632 13.3338 57.5296 13.6619C56.996 13.9901 56.3712 14.1541 55.6553 14.1541ZM55.6603 12.9062C56.1243 12.9062 56.5087 12.7836 56.8137 12.5384C57.1186 12.2931 57.344 11.9666 57.4898 11.5589C57.6389 11.1513 57.7135 10.7022 57.7135 10.2116C57.7135 9.72443 57.6389 9.27699 57.4898 8.86932C57.344 8.45833 57.1186 8.12855 56.8137 7.87997C56.5087 7.63139 56.1243 7.5071 55.6603 7.5071C55.1929 7.5071 54.8051 7.63139 54.4969 7.87997C54.192 8.12855 53.9649 8.45833 53.8158 8.86932C53.67 9.27699 53.597 9.72443 53.597 10.2116C53.597 10.7022 53.67 11.1513 53.8158 11.5589C53.9649 11.9666 54.192 12.2931 54.4969 12.5384C54.8051 12.7836 55.1929 12.9062 55.6603 12.9062ZM63.6708 14.1541C62.9549 14.1541 62.3302 13.9901 61.7965 13.6619C61.2629 13.3338 60.8486 12.8748 60.5536 12.2848C60.2587 11.6948 60.1112 11.0054 60.1112 10.2166C60.1112 9.42448 60.2587 8.73177 60.5536 8.13849C60.8486 7.54522 61.2629 7.08452 61.7965 6.75639C62.3302 6.42827 62.9549 6.2642 63.6708 6.2642C64.3867 6.2642 65.0115 6.42827 65.5451 6.75639C66.0787 7.08452 66.493 7.54522 66.788 8.13849C67.083 8.73177 67.2305 9.42448 67.2305 10.2166C67.2305 11.0054 67.083 11.6948 66.788 12.2848C66.493 12.8748 66.0787 13.3338 65.5451 13.6619C65.0115 13.9901 64.3867 14.1541 63.6708 14.1541ZM63.6758 12.9062C64.1398 12.9062 64.5243 12.7836 64.8292 12.5384C65.1341 12.2931 65.3595 11.9666 65.5053 11.5589C65.6545 11.1513 65.7291 10.7022 65.7291 10.2116C65.7291 9.72443 65.6545 9.27699 65.5053 8.86932C65.3595 8.45833 65.1341 8.12855 64.8292 7.87997C64.5243 7.63139 64.1398 7.5071 63.6758 7.5071C63.2085 7.5071 62.8207 7.63139 62.5125 7.87997C62.2075 8.12855 61.9805 8.45833 61.8313 8.86932C61.6855 9.27699 61.6126 9.72443 61.6126 10.2116C61.6126 10.7022 61.6855 11.1513 61.8313 11.5589C61.9805 11.9666 62.2075 12.2931 62.5125 12.5384C62.8207 12.7836 63.2085 12.9062 63.6758 12.9062ZM69.9563 3.81818V14H68.4698V3.81818H69.9563ZM74.8212 14V6.36364H76.258V7.5767H76.3375C76.4767 7.16572 76.722 6.84257 77.0733 6.60724C77.4279 6.36861 77.829 6.24929 78.2764 6.24929C78.3692 6.24929 78.4786 6.2526 78.6045 6.25923C78.7338 6.26586 78.8349 6.27415 78.9078 6.28409V7.70597C78.8482 7.68939 78.7421 7.67116 78.5896 7.65128C78.4372 7.62808 78.2847 7.61648 78.1322 7.61648C77.7809 7.61648 77.4677 7.69105 77.1926 7.8402C76.9208 7.98603 76.7054 8.18987 76.5463 8.4517C76.3872 8.71023 76.3077 9.00521 76.3077 9.33665V14H74.8212ZM82.792 14.1541C82.0396 14.1541 81.3916 13.9934 80.8481 13.6719C80.3078 13.3471 79.8902 12.8913 79.5952 12.3047C79.3036 11.7147 79.1577 11.0237 79.1577 10.2315C79.1577 9.44934 79.3036 8.75994 79.5952 8.16335C79.8902 7.56676 80.3012 7.10109 80.8282 6.76633C81.3585 6.43158 81.9783 6.2642 82.6876 6.2642C83.1184 6.2642 83.536 6.33546 83.9404 6.47798C84.3448 6.6205 84.7077 6.84422 85.0292 7.14915C85.3507 7.45407 85.6042 7.85014 85.7898 8.33736C85.9754 8.82126 86.0682 9.40956 86.0682 10.1023V10.6293H79.9979V9.51562H84.6116C84.6116 9.12453 84.532 8.77817 84.3729 8.47656C84.2138 8.17164 83.9901 7.93134 83.7018 7.75568C83.4167 7.58002 83.082 7.49219 82.6975 7.49219C82.2799 7.49219 81.9153 7.59493 81.6038 7.80043C81.2955 8.0026 81.0569 8.26776 80.8878 8.59588C80.7221 8.92069 80.6393 9.27367 80.6393 9.65483V10.5249C80.6393 11.0353 80.7288 11.4695 80.9077 11.8274C81.09 12.1854 81.3436 12.4588 81.6684 12.6477C81.9932 12.8333 82.3727 12.9261 82.8069 12.9261C83.0886 12.9261 83.3455 12.8864 83.5775 12.8068C83.8095 12.724 84.01 12.6013 84.179 12.4389C84.3481 12.2765 84.4773 12.076 84.5668 11.8374L85.9738 12.0909C85.8611 12.5052 85.6589 12.8681 85.3673 13.1797C85.0789 13.4879 84.716 13.7282 84.2785 13.9006C83.8443 14.0696 83.3488 14.1541 82.792 14.1541ZM90.8622 6.36364V7.55682H86.691V6.36364H90.8622ZM87.8096 4.53409H89.2962V11.7578C89.2962 12.0462 89.3392 12.2633 89.4254 12.4091C89.5116 12.5516 89.6226 12.6494 89.7585 12.7024C89.8977 12.7521 90.0485 12.777 90.2109 12.777C90.3302 12.777 90.4346 12.7687 90.5241 12.7521C90.6136 12.7356 90.6832 12.7223 90.7329 12.7124L91.0014 13.9403C90.9152 13.9735 90.7926 14.0066 90.6335 14.0398C90.4744 14.0762 90.2756 14.0961 90.0369 14.0994C89.6458 14.1061 89.2812 14.0365 88.9432 13.8906C88.6051 13.7448 88.3317 13.5194 88.1229 13.2145C87.914 12.9096 87.8096 12.5268 87.8096 12.0661V4.53409ZM96.9239 10.8331V6.36364H98.4154V14H96.9537V12.6776H96.8742C96.6985 13.0852 96.4168 13.425 96.029 13.6967C95.6446 13.9652 95.1656 14.0994 94.5922 14.0994C94.1017 14.0994 93.6675 13.9917 93.2897 13.7763C92.9152 13.5575 92.6202 13.2344 92.4047 12.8068C92.1926 12.3793 92.0866 11.8506 92.0866 11.2209V6.36364H93.5731V11.0419C93.5731 11.5623 93.7172 11.9766 94.0056 12.2848C94.2939 12.593 94.6685 12.7472 95.1292 12.7472C95.4076 12.7472 95.6843 12.6776 95.9594 12.5384C96.2378 12.3991 96.4682 12.1887 96.6505 11.907C96.8361 11.6252 96.9272 11.2673 96.9239 10.8331ZM99.9927 14V6.36364H101.43V7.5767H101.509C101.648 7.16572 101.894 6.84257 102.245 6.60724C102.599 6.36861 103.001 6.24929 103.448 6.24929C103.541 6.24929 103.65 6.2526 103.776 6.25923C103.905 6.26586 104.006 6.27415 104.079 6.28409V7.70597C104.02 7.68939 103.914 7.67116 103.761 7.65128C103.609 7.62808 103.456 7.61648 103.304 7.61648C102.952 7.61648 102.639 7.69105 102.364 7.8402C102.092 7.98603 101.877 8.18987 101.718 8.4517C101.559 8.71023 101.479 9.00521 101.479 9.33665V14H99.9927ZM106.432 9.46591V14H104.946V6.36364H106.373V7.60653H106.467C106.643 7.20218 106.918 6.87737 107.292 6.6321C107.67 6.38684 108.146 6.2642 108.719 6.2642C109.24 6.2642 109.695 6.37358 110.086 6.59233C110.477 6.80777 110.781 7.12926 110.996 7.55682C111.212 7.98437 111.319 8.51302 111.319 9.14276V14H109.833V9.32173C109.833 8.76823 109.689 8.3357 109.4 8.02415C109.112 7.70928 108.716 7.55185 108.212 7.55185C107.867 7.55185 107.561 7.62642 107.292 7.77557C107.027 7.92472 106.817 8.14347 106.661 8.43182C106.509 8.71686 106.432 9.06155 106.432 9.46591ZM118.615 8.22798L117.268 8.46662C117.212 8.29427 117.122 8.13021 116.999 7.97443C116.88 7.81865 116.718 7.69105 116.512 7.59162C116.307 7.49219 116.05 7.44247 115.742 7.44247C115.321 7.44247 114.969 7.53693 114.688 7.72585C114.406 7.91146 114.265 8.15175 114.265 8.44673C114.265 8.70194 114.36 8.90743 114.548 9.06321C114.737 9.21899 115.042 9.34659 115.463 9.44602L116.676 9.72443C117.379 9.88684 117.903 10.1371 118.247 10.4751C118.592 10.8132 118.764 11.2524 118.764 11.7926C118.764 12.25 118.632 12.6577 118.367 13.0156C118.105 13.3703 117.739 13.6487 117.268 13.8509C116.801 14.053 116.259 14.1541 115.642 14.1541C114.787 14.1541 114.089 13.9718 113.549 13.6072C113.009 13.2393 112.678 12.7173 112.555 12.0412L113.992 11.8224C114.081 12.197 114.265 12.4804 114.544 12.6726C114.822 12.8615 115.185 12.956 115.632 12.956C116.12 12.956 116.509 12.8549 116.801 12.6527C117.092 12.4472 117.238 12.197 117.238 11.902C117.238 11.6634 117.149 11.4628 116.97 11.3004C116.794 11.138 116.524 11.0154 116.159 10.9325L114.867 10.6491C114.154 10.4867 113.627 10.2282 113.286 9.87358C112.948 9.51894 112.779 9.06984 112.779 8.52628C112.779 8.07552 112.905 7.68111 113.156 7.34304C113.408 7.00497 113.756 6.74148 114.2 6.55256C114.645 6.36032 115.153 6.2642 115.727 6.2642C116.552 6.2642 117.202 6.44318 117.676 6.80114C118.15 7.15578 118.463 7.63139 118.615 8.22798ZM120.958 14.0945C120.686 14.0945 120.453 13.9983 120.257 13.8061C120.062 13.6106 119.964 13.3752 119.964 13.1001C119.964 12.8284 120.062 12.5964 120.257 12.4041C120.453 12.2086 120.686 12.1108 120.958 12.1108C121.23 12.1108 121.464 12.2086 121.659 12.4041C121.855 12.5964 121.953 12.8284 121.953 13.1001C121.953 13.2824 121.906 13.4498 121.813 13.6023C121.724 13.7514 121.605 13.8707 121.455 13.9602C121.306 14.0497 121.141 14.0945 120.958 14.0945ZM120.958 8.53622C120.686 8.53622 120.453 8.43845 120.257 8.2429C120.062 8.04735 119.964 7.81368 119.964 7.5419C119.964 7.27012 120.062 7.03812 120.257 6.84588C120.453 6.65033 120.686 6.55256 120.958 6.55256C121.23 6.55256 121.464 6.65033 121.659 6.84588C121.855 7.03812 121.953 7.27012 121.953 7.5419C121.953 7.72419 121.906 7.89157 121.813 8.04403C121.724 8.19318 121.605 8.3125 121.455 8.40199C121.306 8.49148 121.141 8.53622 120.958 8.53622ZM130.15 14.1392C129.527 14.1392 128.966 14.0199 128.469 13.7812C127.975 13.5393 127.581 13.2079 127.286 12.7869C126.991 12.366 126.834 11.8854 126.814 11.3452H128.305C128.342 11.7827 128.536 12.1423 128.887 12.424C129.238 12.7057 129.659 12.8466 130.15 12.8466C130.541 12.8466 130.887 12.7571 131.189 12.5781C131.494 12.3958 131.732 12.1456 131.905 11.8274C132.08 11.5092 132.168 11.1463 132.168 10.7386C132.168 10.3243 132.079 9.95478 131.9 9.62997C131.721 9.30516 131.474 9.04995 131.159 8.86435C130.847 8.67874 130.489 8.58428 130.085 8.58097C129.777 8.58097 129.467 8.634 129.155 8.74006C128.844 8.84612 128.592 8.98532 128.4 9.15767L126.993 8.94886L127.564 3.81818H133.162V5.13565H128.842L128.519 7.98438H128.579C128.777 7.79214 129.041 7.63139 129.369 7.50213C129.701 7.37287 130.055 7.30824 130.433 7.30824C131.053 7.30824 131.605 7.45573 132.089 7.75071C132.576 8.04569 132.959 8.44839 133.237 8.95881C133.519 9.46591 133.658 10.0492 133.655 10.7088C133.658 11.3684 133.509 11.9567 133.207 12.4737C132.909 12.9908 132.495 13.3984 131.964 13.6967C131.437 13.9917 130.832 14.1392 130.15 14.1392ZM135.681 14.0945C135.409 14.0945 135.175 13.9983 134.98 13.8061C134.784 13.6106 134.686 13.3752 134.686 13.1001C134.686 12.8284 134.784 12.5964 134.98 12.4041C135.175 12.2086 135.409 12.1108 135.681 12.1108C135.952 12.1108 136.186 12.2086 136.382 12.4041C136.577 12.5964 136.675 12.8284 136.675 13.1001C136.675 13.2824 136.629 13.4498 136.536 13.6023C136.446 13.7514 136.327 13.8707 136.178 13.9602C136.029 14.0497 135.863 14.0945 135.681 14.0945ZM138.309 14L142.754 5.21023V5.13565H137.613V3.81818H144.345V5.1804L139.915 14H138.309ZM149.517 3.81818V14H147.976V5.35938H147.916L145.48 6.95028V5.47869L148.02 3.81818H149.517ZM157.166 12.0909V11.554C157.166 11.1695 157.245 10.8182 157.404 10.5C157.567 10.1785 157.802 9.92164 158.11 9.7294C158.422 9.53385 158.798 9.43608 159.239 9.43608C159.69 9.43608 160.067 9.5322 160.372 9.72443C160.677 9.91667 160.908 10.1735 161.063 10.495C161.222 10.8165 161.302 11.1695 161.302 11.554V12.0909C161.302 12.4754 161.222 12.8284 161.063 13.1499C160.904 13.468 160.671 13.7249 160.362 13.9205C160.057 14.1127 159.683 14.2088 159.239 14.2088C158.791 14.2088 158.414 14.1127 158.105 13.9205C157.797 13.7249 157.563 13.468 157.404 13.1499C157.245 12.8284 157.166 12.4754 157.166 12.0909ZM158.324 11.554V12.0909C158.324 12.3759 158.392 12.6345 158.528 12.8665C158.664 13.0985 158.901 13.2145 159.239 13.2145C159.574 13.2145 159.807 13.0985 159.94 12.8665C160.072 12.6345 160.139 12.3759 160.139 12.0909V11.554C160.139 11.2689 160.074 11.0104 159.945 10.7784C159.819 10.5464 159.584 10.4304 159.239 10.4304C158.907 10.4304 158.672 10.5464 158.533 10.7784C158.394 11.0104 158.324 11.2689 158.324 11.554ZM152.045 6.2642V5.72727C152.045 5.3428 152.124 4.98982 152.284 4.66832C152.446 4.34683 152.681 4.08996 152.99 3.89773C153.301 3.70549 153.677 3.60938 154.118 3.60938C154.569 3.60938 154.947 3.70549 155.252 3.89773C155.557 4.08996 155.787 4.34683 155.943 4.66832C156.098 4.98982 156.176 5.3428 156.176 5.72727V6.2642C156.176 6.64867 156.097 7.00166 155.938 7.32315C155.782 7.64134 155.55 7.8982 155.242 8.09375C154.937 8.28598 154.562 8.3821 154.118 8.3821C153.667 8.3821 153.288 8.28598 152.98 8.09375C152.675 7.8982 152.443 7.64134 152.284 7.32315C152.124 7.00166 152.045 6.64867 152.045 6.2642ZM153.208 5.72727V6.2642C153.208 6.54924 153.275 6.80776 153.407 7.03977C153.543 7.27178 153.78 7.38778 154.118 7.38778C154.45 7.38778 154.682 7.27178 154.814 7.03977C154.95 6.80776 155.018 6.54924 155.018 6.2642V5.72727C155.018 5.44223 154.953 5.18371 154.824 4.9517C154.695 4.7197 154.459 4.60369 154.118 4.60369C153.787 4.60369 153.551 4.7197 153.412 4.9517C153.276 5.18371 153.208 5.44223 153.208 5.72727ZM152.517 14L159.517 3.81818H160.705L153.705 14H152.517Z" fill="#B8B8D2"/>
<rect x="183" y="7.5" width="16" height="2" rx="1" fill="#B8B8D2"/>
<path d="M208.119 14V3.81818H209.655V8.2429H214.731V3.81818H216.272V14H214.731V9.56037H209.655V14H208.119ZM226.934 8.90909C226.934 9.99621 226.735 10.9309 226.337 11.7131C225.939 12.492 225.394 13.0919 224.701 13.5128C224.012 13.9304 223.228 14.1392 222.35 14.1392C221.468 14.1392 220.681 13.9304 219.988 13.5128C219.299 13.0919 218.755 12.4903 218.358 11.7081C217.96 10.9259 217.761 9.9929 217.761 8.90909C217.761 7.82197 217.96 6.88897 218.358 6.11008C218.755 5.32789 219.299 4.72798 219.988 4.31037C220.681 3.88944 221.468 3.67898 222.35 3.67898C223.228 3.67898 224.012 3.88944 224.701 4.31037C225.394 4.72798 225.939 5.32789 226.337 6.11008C226.735 6.88897 226.934 7.82197 226.934 8.90909ZM225.412 8.90909C225.412 8.08049 225.278 7.38281 225.01 6.81605C224.745 6.24598 224.38 5.8151 223.916 5.52344C223.455 5.22846 222.933 5.08097 222.35 5.08097C221.763 5.08097 221.24 5.22846 220.779 5.52344C220.318 5.8151 219.954 6.24598 219.685 6.81605C219.42 7.38281 219.287 8.08049 219.287 8.90909C219.287 9.73769 219.42 10.437 219.685 11.0071C219.954 11.5739 220.318 12.0047 220.779 12.2997C221.24 12.5914 221.763 12.7372 222.35 12.7372C222.933 12.7372 223.455 12.5914 223.916 12.2997C224.38 12.0047 224.745 11.5739 225.01 11.0071C225.278 10.437 225.412 9.73769 225.412 8.90909ZM231.725 14H228.429V3.81818H231.83C232.827 3.81818 233.684 4.02202 234.4 4.42969C235.116 4.83404 235.664 5.41572 236.045 6.17472C236.43 6.9304 236.622 7.83688 236.622 8.89418C236.622 9.95478 236.428 10.8662 236.041 11.6286C235.656 12.3909 235.099 12.9775 234.37 13.3885C233.641 13.7962 232.759 14 231.725 14ZM229.965 12.6577H231.641C232.416 12.6577 233.061 12.5118 233.575 12.2202C234.088 11.9252 234.473 11.4993 234.728 10.9425C234.983 10.3823 235.111 9.69957 235.111 8.89418C235.111 8.09541 234.983 7.41761 234.728 6.8608C234.476 6.30398 234.1 5.88139 233.599 5.59304C233.099 5.30469 232.478 5.16051 231.735 5.16051H229.965V12.6577ZM238.113 14V3.81818H239.649V12.6776H244.262V14H238.113ZM246.455 12.7372C246.183 12.7372 245.949 12.6411 245.754 12.4489C245.558 12.2533 245.461 12.018 245.461 11.7429C245.461 11.4711 245.558 11.2391 245.754 11.0469C245.949 10.8513 246.183 10.7536 246.455 10.7536C246.727 10.7536 246.96 10.8513 247.156 11.0469C247.351 11.2391 247.449 11.4711 247.449 11.7429C247.449 11.9252 247.403 12.0926 247.31 12.245C247.221 12.3942 247.101 12.5135 246.952 12.603C246.803 12.6925 246.637 12.7372 246.455 12.7372ZM246.455 7.63636C246.183 7.63636 245.949 7.54025 245.754 7.34801C245.558 7.15246 245.461 6.91714 245.461 6.64205C245.461 6.37027 245.558 6.13826 245.754 5.94602C245.949 5.75047 246.183 5.6527 246.455 5.6527C246.727 5.6527 246.96 5.75047 247.156 5.94602C247.351 6.13826 247.449 6.37027 247.449 6.64205C247.449 6.82434 247.403 6.99171 247.31 7.14418C247.221 7.29332 247.101 7.41264 246.952 7.50213C246.803 7.59162 246.637 7.63636 246.455 7.63636ZM255.646 14.1392C255.023 14.1392 254.463 14.0199 253.966 13.7812C253.472 13.5393 253.078 13.2079 252.783 12.7869C252.488 12.366 252.33 11.8854 252.31 11.3452H253.802C253.838 11.7827 254.032 12.1423 254.384 12.424C254.735 12.7057 255.156 12.8466 255.646 12.8466C256.037 12.8466 256.384 12.7571 256.685 12.5781C256.99 12.3958 257.229 12.1456 257.401 11.8274C257.577 11.5092 257.665 11.1463 257.665 10.7386C257.665 10.3243 257.575 9.95478 257.396 9.62997C257.217 9.30516 256.97 9.04995 256.656 8.86435C256.344 8.67874 255.986 8.58428 255.582 8.58097C255.274 8.58097 254.964 8.634 254.652 8.74006C254.34 8.84612 254.089 8.98532 253.896 9.15767L252.489 8.94886L253.061 3.81818H258.659V5.13565H254.339L254.016 7.98438H254.075C254.274 7.79214 254.538 7.63139 254.866 7.50213C255.197 7.37287 255.552 7.30824 255.93 7.30824C256.55 7.30824 257.101 7.45573 257.585 7.75071C258.073 8.04569 258.455 8.44839 258.734 8.95881C259.015 9.46591 259.155 10.0492 259.151 10.7088C259.155 11.3684 259.006 11.9567 258.704 12.4737C258.406 12.9908 257.991 13.3984 257.461 13.6967C256.934 13.9917 256.329 14.1392 255.646 14.1392ZM261.177 14.0945C260.906 14.0945 260.672 13.9983 260.476 13.8061C260.281 13.6106 260.183 13.3752 260.183 13.1001C260.183 12.8284 260.281 12.5964 260.476 12.4041C260.672 12.2086 260.906 12.1108 261.177 12.1108C261.449 12.1108 261.683 12.2086 261.878 12.4041C262.074 12.5964 262.172 12.8284 262.172 13.1001C262.172 13.2824 262.125 13.4498 262.032 13.6023C261.943 13.7514 261.824 13.8707 261.675 13.9602C261.525 14.0497 261.36 14.0945 261.177 14.0945ZM263.806 14L268.251 5.21023V5.13565H263.11V3.81818H269.842V5.1804L265.412 14H263.806ZM271.151 14V12.8864L274.596 9.31676C274.964 8.92898 275.267 8.58925 275.506 8.29759C275.748 8.0026 275.928 7.72254 276.048 7.45739C276.167 7.19223 276.227 6.91051 276.227 6.61222C276.227 6.27415 276.147 5.98248 275.988 5.73722C275.829 5.48864 275.612 5.29806 275.337 5.16548C275.062 5.02959 274.752 4.96165 274.407 4.96165C274.042 4.96165 273.724 5.03622 273.452 5.18537C273.181 5.33452 272.972 5.54498 272.826 5.81676C272.68 6.08854 272.607 6.40672 272.607 6.77131H271.141C271.141 6.15151 271.283 5.60961 271.568 5.1456C271.853 4.68158 272.244 4.32197 272.741 4.06676C273.239 3.80824 273.804 3.67898 274.437 3.67898C275.076 3.67898 275.64 3.80658 276.127 4.06179C276.618 4.31368 277 4.65838 277.276 5.09588C277.551 5.53007 277.688 6.0206 277.688 6.56747C277.688 6.94531 277.617 7.31487 277.474 7.67614C277.335 8.0374 277.092 8.4401 276.744 8.88423C276.396 9.32505 275.912 9.86032 275.292 10.4901L273.268 12.608V12.6825H277.852V14H271.151ZM284.631 12.0909V11.554C284.631 11.1695 284.711 10.8182 284.87 10.5C285.032 10.1785 285.268 9.92164 285.576 9.7294C285.887 9.53385 286.263 9.43608 286.704 9.43608C287.155 9.43608 287.533 9.5322 287.838 9.72443C288.143 9.91667 288.373 10.1735 288.529 10.495C288.688 10.8165 288.768 11.1695 288.768 11.554V12.0909C288.768 12.4754 288.688 12.8284 288.529 13.1499C288.37 13.468 288.136 13.7249 287.828 13.9205C287.523 14.1127 287.148 14.2088 286.704 14.2088C286.257 14.2088 285.879 14.1127 285.571 13.9205C285.263 13.7249 285.029 13.468 284.87 13.1499C284.711 12.8284 284.631 12.4754 284.631 12.0909ZM285.79 11.554V12.0909C285.79 12.3759 285.857 12.6345 285.993 12.8665C286.129 13.0985 286.366 13.2145 286.704 13.2145C287.039 13.2145 287.273 13.0985 287.405 12.8665C287.538 12.6345 287.604 12.3759 287.604 12.0909V11.554C287.604 11.2689 287.54 11.0104 287.41 10.7784C287.284 10.5464 287.049 10.4304 286.704 10.4304C286.373 10.4304 286.138 10.5464 285.998 10.7784C285.859 11.0104 285.79 11.2689 285.79 11.554ZM279.51 6.2642V5.72727C279.51 5.3428 279.59 4.98982 279.749 4.66832C279.911 4.34683 280.147 4.08996 280.455 3.89773C280.767 3.70549 281.143 3.60938 281.584 3.60938C282.034 3.60938 282.412 3.70549 282.717 3.89773C283.022 4.08996 283.252 4.34683 283.408 4.66832C283.564 4.98982 283.642 5.3428 283.642 5.72727V6.2642C283.642 6.64867 283.562 7.00166 283.403 7.32315C283.247 7.64134 283.015 7.8982 282.707 8.09375C282.402 8.28598 282.028 8.3821 281.584 8.3821C281.133 8.3821 280.753 8.28598 280.445 8.09375C280.14 7.8982 279.908 7.64134 279.749 7.32315C279.59 7.00166 279.51 6.64867 279.51 6.2642ZM280.674 5.72727V6.2642C280.674 6.54924 280.74 6.80776 280.873 7.03977C281.009 7.27178 281.245 7.38778 281.584 7.38778C281.915 7.38778 282.147 7.27178 282.28 7.03977C282.415 6.80776 282.483 6.54924 282.483 6.2642V5.72727C282.483 5.44223 282.419 5.18371 282.29 4.9517C282.16 4.7197 281.925 4.60369 281.584 4.60369C281.252 4.60369 281.017 4.7197 280.878 4.9517C280.742 5.18371 280.674 5.44223 280.674 5.72727ZM279.983 14L286.983 3.81818H288.171L281.171 14H279.983Z" fill="#B8B8D2"/>
<g filter="url(#filter0_d_1919_17536)">
<path d="M19 317L24.9667 315.449C30.9333 313.898 42.8667 310.795 54.8 312.941C66.7333 315.088 78.6667 322.483 90.6 304.78C102.533 287.078 114.467 244.278 126.4 224.019C138.333 203.759 150.267 206.041 162.2 222.262C174.133 238.483 186.067 268.644 198 271.893C209.933 275.143 221.867 251.482 233.8 243.07C245.733 234.657 257.667 241.495 269.6 247.708C281.533 253.921 293.467 259.51 305.4 250.256C317.333 241.002 329.267 216.905 341.2 203.572C353.133 190.238 365.067 187.667 377 183.314C388.933 178.96 400.867 172.824 412.8 158.874C424.733 144.924 436.667 123.161 448.6 107.612C460.533 92.0637 472.467 82.7299 484.4 100.419C496.333 118.107 508.267 162.818 520.2 173.26C532.133 183.702 544.067 159.875 556 155.012C567.933 150.149 579.867 164.251 591.8 174.02C603.733 183.789 615.667 189.225 627.6 168.707C639.533 148.19 651.467 101.718 663.4 73.6336C675.333 45.5495 687.267 35.8533 699.2 37.1062C711.133 38.3591 723.067 50.5611 729.033 56.6621L735 62.7631" stroke="#6666FF" stroke-width="2"/>
</g>
<rect x="19" y="337" width="716" height="1" fill="#E6E6FF" fill-opacity="0.6"/>
<path d="M23.5845 361.818H25.4489L28.6903 369.733H28.8096L32.0511 361.818H33.9155V372H32.4538V364.632H32.3594L29.3565 371.985H28.1435L25.1406 364.627H25.0462V372H23.5845V361.818ZM37.8319 372.169C37.348 372.169 36.9105 372.08 36.5194 371.901C36.1283 371.718 35.8184 371.455 35.5898 371.11C35.3644 370.765 35.2517 370.343 35.2517 369.842C35.2517 369.411 35.3345 369.057 35.5003 368.778C35.666 368.5 35.8897 368.28 36.1714 368.117C36.4532 367.955 36.768 367.832 37.116 367.749C37.464 367.666 37.8187 367.603 38.18 367.56C38.6373 367.507 39.0086 367.464 39.2936 367.431C39.5786 367.395 39.7858 367.337 39.915 367.257C40.0443 367.178 40.1089 367.048 40.1089 366.869V366.835C40.1089 366.4 39.9863 366.064 39.741 365.825C39.4991 365.587 39.1378 365.467 38.6572 365.467C38.1568 365.467 37.7623 365.578 37.474 365.8C37.189 366.019 36.9917 366.263 36.8824 366.531L35.4854 366.213C35.6511 365.749 35.893 365.375 36.2112 365.089C36.5327 364.801 36.9023 364.592 37.3199 364.463C37.7375 364.33 38.1766 364.264 38.6373 364.264C38.9423 364.264 39.2654 364.301 39.6068 364.374C39.9515 364.443 40.273 364.572 40.5713 364.761C40.8729 364.95 41.1198 365.22 41.3121 365.572C41.5043 365.92 41.6004 366.372 41.6004 366.929V372H40.1487V370.956H40.089C39.9929 371.148 39.8488 371.337 39.6565 371.523C39.4643 371.708 39.2174 371.862 38.9157 371.985C38.6141 372.108 38.2529 372.169 37.8319 372.169ZM38.1551 370.976C38.5661 370.976 38.9174 370.895 39.2091 370.732C39.5041 370.57 39.7278 370.358 39.8802 370.096C40.036 369.831 40.1139 369.547 40.1139 369.246V368.261C40.0609 368.314 39.9581 368.364 39.8057 368.411C39.6565 368.454 39.4858 368.492 39.2936 368.525C39.1014 368.555 38.9141 368.583 38.7318 368.609C38.5495 368.633 38.397 368.652 38.2744 368.669C37.9861 368.705 37.7226 368.767 37.4839 368.853C37.2486 368.939 37.0597 369.063 36.9172 369.226C36.778 369.385 36.7084 369.597 36.7084 369.862C36.7084 370.23 36.8443 370.509 37.116 370.697C37.3878 370.883 37.7342 370.976 38.1551 370.976ZM43.1603 372V364.364H44.5971V365.577H44.6767C44.8159 365.166 45.0611 364.843 45.4125 364.607C45.7671 364.369 46.1682 364.249 46.6156 364.249C46.7084 364.249 46.8178 364.253 46.9437 364.259C47.073 364.266 47.1741 364.274 47.247 364.284V365.706C47.1873 365.689 47.0813 365.671 46.9288 365.651C46.7763 365.628 46.6239 365.616 46.4714 365.616C46.1201 365.616 45.8069 365.691 45.5318 365.84C45.26 365.986 45.0446 366.19 44.8855 366.452C44.7264 366.71 44.6469 367.005 44.6469 367.337V372H43.1603Z" fill="#292933" fill-opacity="0.9"/>
<path d="M148.999 372.139C148.376 372.139 147.816 372.02 147.319 371.781C146.825 371.539 146.431 371.208 146.136 370.787C145.841 370.366 145.683 369.885 145.663 369.345H147.155C147.191 369.783 147.385 370.142 147.737 370.424C148.088 370.706 148.509 370.847 148.999 370.847C149.39 370.847 149.737 370.757 150.038 370.578C150.343 370.396 150.582 370.146 150.754 369.827C150.93 369.509 151.018 369.146 151.018 368.739C151.018 368.324 150.928 367.955 150.749 367.63C150.57 367.305 150.323 367.05 150.009 366.864C149.697 366.679 149.339 366.584 148.935 366.581C148.627 366.581 148.317 366.634 148.005 366.74C147.694 366.846 147.442 366.985 147.249 367.158L145.842 366.949L146.414 361.818H152.012V363.136H147.692L147.369 365.984H147.428C147.627 365.792 147.891 365.631 148.219 365.502C148.55 365.373 148.905 365.308 149.283 365.308C149.903 365.308 150.454 365.456 150.938 365.751C151.426 366.046 151.808 366.448 152.087 366.959C152.368 367.466 152.508 368.049 152.504 368.709C152.508 369.368 152.359 369.957 152.057 370.474C151.759 370.991 151.344 371.398 150.814 371.697C150.287 371.992 149.682 372.139 148.999 372.139Z" fill="#B8B8D2"/>
<path d="M262.915 361.679C263.369 361.682 263.816 361.765 264.257 361.928C264.698 362.09 265.096 362.355 265.45 362.723C265.808 363.091 266.093 363.588 266.305 364.214C266.521 364.838 266.63 365.613 266.634 366.541C266.634 367.433 266.544 368.227 266.365 368.923C266.186 369.615 265.929 370.2 265.595 370.678C265.263 371.155 264.86 371.518 264.386 371.766C263.912 372.015 263.379 372.139 262.786 372.139C262.179 372.139 261.64 372.02 261.17 371.781C260.699 371.543 260.316 371.213 260.021 370.792C259.726 370.368 259.542 369.88 259.47 369.33H260.986C261.085 369.768 261.287 370.122 261.592 370.394C261.901 370.663 262.298 370.797 262.786 370.797C263.531 370.797 264.113 370.472 264.531 369.822C264.948 369.17 265.159 368.258 265.162 367.088H265.082C264.91 367.373 264.695 367.618 264.436 367.824C264.181 368.029 263.894 368.188 263.576 368.301C263.258 368.414 262.918 368.47 262.557 368.47C261.97 368.47 261.437 368.326 260.956 368.038C260.475 367.749 260.093 367.353 259.808 366.849C259.523 366.346 259.38 365.771 259.38 365.124C259.38 364.481 259.526 363.898 259.818 363.374C260.113 362.851 260.524 362.436 261.051 362.131C261.581 361.823 262.202 361.672 262.915 361.679ZM262.92 362.972C262.532 362.972 262.182 363.068 261.871 363.26C261.563 363.449 261.319 363.706 261.14 364.031C260.961 364.352 260.872 364.71 260.872 365.104C260.872 365.499 260.958 365.857 261.13 366.178C261.306 366.496 261.544 366.75 261.846 366.939C262.151 367.125 262.499 367.217 262.89 367.217C263.182 367.217 263.453 367.161 263.705 367.048C263.957 366.936 264.178 366.78 264.367 366.581C264.555 366.379 264.703 366.15 264.809 365.895C264.915 365.64 264.968 365.371 264.968 365.089C264.968 364.715 264.879 364.367 264.7 364.045C264.524 363.724 264.282 363.465 263.974 363.27C263.666 363.071 263.314 362.972 262.92 362.972Z" fill="#B8B8D2"/>
<path d="M374.232 361.818V372H372.691V363.359H372.631L370.195 364.95V363.479L372.736 361.818H374.232ZM380.111 372.139C379.428 372.139 378.818 372.022 378.281 371.786C377.748 371.551 377.325 371.224 377.014 370.807C376.705 370.386 376.54 369.899 376.517 369.345H378.078C378.098 369.647 378.199 369.909 378.381 370.131C378.567 370.349 378.808 370.518 379.107 370.638C379.405 370.757 379.736 370.817 380.101 370.817C380.502 370.817 380.857 370.747 381.165 370.608C381.477 370.469 381.72 370.275 381.896 370.026C382.071 369.774 382.159 369.484 382.159 369.156C382.159 368.815 382.071 368.515 381.896 368.256C381.723 367.995 381.47 367.789 381.135 367.64C380.804 367.491 380.403 367.416 379.932 367.416H379.072V366.163H379.932C380.31 366.163 380.641 366.095 380.926 365.96C381.215 365.824 381.44 365.635 381.602 365.393C381.765 365.147 381.846 364.861 381.846 364.533C381.846 364.218 381.775 363.944 381.632 363.712C381.493 363.477 381.294 363.293 381.036 363.161C380.781 363.028 380.479 362.962 380.131 362.962C379.799 362.962 379.49 363.023 379.201 363.146C378.916 363.265 378.684 363.437 378.505 363.663C378.326 363.885 378.23 364.152 378.217 364.463H376.73C376.747 363.913 376.909 363.429 377.218 363.011C377.529 362.594 377.94 362.267 378.451 362.032C378.961 361.797 379.528 361.679 380.151 361.679C380.804 361.679 381.367 361.807 381.841 362.062C382.318 362.314 382.686 362.65 382.945 363.071C383.207 363.492 383.336 363.953 383.333 364.453C383.336 365.023 383.177 365.507 382.855 365.905C382.537 366.303 382.113 366.569 381.583 366.705V366.785C382.259 366.888 382.782 367.156 383.154 367.59C383.528 368.024 383.714 368.563 383.71 369.206C383.714 369.766 383.558 370.268 383.243 370.712C382.932 371.156 382.506 371.506 381.965 371.761C381.425 372.013 380.807 372.139 380.111 372.139Z" fill="#B8B8D2"/>
<path d="M488.69 361.818V372H487.149V363.359H487.089L484.653 364.95V363.479L487.194 361.818H488.69ZM491.367 372L495.812 363.21V363.136H490.671V361.818H497.403V363.18L492.973 372H491.367Z" fill="#B8B8D2"/>
<path d="M598.588 372V370.886L602.033 367.317C602.401 366.929 602.704 366.589 602.943 366.298C603.185 366.003 603.366 365.723 603.485 365.457C603.604 365.192 603.664 364.911 603.664 364.612C603.664 364.274 603.584 363.982 603.425 363.737C603.266 363.489 603.049 363.298 602.774 363.165C602.499 363.03 602.189 362.962 601.844 362.962C601.48 362.962 601.161 363.036 600.89 363.185C600.618 363.335 600.409 363.545 600.263 363.817C600.117 364.089 600.045 364.407 600.045 364.771H598.578C598.578 364.152 598.72 363.61 599.005 363.146C599.29 362.682 599.682 362.322 600.179 362.067C600.676 361.808 601.241 361.679 601.874 361.679C602.514 361.679 603.077 361.807 603.564 362.062C604.055 362.314 604.438 362.658 604.713 363.096C604.988 363.53 605.125 364.021 605.125 364.567C605.125 364.945 605.054 365.315 604.912 365.676C604.773 366.037 604.529 366.44 604.181 366.884C603.833 367.325 603.349 367.86 602.729 368.49L600.706 370.608V370.683H605.29V372H598.588ZM610.617 361.818V372H609.076V363.359H609.016L606.58 364.95V363.479L609.12 361.818H610.617Z" fill="#B8B8D2"/>
<path d="M711.556 372V370.886L715.001 367.317C715.369 366.929 715.672 366.589 715.911 366.298C716.153 366.003 716.333 365.723 716.453 365.457C716.572 365.192 716.632 364.911 716.632 364.612C716.632 364.274 716.552 363.982 716.393 363.737C716.234 363.489 716.017 363.298 715.742 363.165C715.467 363.03 715.157 362.962 714.812 362.962C714.447 362.962 714.129 363.036 713.857 363.185C713.586 363.335 713.377 363.545 713.231 363.817C713.085 364.089 713.012 364.407 713.012 364.771H711.546C711.546 364.152 711.688 363.61 711.973 363.146C712.258 362.682 712.649 362.322 713.147 362.067C713.644 361.808 714.209 361.679 714.842 361.679C715.482 361.679 716.045 361.807 716.532 362.062C717.023 362.314 717.406 362.658 717.681 363.096C717.956 363.53 718.093 364.021 718.093 364.567C718.093 364.945 718.022 365.315 717.879 365.676C717.74 366.037 717.497 366.44 717.149 366.884C716.801 367.325 716.317 367.86 715.697 368.49L713.674 370.608V370.683H718.257V372H711.556ZM723.082 372.139C722.459 372.139 721.899 372.02 721.402 371.781C720.908 371.539 720.514 371.208 720.219 370.787C719.924 370.366 719.766 369.885 719.746 369.345H721.238C721.274 369.783 721.468 370.142 721.82 370.424C722.171 370.706 722.592 370.847 723.082 370.847C723.473 370.847 723.82 370.757 724.121 370.578C724.426 370.396 724.665 370.146 724.837 369.827C725.013 369.509 725.101 369.146 725.101 368.739C725.101 368.324 725.011 367.955 724.832 367.63C724.653 367.305 724.406 367.05 724.092 366.864C723.78 366.679 723.422 366.584 723.018 366.581C722.709 366.581 722.4 366.634 722.088 366.74C721.776 366.846 721.525 366.985 721.332 367.158L719.925 366.949L720.497 361.818H726.095V363.136H721.775L721.452 365.984H721.511C721.71 365.792 721.974 365.631 722.302 365.502C722.633 365.373 722.988 365.308 723.366 365.308C723.986 365.308 724.537 365.456 725.021 365.751C725.508 366.046 725.891 366.448 726.17 366.959C726.451 367.466 726.591 368.049 726.587 368.709C726.591 369.368 726.441 369.957 726.14 370.474C725.842 370.991 725.427 371.398 724.897 371.697C724.37 371.992 723.765 372.139 723.082 372.139Z" fill="#B8B8D2"/>
<defs>
<filter id="filter0_d_1919_17536" x="0.748047" y="35.9999" width="752.967" height="319.968" filterUnits="userSpaceOnUse" color-interpolation-filters="sRGB">
<feFlood flood-opacity="0" result="BackgroundImageFix"/>
<feColorMatrix in="SourceAlpha" type="matrix" values="0 0 0 0 0 0 0 0 0 0 0 0 0 0 0 0 0 0 127 0" result="hardAlpha"/>
<feOffset dy="20"/>
<feGaussianBlur stdDeviation="9"/>
<feComposite in2="hardAlpha" operator="out"/>
<feColorMatrix type="matrix" values="0 0 0 0 0.4 0 0 0 0 0.4 0 0 0 0 1 0 0 0 0.4 0"/>
<feBlend mode="normal" in2="BackgroundImageFix" result="effect1_dropShadow_1919_17536"/>
<feBlend mode="normal" in="SourceGraphic" in2="effect1_dropShadow_1919_17536" result="shape"/>
</filter>
</defs>
</svg>
