<svg width="18" height="18" viewBox="0 0 18 18" fill="none" xmlns="http://www.w3.org/2000/svg">
<path d="M5.25 13.5H7.875H10.5" stroke="#B8B8D2" stroke-width="1.5" stroke-linecap="round" stroke-linejoin="round"/>
<path d="M5.25 10.5H5.625H6" stroke="#B8B8D2" stroke-width="1.5" stroke-linecap="round" stroke-linejoin="round"/>
<path d="M5.25 7.5H6.375H7.5" stroke="#B8B8D2" stroke-width="1.5" stroke-linecap="round" stroke-linejoin="round"/>
<path d="M5.25 1.5H12.375L15.75 4.875V14.25" stroke="#B8B8D2" stroke-width="1.5" stroke-linecap="round" stroke-linejoin="round"/>
<path d="M2.25 15.375V4.875C2.25 4.25368 2.75368 3.75 3.375 3.75H10.6886C10.808 3.75 10.9224 3.79741 11.0068 3.8818L13.3682 6.24319C13.4526 6.32759 13.5 6.44205 13.5 6.5614V15.375C13.5 15.9963 12.9963 16.5 12.375 16.5H3.375C2.75368 16.5 2.25 15.9963 2.25 15.375Z" stroke="#B8B8D2" stroke-width="1.5" stroke-linecap="round" stroke-linejoin="round"/>
<path d="M10.5 3.75V6.3C10.5 6.54853 10.7015 6.75 10.95 6.75H13.5" stroke="#B8B8D2" stroke-width="1.5" stroke-linecap="round" stroke-linejoin="round"/>
</svg>
