<svg width="16" height="16" viewBox="0 0 16 16" fill="none" xmlns="http://www.w3.org/2000/svg">
<g clip-path="url(#clip0_1214_6632)">
<path d="M8 10C9.1046 10 10 9.1046 10 8C10 6.8954 9.1046 6 8 6C6.8954 6 6 6.8954 6 8C6 9.1046 6.8954 10 8 10Z" stroke="#B8B8CC" stroke-width="1.5" stroke-linecap="round" stroke-linejoin="round"/>
<path d="M13.0813 6.93043L12.3495 5.16336L13.333 4.00016L11.9997 2.66683L10.8428 3.65546L9.03821 2.91332L8.62321 1.3335H7.32034L6.89907 2.93425L5.13595 3.67747L3.99967 2.66683L2.66634 4.00016L3.63525 5.19273L2.91467 6.96436L1.33301 7.3335V8.66683L2.93375 9.10383L3.67684 10.8666L2.66634 12.0002L3.99967 13.3335L5.19378 12.3604L6.93101 13.075L7.33301 14.6668H8.66634L9.06934 13.0756L10.8364 12.3438C11.1309 12.5544 11.9997 13.3335 11.9997 13.3335L13.333 12.0002L12.3436 10.8331L13.0756 9.0655L14.6663 8.65163L14.6663 7.3335L13.0813 6.93043Z" stroke="#B8B8CC" stroke-width="1.5" stroke-linecap="round" stroke-linejoin="round"/>
</g>
<defs>
<clipPath id="clip0_1214_6632">
<rect width="16" height="16" fill="white"/>
</clipPath>
</defs>
</svg>
