<svg width="16" height="17" viewBox="0 0 16 17" fill="none" xmlns="http://www.w3.org/2000/svg">
<g id="Frame">
<path id="Vector" d="M12.6667 13.8307H3.33333C2.59695 13.8307 2 13.2338 2 12.4974V6.4974C2 5.76102 2.59695 5.16406 3.33333 5.16406H12.6667C13.4031 5.16406 14 5.76102 14 6.4974V12.4974C14 13.2338 13.4031 13.8307 12.6667 13.8307Z" stroke="#B8B8CC" stroke-width="1.5"/>
<path id="Vector_2" d="M10.9993 9.83073C10.8153 9.83073 10.666 9.68146 10.666 9.4974C10.666 9.31333 10.8153 9.16406 10.9993 9.16406C11.1834 9.16406 11.3327 9.31333 11.3327 9.4974C11.3327 9.68146 11.1834 9.83073 10.9993 9.83073Z" fill="#B8B8CC" stroke="#B8B8CC" stroke-width="1.5" stroke-linecap="round" stroke-linejoin="round"/>
<path id="Vector_3" d="M12 5.16368V4.2325C12 3.35646 11.1696 2.71846 10.3231 2.94418L2.98978 4.89974C2.40611 5.05539 2 5.58399 2 6.18806V6.49702" stroke="#B8B8CC" stroke-width="1.5"/>
</g>
</svg>
