<svg xmlns="http://www.w3.org/2000/svg" id="line-finance" viewBox="0 0 2048 2048">
<g>
	<path d="M1497.4,443.3c-11.9-11.9-28.3-19.3-46.4-19.3H781.4l0,0c-18.1,0-34.5,7.4-46.4,19.3s-19.3,28.3-19.3,46.4v641.2   c-34.1,40.6-51.2,90.7-51.2,140.8c0,35.3,8.5,70.6,25.4,102.6l-146.4,146.4c-8.2,8.2-12.2,18.9-12.2,29.6s4.1,21.4,12.2,29.6l32,32   l0,0c8.2,8.2,18.9,12.2,29.6,12.2c10.7,0,21.4-4.1,29.6-12.2l0,0l146.4-146.4c32,16.9,67.3,25.4,102.6,25.4   c47.3,0,94.5-15.2,133.8-45.6H1451c18.1,0,34.5-7.4,46.4-19.3s19.3-28.3,19.3-46.4V489.7C1516.7,471.6,1509.3,455.2,1497.4,443.3z    M608.2,1585.3L608.2,1585.3L608.2,1585.3c-0.8,0.8-2,1.2-3.1,1.2s-2.3-0.4-3.1-1.2l0,0l-32-32c-0.8-0.8-1.2-1.9-1.2-3.1   c0-1.1,0.4-2.3,1.2-3.1l140.7-140.7c4.2,5.3,8.6,10.5,13.3,15.5c0.1,0.1,0.2,0.2,0.3,0.3c1.3,1.4,2.7,2.8,4,4.2   c0.1,0.1,0.2,0.2,0.3,0.3c0.1,0.1,0.2,0.2,0.2,0.2c1.4,1.4,2.8,2.7,4.2,4.1c0.1,0.1,0.2,0.2,0.3,0.3c5,4.7,10.2,9.2,15.5,13.3   L608.2,1585.3z M883.6,1453.3c-45,0-90-16.6-125-49.8c-0.9-0.9-1.9-1.8-2.8-2.7c-0.2-0.2-0.4-0.4-0.6-0.6l0,0   c-0.2-0.2-0.4-0.5-0.7-0.7c-0.9-0.9-1.8-1.8-2.7-2.8c-33.2-35-49.8-80-49.8-125c0-46.5,17.7-92.9,53.1-128.4c0,0,0,0,0.1-0.1   c35.5-35.5,82-53.2,128.4-53.2c46.5,0,93,17.7,128.4,53.2c35.5,35.5,53.2,82,53.2,128.4c0,34.9-10,69.7-29.9,99.9   c-6.7,10.1-14.4,19.6-23.3,28.5l0,0C976.6,1435.6,930.1,1453.3,883.6,1453.3z M1479.2,1379.5c0,7.7-3.2,14.8-8.3,19.9   c-5.1,5.1-12.2,8.3-19.9,8.3h-395.5c0.3-0.4,0.7-0.9,1-1.3c0.4-0.5,0.7-0.9,1.1-1.4c0.7-0.9,1.4-1.9,2.2-2.9c0.3-0.4,0.7-0.9,1-1.3   c0.8-1.1,1.6-2.2,2.4-3.3c0.2-0.3,0.4-0.6,0.6-0.9c1-1.4,2-2.9,2.9-4.3c0.1-0.2,0.2-0.3,0.3-0.5c0.8-1.3,1.6-2.5,2.4-3.8   c0.3-0.5,0.6-0.9,0.8-1.4c0.6-1,1.2-2,1.8-3c0.3-0.5,0.6-1.1,0.9-1.6c0.6-0.9,1.1-1.9,1.6-2.9c0.3-0.5,0.6-1.1,0.9-1.6   c0.5-1,1.1-1.9,1.6-2.9c0.3-0.5,0.6-1,0.8-1.6c0.6-1.1,1.1-2.2,1.7-3.3c0.2-0.4,0.4-0.8,0.6-1.2c0.7-1.5,1.5-3,2.2-4.6   c0.1-0.2,0.2-0.4,0.3-0.6c0.6-1.3,1.2-2.6,1.8-4c0.2-0.5,0.4-1,0.7-1.5c0.4-1,0.9-2.1,1.3-3.1c0.2-0.6,0.5-1.2,0.7-1.7   c0.4-1,0.8-2,1.2-2.9c0.2-0.6,0.5-1.2,0.7-1.8c0.4-1,0.7-2,1.1-3c0.2-0.6,0.4-1.2,0.6-1.7c0.4-1.1,0.8-2.2,1.1-3.3   c0.2-0.5,0.3-0.9,0.5-1.4c0.5-1.6,1-3.2,1.5-4.7c0.1-0.2,0.1-0.4,0.2-0.6c0.4-1.4,0.8-2.8,1.2-4.2c0.1-0.5,0.3-1.1,0.4-1.6   c0.3-1.1,0.6-2.1,0.8-3.2c0.2-0.6,0.3-1.2,0.4-1.9c0.2-0.7,0.4-1.5,0.5-2.2H1337c10.4,0,18.8-8.4,18.8-18.8s-8.4-18.8-18.8-18.8   h-234.6c0-0.5,0.1-1,0.1-1.5c0-1.1,0.1-2.1,0.1-3.2c0-0.6,0-1.2,0.1-1.7c0-1.5,0.1-3,0.1-4.5c0-0.1,0-0.2,0-0.4   c0-15.6-1.7-31.3-5-46.6H1337c10.4,0,18.8-8.4,18.8-18.8s-8.4-18.8-18.8-18.8h-251c-8.6-20.6-20.4-40.2-35.5-57.9H1337   c10.4,0,18.8-8.4,18.8-18.8s-8.4-18.8-18.8-18.8h-327.7c-37.6-26.4-81.6-39.6-125.7-39.6c-0.3,0-0.6,0-1,0c-1.3,0-2.5,0-3.8,0   c-0.7,0-1.3,0-2,0.1c-1,0-1.9,0.1-2.9,0.1c-0.7,0-1.4,0.1-2.1,0.1c-0.9,0-1.8,0.1-2.8,0.2c-0.7,0-1.4,0.1-2.1,0.1   c-1,0.1-2,0.2-3,0.3c-0.6,0.1-1.2,0.1-1.8,0.2c-1.5,0.1-3.1,0.3-4.6,0.5c-0.6,0.1-1.2,0.2-1.8,0.2c-1,0.1-2,0.3-3,0.4   c-0.7,0.1-1.4,0.2-2.1,0.3c-0.9,0.1-1.8,0.3-2.7,0.4c-0.7,0.1-1.5,0.2-2.2,0.4c-0.9,0.2-1.8,0.3-2.7,0.5c-0.7,0.1-1.4,0.3-2.1,0.4   c-1.1,0.2-2.1,0.4-3.1,0.6c-0.9,0.2-1.9,0.4-2.8,0.6c-1.1,0.2-2.1,0.5-3.2,0.7c-0.7,0.2-1.5,0.4-2.2,0.5c-0.8,0.2-1.7,0.4-2.5,0.6   s-1.5,0.4-2.3,0.6s-1.6,0.4-2.4,0.7c-0.8,0.2-1.5,0.4-2.3,0.7c-0.8,0.2-1.6,0.5-2.4,0.8c-0.7,0.2-1.5,0.5-2.2,0.7   c-1.4,0.5-2.8,0.9-4.2,1.4c-0.8,0.3-1.5,0.5-2.3,0.8s-1.5,0.6-2.3,0.8c-0.8,0.3-1.6,0.6-2.4,0.9c-0.7,0.3-1.4,0.6-2.2,0.8   c-0.8,0.3-1.6,0.6-2.4,1c-0.7,0.3-1.4,0.6-2.1,0.9c-0.8,0.3-1.6,0.7-2.4,1c-0.7,0.3-1.4,0.6-2.1,1c-1.4,0.6-2.8,1.3-4.2,2   c-0.7,0.3-1.4,0.7-2.1,1c-0.8,0.4-1.6,0.8-2.4,1.2c-0.7,0.3-1.3,0.7-2,1c-0.8,0.4-1.6,0.8-2.4,1.3c-0.6,0.3-1.3,0.7-1.9,1   c-0.8,0.4-1.6,0.9-2.4,1.3c-0.6,0.4-1.3,0.7-1.9,1.1c-0.8,0.5-1.6,0.9-2.4,1.4c-0.5,0.3-1.1,0.6-1.6,1c-1.5,0.9-3,1.9-4.5,2.8   c-0.6,0.4-1.2,0.8-1.9,1.2c-0.8,0.5-1.5,1-2.3,1.5c-0.6,0.4-1.2,0.8-1.8,1.2c-0.8,0.5-1.5,1-2.3,1.6c-0.6,0.4-1.2,0.9-1.8,1.3   c-0.7,0.5-1.5,1.1-2.2,1.6c-0.1,0.1-0.2,0.1-0.2,0.2V489.7c0-7.7,3.2-14.8,8.3-19.9s12.2-8.3,19.9-8.3h670l0,0   c7.7,0,14.8,3.2,19.9,8.3c5.1,5.1,8.3,12.2,8.3,19.9L1479.2,1379.5L1479.2,1379.5z"/>
	<path d="M1299.2,753.9l-4.5-4l-0.1-0.1L1143,602.6l-0.1-0.1l0,0c-7.2-7-18.7-7.1-26-0.1L963.5,749.6l0,0l-2.6,2.5   c-4.1,3.4-6.8,8.6-6.8,14.4V986c0,10.4,8.4,18.8,18.8,18.8h113c0.9,0.1,1.8,0.2,2.7,0.2h82.5c0.9,0,1.8-0.1,2.7-0.2h113   c10.4,0,18.8-8.4,18.8-18.8V767.8h-0.1C1305.4,762.7,1303.3,757.6,1299.2,753.9z M1152.3,967.2h-45V872h45V967.2z M1268,967.2   h-78.2V853.3c0-10.4-8.4-18.8-18.8-18.8h-82.5c-10.4,0-18.8,8.4-18.8,18.8v113.9h-78.2V774.5l138.1-132.8l0,0L1268,776V967.2z"/>
	<path d="M1142.7,524.2c-7.2-6.8-18.5-6.9-25.8,0L897.6,732.4c-7.5,7.1-7.8,19-0.7,26.4c7.1,7.5,19,7.8,26.4,0.7l0,0l206.4-196   l206.4,196c7.5,7.1,19.3,6.8,26.4-0.7s6.8-19.3-0.7-26.4L1142.7,524.2z"/>
</g>
</svg>
