<svg width="20" height="20" viewBox="0 0 20 20" fill="none" xmlns="http://www.w3.org/2000/svg">
<path fill-rule="evenodd" clip-rule="evenodd" d="M18.3391 15.519C19.4306 13.8696 20.0086 11.9337 19.9999 9.95586C19.9941 8.64267 19.7297 7.34347 19.2218 6.1324C18.7139 4.92136 17.9724 3.82223 17.0398 2.89774C16.107 1.97326 15.0014 1.24154 13.7859 0.744361C12.5704 0.247181 11.2689 -0.00571951 9.95571 9.81342e-05C7.97789 0.00885984 6.04714 0.603903 4.40754 1.70998C2.76794 2.81606 1.49314 4.38349 0.744362 6.21408C-0.00441454 8.04463 -0.19355 10.0561 0.200875 11.9943C0.595301 13.9323 1.55557 15.7099 2.96026 17.1022C4.36494 18.4945 6.15096 19.4391 8.09245 19.8164C10.0339 20.1936 12.0437 19.9867 13.8676 19.2218C15.6915 18.4569 17.2476 17.1682 18.3391 15.519ZM17.7163 15.1057C18.7252 13.5797 19.2589 11.7888 19.2499 9.95948C19.2374 7.50738 18.2518 5.16054 16.5097 3.43485C14.7675 1.70915 12.4114 0.745825 9.95934 0.756615C8.12999 0.764948 6.34424 1.3156 4.8279 2.33891C3.31155 3.36222 2.13274 4.81223 1.44056 6.50556C0.748362 8.1989 0.573886 10.0594 0.939188 11.8519C1.3045 13.6444 2.19317 15.2883 3.49282 16.5757C4.79248 17.8631 6.44472 18.7361 8.24057 19.0844C10.0364 19.4327 11.8953 19.2406 13.5819 18.5324C15.2687 17.8242 16.7074 16.6316 17.7163 15.1057Z" fill="#B8B8CC" fill-opacity="0.8"/>
<path d="M15.4815 9.50734C15.4819 9.584 15.4596 9.65915 15.4173 9.72313C15.3751 9.78712 15.3148 9.83712 15.2441 9.8669C15.1734 9.89661 15.0955 9.90473 15.0202 9.89016C14.9449 9.87567 14.8757 9.83907 14.8212 9.78516C14.7667 9.73125 14.7294 9.66241 14.7139 9.58726C14.6986 9.51219 14.7058 9.43422 14.7348 9.36321C14.7637 9.29219 14.813 9.23139 14.8765 9.18842C14.9401 9.14545 15.0149 9.12226 15.0916 9.12183C15.1944 9.12147 15.293 9.16183 15.3662 9.23408C15.4392 9.30632 15.4807 9.40458 15.4815 9.50734Z" fill="#B8B8CC" fill-opacity="0.8"/>
<path fill-rule="evenodd" clip-rule="evenodd" d="M12.6363 5.95333C13.3353 6.22946 14.0256 6.50217 14.6916 6.69492C18.2436 7.66229 17.8853 9.60461 16.1406 11.2279C15.891 11.4853 15.6317 11.7338 15.3994 11.9563L15.3993 11.9563C15.2316 12.117 15.0781 12.2641 14.9525 12.3913C13.6235 13.7456 11.2547 16.3963 11.6394 19.1029C11.6413 19.1076 11.6423 19.1101 11.6423 19.1101C11.5498 19.1298 11.4577 19.1479 11.3662 19.1643C7.83342 19.8858 4.01629 17.8639 2.3916 15.2623C3.18481 13.485 3.31419 11.9221 3.48361 9.87562C3.49172 9.77772 3.49991 9.67874 3.50827 9.57859C3.64685 7.58613 4.21438 5.93287 7.61407 4.99637C8.39596 4.80579 9.21045 4.87463 10.0351 5.06884C10.7822 4.89202 11.6467 4.88188 12.1068 5.28115C12.4235 5.54999 12.58 5.77028 12.6206 5.9471L12.6363 5.95333ZM10.4786 7.72316C10.4787 8.07693 10.3739 8.42272 10.1775 8.71693C9.98117 9.01106 9.70197 9.2404 9.37523 9.37591C9.04849 9.51142 8.68893 9.54692 8.34197 9.47808C7.99502 9.40924 7.67625 9.23903 7.42603 8.98903C7.17585 8.73903 7.00539 8.4204 6.93625 8.07352C6.8671 7.72664 6.90237 7.367 7.0376 7.04019C7.17283 6.71334 7.4019 6.43394 7.69596 6.23731C7.99002 6.04068 8.33574 5.93565 8.68944 5.93551C9.16349 5.93551 9.61813 6.12373 9.95349 6.4588C10.2889 6.79388 10.4774 7.24838 10.4778 7.72243L10.4786 7.72316ZM15.3431 11.3442C15.888 11.0761 16.4235 10.7724 16.8735 10.3623L16.8539 10.3398C16.3829 10.7166 15.8358 10.9811 15.2829 11.2094C14.7303 11.4386 14.1575 11.6157 13.572 11.7384C12.9924 11.8529 12.4017 11.9015 11.8112 11.8833C11.2286 11.8666 10.6431 11.7507 10.1358 11.4217L10.1162 11.4442C10.53 11.9123 11.1684 12.1246 11.7931 12.1811C12.4177 12.2376 13.0344 12.1224 13.6257 11.9695C14.2164 11.8152 14.7913 11.6058 15.3431 11.3442Z" fill="#B8B8CC" fill-opacity="0.8"/>
<path d="M10.0352 5.06617C10.5011 5.09951 12.1859 5.64587 12.6207 5.94443C12.2583 4.8937 11.0388 4.75385 10.0352 5.06617Z" fill="#D2BFDE"/>
<path d="M9.94763 7.73914C9.94763 7.98798 9.87378 8.23117 9.7356 8.43805C9.59734 8.64494 9.40089 8.80617 9.17103 8.90139C8.94118 8.9966 8.68821 9.02153 8.44422 8.97298C8.20016 8.92443 7.97603 8.80465 7.80009 8.62871C7.62415 8.45276 7.50437 8.22863 7.45582 7.98458C7.40727 7.74059 7.43219 7.48762 7.52741 7.25777C7.62263 7.0279 7.78386 6.83143 7.99074 6.69321C8.19763 6.55498 8.44082 6.4812 8.68966 6.4812C9.02328 6.4812 9.34321 6.61374 9.57915 6.84965C9.81509 7.08557 9.94763 7.40552 9.94763 7.73914Z" fill="#B8B8CC" fill-opacity="0.8"/>
</svg>
