<svg width="16" height="13" viewBox="0 0 16 13" fill="none" xmlns="http://www.w3.org/2000/svg">
<path d="M13.5447 1.02024C12.5249 0.548016 11.4313 0.200101 10.2879 0.000835889C10.2671 -0.00300986 10.2463 0.00660089 10.2356 0.0258227C10.0949 0.278268 9.93915 0.607599 9.83006 0.866454C8.60029 0.680648 7.3768 0.680648 6.17223 0.866454C6.06309 0.601845 5.90166 0.278268 5.7604 0.0258227C5.74966 0.00724223 5.72886 -0.00236851 5.70804 0.000835889C4.56528 0.199464 3.47171 0.547379 2.45129 1.02024C2.44246 1.02408 2.43489 1.0305 2.42986 1.03882C0.355595 4.16624 -0.212634 7.21676 0.0661202 10.2295C0.0673813 10.2442 0.0755802 10.2583 0.0869322 10.2673C1.45548 11.2816 2.78114 11.8973 4.08219 12.3054C4.10301 12.3119 4.12507 12.3042 4.13832 12.2868C4.44609 11.8627 4.72043 11.4155 4.95565 10.9452C4.96953 10.9176 4.95628 10.8849 4.92791 10.8741C4.49276 10.7075 4.0784 10.5044 3.67982 10.2737C3.64829 10.2551 3.64577 10.2096 3.67477 10.1878C3.75865 10.1244 3.84255 10.0584 3.92264 9.99179C3.93713 9.97962 3.95732 9.97701 3.97436 9.98474C6.59286 11.1912 9.42772 11.1912 12.0153 9.98474C12.0323 9.97638 12.0525 9.97894 12.0677 9.99111C12.1478 10.0577 12.2317 10.1244 12.3162 10.1878C12.3451 10.2096 12.3433 10.2551 12.3117 10.2737C11.9131 10.5088 11.4988 10.7075 11.063 10.8734C11.0346 10.8843 11.022 10.9176 11.0359 10.9452C11.2762 11.4148 11.5505 11.8621 11.8526 12.2862C11.8652 12.3042 11.8879 12.3119 11.9087 12.3054C13.2161 11.8973 14.5418 11.2816 15.9103 10.2673C15.9223 10.2583 15.9298 10.2449 15.9311 10.2301C16.2648 6.74712 15.3723 3.72158 13.5655 1.03946C13.5611 1.0305 13.5535 1.02408 13.5447 1.02024ZM5.34668 8.39504C4.55833 8.39504 3.90876 7.66467 3.90876 6.76759C3.90876 5.87057 4.54574 5.14016 5.34668 5.14016C6.15395 5.14016 6.7972 5.877 6.78457 6.76759C6.78457 7.66467 6.1476 8.39504 5.34668 8.39504ZM10.6631 8.39504C9.87486 8.39504 9.22526 7.66467 9.22526 6.76759C9.22526 5.87057 9.86223 5.14016 10.6631 5.14016C11.4704 5.14016 12.1137 5.877 12.1011 6.76759C12.1011 7.66467 11.4704 8.39504 10.6631 8.39504Z" fill="#525DE9"/>
</svg>
