<svg width="134" height="134" viewBox="0 0 134 134" fill="none" xmlns="http://www.w3.org/2000/svg" style="width:16px">
<path d="M110.042 31.0217C110.042 26.599 106.458 23.028 102.052 23.028C97.6454 23.028 94.0578 26.599 94.0578 31.0217C94.0578 35.4281 97.6454 38.9991 102.052 38.9991C106.458 38.9991 110.042 35.4281 110.042 31.0217Z" fill="url(#paint0_linear_301_18)"/>
<path d="M120.69 93.42C120.394 99.9079 119.309 103.433 118.408 105.774C117.198 108.878 115.754 111.098 113.413 113.426C111.098 115.754 108.878 117.194 105.774 118.391C103.433 119.305 99.8946 120.394 93.407 120.703C86.3931 121.012 84.3148 121.078 66.5285 121.078C48.7587 121.078 46.6639 121.012 39.65 120.703C33.1624 120.394 29.6406 119.305 27.2992 118.391C24.1787 117.194 21.9757 115.754 19.6476 113.426C17.3029 111.098 15.8595 108.878 14.6658 105.774C13.7647 103.433 12.6632 99.9079 12.3836 93.42C12.0418 86.4061 11.9791 84.2951 11.9791 66.545C11.9791 48.7587 12.0418 46.6639 12.3836 39.65C12.6632 33.1624 13.7647 29.6406 14.6658 27.2795C15.8595 24.1787 17.3029 21.9722 19.6476 19.6441C21.9757 17.3194 24.1787 15.8757 27.2992 14.6658C29.6406 13.7484 33.1624 12.6763 39.65 12.3673C46.6639 12.058 48.7587 11.9791 66.5285 11.9791C84.3148 11.9791 86.3931 12.058 93.407 12.3673C99.8946 12.6763 103.433 13.7484 105.774 14.6658C108.878 15.8757 111.098 17.3194 113.413 19.6441C115.754 21.9722 117.198 24.1787 118.408 27.2795C119.309 29.6406 120.394 33.1624 120.69 39.65C121.015 46.6639 121.094 48.7587 121.094 66.545C121.094 84.2951 121.015 86.4061 120.69 93.42ZM132.669 39.1042C132.343 32.0146 131.225 27.171 129.565 22.9523C127.875 18.5755 125.609 14.8663 121.9 11.1571C118.207 7.46446 114.498 5.19875 110.121 3.48894C105.886 1.84471 101.059 0.713455 93.9658 0.404434C86.873 0.0623779 84.6075 -3.05176e-05 66.5285 -3.05176e-05C48.466 -3.05176e-05 46.184 0.0623779 39.0912 0.404434C32.0146 0.713455 27.1907 1.84471 22.9358 3.48894C18.5755 5.19875 14.8663 7.46446 11.1737 11.1571C7.46448 14.8663 5.19877 18.5755 3.49215 22.9523C1.84793 27.171 0.729998 32.0146 0.387935 39.1042C0.0789187 46.197 0 48.466 0 66.545C0 84.6075 0.0789187 86.873 0.387935 93.9658C0.729998 101.042 1.84793 105.883 3.49215 110.121C5.19877 114.481 7.46448 118.207 11.1737 121.9C14.8663 125.592 18.5755 127.875 22.9358 129.581C27.1907 131.225 32.0146 132.343 39.0912 132.669C46.184 132.995 48.466 133.073 66.5285 133.073C84.6075 133.073 86.873 132.995 93.9658 132.669C101.059 132.343 105.886 131.225 110.121 129.581C114.498 127.875 118.207 125.592 121.9 121.9C125.609 118.207 127.875 114.481 129.565 110.121C131.225 105.883 132.343 101.042 132.669 93.9658C132.995 86.873 133.073 84.6075 133.073 66.545C133.073 48.466 132.995 46.197 132.669 39.1042Z" fill="url(#paint1_linear_301_18)"/>
<path d="M66.5285 88.7046C54.2862 88.7046 44.3523 78.787 44.3523 66.5447C44.3523 54.2827 54.2862 44.3523 66.5285 44.3523C78.7742 44.3523 88.7212 54.2827 88.7212 66.5447C88.7212 78.787 78.7742 88.7046 66.5285 88.7046ZM66.5285 32.3566C47.657 32.3566 32.3732 47.6733 32.3732 66.5447C32.3732 85.3999 47.657 100.7 66.5285 100.7C85.3999 100.7 100.7 85.3999 100.7 66.5447C100.7 47.6733 85.3999 32.3566 66.5285 32.3566Z" fill="url(#paint2_linear_301_18)"/>
<defs>
<linearGradient id="paint0_linear_301_18" x1="1.20024" y1="131.698" x2="121.99" y2="10.9086" gradientUnits="userSpaceOnUse">
<stop stop-color="#FFD521"/>
<stop offset="0.05" stop-color="#FFD521"/>
<stop offset="0.501119" stop-color="#F50000"/>
<stop offset="0.95" stop-color="#B900B4"/>
<stop offset="0.950079" stop-color="#B900B4"/>
<stop offset="1" stop-color="#B900B4"/>
</linearGradient>
<linearGradient id="paint1_linear_301_18" x1="1.2003" y1="131.863" x2="122.089" y2="10.9746" gradientUnits="userSpaceOnUse">
<stop stop-color="#FFD521"/>
<stop offset="0.05" stop-color="#FFD521"/>
<stop offset="0.501119" stop-color="#F50000"/>
<stop offset="0.95" stop-color="#B900B4"/>
<stop offset="0.950079" stop-color="#B900B4"/>
<stop offset="1" stop-color="#B900B4"/>
</linearGradient>
<linearGradient id="paint2_linear_301_18" x1="1.23163" y1="131.867" x2="122.091" y2="11.0069" gradientUnits="userSpaceOnUse">
<stop stop-color="#FFD521"/>
<stop offset="0.05" stop-color="#FFD521"/>
<stop offset="0.501119" stop-color="#F50000"/>
<stop offset="0.95" stop-color="#B900B4"/>
<stop offset="0.950079" stop-color="#B900B4"/>
<stop offset="1" stop-color="#B900B4"/>
</linearGradient>
</defs>
</svg>
