<svg width="16" height="16" viewBox="0 0 16 16" fill="none" xmlns="http://www.w3.org/2000/svg">
<path d="M12.6667 0H3.33333C1.49267 0 0 1.49267 0 3.33333V12.6667C0 14.5073 1.49267 16 3.33333 16H12.6667C14.508 16 16 14.5073 16 12.6667V3.33333C16 1.49267 14.508 0 12.6667 0ZM5.33333 12.6667H3.33333V5.33333H5.33333V12.6667ZM4.33333 4.488C3.68933 4.488 3.16667 3.96133 3.16667 3.312C3.16667 2.66267 3.68933 2.136 4.33333 2.136C4.97733 2.136 5.5 2.66267 5.5 3.312C5.5 3.96133 4.978 4.488 4.33333 4.488ZM13.3333 12.6667H11.3333V8.93067C11.3333 6.68533 8.66667 6.85533 8.66667 8.93067V12.6667H6.66667V5.33333H8.66667V6.51C9.59733 4.786 13.3333 4.65867 13.3333 8.16067V12.6667Z" fill="#0072B1"/>
</svg>
