<svg width="16" height="17" viewBox="0 0 16 17" fill="none" xmlns="http://www.w3.org/2000/svg">
<path d="M13.9165 9.71324C13.6332 9.88641 13.3026 9.9179 13.0507 9.77621C12.7358 9.5873 12.5469 9.16225 12.5469 8.57977V6.80085C12.5469 5.95074 12.2163 5.33677 11.6496 5.17935C10.6893 4.89598 9.96513 6.07668 9.6975 6.51747L7.99729 9.24096V5.88777C7.98155 5.11637 7.72966 4.65984 7.25738 4.51816C6.94253 4.4237 6.47025 4.47093 6.01371 5.16361L2.21972 11.2403C1.71595 10.28 1.44833 9.20948 1.44833 8.12323C1.44833 4.45518 4.39221 1.47981 7.99729 1.47981C11.6024 1.47981 14.5462 4.45518 14.5462 8.12323V8.13897V8.15472C14.5777 8.86314 14.3573 9.42988 13.9165 9.71324ZM15.9946 8.12323V8.10749V8.09174C15.9788 3.63656 12.3895 0 7.99729 0C3.58933 0 0 3.63656 0 8.12323C0 12.5942 3.58933 16.2465 7.99729 16.2465C10.0281 16.2465 11.9487 15.4751 13.4285 14.074C13.7276 13.7906 13.7434 13.3341 13.46 13.035C13.1924 12.7358 12.7358 12.7201 12.4367 12.9877C12.4367 12.9877 12.4367 12.9877 12.421 13.0035C11.2245 14.1369 9.61879 14.7824 7.9658 14.7824C6.02945 14.7824 4.29776 13.9323 3.10131 12.5784L6.51748 7.09996V9.63453C6.51748 10.8467 6.98976 11.2403 7.38332 11.3505C7.77689 11.4607 8.37511 11.382 9.02056 10.3587L10.8939 7.32035C10.9569 7.2259 11.0041 7.13144 11.0671 7.06847V8.61126C11.0671 9.74473 11.5237 10.6578 12.3108 11.0986C13.0192 11.5079 13.9165 11.4607 14.6564 11.0041C15.5695 10.4059 16.0575 9.3669 15.9946 8.12323Z" fill="#2B6AFF"/>
</svg>
