<svg width="17" height="15" viewBox="0 0 17 15" fill="none" xmlns="http://www.w3.org/2000/svg">
<path fill-rule="evenodd" clip-rule="evenodd" d="M15.1178 5.35113C16.156 5.35113 17 6.24069 17 7.3349C17 8.08948 16.5944 8.7386 16.0042 9.07445C16.0371 9.27346 16.0579 9.4756 16.0579 9.68088C16.0579 12.6138 12.6516 15 8.46472 15C4.27787 15 0.871879 12.6138 0.871879 9.68088C0.871879 9.46367 0.896188 9.24897 0.932652 9.03804C0.377686 8.69277 0 8.06248 0 7.3349C0 6.24069 0.844012 5.35113 1.88102 5.34988C2.37402 5.34988 2.8196 5.55516 3.15608 5.88349C4.49517 4.9638 6.31541 4.39064 8.32628 4.3649L9.49817 0.458902C9.53938 0.320164 9.67664 0.237926 9.81034 0.272453L12.8763 1.03394C13.101 0.430652 13.656 0 14.3079 0C15.1566 0 15.8465 0.727588 15.8465 1.62279C15.8465 2.51737 15.1566 3.24496 14.3079 3.24496C13.4591 3.24496 12.7681 2.51737 12.7681 1.62279L12.7719 1.57885L9.92685 0.873232L8.8765 4.37495C10.7964 4.4484 12.5315 5.01653 13.8137 5.91048C14.1525 5.56583 14.6115 5.35113 15.1178 5.35113ZM11.2176 12.1983C11.3208 12.089 11.3208 11.9132 11.2176 11.8053C11.1156 11.6973 10.9481 11.6973 10.8447 11.8053C10.3834 12.2899 9.61972 12.5266 8.5086 12.5266L8.49881 12.5291L8.48903 12.5266C7.37673 12.5266 6.61305 12.2899 6.15266 11.8053C6.04949 11.6973 5.88199 11.6973 5.78001 11.8053C5.67685 11.9132 5.67685 12.089 5.78001 12.197C6.34476 12.7928 7.23117 13.0815 8.48903 13.0815L8.49881 13.079L8.5086 13.0815C9.76765 13.0815 10.6529 12.7928 11.2176 12.1983ZM6.20572 7.55399C6.11471 7.52888 6.01925 7.51507 5.92083 7.51507C5.30272 7.51507 4.79993 8.04491 4.79993 8.69653C4.79993 9.34691 5.30272 9.87675 5.92083 9.87675C6.53746 9.878 7.04025 9.34816 7.04025 8.69653C7.04025 8.26714 6.82176 7.89047 6.49625 7.68331C6.40672 7.62681 6.30919 7.58287 6.20572 7.55399ZM11.0839 7.51632C10.4658 7.51632 9.9642 8.04616 9.9642 8.69779C9.9642 9.34816 10.467 9.878 11.0839 9.878C11.7008 9.878 12.2033 9.34816 12.2033 8.69779C12.2033 8.04616 11.702 7.51632 11.0839 7.51632Z" fill="#B8B8CC" fill-opacity="0.8"/>
</svg>
