<svg width="16" height="14" viewBox="0 0 16 14" fill="none" xmlns="http://www.w3.org/2000/svg">
<path d="M16 1.53877C15.4102 1.80064 14.778 1.97646 14.1133 2.05627C14.7917 1.64975 15.3129 1.00631 15.5573 0.240667C14.9239 0.616008 14.2193 0.889097 13.4724 1.03624C12.8738 0.397786 12.0209 0 11.0769 0C9.26381 0 7.79362 1.46894 7.79362 3.28205C7.79362 3.53893 7.82355 3.78957 7.87967 4.03024C5.15127 3.89307 2.73338 2.58624 1.11355 0.599797C0.830489 1.08612 0.669628 1.64975 0.669628 2.2508C0.669628 3.38929 1.24823 4.39436 2.12984 4.98418C1.59115 4.96672 1.08487 4.81833 0.642195 4.57268C0.642195 4.58639 0.642195 4.60011 0.642195 4.61383C0.642195 6.20497 1.77445 7.53051 3.27457 7.83353C3.00023 7.90835 2.70969 7.94825 2.41041 7.94825C2.19843 7.94825 1.99267 7.9283 1.79191 7.88839C2.2109 9.19149 3.42296 10.1429 4.85823 10.1691C3.73595 11.0495 2.32063 11.5732 0.781856 11.5732C0.51625 11.5732 0.255631 11.5583 0 11.5271C1.45148 12.4598 3.1773 13.0023 5.03156 13.0023C11.0694 13.0023 14.3714 8.00062 14.3714 3.66363C14.3714 3.52147 14.3677 3.37807 14.3627 3.23841C15.0037 2.77578 15.5598 2.19718 16 1.53877Z" fill="#1D9BF0"/>
</svg>
