<svg width="16" height="12" viewBox="0 0 16 12" fill="none" xmlns="http://www.w3.org/2000/svg">
<path d="M15.5534 2.04169C15.4055 1.2253 14.7007 0.630778 13.8829 0.445169C12.6591 0.185608 10.3941 0 7.94345 0C5.49429 0 3.19304 0.185608 1.96774 0.445169C1.15135 0.630778 0.44517 1.1876 0.297263 2.04169C0.147907 2.96973 0 4.26899 0 5.93946C0 7.60993 0.147907 8.90919 0.333515 9.83723C0.482871 10.6536 1.1876 11.2481 2.00399 11.4338C3.30324 11.6933 5.53054 11.8789 7.98115 11.8789C10.4318 11.8789 12.6591 11.6933 13.9583 11.4338C14.7747 11.2481 15.4794 10.6913 15.6288 9.83723C15.7767 8.90919 15.9623 7.57223 16 5.93946C15.9246 4.26899 15.739 2.96973 15.5534 2.04169ZM5.93946 8.53797V3.34095L10.468 5.93946L5.93946 8.53797Z" fill="#F20000"/>
</svg>
