<svg width="16" height="16" viewBox="0 0 16 16" fill="none" xmlns="http://www.w3.org/2000/svg">
<path d="M12.0891 7.33325C12.477 10.9169 14 11.9999 14 11.9999H2C2 11.9999 4 10.5777 4 5.59992C4 4.46833 4.42143 3.38309 5.17157 2.58293C5.92172 1.78277 6.93913 1.33325 8 1.33325C8.22487 1.33325 8.4478 1.35345 8.66667 1.39291" stroke="#B8B8CC" stroke-width="1.5" stroke-linecap="round" stroke-linejoin="round"/>
<path d="M12.6667 5.33325C13.7713 5.33325 14.6667 4.43782 14.6667 3.33325C14.6667 2.22869 13.7713 1.33325 12.6667 1.33325C11.5621 1.33325 10.6667 2.22869 10.6667 3.33325C10.6667 4.43782 11.5621 5.33325 12.6667 5.33325Z" stroke="#B8B8CC" stroke-width="1.5" stroke-linecap="round" stroke-linejoin="round"/>
<path d="M9.15335 14C9.03615 14.2021 8.86795 14.3698 8.66548 14.4863C8.46308 14.6029 8.23361 14.6643 8.00001 14.6643C7.76641 14.6643 7.53695 14.6029 7.33455 14.4863C7.13215 14.3698 6.96388 14.2021 6.84668 14" stroke="#B8B8CC" stroke-width="1.5" stroke-linecap="round" stroke-linejoin="round"/>
</svg>
