<svg width="15" height="15" viewBox="0 0 15 15" fill="none" xmlns="http://www.w3.org/2000/svg">
<g id="Group 1474">
<rect id="Rectangle 467" x="5" y="3" width="7" height="7" fill="white"/>
<path id="Vector" fill-rule="evenodd" clip-rule="evenodd" d="M15 7.5C15 11.6421 11.6421 15 7.5 15C3.35786 15 0 11.6421 0 7.5C0 3.35786 3.35786 0 7.5 0C11.6421 0 15 3.35786 15 7.5ZM5.22722 5.22724C5.44689 5.00757 5.80304 5.00757 6.02273 5.22724L7.5 6.70447L8.9772 5.22725C9.19687 5.00759 9.55305 5.00759 9.77273 5.22725C9.9924 5.44692 9.9924 5.80308 9.77273 6.02273L8.29545 7.5L9.77273 8.9772C9.9924 9.19687 9.9924 9.55305 9.77273 9.77273C9.55305 9.9924 9.19687 9.9924 8.9772 9.77273L7.5 8.29553L6.02273 9.77273C5.80307 9.9924 5.44691 9.9924 5.22724 9.77273C5.00757 9.55305 5.00757 9.19687 5.22724 8.97727L6.70447 7.5L5.22722 6.02273C5.00755 5.80307 5.00755 5.44691 5.22722 5.22724Z" fill="#C50A0A"/>
</g>
</svg>
