<svg width="133" height="374" viewBox="0 0 133 374" fill="none" xmlns="http://www.w3.org/2000/svg">
<path d="M43.0269 363.76L43.2676 363.921C43.2213 363.967 43.1833 364.022 43.1553 364.081L42.8986 363.953C42.9467 363.892 42.9896 363.828 43.0269 363.76Z" fill="#FFE23F"/>
<path d="M33.1359 367.954C33.1359 367.73 33.2319 367.522 33.2639 367.298L33.7119 367.426C33.7119 367.634 33.7119 367.858 33.5839 368.066L33.1359 367.954Z" fill="#FFE23F"/>
<path d="M51.7815 309.389L52.3096 309.549L52.1496 309.901L51.6215 309.709C51.6695 309.549 51.7335 309.549 51.7815 309.389Z" fill="#00CF9B"/>
<path d="M75.7158 305.855L75.5238 305.583L75.7318 305.471L75.9238 305.743L75.7158 305.855Z" fill="#FF1F5A"/>
<path d="M99.1221 281.212L99.7461 281.5L99.5061 281.9L98.8661 281.612C98.8981 281.468 99.0421 281.34 99.1221 281.212Z" fill="#999999"/>
<path d="M130.007 261.051L130.519 260.667L130.727 261.035L130.231 261.419C130.151 261.307 130.087 261.179 130.007 261.051Z" fill="#FFE23F"/>
<path d="M124.87 205.543C124.923 205.412 124.981 205.284 125.046 205.159L125.271 205.319L125.094 205.703L124.87 205.543Z" fill="#75299E"/>
<path d="M132.118 177.224C132.118 177.08 132.118 176.936 132.246 176.792L132.502 176.92C132.502 177.064 132.422 177.208 132.374 177.352L132.118 177.224Z" fill="#999999"/>
<path d="M115.766 148.215L116.054 147.959C116.105 148.022 116.148 148.092 116.182 148.167L115.894 148.423L115.766 148.215Z" fill="#FFE23F"/>
<path d="M112.598 99.4934C112.682 99.3989 112.757 99.2972 112.822 99.1894L112.982 99.3654L112.742 99.6694L112.598 99.4934Z" fill="#FF1F5A"/>
<path d="M65.2968 74.4844L65.5368 73.8764L65.8408 74.1004L65.6008 74.6924L65.2968 74.4844Z" fill="#00CF9B"/>
<path d="M75.7969 54.9612L75.3969 55.2012C75.3969 55.2012 75.3969 55.0412 75.3168 54.9612L75.7169 54.7212C75.7169 54.7212 75.7649 54.8812 75.7969 54.9612Z" fill="#FFE23F"/>
<path d="M25.6016 19.6001C25.6016 19.4721 25.6016 19.3441 25.4736 19.2161L25.6816 19.2161C25.6816 19.3441 25.7616 19.4721 25.8096 19.5841L25.6016 19.6001Z" fill="#999999"/>
<path d="M8.0798 0.304688C8.03536 0.2058 7.99783 0.103943 7.9675 -0.00014269L8.1119 -0.000142692L8.24023 0.288628L8.0798 0.304688Z" fill="#FFE23F"/>
<path d="M6.49683 370.88L8.75293 372.48L7.71288 373.92L5.44077 372.32L6.49683 370.88Z" fill="#FFE23F"/>
<path d="M5.63166 326.239L8.14377 325.135L8.7998 326.735C7.96777 327.103 7.19973 327.487 6.27169 327.839C6.09568 327.327 5.85567 326.783 5.63166 326.239Z" fill="#999999"/>
<path d="M38.8347 335.07C38.8347 334.094 38.8347 333.134 38.8347 332.174L40.6748 332.27L40.6748 335.15L38.8347 335.07Z" fill="#FFE23F"/>
<path d="M58.578 296.655L61.2021 297.407C61.0101 297.951 60.8021 298.479 60.5941 299.007C59.7141 298.751 58.834 298.511 57.954 298.239L58.578 296.655Z" fill="#999999"/>
<path d="M99.7646 279.389C100.165 279.629 100.581 279.853 101.013 280.077C100.837 280.317 100.661 280.557 100.501 280.813L99.2366 280.125L99.7646 279.389Z" fill="#FFE23F"/>
<path d="M74.2579 271.87C74.1459 271.502 74.0179 271.134 73.8899 270.766L74.5939 270.638C74.7219 271.006 74.8499 271.374 74.9619 271.742L74.2579 271.87Z" fill="#00CF9B"/>
<path d="M80.4516 243.499L79.5876 242.507L80.2596 242.075L81.1396 243.083C80.8996 243.211 80.6756 243.355 80.4516 243.499Z" fill="#FFE23F"/>
<path d="M95.8427 211.146C95.8427 210.634 95.8427 210.138 95.9227 209.546L96.8027 209.754C96.8027 210.266 96.8027 210.778 96.7227 211.354L95.8427 211.146Z" fill="#75299E"/>
<path d="M90.8059 152.39L93.606 151.206C93.718 151.766 93.846 152.342 93.958 152.918L91.1419 154.103L90.8059 152.39Z" fill="#FFE23F"/>
<path d="M89.299 122.119L91.075 120.135L91.9551 121.335L90.163 123.335C89.827 122.935 89.555 122.519 89.299 122.119Z" fill="#75299E"/>
<path d="M77.0599 89.4751L75.8918 89.4751C75.8918 89.2671 75.9718 89.0591 76.0038 88.8511L77.1719 88.8511C77.1399 89.0591 77.0919 89.2671 77.0599 89.4751Z" fill="#75299E"/>
<path d="M73.7969 78.2117L72.9168 78.6597C72.8836 78.492 72.8409 78.3264 72.7888 78.1637L73.6849 77.7156C73.7169 77.8756 73.7489 78.0516 73.7969 78.2117Z" fill="#FFE23F"/>
<path d="M19.9388 80.8352L21.2508 80.0032C21.2508 80.2432 21.4108 80.4992 21.5068 80.7392L20.1788 81.5713L19.9388 80.8352Z" fill="#75299E"/>
<path d="M21.6028 350.335C22.4829 349.055 23.3629 347.759 24.1949 346.447L26.499 348.047C25.651 349.375 24.7549 350.687 23.8749 351.983L21.6028 350.335Z" fill="#75299E"/>
<path d="M11.5031 312.494C11.7591 312.99 12.0151 313.486 12.2871 313.982L11.3911 314.398C11.1191 313.902 10.863 313.406 10.607 312.894L11.5031 312.494Z" fill="#75299E"/>
<path d="M41.8417 306.271C41.2337 304.831 40.5937 303.407 39.9536 301.967L42.5457 301.023C43.2018 302.463 43.8578 303.919 44.4658 305.375L41.8417 306.271Z" fill="#FF1F5A"/>
<path d="M62.7867 290.156C61.5227 289.788 60.2426 289.484 58.9786 289.148L59.7626 286.988C61.0587 287.308 62.3387 287.644 63.6348 288.012C63.3468 288.748 63.0587 289.452 62.7867 290.156Z" fill="#75299E"/>
<path d="M58.8999 261.739C58.5799 260.251 58.2439 258.747 57.8759 257.275L60.5 256.987C60.868 258.491 61.204 259.995 61.54 261.499L58.8999 261.739Z" fill="#75299E"/>
<path d="M94.8528 250.619C95.0608 249.243 95.2368 247.867 95.3968 246.491L97.6689 247.147C97.5089 248.555 97.3169 249.947 97.1089 251.323L94.8528 250.619Z" fill="#FF1F5A"/>
<path d="M100.997 227.162C100.437 226.266 99.8448 225.37 99.2368 224.489L100.837 223.753C101.461 224.65 102.053 225.562 102.629 226.474L100.997 227.162Z" fill="#FFE23F"/>
<path d="M97.9095 181.322C96.5495 180.538 95.1574 179.722 93.7654 179.034L95.3654 177.05C96.7895 177.802 98.1816 178.65 99.5576 179.386L97.9095 181.322Z" fill="#75299E"/>
<path d="M70.3547 136.038C69.8427 134.886 69.3307 133.749 68.7546 132.613L70.6587 132.165C71.2187 133.317 71.7468 134.47 72.2588 135.622L70.3547 136.038Z" fill="#FFE23F"/>
<path d="M43.3155 145.158C43.6995 144.662 44.0675 144.166 44.4355 143.654L45.0596 144.374C44.6916 144.886 44.3075 145.398 43.9235 145.894L43.3155 145.158Z" fill="#999999"/>
<path d="M49.8132 98.7242C49.9412 97.6362 50.0692 96.5481 50.1812 95.5241L51.7812 96.0681C51.6692 97.1722 51.5412 98.2762 51.3812 99.3643L49.8132 98.7242Z" fill="#FF1F5A"/>
<path d="M49.6193 65.2032C49.0433 65.2032 48.4672 65.2032 47.8912 65.2832L48.0352 64.4832L49.7793 64.4032C49.7313 64.7392 49.6673 64.9312 49.6193 65.2032Z" fill="#FFE23F"/>
<path d="M46.0175 327.071C45.5055 326.383 44.9935 325.711 44.4174 325.055L45.5855 324.239C46.1295 324.911 46.6629 325.599 47.1855 326.303C46.8015 326.559 46.4175 326.831 46.0175 327.071Z" fill="#FFE23F"/>
<path d="M54.4342 281.419C54.0022 280.683 53.5542 279.947 53.1061 279.227L54.3542 278.587C54.8182 279.323 55.2662 280.075 55.6982 280.827L54.4342 281.419Z" fill="#FF1F5A"/>
<path d="M52.2598 266.347C53.3799 266.971 54.5319 267.579 55.668 268.155C55.3 268.731 54.8999 269.307 54.5159 269.899C53.3479 269.291 52.1798 268.683 51.0438 268.043C51.4438 267.451 51.8598 266.891 52.2598 266.347Z" fill="#FF1F5A"/>
<path d="M73.2984 254.076C74.2264 253.255 75.1384 252.407 76.0345 251.532L77.1865 253.132C76.2692 254.007 75.3411 254.871 74.4024 255.724C74.0824 255.148 73.7144 254.62 73.2984 254.076Z" fill="#00CF9B"/>
<path d="M54.2902 201.162C55.2502 201.05 56.1943 200.906 57.1543 200.73L57.1543 202.234C56.1783 202.41 55.2022 202.554 54.2422 202.682L54.2902 201.162Z" fill="#00CF9B"/>
<path d="M70.7535 177.242C71.8415 175.882 72.8976 174.49 73.9536 173.082L75.7617 175.018C74.7217 176.458 73.6496 177.866 72.5616 179.258L70.7535 177.242Z" fill="#00CF9B"/>
<path d="M68.7871 183.144C68.9791 182.472 69.1551 181.816 69.3311 181.144L70.2432 181.592C70.0832 182.28 69.8911 182.952 69.6991 183.624L68.7871 183.144Z" fill="#75299E"/>
<path d="M73.3001 159.799C73.0921 159.047 72.8681 158.279 72.6281 157.527L73.7481 157.431C74.0041 158.199 74.2281 159.031 74.4521 159.751L73.3001 159.799Z" fill="#999999"/>
<path d="M32.9926 111.477C32.4006 110.949 31.8086 110.437 31.2006 109.877L32.0646 109.237C32.6886 109.733 33.2806 110.261 33.8887 110.837L32.9926 111.477Z" fill="#75299E"/>
<path d="M14.3549 99.686C13.8748 98.758 13.3628 97.814 12.8508 96.9019L14.1949 96.5179C14.7229 97.4619 15.2349 98.406 15.7949 99.382L14.3549 99.686Z" fill="#75299E"/>
<path d="M13.5866 75.2328C13.6986 74.1767 13.7946 73.1207 13.8586 72.0327L15.1387 72.4327C15.1387 73.5207 14.9787 74.5928 14.8667 75.6328L13.5866 75.2328Z" fill="#FFE23F"/>
<path d="M2.17555 56.7393C1.87154 55.9712 1.53552 55.1392 1.18351 54.4512L2.17555 54.2432C2.52757 55.0112 2.86358 55.8432 3.18359 56.5792L2.17555 56.7393Z" fill="#75299E"/>
<path d="M7.37889 282.685C8.59494 284.366 9.82699 286.014 11.123 287.63L8.48293 289.406C7.15487 287.806 5.89082 286.078 4.65876 284.35L7.37889 282.685Z" fill="#999999"/>
<path d="M13.3781 277.82C13.1061 275.276 12.754 272.732 12.322 270.204L16.2262 270.012C16.6582 272.604 17.0102 275.196 17.2822 277.804L13.3781 277.82Z" fill="#999999"/>
<path d="M35.9698 232.651C37.3459 231.803 38.706 230.907 40.034 229.979L41.1221 232.139C39.762 233.083 38.386 233.995 36.9779 234.859C36.6579 234.102 36.3219 233.366 35.9698 232.651Z" fill="#75299E"/>
<path d="M43.4878 236.394C41.1517 235.93 38.7996 235.546 36.4315 235.21C36.7835 234.122 37.1195 233.002 37.4716 231.866C39.8877 232.218 42.2718 232.618 44.6719 233.082L43.4878 236.394Z" fill="#75299E"/>
<path d="M46.0972 210.155C48.2253 209.547 50.3213 208.859 52.4014 208.123C52.5614 209.147 52.7215 210.203 52.8975 211.323C50.7534 212.075 48.6093 212.763 46.4972 213.403L46.0972 210.155Z" fill="#75299E"/>
<path d="M71.9704 163.114C69.7463 162.314 67.4902 161.594 65.2181 160.922L66.8182 158.01C69.1383 158.682 71.4584 159.418 73.7305 160.25C73.1064 161.21 72.5464 162.17 71.9704 163.114Z" fill="#FFE23F"/>
<path d="M62.3379 152.857C62.9459 151.593 63.5379 150.296 64.0659 148.984L65.666 150.104C65.106 151.449 64.514 152.761 63.8739 154.057L62.3379 152.857Z" fill="#00CF9B"/>
<path d="M23.3953 114.339C23.3953 113.011 23.3953 111.667 23.2833 110.339L25.0114 110.659C25.0114 112.019 25.1074 113.395 25.1074 114.755L23.3953 114.339Z" fill="#999999"/>
<path d="M21.2185 121.158C21.8105 119.558 22.3545 117.814 22.8186 116.133L24.7227 117.254C24.2266 118.982 23.6506 120.71 23.1226 122.406L21.2185 121.158Z" fill="#00CF9B"/>
<path d="M8.08038 89.3311C5.96828 89.203 3.84019 89.1551 1.6801 89.1391C1.88811 88.339 2.09611 87.539 2.30412 86.675C4.48022 86.675 6.65631 86.6749 8.81641 86.867C8.5924 87.699 8.33639 88.531 8.08038 89.3311Z" fill="#75299E"/>
<path d="M8.24088 284.461C9.23293 284.749 10.241 285.021 11.249 285.245C11.089 285.709 10.945 286.189 10.801 286.685C9.73429 286.45 8.71024 286.178 7.72886 285.869C7.90487 285.389 8.08088 284.925 8.24088 284.461Z" fill="#FF1F5A"/>
<path d="M25.0889 258.861C23.4889 258.429 22.0488 258.045 20.4967 257.709C20.7207 257.005 20.9608 256.285 21.2008 255.549C22.8008 255.885 24.4009 256.285 26.001 256.733L25.0889 258.861Z" fill="#FF1F5A"/>
<path d="M31.0408 270.219C32.7689 269.595 34.497 268.923 36.1931 268.187L36.9131 270.699C35.169 271.451 33.4089 272.139 31.6169 272.779C31.4249 271.915 31.2328 271.051 31.0408 270.219Z" fill="#999999"/>
<path d="M36.4978 227.866C38.4819 228.506 40.482 229.082 42.498 229.578L41.298 232.266C39.2339 231.738 37.1698 231.146 35.1377 230.49C35.5857 229.546 36.0178 228.73 36.4978 227.866Z" fill="#FF1F5A"/>
<path d="M37.7304 219.483C38.0825 217.818 38.3865 216.138 38.6425 214.442L40.8506 215.146C40.5946 216.89 40.2746 218.618 39.9065 220.331L37.7304 219.483Z" fill="#999999"/>
<path d="M50.6913 175.144C47.8859 174.642 45.0751 174.242 42.259 173.944C42.6216 172.759 43.0057 171.559 43.411 170.343C46.3071 170.663 49.2033 171.079 52.0674 171.591L50.6913 175.144Z" fill="#00CF9B"/>
<path d="M41.0426 187.258C38.6905 186.458 36.2424 185.738 33.9223 185.082L35.4103 182.25C37.8744 182.922 40.3066 183.658 42.7227 184.49L41.0426 187.258Z" fill="#FFE23F"/>
<path d="M38.5303 132.47C36.3969 130.337 34.2315 128.305 32.034 126.374L35.0582 124.23C37.3623 126.262 39.5864 128.342 41.7305 130.518L38.5303 132.47Z" fill="#999999"/>
<path d="M14.6743 136.23C14.8343 135.206 14.9463 134.198 15.0263 133.158L16.1943 133.558C16.1943 134.614 15.9863 135.67 15.8263 136.758L14.6743 136.23Z" fill="#00CF9B"/>
<path d="M6.89638 119.75C7.5364 116.88 8.06976 113.99 8.49645 111.077L11.6006 112.389C11.1526 115.398 10.6192 118.374 10.0005 121.318L6.89638 119.75Z" fill="#FF1F5A"/>
<path d="M10.7042 295.917C9.48812 294.851 8.24007 293.843 6.96001 292.893L8.38407 291.197C9.69613 292.189 10.9922 293.229 12.2402 294.397L10.7042 295.917Z" fill="#FFE23F"/>
<path d="M20.4987 256.956C19.9867 255.868 19.4267 254.812 18.8186 253.756L20.3067 253.068C20.9307 254.14 21.5068 255.244 22.0508 256.364L20.4987 256.956Z" fill="#FF1F5A"/>
<path d="M3.47344 237.769C4.96684 235.635 6.36424 233.502 7.66563 231.369L10.3857 233.465C9.02035 235.726 7.58029 237.918 6.06556 240.041L3.47344 237.769Z" fill="#00CF9B"/>
<path d="M19.3282 236.281C20.6402 237.017 22.0003 237.721 23.3604 238.361L22.2563 239.961C20.8482 239.289 19.4562 238.569 18.1121 237.801L19.3282 236.281Z" fill="#999999"/>
<path d="M35.5883 206.841C36.2284 205.513 36.8364 204.169 37.3804 202.793L38.9805 203.801C38.4204 205.209 37.7964 206.601 37.1244 207.961L35.5883 206.841Z" fill="#75299E"/>
<path d="M47.6978 186.68C50.8019 185.32 53.8741 183.848 56.8662 182.248C57.2822 183.592 57.6982 184.968 58.1143 186.36C55.0315 188.013 51.8847 189.533 48.6738 190.92L47.6978 186.68Z" fill="#FF1F5A"/>
<path d="M43.8414 194.185C45.4415 194.185 47.0415 194.185 48.6416 194.185C48.5456 194.825 48.4336 195.481 48.3216 196.153C46.7215 196.153 44.9774 196.153 43.3134 196.153C43.5374 195.481 43.6974 194.825 43.8414 194.185Z" fill="#75299E"/>
<path d="M30.0961 143.141C29.8241 141.909 29.5201 140.693 29.1521 139.477L30.6562 139.381C31.0402 140.645 31.3442 141.909 31.6162 143.173L30.0961 143.141Z" fill="#75299E"/>
<path d="M9.66563 116.036C9.34562 114.82 8.9616 113.604 8.54558 112.403L10.0016 112.275C10.4337 113.508 10.8177 114.756 11.1377 116.02L9.66563 116.036Z" fill="#999999"/>
<path d="M26.5618 99.2822C24.1617 98.8182 21.7616 98.4822 19.2815 98.2422L20.2255 95.6981C22.7377 95.9541 25.2338 96.3221 27.7139 96.7861L26.5618 99.2822Z" fill="#00CF9B"/>
<path d="M2.64083 87.6369C3.29686 86.2289 3.88888 84.7728 4.41691 83.3008L5.79297 84.2288C5.23294 85.7489 4.60892 87.2529 3.93689 88.709L2.64083 87.6369Z" fill="#00CF9B"/>
<path d="M19.5052 256.746C20.7053 255.706 21.8573 254.602 22.9614 253.45L24.2734 255.05C23.1374 256.234 21.9533 257.37 20.7053 258.442L19.5052 256.746Z" fill="#75299E"/>
<path d="M32.5131 244.652C32.3851 243.292 32.2091 241.932 31.9531 240.588L33.6812 240.508C33.9395 241.894 34.1265 243.294 34.2412 244.7L32.5131 244.652Z" fill="#FF1F5A"/>
<path d="M21.4061 234.953C19.8111 234.792 18.209 234.712 16.6059 234.713C16.7019 234.073 16.8139 233.417 16.9259 232.761C18.526 232.761 20.222 232.857 21.8701 233.017C21.7261 233.673 21.5661 234.345 21.4061 234.953Z" fill="#75299E"/>
<path d="M32.5136 187.432C34.1137 188.264 35.8098 189.033 37.5059 189.705C37.1058 190.313 36.7218 190.937 36.3058 191.577C34.5617 190.873 32.8337 190.089 31.1536 189.209L32.5136 187.432Z" fill="#00CF9B"/>
<path d="M31.6973 205.832C28.8332 204.232 25.8731 202.744 22.8649 201.4C23.601 200.376 24.369 199.336 25.137 198.2C28.3372 199.592 31.2973 201.112 34.2734 202.792L31.6973 205.832Z" fill="#75299E"/>
<path d="M32.1324 179.047C34.1965 178.471 36.2446 177.799 38.2607 177.015L38.5967 179.463C36.5166 180.247 34.4045 180.951 32.1964 181.543C32.2124 180.679 32.1804 179.863 32.1324 179.047Z" fill="#75299E"/>
<path d="M8.61035 125.542C6.41826 126.262 4.24216 127.142 2.21007 128.022C2.06607 127.206 1.92207 126.422 1.77806 125.51C3.97016 124.55 6.21024 123.702 8.48234 122.95C8.46634 123.942 8.54635 124.774 8.61035 125.542Z" fill="#00CF9B"/>
<path d="M21.6953 114.005C19.129 111.984 16.4586 110.098 13.6949 108.357L16.127 106.101C18.9814 107.906 21.7424 109.856 24.3994 111.941L21.6953 114.005Z" fill="#999999"/>
<path d="M11.6955 274.044C12.8316 273.084 13.9196 272.06 14.8957 270.988L16.0957 272.364C15.0203 273.488 13.8881 274.556 12.7036 275.564L11.6955 274.044Z" fill="#FFE23F"/>
<path d="M32.7054 245.259C32.6246 242.476 32.4003 239.699 32.0334 236.939L35.3455 236.939C35.7205 239.795 35.9448 242.668 36.0176 245.547L32.7054 245.259Z" fill="#FF1F5A"/>
<path d="M9.50588 197.401C12.4479 197.452 15.3907 197.351 18.3223 197.097C18.2263 198.217 18.1303 199.337 18.0182 200.505C14.9807 200.774 11.9306 200.876 8.88185 200.809C9.10586 199.641 9.29787 198.505 9.50588 197.401Z" fill="#FFE23F"/>
<path d="M34.5618 198.76C34.7326 197.417 34.8234 196.066 34.8338 194.712L36.3379 195.032C36.3221 196.439 36.226 197.844 36.0499 199.24L34.5618 198.76Z" fill="#FF1F5A"/>
<path d="M19.5868 170.455C19.9137 168.971 20.1594 167.47 20.3228 165.959L21.9229 166.503C21.7475 168.067 21.4911 169.621 21.1548 171.159L19.5868 170.455Z" fill="#00CF9B"/>
<path d="M20.0502 158.248C18.878 156.937 17.6389 155.687 16.3381 154.504L17.9382 153.448C19.2822 154.685 20.5623 155.981 21.7783 157.336L20.0502 158.248Z" fill="#FF1F5A"/>
<path d="M13.9854 157.367C10.4164 158.503 6.91231 159.833 3.4889 161.352C3.28089 160.12 3.07288 158.871 2.84887 157.575C6.40583 156.008 10.043 154.631 13.7453 153.447C13.8253 154.791 13.9053 156.087 13.9854 157.367Z" fill="#FFE23F"/>
<path d="M10.2748 214.459C8.59256 214.517 6.91507 214.672 5.25057 214.923C5.25057 214.315 5.25057 213.691 5.25057 213.035C6.97945 212.784 8.72084 212.629 10.4668 212.571C10.4188 213.227 10.3388 213.851 10.2748 214.459Z" fill="#00CF9B"/>
<path d="M14.9459 190.44C13.37 189.186 11.7247 188.021 10.0177 186.952L11.5057 185.352C13.2803 186.459 14.9898 187.666 16.626 188.968L14.9459 190.44Z" fill="#FF1F5A"/>
<path d="M23.1383 207.003C24.5608 203.747 25.7844 200.407 26.8025 197.002L30.0986 198.826C29.0271 202.359 27.7502 205.827 26.2745 209.211L23.1383 207.003Z" fill="#00CF9B"/>
<path d="M26.7864 146.342C24.508 146.787 22.2585 147.37 20.0501 148.086C20.0501 147.334 19.9541 146.582 19.9061 145.798C22.1961 145.06 24.5319 144.472 26.8984 144.038C26.8984 144.838 26.8184 145.606 26.7864 146.342Z" fill="#999999"/>
<path d="M12.9437 237.545C14.9984 236.531 16.9865 235.388 18.8959 234.121C19.248 234.857 19.616 235.609 20 236.377C18.0039 237.699 15.9248 238.891 13.7757 239.945C13.5037 239.145 13.2157 238.329 12.9437 237.545Z" fill="#75299E"/>
<path d="M11.3287 165.223C12.5553 164.153 13.7099 163.004 14.7848 161.782L15.7129 163.094C14.5952 164.359 13.3981 165.551 12.1287 166.663L11.3287 165.223Z" fill="#FFE23F"/>
<path d="M6.09733 165.543C5.93658 162.256 5.55166 158.984 4.94528 155.75L8.14542 155.942C8.76515 159.309 9.15541 162.715 9.31348 166.135L6.09733 165.543Z" fill="#FF1F5A"/>
<path d="M6.09492 225.914C5.07301 221.75 3.7522 217.664 2.14275 213.69L6.39894 212.793C8.05887 216.928 9.4276 221.173 10.4951 225.498L6.09492 225.914Z" fill="#00CF9B"/>
<path d="M14.6259 189.224C18.7098 188.31 22.725 187.113 26.6424 185.64C26.8504 186.952 27.0744 188.328 27.3145 189.72C23.2384 191.257 19.0567 192.498 14.8019 193.433C14.7379 191.993 14.6739 190.585 14.6259 189.224Z" fill="#00CF9B"/>
<path d="M24.8823 180.343C22.6521 180.455 20.4329 180.728 18.242 181.159C18.242 180.455 18.242 179.751 18.242 179.015C20.5229 178.571 22.8331 178.293 25.1543 178.183C25.0796 178.919 24.9889 179.639 24.8823 180.343Z" fill="#FFE23F"/>
<path d="M13.5522 157.112C9.30832 155.671 4.96624 154.538 0.559633 153.72L2.2557 149.928C6.81628 150.784 11.3084 151.971 15.6963 153.48L13.5522 157.112Z" fill="#00CF9B"/>
<path d="M0.0325079 157.831C0.368555 153.288 0.368554 148.726 0.0325077 144.183L4.04869 144.919C4.40044 149.654 4.40044 154.409 4.04869 159.144L0.0325079 157.831Z" fill="#75299E"/>
<path d="M-0.000171435 204.2C0.692469 202.262 1.22756 200.272 1.5999 198.248L3.37598 198.968C3.01246 201.078 2.47732 203.154 1.77591 205.176L-0.000171435 204.2Z" fill="#999999"/>
</svg>
