<svg width="39" height="47" viewBox="0 0 39 47" fill="none" xmlns="http://www.w3.org/2000/svg">
<path fill-rule="evenodd" clip-rule="evenodd" d="M11.2681 13.13C16.348 11.997 22.8123 12.0657 28.0717 13.3998C28.6544 13.5469 29.22 13.7112 29.7683 13.8903C31.7919 14.55 33.3803 15.3592 34.5949 17.1838C34.5458 17.0931 34.4991 17.0048 34.4499 16.9141C34.381 16.7865 34.3146 16.6615 34.2458 16.5339C31.2116 11.7861 18.7847 10.7438 13.7908 10.9793C18.138 9.96399 23.3335 9.85118 26.5866 10.837C25.7874 10.3932 23.2475 9.19393 21.2927 7.93095C19.4781 6.75871 18.5069 5.23087 20.9485 3.47986C25.3227 0.345706 17.9831 0.767517 15.2243 1.08633C18.6101 0.272134 21.0886 0.176491 23.1418 0.460968C18.3888 -0.610727 13.5843 0.242706 10.0534 2.43514C7.01679 4.32348 4.69075 7.47481 4.31947 9.91984C4.2162 10.5893 5.87344 9.93946 5.75542 10.5893C5.59314 11.4845 4.33668 14.1183 4.9268 13.775C5.94475 13.1815 8.3003 12.3992 10.6755 12.436C10.2329 12.5537 9.81002 12.6812 9.41169 12.8186C6.89385 13.6941 4.78418 14.7756 3.33594 17.0023C5.37922 14.4347 8.16261 13.8216 11.2681 13.13Z" fill="white"/>
<path fill-rule="evenodd" clip-rule="evenodd" d="M31.8254 16.2887C25.5529 11.7861 10.5295 12.0902 5.125 17.4266C10.1361 13.1987 25.9365 12.8701 31.8254 16.2887Z" fill="white"/>
<path fill-rule="evenodd" clip-rule="evenodd" d="M7.86675 21.6912C7.76594 21.6716 7.66267 21.7501 7.63808 21.8678C7.61349 21.9855 7.67742 22.0983 7.77824 22.118C7.87905 22.1376 7.98232 22.0591 8.00691 21.9414C8.03149 21.8237 7.97002 21.7109 7.86675 21.6912Z" fill="white"/>
<path fill-rule="evenodd" clip-rule="evenodd" d="M9.86855 29.2765C9.84396 29.3942 9.90789 29.507 10.0087 29.5266C10.1095 29.5463 10.2128 29.4678 10.2374 29.3501C10.262 29.2324 10.198 29.1195 10.0972 29.0999C9.99395 29.0803 9.89314 29.1588 9.86855 29.2765Z" fill="white"/>
<path fill-rule="evenodd" clip-rule="evenodd" d="M12.5383 30.2331L12.4006 29.978L12.4547 30.2625L12.2383 30.4072L12.494 30.3336L12.6219 30.5789L12.5751 30.3042L12.853 30.1767L12.5383 30.2331Z" fill="white"/>
<path fill-rule="evenodd" clip-rule="evenodd" d="M10.4831 32.2097C10.4708 32.2685 10.5028 32.3249 10.552 32.3347C10.6036 32.3445 10.6528 32.3053 10.6651 32.2465C10.6774 32.1876 10.6454 32.1312 10.5962 32.1214C10.547 32.1116 10.4954 32.1508 10.4831 32.2097Z" fill="white"/>
<path fill-rule="evenodd" clip-rule="evenodd" d="M12.8407 34.0489C12.9415 34.0685 13.0448 33.99 13.0694 33.8723C13.094 33.7546 13.0301 33.6418 12.9293 33.6221C12.8284 33.6025 12.7252 33.681 12.7006 33.7987C12.676 33.914 12.7399 34.0268 12.8407 34.0489Z" fill="white"/>
<path fill-rule="evenodd" clip-rule="evenodd" d="M14.655 33.9852C14.6427 34.0441 14.6747 34.1005 14.7238 34.1103C14.7755 34.1201 14.8246 34.0809 14.8369 34.022C14.8492 33.9631 14.8173 33.9067 14.7681 33.8969C14.7189 33.8847 14.6673 33.9264 14.655 33.9852Z" fill="white"/>
<path fill-rule="evenodd" clip-rule="evenodd" d="M16.6498 32.7344C16.6252 32.8521 16.6891 32.9649 16.79 32.9845C16.8908 33.0042 16.994 32.9257 17.0186 32.808C17.0432 32.6903 16.9793 32.5775 16.8785 32.5578C16.7752 32.5358 16.6744 32.6167 16.6498 32.7344Z" fill="white"/>
<path fill-rule="evenodd" clip-rule="evenodd" d="M15.1887 30.1741C15.2403 30.1839 15.2895 30.1447 15.3018 30.0858C15.3141 30.0269 15.2821 29.9705 15.2329 29.9607C15.1813 29.9509 15.1321 29.9902 15.1198 30.049C15.1075 30.1079 15.1395 30.1618 15.1887 30.1741Z" fill="white"/>
<path fill-rule="evenodd" clip-rule="evenodd" d="M18.4675 31.4028C18.4552 31.4616 18.4872 31.518 18.5363 31.5278C18.588 31.5377 18.6371 31.4984 18.6494 31.4396C18.6617 31.3807 18.6298 31.3243 18.5806 31.3145C18.529 31.3047 18.4798 31.3439 18.4675 31.4028Z" fill="white"/>
<path fill-rule="evenodd" clip-rule="evenodd" d="M18.823 35.194C18.8107 35.2529 18.8426 35.3093 18.8918 35.3191C18.9434 35.3289 18.9926 35.2897 19.0049 35.2308C19.0172 35.172 18.9852 35.1156 18.9361 35.1058C18.8869 35.0959 18.8352 35.1352 18.823 35.194Z" fill="white"/>
<path fill-rule="evenodd" clip-rule="evenodd" d="M23.7407 36.104C23.6891 36.0942 23.6399 36.1335 23.6276 36.1923C23.6153 36.2512 23.6473 36.3076 23.6965 36.3174C23.7481 36.3272 23.7973 36.288 23.8096 36.2291C23.8219 36.1703 23.7924 36.1139 23.7407 36.104Z" fill="white"/>
<path fill-rule="evenodd" clip-rule="evenodd" d="M21.2157 33.4627C21.3165 33.4823 21.4198 33.4038 21.4444 33.2861C21.469 33.1684 21.4051 33.0556 21.3043 33.036C21.2034 33.0163 21.1002 33.0948 21.0756 33.2125C21.051 33.3278 21.1149 33.4406 21.2157 33.4627Z" fill="white"/>
<path fill-rule="evenodd" clip-rule="evenodd" d="M10.2429 24.9972L9.78313 24.1487L9.96016 25.0953L9.24219 25.5735L10.0905 25.3332L10.5159 26.1498L10.3659 25.2375L11.2855 24.8084L10.2429 24.9972Z" fill="white"/>
<path fill-rule="evenodd" clip-rule="evenodd" d="M28.8425 29.7106C28.8302 29.7695 28.8622 29.8259 28.9113 29.8357C28.963 29.8455 29.0121 29.8063 29.0244 29.7474C29.0367 29.6886 29.0048 29.6322 28.9556 29.6224C28.904 29.6125 28.8523 29.6518 28.8425 29.7106Z" fill="white"/>
<path fill-rule="evenodd" clip-rule="evenodd" d="M32.8384 29.0191C32.7868 29.0093 32.7376 29.0485 32.7253 29.1074C32.713 29.1662 32.745 29.2226 32.7941 29.2324C32.8458 29.2422 32.895 29.203 32.9072 29.1442C32.922 29.0853 32.89 29.0289 32.8384 29.0191Z" fill="white"/>
<path fill-rule="evenodd" clip-rule="evenodd" d="M5.83241 37.5658C6.35368 38.3113 6.95117 39.0887 7.0569 39.231C5.69963 38.1985 4.31039 36.4132 3.35637 35.0276C3.91944 36.1876 4.54152 37.2568 5.41441 38.5541C4.48989 37.8675 3.33916 36.6069 2.95312 36.0306C3.4621 38.4413 9.43458 45.4919 12.7368 46.2914C11.9352 44.9769 12.6851 43.2701 14.3276 43.4859C16.1742 43.7287 16.0439 46.1786 14.5809 46.6715C15.6923 46.8506 16.9094 46.9609 18.1585 47.0002C17.6938 46.9217 17.2659 46.826 16.8873 46.7108C15.8078 46.3625 17.0323 46.6519 16.752 45.308C16.2185 43.6747 17.0643 44.2657 19.2256 43.942C20.0469 43.8194 21.0451 43.6036 21.9672 43.3878C13.4671 43.6625 11.1361 43.4197 5.83241 37.5658ZM12.3827 45.8034C11.5836 44.8936 12.3114 43.3927 13.622 43.4295C12.5302 43.5791 11.9647 44.8028 12.3827 45.8034ZM14.9079 46.6397C16.1447 46.2448 16.2013 44.3271 15.3062 43.7066C16.4791 44.2167 16.4004 46.5465 14.9079 46.6397Z" fill="white"/>
<path fill-rule="evenodd" clip-rule="evenodd" d="M15.4367 45.1558C15.4367 44.3882 14.8122 43.7653 14.0426 43.7653C13.273 43.7653 12.6484 44.3882 12.6484 45.1558C12.6484 45.9234 13.273 46.5463 14.0426 46.5463C14.8122 46.5463 15.4367 45.9234 15.4367 45.1558ZM13.2041 45.992C12.7419 45.531 12.7419 44.7805 13.2041 44.3195C13.6664 43.8584 14.4188 43.8584 14.881 44.3195C15.3433 44.7805 15.3433 45.531 14.881 45.992C14.4188 46.4531 13.6664 46.4531 13.2041 45.992Z" fill="white"/>
<path fill-rule="evenodd" clip-rule="evenodd" d="M19.9128 41.1805C16.4533 41.026 12.9667 40.0548 11.3488 38.8949C12.8806 39.2357 14.5083 39.4368 16.1656 39.4859C11.3045 39.0077 7.98754 37.112 5.80411 34.2598C6.14097 34.8141 6.52946 35.3757 6.97451 35.9495C5.8164 35.1893 4.05589 32.8914 3.59363 30.6744C3.36987 31.1281 3.54691 31.6971 3.49773 32.1655C3.47315 32.4132 3.30595 32.7246 3.30103 32.9772C3.28136 33.9239 4.44192 35.2457 5.39349 36.2217C5.54593 36.3762 5.70576 36.5357 5.86558 36.6951C6.08196 36.906 6.23932 37.058 6.29341 37.1169C9.04238 39.8096 12.0446 42.9364 16.0746 42.3969C15.0198 42.0633 13.4215 41.4429 12.6962 40.8617C14.6362 41.2173 19.0154 41.259 19.9128 41.1805Z" fill="white"/>
<path fill-rule="evenodd" clip-rule="evenodd" d="M10.6572 36.9796C13.0201 38.0979 16.9468 38.6742 18.6311 38.5737C16.4231 38.3799 13.3742 37.8159 10.8637 36.6583C8.88191 35.7461 7.21975 34.2109 6.23868 32.5972C7.40662 33.9975 8.95322 35.312 10.7236 36.2218C13.2168 37.5069 16.1133 38.12 18.6656 38.1494C31.5326 38.2916 37.8591 28.3742 34.5963 17.1815C37.3477 28.9235 30.6179 37.5412 18.6803 37.3303C6.62963 37.1169 1.76116 28.1216 3.33235 17.0049C2.02426 22.204 2.59962 28.4992 5.8133 32.9184C7.20008 34.819 8.83028 36.1139 10.6572 36.9796Z" fill="white"/>
<path fill-rule="evenodd" clip-rule="evenodd" d="M26.2796 41.7986C27.327 41.362 28.6917 39.8979 28.6917 39.8979C28.6917 39.8979 27.5827 40.8887 26.1468 41.546C25.4018 41.8868 24.524 42.0879 23.7617 42.1223C23.7593 42.1223 25.2788 42.2155 26.2796 41.7986Z" fill="white"/>
<path fill-rule="evenodd" clip-rule="evenodd" d="M14.2464 44.2116C13.5259 44.1135 13.1719 44.6751 13.1719 44.6751C14.4652 43.7652 15.0012 45.1214 15.0012 45.1214C15.0012 45.1214 14.9668 44.3121 14.2464 44.2116Z" fill="white"/>
<path fill-rule="evenodd" clip-rule="evenodd" d="M24.4406 43.9517C23.2653 44.7193 23.7374 46.767 25.1856 46.8381C23.9464 46.5365 23.5603 44.8026 24.4406 43.9517Z" fill="white"/>
<path fill-rule="evenodd" clip-rule="evenodd" d="M24.7812 45.2122C24.7812 45.2122 25.3025 43.525 26.8122 44.7095C26.1975 43.7359 24.8353 44.0351 24.7812 45.2122Z" fill="white"/>
<path fill-rule="evenodd" clip-rule="evenodd" d="M26.6094 43.498C27.3962 43.7629 27.8117 44.9719 27.4478 45.6929C28.0699 44.9916 27.6224 43.5643 26.6094 43.498Z" fill="white"/>
<path fill-rule="evenodd" clip-rule="evenodd" d="M27.7812 45.8178C29.7852 45.6437 33.0308 40.5109 33.3234 39.937C32.3915 41.4354 29.4237 44.9571 27.7812 45.8178Z" fill="white"/>
<path fill-rule="evenodd" clip-rule="evenodd" d="M31.4576 35.3535C29.6824 37.2026 26.8154 38.6961 24.1328 39.2675C26.7957 39.037 30.1299 37.5411 31.4576 35.3535Z" fill="white"/>
<path fill-rule="evenodd" clip-rule="evenodd" d="M33.1919 36.9574L33.2656 36.8691C32.2698 38.1468 30.6101 40.197 29.1176 41.6243C28.6037 42.1148 27.362 43.1007 24.7188 43.3655C25.6236 43.3067 27.4603 42.9462 27.8636 44.0031C28.0505 44.4887 27.9914 45.1313 27.9914 45.1313C28.2668 44.5353 28.2078 44.1846 28.1341 43.8217C27.9546 42.929 28.2127 43.0026 28.9823 42.1737C30.2904 40.7611 32.4886 38.2327 33.332 36.7907L35.0384 34.7258C35.0384 34.7258 35.5081 35.8906 35.3458 36.4743C35.1835 37.058 33.364 39.8758 33.364 39.8758C33.364 39.8758 35.7121 36.9059 35.722 36.0329C35.7318 35.1623 35.304 33.8159 35.304 33.8159L33.1919 36.9574Z" fill="white"/>
<path fill-rule="evenodd" clip-rule="evenodd" d="M33.2344 35.6651C33.2344 35.6651 35.1252 33.3844 35.1449 33.0263C35.1646 32.6683 34.9457 32.293 34.7416 31.859C34.7195 31.783 34.6925 31.6996 34.663 31.6039C34.3482 30.6009 34.5056 30.1497 34.5056 30.1497C34.1097 30.5837 34.4589 32.0527 34.7343 32.5015C34.8105 32.705 34.867 32.8865 34.8129 33.0386C34.6556 33.4898 33.2344 35.6651 33.2344 35.6651Z" fill="white"/>
<path fill-rule="evenodd" clip-rule="evenodd" d="M36.6543 23.2534C36.8412 22.4785 36.5732 19.852 35.9609 18.7533C36.2265 19.6214 36.5019 22.7581 36.2363 23.6409C38.0583 23.4766 37.9501 22.2308 37.9526 20.9384C37.869 22.5226 37.3723 22.9984 36.6543 23.2534Z" fill="white"/>
<path fill-rule="evenodd" clip-rule="evenodd" d="M37.5212 18.7069C37.6564 18.572 37.74 18.388 37.74 18.182C37.74 17.9785 37.6564 17.7921 37.5212 17.6572C37.386 17.5223 37.2016 17.439 36.995 17.439C36.7909 17.439 36.6041 17.5223 36.4688 17.6572C36.3336 17.7921 36.25 17.976 36.25 18.182C36.25 18.3856 36.3336 18.572 36.4688 18.7069C36.6041 18.8417 36.7885 18.9251 36.995 18.9251C37.2016 18.9227 37.386 18.8393 37.5212 18.7069ZM36.6237 18.182C36.6237 18.079 36.6655 17.9858 36.7319 17.9196C36.7983 17.8534 36.8918 17.8117 36.995 17.8117C37.0983 17.8117 37.1917 17.8534 37.2581 17.9196C37.3245 17.9858 37.3663 18.079 37.3663 18.182C37.3663 18.285 37.3245 18.3782 37.2581 18.4444C37.1917 18.5107 37.0983 18.5524 36.995 18.5524C36.8918 18.5524 36.7983 18.5107 36.7319 18.4444C36.6655 18.3782 36.6237 18.285 36.6237 18.182Z" fill="white"/>
<path fill-rule="evenodd" clip-rule="evenodd" d="M37.9123 15.6953C37.6296 14.7609 36.8305 14.1061 35.8125 14.5304C36.5206 14.4446 37.3025 15.038 37.5829 15.8179C38.0476 17.1103 38.0894 18.979 38.109 19.6387C38.232 19.0183 38.318 17.0367 37.9123 15.6953Z" fill="white"/>
<path fill-rule="evenodd" clip-rule="evenodd" d="M29.4578 17.4658L29.0004 16.6173L29.175 17.5664L28.457 18.0421L29.3078 17.8018L29.7332 18.6185L29.5807 17.7062L29.893 17.5615L30.5028 17.277L29.861 17.3923L29.4578 17.4658Z" fill="white"/>
<path fill-rule="evenodd" clip-rule="evenodd" d="M27.967 20.8452C27.8243 20.9727 27.8293 21.2131 27.9792 21.3798C28.1292 21.5466 28.3677 21.5785 28.5104 21.4509C28.653 21.3234 28.6481 21.0831 28.4981 20.9163C28.3481 20.7471 28.1096 20.7152 27.967 20.8452Z" fill="white"/>
<path fill-rule="evenodd" clip-rule="evenodd" d="M25.0577 18.2212C25.0823 18.1035 25.0183 17.9906 24.9175 17.971C24.8167 17.9514 24.7135 18.0299 24.6889 18.1476C24.6643 18.2653 24.7282 18.3781 24.829 18.4002C24.9323 18.4198 25.0331 18.3413 25.0577 18.2212Z" fill="white"/>
<path fill-rule="evenodd" clip-rule="evenodd" d="M24.8329 26.5275C24.9264 26.3754 24.8944 26.1866 24.7641 26.1056C24.6338 26.0247 24.4518 26.086 24.3584 26.2381C24.265 26.3901 24.2969 26.579 24.4272 26.6599C24.5576 26.7384 24.7395 26.6795 24.8329 26.5275Z" fill="white"/>
<path fill-rule="evenodd" clip-rule="evenodd" d="M31.3377 18.0668L31.4656 18.312L31.4189 18.0373L31.6967 17.9074L31.382 17.9638L31.2443 17.7112L31.2984 17.9957L31.082 18.1379L31.3377 18.0668Z" fill="white"/>
<path fill-rule="evenodd" clip-rule="evenodd" d="M30.3916 21.1836C30.4039 21.1247 30.372 21.0683 30.3228 21.0585C30.2711 21.0487 30.222 21.0879 30.2097 21.1468C30.1974 21.2057 30.2293 21.2621 30.2785 21.2719C30.3277 21.2817 30.3793 21.2424 30.3916 21.1836Z" fill="white"/>
<path fill-rule="evenodd" clip-rule="evenodd" d="M29.1026 23.587C29.1149 23.5282 29.0829 23.4718 29.0337 23.462C28.9821 23.4521 28.9329 23.4914 28.9206 23.5502C28.9083 23.6091 28.9403 23.6655 28.9895 23.6753C29.0411 23.6851 29.0927 23.6459 29.1026 23.587Z" fill="white"/>
<path fill-rule="evenodd" clip-rule="evenodd" d="M28.5303 26.5397C28.4368 26.6918 28.4688 26.8806 28.5991 26.9615C28.7294 27.0425 28.9114 26.9812 29.0048 26.8291C29.0983 26.6771 29.0663 26.4882 28.936 26.4073C28.8057 26.3288 28.6237 26.3877 28.5303 26.5397Z" fill="white"/>
<path fill-rule="evenodd" clip-rule="evenodd" d="M30.8814 27.783C30.8297 27.7732 30.7806 27.8124 30.7683 27.8713C30.756 27.9301 30.7879 27.9865 30.8371 27.9964C30.8887 28.0062 30.9379 27.9669 30.9502 27.9081C30.965 27.8492 30.933 27.7928 30.8814 27.783Z" fill="white"/>
<path fill-rule="evenodd" clip-rule="evenodd" d="M9.03826 27.1528L8.90056 26.8977L8.95466 27.1822L8.73828 27.3269L8.994 27.2533L9.12186 27.4985L9.07514 27.2239L9.35299 27.0963L9.03826 27.1528Z" fill="white"/>
<path fill-rule="evenodd" clip-rule="evenodd" d="M8.0274 24.5729C8.05445 24.5778 8.12821 24.5435 8.14051 24.4846C8.1528 24.4258 8.11592 24.3694 8.07166 24.3596C8.02494 24.3498 7.98806 24.3767 7.96839 24.4184C7.96347 24.4282 7.96593 24.416 7.95855 24.4478C7.95118 24.4797 7.97085 24.5508 8.01265 24.568C8.01756 24.5705 8.00035 24.5656 8.0274 24.5729Z" fill="white"/>
<path fill-rule="evenodd" clip-rule="evenodd" d="M6.21456 19.2511L6.46782 19.7416L6.37684 19.1947L6.93008 18.9372L6.30308 19.05L6.03015 18.5399L6.13588 19.1089L5.70312 19.3958L6.21456 19.2511Z" fill="white"/>
<path fill-rule="evenodd" clip-rule="evenodd" d="M10.6221 18.307C10.6344 18.2481 10.6024 18.1917 10.5532 18.1819C10.5016 18.1721 10.4524 18.2114 10.4401 18.2702C10.4278 18.3291 10.4598 18.3855 10.509 18.3953C10.5606 18.4051 10.6098 18.3659 10.6221 18.307Z" fill="white"/>
<path fill-rule="evenodd" clip-rule="evenodd" d="M28.4045 32.1703L27.9472 31.3218L28.1242 32.2709L27.4062 32.7466L28.2545 32.5087L28.6799 33.3229L28.5275 32.4106L29.4495 31.9815L28.4045 32.1703Z" fill="white"/>
<path fill-rule="evenodd" clip-rule="evenodd" d="M13.206 15.2783C13.1126 15.4303 13.1446 15.6191 13.2749 15.7001C13.4052 15.781 13.5872 15.7197 13.6806 15.5676C13.774 15.4156 13.7421 15.2268 13.6118 15.1458C13.4814 15.0673 13.2995 15.1262 13.206 15.2783Z" fill="white"/>
<path fill-rule="evenodd" clip-rule="evenodd" d="M15.2635 21.5589C15.2709 21.5197 15.2439 21.4436 15.1947 21.4338C15.1431 21.424 15.0914 21.4755 15.0816 21.5221C15.0718 21.5687 15.084 21.5932 15.1037 21.6178C15.1504 21.6153 15.1972 21.6129 15.2439 21.608V21.6104C15.2512 21.5957 15.2562 21.5981 15.2635 21.5589Z" fill="white"/>
<path fill-rule="evenodd" clip-rule="evenodd" d="M19.8526 15.8129C19.8649 15.754 19.8329 15.6976 19.7837 15.6878C19.7321 15.678 19.6829 15.7172 19.6706 15.7761C19.6583 15.8349 19.6903 15.8913 19.7395 15.9011C19.7886 15.9109 19.8403 15.8717 19.8526 15.8129Z" fill="white"/>
<path fill-rule="evenodd" clip-rule="evenodd" d="M19.2212 21.5074C19.1696 21.4976 19.1204 21.5368 19.1081 21.5956C19.0958 21.6545 19.1278 21.7109 19.177 21.7207C19.2261 21.7305 19.2778 21.6913 19.2901 21.6324C19.3048 21.5736 19.2728 21.5172 19.2212 21.5074Z" fill="white"/>
<path fill-rule="evenodd" clip-rule="evenodd" d="M4.17333 17.8828C4.30365 17.9637 4.4856 17.9024 4.57904 17.7504C4.67247 17.5983 4.64051 17.4095 4.51019 17.3285C4.37987 17.2476 4.19792 17.3089 4.10449 17.461C4.01105 17.6155 4.04301 17.8043 4.17333 17.8828Z" fill="white"/>
<path fill-rule="evenodd" clip-rule="evenodd" d="M2.36199 14.165C0.746542 14.0718 0.544918 14.8811 0.262154 16.4064C0.00151842 17.8019 -0.350093 22.3412 0.803094 23.3418C1.24814 23.7293 1.72515 23.7342 2.25626 23.7244C1.67844 23.1775 1.51615 22.2088 1.2924 21.4559C1.31945 21.814 1.34649 22.1745 1.37354 22.5325C0.918659 21.814 0.658024 19.8006 1.26781 19.1041C1.58992 18.7387 1.91448 18.6994 1.92186 18.0912C1.93169 17.5345 1.40305 16.995 0.950624 17.1667C0.808012 17.2206 0.761294 16.8626 0.827683 16.3868C1.09078 14.5157 1.70548 14.4077 2.36199 14.165ZM1.08094 17.3384C1.28502 17.3384 1.47189 17.4217 1.60713 17.5566C1.74236 17.6915 1.82596 17.8754 1.82596 18.0814C1.82596 18.285 1.74236 18.4714 1.60713 18.6062C1.47189 18.7411 1.28748 18.8245 1.08094 18.8245C0.8744 18.8245 0.689989 18.7411 0.554753 18.6062C0.419518 18.4714 0.335918 18.2874 0.335918 18.0814C0.335918 17.8779 0.419518 17.6915 0.554753 17.5566C0.689989 17.4217 0.8744 17.3384 1.08094 17.3384Z" fill="white"/>
<path fill-rule="evenodd" clip-rule="evenodd" d="M1.08222 18.4494C1.18549 18.4494 1.27893 18.4077 1.34531 18.3415C1.4117 18.2752 1.4535 18.1821 1.4535 18.0791C1.4535 17.9761 1.4117 17.8829 1.34531 17.8166C1.27893 17.7504 1.18549 17.7087 1.08222 17.7087C0.978949 17.7087 0.885514 17.7504 0.819126 17.8166C0.752737 17.8829 0.710938 17.9761 0.710938 18.0791C0.710938 18.1821 0.752737 18.2752 0.819126 18.3415C0.885514 18.4077 0.978949 18.4494 1.08222 18.4494Z" fill="white"/>
<path fill-rule="evenodd" clip-rule="evenodd" d="M2.89163 16.556C3.11784 14.5671 4.09153 11.9553 4.68165 11.0135C3.15718 11.9675 2.77115 15.4131 2.89163 16.556Z" fill="white"/>
<path fill-rule="evenodd" clip-rule="evenodd" d="M34.0474 11.4379C33.5704 7.31548 29.3756 2.49653 24.7383 1.36353C28.638 2.68046 32.5795 7.45036 34.0474 11.4379Z" fill="white"/>
<path fill-rule="evenodd" clip-rule="evenodd" d="M25.8082 43.7653C25.0386 43.7653 24.4141 44.3882 24.4141 45.1558C24.4141 45.9234 25.0386 46.5463 25.8082 46.5463C26.5778 46.5463 27.2024 45.9234 27.2024 45.1558C27.2024 44.3882 26.5778 43.7653 25.8082 43.7653ZM26.6467 45.992C26.1844 46.4531 25.432 46.4531 24.9698 45.992C24.5075 45.531 24.5075 44.7805 24.9698 44.3195C25.432 43.8584 26.1844 43.8584 26.6467 44.3195C27.1089 44.7805 27.1089 45.531 26.6467 45.992Z" fill="white"/>
<path fill-rule="evenodd" clip-rule="evenodd" d="M22.7292 1.87341C22.6678 2.57725 22.1637 3.13639 21.6597 3.58028C19.4541 5.52748 20.0663 6.56729 22.4858 7.99703C23.2628 8.45563 24.3152 9.05892 25.1807 9.54449C24.8733 9.23794 23.5038 8.30113 22.7022 7.69539C20.7843 6.24112 20.3147 5.77026 21.9965 3.92116C22.4588 3.41351 23.0981 2.58706 22.7292 1.87341Z" fill="white"/>
<path fill-rule="evenodd" clip-rule="evenodd" d="M29.7073 5.59875C29.7023 5.59384 29.6974 5.58648 29.6925 5.58158C29.6876 5.57667 29.6827 5.57177 29.6778 5.56441C29.1098 4.94641 28.2393 4.08562 27.5017 3.70305C27.4771 3.69079 27.2902 3.58779 27.2657 3.60495C27.2632 3.62948 27.4378 3.75455 27.4599 3.76926C28.2123 4.36519 28.8368 5.03224 29.4663 5.75079C29.4712 5.7557 29.4761 5.7606 29.481 5.76551C29.486 5.77041 29.4909 5.77777 29.4958 5.78268C29.5081 5.79739 29.5228 5.8121 29.5376 5.82682C30.1843 6.53801 30.7473 7.21978 31.2981 8.00945C31.3104 8.02907 31.4211 8.19583 31.4481 8.19338C31.4653 8.17376 31.3793 7.99718 31.367 7.97266C31.0498 7.22468 30.2851 6.2658 29.7515 5.64044C29.7343 5.63063 29.7196 5.61591 29.7073 5.59875Z" fill="white"/>
<path fill-rule="evenodd" clip-rule="evenodd" d="M11.0294 34.3945C11.0122 34.4117 10.995 34.4313 10.9901 34.4583C10.9778 34.5172 11.0097 34.5736 11.0589 34.5834C11.1105 34.5932 11.1597 34.554 11.172 34.4951C11.1745 34.4828 11.1671 34.4755 11.1671 34.4632C11.3663 34.5662 11.5605 34.6741 11.7695 34.7673C17.6117 37.3963 24.1767 35.6109 25.7897 34.7011C22.0597 35.6085 18.4821 35.6649 15.5389 35.1205L15.5118 35.069L15.5217 35.1155C14.2603 34.8801 13.1145 34.5368 12.126 34.0978C6.61828 31.6552 4.1865 25.4801 4.10044 19.7292C3.70457 25.7327 5.64458 31.5547 11.0294 34.3945Z" fill="white"/>
<path fill-rule="evenodd" clip-rule="evenodd" d="M8.47035 29.5121C7.62451 28.7861 6.73933 26.8684 6.13938 24.8206C5.57877 22.9053 5.28125 20.8723 5.21241 19.7344C4.90751 22.123 6.05086 27.972 8.47035 29.5121Z" fill="white"/>
<path fill-rule="evenodd" clip-rule="evenodd" d="M33.2653 18.2212C34.1333 20.9703 33.7964 26.1277 32.5547 28.7248C34.4406 26.2748 34.7873 20.9066 33.2653 18.2212Z" fill="white"/>
<path fill-rule="evenodd" clip-rule="evenodd" d="M12.8798 22.6649C12.9733 22.5129 12.9413 22.324 12.811 22.2431C12.6807 22.1622 12.4987 22.2235 12.4053 22.3755C12.3118 22.5276 12.3438 22.7164 12.4741 22.7973C12.6044 22.8783 12.7864 22.8194 12.8798 22.6649Z" fill="white"/>
<path fill-rule="evenodd" clip-rule="evenodd" d="M9.29779 17.8779C9.39122 17.7259 9.35926 17.537 9.22894 17.4561C9.09862 17.3752 8.91667 17.4365 8.82324 17.5885C8.7298 17.7406 8.76176 17.9294 8.89208 18.0104C9.0224 18.0913 9.20435 18.03 9.29779 17.8779Z" fill="white"/>
<path fill-rule="evenodd" clip-rule="evenodd" d="M31.3662 23.2314C31.2728 23.3834 31.3047 23.5723 31.4351 23.6532C31.5654 23.7341 31.7473 23.6728 31.8408 23.5208C31.9342 23.3687 31.9022 23.1799 31.7719 23.0989C31.6416 23.0205 31.4596 23.0793 31.3662 23.2314Z" fill="white"/>
<path fill-rule="evenodd" clip-rule="evenodd" d="M22.1811 15.1608C22.1565 15.2785 22.2204 15.3913 22.3212 15.4109C22.422 15.4305 22.5253 15.352 22.5499 15.2343C22.5745 15.1166 22.5105 15.0038 22.4097 14.9842C22.3065 14.9621 22.2032 15.0406 22.1811 15.1608Z" fill="white"/>
<path fill-rule="evenodd" clip-rule="evenodd" d="M11.1714 23.077C11.0706 23.0574 10.9674 23.1358 10.9428 23.2536C10.9182 23.3713 10.9821 23.4841 11.0829 23.5037C11.1837 23.5233 11.287 23.4448 11.3116 23.3271C11.3362 23.2094 11.2723 23.0966 11.1714 23.077Z" fill="white"/>
<path fill-rule="evenodd" clip-rule="evenodd" d="M20.6537 29.4335C20.6291 29.5512 20.693 29.664 20.7939 29.6836C20.8947 29.7032 20.9979 29.6248 21.0225 29.5071C21.0471 29.3893 20.9832 29.2765 20.8824 29.2569C20.7791 29.2373 20.6758 29.3158 20.6537 29.4335Z" fill="white"/>
<path fill-rule="evenodd" clip-rule="evenodd" d="M27.6722 24.0823L27.0329 24.1976L26.6296 24.2711L26.1723 23.4226L26.3469 24.3692L25.6289 24.8474L26.4772 24.6071L26.905 25.4238L26.7526 24.509L27.0624 24.3643L27.6722 24.0823Z" fill="white"/>
<path fill-rule="evenodd" clip-rule="evenodd" d="M9.98554 21.8753L10.2413 22.3657L10.1503 21.8189L10.7035 21.5613L10.0765 21.6742L9.80113 21.1641L9.90686 21.733L9.47656 22.0199L9.98554 21.8753Z" fill="white"/>
<path fill-rule="evenodd" clip-rule="evenodd" d="M29.8421 24.8696L29.5668 24.3595L29.6725 24.9285L29.2422 25.2154L29.7512 25.0707L30.0069 25.5612L29.9159 25.0118L30.4691 24.7568L29.8421 24.8696Z" fill="white"/>
<path fill-rule="evenodd" clip-rule="evenodd" d="M24.2592 30.0026C24.2346 30.1203 24.2985 30.2331 24.3993 30.2527C24.5001 30.2723 24.6034 30.1939 24.628 30.0761C24.6526 29.9584 24.5887 29.8456 24.4878 29.826C24.3846 29.8064 24.2813 29.8849 24.2592 30.0026Z" fill="white"/>
<path fill-rule="evenodd" clip-rule="evenodd" d="M17.8134 30.1643C17.9142 30.184 18.0175 30.1055 18.0421 29.9878C18.0667 29.8701 18.0027 29.7572 17.9019 29.7376C17.8011 29.718 17.6978 29.7965 17.6732 29.9142C17.6487 30.0319 17.7126 30.1447 17.8134 30.1643Z" fill="white"/>
<path fill-rule="evenodd" clip-rule="evenodd" d="M19.5524 24.389L19.4147 24.1339L19.4664 24.4184L19.25 24.5606L19.5057 24.4895L19.6336 24.7347L19.5893 24.4601L19.8647 24.3301L19.5524 24.389Z" fill="white"/>
<path fill-rule="evenodd" clip-rule="evenodd" d="M11.8199 30.9271C11.7191 30.9075 11.6158 30.9859 11.5912 31.1036C11.5666 31.2214 11.6305 31.3342 11.7314 31.3562C11.8322 31.3759 11.9354 31.2974 11.96 31.1797C11.9846 31.0595 11.9231 30.9467 11.8199 30.9271Z" fill="white"/>
<path fill-rule="evenodd" clip-rule="evenodd" d="M21.8472 25.4361C21.7464 25.4165 21.6431 25.495 21.6186 25.6127C21.594 25.7304 21.6579 25.8432 21.7587 25.8628C21.8595 25.8824 21.9628 25.804 21.9874 25.6863C22.012 25.5685 21.948 25.4557 21.8472 25.4361Z" fill="white"/>
<path fill-rule="evenodd" clip-rule="evenodd" d="M21.6281 26.6083L21.4929 26.3557L21.5445 26.6402L21.3281 26.7824L21.5838 26.7113L21.7117 26.9565L21.665 26.6819L21.9428 26.5519L21.6281 26.6083Z" fill="white"/>
<path fill-rule="evenodd" clip-rule="evenodd" d="M26.3057 21.1935C26.318 21.1346 26.286 21.0782 26.2368 21.0684C26.1852 21.0586 26.136 21.0978 26.1237 21.1567C26.1114 21.2155 26.1434 21.2719 26.1926 21.2818C26.2442 21.2916 26.2934 21.2523 26.3057 21.1935Z" fill="white"/>
<path fill-rule="evenodd" clip-rule="evenodd" d="M22.5808 21.5344C22.5685 21.5932 22.6004 21.6496 22.6496 21.6594C22.7012 21.6693 22.7504 21.63 22.7627 21.5712C22.775 21.5123 22.743 21.4559 22.6939 21.4461C22.6447 21.4363 22.5931 21.4755 22.5808 21.5344Z" fill="white"/>
<path fill-rule="evenodd" clip-rule="evenodd" d="M21.6064 20.6859C21.6998 20.5339 21.6679 20.345 21.5375 20.2641C21.4072 20.1832 21.2253 20.2445 21.1318 20.3965C21.0384 20.5486 21.0704 20.7374 21.2007 20.8183C21.331 20.8968 21.5129 20.838 21.6064 20.6859Z" fill="white"/>
<path fill-rule="evenodd" clip-rule="evenodd" d="M31.4953 25.4213L31.3601 25.1663L31.4117 25.4507L31.1953 25.593L31.451 25.5219L31.5789 25.7671L31.5322 25.4924L31.81 25.3649L31.4953 25.4213Z" fill="white"/>
<path fill-rule="evenodd" clip-rule="evenodd" d="M17.4328 26.4123L17.2951 26.1572L17.3467 26.4417L17.1328 26.5839L17.3861 26.5128L17.5139 26.7581L17.4697 26.4834L17.7451 26.3559L17.4328 26.4123Z" fill="white"/>
<path fill-rule="evenodd" clip-rule="evenodd" d="M12.2874 26.2503L12.2431 25.9756L12.5185 25.8481L12.2062 25.9045L12.0685 25.6494L12.1202 25.9339L11.9062 26.0761L12.1595 26.005L12.2874 26.2503Z" fill="white"/>
<path fill-rule="evenodd" clip-rule="evenodd" d="M14.1476 23.9572L14.0099 23.7021L14.0616 23.9866L13.8477 24.1313L14.1009 24.0577L14.2288 24.303L14.1845 24.0283L14.4599 23.9008L14.1476 23.9572Z" fill="white"/>
<path d="M9.92923 31.1601C9.30715 30.6304 8.72441 30.0198 8.18839 29.3233C8.03102 26.2137 7.87611 23.104 7.71875 19.9968C8.2769 19.2734 8.88423 18.6358 9.5309 18.084C9.66368 22.4419 9.79646 26.8022 9.92923 31.1601Z" fill="white"/>
<path d="M21.6074 15.7518C20.7664 17.2282 19.9304 18.8958 19.1043 20.6419C18.8313 21.2231 18.6002 21.7136 18.4133 22.1109C18.2265 22.5082 18.0691 22.8417 17.9363 23.1114C17.806 23.3812 17.6954 23.6044 17.6068 23.7809C17.5183 23.9575 17.4396 24.112 17.3708 24.242C17.4396 24.3548 17.5183 24.4946 17.6044 24.6614C17.6904 24.8281 17.8036 25.066 17.9437 25.375C18.0839 25.6816 18.2584 26.069 18.4699 26.5301C18.6814 26.9911 18.9444 27.5723 19.2616 28.2615C20.0903 30.0811 20.909 31.8174 21.7106 33.3502C20.6042 33.6567 19.4854 33.8431 18.374 33.8971C17.5011 31.8861 16.6209 29.7623 15.748 27.695C14.8825 29.6839 14.0489 31.5599 13.2572 33.1319C12.3597 32.791 11.4991 32.3349 10.6902 31.7586C11.3393 30.8169 12.0327 29.4877 12.7654 27.9304C13.0211 27.3884 13.24 26.9102 13.4219 26.5178C13.6014 26.1254 13.7539 25.7968 13.8719 25.5369C13.9924 25.2769 14.0932 25.066 14.1743 24.9066C14.2555 24.7472 14.3292 24.605 14.3956 24.4799C14.3268 24.3573 14.253 24.2175 14.1694 24.0703C14.0858 23.9207 13.9801 23.7123 13.8547 23.445C13.7268 23.1801 13.567 22.8466 13.3728 22.4591C13.1785 22.0716 12.9375 21.5812 12.6499 21.0147C11.895 19.5457 11.1598 18.2876 10.4492 17.3704C11.3934 16.7132 12.4064 16.2129 13.4637 15.8622C14.2727 17.4072 15.0989 19.1925 15.9275 21.0686C16.734 19.1116 17.565 17.1227 18.4109 15.2368C19.4805 15.2981 20.5501 15.4722 21.6074 15.7518Z" fill="white"/>
<path d="M29.2512 23.7245C30.0258 23.8839 30.5544 24.2051 30.8913 24.5019C31.2257 24.8109 31.3585 25.0855 31.3167 25.5C31.2945 25.733 31.2306 25.9635 31.1273 26.2283C31.0241 26.4932 30.8716 26.7924 30.6675 27.1406C30.4634 27.4864 30.2053 27.8837 29.8807 28.308C29.5586 28.7298 29.1627 29.1786 28.6882 29.5906C26.7334 31.2705 24.4639 32.5236 22.1133 33.2373C22.6223 31.6015 23.1362 30.0197 23.6451 28.5336C25.536 28.1706 27.3407 27.6483 28.9316 26.991C29.1652 26.8954 29.3324 26.7679 29.4406 26.6256C29.5488 26.4834 29.6078 26.3068 29.6176 26.091C29.6274 25.8752 29.5832 25.733 29.4848 25.6594C29.384 25.5858 29.2193 25.5613 28.9857 25.5981C27.835 25.7771 26.5736 25.9292 25.2458 26.0518C24.7713 26.0959 24.3582 26.0248 24.009 25.8237C23.6599 25.6226 23.3673 25.3136 23.1362 24.8992C22.9026 24.4847 22.7304 23.9697 22.6198 23.3615C22.5092 22.7533 22.4551 22.0765 22.46 21.3407C22.4649 20.5388 22.5337 19.8153 22.6665 19.1924C22.7993 18.5671 23.0009 18.0643 23.2714 17.7014C23.5419 17.3384 23.8886 17.1202 24.3066 17.0613C24.7246 17.0025 25.2212 17.13 25.7818 17.4414C27.9284 18.6284 29.8955 20.2543 31.4863 22.226C31.0831 22.204 30.6626 22.4296 30.2299 22.8784C28.8455 22.1696 27.2498 21.5786 25.5458 21.1225C25.2802 21.0514 25.0811 21.0759 24.9483 21.1985C24.8155 21.3187 24.7467 21.5811 24.7418 21.9784C24.7368 22.3756 24.7983 22.665 24.9262 22.8391C25.054 23.0133 25.2507 23.1138 25.5138 23.1457C26.8391 23.3002 28.103 23.4964 29.2512 23.7245Z" fill="white"/>
</svg>
