<svg width="512" height="513" viewBox="0 0 512 513" fill="none" xmlns="http://www.w3.org/2000/svg">
<rect width="512" height="512" fill="#0F0F0F"/>
<path fill-rule="evenodd" clip-rule="evenodd" d="M170.747 143.033C226.086 130.691 296.505 131.439 353.799 145.972C360.147 147.575 366.308 149.365 372.281 151.315C394.326 158.502 411.629 167.318 424.861 187.194C424.325 186.206 423.816 185.244 423.281 184.255C422.531 182.866 421.808 181.504 421.058 180.114C388.004 128.393 252.631 117.039 198.229 119.604C245.586 108.544 302.184 107.315 337.621 118.055C328.916 113.219 301.246 100.155 279.952 86.3968C260.184 73.6268 249.604 56.9831 276.202 37.9083C323.853 3.76599 243.898 8.36104 213.845 11.834C250.729 2.96453 277.729 1.92262 300.094 5.02161C248.318 -6.65302 195.979 2.64394 157.515 26.5275C124.435 47.0984 99.0962 81.4277 95.0516 108.063C93.9266 115.356 111.98 108.277 110.694 115.356C108.926 125.107 95.2391 153.8 101.668 150.06C112.757 143.594 138.417 135.072 164.292 135.473C159.471 136.755 154.864 138.145 150.524 139.641C123.096 149.178 100.114 160.96 84.3374 185.217C106.596 157.246 136.917 150.567 170.747 143.033Z" fill="white"/>
<path fill-rule="evenodd" clip-rule="evenodd" d="M394.701 177.443C326.371 128.393 162.712 131.706 103.837 189.839C158.426 143.781 330.55 140.201 394.701 177.443Z" fill="white"/>
<path fill-rule="evenodd" clip-rule="evenodd" d="M133.703 236.296C132.604 236.082 131.48 236.937 131.212 238.22C130.944 239.502 131.64 240.731 132.738 240.945C133.837 241.158 134.962 240.303 135.229 239.021C135.497 237.739 134.828 236.51 133.703 236.296Z" fill="white"/>
<path fill-rule="evenodd" clip-rule="evenodd" d="M155.506 318.927C155.238 320.209 155.934 321.438 157.033 321.652C158.131 321.866 159.256 321.011 159.524 319.728C159.792 318.446 159.095 317.217 157.997 317.003C156.872 316.79 155.774 317.645 155.506 318.927Z" fill="white"/>
<path fill-rule="evenodd" clip-rule="evenodd" d="M184.596 329.348L183.096 326.569L183.686 329.668L181.328 331.244L184.114 330.443L185.507 333.114L184.998 330.122L188.025 328.733L184.596 329.348Z" fill="white"/>
<path fill-rule="evenodd" clip-rule="evenodd" d="M162.203 350.88C162.069 351.521 162.417 352.135 162.953 352.242C163.515 352.349 164.051 351.922 164.185 351.28C164.319 350.639 163.97 350.025 163.435 349.918C162.899 349.811 162.337 350.239 162.203 350.88Z" fill="white"/>
<path fill-rule="evenodd" clip-rule="evenodd" d="M187.89 370.915C188.989 371.129 190.114 370.274 190.381 368.992C190.649 367.709 189.953 366.48 188.855 366.267C187.756 366.053 186.631 366.908 186.364 368.19C186.096 369.446 186.792 370.675 187.89 370.915Z" fill="white"/>
<path fill-rule="evenodd" clip-rule="evenodd" d="M207.631 370.222C207.497 370.863 207.845 371.477 208.381 371.584C208.943 371.691 209.479 371.264 209.613 370.623C209.747 369.981 209.399 369.367 208.863 369.26C208.327 369.127 207.765 369.581 207.631 370.222Z" fill="white"/>
<path fill-rule="evenodd" clip-rule="evenodd" d="M229.381 356.596C229.113 357.878 229.81 359.107 230.908 359.321C232.006 359.535 233.131 358.68 233.399 357.397C233.667 356.115 232.97 354.886 231.872 354.673C230.747 354.432 229.649 355.314 229.381 356.596Z" fill="white"/>
<path fill-rule="evenodd" clip-rule="evenodd" d="M213.443 328.705C214.006 328.812 214.541 328.384 214.675 327.743C214.809 327.102 214.461 326.488 213.925 326.381C213.363 326.274 212.827 326.701 212.693 327.343C212.559 327.984 212.908 328.571 213.443 328.705Z" fill="white"/>
<path fill-rule="evenodd" clip-rule="evenodd" d="M249.175 342.09C249.041 342.731 249.389 343.345 249.925 343.452C250.487 343.559 251.023 343.132 251.157 342.491C251.291 341.849 250.943 341.235 250.407 341.128C249.845 341.021 249.309 341.449 249.175 342.09Z" fill="white"/>
<path fill-rule="evenodd" clip-rule="evenodd" d="M253.033 383.39C252.899 384.032 253.247 384.646 253.783 384.753C254.345 384.86 254.881 384.432 255.015 383.791C255.149 383.15 254.801 382.535 254.265 382.429C253.729 382.322 253.167 382.749 253.033 383.39Z" fill="white"/>
<path fill-rule="evenodd" clip-rule="evenodd" d="M306.603 393.304C306.041 393.197 305.505 393.624 305.371 394.265C305.237 394.907 305.585 395.521 306.121 395.628C306.684 395.735 307.219 395.307 307.353 394.666C307.487 394.025 307.166 393.41 306.603 393.304Z" fill="white"/>
<path fill-rule="evenodd" clip-rule="evenodd" d="M279.095 364.53C280.193 364.743 281.318 363.888 281.586 362.606C281.854 361.324 281.157 360.095 280.059 359.881C278.961 359.667 277.836 360.522 277.568 361.805C277.3 363.06 277.997 364.289 279.095 364.53Z" fill="white"/>
<path fill-rule="evenodd" clip-rule="evenodd" d="M159.578 272.31L154.569 263.067L156.498 273.379L148.677 278.588L157.918 275.97L162.551 284.866L160.917 274.928L170.935 270.253L159.578 272.31Z" fill="white"/>
<path fill-rule="evenodd" clip-rule="evenodd" d="M362.183 323.656C362.049 324.298 362.398 324.912 362.933 325.019C363.496 325.126 364.032 324.698 364.165 324.057C364.299 323.416 363.951 322.801 363.415 322.695C362.853 322.588 362.29 323.015 362.183 323.656Z" fill="white"/>
<path fill-rule="evenodd" clip-rule="evenodd" d="M405.737 316.123C405.174 316.016 404.639 316.443 404.505 317.085C404.371 317.726 404.719 318.34 405.255 318.447C405.817 318.554 406.353 318.126 406.487 317.485C406.648 316.844 406.299 316.23 405.737 316.123Z" fill="white"/>
<path fill-rule="evenodd" clip-rule="evenodd" d="M111.551 409.228C117.23 417.349 123.739 425.818 124.89 427.367C110.105 416.12 94.9711 396.671 84.5783 381.577C90.7122 394.214 97.4889 405.861 106.998 419.994C96.9264 412.514 84.3908 398.782 80.1855 392.504C85.7301 418.765 150.792 495.572 186.765 504.281C178.033 489.962 186.202 471.368 204.095 473.719C224.211 476.364 222.791 503.052 206.854 508.422C218.961 510.372 232.22 511.574 245.827 512.002C240.764 511.147 236.104 510.105 231.979 508.849C220.22 505.056 233.559 508.208 230.506 493.568C224.693 475.776 233.907 482.214 257.452 478.688C266.398 477.352 277.273 475.001 287.318 472.65C194.72 475.642 169.328 472.997 111.551 409.228ZM182.908 498.965C174.202 489.053 182.131 472.703 196.408 473.104C184.515 474.734 178.354 488.065 182.908 498.965ZM210.416 508.075C223.89 503.773 224.506 482.882 214.756 476.123C227.532 481.68 226.675 507.059 210.416 508.075Z" fill="white"/>
<path fill-rule="evenodd" clip-rule="evenodd" d="M216.175 491.911C216.175 483.549 209.371 476.763 200.988 476.763C192.604 476.763 185.8 483.549 185.8 491.911C185.8 500.273 192.604 507.059 200.988 507.059C209.371 507.059 216.175 500.273 216.175 491.911ZM191.854 501.021C186.818 495.998 186.818 487.823 191.854 482.801C196.889 477.778 205.086 477.778 210.121 482.801C215.157 487.823 215.157 495.998 210.121 501.021C205.086 506.043 196.889 506.043 191.854 501.021Z" fill="white"/>
<path fill-rule="evenodd" clip-rule="evenodd" d="M264.925 448.603C227.238 446.92 189.256 436.341 171.632 423.704C188.319 427.418 206.051 429.608 224.104 430.143C171.149 424.933 135.016 404.282 111.23 373.212C114.9 379.25 119.132 385.368 123.98 391.619C111.364 383.337 92.1859 358.305 87.1502 334.154C84.7128 339.097 86.6413 345.295 86.1056 350.397C85.8378 353.096 84.0163 356.488 83.9628 359.24C83.7485 369.552 96.3912 383.952 106.757 394.585C108.418 396.268 110.159 398.004 111.9 399.741C114.257 402.038 115.971 403.695 116.561 404.336C146.507 433.669 179.212 467.731 223.113 461.854C211.622 458.221 194.212 451.462 186.31 445.13C207.444 449.004 255.149 449.458 264.925 448.603Z" fill="white"/>
<path fill-rule="evenodd" clip-rule="evenodd" d="M164.078 402.842C189.818 415.024 232.595 421.302 250.943 420.207C226.89 418.096 193.676 411.952 166.328 399.342C144.739 389.404 126.632 372.68 115.944 355.101C128.667 370.356 145.515 384.675 164.801 394.587C191.961 408.585 223.515 415.264 251.318 415.585C391.486 417.134 460.405 309.097 424.861 187.168C454.834 315.081 381.522 408.959 251.479 406.662C120.203 404.338 67.1678 306.346 84.2838 185.245C70.0339 241.881 76.3017 310.46 111.31 358.601C126.417 379.305 144.176 393.411 164.078 402.842Z" fill="white"/>
<path fill-rule="evenodd" clip-rule="evenodd" d="M334.3 455.337C345.711 450.582 360.577 434.633 360.577 434.633C360.577 434.633 348.496 445.426 332.854 452.586C324.738 456.299 315.175 458.49 306.872 458.864C306.845 458.864 323.398 459.879 334.3 455.337Z" fill="white"/>
<path fill-rule="evenodd" clip-rule="evenodd" d="M203.185 481.623C195.336 480.554 191.479 486.672 191.479 486.672C205.569 476.76 211.408 491.534 211.408 491.534C211.408 491.534 211.033 482.718 203.185 481.623Z" fill="white"/>
<path fill-rule="evenodd" clip-rule="evenodd" d="M314.264 478.792C301.461 487.154 306.603 509.462 322.38 510.237C308.88 506.951 304.675 488.063 314.264 478.792Z" fill="white"/>
<path fill-rule="evenodd" clip-rule="evenodd" d="M317.96 492.526C317.96 492.526 323.639 474.146 340.085 487.049C333.389 476.443 318.55 479.702 317.96 492.526Z" fill="white"/>
<path fill-rule="evenodd" clip-rule="evenodd" d="M337.888 473.851C346.46 476.736 350.986 489.907 347.022 497.761C353.799 490.121 348.924 474.572 337.888 473.851Z" fill="white"/>
<path fill-rule="evenodd" clip-rule="evenodd" d="M350.638 499.122C372.468 497.225 407.825 441.31 411.013 435.058C400.861 451.382 368.531 489.745 350.638 499.122Z" fill="white"/>
<path fill-rule="evenodd" clip-rule="evenodd" d="M390.683 385.128C371.344 405.271 340.112 421.541 310.889 427.765C339.898 425.254 376.219 408.958 390.683 385.128Z" fill="white"/>
<path fill-rule="evenodd" clip-rule="evenodd" d="M409.594 402.6L410.398 401.638C399.549 415.557 381.469 437.891 365.21 453.44C359.612 458.783 346.086 469.522 317.291 472.408C327.148 471.766 347.157 467.839 351.55 479.353C353.586 484.643 352.943 491.643 352.943 491.643C355.943 485.151 355.3 481.33 354.496 477.377C352.541 467.652 355.353 468.454 363.737 459.424C377.987 444.036 401.933 416.492 411.121 400.783L429.71 378.289C429.71 378.289 434.826 390.979 433.058 397.337C431.29 403.695 411.469 434.391 411.469 434.391C411.469 434.391 437.049 402.039 437.156 392.528C437.263 383.044 432.603 368.378 432.603 368.378L409.594 402.6Z" fill="white"/>
<path fill-rule="evenodd" clip-rule="evenodd" d="M410.022 388.522C410.022 388.522 430.62 363.676 430.834 359.776C431.048 355.876 428.664 351.788 426.441 347.059C426.2 346.231 425.905 345.323 425.584 344.281C422.155 333.354 423.87 328.439 423.87 328.439C419.557 333.167 423.361 349.17 426.361 354.059C427.191 356.276 427.807 358.253 427.218 359.91C425.504 364.825 410.022 388.522 410.022 388.522Z" fill="white"/>
<path fill-rule="evenodd" clip-rule="evenodd" d="M447.308 253.313C449.343 244.871 446.424 216.258 439.754 204.29C442.647 213.747 445.647 247.916 442.754 257.534C462.602 255.744 461.424 242.172 461.45 228.093C460.54 245.352 455.129 250.534 447.308 253.313Z" fill="white"/>
<path fill-rule="evenodd" clip-rule="evenodd" d="M456.762 203.785C458.235 202.316 459.146 200.312 459.146 198.068C459.146 195.851 458.235 193.82 456.762 192.351C455.289 190.882 453.28 189.973 451.03 189.973C448.807 189.973 446.771 190.882 445.298 192.351C443.825 193.82 442.914 195.824 442.914 198.068C442.914 200.286 443.825 202.316 445.298 203.785C446.771 205.255 448.78 206.163 451.03 206.163C453.28 206.136 455.289 205.228 456.762 203.785ZM446.986 198.068C446.986 196.946 447.441 195.931 448.164 195.21C448.887 194.488 449.905 194.034 451.03 194.034C452.155 194.034 453.173 194.488 453.896 195.21C454.619 195.931 455.075 196.946 455.075 198.068C455.075 199.19 454.619 200.205 453.896 200.927C453.173 201.648 452.155 202.102 451.03 202.102C449.905 202.102 448.887 201.648 448.164 200.927C447.441 200.205 446.986 199.19 446.986 198.068Z" fill="white"/>
<path fill-rule="evenodd" clip-rule="evenodd" d="M461.021 170.978C457.941 160.8 449.236 153.667 438.147 158.289C445.861 157.354 454.379 163.819 457.432 172.314C462.495 186.393 462.95 206.75 463.164 213.937C464.504 207.178 465.441 185.592 461.021 170.978Z" fill="white"/>
<path fill-rule="evenodd" clip-rule="evenodd" d="M368.907 190.267L363.925 181.024L365.826 191.363L358.005 196.546L367.273 193.927L371.907 202.824L370.246 192.886L373.648 191.309L380.291 188.21L373.3 189.466L368.907 190.267Z" fill="white"/>
<path fill-rule="evenodd" clip-rule="evenodd" d="M352.674 227.081C351.121 228.47 351.174 231.088 352.808 232.905C354.442 234.722 357.04 235.069 358.594 233.68C360.147 232.29 360.094 229.672 358.46 227.856C356.826 226.012 354.228 225.665 352.674 227.081Z" fill="white"/>
<path fill-rule="evenodd" clip-rule="evenodd" d="M320.96 198.494C321.228 197.212 320.531 195.983 319.433 195.769C318.335 195.556 317.21 196.411 316.942 197.693C316.674 198.975 317.371 200.204 318.469 200.445C319.594 200.658 320.692 199.803 320.96 198.494Z" fill="white"/>
<path fill-rule="evenodd" clip-rule="evenodd" d="M318.522 288.98C319.54 287.324 319.192 285.266 317.772 284.385C316.353 283.503 314.37 284.171 313.353 285.828C312.335 287.484 312.683 289.541 314.103 290.423C315.522 291.277 317.504 290.636 318.522 288.98Z" fill="white"/>
<path fill-rule="evenodd" clip-rule="evenodd" d="M389.397 196.813L390.79 199.484L390.281 196.492L393.308 195.076L389.879 195.691L388.379 192.939L388.968 196.038L386.611 197.587L389.397 196.813Z" fill="white"/>
<path fill-rule="evenodd" clip-rule="evenodd" d="M379.085 230.767C379.219 230.126 378.871 229.512 378.335 229.405C377.772 229.298 377.237 229.725 377.103 230.366C376.969 231.008 377.317 231.622 377.853 231.729C378.389 231.836 378.951 231.408 379.085 230.767Z" fill="white"/>
<path fill-rule="evenodd" clip-rule="evenodd" d="M365.023 256.948C365.157 256.307 364.809 255.692 364.273 255.585C363.71 255.479 363.175 255.906 363.041 256.547C362.907 257.188 363.255 257.803 363.791 257.91C364.353 258.017 364.916 257.589 365.023 256.948Z" fill="white"/>
<path fill-rule="evenodd" clip-rule="evenodd" d="M358.808 289.114C357.791 290.77 358.139 292.827 359.558 293.709C360.978 294.59 362.96 293.922 363.978 292.266C364.996 290.61 364.648 288.553 363.228 287.671C361.808 286.816 359.826 287.457 358.808 289.114Z" fill="white"/>
<path fill-rule="evenodd" clip-rule="evenodd" d="M384.389 302.657C383.826 302.55 383.29 302.978 383.156 303.619C383.023 304.26 383.371 304.875 383.906 304.982C384.469 305.088 385.005 304.661 385.139 304.02C385.299 303.379 384.951 302.764 384.389 302.657Z" fill="white"/>
<path fill-rule="evenodd" clip-rule="evenodd" d="M146.479 295.792L144.979 293.013L145.569 296.112L143.211 297.689L145.997 296.887L147.39 299.559L146.881 296.566L149.908 295.177L146.479 295.792Z" fill="white"/>
<path fill-rule="evenodd" clip-rule="evenodd" d="M135.444 267.687C135.739 267.74 136.542 267.366 136.676 266.725C136.81 266.084 136.408 265.469 135.926 265.362C135.417 265.256 135.015 265.549 134.801 266.004C134.748 266.11 134.774 265.977 134.694 266.324C134.614 266.671 134.828 267.446 135.283 267.633C135.337 267.66 135.149 267.606 135.444 267.687Z" fill="white"/>
<path fill-rule="evenodd" clip-rule="evenodd" d="M115.703 209.713L118.462 215.056L117.471 209.098L123.498 206.293L116.668 207.522L113.694 201.965L114.846 208.163L110.132 211.289L115.703 209.713Z" fill="white"/>
<path fill-rule="evenodd" clip-rule="evenodd" d="M163.702 199.429C163.836 198.788 163.488 198.174 162.952 198.067C162.39 197.96 161.854 198.387 161.72 199.029C161.586 199.67 161.935 200.284 162.47 200.391C163.033 200.498 163.568 200.071 163.702 199.429Z" fill="white"/>
<path fill-rule="evenodd" clip-rule="evenodd" d="M357.442 350.451L352.46 341.208L354.388 351.546L346.567 356.729L355.808 354.138L360.442 363.007L358.781 353.069L368.826 348.394L357.442 350.451Z" fill="white"/>
<path fill-rule="evenodd" clip-rule="evenodd" d="M191.854 166.435C190.836 168.092 191.184 170.149 192.604 171.031C194.024 171.912 196.006 171.244 197.024 169.588C198.041 167.932 197.693 165.874 196.274 164.993C194.854 164.138 192.872 164.779 191.854 166.435Z" fill="white"/>
<path fill-rule="evenodd" clip-rule="evenodd" d="M214.273 234.854C214.354 234.427 214.059 233.599 213.523 233.492C212.961 233.385 212.399 233.946 212.291 234.454C212.184 234.961 212.318 235.229 212.532 235.496C213.041 235.469 213.55 235.442 214.059 235.389V235.416C214.14 235.255 214.193 235.282 214.273 234.854Z" fill="white"/>
<path fill-rule="evenodd" clip-rule="evenodd" d="M264.255 172.259C264.389 171.618 264.041 171.004 263.505 170.897C262.943 170.79 262.407 171.217 262.273 171.858C262.139 172.5 262.487 173.114 263.023 173.221C263.559 173.328 264.121 172.9 264.255 172.259Z" fill="white"/>
<path fill-rule="evenodd" clip-rule="evenodd" d="M257.372 234.293C256.809 234.186 256.274 234.614 256.14 235.255C256.006 235.896 256.354 236.51 256.89 236.617C257.425 236.724 257.988 236.297 258.122 235.655C258.283 235.014 257.934 234.4 257.372 234.293Z" fill="white"/>
<path fill-rule="evenodd" clip-rule="evenodd" d="M93.4717 194.808C94.8913 195.69 96.8734 195.022 97.8913 193.366C98.9091 191.709 98.5609 189.652 97.1413 188.771C95.7217 187.889 93.7395 188.557 92.7217 190.213C91.7038 191.896 92.0521 193.953 93.4717 194.808Z" fill="white"/>
<path fill-rule="evenodd" clip-rule="evenodd" d="M73.7306 154.308C56.1325 153.292 53.9361 162.109 50.8558 178.726C48.0165 193.927 44.1862 243.377 56.7486 254.277C61.5968 258.498 66.7932 258.551 72.5788 258.444C66.2842 252.487 64.5164 241.934 62.0789 233.733C62.3736 237.633 62.6682 241.56 62.9628 245.461C58.0075 237.633 55.1683 215.7 61.8111 208.113C65.32 204.132 68.8556 203.704 68.936 197.079C69.0431 191.015 63.2843 185.137 58.3557 187.007C56.8022 187.595 56.2933 183.695 57.0165 178.512C59.8825 158.128 66.5789 156.952 73.7306 154.308ZM59.7754 188.877C61.9986 188.877 64.0343 189.786 65.5075 191.255C66.9807 192.724 67.8914 194.728 67.8914 196.972C67.8914 199.19 66.9807 201.22 65.5075 202.689C64.0343 204.159 62.0253 205.067 59.7754 205.067C57.5254 205.067 55.5165 204.159 54.0433 202.689C52.5701 201.22 51.6594 199.216 51.6594 196.972C51.6594 194.755 52.5701 192.724 54.0433 191.255C55.5165 189.786 57.5254 188.877 59.7754 188.877Z" fill="white"/>
<path fill-rule="evenodd" clip-rule="evenodd" d="M59.7746 200.98C60.8996 200.98 61.9175 200.526 62.6407 199.805C63.3639 199.083 63.8193 198.068 63.8193 196.946C63.8193 195.824 63.3639 194.809 62.6407 194.088C61.9175 193.366 60.8996 192.912 59.7746 192.912C58.6497 192.912 57.6318 193.366 56.9086 194.088C56.1854 194.809 55.73 195.824 55.73 196.946C55.73 198.068 56.1854 199.083 56.9086 199.805C57.6318 200.526 58.6497 200.98 59.7746 200.98Z" fill="white"/>
<path fill-rule="evenodd" clip-rule="evenodd" d="M79.5156 180.353C81.9798 158.687 92.5869 130.235 99.0154 119.976C82.4084 130.368 78.2031 167.904 79.5156 180.353Z" fill="white"/>
<path fill-rule="evenodd" clip-rule="evenodd" d="M418.888 124.601C413.691 79.6921 367.995 27.1963 317.478 14.8538C359.96 29.1999 402.897 81.1614 418.888 124.601Z" fill="white"/>
<path fill-rule="evenodd" clip-rule="evenodd" d="M329.13 476.763C320.747 476.763 313.943 483.549 313.943 491.911C313.943 500.273 320.747 507.059 329.13 507.059C337.514 507.059 344.318 500.273 344.318 491.911C344.318 483.549 337.514 476.763 329.13 476.763ZM338.264 501.021C333.229 506.043 325.032 506.043 319.997 501.021C314.961 495.998 314.961 487.823 319.997 482.801C325.032 477.778 333.229 477.778 338.264 482.801C343.3 487.823 343.3 495.998 338.264 501.021Z" fill="white"/>
<path fill-rule="evenodd" clip-rule="evenodd" d="M295.621 20.4097C294.952 28.077 289.461 34.1681 283.97 39.0036C259.943 60.2156 266.613 71.543 292.97 87.118C301.434 92.1138 312.898 98.6858 322.327 103.975C318.978 100.636 304.059 90.4308 295.327 83.8321C274.434 67.9898 269.318 62.8605 287.639 42.717C292.675 37.1869 299.639 28.1839 295.621 20.4097Z" fill="white"/>
<path fill-rule="evenodd" clip-rule="evenodd" d="M371.639 60.9906C371.585 60.9372 371.531 60.857 371.478 60.8036C371.424 60.7502 371.371 60.6967 371.317 60.6166C365.13 53.8843 355.648 44.5072 347.612 40.3396C347.344 40.206 345.308 39.084 345.041 39.271C345.014 39.5381 346.916 40.9006 347.157 41.0609C355.353 47.5527 362.156 54.8193 369.014 62.6469C369.067 62.7004 369.121 62.7538 369.174 62.8072C369.228 62.8607 369.281 62.9408 369.335 62.9942C369.469 63.1545 369.63 63.3148 369.79 63.4751C376.835 71.2226 382.969 78.6495 388.969 87.2518C389.103 87.4656 390.308 89.2822 390.603 89.2555C390.79 89.0418 389.853 87.1183 389.719 86.8511C386.263 78.7029 377.933 68.2572 372.121 61.4448C371.933 61.3379 371.772 61.1776 371.639 60.9906Z" fill="white"/>
<path fill-rule="evenodd" clip-rule="evenodd" d="M168.15 374.681C167.962 374.868 167.775 375.082 167.721 375.376C167.587 376.017 167.935 376.631 168.471 376.738C169.034 376.845 169.569 376.418 169.703 375.776C169.73 375.643 169.65 375.563 169.65 375.429C171.819 376.551 173.935 377.727 176.212 378.742C239.854 407.381 311.372 387.932 328.943 378.02C288.309 387.905 249.337 388.52 217.274 382.589L216.98 382.028L217.087 382.535C203.346 379.971 190.864 376.23 180.096 371.448C120.097 344.84 93.6058 277.57 92.6683 214.923C88.3559 280.322 109.49 343.745 168.15 374.681Z" fill="white"/>
<path fill-rule="evenodd" clip-rule="evenodd" d="M140.292 321.493C131.078 313.585 121.435 292.694 114.899 270.387C108.792 249.522 105.551 227.375 104.801 214.979C101.48 241 113.935 304.716 140.292 321.493Z" fill="white"/>
<path fill-rule="evenodd" clip-rule="evenodd" d="M410.37 198.495C419.825 228.443 416.156 284.625 402.629 312.917C423.173 286.228 426.95 227.748 410.37 198.495Z" fill="white"/>
<path fill-rule="evenodd" clip-rule="evenodd" d="M188.292 246.903C189.31 245.247 188.962 243.189 187.542 242.308C186.123 241.426 184.14 242.094 183.123 243.75C182.105 245.407 182.453 247.464 183.873 248.346C185.292 249.227 187.274 248.586 188.292 246.903Z" fill="white"/>
<path fill-rule="evenodd" clip-rule="evenodd" d="M149.292 194.754C150.31 193.097 149.962 191.04 148.542 190.159C147.123 189.277 145.14 189.945 144.123 191.601C143.105 193.258 143.453 195.315 144.873 196.196C146.292 197.078 148.274 196.41 149.292 194.754Z" fill="white"/>
<path fill-rule="evenodd" clip-rule="evenodd" d="M389.692 253.074C388.674 254.73 389.022 256.787 390.442 257.669C391.862 258.55 393.844 257.883 394.862 256.226C395.88 254.57 395.531 252.513 394.112 251.631C392.692 250.776 390.71 251.417 389.692 253.074Z" fill="white"/>
<path fill-rule="evenodd" clip-rule="evenodd" d="M289.622 165.156C289.354 166.438 290.05 167.667 291.149 167.88C292.247 168.094 293.372 167.239 293.64 165.957C293.908 164.675 293.211 163.446 292.113 163.232C290.988 162.992 289.863 163.846 289.622 165.156Z" fill="white"/>
<path fill-rule="evenodd" clip-rule="evenodd" d="M169.703 251.392C168.604 251.178 167.479 252.033 167.212 253.315C166.944 254.598 167.64 255.826 168.738 256.04C169.837 256.254 170.962 255.399 171.229 254.117C171.497 252.834 170.801 251.605 169.703 251.392Z" fill="white"/>
<path fill-rule="evenodd" clip-rule="evenodd" d="M272.988 320.637C272.72 321.919 273.416 323.148 274.514 323.362C275.613 323.576 276.738 322.721 277.005 321.439C277.273 320.156 276.577 318.927 275.479 318.714C274.354 318.5 273.229 319.355 272.988 320.637Z" fill="white"/>
<path fill-rule="evenodd" clip-rule="evenodd" d="M349.433 262.343L342.469 263.599L338.076 264.401L333.094 255.157L334.996 265.469L327.175 270.679L336.416 268.061L341.076 276.957L339.416 266.992L342.79 265.416L349.433 262.343Z" fill="white"/>
<path fill-rule="evenodd" clip-rule="evenodd" d="M156.792 238.301L159.578 243.644L158.587 237.686L164.614 234.881L157.783 236.11L154.783 230.553L155.935 236.751L151.248 239.877L156.792 238.301Z" fill="white"/>
<path fill-rule="evenodd" clip-rule="evenodd" d="M373.085 270.918L370.085 265.362L371.237 271.56L366.55 274.685L372.094 273.109L374.88 278.452L373.889 272.468L379.915 269.69L373.085 270.918Z" fill="white"/>
<path fill-rule="evenodd" clip-rule="evenodd" d="M312.255 326.837C311.987 328.119 312.684 329.348 313.782 329.562C314.88 329.775 316.005 328.92 316.273 327.638C316.541 326.356 315.844 325.127 314.746 324.913C313.621 324.699 312.496 325.554 312.255 326.837Z" fill="white"/>
<path fill-rule="evenodd" clip-rule="evenodd" d="M242.051 328.599C243.149 328.812 244.274 327.958 244.542 326.675C244.81 325.393 244.113 324.164 243.015 323.95C241.917 323.736 240.792 324.591 240.524 325.874C240.256 327.156 240.952 328.385 242.051 328.599Z" fill="white"/>
<path fill-rule="evenodd" clip-rule="evenodd" d="M261.015 265.683L259.515 262.904L260.077 266.003L257.72 267.553L260.506 266.778L261.899 269.45L261.416 266.457L264.416 265.042L261.015 265.683Z" fill="white"/>
<path fill-rule="evenodd" clip-rule="evenodd" d="M176.774 336.908C175.676 336.694 174.551 337.549 174.283 338.831C174.015 340.114 174.712 341.342 175.81 341.583C176.908 341.797 178.033 340.942 178.301 339.659C178.569 338.35 177.899 337.121 176.774 336.908Z" fill="white"/>
<path fill-rule="evenodd" clip-rule="evenodd" d="M286.006 277.091C284.907 276.877 283.782 277.732 283.515 279.015C283.247 280.297 283.943 281.526 285.041 281.74C286.139 281.953 287.264 281.099 287.532 279.816C287.8 278.534 287.104 277.305 286.006 277.091Z" fill="white"/>
<path fill-rule="evenodd" clip-rule="evenodd" d="M283.594 289.861L282.121 287.109L282.683 290.208L280.326 291.757L283.112 290.983L284.505 293.654L283.996 290.662L287.022 289.246L283.594 289.861Z" fill="white"/>
<path fill-rule="evenodd" clip-rule="evenodd" d="M334.567 230.873C334.701 230.232 334.353 229.618 333.817 229.511C333.255 229.404 332.719 229.832 332.585 230.473C332.451 231.114 332.8 231.728 333.335 231.835C333.898 231.942 334.433 231.515 334.567 230.873Z" fill="white"/>
<path fill-rule="evenodd" clip-rule="evenodd" d="M293.987 234.587C293.853 235.228 294.201 235.843 294.737 235.95C295.3 236.056 295.835 235.629 295.969 234.988C296.103 234.347 295.755 233.732 295.219 233.625C294.684 233.519 294.121 233.946 293.987 234.587Z" fill="white"/>
<path fill-rule="evenodd" clip-rule="evenodd" d="M283.38 225.344C284.398 223.688 284.05 221.631 282.63 220.749C281.21 219.868 279.228 220.536 278.21 222.192C277.193 223.848 277.541 225.905 278.96 226.787C280.38 227.642 282.362 227.001 283.38 225.344Z" fill="white"/>
<path fill-rule="evenodd" clip-rule="evenodd" d="M391.112 276.93L389.638 274.152L390.201 277.251L387.844 278.8L390.629 278.025L392.022 280.697L391.513 277.705L394.54 276.316L391.112 276.93Z" fill="white"/>
<path fill-rule="evenodd" clip-rule="evenodd" d="M237.899 287.725L236.399 284.947L236.961 288.046L234.631 289.595L237.39 288.821L238.783 291.492L238.301 288.5L241.301 287.111L237.899 287.725Z" fill="white"/>
<path fill-rule="evenodd" clip-rule="evenodd" d="M181.863 285.96L181.381 282.968L184.381 281.579L180.979 282.193L179.479 279.415L180.042 282.514L177.711 284.063L180.47 283.289L181.863 285.96Z" fill="white"/>
<path fill-rule="evenodd" clip-rule="evenodd" d="M202.114 260.981L200.614 258.202L201.176 261.301L198.846 262.877L201.605 262.076L202.998 264.747L202.516 261.755L205.516 260.366L202.114 260.981Z" fill="white"/>
<path d="M156.148 339.447C149.371 333.676 143.023 327.024 137.184 319.437C135.47 285.562 133.782 251.687 132.068 217.838C138.148 209.957 144.764 203.011 151.809 197C153.255 244.473 154.702 291.973 156.148 339.447Z" fill="white"/>
<path d="M283.379 171.594C274.218 187.677 265.111 205.844 256.111 224.865C253.138 231.196 250.62 236.54 248.584 240.867C246.549 245.195 244.834 248.829 243.388 251.767C241.968 254.706 240.763 257.137 239.799 259.061C238.834 260.984 237.977 262.667 237.227 264.083C237.977 265.312 238.834 266.835 239.772 268.651C240.709 270.468 241.941 273.06 243.468 276.426C244.995 279.765 246.897 283.986 249.2 289.009C251.504 294.031 254.37 300.363 257.825 307.87C266.852 327.693 275.771 346.607 284.504 363.304C272.45 366.644 260.263 368.674 248.156 369.262C238.647 347.355 229.058 324.22 219.549 301.698C210.12 323.365 201.04 343.802 192.415 360.926C182.638 357.213 173.264 352.244 164.451 345.966C171.522 335.707 179.076 321.227 187.058 304.263C189.844 298.359 192.228 293.149 194.21 288.875C196.165 284.601 197.826 281.021 199.111 278.189C200.424 275.357 201.522 273.059 202.406 271.323C203.29 269.586 204.094 268.037 204.817 266.675C204.067 265.339 203.263 263.816 202.353 262.213C201.442 260.583 200.29 258.313 198.924 255.401C197.531 252.515 195.79 248.882 193.674 244.661C191.558 240.44 188.933 235.097 185.799 228.926C177.576 212.923 169.567 199.218 161.826 189.227C172.112 182.067 183.147 176.617 194.665 172.797C203.478 189.627 212.477 209.076 221.504 229.513C230.29 208.194 239.343 186.528 248.557 165.984C260.209 166.652 271.861 168.549 283.379 171.594Z" fill="white"/>
<path d="M366.628 258.445C375.065 260.182 380.824 263.681 384.494 266.914C388.137 270.28 389.583 273.272 389.128 277.787C388.887 280.325 388.19 282.836 387.065 285.722C385.94 288.607 384.28 291.866 382.056 295.66C379.833 299.427 377.021 303.755 373.485 308.376C369.976 312.971 365.664 317.86 360.494 322.349C339.2 340.649 314.477 354.3 288.87 362.074C294.414 344.255 300.012 327.024 305.557 310.834C326.155 306.88 345.816 301.19 363.146 294.03C365.69 292.988 367.512 291.599 368.69 290.05C369.869 288.5 370.512 286.577 370.619 284.226C370.726 281.875 370.244 280.325 369.173 279.524C368.074 278.722 366.28 278.455 363.735 278.856C351.2 280.806 337.459 282.462 322.994 283.798C317.825 284.279 313.325 283.504 309.521 281.314C305.718 279.123 302.53 275.757 300.012 271.242C297.468 266.727 295.593 261.117 294.387 254.491C293.182 247.866 292.593 240.492 292.646 232.478C292.7 223.742 293.45 215.861 294.896 209.075C296.343 202.263 298.539 196.786 301.486 192.832C304.432 188.878 308.209 186.501 312.762 185.859C317.316 185.218 322.727 186.608 328.834 190C352.217 202.931 373.646 220.643 390.976 242.122C386.583 241.882 382.003 244.34 377.289 249.228C362.208 241.508 344.825 235.069 326.262 230.1C323.369 229.325 321.2 229.593 319.753 230.928C318.307 232.237 317.557 235.096 317.503 239.424C317.45 243.752 318.119 246.904 319.512 248.801C320.905 250.698 323.048 251.793 325.914 252.14C340.351 253.823 354.119 255.961 366.628 258.445Z" fill="white"/>
</svg>
