<svg width="160" height="47" viewBox="0 0 160 47" fill="none" xmlns="http://www.w3.org/2000/svg">
<g clip-path="url(#clip0)">
<path d="M56.9128 18.0807V29.8862H60.5142V18.0807H56.9128Z" fill="white"/>
<path d="M75.8463 26.3404C75.3713 25.8952 74.9737 25.5233 74.6613 25.2274C74.4109 24.9943 74.1941 24.7953 74.0159 24.6303C73.9669 24.5805 73.9204 24.5386 73.8791 24.4967C73.67 24.3056 73.4996 24.1537 73.3705 24.0463C73.2414 23.9442 73.1279 23.8551 73.022 23.7818C73.1279 23.7033 73.2466 23.6064 73.3783 23.4937C73.5099 23.3785 73.6752 23.2397 73.8765 23.0669C74.0727 22.8967 74.3102 22.6872 74.589 22.4305C74.8679 22.1791 75.206 21.8649 75.6139 21.4852L79.2901 18.0807H74.6278L70.887 21.7549L67.1798 18.0807H62.187L65.7522 21.4694C66.204 21.9042 66.5809 22.2577 66.8804 22.5353C67.1824 22.8129 67.4328 23.0407 67.629 23.2214C67.8252 23.4073 67.9905 23.5461 68.117 23.6483C68.246 23.7452 68.3596 23.8394 68.4655 23.9206C68.3596 24.0044 68.2409 24.0961 68.1092 24.2034C67.9724 24.3056 67.8072 24.4496 67.611 24.6251C67.4148 24.8005 67.1618 25.0283 66.8649 25.3059C66.5628 25.5783 66.1885 25.9214 65.7496 26.3351L65.4424 26.6232L61.9598 29.8888H66.4312L70.523 25.9894L74.4909 29.8888H79.569L75.8463 26.3404Z" fill="white"/>
<path d="M101.564 23.5958C100.823 23.0616 99.7365 22.7945 98.3089 22.7945H91.9788C91.558 22.7945 91.2482 22.7343 91.0468 22.6085C90.8816 22.5117 90.7861 22.3545 90.7551 22.1398C90.7448 22.0848 90.7422 22.0246 90.7422 21.9643C90.7422 21.6579 90.8429 21.4484 91.0494 21.328C91.2508 21.2127 91.5606 21.1525 91.9814 21.1525H100.054L102.367 18.0833H92.255C91.3773 18.0833 90.6183 18.1724 89.9884 18.3478C89.3533 18.5233 88.837 18.7694 88.4394 19.0889C88.0367 19.4032 87.745 19.7881 87.5513 20.2438C87.3603 20.6995 87.2622 21.1997 87.2622 21.7548C87.2622 22.0193 87.2854 22.2733 87.3345 22.5143C87.3758 22.7316 87.4403 22.9359 87.5229 23.1349C87.6959 23.5513 87.9618 23.9101 88.3232 24.206C88.6847 24.4993 89.1364 24.7298 89.6812 24.8921C90.2259 25.0597 90.8739 25.1383 91.6277 25.1383H97.9629C98.3915 25.1383 98.7039 25.2038 98.9052 25.3321C99.1014 25.463 99.1969 25.6804 99.1969 25.9868C99.1969 26.2932 99.1014 26.5158 98.9052 26.6493C98.7039 26.7829 98.3941 26.8536 97.9629 26.8536H89.1597L86.8466 29.8861H97.6841C98.567 29.8861 99.326 29.7971 99.9559 29.6216C100.586 29.4462 101.107 29.1948 101.515 28.8648C101.918 28.5348 102.215 28.1263 102.403 27.6444C102.587 27.1626 102.682 26.6205 102.682 26.0208C102.682 24.9393 102.305 24.1327 101.564 23.5958Z" fill="white"/>
<path d="M121.319 18.0808L120.436 21.383L120.222 22.1948C120.049 22.8522 119.894 23.4414 119.759 23.9573C119.628 24.4758 119.512 24.9734 119.421 25.4421C119.326 25.2431 119.23 25.0388 119.132 24.8241C119.031 24.612 118.923 24.3789 118.794 24.1275C118.665 23.8735 118.52 23.5906 118.36 23.279C118.195 22.9674 118.004 22.606 117.785 22.1948L117.299 21.2573L116.233 19.2068C116.083 18.9135 115.926 18.6831 115.771 18.5102C115.616 18.3374 115.451 18.2091 115.286 18.1122C115.115 18.0205 114.937 17.9603 114.756 17.9262C114.57 17.9001 114.366 17.887 114.147 17.887C113.941 17.887 113.739 17.9001 113.558 17.9289C113.37 17.9603 113.197 18.0205 113.029 18.1148C112.859 18.2117 112.701 18.3426 112.549 18.5128C112.399 18.6857 112.247 18.9161 112.097 19.2094L111.07 21.1578L110.535 22.1791C110.127 22.9438 109.8 23.5749 109.549 24.0751C109.301 24.5753 109.082 25.031 108.901 25.4421C108.806 24.9603 108.7 24.4627 108.576 23.9573C108.457 23.4519 108.302 22.8626 108.114 22.1948L107.845 21.1788L107.022 18.0808H103.42L104.327 21.2573L106.379 28.4589C106.539 29.0115 106.805 29.4227 107.169 29.6871C107.536 29.9516 107.941 30.0826 108.395 30.0826C108.87 30.0826 109.268 29.9674 109.588 29.7395C109.908 29.5117 110.174 29.2053 110.378 28.8308L112.242 25.4788C112.492 25.0205 112.717 24.6172 112.9 24.2768C113.089 23.9337 113.251 23.6273 113.398 23.3497C113.54 23.0721 113.667 22.8207 113.783 22.5981C113.891 22.3755 113.992 22.1582 114.085 21.9434C114.191 22.1556 114.294 22.3755 114.41 22.5981C114.519 22.8207 114.648 23.0721 114.8 23.3497C114.95 23.6273 115.12 23.9389 115.309 24.2872C115.492 24.6355 115.711 25.0388 115.967 25.4971L117.831 28.8308C118.05 29.221 118.319 29.5274 118.639 29.75C118.954 29.9726 119.346 30.0826 119.808 30.0826C120.26 30.0826 120.673 29.9516 121.037 29.6871C121.404 29.4227 121.667 29.0089 121.827 28.4589L123.831 21.569L124.84 18.0808H121.319Z" fill="white"/>
<path d="M131.338 26.8563L129.162 29.8888H142.702L138.016 23.0067L135.43 19.2094C135.174 18.835 134.862 18.5181 134.498 18.2693C134.131 18.0127 133.679 17.887 133.129 17.887C132.562 17.887 132.092 18.0205 131.722 18.2903C131.353 18.5626 131.046 18.869 130.798 19.2094L128.878 21.9592L123.332 29.8888H127.597L132.845 22.3572L133.06 22.0508L133.302 22.4122L135.148 25.175C135.344 25.4578 135.551 25.759 135.765 26.0837C135.98 26.4084 136.168 26.6782 136.333 26.8851C136.054 26.8615 135.724 26.8536 135.35 26.8536H131.338V26.8563Z" fill="white"/>
<path d="M158.971 20.71C158.716 20.1679 158.344 19.7044 157.861 19.3142C157.373 18.924 156.774 18.6228 156.07 18.4055C155.362 18.1881 154.552 18.0807 153.648 18.0807H146.342L143.957 21.1499H153.981C154.539 21.1499 154.967 21.2704 155.275 21.5113C155.584 21.7523 155.737 22.0822 155.737 22.4908C155.737 22.9045 155.587 23.2319 155.275 23.4833C154.967 23.7294 154.539 23.8551 153.981 23.8551H143.957V29.8888H147.54V26.8693H153.633C154.492 26.8693 155.256 26.7777 155.935 26.5865C155.977 26.576 156.013 26.5629 156.049 26.5551C156.756 26.343 157.355 26.0497 157.851 25.6752C158.344 25.2955 158.716 24.8398 158.971 24.3082C159.227 23.7713 159.356 23.1716 159.356 22.5143C159.356 21.8518 159.227 21.2547 158.971 20.71Z" fill="white"/>
<path d="M56.9128 29.2472C58.0823 28.8334 59.2853 28.4354 60.5142 28.0504V29.8862H56.9128V29.2472Z" fill="white"/>
<path d="M75.8463 26.3404L79.5664 29.8888H74.4884L70.5204 25.9868L66.4312 29.8888H61.9598L65.4476 26.6284C68.1892 25.8899 71.0522 25.2222 74.0185 24.6303C74.1966 24.7979 74.4109 24.9969 74.6639 25.2274C74.9737 25.5233 75.3713 25.8952 75.8463 26.3404Z" fill="white"/>
<path d="M102.682 26.0261C102.682 26.6232 102.587 27.1679 102.403 27.6497C102.215 28.1316 101.918 28.5401 101.515 28.8701C101.107 29.2001 100.588 29.4488 99.9559 29.6269C99.326 29.8024 98.567 29.8914 97.6841 29.8914H86.8466L89.1597 26.8589H97.9629C98.3915 26.8589 98.7039 26.7882 98.9052 26.6546C99.1014 26.521 99.1969 26.2985 99.1969 25.9921C99.1969 25.6857 99.1014 25.4683 98.9052 25.3374C98.7039 25.2064 98.3941 25.1436 97.9629 25.1436H91.6277C90.8739 25.1436 90.2233 25.065 89.6812 24.8974C89.1364 24.735 88.6847 24.502 88.3232 24.2113C87.9618 23.9154 87.6959 23.5566 87.5229 23.1402C87.4403 22.9412 87.3758 22.7369 87.3345 22.5196C88.4626 22.386 89.6011 22.2603 90.7551 22.1451C90.7861 22.3572 90.8842 22.5169 91.0468 22.6138C91.2482 22.7395 91.558 22.7998 91.9788 22.7998H98.3089C99.7339 22.7998 100.823 23.0695 101.564 23.6011C102.305 24.1327 102.682 24.9393 102.682 26.0261Z" fill="white"/>
<path d="M123.823 21.569L121.82 28.459C121.659 29.0115 121.394 29.4227 121.03 29.6872C120.663 29.9517 120.253 30.0826 119.801 30.0826C119.339 30.0826 118.946 29.9726 118.631 29.75C118.311 29.5274 118.043 29.221 117.823 28.8308L115.959 25.4971C115.704 25.0389 115.484 24.6356 115.301 24.2873C115.113 23.939 114.945 23.63 114.792 23.3497C114.643 23.0722 114.514 22.8208 114.403 22.5982C114.289 22.3756 114.183 22.1582 114.077 21.9435C113.987 22.1556 113.886 22.3756 113.775 22.5982C113.662 22.8208 113.533 23.0722 113.391 23.3497C113.243 23.6273 113.081 23.9337 112.892 24.2768C112.709 24.6146 112.484 25.0179 112.234 25.4788L110.37 28.8308C110.164 29.2053 109.9 29.5117 109.58 29.7395C109.26 29.9674 108.862 30.0826 108.387 30.0826C107.936 30.0826 107.528 29.9517 107.161 29.6872C106.795 29.4227 106.531 29.0089 106.371 28.459L104.319 21.2574C105.486 21.2207 106.66 21.1919 107.838 21.1788L108.106 22.1949C108.295 22.8627 108.449 23.4519 108.568 23.9573C108.692 24.4627 108.798 24.9577 108.893 25.4421C109.077 25.0284 109.296 24.5753 109.541 24.0751C109.792 23.575 110.122 22.9438 110.528 22.1792L111.062 21.1578C113.161 21.1631 115.239 21.1945 117.297 21.26L117.782 22.1975C118.001 22.6113 118.192 22.9726 118.358 23.2817C118.518 23.5933 118.665 23.8761 118.791 24.1301C118.92 24.3815 119.029 24.612 119.13 24.8267C119.225 25.0389 119.321 25.2431 119.419 25.4448C119.509 24.976 119.625 24.4811 119.757 23.9599C119.889 23.444 120.046 22.8574 120.219 22.1975L120.433 21.3857C121.574 21.4354 122.702 21.4983 123.823 21.569Z" fill="white"/>
<path d="M132.848 22.3572L127.6 29.8888H123.335L128.88 21.9592C130.217 22.0796 131.539 22.2132 132.848 22.3572Z" fill="white"/>
<path d="M138.017 23.0066L142.702 29.8888H129.162L131.338 26.8562H135.352C135.727 26.8562 136.057 26.8667 136.336 26.8877C136.171 26.6782 135.985 26.411 135.768 26.0863C135.554 25.7616 135.347 25.4604 135.151 25.1776L133.305 22.4148C134.901 22.5903 136.468 22.7893 138.017 23.0066Z" fill="white"/>
<path d="M155.938 26.5865C155.256 26.7777 154.492 26.8693 153.635 26.8693H147.543V29.8888H143.959V23.952C148.157 24.6931 152.161 25.5809 155.938 26.5865Z" fill="white"/>
</g>
<path fill-rule="evenodd" clip-rule="evenodd" d="M11.2679 13.13C16.3478 11.997 22.812 12.0657 28.0714 13.3998C28.6542 13.5469 29.2197 13.7112 29.768 13.8903C31.7916 14.55 33.38 15.3592 34.5947 17.1838C34.5455 17.0931 34.4988 17.0048 34.4496 16.9141C34.3808 16.7865 34.3144 16.6615 34.2455 16.5339C31.2114 11.7861 18.7845 10.7438 13.7906 10.9793C18.1378 9.96399 23.3333 9.85118 26.5863 10.837C25.7872 10.3932 23.2472 9.19393 21.2925 7.93095C19.4779 6.75871 18.5066 5.23087 20.9482 3.47986C25.3225 0.345706 17.9829 0.767517 15.2241 1.08633C18.6099 0.272134 21.0884 0.176491 23.1415 0.460968C18.3886 -0.610727 13.5841 0.242706 10.0532 2.43514C7.01655 4.32348 4.6905 7.47481 4.31922 9.91984C4.21595 10.5893 5.8732 9.93946 5.75517 10.5893C5.59289 11.4845 4.33643 14.1183 4.92655 13.775C5.9445 13.1815 8.30006 12.3992 10.6753 12.436C10.2327 12.5537 9.80977 12.6812 9.41144 12.8186C6.89361 13.6941 4.78394 14.7756 3.33569 17.0023C5.37897 14.4347 8.16236 13.8216 11.2679 13.13Z" fill="white"/>
<path fill-rule="evenodd" clip-rule="evenodd" d="M31.8261 16.2887C25.5536 11.7861 10.5302 12.0902 5.12573 17.4266C10.1368 13.1987 25.9372 12.8701 31.8261 16.2887Z" fill="white"/>
<path fill-rule="evenodd" clip-rule="evenodd" d="M7.86724 21.6913C7.76643 21.6717 7.66316 21.7502 7.63857 21.8679C7.61398 21.9856 7.67791 22.0984 7.77872 22.118C7.87954 22.1376 7.98281 22.0592 8.00739 21.9414C8.03198 21.8237 7.97051 21.7109 7.86724 21.6913Z" fill="white"/>
<path fill-rule="evenodd" clip-rule="evenodd" d="M9.86873 29.2765C9.84415 29.3942 9.90808 29.507 10.0089 29.5266C10.1097 29.5463 10.213 29.4678 10.2376 29.3501C10.2621 29.2324 10.1982 29.1195 10.0974 29.0999C9.99413 29.0803 9.89332 29.1588 9.86873 29.2765Z" fill="white"/>
<path fill-rule="evenodd" clip-rule="evenodd" d="M12.5391 30.233L12.4014 29.978L12.4555 30.2624L12.2391 30.4071L12.4949 30.3336L12.6227 30.5788L12.576 30.3041L12.8538 30.1766L12.5391 30.233Z" fill="white"/>
<path fill-rule="evenodd" clip-rule="evenodd" d="M10.4835 32.2097C10.4712 32.2686 10.5031 32.325 10.5523 32.3348C10.604 32.3446 10.6531 32.3054 10.6654 32.2465C10.6777 32.1877 10.6458 32.1312 10.5966 32.1214C10.5474 32.1116 10.4958 32.1509 10.4835 32.2097Z" fill="white"/>
<path fill-rule="evenodd" clip-rule="evenodd" d="M12.8415 34.0489C12.9423 34.0685 13.0456 33.9901 13.0702 33.8723C13.0948 33.7546 13.0309 33.6418 12.93 33.6222C12.8292 33.6026 12.726 33.6811 12.7014 33.7988C12.6768 33.914 12.7407 34.0268 12.8415 34.0489Z" fill="white"/>
<path fill-rule="evenodd" clip-rule="evenodd" d="M14.6536 33.9851C14.6413 34.044 14.6733 34.1004 14.7225 34.1102C14.7741 34.12 14.8233 34.0808 14.8356 34.0219C14.8479 33.9631 14.8159 33.9067 14.7667 33.8969C14.7176 33.8846 14.6659 33.9263 14.6536 33.9851Z" fill="white"/>
<path fill-rule="evenodd" clip-rule="evenodd" d="M16.6503 32.7343C16.6257 32.8521 16.6896 32.9649 16.7904 32.9845C16.8913 33.0041 16.9945 32.9256 17.0191 32.8079C17.0437 32.6902 16.9798 32.5774 16.879 32.5578C16.7757 32.5357 16.6749 32.6166 16.6503 32.7343Z" fill="white"/>
<path fill-rule="evenodd" clip-rule="evenodd" d="M15.1872 30.1741C15.2388 30.1839 15.288 30.1447 15.3003 30.0858C15.3126 30.0269 15.2806 29.9705 15.2315 29.9607C15.1798 29.9509 15.1307 29.9902 15.1184 30.049C15.1061 30.1079 15.138 30.1618 15.1872 30.1741Z" fill="white"/>
<path fill-rule="evenodd" clip-rule="evenodd" d="M18.4672 31.4027C18.4549 31.4616 18.4869 31.518 18.5361 31.5278C18.5877 31.5376 18.6369 31.4984 18.6492 31.4395C18.6615 31.3806 18.6295 31.3242 18.5803 31.3144C18.5287 31.3046 18.4795 31.3439 18.4672 31.4027Z" fill="white"/>
<path fill-rule="evenodd" clip-rule="evenodd" d="M18.8214 35.1941C18.8091 35.253 18.841 35.3094 18.8902 35.3192C18.9418 35.329 18.991 35.2897 19.0033 35.2309C19.0156 35.172 18.9836 35.1156 18.9345 35.1058C18.8853 35.096 18.8337 35.1352 18.8214 35.1941Z" fill="white"/>
<path fill-rule="evenodd" clip-rule="evenodd" d="M23.739 36.104C23.6874 36.0942 23.6382 36.1334 23.6259 36.1923C23.6136 36.2511 23.6456 36.3075 23.6948 36.3173C23.7464 36.3271 23.7956 36.2879 23.8079 36.229C23.8202 36.1702 23.7907 36.1138 23.739 36.104Z" fill="white"/>
<path fill-rule="evenodd" clip-rule="evenodd" d="M21.2138 33.4627C21.3146 33.4824 21.4179 33.4039 21.4425 33.2862C21.467 33.1685 21.4031 33.0556 21.3023 33.036C21.2015 33.0164 21.0982 33.0949 21.0736 33.2126C21.049 33.3279 21.113 33.4407 21.2138 33.4627Z" fill="white"/>
<path fill-rule="evenodd" clip-rule="evenodd" d="M10.2426 24.9973L9.78276 24.1487L9.9598 25.0954L9.24182 25.5736L10.0901 25.3332L10.5155 26.1499L10.3655 25.2376L11.2851 24.8084L10.2426 24.9973Z" fill="white"/>
<path fill-rule="evenodd" clip-rule="evenodd" d="M28.8411 29.7106C28.8288 29.7695 28.8607 29.8259 28.9099 29.8357C28.9616 29.8455 29.0107 29.8063 29.023 29.7474C29.0353 29.6886 29.0034 29.6322 28.9542 29.6224C28.9026 29.6125 28.8509 29.6518 28.8411 29.7106Z" fill="white"/>
<path fill-rule="evenodd" clip-rule="evenodd" d="M32.8391 29.0191C32.7875 29.0093 32.7383 29.0485 32.726 29.1074C32.7137 29.1662 32.7457 29.2226 32.7949 29.2324C32.8465 29.2422 32.8957 29.203 32.908 29.1442C32.9227 29.0853 32.8908 29.0289 32.8391 29.0191Z" fill="white"/>
<path fill-rule="evenodd" clip-rule="evenodd" d="M5.83387 37.5658C6.35514 38.3113 6.95263 39.0887 7.05836 39.2309C5.70109 38.1985 4.31186 36.4131 3.35784 35.0275C3.92091 36.1875 4.54299 37.2568 5.41587 38.5541C4.49135 37.8674 3.34062 36.6069 2.95459 36.0306C3.46357 38.4413 9.43605 45.4919 12.7382 46.2914C11.9367 44.9769 12.6866 43.27 14.3291 43.4858C16.1757 43.7286 16.0454 46.1786 14.5824 46.6715C15.6937 46.8505 16.9109 46.9609 18.1599 47.0001C17.6952 46.9216 17.2674 46.826 16.8887 46.7107C15.8093 46.3625 17.0338 46.6519 16.7535 45.308C16.2199 43.6747 17.0658 44.2657 19.2271 43.942C20.0483 43.8194 21.0466 43.6035 21.9687 43.3877C13.4685 43.6624 11.1376 43.4196 5.83387 37.5658ZM12.3842 45.8033C11.5851 44.8935 12.3129 43.3926 13.6234 43.4294C12.5317 43.579 11.9662 44.8028 12.3842 45.8033ZM14.9094 46.6396C16.1462 46.2448 16.2027 44.327 15.3077 43.7065C16.4806 44.2166 16.4019 46.5464 14.9094 46.6396Z" fill="white"/>
<path fill-rule="evenodd" clip-rule="evenodd" d="M15.438 45.1558C15.438 44.3882 14.8134 43.7653 14.0438 43.7653C13.2742 43.7653 12.6497 44.3882 12.6497 45.1558C12.6497 45.9234 13.2742 46.5463 14.0438 46.5463C14.8134 46.5463 15.438 45.9234 15.438 45.1558ZM13.2054 45.992C12.7431 45.531 12.7431 44.7805 13.2054 44.3195C13.6676 43.8584 14.42 43.8584 14.8823 44.3195C15.3445 44.7805 15.3445 45.531 14.8823 45.992C14.42 46.4531 13.6676 46.4531 13.2054 45.992Z" fill="white"/>
<path fill-rule="evenodd" clip-rule="evenodd" d="M19.9131 41.1805C16.4535 41.026 12.9669 40.0548 11.349 38.8949C12.8808 39.2357 14.5086 39.4368 16.1658 39.4859C11.3047 39.0077 7.98779 37.112 5.80435 34.2598C6.14121 34.8141 6.52971 35.3757 6.97475 35.9495C5.81665 35.1893 4.05613 32.8914 3.59387 30.6744C3.37012 31.1281 3.54715 31.6971 3.49798 32.1655C3.47339 32.4132 3.30619 32.7246 3.30127 32.9772C3.2816 33.9239 4.44217 35.2457 5.39373 36.2217C5.54618 36.3762 5.706 36.5357 5.86582 36.6951C6.0822 36.906 6.23956 37.058 6.29366 37.1169C9.04262 39.8096 12.0448 42.9364 16.0749 42.3969C15.02 42.0633 13.4218 41.4429 12.6964 40.8617C14.6364 41.2173 19.0156 41.259 19.9131 41.1805Z" fill="white"/>
<path fill-rule="evenodd" clip-rule="evenodd" d="M10.6556 36.9795C13.0185 38.0978 16.9453 38.6741 18.6296 38.5736C16.4215 38.3799 13.3726 37.8158 10.8621 36.6583C8.88033 35.746 7.21816 34.2108 6.23709 32.5971C7.40503 33.9974 8.95163 35.3119 10.722 36.2218C13.2152 37.5068 16.1117 38.1199 18.664 38.1493C31.531 38.2916 37.8575 28.3741 34.5947 17.1814C37.3461 28.9234 30.6163 37.5411 18.6787 37.3302C6.62805 37.1169 1.75958 28.1215 3.33076 17.0048C2.02267 22.2039 2.59804 28.4992 5.81172 32.9184C7.19849 34.819 8.82869 36.1138 10.6556 36.9795Z" fill="white"/>
<path fill-rule="evenodd" clip-rule="evenodd" d="M26.2815 41.7985C27.329 41.362 28.6936 39.8979 28.6936 39.8979C28.6936 39.8979 27.5847 40.8887 26.1487 41.5459C25.4037 41.8868 24.5259 42.0879 23.7637 42.1222C23.7612 42.1222 25.2808 42.2154 26.2815 41.7985Z" fill="white"/>
<path fill-rule="evenodd" clip-rule="evenodd" d="M14.2455 44.2116C13.5251 44.1135 13.171 44.6751 13.171 44.6751C14.4644 43.7652 15.0004 45.1214 15.0004 45.1214C15.0004 45.1214 14.966 44.3121 14.2455 44.2116Z" fill="white"/>
<path fill-rule="evenodd" clip-rule="evenodd" d="M24.4422 43.9517C23.2669 44.7193 23.739 46.767 25.1873 46.8381C23.948 46.5365 23.562 44.8026 24.4422 43.9517Z" fill="white"/>
<path fill-rule="evenodd" clip-rule="evenodd" d="M24.7816 45.2122C24.7816 45.2122 25.3028 43.525 26.8125 44.7095C26.1978 43.7359 24.8356 44.0351 24.7816 45.2122Z" fill="white"/>
<path fill-rule="evenodd" clip-rule="evenodd" d="M26.6108 43.498C27.3977 43.7628 27.8132 44.9719 27.4493 45.6929C28.0714 44.9915 27.6239 43.5642 26.6108 43.498Z" fill="white"/>
<path fill-rule="evenodd" clip-rule="evenodd" d="M27.7812 45.8179C29.7852 45.6438 33.0308 40.5109 33.3234 39.9371C32.3915 41.4355 29.4237 44.9571 27.7812 45.8179Z" fill="white"/>
<path fill-rule="evenodd" clip-rule="evenodd" d="M31.4573 35.3536C29.682 37.2027 26.815 38.6962 24.1324 39.2676C26.7954 39.0371 30.1295 37.5411 31.4573 35.3536Z" fill="white"/>
<path fill-rule="evenodd" clip-rule="evenodd" d="M33.1932 36.9575L33.267 36.8692C32.2711 38.1469 30.6114 40.1971 29.1189 41.6244C28.605 42.1149 27.3633 43.1007 24.7201 43.3656C25.6249 43.3067 27.4617 42.9462 27.8649 44.0032C28.0518 44.4888 27.9928 45.1313 27.9928 45.1313C28.2682 44.5354 28.2092 44.1847 28.1354 43.8217C27.9559 42.9291 28.2141 43.0026 28.9837 42.1737C30.2918 40.7612 32.49 38.2327 33.3333 36.7907L35.0398 34.7258C35.0398 34.7258 35.5094 35.8907 35.3471 36.4744C35.1848 37.058 33.3653 39.8758 33.3653 39.8758C33.3653 39.8758 35.7135 36.906 35.7233 36.0329C35.7332 35.1623 35.3053 33.816 35.3053 33.816L33.1932 36.9575Z" fill="white"/>
<path fill-rule="evenodd" clip-rule="evenodd" d="M33.2325 35.6651C33.2325 35.6651 35.1233 33.3844 35.143 33.0263C35.1627 32.6683 34.9438 32.293 34.7397 31.859C34.7176 31.783 34.6906 31.6996 34.6611 31.6039C34.3463 30.6009 34.5037 30.1497 34.5037 30.1497C34.1078 30.5837 34.457 32.0527 34.7324 32.5015C34.8086 32.705 34.8651 32.8865 34.8111 33.0386C34.6537 33.4898 33.2325 35.6651 33.2325 35.6651Z" fill="white"/>
<path fill-rule="evenodd" clip-rule="evenodd" d="M36.6552 23.2534C36.8421 22.4785 36.574 19.852 35.9618 18.7533C36.2273 19.6214 36.5027 22.7581 36.2372 23.6409C38.0592 23.4766 37.951 22.2308 37.9534 20.9384C37.8698 22.5226 37.3732 22.9984 36.6552 23.2534Z" fill="white"/>
<path fill-rule="evenodd" clip-rule="evenodd" d="M37.5232 18.7068C37.6584 18.5719 37.742 18.388 37.742 18.182C37.742 17.9784 37.6584 17.792 37.5232 17.6572C37.3879 17.5223 37.2035 17.4389 36.997 17.4389C36.7929 17.4389 36.606 17.5223 36.4708 17.6572C36.3356 17.792 36.252 17.976 36.252 18.182C36.252 18.3855 36.3356 18.5719 36.4708 18.7068C36.606 18.8417 36.7904 18.9251 36.997 18.9251C37.2035 18.9226 37.3879 18.8392 37.5232 18.7068ZM36.6257 18.182C36.6257 18.079 36.6675 17.9858 36.7339 17.9196C36.8003 17.8534 36.8937 17.8117 36.997 17.8117C37.1002 17.8117 37.1937 17.8534 37.2601 17.9196C37.3265 17.9858 37.3683 18.079 37.3683 18.182C37.3683 18.285 37.3265 18.3782 37.2601 18.4444C37.1937 18.5106 37.1002 18.5523 36.997 18.5523C36.8937 18.5523 36.8003 18.5106 36.7339 18.4444C36.6675 18.3782 36.6257 18.285 36.6257 18.182Z" fill="white"/>
<path fill-rule="evenodd" clip-rule="evenodd" d="M37.9141 15.6952C37.6313 14.7609 36.8322 14.1061 35.8143 14.5303C36.5224 14.4445 37.3043 15.038 37.5846 15.8178C38.0493 17.1103 38.0911 18.979 38.1108 19.6387C38.2338 19.0182 38.3198 17.0367 37.9141 15.6952Z" fill="white"/>
<path fill-rule="evenodd" clip-rule="evenodd" d="M29.4583 17.4658L29.0009 16.6173L29.1755 17.5664L28.4575 18.0421L29.3083 17.8018L29.7336 18.6185L29.5812 17.7062L29.8935 17.5615L30.5033 17.277L29.8615 17.3923L29.4583 17.4658Z" fill="white"/>
<path fill-rule="evenodd" clip-rule="evenodd" d="M27.9682 20.8452C27.8256 20.9727 27.8305 21.2131 27.9805 21.3798C28.1305 21.5466 28.369 21.5785 28.5116 21.4509C28.6542 21.3234 28.6493 21.0831 28.4993 20.9163C28.3493 20.7471 28.1108 20.7152 27.9682 20.8452Z" fill="white"/>
<path fill-rule="evenodd" clip-rule="evenodd" d="M25.0569 18.2211C25.0815 18.1034 25.0176 17.9906 24.9167 17.971C24.8159 17.9513 24.7127 18.0298 24.6881 18.1475C24.6635 18.2652 24.7274 18.3781 24.8282 18.4001C24.9315 18.4197 25.0323 18.3413 25.0569 18.2211Z" fill="white"/>
<path fill-rule="evenodd" clip-rule="evenodd" d="M24.8331 26.5274C24.9266 26.3754 24.8946 26.1865 24.7643 26.1056C24.634 26.0247 24.452 26.086 24.3586 26.238C24.2651 26.3901 24.2971 26.5789 24.4274 26.6598C24.5577 26.7383 24.7397 26.6794 24.8331 26.5274Z" fill="white"/>
<path fill-rule="evenodd" clip-rule="evenodd" d="M31.3392 18.0668L31.4671 18.312L31.4204 18.0373L31.6982 17.9074L31.3835 17.9638L31.2458 17.7112L31.2999 17.9957L31.0835 18.1379L31.3392 18.0668Z" fill="white"/>
<path fill-rule="evenodd" clip-rule="evenodd" d="M30.3926 21.1836C30.4049 21.1247 30.3729 21.0683 30.3238 21.0585C30.2721 21.0487 30.2229 21.0879 30.2106 21.1468C30.1984 21.2057 30.2303 21.2621 30.2795 21.2719C30.3287 21.2817 30.3803 21.2424 30.3926 21.1836Z" fill="white"/>
<path fill-rule="evenodd" clip-rule="evenodd" d="M29.1017 23.587C29.114 23.5281 29.082 23.4717 29.0329 23.4619C28.9812 23.4521 28.932 23.4913 28.9198 23.5502C28.9075 23.609 28.9394 23.6654 28.9886 23.6753C29.0402 23.6851 29.0919 23.6458 29.1017 23.587Z" fill="white"/>
<path fill-rule="evenodd" clip-rule="evenodd" d="M28.5312 26.5397C28.4378 26.6918 28.4698 26.8806 28.6001 26.9615C28.7304 27.0425 28.9124 26.9812 29.0058 26.8291C29.0992 26.6771 29.0673 26.4882 28.9369 26.4073C28.8066 26.3288 28.6247 26.3877 28.5312 26.5397Z" fill="white"/>
<path fill-rule="evenodd" clip-rule="evenodd" d="M30.8794 27.7831C30.8278 27.7732 30.7786 27.8125 30.7663 27.8713C30.754 27.9302 30.786 27.9866 30.8352 27.9964C30.8868 28.0062 30.936 27.967 30.9483 27.9081C30.963 27.8493 30.9311 27.7929 30.8794 27.7831Z" fill="white"/>
<path fill-rule="evenodd" clip-rule="evenodd" d="M9.04009 27.1528L8.90239 26.8978L8.95649 27.1822L8.74011 27.3269L8.99583 27.2534L9.12369 27.4986L9.07697 27.2239L9.35482 27.0964L9.04009 27.1528Z" fill="white"/>
<path fill-rule="evenodd" clip-rule="evenodd" d="M8.02716 24.5729C8.0542 24.5778 8.12797 24.5435 8.14026 24.4846C8.15256 24.4258 8.11567 24.3694 8.07142 24.3596C8.0247 24.3498 7.98781 24.3767 7.96814 24.4184C7.96323 24.4282 7.96569 24.416 7.95831 24.4478C7.95093 24.4797 7.9706 24.5508 8.0124 24.568C8.01732 24.5705 8.00011 24.5656 8.02716 24.5729Z" fill="white"/>
<path fill-rule="evenodd" clip-rule="evenodd" d="M6.21499 19.2511L6.46825 19.7416L6.37727 19.1947L6.9305 18.9372L6.3035 19.05L6.03058 18.5399L6.1363 19.1089L5.70355 19.3958L6.21499 19.2511Z" fill="white"/>
<path fill-rule="evenodd" clip-rule="evenodd" d="M10.6211 18.307C10.6334 18.2481 10.6014 18.1917 10.5523 18.1819C10.5006 18.1721 10.4515 18.2114 10.4392 18.2702C10.4269 18.3291 10.4588 18.3855 10.508 18.3953C10.5596 18.4051 10.6088 18.3659 10.6211 18.307Z" fill="white"/>
<path fill-rule="evenodd" clip-rule="evenodd" d="M28.4059 32.1703L27.9485 31.3218L28.1256 32.2709L27.4076 32.7466L28.2559 32.5087L28.6813 33.3229L28.5288 32.4106L29.4509 31.9815L28.4059 32.1703Z" fill="white"/>
<path fill-rule="evenodd" clip-rule="evenodd" d="M13.2054 15.2783C13.1119 15.4303 13.1439 15.6191 13.2742 15.7001C13.4045 15.781 13.5865 15.7197 13.6799 15.5676C13.7734 15.4156 13.7414 15.2268 13.6111 15.1458C13.4808 15.0673 13.2988 15.1262 13.2054 15.2783Z" fill="white"/>
<path fill-rule="evenodd" clip-rule="evenodd" d="M15.2634 21.5589C15.2708 21.5197 15.2437 21.4436 15.1946 21.4338C15.1429 21.424 15.0913 21.4755 15.0815 21.5221C15.0716 21.5687 15.0839 21.5932 15.1036 21.6178C15.1503 21.6153 15.197 21.6129 15.2437 21.608V21.6104C15.2511 21.5957 15.256 21.5981 15.2634 21.5589Z" fill="white"/>
<path fill-rule="evenodd" clip-rule="evenodd" d="M19.8516 15.8129C19.8639 15.7541 19.8319 15.6977 19.7827 15.6878C19.7311 15.678 19.6819 15.7173 19.6696 15.7761C19.6573 15.835 19.6893 15.8914 19.7385 15.9012C19.7877 15.911 19.8393 15.8718 19.8516 15.8129Z" fill="white"/>
<path fill-rule="evenodd" clip-rule="evenodd" d="M19.2197 21.5074C19.1681 21.4976 19.1189 21.5369 19.1066 21.5957C19.0943 21.6546 19.1263 21.711 19.1755 21.7208C19.2247 21.7306 19.2763 21.6914 19.2886 21.6325C19.3033 21.5736 19.2714 21.5172 19.2197 21.5074Z" fill="white"/>
<path fill-rule="evenodd" clip-rule="evenodd" d="M4.17419 17.8827C4.3045 17.9637 4.48646 17.9023 4.57989 17.7503C4.67333 17.5982 4.64136 17.4094 4.51105 17.3285C4.38073 17.2476 4.19878 17.3089 4.10534 17.4609C4.0119 17.6154 4.04387 17.8042 4.17419 17.8827Z" fill="white"/>
<path fill-rule="evenodd" clip-rule="evenodd" d="M2.36199 14.165C0.746542 14.0718 0.544918 14.8811 0.262154 16.4064C0.00151842 17.8019 -0.350093 22.3412 0.803094 23.3418C1.24814 23.7293 1.72515 23.7342 2.25626 23.7244C1.67844 23.1775 1.51615 22.2088 1.2924 21.4559C1.31945 21.814 1.34649 22.1745 1.37354 22.5325C0.918659 21.814 0.658024 19.8006 1.26781 19.1041C1.58992 18.7387 1.91448 18.6994 1.92186 18.0912C1.93169 17.5345 1.40305 16.995 0.950624 17.1667C0.808012 17.2206 0.761294 16.8626 0.827683 16.3868C1.09078 14.5157 1.70548 14.4077 2.36199 14.165ZM1.08094 17.3384C1.28502 17.3384 1.47189 17.4217 1.60713 17.5566C1.74236 17.6915 1.82596 17.8754 1.82596 18.0814C1.82596 18.285 1.74236 18.4714 1.60713 18.6062C1.47189 18.7411 1.28748 18.8245 1.08094 18.8245C0.8744 18.8245 0.689989 18.7411 0.554753 18.6062C0.419518 18.4714 0.335918 18.2874 0.335918 18.0814C0.335918 17.8779 0.419518 17.6915 0.554753 17.5566C0.689989 17.4217 0.8744 17.3384 1.08094 17.3384Z" fill="white"/>
<path fill-rule="evenodd" clip-rule="evenodd" d="M1.08088 18.4493C1.18415 18.4493 1.27758 18.4076 1.34397 18.3414C1.41036 18.2752 1.45216 18.182 1.45216 18.079C1.45216 17.976 1.41036 17.8828 1.34397 17.8166C1.27758 17.7504 1.18415 17.7087 1.08088 17.7087C0.977606 17.7087 0.884171 17.7504 0.817783 17.8166C0.751395 17.8828 0.709595 17.976 0.709595 18.079C0.709595 18.182 0.751395 18.2752 0.817783 18.3414C0.884171 18.4076 0.977606 18.4493 1.08088 18.4493Z" fill="white"/>
<path fill-rule="evenodd" clip-rule="evenodd" d="M2.89309 16.556C3.1193 14.5671 4.093 11.9553 4.68312 11.0135C3.15865 11.9675 2.77261 15.4131 2.89309 16.556Z" fill="white"/>
<path fill-rule="evenodd" clip-rule="evenodd" d="M34.0464 11.4379C33.5694 7.31548 29.3746 2.49653 24.7373 1.36353C28.637 2.68046 32.5785 7.45036 34.0464 11.4379Z" fill="white"/>
<path fill-rule="evenodd" clip-rule="evenodd" d="M25.8069 43.7653C25.0373 43.7653 24.4128 44.3882 24.4128 45.1558C24.4128 45.9234 25.0373 46.5463 25.8069 46.5463C26.5765 46.5463 27.2011 45.9234 27.2011 45.1558C27.2011 44.3882 26.5765 43.7653 25.8069 43.7653ZM26.6454 45.992C26.1831 46.4531 25.4307 46.4531 24.9685 45.992C24.5062 45.531 24.5062 44.7805 24.9685 44.3195C25.4307 43.8584 26.1831 43.8584 26.6454 44.3195C27.1077 44.7805 27.1077 45.531 26.6454 45.992Z" fill="white"/>
<path fill-rule="evenodd" clip-rule="evenodd" d="M22.7309 1.87341C22.6694 2.57725 22.1654 3.13639 21.6613 3.58028C19.4557 5.52748 20.068 6.56729 22.4875 7.99703C23.2645 8.45563 24.3168 9.05892 25.1823 9.54449C24.875 9.23794 23.5054 8.30113 22.7039 7.69539C20.786 6.24112 20.3163 5.77026 21.9982 3.92116C22.4604 3.41351 23.0997 2.58706 22.7309 1.87341Z" fill="white"/>
<path fill-rule="evenodd" clip-rule="evenodd" d="M29.709 5.59875C29.7041 5.59384 29.6992 5.58648 29.6943 5.58158C29.6894 5.57667 29.6844 5.57177 29.6795 5.56441C29.1115 4.94641 28.2411 4.08562 27.5035 3.70305C27.4789 3.69079 27.292 3.58779 27.2674 3.60495C27.265 3.62948 27.4395 3.75455 27.4617 3.76926C28.2141 4.36519 28.8386 5.03224 29.4681 5.75079C29.473 5.7557 29.4779 5.7606 29.4828 5.76551C29.4877 5.77041 29.4927 5.77777 29.4976 5.78268C29.5099 5.79739 29.5246 5.8121 29.5394 5.82682C30.186 6.53801 30.7491 7.21978 31.2999 8.00945C31.3122 8.02907 31.4228 8.19583 31.4499 8.19338C31.4671 8.17376 31.381 7.99718 31.3687 7.97266C31.0515 7.22468 30.2869 6.2658 29.7533 5.64044C29.7361 5.63063 29.7213 5.61591 29.709 5.59875Z" fill="white"/>
<path fill-rule="evenodd" clip-rule="evenodd" d="M11.0294 34.3946C11.0122 34.4118 10.995 34.4314 10.9901 34.4584C10.9778 34.5172 11.0097 34.5736 11.0589 34.5834C11.1105 34.5933 11.1597 34.554 11.172 34.4952C11.1745 34.4829 11.1671 34.4755 11.1671 34.4633C11.3663 34.5663 11.5605 34.6742 11.7695 34.7674C17.6117 37.3963 24.1767 35.611 25.7897 34.7012C22.0597 35.6085 18.4821 35.6649 15.5389 35.1205L15.5118 35.069L15.5217 35.1156C14.2603 34.8802 13.1145 34.5368 12.126 34.0979C6.61828 31.6553 4.1865 25.4802 4.10044 19.7293C3.70457 25.7328 5.64458 31.5547 11.0294 34.3946Z" fill="white"/>
<path fill-rule="evenodd" clip-rule="evenodd" d="M8.47218 29.5121C7.62634 28.7861 6.74117 26.8684 6.14121 24.8206C5.5806 22.9053 5.28308 20.8723 5.21424 19.7344C4.90934 22.123 6.0527 27.972 8.47218 29.5121Z" fill="white"/>
<path fill-rule="evenodd" clip-rule="evenodd" d="M33.2644 18.2211C34.1324 20.9703 33.7955 26.1276 32.5538 28.7247C34.4397 26.2748 34.7864 20.9065 33.2644 18.2211Z" fill="white"/>
<path fill-rule="evenodd" clip-rule="evenodd" d="M12.8784 22.6649C12.9719 22.5129 12.9399 22.324 12.8096 22.2431C12.6793 22.1622 12.4973 22.2235 12.4039 22.3755C12.3104 22.5276 12.3424 22.7164 12.4727 22.7973C12.603 22.8783 12.785 22.8194 12.8784 22.6649Z" fill="white"/>
<path fill-rule="evenodd" clip-rule="evenodd" d="M9.29834 17.8779C9.39177 17.7259 9.35981 17.537 9.22949 17.4561C9.09917 17.3752 8.91722 17.4365 8.82378 17.5885C8.73035 17.7406 8.76231 17.9294 8.89263 18.0104C9.02295 18.0913 9.2049 18.03 9.29834 17.8779Z" fill="white"/>
<path fill-rule="evenodd" clip-rule="evenodd" d="M31.3663 23.2314C31.2729 23.3835 31.3049 23.5723 31.4352 23.6533C31.5655 23.7342 31.7474 23.6729 31.8409 23.5208C31.9343 23.3688 31.9024 23.1799 31.772 23.099C31.6417 23.0205 31.4598 23.0794 31.3663 23.2314Z" fill="white"/>
<path fill-rule="evenodd" clip-rule="evenodd" d="M22.1802 15.1607C22.1556 15.2784 22.2195 15.3912 22.3203 15.4108C22.4212 15.4305 22.5244 15.352 22.549 15.2343C22.5736 15.1166 22.5097 15.0037 22.4089 14.9841C22.3056 14.9621 22.2023 15.0405 22.1802 15.1607Z" fill="white"/>
<path fill-rule="evenodd" clip-rule="evenodd" d="M11.1719 23.0769C11.0711 23.0573 10.9678 23.1358 10.9433 23.2535C10.9187 23.3712 10.9826 23.484 11.0834 23.5036C11.1842 23.5233 11.2875 23.4448 11.3121 23.3271C11.3367 23.2093 11.2727 23.0965 11.1719 23.0769Z" fill="white"/>
<path fill-rule="evenodd" clip-rule="evenodd" d="M20.6532 29.4335C20.6286 29.5513 20.6926 29.6641 20.7934 29.6837C20.8942 29.7033 20.9975 29.6248 21.022 29.5071C21.0466 29.3894 20.9827 29.2766 20.8819 29.257C20.7786 29.2374 20.6753 29.3158 20.6532 29.4335Z" fill="white"/>
<path fill-rule="evenodd" clip-rule="evenodd" d="M27.6707 24.0823L27.0314 24.1976L26.6281 24.2711L26.1708 23.4226L26.3454 24.3692L25.6274 24.8474L26.4757 24.6071L26.9035 25.4238L26.7511 24.509L27.0609 24.3643L27.6707 24.0823Z" fill="white"/>
<path fill-rule="evenodd" clip-rule="evenodd" d="M9.98682 21.8753L10.2425 22.3657L10.1516 21.8189L10.7048 21.5613L10.0778 21.6742L9.80241 21.1641L9.90814 21.733L9.47784 22.0199L9.98682 21.8753Z" fill="white"/>
<path fill-rule="evenodd" clip-rule="evenodd" d="M29.8418 24.8696L29.5664 24.3595L29.6722 24.9285L29.2419 25.2154L29.7509 25.0707L30.0066 25.5612L29.9156 25.0118L30.4688 24.7568L29.8418 24.8696Z" fill="white"/>
<path fill-rule="evenodd" clip-rule="evenodd" d="M24.2578 30.0025C24.2332 30.1202 24.2972 30.233 24.398 30.2527C24.4988 30.2723 24.6021 30.1938 24.6267 30.0761C24.6512 29.9584 24.5873 29.8456 24.4865 29.8259C24.3832 29.8063 24.28 29.8848 24.2578 30.0025Z" fill="white"/>
<path fill-rule="evenodd" clip-rule="evenodd" d="M17.8133 30.1643C17.9141 30.184 18.0174 30.1055 18.0419 29.9878C18.0665 29.8701 18.0026 29.7572 17.9018 29.7376C17.801 29.718 17.6977 29.7965 17.6731 29.9142C17.6485 30.0319 17.7125 30.1447 17.8133 30.1643Z" fill="white"/>
<path fill-rule="evenodd" clip-rule="evenodd" d="M19.5541 24.389L19.4164 24.1339L19.4681 24.4184L19.2517 24.5606L19.5074 24.4895L19.6353 24.7347L19.591 24.4601L19.8664 24.3301L19.5541 24.389Z" fill="white"/>
<path fill-rule="evenodd" clip-rule="evenodd" d="M11.8211 30.9271C11.7203 30.9075 11.617 30.9859 11.5924 31.1036C11.5678 31.2214 11.6318 31.3342 11.7326 31.3562C11.8334 31.3759 11.9367 31.2974 11.9613 31.1797C11.9858 31.0595 11.9244 30.9467 11.8211 30.9271Z" fill="white"/>
<path fill-rule="evenodd" clip-rule="evenodd" d="M21.8482 25.4362C21.7474 25.4166 21.6441 25.495 21.6195 25.6127C21.5949 25.7305 21.6589 25.8433 21.7597 25.8629C21.8605 25.8825 21.9638 25.804 21.9883 25.6863C22.0129 25.5686 21.949 25.4558 21.8482 25.4362Z" fill="white"/>
<path fill-rule="evenodd" clip-rule="evenodd" d="M21.6268 26.6084L21.4916 26.3558L21.5432 26.6402L21.3268 26.7825L21.5826 26.7114L21.7104 26.9566L21.6637 26.6819L21.9415 26.552L21.6268 26.6084Z" fill="white"/>
<path fill-rule="evenodd" clip-rule="evenodd" d="M26.3061 21.1935C26.3183 21.1347 26.2864 21.0783 26.2372 21.0685C26.1856 21.0586 26.1364 21.0979 26.1241 21.1567C26.1118 21.2156 26.1438 21.272 26.1929 21.2818C26.2446 21.2916 26.2938 21.2524 26.3061 21.1935Z" fill="white"/>
<path fill-rule="evenodd" clip-rule="evenodd" d="M22.5809 21.5343C22.5686 21.5932 22.6006 21.6496 22.6497 21.6594C22.7014 21.6692 22.7505 21.63 22.7628 21.5711C22.7751 21.5122 22.7432 21.4558 22.694 21.446C22.6448 21.4362 22.5932 21.4755 22.5809 21.5343Z" fill="white"/>
<path fill-rule="evenodd" clip-rule="evenodd" d="M21.6072 20.6858C21.7006 20.5338 21.6686 20.345 21.5383 20.264C21.408 20.1831 21.2261 20.2444 21.1326 20.3965C21.0392 20.5485 21.0712 20.7373 21.2015 20.8183C21.3318 20.8968 21.5137 20.8379 21.6072 20.6858Z" fill="white"/>
<path fill-rule="evenodd" clip-rule="evenodd" d="M31.4966 25.4214L31.3614 25.1663L31.413 25.4508L31.1967 25.593L31.4524 25.5219L31.5802 25.7672L31.5335 25.4925L31.8114 25.365L31.4966 25.4214Z" fill="white"/>
<path fill-rule="evenodd" clip-rule="evenodd" d="M17.4322 26.4123L17.2945 26.1572L17.3461 26.4417L17.1322 26.5839L17.3855 26.5128L17.5133 26.7581L17.4691 26.4834L17.7444 26.3559L17.4322 26.4123Z" fill="white"/>
<path fill-rule="evenodd" clip-rule="evenodd" d="M12.2882 26.2503L12.244 25.9756L12.5194 25.8481L12.2071 25.9045L12.0694 25.6494L12.121 25.9339L11.9071 26.0761L12.1604 26.005L12.2882 26.2503Z" fill="white"/>
<path fill-rule="evenodd" clip-rule="evenodd" d="M14.1472 23.9573L14.0095 23.7022L14.0611 23.9867L13.8472 24.1314L14.1005 24.0578L14.2283 24.303L14.1841 24.0284L14.4595 23.9009L14.1472 23.9573Z" fill="white"/>
<path d="M9.92765 31.1601C9.30556 30.6304 8.72282 30.0197 8.1868 29.3232C8.02943 26.2136 7.87453 23.104 7.71716 19.9968C8.27532 19.2733 8.88264 18.6357 9.52932 18.0839C9.66209 22.4418 9.79487 26.8022 9.92765 31.1601Z" fill="white"/>
<path d="M21.607 15.7518C20.7661 17.2282 19.9301 18.8958 19.104 20.6419C18.831 21.2231 18.5999 21.7136 18.413 22.1109C18.2262 22.5082 18.0688 22.8417 17.936 23.1114C17.8057 23.3812 17.6951 23.6044 17.6065 23.7809C17.518 23.9575 17.4393 24.112 17.3705 24.242C17.4393 24.3548 17.518 24.4946 17.6041 24.6614C17.6901 24.8281 17.8032 25.066 17.9434 25.375C18.0836 25.6816 18.2581 26.069 18.4696 26.5301C18.681 26.9911 18.9441 27.5723 19.2613 28.2615C20.09 30.0811 20.9087 31.8174 21.7103 33.3502C20.6038 33.6567 19.4851 33.8431 18.3737 33.8971C17.5008 31.8861 16.6206 29.7623 15.7477 27.695C14.8822 29.6839 14.0486 31.5599 13.2569 33.1319C12.3594 32.791 11.4988 32.3349 10.6899 31.7586C11.339 30.8169 12.0324 29.4877 12.7651 27.9304C13.0208 27.3884 13.2397 26.9102 13.4216 26.5178C13.6011 26.1254 13.7536 25.7968 13.8716 25.5369C13.9921 25.2769 14.0929 25.066 14.174 24.9066C14.2552 24.7472 14.3289 24.605 14.3953 24.4799C14.3265 24.3573 14.2527 24.2175 14.1691 24.0703C14.0855 23.9207 13.9798 23.7123 13.8544 23.445C13.7265 23.1801 13.5667 22.8466 13.3725 22.4591C13.1782 22.0716 12.9372 21.5812 12.6496 21.0147C11.8947 19.5457 11.1595 18.2876 10.4489 17.3704C11.3931 16.7132 12.4061 16.2129 13.4634 15.8622C14.2724 17.4072 15.0985 19.1925 15.9272 21.0686C16.7337 19.1116 17.5647 17.1227 18.4106 15.2368C19.4802 15.2981 20.5498 15.4722 21.607 15.7518Z" fill="white"/>
<path d="M29.249 23.7244C30.0236 23.8838 30.5522 24.2051 30.8891 24.5018C31.2235 24.8108 31.3563 25.0855 31.3145 25.4999C31.2923 25.7329 31.2284 25.9634 31.1251 26.2283C31.0219 26.4931 30.8694 26.7923 30.6653 27.1406C30.4613 27.4864 30.2031 27.8837 29.8785 28.3079C29.5564 28.7297 29.1605 29.1785 28.686 29.5905C26.7312 31.2704 24.4617 32.5236 22.1111 33.2372C22.6201 31.6015 23.134 30.0197 23.6429 28.5335C25.5338 28.1706 27.3385 27.6482 28.9294 26.991C29.163 26.8953 29.3302 26.7678 29.4384 26.6256C29.5466 26.4833 29.6056 26.3068 29.6154 26.091C29.6252 25.8751 29.581 25.7329 29.4826 25.6593C29.3818 25.5858 29.2171 25.5612 28.9835 25.598C27.8328 25.777 26.5714 25.9291 25.2436 26.0517C24.7691 26.0959 24.356 26.0247 24.0068 25.8236C23.6577 25.6225 23.3651 25.3135 23.134 24.8991C22.9004 24.4846 22.7282 23.9696 22.6176 23.3614C22.507 22.7533 22.4529 22.0764 22.4578 21.3407C22.4627 20.5387 22.5315 19.8153 22.6643 19.1924C22.7971 18.567 22.9987 18.0643 23.2692 17.7013C23.5397 17.3384 23.8864 17.1201 24.3044 17.0613C24.7224 17.0024 25.219 17.1299 25.7796 17.4414C27.9262 18.6283 29.8933 20.2543 31.4841 22.226C31.0809 22.2039 30.6604 22.4295 30.2277 22.8783C28.8433 22.1696 27.2476 21.5786 25.5436 21.1224C25.278 21.0513 25.0789 21.0758 24.9461 21.1984C24.8133 21.3186 24.7445 21.581 24.7396 21.9783C24.7346 22.3756 24.7961 22.665 24.924 22.8391C25.0518 23.0132 25.2485 23.1138 25.5116 23.1456C26.8369 23.3001 28.1008 23.4963 29.249 23.7244Z" fill="white"/>
<defs>
<clipPath id="clip0">
<rect width="102.443" height="12.1956" fill="white" transform="translate(56.9128 17.887)"/>
</clipPath>
</defs>
</svg>
