<svg width="133" height="374" viewBox="0 0 133 374" fill="none" xmlns="http://www.w3.org/2000/svg">
<path d="M89.475 10.1602L89.2344 9.99979C89.2807 9.9531 89.3186 9.89884 89.3467 9.83936L89.6034 9.9677C89.5553 10.0282 89.5123 10.0926 89.475 10.1602Z" fill="#FFE23F"/>
<path d="M99.3661 5.9665C99.3661 6.19051 99.2701 6.39852 99.2381 6.62252L98.79 6.49452C98.79 6.28651 98.79 6.0625 98.918 5.85449L99.3661 5.9665Z" fill="#FFE23F"/>
<path d="M80.7204 64.5311L80.1924 64.3711L80.3524 64.019L80.8804 64.2111C80.8324 64.3711 80.7684 64.3711 80.7204 64.5311Z" fill="#00CF9B"/>
<path d="M56.7861 68.0649L56.9781 68.337L56.7701 68.449L56.5781 68.1769L56.7861 68.0649Z" fill="#FF1F5A"/>
<path d="M33.3799 92.708L32.7559 92.42L32.9959 92.02L33.6359 92.308C33.6039 92.452 33.4599 92.58 33.3799 92.708Z" fill="#999999"/>
<path d="M2.49542 112.869L1.9834 113.253L1.77539 112.885L2.27141 112.501C2.35142 112.613 2.41542 112.741 2.49542 112.869Z" fill="#FFE23F"/>
<path d="M7.63146 168.377C7.57944 168.508 7.52069 168.636 7.45545 168.761L7.23145 168.601L7.40745 168.217L7.63146 168.377Z" fill="#75299E"/>
<path d="M0.384017 196.697C0.384017 196.841 0.384017 196.985 0.256011 197.129L5.15185e-09 197.001C3.4346e-09 196.857 0.0800035 196.713 0.128006 196.569L0.384017 196.697Z" fill="#999999"/>
<path d="M16.7363 225.706L16.4483 225.962C16.3965 225.898 16.3535 225.828 16.3203 225.754L16.6083 225.498L16.7363 225.706Z" fill="#FFE23F"/>
<path d="M19.9035 274.427C19.82 274.521 19.7451 274.623 19.6795 274.731L19.5195 274.555L19.7595 274.251L19.9035 274.427Z" fill="#FF1F5A"/>
<path d="M67.2052 299.436L66.9651 300.044L66.6611 299.82L66.9011 299.228L67.2052 299.436Z" fill="#00CF9B"/>
<path d="M56.7051 318.959L57.1051 318.719C57.1051 318.719 57.1051 318.879 57.1851 318.959L56.7851 319.199C56.7851 319.199 56.7371 319.039 56.7051 318.959Z" fill="#FFE23F"/>
<path d="M106.9 354.32C106.9 354.448 106.9 354.576 107.028 354.704L106.82 354.704C106.82 354.576 106.74 354.448 106.692 354.336L106.9 354.32Z" fill="#999999"/>
<path d="M124.422 373.616C124.467 373.715 124.504 373.816 124.534 373.921L124.39 373.921L124.262 373.632L124.422 373.616Z" fill="#FFE23F"/>
<path d="M126.005 3.04013L123.749 1.44006L124.789 -1.24024e-08L127.061 1.60007L126.005 3.04013Z" fill="#FFE23F"/>
<path d="M126.87 47.6816L124.358 48.7857L123.702 47.1856C124.534 46.8176 125.302 46.4336 126.23 46.0815C126.406 46.5936 126.646 47.1376 126.87 47.6816Z" fill="#999999"/>
<path d="M93.6672 38.85C93.6672 39.8261 93.6672 40.7861 93.6672 41.7461L91.8271 41.6501L91.8271 38.77L93.6672 38.85Z" fill="#FFE23F"/>
<path d="M73.9239 77.2657L71.2998 76.5136C71.4918 75.9696 71.6998 75.4416 71.9078 74.9136C72.7879 75.1696 73.6679 75.4096 74.5479 75.6816L73.9239 77.2657Z" fill="#999999"/>
<path d="M32.7373 94.5315C32.3373 94.2915 31.9213 94.0675 31.4893 93.8435C31.6653 93.6034 31.8413 93.3634 32.0013 93.1074L33.2653 93.7955L32.7373 94.5315Z" fill="#FFE23F"/>
<path d="M58.2441 102.051C58.3561 102.419 58.4841 102.787 58.6121 103.155L57.9081 103.283C57.78 102.915 57.652 102.547 57.54 102.179L58.2441 102.051Z" fill="#00CF9B"/>
<path d="M52.0503 130.421L52.9144 131.413L52.2423 131.845L51.3623 130.837C51.6023 130.709 51.8263 130.565 52.0503 130.421Z" fill="#FFE23F"/>
<path d="M36.6593 162.774C36.6593 163.286 36.6593 163.782 36.5793 164.374L35.6992 164.166C35.6992 163.654 35.6992 163.142 35.7792 162.566L36.6593 162.774Z" fill="#75299E"/>
<path d="M41.6961 221.53L38.896 222.714C38.784 222.154 38.656 221.578 38.5439 221.002L41.3601 219.818L41.6961 221.53Z" fill="#FFE23F"/>
<path d="M43.203 251.801L41.4269 253.785L40.5469 252.585L42.339 250.585C42.675 250.985 42.947 251.401 43.203 251.801Z" fill="#75299E"/>
<path d="M55.4421 284.445L56.6101 284.445C56.6101 284.653 56.5301 284.861 56.4981 285.069L55.3301 285.069C55.3621 284.861 55.4101 284.653 55.4421 284.445Z" fill="#75299E"/>
<path d="M58.7051 295.709L59.5851 295.261C59.6183 295.428 59.6611 295.594 59.7131 295.757L58.8171 296.205C58.7851 296.045 58.7531 295.869 58.7051 295.709Z" fill="#FFE23F"/>
<path d="M112.563 293.085L111.251 293.917C111.251 293.677 111.091 293.421 110.995 293.181L112.323 292.349L112.563 293.085Z" fill="#75299E"/>
<path d="M110.899 23.5851C110.019 24.8651 109.139 26.1612 108.307 27.4733L106.003 25.8732C106.851 24.5451 107.747 23.2331 108.627 21.937L110.899 23.5851Z" fill="#75299E"/>
<path d="M120.999 61.4265C120.743 60.9305 120.487 60.4345 120.215 59.9385L121.111 59.5225C121.383 60.0185 121.639 60.5145 121.895 61.0265L120.999 61.4265Z" fill="#75299E"/>
<path d="M90.6602 67.6494C91.2683 69.0895 91.9083 70.5135 92.5483 71.9536L89.9562 72.8976C89.3002 71.4576 88.6442 70.0015 88.0361 68.5454L90.6602 67.6494Z" fill="#FF1F5A"/>
<path d="M69.7152 83.7642C70.9793 84.1322 72.2593 84.4362 73.5234 84.7722L72.7394 86.9323C71.4433 86.6123 70.1632 86.2763 68.8672 85.9082C69.1552 85.1722 69.4432 84.4682 69.7152 83.7642Z" fill="#75299E"/>
<path d="M73.602 112.181C73.922 113.669 74.2581 115.173 74.6261 116.645L72.002 116.933C71.6339 115.429 71.2979 113.925 70.9619 112.421L73.602 112.181Z" fill="#75299E"/>
<path d="M37.6491 123.301C37.4411 124.677 37.2651 126.053 37.1051 127.429L34.833 126.773C34.993 125.365 35.185 123.973 35.393 122.597L37.6491 123.301Z" fill="#FF1F5A"/>
<path d="M31.5051 146.759C32.0651 147.655 32.6572 148.551 33.2652 149.431L31.6651 150.167C31.0411 149.271 30.4491 148.359 29.873 147.447L31.5051 146.759Z" fill="#FFE23F"/>
<path d="M34.5924 192.599C35.9525 193.383 37.3445 194.199 38.7366 194.887L37.1365 196.871C35.7125 196.119 34.3204 195.271 32.9443 194.535L34.5924 192.599Z" fill="#75299E"/>
<path d="M62.1472 237.883C62.6593 239.035 63.1713 240.171 63.7473 241.307L61.8432 241.755C61.2832 240.603 60.7552 239.451 60.2432 238.299L62.1472 237.883Z" fill="#FFE23F"/>
<path d="M89.1865 228.762C88.8024 229.258 88.4344 229.754 88.0664 230.266L87.4424 229.546C87.8104 229.034 88.1944 228.522 88.5784 228.026L89.1865 228.762Z" fill="#999999"/>
<path d="M82.6888 275.196C82.5608 276.284 82.4328 277.372 82.3208 278.396L80.7207 277.852C80.8327 276.748 80.9607 275.644 81.1207 274.556L82.6888 275.196Z" fill="#FF1F5A"/>
<path d="M82.8827 308.717C83.4587 308.717 84.0347 308.717 84.6107 308.637L84.4667 309.437L82.7227 309.517C82.7707 309.181 82.8347 308.989 82.8827 308.717Z" fill="#FFE23F"/>
<path d="M86.4845 46.8491C86.9965 47.5372 87.5085 48.2092 88.0845 48.8652L86.9165 49.6812C86.3725 49.0092 85.8391 48.3212 85.3164 47.6172C85.7004 47.3611 86.0844 47.0891 86.4845 46.8491Z" fill="#FFE23F"/>
<path d="M78.0678 92.501C78.4998 93.237 78.9478 93.973 79.3958 94.6931L78.1478 95.3331C77.6837 94.5971 77.2357 93.845 76.8037 93.093L78.0678 92.501Z" fill="#FF1F5A"/>
<path d="M80.2421 107.573C79.1221 106.949 77.97 106.341 76.834 105.765C77.202 105.189 77.602 104.613 77.986 104.021C79.1541 104.629 80.3221 105.237 81.4582 105.877C81.0582 106.469 80.6422 107.029 80.2421 107.573Z" fill="#FF1F5A"/>
<path d="M59.2036 119.844C58.2756 120.666 57.3635 121.514 56.4675 122.388L55.3154 120.788C56.2328 119.914 57.1608 119.05 58.0996 118.196C58.4196 118.772 58.7876 119.3 59.2036 119.844Z" fill="#00CF9B"/>
<path d="M78.2118 172.759C77.2517 172.871 76.3077 173.015 75.3477 173.191L75.3477 171.687C76.3237 171.511 77.2997 171.367 78.2598 171.239L78.2118 172.759Z" fill="#00CF9B"/>
<path d="M61.7485 196.679C60.6604 198.039 59.6044 199.431 58.5483 200.839L56.7402 198.903C57.7803 197.463 58.8523 196.055 59.9404 194.663L61.7485 196.679Z" fill="#00CF9B"/>
<path d="M63.7149 190.776C63.5228 191.448 63.3468 192.104 63.1708 192.776L62.2588 192.328C62.4188 191.64 62.6108 190.968 62.8028 190.296L63.7149 190.776Z" fill="#75299E"/>
<path d="M59.2019 214.121C59.4099 214.873 59.6339 215.641 59.8739 216.393L58.7538 216.489C58.4978 215.721 58.2738 214.889 58.0498 214.169L59.2019 214.121Z" fill="#999999"/>
<path d="M99.5093 262.443C100.101 262.971 100.693 263.483 101.301 264.043L100.437 264.683C99.8133 264.187 99.2213 263.659 98.6133 263.083L99.5093 262.443Z" fill="#75299E"/>
<path d="M118.147 274.234C118.627 275.162 119.139 276.106 119.651 277.018L118.307 277.403C117.779 276.458 117.267 275.514 116.707 274.538L118.147 274.234Z" fill="#75299E"/>
<path d="M118.915 298.688C118.803 299.744 118.707 300.8 118.643 301.888L117.363 301.488C117.363 300.4 117.523 299.328 117.635 298.288L118.915 298.688Z" fill="#FFE23F"/>
<path d="M130.326 317.181C130.63 317.949 130.966 318.781 131.318 319.469L130.326 319.677C129.974 318.909 129.638 318.077 129.318 317.341L130.326 317.181Z" fill="#75299E"/>
<path d="M125.123 91.2349C123.907 89.5549 122.675 87.9068 121.379 86.2907L124.019 84.5146C125.347 86.1147 126.611 87.8428 127.843 89.5709L125.123 91.2349Z" fill="#999999"/>
<path d="M119.124 96.1001C119.396 98.6442 119.748 101.188 120.18 103.716L116.276 103.908C115.844 101.316 115.492 98.7242 115.22 96.1161L119.124 96.1001Z" fill="#999999"/>
<path d="M96.5321 141.269C95.156 142.117 93.796 143.013 92.4679 143.941L91.3799 141.781C92.7399 140.837 94.116 139.925 95.5241 139.061C95.8441 139.818 96.1801 140.554 96.5321 141.269Z" fill="#75299E"/>
<path d="M89.0141 137.526C91.3502 137.99 93.7023 138.374 96.0704 138.71C95.7184 139.798 95.3824 140.919 95.0304 142.055C92.6143 141.703 90.2302 141.303 87.8301 140.839L89.0141 137.526Z" fill="#75299E"/>
<path d="M86.4048 163.766C84.2767 164.374 82.1806 165.062 80.1005 165.798C79.9405 164.774 79.7805 163.718 79.6045 162.598C81.7486 161.846 83.8927 161.158 86.0048 160.518L86.4048 163.766Z" fill="#75299E"/>
<path d="M60.5316 210.806C62.7557 211.606 65.0118 212.326 67.2839 212.998L65.6838 215.91C63.3637 215.238 61.0436 214.502 58.7715 213.67C59.3955 212.71 59.9555 211.75 60.5316 210.806Z" fill="#FFE23F"/>
<path d="M70.1641 221.064C69.5561 222.328 68.964 223.624 68.436 224.936L66.8359 223.816C67.396 222.472 67.988 221.16 68.628 219.864L70.1641 221.064Z" fill="#00CF9B"/>
<path d="M109.107 259.581C109.107 260.909 109.107 262.253 109.219 263.581L107.491 263.261C107.491 261.901 107.395 260.525 107.395 259.165L109.107 259.581Z" fill="#999999"/>
<path d="M111.283 252.763C110.691 254.363 110.147 256.107 109.683 257.787L107.779 256.667C108.275 254.939 108.851 253.211 109.379 251.515L111.283 252.763Z" fill="#00CF9B"/>
<path d="M124.422 284.589C126.534 284.717 128.662 284.765 130.822 284.781C130.614 285.581 130.406 286.381 130.198 287.245C128.022 287.245 125.846 287.245 123.686 287.053C123.91 286.221 124.166 285.389 124.422 284.589Z" fill="#75299E"/>
<path d="M124.261 89.4594C123.269 89.1714 122.261 88.8994 121.253 88.6754C121.413 88.2114 121.557 87.7314 121.701 87.2354C122.768 87.47 123.792 87.742 124.773 88.0514C124.597 88.5314 124.421 88.9954 124.261 89.4594Z" fill="#FF1F5A"/>
<path d="M107.413 115.06C109.013 115.492 110.453 115.876 112.005 116.212C111.781 116.916 111.541 117.636 111.301 118.372C109.701 118.036 108.101 117.636 106.501 117.188L107.413 115.06Z" fill="#FF1F5A"/>
<path d="M101.461 103.701C99.733 104.325 98.005 104.997 96.3089 105.733L95.5889 103.221C97.3329 102.469 99.093 101.781 100.885 101.141C101.077 102.005 101.269 102.869 101.461 103.701Z" fill="#999999"/>
<path d="M96.0042 146.054C94.0201 145.414 92.02 144.838 90.0039 144.342L91.204 141.654C93.268 142.182 95.3321 142.774 97.3642 143.43C96.9162 144.374 96.4842 145.19 96.0042 146.054Z" fill="#FF1F5A"/>
<path d="M94.7715 154.438C94.4195 156.102 94.1155 157.782 93.8595 159.478L91.6514 158.774C91.9074 157.03 92.2274 155.302 92.5954 153.59L94.7715 154.438Z" fill="#999999"/>
<path d="M81.8106 198.777C84.6161 199.278 87.4269 199.678 90.243 199.977C89.8803 201.161 89.4963 202.361 89.0909 203.577C86.1948 203.257 83.2987 202.841 80.4346 202.329L81.8106 198.777Z" fill="#00CF9B"/>
<path d="M91.4594 186.663C93.8115 187.463 96.2596 188.183 98.5797 188.839L97.0916 191.671C94.6275 190.999 92.1954 190.263 89.7793 189.431L91.4594 186.663Z" fill="#FFE23F"/>
<path d="M93.9716 241.45C96.1051 243.584 98.2705 245.616 100.468 247.546L97.4438 249.691C95.1397 247.658 92.9156 245.578 90.7715 243.402L93.9716 241.45Z" fill="#999999"/>
<path d="M117.828 237.691C117.668 238.715 117.556 239.723 117.476 240.763L116.308 240.363C116.308 239.307 116.516 238.251 116.676 237.163L117.828 237.691Z" fill="#00CF9B"/>
<path d="M125.606 254.171C124.966 257.04 124.432 259.931 124.006 262.843L120.901 261.531C121.349 258.523 121.883 255.547 122.501 252.603L125.606 254.171Z" fill="#FF1F5A"/>
<path d="M121.798 78.0029C123.014 79.0696 124.262 80.0777 125.542 81.0271L124.118 82.7231C122.806 81.7311 121.51 80.6911 120.262 79.523L121.798 78.0029Z" fill="#FFE23F"/>
<path d="M112.003 116.964C112.515 118.052 113.075 119.108 113.683 120.164L112.195 120.853C111.571 119.78 110.995 118.676 110.451 117.556L112.003 116.964Z" fill="#FF1F5A"/>
<path d="M129.029 136.151C127.535 138.285 126.138 140.418 124.836 142.552L122.116 140.456C123.482 138.194 124.922 136.002 126.436 133.879L129.029 136.151Z" fill="#00CF9B"/>
<path d="M113.174 137.64C111.862 136.904 110.502 136.2 109.142 135.56L110.246 133.959C111.654 134.632 113.046 135.352 114.39 136.12L113.174 137.64Z" fill="#999999"/>
<path d="M96.9136 167.08C96.2736 168.408 95.6656 169.752 95.1216 171.128L93.5215 170.12C94.0815 168.712 94.7055 167.32 95.3776 165.959L96.9136 167.08Z" fill="#75299E"/>
<path d="M84.8041 187.241C81.7 188.601 78.6279 190.073 75.6357 191.673C75.2197 190.329 74.8037 188.953 74.3877 187.561C77.4705 185.907 80.6173 184.387 83.8281 183L84.8041 187.241Z" fill="#FF1F5A"/>
<path d="M88.6606 179.736C87.0605 179.736 85.4604 179.736 83.8604 179.736C83.9564 179.096 84.0684 178.44 84.1804 177.768C85.7804 177.768 87.5245 177.768 89.1886 177.768C88.9646 178.44 88.8046 179.096 88.6606 179.736Z" fill="#75299E"/>
<path d="M102.406 230.779C102.678 232.011 102.982 233.227 103.35 234.443L101.846 234.539C101.462 233.275 101.158 232.011 100.886 230.747L102.406 230.779Z" fill="#75299E"/>
<path d="M122.836 257.885C123.156 259.101 123.54 260.317 123.956 261.517L122.5 261.645C122.068 260.413 121.684 259.165 121.364 257.901L122.836 257.885Z" fill="#999999"/>
<path d="M105.94 274.638C108.34 275.102 110.74 275.438 113.22 275.678L112.276 278.222C109.764 277.966 107.268 277.598 104.788 277.134L105.94 274.638Z" fill="#00CF9B"/>
<path d="M129.861 286.283C129.205 287.692 128.613 289.148 128.085 290.62L126.709 289.692C127.269 288.172 127.893 286.667 128.565 285.211L129.861 286.283Z" fill="#00CF9B"/>
<path d="M112.997 117.174C111.797 118.214 110.645 119.318 109.541 120.47L108.229 118.87C109.365 117.686 110.549 116.55 111.797 115.478L112.997 117.174Z" fill="#75299E"/>
<path d="M99.9888 129.269C100.117 130.629 100.293 131.989 100.549 133.333L98.8208 133.413C98.5624 132.026 98.3755 130.627 98.2607 129.221L99.9888 129.269Z" fill="#FF1F5A"/>
<path d="M111.096 138.967C112.691 139.128 114.293 139.208 115.896 139.207C115.8 139.847 115.688 140.503 115.576 141.159C113.976 141.159 112.28 141.063 110.632 140.903C110.776 140.247 110.936 139.575 111.096 138.967Z" fill="#75299E"/>
<path d="M99.9883 186.488C98.3882 185.656 96.6922 184.888 94.9961 184.216C95.3961 183.608 95.7801 182.984 96.1961 182.344C97.9402 183.048 99.6683 183.832 101.348 184.712L99.9883 186.488Z" fill="#00CF9B"/>
<path d="M100.805 168.088C103.669 169.688 106.629 171.177 109.637 172.521C108.901 173.545 108.133 174.585 107.365 175.721C104.165 174.329 101.205 172.809 98.2285 171.129L100.805 168.088Z" fill="#75299E"/>
<path d="M100.37 194.873C98.3055 195.449 96.2574 196.121 94.2413 196.905L93.9053 194.457C95.9854 193.673 98.0975 192.969 100.306 192.377C100.29 193.241 100.322 194.057 100.37 194.873Z" fill="#75299E"/>
<path d="M123.892 248.379C126.084 247.659 128.26 246.778 130.292 245.898C130.436 246.714 130.58 247.499 130.724 248.411C128.532 249.371 126.292 250.219 124.02 250.971C124.036 249.979 123.956 249.147 123.892 248.379Z" fill="#00CF9B"/>
<path d="M110.807 259.916C113.373 261.937 116.043 263.822 118.807 265.564L116.375 267.82C113.521 266.014 110.76 264.065 108.103 261.98L110.807 259.916Z" fill="#999999"/>
<path d="M120.806 99.8765C119.67 100.837 118.582 101.861 117.606 102.933L116.406 101.557C117.482 100.433 118.614 99.3646 119.798 98.3564L120.806 99.8765Z" fill="#FFE23F"/>
<path d="M99.7965 128.661C99.8773 131.444 100.102 134.221 100.469 136.981L97.1564 136.981C96.7815 134.126 96.5571 131.252 96.4844 128.373L99.7965 128.661Z" fill="#FF1F5A"/>
<path d="M122.996 176.519C120.054 176.468 117.111 176.57 114.18 176.823C114.276 175.703 114.372 174.583 114.484 173.415C117.521 173.146 120.571 173.045 123.62 173.111C123.396 174.279 123.204 175.415 122.996 176.519Z" fill="#FFE23F"/>
<path d="M97.9401 175.16C97.7694 176.503 97.6786 177.855 97.6681 179.208L96.1641 178.888C96.1798 177.481 96.276 176.076 96.4521 174.68L97.9401 175.16Z" fill="#FF1F5A"/>
<path d="M112.915 203.465C112.588 204.949 112.343 206.45 112.179 207.961L110.579 207.417C110.754 205.853 111.011 204.299 111.347 202.761L112.915 203.465Z" fill="#00CF9B"/>
<path d="M112.452 215.672C113.624 216.983 114.863 218.233 116.164 219.417L114.564 220.473C113.22 219.235 111.94 217.939 110.724 216.584L112.452 215.672Z" fill="#FF1F5A"/>
<path d="M118.517 216.553C122.086 215.418 125.59 214.088 129.013 212.569C129.221 213.801 129.429 215.049 129.653 216.345C126.096 217.912 122.459 219.29 118.757 220.473C118.677 219.129 118.597 217.833 118.517 216.553Z" fill="#FFE23F"/>
<path d="M122.227 159.462C123.909 159.403 125.587 159.248 127.251 158.998C127.251 159.606 127.251 160.23 127.251 160.886C125.523 161.136 123.781 161.291 122.035 161.35C122.083 160.694 122.163 160.07 122.227 159.462Z" fill="#00CF9B"/>
<path d="M117.556 183.48C119.132 184.734 120.777 185.899 122.484 186.968L120.996 188.568C119.222 187.462 117.512 186.254 115.876 184.952L117.556 183.48Z" fill="#FF1F5A"/>
<path d="M109.364 166.918C107.941 170.174 106.718 173.514 105.699 176.918L102.403 175.094C103.475 171.561 104.752 168.094 106.227 164.709L109.364 166.918Z" fill="#00CF9B"/>
<path d="M105.716 227.579C107.994 227.133 110.243 226.551 112.452 225.834C112.452 226.587 112.548 227.339 112.596 228.123C110.306 228.861 107.97 229.449 105.604 229.883C105.604 229.083 105.684 228.315 105.716 227.579Z" fill="#999999"/>
<path d="M119.558 136.375C117.504 137.389 115.515 138.533 113.606 139.799C113.254 139.063 112.886 138.311 112.502 137.543C114.498 136.222 116.577 135.03 118.726 133.975C118.998 134.775 119.286 135.591 119.558 136.375Z" fill="#75299E"/>
<path d="M121.173 208.698C119.947 209.767 118.792 210.916 117.717 212.138L116.789 210.826C117.907 209.562 119.104 208.37 120.373 207.258L121.173 208.698Z" fill="#FFE23F"/>
<path d="M126.405 208.378C126.565 211.664 126.95 214.936 127.557 218.17L124.357 217.978C123.737 214.611 123.347 211.206 123.188 207.786L126.405 208.378Z" fill="#FF1F5A"/>
<path d="M126.407 148.006C127.429 152.171 128.75 156.256 130.359 160.231L126.103 161.127C124.443 156.993 123.074 152.748 122.007 148.422L126.407 148.006Z" fill="#00CF9B"/>
<path d="M117.876 184.696C113.792 185.61 109.777 186.808 105.86 188.28C105.652 186.968 105.428 185.592 105.187 184.2C109.264 182.663 113.445 181.422 117.7 180.488C117.764 181.928 117.828 183.336 117.876 184.696Z" fill="#00CF9B"/>
<path d="M107.62 193.577C109.85 193.465 112.069 193.193 114.26 192.761C114.26 193.465 114.26 194.169 114.26 194.905C111.979 195.35 109.669 195.628 107.348 195.737C107.422 195.001 107.513 194.281 107.62 193.577Z" fill="#FFE23F"/>
<path d="M118.95 216.808C123.194 218.249 127.536 219.383 131.942 220.2L130.246 223.992C125.686 223.137 121.194 221.949 116.806 220.44L118.95 216.808Z" fill="#00CF9B"/>
<path d="M132.469 216.089C132.133 220.632 132.133 225.194 132.469 229.738L128.453 229.001C128.102 224.266 128.102 219.512 128.453 214.777L132.469 216.089Z" fill="#75299E"/>
<path d="M132.502 169.72C131.809 171.658 131.274 173.649 130.902 175.672L129.126 174.952C129.489 172.843 130.025 170.767 130.726 168.744L132.502 169.72Z" fill="#999999"/>
</svg>
