<svg width="15" height="15" viewBox="0 0 15 15" fill="none" xmlns="http://www.w3.org/2000/svg">
<g id="Group 1370 1" clip-path="url(#clip0_602_22792)">
<path id="Vector" d="M13.3334 3.99994H2V10.6666H13.3334V3.99994Z" fill="white"/>
<path id="Vector_2" d="M7.5 0C6.01664 0 4.56659 0.439868 3.33323 1.26398C2.09986 2.08809 1.13856 3.25942 0.570906 4.62987C0.00324956 6.00032 -0.145275 7.50831 0.144113 8.96317C0.433503 10.418 1.14781 11.7544 2.19671 12.8033C3.24559 13.8522 4.58196 14.5665 6.03682 14.8559C7.49169 15.1453 8.99968 14.9968 10.3701 14.4291C11.7406 13.8614 12.9119 12.9001 13.736 11.6668C14.5602 10.4334 15 8.98336 15 7.5C15 6.51509 14.806 5.53981 14.4291 4.62987C14.0522 3.71994 13.4998 2.89314 12.8033 2.1967C12.1068 1.50026 11.2801 0.947814 10.3701 0.570903C9.46019 0.193993 8.48491 0 7.5 0ZM11.757 6.17775L7.257 10.3027C7.11453 10.4334 6.92712 10.504 6.73386 10.4998C6.5406 10.4956 6.35643 10.4169 6.21975 10.2802L3.96975 8.03025C3.89812 7.96107 3.84099 7.8783 3.80167 7.7868C3.76237 7.6953 3.74167 7.59688 3.74082 7.4973C3.73995 7.39771 3.75892 7.29896 3.79664 7.20678C3.83434 7.11461 3.89004 7.03087 3.96046 6.96045C4.03087 6.89004 4.11462 6.83434 4.20678 6.79663C4.29896 6.75892 4.39772 6.73995 4.4973 6.74081C4.59689 6.74167 4.6953 6.76236 4.78681 6.80167C4.87831 6.84097 4.96107 6.89811 5.03025 6.96975L6.7725 8.712L10.743 5.07225C10.8896 4.93779 11.0836 4.86706 11.2824 4.87564C11.4811 4.88422 11.6683 4.9714 11.8027 5.118C11.9372 5.26459 12.0079 5.45861 11.9994 5.65735C11.9908 5.85609 11.9036 6.04329 11.757 6.17775Z" fill="#0AC23D"/>
</g>
<defs>
<clipPath id="clip0_602_22792">
<rect width="15" height="15" fill="white"/>
</clipPath>
</defs>
</svg>
