<svg width="58" height="58" viewBox="0 0 58 58" fill="none" xmlns="http://www.w3.org/2000/svg">
<rect width="58" height="58" rx="29" fill="#271F4A" fill-opacity="0.4"/>
<path d="M21.001 24.0039H37.001" stroke="#EDCEFF" stroke-width="1.5" stroke-linecap="round" stroke-linejoin="round"/>
<path d="M27.001 27.9961V33.9961" stroke="#EDCEFF" stroke-width="1.5" stroke-linecap="round" stroke-linejoin="round"/>
<path d="M30.999 27.9961V33.9961" stroke="#EDCEFF" stroke-width="1.5" stroke-linecap="round" stroke-linejoin="round"/>
<path d="M21.999 24.0039L22.999 36.0039C22.999 36.5343 23.2097 37.043 23.5848 37.4181C23.9599 37.7932 24.4686 38.0039 24.999 38.0039H32.999C33.5295 38.0039 34.0382 37.7932 34.4132 37.4181C34.7883 37.043 34.999 36.5343 34.999 36.0039L35.999 24.0039" stroke="#EDCEFF" stroke-width="1.5" stroke-linecap="round" stroke-linejoin="round"/>
<path d="M26 24V21C26 20.7348 26.1054 20.4804 26.2929 20.2929C26.4804 20.1054 26.7348 20 27 20H31C31.2652 20 31.5196 20.1054 31.7071 20.2929C31.8946 20.4804 32 20.7348 32 21V24" stroke="#EDCEFF" stroke-width="1.5" stroke-linecap="round" stroke-linejoin="round"/>
</svg>
