<svg width="24" height="29" viewBox="0 0 24 29" fill="none" xmlns="http://www.w3.org/2000/svg">
<path d="M21.3333 0.666504H2.66667C1.18667 0.666504 0 1.8665 0 3.33317V21.9998C0 23.4665 1.18667 24.6665 2.66667 24.6665H8L12 28.6665L16 24.6665H21.3333C22.8 24.6665 24 23.4665 24 21.9998V3.33317C24 1.8665 22.8 0.666504 21.3333 0.666504ZM21.3333 21.9998H14.8933L14.1067 22.7865L12 24.8932L9.88 22.7732L9.10667 21.9998H2.66667V3.33317H21.3333V21.9998ZM12 12.6665C14.2 12.6665 16 10.8665 16 8.6665C16 6.4665 14.2 4.6665 12 4.6665C9.8 4.6665 8 6.4665 8 8.6665C8 10.8665 9.8 12.6665 12 12.6665ZM12 7.33317C12.7333 7.33317 13.3333 7.93317 13.3333 8.6665C13.3333 9.39984 12.7333 9.99984 12 9.99984C11.2667 9.99984 10.6667 9.39984 10.6667 8.6665C10.6667 7.93317 11.2667 7.33317 12 7.33317ZM20 18.7732C20 15.4398 14.7067 13.9998 12 13.9998C9.29333 13.9998 4 15.4398 4 18.7732V20.6665H20V18.7732ZM7.30667 17.9998C8.29333 17.3198 10.28 16.6665 12 16.6665C13.72 16.6665 15.7067 17.3198 16.6933 17.9998H7.30667Z" fill="white"/>
</svg>
