<svg width="24" height="30" viewBox="0 0 24 30" fill="none" xmlns="http://www.w3.org/2000/svg">
    <path d="M2.66673 18.9997H21.3334V10.9997H2.66673V18.9997ZM5.3334 13.6663H18.6667V16.333H5.3334V13.6663ZM10.6667 0.333008H13.3334V4.33301H10.6667V0.333008ZM23.2801 5.67967L21.3867 3.79967L19.0001 6.18634L20.8801 8.06634L23.2801 5.67967ZM10.6667 25.6663H13.3334V29.6663H10.6667V25.6663ZM18.9867 23.9463L21.3734 26.3463L23.2667 24.453L20.8667 22.0663L18.9867 23.9463ZM2.6134 3.79301L4.9974 6.17967L3.12007 8.05301L0.737398 5.67034L2.6134 3.79301ZM0.733398 24.4397L2.6134 26.333L5.00006 23.933L3.12007 22.053L0.733398 24.4397Z" fill="white"/>
</svg>
