<svg width="24" height="24" viewBox="0 0 24 24" fill="none" xmlns="http://www.w3.org/2000/svg">
    <path d="M10.6667 5.33333H18.6667V8H10.6667V5.33333ZM10.6667 10.6667H18.6667V13.3333H10.6667V10.6667ZM10.6667 16H18.6667V18.6667H10.6667V16ZM5.33333 5.33333H8V8H5.33333V5.33333ZM5.33333 10.6667H8V13.3333H5.33333V10.6667ZM5.33333 16H8V18.6667H5.33333V16ZM22.8 0H1.2C0.533333 0 0 0.533333 0 1.2V22.8C0 23.3333 0.533333 24 1.2 24H22.8C23.3333 24 24 23.3333 24 22.8V1.2C24 0.533333 23.3333 0 22.8 0ZM21.3333 21.3333H2.66667V2.66667H21.3333V21.3333Z" fill="white"/>
</svg>
