<svg width="32" height="32" viewBox="0 0 32 32" fill="none" xmlns="http://www.w3.org/2000/svg">
<path d="M6.66667 26.6666C8.13943 26.6666 9.33333 25.4727 9.33333 24C9.33333 22.5272 8.13943 21.3333 6.66667 21.3333C5.19391 21.3333 4 22.5272 4 24C4 25.4727 5.19391 26.6666 6.66667 26.6666Z" stroke="currentColor" stroke-width="2" stroke-linecap="round"/>
<path d="M25.3332 10.6666C26.8059 10.6666 27.9998 9.47274 27.9998 7.99998C27.9998 6.52722 26.8059 5.33331 25.3332 5.33331C23.8604 5.33331 22.6665 6.52722 22.6665 7.99998C22.6665 9.47274 23.8604 10.6666 25.3332 10.6666Z" stroke="currentColor" stroke-width="2" stroke-linecap="round"/>
<path d="M25.3332 10.6667V17.3334C25.3332 19.1015 25.3332 22 25.3332 24C23 24 20.4346 24 18.6665 24H14.6665M14.6665 24L18.6665 20M14.6665 24L18.6665 28" stroke="currentColor" stroke-width="2" stroke-linecap="round"/>
<path d="M6.6665 21.3333V14.6667C6.6665 12.8986 6.66686 11 6.66662 8C9.00011 8 11.5651 8 13.3332 8H17.3332M17.3332 8L13.3332 4M17.3332 8L13.3332 12" stroke="currentColor" stroke-width="2" stroke-linecap="round"/>
</svg>
