<svg width="24" height="24" viewBox="0 0 24 24" fill="none" xmlns="http://www.w3.org/2000/svg">
    <path d="M0 2.66667H2.66667V0C1.2 0 0 1.2 0 2.66667ZM0 13.3333H2.66667V10.6667H0V13.3333ZM5.33333 24H8V21.3333H5.33333V24ZM0 8H2.66667V5.33333H0V8ZM13.3333 0H10.6667V2.66667H13.3333V0ZM21.3333 0V2.66667H24C24 1.2 22.8 0 21.3333 0ZM2.66667 24V21.3333H0C0 22.8 1.2 24 2.66667 24ZM0 18.6667H2.66667V16H0V18.6667ZM8 0H5.33333V2.66667H8V0ZM10.6667 24H13.3333V21.3333H10.6667V24ZM21.3333 13.3333H24V10.6667H21.3333V13.3333ZM21.3333 24C22.8 24 24 22.8 24 21.3333H21.3333V24ZM21.3333 8H24V5.33333H21.3333V8ZM21.3333 18.6667H24V16H21.3333V18.6667ZM16 24H18.6667V21.3333H16V24ZM16 2.66667H18.6667V0H16V2.66667ZM5.33333 18.6667H18.6667V5.33333H5.33333V18.6667ZM8 8H16V16H8V8Z" fill="white"/>
</svg>
