<svg width="197" height="176" viewBox="0 0 197 176" fill="none" xmlns="http://www.w3.org/2000/svg">
<path d="M175.013 65.9277H23V157.765H175.013V65.9277Z" fill="#8D9EFC"/>
<path d="M95.7984 9.64023L23 65.9277H175.013L102.215 9.64023C100.24 8.15898 97.7726 8.15898 95.7984 9.64023Z" fill="#8D9EFC"/>
<path d="M150.829 0.75293H50.6382C54.3398 0.75293 57.3011 3.71543 57.3011 7.41856V21.4904H156.998V6.67793C156.998 3.46855 154.283 0.75293 150.829 0.75293Z" fill="#B4D5F3"/>
<path d="M150.828 0.75293H132.32V21.7373H145.399C145.399 21.7373 144.906 14.8248 146.88 11.3686C148.854 7.66543 156.998 8.65293 156.998 8.65293V7.17168C156.998 3.46856 154.283 0.75293 150.828 0.75293Z" fill="#91BBE1"/>
<path d="M45.7026 7.17175V144.187H129.606V146.162C129.606 149.866 132.567 152.828 136.269 152.828C139.97 152.828 142.932 149.866 142.932 146.162V144.187V7.6655C142.932 3.96238 145.893 0.999875 149.595 0.999875H51.872C48.4172 0.753 45.7026 3.7155 45.7026 7.17175Z" fill="#DAEDFF"/>
<path d="M129.606 146.163V132.091H29.9092V146.903C29.9092 150.359 32.6237 153.075 36.0785 153.075H136.269C132.567 153.075 129.606 150.113 129.606 146.163Z" fill="#3A9FFF"/>
<path d="M62.9775 25.9346H61.9904C61.4968 26.1814 60.7565 26.6752 59.7694 26.6752V27.6627H61.7436V35.8096H59.2759V37.0439H65.4452V35.8096H63.2243V25.9346H62.9775Z" fill="#828EFF"/>
<path d="M70.3801 25.6875C68.1592 25.6875 66.9253 27.6625 66.9253 31.3656C66.9253 35.0688 68.1592 37.0438 70.3801 37.0438C72.6011 37.0438 73.835 35.0688 73.835 31.3656C73.835 27.6625 72.6011 25.6875 70.3801 25.6875ZM70.3801 36.0563C69.1463 36.0563 68.1592 34.575 68.1592 31.3656C68.1592 28.1562 68.8995 26.9219 70.3801 26.9219C71.614 26.9219 72.6011 28.1562 72.6011 31.3656C72.6011 34.575 71.8608 36.0563 70.3801 36.0563Z" fill="#828EFF"/>
<path d="M80.0048 25.9346H79.0177C78.5242 26.1814 77.7839 26.6752 76.7968 26.6752V27.6627H78.771V35.8096H76.3032V37.0439H82.2258V35.8096H80.0048V25.9346Z" fill="#828EFF"/>
<path d="M90.1223 27.9096V29.3908C89.382 28.8971 88.6416 28.4033 87.9013 28.4033C85.9271 28.4033 84.1997 30.1314 84.1997 32.8471C84.1997 35.5627 85.6804 37.2908 87.6546 37.2908C88.6416 37.2908 89.6287 36.7971 90.1223 36.0564V37.0439H91.3562V24.7002H89.8755V27.9096H90.1223ZM90.1223 34.8221C89.382 35.5627 88.6416 36.0564 87.9013 36.0564C86.4207 36.0564 85.6804 34.8221 85.6804 32.8471C85.6804 30.8721 86.6675 29.6377 88.1481 29.6377C88.8884 29.6377 89.382 29.8846 90.1223 30.6252V34.8221Z" fill="#828EFF"/>
<path d="M98.2658 25.9346H97.0319C96.5384 26.1814 95.798 26.6752 94.8109 26.6752V27.6627H96.7851V35.8096H94.3174V37.0439H100.487V35.8096H98.2658V25.9346Z" fill="#828EFF"/>
<path d="M106.163 30.1312C105.176 30.1312 104.189 30.6249 103.695 31.6124C103.695 28.1562 105.176 26.9218 106.657 26.9218C107.397 26.9218 108.137 27.1687 108.384 27.6624L109.125 26.6749C108.384 25.9343 107.644 25.4406 106.41 25.4406C104.189 25.4406 102.215 27.1687 102.215 31.6124C102.215 35.0687 103.942 36.7968 105.916 36.7968C107.644 36.7968 109.125 35.3156 109.125 33.3406C109.371 31.3656 108.137 30.1312 106.163 30.1312ZM106.163 36.0562C104.683 36.0562 103.942 34.8218 103.695 32.8468C104.436 31.8593 105.176 31.3656 105.916 31.3656C107.397 31.3656 107.891 32.3531 107.891 33.5874C107.891 35.0687 107.15 36.0562 106.163 36.0562Z" fill="#828EFF"/>
<path d="M115.293 25.9346H114.306C113.813 26.1814 113.072 26.6752 112.085 26.6752V27.6627H114.06V35.8096H111.592V37.0439H117.761V35.8096H115.54V25.9346H115.293Z" fill="#828EFF"/>
<path d="M129.113 31.6125C128.866 32.8469 128.619 34.0813 128.373 35.3156C128.126 34.0813 127.879 32.8469 127.632 31.6125L125.905 25.6875H124.671L123.19 31.8594C122.943 33.0938 122.697 34.3281 122.45 35.5625C122.203 34.3281 121.956 33.0938 121.71 31.8594L120.476 25.6875H118.995L121.463 37.0438H123.19L124.918 30.1312C125.164 29.1437 125.411 28.4031 125.411 27.6625C125.658 28.65 125.658 29.3906 125.905 30.1312L127.632 37.0438H129.36L131.581 25.6875H130.1L129.113 31.6125Z" fill="#828EFF"/>
<path d="M62.7309 46.6719H61.7438C61.2503 46.9188 60.5099 47.4125 59.5228 47.4125V48.4H61.497V56.5469H59.0293V57.7812H64.9519V56.5469H62.7309V46.6719Z" fill="#828EFF"/>
<path d="M76.3031 52.3505C76.0563 53.5848 75.8096 54.8192 75.5628 56.0536C75.316 54.8192 75.0692 53.5848 74.8225 52.3505L73.3418 46.1786H72.1079L70.6273 52.3505C70.3805 53.5848 70.1337 54.8192 69.887 56.0536C69.6402 54.8192 69.3934 53.5848 69.1467 52.3505L67.9128 46.1786H66.4321L68.8999 57.5348H70.6273L72.3547 50.6223C72.6015 49.6348 72.8483 48.8942 72.8483 48.1536C73.095 49.1411 73.095 49.8817 73.3418 50.6223L75.0692 57.5348H76.7966L79.0176 46.1786H77.537L76.3031 52.3505Z" fill="#828EFF"/>
<path d="M84.6933 46.6719H83.7062C83.2127 46.9188 82.4723 47.4125 81.4852 47.4125V48.4H83.4594V56.5469H80.9917V57.7812H87.161V56.5469H84.6933V46.6719Z" fill="#828EFF"/>
<path d="M93.5773 52.3505C93.0837 53.5848 92.837 54.8192 92.5902 56.0536C92.0966 54.8192 91.8499 53.5848 91.6031 52.3505L89.8757 46.1786H88.395L92.0966 57.5348H93.8241L97.5257 46.1786H96.045L93.5773 52.3505Z" fill="#828EFF"/>
<path d="M97.0322 47.413H100.487V57.5348H101.968V47.413H105.423V46.1786H97.0322V47.413Z" fill="#828EFF"/>
<path d="M111.099 46.6719H110.111C109.618 46.9188 108.878 47.4125 107.891 47.4125V48.4H109.865V56.5469H107.397V57.7812H113.566V56.5469H111.345V46.6719H111.099Z" fill="#828EFF"/>
<path d="M118.995 48.8937C117.021 48.8937 115.046 50.3749 115.046 53.3374C115.046 56.0531 116.774 57.7812 118.995 57.7812C120.969 57.7812 122.943 56.2999 122.943 53.3374C122.943 50.6218 121.216 48.8937 118.995 48.8937ZM118.995 56.5468C117.514 56.5468 116.527 55.3124 116.527 53.3374C116.527 51.3624 117.514 50.1281 118.995 50.1281C120.475 50.1281 121.463 51.3624 121.463 53.3374C121.463 55.3124 120.475 56.5468 118.995 56.5468Z" fill="#828EFF"/>
<path d="M129.113 46.6719H128.126C127.632 46.9188 126.892 47.4125 125.905 47.4125V48.4H127.879V56.5469H125.411V57.7812H131.58V56.5469H129.113V46.6719Z" fill="#828EFF"/>
<path d="M61.4967 67.163H60.5096C60.0161 67.4098 59.2758 67.9036 58.2887 67.9036V68.8911H60.0161V77.038H57.5483V78.2723H63.7177V77.038H61.4967V67.163Z" fill="#828EFF"/>
<path d="M69.3937 69.6317C67.4195 69.6317 65.4453 71.113 65.4453 74.0755C65.4453 76.7911 67.1727 78.5192 69.3937 78.5192C71.3679 78.5192 73.3421 77.038 73.3421 74.0755C73.3421 71.3598 71.6147 69.6317 69.3937 69.6317ZM69.3937 77.2848C67.9131 77.2848 66.926 76.0505 66.926 74.0755C66.926 72.1005 67.9131 70.8661 69.3937 70.8661C70.8743 70.8661 71.8614 72.1005 71.8614 74.0755C71.8614 76.0505 70.8743 77.2848 69.3937 77.2848Z" fill="#828EFF"/>
<path d="M79.5112 67.163H78.5241C78.0305 67.4098 77.2902 67.9036 76.3031 67.9036V68.8911H78.2773V77.038H75.8096V78.2723H81.9789V77.038H79.758V67.163H79.5112Z" fill="#828EFF"/>
<path d="M87.9013 67.163H86.9142C86.4207 67.4098 85.6804 67.9036 84.6933 67.9036V68.8911H86.6674V77.038H84.1997V78.2723H90.3691V77.038H88.1481V67.163H87.9013Z" fill="#828EFF"/>
<path d="M96.5385 67.163H95.5514C95.0579 67.4098 94.3176 67.9036 93.3305 67.9036V68.8911H95.3047V77.038H92.8369V78.2723H99.0063V77.038H96.7853V67.163H96.5385Z" fill="#828EFF"/>
<path d="M106.41 67.163H104.929L100.24 74.0755V75.063H105.176V78.0255H106.41V75.063H107.89V73.8286H106.41V67.163ZM104.929 70.8661V74.0755H101.474L103.942 70.3723C104.189 69.8786 104.682 69.3848 104.929 68.8911C105.176 69.3848 104.929 70.3723 104.929 70.8661Z" fill="#828EFF"/>
<path d="M113.072 69.6317C111.098 69.6317 109.124 71.113 109.124 74.0755C109.124 76.7911 110.851 78.5192 113.072 78.5192C115.047 78.5192 117.021 77.038 117.021 74.0755C117.021 71.3598 115.047 69.6317 113.072 69.6317ZM113.072 77.2848C111.592 77.2848 110.605 76.0505 110.605 74.0755C110.605 72.1005 111.592 70.8661 113.072 70.8661C114.553 70.8661 115.54 72.1005 115.54 74.0755C115.54 76.0505 114.553 77.2848 113.072 77.2848Z" fill="#828EFF"/>
<path d="M120.722 66.916H119.242V78.2723H125.658V77.0379H120.722V66.916Z" fill="#828EFF"/>
<path d="M130.1 74.5687C129.853 75.3093 129.607 76.2968 129.36 77.0374C129.113 76.2968 128.866 75.3093 128.62 74.5687L127.139 69.8781H125.658L128.62 78.2718H130.347L133.308 69.8781H131.828L130.1 74.5687Z" fill="#828EFF"/>
<path d="M143.179 81.234L108.631 101.725L103.695 97.7746C101.474 96.0465 98.2661 95.7996 95.7984 97.5277L89.629 101.971L23 65.9277L100.24 123.45L175.013 65.9277L142.932 41.2402V81.234H143.179Z" fill="#8D9EFC"/>
<ellipse cx="98.5" cy="158" rx="98.5" ry="18" fill="#EDEDFF"/>
<path d="M23 157.765L99.0064 111.847L23 65.9277V157.765Z" fill="#ADBAFF"/>
<path d="M175.013 157.765V65.9277L99.0063 111.847L175.013 157.765Z" fill="#ADBAFF"/>
<path d="M95.7984 101.478L23 157.766H175.013L102.215 101.478C100.24 99.9968 97.7726 99.9968 95.7984 101.478Z" fill="#BEC9FF"/>
<path d="M103.942 118.759C103.942 116.043 101.721 114.068 99.2532 114.068C96.7854 114.068 94.5645 116.29 94.5645 118.759C94.5645 120.487 95.5515 121.968 97.0322 122.956L96.0451 135.793H102.955L101.721 122.956C102.955 121.968 103.942 120.487 103.942 118.759Z" fill="#0F2840"/>
<path d="M108.384 106.169L175.013 157.766L110.852 104.687L108.384 106.169Z" fill="#8D9EFC"/>
<path d="M23 157.766L89.8758 106.169L87.4081 104.687L23 157.766Z" fill="#8D9EFC"/>
</svg>
