<svg width="215" height="195" viewBox="0 0 215 195" fill="none" xmlns="http://www.w3.org/2000/svg">
<circle cx="93" cy="78" r="78" fill="#DEE6EF"/>
<path d="M33.28 117.08V160.61L114.51 113.71V70.1802L33.28 117.08Z" fill="#817BC0"/>
<g style="mix-blend-mode:multiply">
<path d="M83.48 189.59L112.58 194.07L199.93 144.38L167.09 125.66L158.93 123.93L83.48 189.59Z" fill="#B8BAF0"/>
</g>
<path d="M33.28 160.61L114.51 113.71L164.71 142.69L83.48 189.59L33.28 160.61Z" fill="#94A3D9"/>
<path d="M83.48 146.07V189.59L33.28 160.61V117.08L83.48 146.07Z" fill="#B2ACF4"/>
<path d="M164.71 99.1702V142.69L114.51 113.71V70.1802L164.71 99.1702Z" fill="#B2ACF4"/>
<path d="M83.48 146.06V189.59L164.71 142.69V99.1699L83.48 146.06Z" fill="#817BC0"/>
<path d="M83.48 146.07V151.37L164.71 104.47V99.1699L83.48 146.07Z" fill="#98AFFF"/>
<path d="M83.48 146.07V151.36L33.28 122.38V117.08L83.48 146.07Z" fill="#F4F3FF"/>
<path d="M83.48 146.07L164.71 99.1699L188.87 104.09L107.64 150.98L83.48 146.07Z" fill="#C5D5FF"/>
<path d="M33.2801 117.08L14.5601 93.63L95.7801 46.73L114.51 70.18L33.2801 117.08Z" fill="#C5D5FF"/>
<path d="M52.46 142.03L83.48 146.06L33.28 117.08L2.26001 113.04L52.46 142.03Z" fill="#C5D5FF"/>
<path d="M164.71 99.17L178.85 78L128.65 49.02L114.51 70.18L164.71 99.17Z" fill="#C5D5FF"/>
<rect x="146" y="38" width="54" height="9" rx="4.5" fill="white"/>
<rect y="65" width="33" height="7" rx="3.5" fill="white"/>
<rect x="10" y="42" width="23" height="5" rx="2.5" fill="#DEE6EF"/>
<rect x="156" y="47" width="23" height="5" rx="2.5" fill="#DEE6EF"/>
<rect y="72" width="23" height="5" rx="2.5" fill="#DEE6EF"/>
<rect x="8" y="47" width="23" height="5" rx="2.5" fill="white"/>
<ellipse cx="177.148" cy="98.9547" rx="20.0481" ry="22.0601" transform="rotate(-28.5164 177.148 98.9547)" fill="#9CA9F1" fill-opacity="0.12"/>
<rect width="26.0395" height="5.90175" rx="2.95088" transform="matrix(0.778043 0.628211 -0.570348 0.821403 191.917 107.845)" fill="#6486C8"/>
<path d="M194.763 89.3836C200.58 100.089 197.408 113.053 187.679 118.339C177.95 123.625 165.348 119.231 159.532 108.526C153.715 97.8205 156.887 84.8569 166.616 79.5709C176.345 74.2849 188.947 78.6782 194.763 89.3836ZM163.644 106.292C168.103 114.498 177.763 117.865 185.221 113.813C192.678 109.761 195.11 99.8242 190.651 91.618C186.192 83.4118 176.532 80.0441 169.075 84.0961C161.617 88.1481 159.186 98.0853 163.644 106.292Z" fill="#9CA9F1"/>
</svg>
