<svg width="162" height="29" viewBox="0 0 162 29" fill="none" xmlns="http://www.w3.org/2000/svg">
<g clip-path="url(#clip0_1748_25715)">
<path d="M9.54128 21.1667C5.0935 21.1667 1.94606 19.6677 0.567871 18.4064L3.51977 14.0692C5.36876 15.6462 7.65242 16.4356 9.54128 16.4356C11.1548 16.4356 11.8629 15.962 11.8629 15.0945C11.8629 14.4249 11.3124 13.9113 9.58114 13.5175L6.07872 12.69C2.65414 11.8987 1.04056 9.80804 1.04056 6.92985C1.04056 2.98637 4.18799 0.659851 8.87115 0.659851C12.4913 0.659851 15.4033 1.76319 16.8214 3.02632L13.8695 7.36357C12.571 6.18034 10.6822 5.3129 8.87115 5.3129C7.37529 5.3129 6.70706 5.82651 6.70706 6.61407C6.70706 7.40163 7.41515 7.83725 8.75348 8.15113L12.2559 8.94059C15.8361 9.73002 17.5693 11.6609 17.5693 14.501C17.5693 18.5624 14.5377 21.1667 9.54128 21.1667ZM30.5558 20.771H36.4597V10.1638C36.4597 7.5614 37.7183 5.94445 40.1595 5.94445C42.4811 5.94445 43.7017 7.28558 43.7017 10.1638V20.7729H49.6055V8.66474C49.6055 3.38014 46.9687 0.659851 42.4431 0.659851C39.8463 0.659851 37.8777 1.68519 36.4615 3.69593V2.4347C36.4615 1.56725 35.9509 1.05363 35.0833 1.05363H30.5577V20.771H30.5558ZM73.5321 1.05363V18.1287C73.5321 25.542 68.7313 28.5 62.8274 28.5C58.8922 28.5 55.6252 27.4747 53.6586 25.6999L56.7279 21.1248C58.0266 22.3861 60.1128 23.5313 62.8274 23.5313C65.8573 23.5313 67.6282 21.5985 67.6282 18.9182V17.6569C66.212 19.4318 64.1659 20.2193 61.6466 20.2193C56.8856 20.2193 52.753 16.04 52.753 10.4396C52.753 4.83921 56.8856 0.659851 61.6466 0.659851C64.1659 0.659851 66.2901 1.6072 67.6282 3.61793V2.4347C67.6282 1.56725 68.1409 1.05363 69.0064 1.05363H73.5321ZM67.8256 10.4396C67.8256 7.87718 65.8971 5.86457 63.2222 5.86457C60.743 5.86457 58.7367 7.87528 58.7367 10.4396C58.7367 13.002 60.743 15.0146 63.2222 15.0146C65.8971 15.0146 67.8256 13.002 67.8256 10.4396ZM99.3474 10.9133C99.3474 16.9873 95.2148 21.1667 90.0987 21.1667C87.4221 21.1667 85.298 20.3772 83.7621 18.6043V28.0302H77.8582V1.05363H82.3859C83.2515 1.05363 83.7642 1.56725 83.7642 2.4347V3.61793C85.2202 1.6072 87.4242 0.659851 90.1008 0.659851C95.2169 0.659851 99.3474 4.83921 99.3474 10.9133ZM93.3657 10.9133C93.3657 7.9552 91.2796 5.86457 88.5252 5.86457C85.7307 5.86457 83.5668 7.9552 83.5668 10.9133C83.5668 13.8714 85.7307 15.962 88.5252 15.962C91.2813 15.9601 93.3657 13.8695 93.3657 10.9133ZM123.354 1.05363V20.771H117.45V18.2086C115.994 20.2193 113.79 21.1667 111.113 21.1667C105.997 21.1667 101.865 16.9873 101.865 10.9133C101.865 4.83921 105.997 0.659851 111.113 0.659851C113.79 0.659851 115.994 1.6072 117.45 3.61793V2.4347C117.45 1.56725 117.963 1.05363 118.828 1.05363H123.354ZM117.647 10.9133C117.647 7.9552 115.483 5.86457 112.689 5.86457C109.934 5.86457 107.848 7.9552 107.848 10.9133C107.848 13.8714 109.934 15.962 112.689 15.962C115.483 15.9601 117.647 13.8695 117.647 10.9133ZM135.319 21.1667C140.317 21.1667 143.347 18.5643 143.347 14.5029C143.347 11.6628 141.616 9.73192 138.034 8.94249L134.531 8.15303C133.193 7.83725 132.485 7.40353 132.485 6.61597C132.485 5.82841 133.153 5.3148 134.649 5.3148C136.46 5.3148 138.349 6.18225 139.647 7.36547L142.599 3.02822C141.183 1.76699 138.271 0.661753 134.649 0.661753C129.966 0.661753 126.818 2.98827 126.818 6.93175C126.818 9.80994 128.432 11.9006 131.856 12.69L135.359 13.5175C137.09 13.9113 137.641 14.4249 137.641 15.0945C137.641 15.962 136.932 16.4356 135.319 16.4356C133.43 16.4356 131.148 15.6462 129.297 14.0692L126.346 18.4064C127.724 19.6677 130.871 21.1667 135.319 21.1667ZM153.972 21.1667C158.97 21.1667 162 18.5643 162 14.5029C162 11.6628 160.269 9.73192 156.687 8.94249L153.184 8.15303C151.846 7.83725 151.138 7.40353 151.138 6.61597C151.138 5.82841 151.806 5.3148 153.302 5.3148C155.113 5.3148 157.002 6.18225 158.3 7.36547L161.252 3.02822C159.836 1.76699 156.924 0.661753 153.302 0.661753C148.619 0.661753 145.471 2.98827 145.471 6.93175C145.471 9.80994 147.085 11.9006 150.509 12.69L154.012 13.5175C155.743 13.9113 156.294 14.4249 156.294 15.0945C156.294 15.962 155.586 16.4356 153.972 16.4356C152.083 16.4356 149.801 15.6462 147.951 14.0692L144.998 18.4064C146.377 19.6677 149.526 21.1667 153.972 21.1667Z" fill="#F4333D"/>
<path d="M23.3934 7.36353C25.3221 7.36353 26.818 5.86449 26.818 3.93176C26.818 1.99902 25.3221 0.5 23.3934 0.5C21.4647 0.5 19.9688 1.99902 19.9688 3.93176C19.9707 5.86449 21.4647 7.36353 23.3934 7.36353ZM19.6935 20.771H27.0913L25.5176 8.50679C24.3368 8.86253 22.448 8.86253 21.2672 8.50679L19.6935 20.771Z" fill="black"/>
</g>
<defs>
<clipPath id="clip0_1748_25715">
<rect width="161.432" height="28" fill="white" transform="translate(0.567871 0.5)"/>
</clipPath>
</defs>
</svg>
