<svg width="104" height="18" viewBox="0 0 104 18" fill="none" xmlns="http://www.w3.org/2000/svg">
<g clip-path="url(#clip0_1748_25602)">
<path d="M5.76824 13.2801C8.97282 13.2801 10.9293 11.6053 10.9293 9C10.9293 7.17293 9.81613 5.93798 7.52233 5.43044L5.27911 4.92293C4.41896 4.71993 3.96356 4.44924 3.96356 3.94173C3.96356 3.4342 4.38522 3.11278 5.3466 3.11278C6.51036 3.11278 7.72473 3.67104 8.55118 4.43233L10.4402 1.64097C9.5294 0.828944 7.65727 0.118418 5.32973 0.118418C2.32753 0.118418 0.303589 1.60714 0.303589 4.14473C0.303589 5.98871 1.33243 7.34211 3.54191 7.84962L5.78511 8.37407C6.89827 8.62782 7.25247 8.94924 7.25247 9.38909C7.25247 9.94738 6.79709 10.2519 5.76824 10.2519C4.55389 10.2519 3.08651 9.74436 1.90588 8.72933L0 11.5038C0.877042 12.3158 2.901 13.2801 5.76824 13.2801ZM14.6736 4.39849C15.9048 4.39849 16.8662 3.4342 16.8662 2.19925C16.8662 0.964287 15.9048 0 14.6736 0C13.4424 0 12.481 0.964287 12.481 2.19925C12.4641 3.4342 13.4255 4.39849 14.6736 4.39849ZM12.2955 13.0263H17.0517L16.0398 5.14287C15.2808 5.36278 14.0664 5.36278 13.3074 5.14287L12.2955 13.0263ZM19.2781 13.0263H23.0729V6.20864C23.0729 4.53382 23.8824 3.50187 25.4511 3.50187C26.9353 3.50187 27.728 4.36467 27.728 6.20864V13.0263H31.5229V5.24436C31.5229 1.84398 29.8362 0.101505 26.9184 0.101505C25.2487 0.101505 23.9838 0.76128 23.0729 2.04699V1.23496C23.0729 0.676689 22.7524 0.355264 22.1959 0.355264H19.2949V13.0263H19.2781ZM43.11 1.21804V1.97932C42.2498 0.693607 40.8838 0.0845864 39.2644 0.0845864C36.2118 0.0845864 33.5469 2.77442 33.5469 6.37782C33.5469 9.9812 36.1949 12.671 39.2644 12.671C40.8838 12.671 42.1993 12.1635 43.11 11.0301V11.8421C43.11 13.5677 41.98 14.8026 40.0236 14.8026C38.2862 14.8026 36.9369 14.0752 36.1104 13.2632L34.1371 16.2068C35.4022 17.3402 37.4936 18 40.0236 18C43.8184 18 46.9049 16.1053 46.9049 11.3346V0.355264H44.004C43.4304 0.338347 43.11 0.659771 43.11 1.21804ZM40.2764 9.32142C38.6911 9.32142 37.3924 8.03571 37.3924 6.37782C37.3924 4.73684 38.6742 3.4342 40.2764 3.4342C41.9969 3.4342 43.228 4.71991 43.228 6.37782C43.228 8.0188 41.9969 9.32142 40.2764 9.32142ZM57.5476 13.2801C60.8364 13.2801 63.4844 10.5902 63.4844 6.68233C63.4844 2.77444 60.8364 0.0845864 57.5476 0.0845864C55.8271 0.0845864 54.4104 0.693607 53.4827 1.97932V1.21804C53.4827 0.659771 53.1622 0.338347 52.6058 0.338347H49.7047V17.6955H53.4996V11.6391C54.4609 12.7726 55.8271 13.2801 57.5476 13.2801ZM56.5356 9.93044C54.7478 9.93044 53.3478 8.59398 53.3478 6.68233C53.3478 4.7876 54.7309 3.4342 56.5356 3.4342C58.3064 3.4342 59.6389 4.77067 59.6389 6.68233C59.6558 8.57707 58.3064 9.93044 56.5356 9.93044ZM71.0573 13.2801C72.7778 13.2801 74.1945 12.671 75.122 11.3853V13.0263H78.9338V0.338347H76.0329C75.4762 0.338347 75.1558 0.659771 75.1558 1.21804V1.97932C74.2282 0.693607 72.8113 0.0845864 71.0911 0.0845864C67.8022 0.0845864 65.1542 2.77444 65.1542 6.68233C65.1542 10.5902 67.7684 13.2801 71.0573 13.2801ZM72.0693 9.93044C70.2984 9.93044 68.966 8.59398 68.966 6.68233C68.966 4.7876 70.2984 3.4342 72.0693 3.4342C73.8571 3.4342 75.2571 4.77067 75.2571 6.68233C75.2571 8.57707 73.874 9.93044 72.0693 9.93044ZM86.6249 13.2801C89.8293 13.2801 91.786 11.6053 91.786 9C91.786 7.17293 90.6727 5.93798 88.3789 5.43044L86.1358 4.92293C85.2756 4.71993 84.8202 4.44924 84.8202 3.94173C84.8202 3.4342 85.2418 3.11278 86.2031 3.11278C87.3669 3.11278 88.5813 3.67104 89.4078 4.43233L91.2969 1.64097C90.386 0.828944 88.5138 0.118418 86.1862 0.118418C83.1842 0.118418 81.1602 1.60714 81.1602 4.14473C81.1602 5.98871 82.1891 7.34211 84.3984 7.84962L86.6418 8.37407C87.7549 8.62782 88.1091 8.94924 88.1091 9.38909C88.1091 9.94738 87.6538 10.2519 86.6249 10.2519C85.4104 10.2519 83.9431 9.74436 82.7624 8.72933L80.8736 11.5207C81.7336 12.3158 83.7576 13.2801 86.6249 13.2801ZM98.6167 13.2801C101.821 13.2801 103.778 11.6053 103.778 9C103.778 7.17293 102.665 5.93798 100.371 5.43044L98.1276 4.92293C97.2673 4.71993 96.812 4.44924 96.812 3.94173C96.812 3.4342 97.2338 3.11278 98.1951 3.11278C99.3589 3.11278 100.573 3.67104 101.4 4.43233L103.289 1.64097C102.378 0.828944 100.506 0.118418 98.1782 0.118418C95.176 0.118418 93.152 1.60714 93.152 4.14473C93.152 5.98871 94.1809 7.34211 96.3904 7.84962L98.6336 8.37407C99.7467 8.62782 100.101 8.94924 100.101 9.38909C100.101 9.94738 99.6456 10.2519 98.6167 10.2519C97.4024 10.2519 95.9349 9.74436 94.7544 8.72933L92.8653 11.5207C93.7256 12.3158 95.7496 13.2801 98.6167 13.2801Z" fill="#F0F1F4"/>
</g>
<defs>
<clipPath id="clip0_1748_25602">
<rect width="103.778" height="18" fill="white"/>
</clipPath>
</defs>
</svg>
