<svg width="36" height="32" viewBox="0 0 36 32" fill="none" xmlns="http://www.w3.org/2000/svg">
<path d="M18.0002 12.5V16.1667M18.0002 23.5V23.5183" stroke="#6666FF" stroke-width="1.5" stroke-linecap="round" stroke-linejoin="round"/>
<path d="M5.16685 30.8334H30.8335C31.4318 30.8292 32.0199 30.6787 32.5466 30.395C33.0733 30.1114 33.5226 29.7031 33.8552 29.2059C34.1879 28.7087 34.3939 28.1376 34.4552 27.5425C34.5165 26.9474 34.4312 26.3464 34.2069 25.7918L21.1902 3.33344C20.8731 2.76034 20.4083 2.28263 19.8441 1.94999C19.2798 1.61734 18.6368 1.44189 17.9819 1.44189C17.3269 1.44189 16.6839 1.61734 16.1196 1.94999C15.5554 2.28263 15.0906 2.76034 14.7735 3.33344L1.75685 25.7918C1.53674 26.3337 1.44946 26.9203 1.50229 27.5028C1.55513 28.0853 1.74654 28.6467 2.06055 29.1402C2.37456 29.6336 2.80206 30.0448 3.30735 30.3394C3.81265 30.6339 4.38108 30.8033 4.96519 30.8334" stroke="#6666FF" stroke-width="1.5" stroke-linecap="round" stroke-linejoin="round"/>
</svg>
