<svg width="15" height="14" viewBox="0 0 15 14" fill="none" xmlns="http://www.w3.org/2000/svg">
<path d="M12.2637 5.99688L11.5781 4.34062L12.5 3.25L11.25 2L10.1656 2.92687L8.47375 2.23125L8.08438 0.75H6.86312L6.46812 2.25063L4.815 2.9475L3.75 2L2.5 3.25L3.40813 4.36813L2.73313 6.02875L1.25 6.375V7.625L2.75063 8.03437L3.4475 9.6875L2.5 10.75L3.75 12L4.86937 11.0875L6.49813 11.7575L6.875 13.25H8.125L8.5025 11.7581L10.1594 11.0719C10.4356 11.2694 11.25 12 11.25 12L12.5 10.75L11.5725 9.65625L12.2588 7.99875L13.75 7.61125V6.375L12.2637 5.99688V5.99688Z" stroke="#6666FF" stroke-width="1.5" stroke-linecap="round" stroke-linejoin="round"/>
</svg>
