<svg width="26" height="26" viewBox="0 0 26 26" fill="none" xmlns="http://www.w3.org/2000/svg">
<path d="M25 1.8V24.2C25 24.4122 24.9157 24.6157 24.7657 24.7657C24.6157 24.9157 24.4122 25 24.2 25H1.8C1.58783 25 1.38434 24.9157 1.23431 24.7657C1.08429 24.6157 1 24.4122 1 24.2V1.8C1 1.58783 1.08429 1.38434 1.23431 1.23431C1.38434 1.08429 1.58783 1 1.8 1H24.2C24.4122 1 24.6157 1.08429 24.7657 1.23431C24.9157 1.38434 25 1.58783 25 1.8V1.8Z" stroke="#B8B8CC" stroke-width="1.5" stroke-linecap="round" stroke-linejoin="round"/>
<path d="M1 18.3333L10.3333 14.3333L25 21M18.3333 10.3333C17.6261 10.3333 16.9478 10.0524 16.4477 9.55228C15.9476 9.05219 15.6667 8.37391 15.6667 7.66667C15.6667 6.95942 15.9476 6.28115 16.4477 5.78105C16.9478 5.28095 17.6261 5 18.3333 5C19.0406 5 19.7189 5.28095 20.219 5.78105C20.719 6.28115 21 6.95942 21 7.66667C21 8.37391 20.719 9.05219 20.219 9.55228C19.7189 10.0524 19.0406 10.3333 18.3333 10.3333V10.3333Z" stroke="#B8B8CC" stroke-width="1.5" stroke-linecap="round" stroke-linejoin="round"/>
</svg>
