<svg width="32" height="32" viewBox="0 0 32 32" fill="none" xmlns="http://www.w3.org/2000/svg">
<path d="M15.3705 2.13333C15.4454 2.03796 15.5409 1.96084 15.65 1.90782C15.759 1.85479 15.8786 1.82723 15.9999 1.82723C16.1211 1.82723 16.2408 1.85479 16.3498 1.90782C16.4588 1.96084 16.5544 2.03796 16.6292 2.13333L19.0412 5.2C19.1391 5.32472 19.2718 5.41755 19.4226 5.46669C19.5733 5.51583 19.7353 5.51907 19.8879 5.476L23.6412 4.412C23.7578 4.37878 23.8803 4.37248 23.9997 4.39357C24.119 4.41465 24.232 4.46258 24.3301 4.53372C24.4282 4.60486 24.5089 4.69736 24.566 4.80423C24.6231 4.91111 24.6552 5.02957 24.6599 5.15066L24.8065 9.05066C24.8127 9.20909 24.8658 9.36212 24.9591 9.49031C25.0524 9.6185 25.1817 9.71608 25.3305 9.77066L28.9932 11.1173C29.1069 11.159 29.2097 11.226 29.2937 11.3132C29.3778 11.4004 29.4409 11.5056 29.4784 11.6208C29.5159 11.7359 29.5267 11.8581 29.5101 11.9781C29.4935 12.098 29.4499 12.2127 29.3825 12.3133L27.2092 15.5547C27.1209 15.6864 27.0738 15.8414 27.0738 16C27.0738 16.1586 27.1209 16.3136 27.2092 16.4453L29.3825 19.6867C29.4499 19.7873 29.4935 19.902 29.5101 20.0219C29.5267 20.1419 29.5159 20.2641 29.4784 20.3792C29.4409 20.4944 29.3778 20.5996 29.2937 20.6868C29.2097 20.774 29.1069 20.8409 28.9932 20.8827L25.3305 22.2293C25.1819 22.2841 25.0529 22.3818 24.9599 22.51C24.8668 22.6381 24.8139 22.7911 24.8079 22.9493L24.6599 26.8493C24.6552 26.9704 24.6231 27.0889 24.566 27.1958C24.5089 27.3026 24.4282 27.3951 24.3301 27.4663C24.232 27.5374 24.119 27.5853 23.9997 27.6064C23.8803 27.6275 23.7578 27.6212 23.6412 27.588L19.8879 26.524C19.7352 26.4805 19.5731 26.4834 19.4221 26.5323C19.2711 26.5812 19.138 26.6739 19.0399 26.7987L16.6305 29.8667C16.5557 29.962 16.4602 30.0391 16.3511 30.0922C16.2421 30.1452 16.1225 30.1728 16.0012 30.1728C15.88 30.1728 15.7603 30.1452 15.6513 30.0922C15.5423 30.0391 15.4467 29.962 15.3719 29.8667L12.9599 26.8C12.862 26.6753 12.7292 26.5824 12.5785 26.5333C12.4278 26.4842 12.2658 26.4809 12.1132 26.524L8.35988 27.588C8.24333 27.6212 8.12077 27.6275 8.00143 27.6064C7.88209 27.5853 7.7691 27.5374 7.67099 27.4663C7.57289 27.3951 7.49222 27.3026 7.43509 27.1958C7.37797 27.0889 7.34586 26.9704 7.34121 26.8493L7.19455 22.9493C7.18838 22.7909 7.13528 22.6379 7.04198 22.5097C6.94869 22.3815 6.8194 22.2839 6.67055 22.2293L3.00788 20.8827C2.89417 20.8409 2.79142 20.774 2.70738 20.6868C2.62333 20.5996 2.56018 20.4944 2.52269 20.3792C2.4852 20.2641 2.47435 20.1419 2.49095 20.0219C2.50756 19.902 2.55119 19.7873 2.61855 19.6867L4.79188 16.4453C4.88016 16.3136 4.92729 16.1586 4.92729 16C4.92729 15.8414 4.88016 15.6864 4.79188 15.5547L2.61855 12.3133C2.55119 12.2127 2.50756 12.098 2.49095 11.9781C2.47435 11.8581 2.4852 11.7359 2.52269 11.6208C2.56018 11.5056 2.62333 11.4004 2.70738 11.3132C2.79142 11.226 2.89417 11.159 3.00788 11.1173L6.67055 9.77066C6.81916 9.71587 6.94816 9.6182 7.0412 9.49002C7.13425 9.36185 7.18715 9.20894 7.19321 9.05066L7.34121 5.15066C7.34586 5.02957 7.37797 4.91111 7.43509 4.80423C7.49222 4.69736 7.57289 4.60486 7.67099 4.53372C7.7691 4.46258 7.88209 4.41465 8.00143 4.39357C8.12077 4.37248 8.24333 4.37878 8.35988 4.412L12.1132 5.476C12.2658 5.51907 12.4278 5.51583 12.5785 5.46669C12.7292 5.41755 12.862 5.32472 12.9599 5.2L15.3732 2.13333H15.3705Z" stroke="#6666FF" stroke-width="1.5"/>
<path d="M12 16L14.6667 18.6667L20 13.3333" stroke="#6666FF" stroke-width="1.5" stroke-linecap="round" stroke-linejoin="round"/>
</svg>
