<svg width="34" height="34" viewBox="0 0 34 34" fill="none" xmlns="http://www.w3.org/2000/svg">
<path d="M16.9769 22.3336L31.8836 7.37354C32.5838 6.67337 32.9771 5.72373 32.9771 4.73354C32.9771 3.74334 32.5838 2.7937 31.8836 2.09353C31.1834 1.39335 30.2338 1 29.2436 1C28.2534 1 27.3038 1.39335 26.6036 2.09353L11.6436 17.0002V22.3336H16.9769Z" stroke="#0EC080" stroke-width="1.5" stroke-linecap="round" stroke-linejoin="round"/>
<path d="M24.0881 4.55811L29.4215 9.89146" stroke="#0EC080" stroke-width="1.5" stroke-linecap="round" stroke-linejoin="round"/>
<path d="M11.6433 8.2356C8.53402 8.69121 5.71212 10.3059 3.74394 12.7557C1.77576 15.2055 0.806961 18.309 1.03197 21.4434C1.25698 24.5778 2.65916 27.5112 4.95708 29.6547C7.255 31.7982 10.2786 32.9933 13.4211 33.0001C16.4133 32.9998 19.3053 31.9216 21.5675 29.963C23.8297 28.0045 25.3107 25.2966 25.7393 22.3352" stroke="#0EC080" stroke-width="1.5" stroke-linecap="round" stroke-linejoin="round"/>
</svg>
