<svg width="32" height="32" viewBox="0 0 32 32" fill="none" xmlns="http://www.w3.org/2000/svg">
<path d="M11.333 5.33325H7.99967C7.29243 5.33325 6.61415 5.6142 6.11406 6.1143C5.61396 6.6144 5.33301 7.29267 5.33301 7.99992V26.6666C5.33301 27.3738 5.61396 28.0521 6.11406 28.5522C6.61415 29.0523 7.29243 29.3333 7.99967 29.3333H15.9997M20.6663 5.33325H23.9997C24.7069 5.33325 25.3852 5.6142 25.8853 6.1143C26.3854 6.6144 26.6663 7.29267 26.6663 7.99992V19.9999" stroke="#6666FF" stroke-width="1.5" stroke-linecap="round"/>
<path d="M10.667 8.53325V5.99992C10.667 5.82311 10.7372 5.65354 10.8623 5.52851C10.9873 5.40349 11.1568 5.33325 11.3337 5.33325C11.7017 5.33325 12.0057 5.03459 12.0697 4.67192C12.267 3.53592 13.0323 1.33325 16.0003 1.33325C18.9683 1.33325 19.7337 3.53592 19.931 4.67192C19.995 5.03459 20.299 5.33325 20.667 5.33325C20.8438 5.33325 21.0134 5.40349 21.1384 5.52851C21.2634 5.65354 21.3337 5.82311 21.3337 5.99992V8.53325C21.3337 8.74543 21.2494 8.94891 21.0993 9.09894C20.9493 9.24897 20.7458 9.33325 20.5337 9.33325H11.467C11.2548 9.33325 11.0513 9.24897 10.9013 9.09894C10.7513 8.94891 10.667 8.74543 10.667 8.53325V8.53325Z" stroke="#6666FF" stroke-width="1.5" stroke-linecap="round"/>
<path d="M20.667 27.3333L23.3337 29.9999L30.0003 23.3333" stroke="#6666FF" stroke-width="1.5" stroke-linecap="round" stroke-linejoin="round"/>
</svg>
