<svg width="34" height="34" viewBox="0 0 34 34" fill="none" xmlns="http://www.w3.org/2000/svg">
<path d="M11.1333 1H22.8667C23.4 1 23.7556 1.17778 24.1111 1.53333L32.4667 9.88889C32.8222 10.2444 33 10.6 33 11.1333V22.8667C33 23.4 32.8222 23.7556 32.4667 24.1111L24.1111 32.4667C23.7556 32.8222 23.4 33 22.8667 33H11.1333C10.6 33 10.2444 32.8222 9.88889 32.4667L1.53333 24.1111C1.17778 23.7556 1 23.4 1 22.8667V11.1333C1 10.6 1.17778 10.2444 1.53333 9.88889L9.88889 1.53333C10.2444 1.17778 10.6 1 11.1333 1V1Z" stroke="#FF6D6D" stroke-width="1.5" stroke-linecap="round" stroke-linejoin="round"/>
<path d="M17 9.88892V17" stroke="#FF6D6D" stroke-width="1.5" stroke-linecap="round" stroke-linejoin="round"/>
<path d="M17 24.1111H17.0178" stroke="#FF6D6D" stroke-width="1.5" stroke-linecap="round" stroke-linejoin="round"/>
</svg>
