<svg width="35" height="32" viewBox="0 0 35 32" fill="none" xmlns="http://www.w3.org/2000/svg">
<path d="M28.5 1H6.5C3.46243 1 1 3.46243 1 6.5V24.8333C1 27.8709 3.46243 30.3333 6.5 30.3333H28.5C31.5376 30.3333 34 27.8709 34 24.8333V6.5C34 3.46243 31.5376 1 28.5 1Z" stroke="#6666FF" stroke-width="1.5" stroke-linecap="round" stroke-linejoin="round"/>
<path d="M12.0007 15.6668C14.0257 15.6668 15.6673 14.0252 15.6673 12.0002C15.6673 9.97512 14.0257 8.3335 12.0007 8.3335C9.97561 8.3335 8.33398 9.97512 8.33398 12.0002C8.33398 14.0252 9.97561 15.6668 12.0007 15.6668Z" stroke="#6666FF" stroke-width="1.5" stroke-linecap="round" stroke-linejoin="round"/>
<path d="M23 8.3335H26.6667" stroke="#6666FF" stroke-width="1.5" stroke-linecap="round" stroke-linejoin="round"/>
<path d="M23 15.6665H26.6667" stroke="#6666FF" stroke-width="1.5" stroke-linecap="round" stroke-linejoin="round"/>
<path d="M8.33398 23H26.6673" stroke="#6666FF" stroke-width="1.5" stroke-linecap="round" stroke-linejoin="round"/>
</svg>
