<svg width="11" height="15" viewBox="0 0 11 15" fill="none" xmlns="http://www.w3.org/2000/svg">
<path d="M8.5 7.5H9.55C9.66935 7.5 9.78381 7.54741 9.8682 7.6318C9.95259 7.71619 10 7.83065 10 7.95V13.05C10 13.1693 9.95259 13.2838 9.8682 13.3682C9.78381 13.4526 9.66935 13.5 9.55 13.5H1.45C1.33065 13.5 1.21619 13.4526 1.1318 13.3682C1.04741 13.2838 1 13.1693 1 13.05V7.95C1 7.83065 1.04741 7.71619 1.1318 7.6318C1.21619 7.54741 1.33065 7.5 1.45 7.5H2.5M8.5 7.5V4.5C8.5 3.50025 7.9 1.5 5.5 1.5C3.1 1.5 2.5 3.50025 2.5 4.5V7.5M8.5 7.5H2.5" stroke="#6666FF" stroke-width="1.5" stroke-linecap="round" stroke-linejoin="round"/>
</svg>
