<svg width="21" height="21" viewBox="0 0 21 21" fill="none" xmlns="http://www.w3.org/2000/svg">
<path d="M7.31779 0.290039C3.27628 0.290039 0 3.68016 0 7.86209C0 11.1201 1.98855 13.8975 4.77828 14.9657L8.17331 10.8002L2.96773 4.41756H6.93281L10.1552 8.36856L16.7395 0.290039H7.31779Z" fill="#6666FF"/>
<path d="M3.89822 20.9277L10.1636 13.2405L13.0667 16.8002H17.0318L12.1454 10.8089L15.8594 6.25202C18.6491 7.32024 20.6377 10.0977 20.6377 13.3557C20.6377 17.5376 17.3614 20.9277 13.3199 20.9277H3.89822Z" fill="#6666FF"/>
<path d="M10.3188 11.4688C10.7937 11.4688 11.1787 11.0838 11.1787 10.6089C11.1787 10.134 10.7937 9.74898 10.3188 9.74898C9.84394 9.74898 9.45894 10.134 9.45894 10.6089C9.45894 11.0838 9.84394 11.4688 10.3188 11.4688Z" fill="#6666FF"/>
</svg>
