<svg width="53" height="64" viewBox="0 0 53 64" fill="none" xmlns="http://www.w3.org/2000/svg">
    <path d="M0.5 29.0909V11.9613L26.1818 0.547159L51.8636 11.9613V29.0909C51.8636 44.984 40.8897 59.8285 26.1818 63.485C11.4739 59.8285 0.5 44.984 0.5 29.0909Z" fill="#E3EDF4" stroke="#B1CBFF"/>
    <path d="M26.1821 4.65454L3.49121 14.5983V29.514C3.49121 43.3111 13.1727 56.2131 26.1821 59.3454C39.1916 56.2131 48.873 43.3111 48.873 29.514V14.5983L26.1821 4.65454Z" fill="#4C88FF"/>
    <path opacity="0.15" d="M26.1821 4.65454L3.49121 14.5983V28.3504C3.49121 53.5273 26.1821 59.3454 26.1821 59.3454C26.1821 59.3454 26.1821 22.6909 26.1821 4.65454Z" fill="white"/>
    <circle cx="26.023" cy="28.3504" r="5.07769" fill="white"/>
    <rect x="24.3301" y="28.3505" width="3.38512" height="13.5405" rx="1.69256" fill="white"/>
    <circle cx="40.5" cy="55.5" r="8.5" fill="#7DD320"/>
    <path d="M37 55.5L39.3333 58L44 53" stroke="white" stroke-width="1.5" stroke-linecap="round" stroke-linejoin="round"/>
</svg>
