<svg width="54" height="64" viewBox="0 0 54 64" fill="none" xmlns="http://www.w3.org/2000/svg">
    <path d="M1.31836 29.0909V11.9613L27.0002 0.547159L52.682 11.9613V29.0909C52.682 44.984 41.7081 59.8285 27.0002 63.485C12.2923 59.8285 1.31836 44.984 1.31836 29.0909Z" fill="#E3EDF4" stroke="#B1CBFF"/>
    <path d="M27 4.65454L4.30908 14.5983V29.514C4.30908 43.3111 13.9905 56.2132 27 59.3454C40.0094 56.2132 49.6909 43.3111 49.6909 29.514V14.5983L27 4.65454Z" fill="#4C88FF"/>
    <path opacity="0.15" d="M27 4.65454L4.30908 14.5983V28.3504C4.30908 53.5273 27 59.3454 27 59.3454C27 59.3454 27 22.6909 27 4.65454Z" fill="white"/>
    <circle cx="26.8414" cy="28.3504" r="5.07769" fill="white"/>
    <rect x="25.1489" y="28.3505" width="3.38512" height="13.5405" rx="1.69256" fill="white"/>
    <circle cx="44.3184" cy="55.5" r="8.5" fill="#F56283"/>
    <path fill-rule="evenodd" clip-rule="evenodd" d="M45.0684 51.2875C45.0684 50.6662 44.5647 50.1625 43.9434 50.1625C43.322 50.1625 42.8184 50.6662 42.8184 51.2875V55.9439C42.8184 56.5653 43.322 57.0689 43.9434 57.0689C44.5647 57.0689 45.0684 56.5653 45.0684 55.9439V51.2875ZM43.9434 57.9233C43.322 57.9233 42.8184 58.427 42.8184 59.0483C42.8184 59.6696 43.322 60.1733 43.9434 60.1733H43.9553C44.5766 60.1733 45.0803 59.6696 45.0803 59.0483C45.0803 58.427 44.5766 57.9233 43.9553 57.9233H43.9434Z" fill="white"/>
</svg>
