<svg width="100" height="124" viewBox="0 0 100 124" fill="none" xmlns="http://www.w3.org/2000/svg">
<mask id="path-1-inside-1" fill="white">
<path fill-rule="evenodd" clip-rule="evenodd" d="M70.5852 0C72.2018 0 73.7501 0.652367 74.8792 1.80933L98.294 25.8014C99.3877 26.9221 100 28.426 100 29.992V118C100 121.314 97.3137 124 94 124H6C2.68629 124 0 121.314 0 118V6C0 2.68629 2.68629 0 6 0H70.5852Z"/>
</mask>
<path fill-rule="evenodd" clip-rule="evenodd" d="M70.5852 0C72.2018 0 73.7501 0.652367 74.8792 1.80933L98.294 25.8014C99.3877 26.9221 100 28.426 100 29.992V118C100 121.314 97.3137 124 94 124H6C2.68629 124 0 121.314 0 118V6C0 2.68629 2.68629 0 6 0H70.5852Z" fill="#EEEEF3"/>
<path d="M98.294 25.8014L97.5783 26.4998L98.294 25.8014ZM74.1635 2.50777L97.5783 26.4998L99.0096 25.1029L75.5948 1.11088L74.1635 2.50777ZM99 29.992V118H101V29.992H99ZM94 123H6V125H94V123ZM1 118V6H-1V118H1ZM6 1H70.5852V-1H6V1ZM1 6C1 3.23858 3.23858 1 6 1V-1C2.13401 -1 -1 2.13401 -1 6H1ZM6 123C3.23858 123 1 120.761 1 118H-1C-1 121.866 2.13401 125 6 125V123ZM99 118C99 120.761 96.7614 123 94 123V125C97.866 125 101 121.866 101 118H99ZM97.5783 26.4998C98.4898 27.4337 99 28.687 99 29.992H101C101 28.165 100.286 26.4104 99.0096 25.1029L97.5783 26.4998ZM75.5948 1.11088C74.2775 -0.238906 72.4713 -1 70.5852 -1V1C71.9324 1 73.2226 1.54364 74.1635 2.50777L75.5948 1.11088Z" fill="#BAA1DC" mask="url(#path-1-inside-1)"/>
<path d="M12.7656 68.7812C12.7656 68.0625 13.0052 67.4792 13.4844 67.0312C13.974 66.5833 14.5833 66.3594 15.3125 66.3594C16.0521 66.3594 16.6615 66.5833 17.1406 67.0312C17.6302 67.4792 17.875 68.0625 17.875 68.7812C17.875 69.4896 17.6354 70.0677 17.1562 70.5156C16.6771 70.9531 16.0625 71.1719 15.3125 71.1719C14.5729 71.1719 13.9635 70.9531 13.4844 70.5156C13.0052 70.0677 12.7656 69.4896 12.7656 68.7812ZM21.1406 62.4219C21.1406 59.7865 21.7292 57.6875 22.9062 56.125C24.0938 54.5625 25.7135 53.7812 27.7656 53.7812C29.4115 53.7812 30.7708 54.3958 31.8438 55.625V47H36.375V71H32.2969L32.0781 69.2031C30.9531 70.6094 29.5052 71.3125 27.7344 71.3125C25.7448 71.3125 24.1458 70.5312 22.9375 68.9688C21.7396 67.3958 21.1406 65.2135 21.1406 62.4219ZM25.6562 62.75C25.6562 64.3333 25.9323 65.5469 26.4844 66.3906C27.0365 67.2344 27.8385 67.6562 28.8906 67.6562C30.2865 67.6562 31.2708 67.0677 31.8438 65.8906V59.2188C31.2812 58.0417 30.3073 57.4531 28.9219 57.4531C26.7448 57.4531 25.6562 59.2188 25.6562 62.75ZM39.1719 62.3906C39.1719 60.7135 39.4948 59.2188 40.1406 57.9062C40.7865 56.5938 41.7135 55.5781 42.9219 54.8594C44.1406 54.1406 45.5521 53.7812 47.1562 53.7812C49.4375 53.7812 51.2969 54.4792 52.7344 55.875C54.1823 57.2708 54.9896 59.1667 55.1562 61.5625L55.1875 62.7188C55.1875 65.3125 54.4635 67.3958 53.0156 68.9688C51.5677 70.5312 49.625 71.3125 47.1875 71.3125C44.75 71.3125 42.8021 70.5312 41.3438 68.9688C39.8958 67.4062 39.1719 65.2812 39.1719 62.5938V62.3906ZM43.6875 62.7188C43.6875 64.3229 43.9896 65.5521 44.5938 66.4062C45.1979 67.25 46.0625 67.6719 47.1875 67.6719C48.2812 67.6719 49.1354 67.2552 49.75 66.4219C50.3646 65.5781 50.6719 64.2344 50.6719 62.3906C50.6719 60.8177 50.3646 59.599 49.75 58.7344C49.1354 57.8698 48.2708 57.4375 47.1562 57.4375C46.0521 57.4375 45.1979 57.8698 44.5938 58.7344C43.9896 59.5885 43.6875 60.9167 43.6875 62.7188ZM65 67.6719C65.8333 67.6719 66.5104 67.4427 67.0312 66.9844C67.5521 66.526 67.8229 65.9167 67.8438 65.1562H72.0781C72.0677 66.3021 71.7552 67.3542 71.1406 68.3125C70.526 69.2604 69.6823 70 68.6094 70.5312C67.5469 71.0521 66.3698 71.3125 65.0781 71.3125C62.6615 71.3125 60.7552 70.5469 59.3594 69.0156C57.9635 67.474 57.2656 65.349 57.2656 62.6406V62.3438C57.2656 59.7396 57.9583 57.6615 59.3438 56.1094C60.7292 54.5573 62.6302 53.7812 65.0469 53.7812C67.1615 53.7812 68.8542 54.3854 70.125 55.5938C71.4062 56.7917 72.0573 58.3906 72.0781 60.3906H67.8438C67.8229 59.5156 67.5521 58.8073 67.0312 58.2656C66.5104 57.7135 65.8229 57.4375 64.9688 57.4375C63.9167 57.4375 63.1198 57.8229 62.5781 58.5938C62.0469 59.3542 61.7812 60.5938 61.7812 62.3125V62.7812C61.7812 64.5208 62.0469 65.7708 62.5781 66.5312C63.1094 67.2917 63.9167 67.6719 65 67.6719ZM81.0938 59.1406L83.9375 54.0938H88.7656L83.9531 62.375L88.9688 71H84.125L81.1094 65.6875L78.1094 71H73.25L78.2656 62.375L73.4688 54.0938H78.3125L81.0938 59.1406Z" fill="#9478BA"/>
<path d="M70.4624 29.2589L72.8236 0.18998L99.6069 28.1749L70.4624 29.2589Z" fill="#BAA1DC"/>
</svg>
