<svg width="100" height="124" viewBox="0 0 100 124" fill="none" xmlns="http://www.w3.org/2000/svg">
<mask id="path-1-inside-1" fill="white">
<path fill-rule="evenodd" clip-rule="evenodd" d="M70.5852 0C72.2018 0 73.7501 0.652367 74.8792 1.80933L98.294 25.8014C99.3877 26.9221 100 28.426 100 29.992V118C100 121.314 97.3137 124 94 124H6C2.68629 124 0 121.314 0 118V6C0 2.68629 2.68629 0 6 0H70.5852Z"/>
</mask>
<path fill-rule="evenodd" clip-rule="evenodd" d="M70.5852 0C72.2018 0 73.7501 0.652367 74.8792 1.80933L98.294 25.8014C99.3877 26.9221 100 28.426 100 29.992V118C100 121.314 97.3137 124 94 124H6C2.68629 124 0 121.314 0 118V6C0 2.68629 2.68629 0 6 0H70.5852Z" fill="#EEEEF3"/>
<path d="M98.294 25.8014L97.5783 26.4998L98.294 25.8014ZM74.1635 2.50777L97.5783 26.4998L99.0096 25.1029L75.5948 1.11088L74.1635 2.50777ZM99 29.992V118H101V29.992H99ZM94 123H6V125H94V123ZM1 118V6H-1V118H1ZM6 1H70.5852V-1H6V1ZM1 6C1 3.23858 3.23858 1 6 1V-1C2.13401 -1 -1 2.13401 -1 6H1ZM6 123C3.23858 123 1 120.761 1 118H-1C-1 121.866 2.13401 125 6 125V123ZM99 118C99 120.761 96.7614 123 94 123V125C97.866 125 101 121.866 101 118H99ZM97.5783 26.4998C98.4898 27.4337 99 28.687 99 29.992H101C101 28.165 100.286 26.4104 99.0096 25.1029L97.5783 26.4998ZM75.5948 1.11088C74.2775 -0.238906 72.4713 -1 70.5852 -1V1C71.9324 1 73.2226 1.54364 74.1635 2.50777L75.5948 1.11088Z" fill="#BBBBDA" mask="url(#path-1-inside-1)"/>
<path d="M23.5469 68.7812C23.5469 68.0625 23.7865 67.4792 24.2656 67.0312C24.7552 66.5833 25.3646 66.3594 26.0938 66.3594C26.8333 66.3594 27.4427 66.5833 27.9219 67.0312C28.4115 67.4792 28.6562 68.0625 28.6562 68.7812C28.6562 69.4896 28.4167 70.0677 27.9375 70.5156C27.4583 70.9531 26.8438 71.1719 26.0938 71.1719C25.3542 71.1719 24.7448 70.9531 24.2656 70.5156C23.7865 70.0677 23.5469 69.4896 23.5469 68.7812ZM47.8438 62.7031C47.8438 65.3073 47.25 67.3958 46.0625 68.9688C44.8854 70.5312 43.2917 71.3125 41.2812 71.3125C39.5729 71.3125 38.1927 70.7188 37.1406 69.5312V77.5H32.625V54.0938H36.8125L36.9688 55.75C38.0625 54.4375 39.4896 53.7812 41.25 53.7812C43.3333 53.7812 44.9531 54.5521 46.1094 56.0938C47.2656 57.6354 47.8438 59.7604 47.8438 62.4688V62.7031ZM43.3281 62.375C43.3281 60.8021 43.0469 59.5885 42.4844 58.7344C41.9323 57.8802 41.125 57.4531 40.0625 57.4531C38.6458 57.4531 37.6719 57.9948 37.1406 59.0781V66C37.6927 67.1146 38.6771 67.6719 40.0938 67.6719C42.25 67.6719 43.3281 65.9062 43.3281 62.375ZM49.9531 62.4219C49.9531 59.7865 50.5417 57.6875 51.7188 56.125C52.9062 54.5625 54.526 53.7812 56.5781 53.7812C58.224 53.7812 59.5833 54.3958 60.6562 55.625V47H65.1875V71H61.1094L60.8906 69.2031C59.7656 70.6094 58.3177 71.3125 56.5469 71.3125C54.5573 71.3125 52.9583 70.5312 51.75 68.9688C50.5521 67.3958 49.9531 65.2135 49.9531 62.4219ZM54.4688 62.75C54.4688 64.3333 54.7448 65.5469 55.2969 66.3906C55.849 67.2344 56.651 67.6562 57.7031 67.6562C59.099 67.6562 60.0833 67.0677 60.6562 65.8906V59.2188C60.0938 58.0417 59.1198 57.4531 57.7344 57.4531C55.5573 57.4531 54.4688 59.2188 54.4688 62.75ZM69.9219 71V57.4062H67.4062V54.0938H69.9219V52.6562C69.9219 50.7604 70.4635 49.2917 71.5469 48.25C72.6406 47.1979 74.1667 46.6719 76.125 46.6719C76.75 46.6719 77.5156 46.776 78.4219 46.9844L78.375 50.4844C78 50.3906 77.5417 50.3438 77 50.3438C75.3021 50.3438 74.4531 51.1406 74.4531 52.7344V54.0938H77.8125V57.4062H74.4531V71H69.9219Z" fill="#8E8EC2"/>
<path d="M70.4624 29.2589L72.8236 0.18998L99.6069 28.1749L70.4624 29.2589Z" fill="#BBBBDA"/>
</svg>
