<svg width="100" height="124" viewBox="0 0 100 124" fill="none" xmlns="http://www.w3.org/2000/svg">
<mask id="path-1-inside-1" fill="white">
<path fill-rule="evenodd" clip-rule="evenodd" d="M70.5852 0C72.2018 0 73.7501 0.652367 74.8792 1.80933L98.294 25.8014C99.3877 26.9221 100 28.426 100 29.992V118C100 121.314 97.3137 124 94 124H6C2.68629 124 0 121.314 0 118V6C0 2.68629 2.68629 0 6 0H70.5852Z"/>
</mask>
<path fill-rule="evenodd" clip-rule="evenodd" d="M70.5852 0C72.2018 0 73.7501 0.652367 74.8792 1.80933L98.294 25.8014C99.3877 26.9221 100 28.426 100 29.992V118C100 121.314 97.3137 124 94 124H6C2.68629 124 0 121.314 0 118V6C0 2.68629 2.68629 0 6 0H70.5852Z" fill="#F8F8F8"/>
<path d="M98.294 25.8014L97.5783 26.4998L98.294 25.8014ZM74.1635 2.50777L97.5783 26.4998L99.0096 25.1029L75.5948 1.11088L74.1635 2.50777ZM99 29.992V118H101V29.992H99ZM94 123H6V125H94V123ZM1 118V6H-1V118H1ZM6 1H70.5852V-1H6V1ZM1 6C1 3.23858 3.23858 1 6 1V-1C2.13401 -1 -1 2.13401 -1 6H1ZM6 123C3.23858 123 1 120.761 1 118H-1C-1 121.866 2.13401 125 6 125V123ZM99 118C99 120.761 96.7614 123 94 123V125C97.866 125 101 121.866 101 118H99ZM97.5783 26.4998C98.4898 27.4337 99 28.687 99 29.992H101C101 28.165 100.286 26.4104 99.0096 25.1029L97.5783 26.4998ZM75.5948 1.11088C74.2775 -0.238906 72.4713 -1 70.5852 -1V1C71.9324 1 73.2226 1.54364 74.1635 2.50777L75.5948 1.11088Z" fill="#B8B8B8" mask="url(#path-1-inside-1)"/>
<path d="M28.3594 68.7812C28.3594 68.0625 28.599 67.4792 29.0781 67.0312C29.5677 66.5833 30.1771 66.3594 30.9062 66.3594C31.6458 66.3594 32.2552 66.5833 32.7344 67.0312C33.224 67.4792 33.4688 68.0625 33.4688 68.7812C33.4688 69.4896 33.2292 70.0677 32.75 70.5156C32.2708 70.9531 31.6562 71.1719 30.9062 71.1719C30.1667 71.1719 29.5573 70.9531 29.0781 70.5156C28.599 70.0677 28.3594 69.4896 28.3594 68.7812ZM42.8438 49.9375V54.0938H45.7344V57.4062H42.8438V65.8438C42.8438 66.4688 42.9635 66.9167 43.2031 67.1875C43.4427 67.4583 43.901 67.5938 44.5781 67.5938C45.0781 67.5938 45.5208 67.5573 45.9062 67.4844V70.9062C45.0208 71.1771 44.1094 71.3125 43.1719 71.3125C40.0052 71.3125 38.3906 69.7135 38.3281 66.5156V57.4062H35.8594V54.0938H38.3281V49.9375H42.8438ZM54.6875 59.1406L57.5312 54.0938H62.3594L57.5469 62.375L62.5625 71H57.7188L54.7031 65.6875L51.7031 71H46.8438L51.8594 62.375L47.0625 54.0938H51.9062L54.6875 59.1406ZM69.9375 49.9375V54.0938H72.8281V57.4062H69.9375V65.8438C69.9375 66.4688 70.0573 66.9167 70.2969 67.1875C70.5365 67.4583 70.9948 67.5938 71.6719 67.5938C72.1719 67.5938 72.6146 67.5573 73 67.4844V70.9062C72.1146 71.1771 71.2031 71.3125 70.2656 71.3125C67.099 71.3125 65.4844 69.7135 65.4219 66.5156V57.4062H62.9531V54.0938H65.4219V49.9375H69.9375Z" fill="#B8B8B8"/>
<path d="M70.4624 29.2589L72.8236 0.18998L99.6069 28.1749L70.4624 29.2589Z" fill="#B8B8B8"/>
</svg>
