<svg width="100" height="124" viewBox="0 0 100 124" fill="none" xmlns="http://www.w3.org/2000/svg">
<mask id="path-1-inside-1" fill="white">
<path fill-rule="evenodd" clip-rule="evenodd" d="M70.5852 0C72.2018 0 73.7501 0.652367 74.8792 1.80933L98.294 25.8014C99.3877 26.9221 100 28.426 100 29.992V118C100 121.314 97.3137 124 94 124H6C2.68629 124 0 121.314 0 118V6C0 2.68629 2.68629 0 6 0H70.5852Z"/>
</mask>
<path fill-rule="evenodd" clip-rule="evenodd" d="M70.5852 0C72.2018 0 73.7501 0.652367 74.8792 1.80933L98.294 25.8014C99.3877 26.9221 100 28.426 100 29.992V118C100 121.314 97.3137 124 94 124H6C2.68629 124 0 121.314 0 118V6C0 2.68629 2.68629 0 6 0H70.5852Z" fill="#F8EEF4"/>
<path d="M98.294 25.8014L97.5783 26.4998L98.294 25.8014ZM74.1635 2.50777L97.5783 26.4998L99.0096 25.1029L75.5948 1.11088L74.1635 2.50777ZM99 29.992V118H101V29.992H99ZM94 123H6V125H94V123ZM1 118V6H-1V118H1ZM6 1H70.5852V-1H6V1ZM1 6C1 3.23858 3.23858 1 6 1V-1C2.13401 -1 -1 2.13401 -1 6H1ZM6 123C3.23858 123 1 120.761 1 118H-1C-1 121.866 2.13401 125 6 125V123ZM99 118C99 120.761 96.7614 123 94 123V125C97.866 125 101 121.866 101 118H99ZM97.5783 26.4998C98.4898 27.4337 99 28.687 99 29.992H101C101 28.165 100.286 26.4104 99.0096 25.1029L97.5783 26.4998ZM75.5948 1.11088C74.2775 -0.238906 72.4713 -1 70.5852 -1V1C71.9324 1 73.2226 1.54364 74.1635 2.50777L75.5948 1.11088Z" fill="#C78BAF" mask="url(#path-1-inside-1)"/>
<path d="M47.4531 64.0156C47.4531 62.5573 47.6302 61.3958 47.9844 60.5312C48.3385 59.6667 48.9844 58.8177 49.9219 57.9844C50.8698 57.1406 51.5 56.4583 51.8125 55.9375C52.125 55.4062 52.2812 54.849 52.2812 54.2656C52.2812 52.5052 51.4688 51.625 49.8438 51.625C49.0729 51.625 48.4531 51.8646 47.9844 52.3438C47.526 52.8125 47.2865 53.4635 47.2656 54.2969H42.7344C42.7552 52.3073 43.3958 50.75 44.6562 49.625C45.9271 48.5 47.6562 47.9375 49.8438 47.9375C52.0521 47.9375 53.7656 48.474 54.9844 49.5469C56.2031 50.6094 56.8125 52.1146 56.8125 54.0625C56.8125 54.9479 56.6146 55.7865 56.2188 56.5781C55.8229 57.3594 55.1302 58.2292 54.1406 59.1875L52.875 60.3906C52.0833 61.151 51.6302 62.0417 51.5156 63.0625L51.4531 64.0156H47.4531ZM47 68.8125C47 68.1146 47.2344 67.5417 47.7031 67.0938C48.1823 66.6354 48.7917 66.4062 49.5312 66.4062C50.2708 66.4062 50.875 66.6354 51.3438 67.0938C51.8229 67.5417 52.0625 68.1146 52.0625 68.8125C52.0625 69.5 51.8281 70.0677 51.3594 70.5156C50.901 70.9635 50.2917 71.1875 49.5312 71.1875C48.7708 71.1875 48.1562 70.9635 47.6875 70.5156C47.2292 70.0677 47 69.5 47 68.8125Z" fill="#AD6590"/>
<path d="M70.4624 29.2589L72.8236 0.18998L99.6069 28.1749L70.4624 29.2589Z" fill="#C78BAF"/>
</svg>
