<svg width="120" height="89" viewBox="0 0 120 89" fill="none" xmlns="http://www.w3.org/2000/svg">
    <path d="M64.3868 20.8027C63.7885 20.8027 63.2262 20.8956 62.7001 21.0812C62.174 21.2566 61.6995 21.4371 61.2765 21.6228C60.8536 21.8085 60.4822 21.9014 60.1624 21.9014C59.8323 21.9014 59.4609 21.8137 59.0483 21.6383C58.646 21.4629 58.2127 21.2927 57.7485 21.1277C57.2843 20.9523 56.7891 20.8646 56.263 20.8646C55.2727 20.8646 54.3133 21.138 53.3849 21.6847C52.4667 22.2211 51.7137 23.0206 51.1257 24.0832C50.5377 25.1354 50.2437 26.4404 50.2437 27.9981C50.2437 29.4526 50.4861 30.8968 50.9709 32.3308C51.4661 33.7544 52.0593 34.9613 52.7504 35.9516C53.3487 36.7872 53.9316 37.5042 54.499 38.1025C55.0663 38.7008 55.7266 39 56.4796 39C56.9748 39 57.4029 38.9175 57.764 38.7524C58.1353 38.5874 58.5222 38.4223 58.9245 38.2573C59.3371 38.0922 59.8478 38.0097 60.4564 38.0097C61.0857 38.0097 61.586 38.0922 61.9574 38.2573C62.3288 38.412 62.6898 38.5719 63.0406 38.7369C63.3913 38.8917 63.84 38.9691 64.3868 38.9691C65.2017 38.9691 65.8981 38.6596 66.4758 38.0406C67.0638 37.4217 67.6105 36.746 68.116 36.0135C68.6937 35.1676 69.1063 34.3991 69.3539 33.7079C69.6118 33.0168 69.7459 32.6505 69.7562 32.6093C69.7356 32.599 69.5602 32.5061 69.2301 32.3308C68.9103 32.1554 68.5389 31.882 68.116 31.5106C67.7034 31.129 67.3371 30.6286 67.0173 30.0097C66.7079 29.3907 66.5531 28.6377 66.5531 27.7505C66.5531 26.9768 66.6769 26.3114 66.9245 25.7544C67.1721 25.187 67.4609 24.7228 67.791 24.3617C68.1212 23.9903 68.4203 23.7118 68.6885 23.5261C68.9567 23.3301 69.1063 23.2166 69.1373 23.1857C68.6008 22.412 68.0025 21.8601 67.3423 21.53C66.6924 21.1896 66.0941 20.9832 65.5473 20.911C65.0006 20.8388 64.6137 20.8027 64.3868 20.8027ZM63.5357 18.8375C63.9071 18.3836 64.2114 17.8678 64.4487 17.2901C64.6859 16.7021 64.8046 16.0986 64.8046 15.4797C64.8046 15.294 64.7891 15.1341 64.7582 15C64.1598 15.0206 63.5306 15.2012 62.8703 15.5416C62.2101 15.882 61.6634 16.3101 61.2301 16.8259C60.8897 17.2076 60.5854 17.6925 60.3172 18.2805C60.0489 18.8582 59.9148 19.4565 59.9148 20.0754C59.9148 20.1683 59.92 20.256 59.9303 20.3385C59.9406 20.421 59.9509 20.4778 59.9613 20.5087C60.0644 20.5293 60.1727 20.5397 60.2862 20.5397C60.8329 20.5397 61.4106 20.3798 62.0193 20.06C62.6279 19.7299 63.1334 19.3224 63.5357 18.8375Z" fill="#3B4251"/>
    <path opacity="0.8" d="M29.1296 69H27.1609L30.7454 58.8182H33.0224L36.6118 69H34.6431L31.9236 60.9062H31.8441L29.1296 69ZM29.1942 65.0078H34.5636V66.4893H29.1942V65.0078ZM37.7334 71.8636V61.3636H39.5033V62.6264H39.6077C39.7005 62.4408 39.8314 62.2436 40.0004 62.0348C40.1695 61.8227 40.3982 61.642 40.6865 61.4929C40.9749 61.3404 41.3428 61.2642 41.7902 61.2642C42.3802 61.2642 42.9121 61.415 43.3861 61.7166C43.8634 62.0149 44.2412 62.4574 44.5196 63.044C44.8013 63.6274 44.9422 64.3433 44.9422 65.1918C44.9422 66.0303 44.8046 66.7429 44.5296 67.3295C44.2545 67.9162 43.8799 68.3636 43.406 68.6719C42.932 68.9801 42.3951 69.1342 41.7952 69.1342C41.3577 69.1342 40.9948 69.0613 40.7064 68.9155C40.418 68.7696 40.186 68.594 40.0104 68.3885C39.838 68.1797 39.7038 67.9825 39.6077 67.7969H39.5331V71.8636H37.7334ZM39.4983 65.1818C39.4983 65.6757 39.5679 66.1082 39.7071 66.4794C39.8496 66.8506 40.0535 67.1406 40.3186 67.3494C40.5871 67.5549 40.9119 67.6577 41.293 67.6577C41.6908 67.6577 42.0239 67.5516 42.2923 67.3395C42.5608 67.1241 42.763 66.8307 42.8989 66.4595C43.0381 66.085 43.1077 65.6591 43.1077 65.1818C43.1077 64.7079 43.0397 64.2869 42.9038 63.919C42.768 63.5511 42.5658 63.2628 42.2973 63.054C42.0288 62.8452 41.6941 62.7408 41.293 62.7408C40.9086 62.7408 40.5821 62.8419 40.3136 63.044C40.0452 63.2462 39.8413 63.5296 39.7021 63.8942C39.5662 64.2588 39.4983 64.688 39.4983 65.1818ZM46.3434 71.8636V61.3636H48.1133V62.6264H48.2177C48.3105 62.4408 48.4414 62.2436 48.6104 62.0348C48.7795 61.8227 49.0082 61.642 49.2965 61.4929C49.5849 61.3404 49.9528 61.2642 50.4002 61.2642C50.9902 61.2642 51.5221 61.415 51.9961 61.7166C52.4734 62.0149 52.8512 62.4574 53.1296 63.044C53.4113 63.6274 53.5522 64.3433 53.5522 65.1918C53.5522 66.0303 53.4146 66.7429 53.1396 67.3295C52.8645 67.9162 52.4899 68.3636 52.016 68.6719C51.542 68.9801 51.0051 69.1342 50.4052 69.1342C49.9677 69.1342 49.6048 69.0613 49.3164 68.9155C49.028 68.7696 48.796 68.594 48.6204 68.3885C48.448 68.1797 48.3138 67.9825 48.2177 67.7969H48.1431V71.8636H46.3434ZM48.1083 65.1818C48.1083 65.6757 48.1779 66.1082 48.3171 66.4794C48.4596 66.8506 48.6635 67.1406 48.9286 67.3494C49.1971 67.5549 49.5219 67.6577 49.903 67.6577C50.3008 67.6577 50.6339 67.5516 50.9023 67.3395C51.1708 67.1241 51.373 66.8307 51.5089 66.4595C51.6481 66.085 51.7177 65.6591 51.7177 65.1818C51.7177 64.7079 51.6497 64.2869 51.5138 63.919C51.378 63.5511 51.1758 63.2628 50.9073 63.054C50.6388 62.8452 50.3041 62.7408 49.903 62.7408C49.5186 62.7408 49.1921 62.8419 48.9236 63.044C48.6552 63.2462 48.4513 63.5296 48.3121 63.8942C48.1762 64.2588 48.1083 64.688 48.1083 65.1818ZM63.899 61.6172C63.8526 61.183 63.657 60.8449 63.3123 60.603C62.9709 60.361 62.5268 60.2401 61.9799 60.2401C61.5955 60.2401 61.2657 60.2981 60.9906 60.4141C60.7155 60.5301 60.505 60.6875 60.3592 60.8864C60.2134 61.0852 60.1388 61.3123 60.1355 61.5675C60.1355 61.7796 60.1835 61.9635 60.2797 62.1193C60.3791 62.2751 60.5133 62.4077 60.6824 62.517C60.8514 62.6231 61.0387 62.7126 61.2441 62.7855C61.4496 62.8584 61.6568 62.9197 61.8656 62.9695L62.8201 63.2081C63.2046 63.2976 63.5742 63.4186 63.9288 63.571C64.2868 63.7235 64.6066 63.9157 64.8883 64.1477C65.1734 64.3797 65.3987 64.6598 65.5645 64.9879C65.7302 65.3161 65.813 65.7005 65.813 66.1413C65.813 66.7379 65.6606 67.2633 65.3556 67.7173C65.0507 68.1681 64.6099 68.5211 64.0332 68.7763C63.4598 69.0282 62.7654 69.1541 61.9501 69.1541C61.158 69.1541 60.4702 69.0315 59.8869 68.7862C59.3069 68.541 58.8528 68.183 58.5247 67.7124C58.1999 67.2417 58.0242 66.6683 57.9977 65.9922H59.8123C59.8388 66.3468 59.9482 66.6418 60.1404 66.8771C60.3327 67.1125 60.5829 67.2881 60.8912 67.4041C61.2027 67.5201 61.5507 67.5781 61.9352 67.5781C62.3362 67.5781 62.6876 67.5185 62.9892 67.3991C63.2941 67.2765 63.5327 67.1075 63.7051 66.892C63.8774 66.6733 63.9653 66.4181 63.9686 66.1264C63.9653 65.8613 63.8874 65.6425 63.7349 65.4702C63.5824 65.2945 63.3687 65.1487 63.0936 65.0327C62.8218 64.9134 62.5036 64.8073 62.139 64.7145L60.9806 64.4162C60.1421 64.2008 59.4792 63.8743 58.992 63.4368C58.5081 62.996 58.2662 62.411 58.2662 61.6818C58.2662 61.0819 58.4286 60.5566 58.7534 60.1058C59.0815 59.6551 59.5273 59.3054 60.0907 59.0568C60.6542 58.8049 61.2922 58.679 62.0048 58.679C62.7273 58.679 63.3604 58.8049 63.9039 59.0568C64.4508 59.3054 64.88 59.6518 65.1916 60.0959C65.5031 60.5367 65.6639 61.0438 65.6738 61.6172H63.899ZM71.0511 61.3636V62.7557H66.6611V61.3636H71.0511ZM67.7449 59.5341H69.5447V66.7031C69.5447 66.9451 69.5811 67.1307 69.654 67.2599C69.7303 67.3859 69.8297 67.4721 69.9523 67.5185C70.075 67.5649 70.2109 67.5881 70.36 67.5881C70.4727 67.5881 70.5754 67.5798 70.6682 67.5632C70.7644 67.5466 70.8373 67.5317 70.887 67.5185L71.1903 68.9254C71.0941 68.9586 70.9566 68.995 70.7776 69.0348C70.602 69.0746 70.3865 69.0978 70.1313 69.1044C69.6805 69.1177 69.2745 69.0497 68.9133 68.9006C68.552 68.7481 68.2653 68.5128 68.0532 68.1946C67.8444 67.8764 67.7416 67.4787 67.7449 67.0014V59.5341ZM75.6651 69.1491C74.9194 69.1491 74.2731 68.9851 73.7262 68.657C73.1793 68.3288 72.7551 67.8698 72.4535 67.2798C72.1552 66.6899 72.006 66.0005 72.006 65.2116C72.006 64.4228 72.1552 63.7318 72.4535 63.1385C72.7551 62.5452 73.1793 62.0845 73.7262 61.7564C74.2731 61.4283 74.9194 61.2642 75.6651 61.2642C76.4109 61.2642 77.0572 61.4283 77.6041 61.7564C78.1509 62.0845 78.5735 62.5452 78.8718 63.1385C79.1734 63.7318 79.3242 64.4228 79.3242 65.2116C79.3242 66.0005 79.1734 66.6899 78.8718 67.2798C78.5735 67.8698 78.1509 68.3288 77.6041 68.657C77.0572 68.9851 76.4109 69.1491 75.6651 69.1491ZM75.6751 67.7074C76.0794 67.7074 76.4175 67.5964 76.6893 67.3743C76.9611 67.1489 77.1632 66.8473 77.2958 66.4695C77.4317 66.0916 77.4997 65.6707 77.4997 65.2067C77.4997 64.7393 77.4317 64.3168 77.2958 63.9389C77.1632 63.5578 76.9611 63.2545 76.6893 63.0291C76.4175 62.8037 76.0794 62.6911 75.6751 62.6911C75.2608 62.6911 74.9161 62.8037 74.641 63.0291C74.3692 63.2545 74.1654 63.5578 74.0295 63.9389C73.8969 64.3168 73.8306 64.7393 73.8306 65.2067C73.8306 65.6707 73.8969 66.0916 74.0295 66.4695C74.1654 66.8473 74.3692 67.1489 74.641 67.3743C74.9161 67.5964 75.2608 67.7074 75.6751 67.7074ZM80.7117 69V61.3636H82.4568V62.6364H82.5363C82.6755 62.1955 82.9142 61.8558 83.2522 61.6172C83.5936 61.3752 83.9831 61.2543 84.4206 61.2543C84.52 61.2543 84.631 61.2592 84.7537 61.2692C84.8796 61.2758 84.984 61.2874 85.0669 61.304V62.9595C84.9906 62.933 84.8697 62.9098 84.7039 62.8899C84.5415 62.8667 84.3841 62.8551 84.2316 62.8551C83.9035 62.8551 83.6085 62.9264 83.3467 63.0689C83.0882 63.2081 82.8843 63.402 82.7352 63.6506C82.586 63.8991 82.5115 64.1858 82.5115 64.5107V69H80.7117ZM89.1888 69.1491C88.4231 69.1491 87.7619 68.9901 87.2051 68.6719C86.6516 68.3504 86.2257 67.8963 85.9274 67.3097C85.6291 66.7197 85.48 66.0253 85.48 65.2266C85.48 64.4411 85.6291 63.7517 85.9274 63.1584C86.229 62.5618 86.6499 62.0978 87.1902 61.7663C87.7304 61.4316 88.3651 61.2642 89.0943 61.2642C89.5649 61.2642 90.0091 61.3404 90.4267 61.4929C90.8476 61.642 91.2188 61.8741 91.5403 62.1889C91.8651 62.5038 92.1203 62.9048 92.3059 63.392C92.4916 63.8759 92.5844 64.4527 92.5844 65.1222V65.674H86.3251V64.4609H90.8592C90.8559 64.1162 90.7813 63.8097 90.6355 63.5412C90.4897 63.2694 90.2858 63.0556 90.024 62.8999C89.7655 62.7441 89.4639 62.6662 89.1192 62.6662C88.7513 62.6662 88.4281 62.7557 88.1497 62.9347C87.8713 63.1103 87.6542 63.3423 87.4984 63.6307C87.346 63.9157 87.2681 64.2289 87.2648 64.5703V65.6293C87.2648 66.0734 87.346 66.4545 87.5084 66.7727C87.6708 67.0876 87.8978 67.3295 88.1895 67.4986C88.4811 67.6643 88.8225 67.7472 89.2136 67.7472C89.4755 67.7472 89.7124 67.7107 89.9246 67.6378C90.1367 67.5616 90.3206 67.4505 90.4764 67.3047C90.6322 67.1589 90.7498 66.9782 90.8294 66.7628L92.5098 66.9517C92.4037 67.3958 92.2015 67.7836 91.9032 68.1151C91.6083 68.4432 91.2304 68.6984 90.7697 68.8807C90.309 69.0597 89.782 69.1491 89.1888 69.1491Z" fill="#3B4251"/>
    <rect x="0.5" y="0.5" width="119" height="88" rx="7.5" stroke="#4C88FF" stroke-opacity="0.2"/>
</svg>
