<svg width="121" height="117" viewBox="0 0 121 117" fill="none" xmlns="http://www.w3.org/2000/svg">
    <path d="M64.8868 21.8027C64.2885 21.8027 63.7262 21.8956 63.2001 22.0812C62.674 22.2566 62.1995 22.4371 61.7765 22.6228C61.3536 22.8085 60.9822 22.9014 60.6624 22.9014C60.3323 22.9014 59.9609 22.8137 59.5483 22.6383C59.146 22.4629 58.7127 22.2927 58.2485 22.1277C57.7843 21.9523 57.2891 21.8646 56.763 21.8646C55.7727 21.8646 54.8133 22.138 53.8849 22.6847C52.9667 23.2211 52.2137 24.0206 51.6257 25.0832C51.0377 26.1354 50.7437 27.4404 50.7437 28.9981C50.7437 30.4526 50.9861 31.8968 51.4709 33.3308C51.9661 34.7544 52.5593 35.9613 53.2504 36.9516C53.8487 37.7872 54.4316 38.5042 54.999 39.1025C55.5663 39.7008 56.2266 40 56.9796 40C57.4748 40 57.9029 39.9175 58.264 39.7524C58.6353 39.5874 59.0222 39.4223 59.4245 39.2573C59.8371 39.0922 60.3478 39.0097 60.9564 39.0097C61.5857 39.0097 62.086 39.0922 62.4574 39.2573C62.8288 39.412 63.1898 39.5719 63.5406 39.7369C63.8913 39.8917 64.34 39.9691 64.8868 39.9691C65.7017 39.9691 66.3981 39.6596 66.9758 39.0406C67.5638 38.4217 68.1105 37.746 68.616 37.0135C69.1937 36.1676 69.6063 35.3991 69.8539 34.7079C70.1118 34.0168 70.2459 33.6505 70.2562 33.6093C70.2356 33.599 70.0602 33.5061 69.7301 33.3308C69.4103 33.1554 69.0389 32.882 68.616 32.5106C68.2034 32.129 67.8371 31.6286 67.5173 31.0097C67.2079 30.3907 67.0531 29.6377 67.0531 28.7505C67.0531 27.9768 67.1769 27.3114 67.4245 26.7544C67.6721 26.187 67.9609 25.7228 68.291 25.3617C68.6212 24.9903 68.9203 24.7118 69.1885 24.5261C69.4567 24.3301 69.6063 24.2166 69.6373 24.1857C69.1008 23.412 68.5025 22.8601 67.8423 22.53C67.1924 22.1896 66.5941 21.9832 66.0473 21.911C65.5006 21.8388 65.1137 21.8027 64.8868 21.8027ZM64.0357 19.8375C64.4071 19.3836 64.7114 18.8678 64.9487 18.2901C65.1859 17.7021 65.3046 17.0986 65.3046 16.4797C65.3046 16.294 65.2891 16.1341 65.2582 16C64.6598 16.0206 64.0306 16.2012 63.3703 16.5416C62.7101 16.882 62.1634 17.3101 61.7301 17.8259C61.3897 18.2076 61.0854 18.6925 60.8172 19.2805C60.5489 19.8582 60.4148 20.4565 60.4148 21.0754C60.4148 21.1683 60.42 21.256 60.4303 21.3385C60.4406 21.421 60.4509 21.4778 60.4613 21.5087C60.5644 21.5293 60.6727 21.5397 60.7862 21.5397C61.3329 21.5397 61.9106 21.3798 62.5193 21.06C63.1279 20.7299 63.6334 20.3224 64.0357 19.8375Z" fill="#3B4251"/>
    <path opacity="0.8" d="M18.6999 69H15.7823V59.5455H18.8292C19.7463 59.5455 20.5311 59.7347 21.1836 60.1133C21.836 60.4888 22.3362 61.0289 22.6839 61.7337C23.0317 62.4354 23.2056 63.2756 23.2056 64.2543C23.2056 65.2391 23.0302 66.087 22.6793 66.7979C22.3285 67.5058 21.8176 68.0505 21.1467 68.4322C20.4757 68.8107 19.6601 69 18.6999 69ZM16.9272 67.9844H18.6261C19.4078 67.9844 20.0556 67.8336 20.5696 67.532C21.0836 67.2304 21.4667 66.801 21.7191 66.244C21.9715 65.6869 22.0976 65.0237 22.0976 64.2543C22.0976 63.491 21.973 62.8339 21.7237 62.283C21.4744 61.729 21.102 61.3043 20.6065 61.0089C20.111 60.7103 19.494 60.5611 18.7553 60.5611H16.9272V67.9844ZM27.729 69.1477C27.0889 69.1477 26.5272 68.9954 26.044 68.6907C25.5639 68.386 25.1884 67.9598 24.9176 67.4119C24.6498 66.8641 24.5159 66.224 24.5159 65.4915C24.5159 64.7528 24.6498 64.1081 24.9176 63.5572C25.1884 63.0063 25.5639 62.5785 26.044 62.2738C26.5272 61.9691 27.0889 61.8168 27.729 61.8168C28.3692 61.8168 28.9293 61.9691 29.4094 62.2738C29.8926 62.5785 30.2681 63.0063 30.5358 63.5572C30.8067 64.1081 30.9421 64.7528 30.9421 65.4915C30.9421 66.224 30.8067 66.8641 30.5358 67.4119C30.2681 67.9598 29.8926 68.386 29.4094 68.6907C28.9293 68.9954 28.3692 69.1477 27.729 69.1477ZM27.729 68.169C28.2153 68.169 28.6154 68.0444 28.9293 67.7951C29.2432 67.5458 29.4756 67.218 29.6264 66.8118C29.7772 66.4055 29.8526 65.9654 29.8526 65.4915C29.8526 65.0175 29.7772 64.5759 29.6264 64.1665C29.4756 63.7572 29.2432 63.4264 28.9293 63.174C28.6154 62.9216 28.2153 62.7955 27.729 62.7955C27.2427 62.7955 26.8426 62.9216 26.5287 63.174C26.2148 63.4264 25.9824 63.7572 25.8316 64.1665C25.6808 64.5759 25.6054 65.0175 25.6054 65.4915C25.6054 65.9654 25.6808 66.4055 25.8316 66.8118C25.9824 67.218 26.2148 67.5458 26.5287 67.7951C26.8426 68.0444 27.2427 68.169 27.729 68.169ZM33.8405 69L31.68 61.9091H32.8249L34.3575 67.3381H34.4314L35.9456 61.9091H37.109L38.6047 67.3196H38.6786L40.2112 61.9091H41.3561L39.1956 69H38.1246L36.5734 63.5526H36.4626L34.9115 69H33.8405ZM43.7559 64.7344V69H42.6665V61.9091H43.719V63.017H43.8113C43.9775 62.657 44.2299 62.3677 44.5684 62.1491C44.907 61.9276 45.344 61.8168 45.8795 61.8168C46.3596 61.8168 46.7797 61.9152 47.1398 62.1122C47.4999 62.3061 47.78 62.6016 47.98 62.9986C48.1801 63.3925 48.2801 63.8911 48.2801 64.4943V69H47.1906V64.5682C47.1906 64.0111 47.046 63.5772 46.7567 63.2663C46.4674 62.9524 46.0703 62.7955 45.5656 62.7955C45.2178 62.7955 44.907 62.8709 44.6331 63.0217C44.3622 63.1725 44.1483 63.3925 43.9914 63.6818C43.8344 63.9711 43.7559 64.322 43.7559 64.7344ZM51.2304 59.5455V69H50.1409V59.5455H51.2304ZM55.9766 69.1477C55.3364 69.1477 54.7748 68.9954 54.2916 68.6907C53.8115 68.386 53.436 67.9598 53.1652 67.4119C52.8974 66.8641 52.7635 66.224 52.7635 65.4915C52.7635 64.7528 52.8974 64.1081 53.1652 63.5572C53.436 63.0063 53.8115 62.5785 54.2916 62.2738C54.7748 61.9691 55.3364 61.8168 55.9766 61.8168C56.6167 61.8168 57.1769 61.9691 57.657 62.2738C58.1402 62.5785 58.5157 63.0063 58.7834 63.5572C59.0542 64.1081 59.1897 64.7528 59.1897 65.4915C59.1897 66.224 59.0542 66.8641 58.7834 67.4119C58.5157 67.9598 58.1402 68.386 57.657 68.6907C57.1769 68.9954 56.6167 69.1477 55.9766 69.1477ZM55.9766 68.169C56.4629 68.169 56.863 68.0444 57.1769 67.7951C57.4908 67.5458 57.7232 67.218 57.874 66.8118C58.0248 66.4055 58.1002 65.9654 58.1002 65.4915C58.1002 65.0175 58.0248 64.5759 57.874 64.1665C57.7232 63.7572 57.4908 63.4264 57.1769 63.174C56.863 62.9216 56.4629 62.7955 55.9766 62.7955C55.4903 62.7955 55.0902 62.9216 54.7763 63.174C54.4624 63.4264 54.23 63.7572 54.0792 64.1665C53.9284 64.5759 53.853 65.0175 53.853 65.4915C53.853 65.9654 53.9284 66.4055 54.0792 66.8118C54.23 67.218 54.4624 67.5458 54.7763 67.7951C55.0902 68.0444 55.4903 68.169 55.9766 68.169ZM62.8094 69.1662C62.3601 69.1662 61.9523 69.0816 61.586 68.9123C61.2198 68.7399 60.9289 68.4922 60.7135 68.169C60.4981 67.8428 60.3904 67.4489 60.3904 66.9872C60.3904 66.581 60.4704 66.2517 60.6304 65.9993C60.7905 65.7438 61.0044 65.5438 61.2721 65.3991C61.5399 65.2545 61.8353 65.1468 62.1585 65.076C62.4847 65.0021 62.8125 64.9437 63.1418 64.9006C63.5727 64.8452 63.922 64.8036 64.1897 64.7759C64.4606 64.7451 64.6575 64.6944 64.7806 64.6236C64.9068 64.5528 64.9699 64.4297 64.9699 64.2543V64.2173C64.9699 63.7618 64.8453 63.4079 64.596 63.1555C64.3498 62.9032 63.9758 62.777 63.4742 62.777C62.954 62.777 62.5463 62.8909 62.2508 63.1186C61.9553 63.3464 61.7476 63.5895 61.6276 63.848L60.5935 63.4787C60.7781 63.0478 61.0244 62.7124 61.3321 62.4723C61.643 62.2292 61.9815 62.0599 62.3477 61.9645C62.7171 61.866 63.0802 61.8168 63.4372 61.8168C63.665 61.8168 63.9266 61.8445 64.222 61.8999C64.5206 61.9522 64.8083 62.0614 65.0853 62.2276C65.3654 62.3938 65.5977 62.6446 65.7824 62.9801C65.9671 63.3156 66.0594 63.7649 66.0594 64.3281V69H64.9699V68.0398H64.9145C64.8406 68.1937 64.7175 68.3583 64.5452 68.5337C64.3728 68.7092 64.1436 68.8584 63.8573 68.9815C63.5711 69.1046 63.2218 69.1662 62.8094 69.1662ZM62.9756 68.1875C63.4065 68.1875 63.7696 68.1029 64.0651 67.9336C64.3636 67.7643 64.5883 67.5458 64.7391 67.2781C64.893 67.0103 64.9699 66.7287 64.9699 66.4332V65.4361C64.9237 65.4915 64.8222 65.5423 64.6652 65.5884C64.5113 65.6315 64.3328 65.67 64.1297 65.7038C63.9297 65.7346 63.7342 65.7623 63.5434 65.7869C63.3557 65.8085 63.2033 65.8269 63.0864 65.8423C62.8032 65.8793 62.5386 65.9393 62.2923 66.0224C62.0492 66.1024 61.8522 66.224 61.7014 66.3871C61.5537 66.5471 61.4798 66.7656 61.4798 67.0426C61.4798 67.4212 61.6199 67.7074 61.8999 67.9013C62.1831 68.0921 62.5416 68.1875 62.9756 68.1875ZM70.5955 69.1477C70.0046 69.1477 69.4829 68.9985 69.0305 68.6999C68.5781 68.3983 68.2242 67.9736 67.9687 67.4258C67.7133 66.8749 67.5856 66.224 67.5856 65.473C67.5856 64.7282 67.7133 64.0819 67.9687 63.5341C68.2242 62.9863 68.5796 62.5631 69.0351 62.2646C69.4906 61.966 70.0169 61.8168 70.614 61.8168C71.0756 61.8168 71.4403 61.8937 71.7081 62.0476C71.9789 62.1984 72.1851 62.3707 72.3267 62.5646C72.4713 62.7554 72.5837 62.9124 72.6637 63.0355H72.756V59.5455H73.8455V69H72.7929V67.9105H72.6637C72.5837 68.0398 72.4698 68.2029 72.3221 68.3999C72.1743 68.5937 71.9635 68.7676 71.6896 68.9215C71.4157 69.0723 71.051 69.1477 70.5955 69.1477ZM70.7432 68.169C71.1803 68.169 71.5496 68.0552 71.8512 67.8274C72.1528 67.5966 72.3821 67.2781 72.539 66.8718C72.696 66.4625 72.7745 65.9901 72.7745 65.4545C72.7745 64.9252 72.6975 64.462 72.5436 64.065C72.3898 63.6649 72.162 63.354 71.8604 63.1325C71.5588 62.9078 71.1864 62.7955 70.7432 62.7955C70.2816 62.7955 69.8969 62.9139 69.5891 63.1509C69.2844 63.3848 69.0551 63.7034 68.9012 64.1065C68.7504 64.5066 68.675 64.956 68.675 65.4545C68.675 65.9593 68.752 66.4179 68.9059 66.8303C69.0628 67.2396 69.2936 67.5658 69.5983 67.8089C69.9061 68.049 70.2877 68.169 70.7432 68.169ZM82.5461 61.9091V62.8324H78.7236V61.9091H82.5461ZM79.8685 69V60.9304C79.8685 60.5241 79.9639 60.1856 80.1547 59.9148C80.3456 59.6439 80.5933 59.4408 80.898 59.3054C81.2027 59.17 81.5243 59.1023 81.8628 59.1023C82.1306 59.1023 82.3491 59.1238 82.5184 59.1669C82.6877 59.21 82.8138 59.25 82.8969 59.2869L82.583 60.2287C82.5276 60.2102 82.4507 60.1871 82.3522 60.1594C82.2568 60.1317 82.1306 60.1179 81.9736 60.1179C81.6136 60.1179 81.3535 60.2087 81.1935 60.3903C81.0365 60.5719 80.958 60.8381 80.958 61.1889V69H79.8685ZM83.943 69V61.9091H84.9955V62.9801H85.0694C85.1987 62.6293 85.4326 62.3446 85.7711 62.1261C86.1096 61.9076 86.4913 61.7983 86.916 61.7983C86.996 61.7983 87.096 61.7998 87.2161 61.8029C87.3361 61.806 87.4269 61.8106 87.4884 61.8168V62.9247C87.4515 62.9155 87.3669 62.9016 87.2345 62.8832C87.1053 62.8616 86.9683 62.8509 86.8237 62.8509C86.479 62.8509 86.1712 62.9232 85.9004 63.0678C85.6326 63.2094 85.4202 63.4064 85.2633 63.6587C85.1094 63.908 85.0325 64.1927 85.0325 64.5128V69H83.943ZM91.3148 69.1477C90.6746 69.1477 90.1129 68.9954 89.6297 68.6907C89.1496 68.386 88.7742 67.9598 88.5033 67.4119C88.2356 66.8641 88.1017 66.224 88.1017 65.4915C88.1017 64.7528 88.2356 64.1081 88.5033 63.5572C88.7742 63.0063 89.1496 62.5785 89.6297 62.2738C90.1129 61.9691 90.6746 61.8168 91.3148 61.8168C91.9549 61.8168 92.515 61.9691 92.9952 62.2738C93.4783 62.5785 93.8538 63.0063 94.1216 63.5572C94.3924 64.1081 94.5278 64.7528 94.5278 65.4915C94.5278 66.224 94.3924 66.8641 94.1216 67.4119C93.8538 67.9598 93.4783 68.386 92.9952 68.6907C92.515 68.9954 91.9549 69.1477 91.3148 69.1477ZM91.3148 68.169C91.801 68.169 92.2011 68.0444 92.515 67.7951C92.829 67.5458 93.0613 67.218 93.2121 66.8118C93.3629 66.4055 93.4383 65.9654 93.4383 65.4915C93.4383 65.0175 93.3629 64.5759 93.2121 64.1665C93.0613 63.7572 92.829 63.4264 92.515 63.174C92.2011 62.9216 91.801 62.7955 91.3148 62.7955C90.8285 62.7955 90.4284 62.9216 90.1145 63.174C89.8005 63.4264 89.5682 63.7572 89.4174 64.1665C89.2666 64.5759 89.1912 65.0175 89.1912 65.4915C89.1912 65.9654 89.2666 66.4055 89.4174 66.8118C89.5682 67.218 89.8005 67.5458 90.1145 67.7951C90.4284 68.0444 90.8285 68.169 91.3148 68.169ZM96.0609 69V61.9091H97.1135V63.017H97.2058C97.3535 62.6385 97.592 62.3446 97.9214 62.1353C98.2507 61.9229 98.6461 61.8168 99.1078 61.8168C99.5756 61.8168 99.9649 61.9229 100.276 62.1353C100.59 62.3446 100.834 62.6385 101.01 63.017H101.084C101.265 62.6508 101.538 62.36 101.901 62.1445C102.264 61.926 102.699 61.8168 103.207 61.8168C103.841 61.8168 104.36 62.0153 104.763 62.4123C105.166 62.8062 105.368 63.4202 105.368 64.2543V69H104.278V64.2543C104.278 63.7311 104.135 63.3571 103.849 63.1325C103.563 62.9078 103.226 62.7955 102.838 62.7955C102.339 62.7955 101.953 62.9463 101.679 63.2479C101.405 63.5464 101.268 63.925 101.268 64.3835V69H100.16V64.1435C100.16 63.7403 100.03 63.4156 99.7679 63.1694C99.5063 62.9201 99.1693 62.7955 98.7569 62.7955C98.4738 62.7955 98.2091 62.8709 97.9629 63.0217C97.7198 63.1725 97.5228 63.3817 97.372 63.6495C97.2243 63.9142 97.1504 64.2204 97.1504 64.5682V69H96.0609Z" fill="#3B4251"/>
    <path opacity="0.8" d="M29.6296 96H27.6609L31.2454 85.8182H33.5224L37.1118 96H35.1431L32.4236 87.9062H32.3441L29.6296 96ZM29.6942 92.0078H35.0636V93.4893H29.6942V92.0078ZM38.2334 98.8636V88.3636H40.0033V89.6264H40.1077C40.2005 89.4408 40.3314 89.2436 40.5004 89.0348C40.6695 88.8227 40.8982 88.642 41.1865 88.4929C41.4749 88.3404 41.8428 88.2642 42.2902 88.2642C42.8802 88.2642 43.4121 88.415 43.8861 88.7166C44.3634 89.0149 44.7412 89.4574 45.0196 90.044C45.3013 90.6274 45.4422 91.3433 45.4422 92.1918C45.4422 93.0303 45.3046 93.7429 45.0296 94.3295C44.7545 94.9162 44.3799 95.3636 43.906 95.6719C43.432 95.9801 42.8951 96.1342 42.2952 96.1342C41.8577 96.1342 41.4948 96.0613 41.2064 95.9155C40.918 95.7696 40.686 95.594 40.5104 95.3885C40.338 95.1797 40.2038 94.9825 40.1077 94.7969H40.0331V98.8636H38.2334ZM39.9983 92.1818C39.9983 92.6757 40.0679 93.1082 40.2071 93.4794C40.3496 93.8506 40.5535 94.1406 40.8186 94.3494C41.0871 94.5549 41.4119 94.6577 41.793 94.6577C42.1908 94.6577 42.5239 94.5516 42.7923 94.3395C43.0608 94.1241 43.263 93.8307 43.3989 93.4595C43.5381 93.085 43.6077 92.6591 43.6077 92.1818C43.6077 91.7079 43.5397 91.2869 43.4038 90.919C43.268 90.5511 43.0658 90.2628 42.7973 90.054C42.5288 89.8452 42.1941 89.7408 41.793 89.7408C41.4086 89.7408 41.0821 89.8419 40.8136 90.044C40.5452 90.2462 40.3413 90.5296 40.2021 90.8942C40.0662 91.2588 39.9983 91.688 39.9983 92.1818ZM46.8434 98.8636V88.3636H48.6133V89.6264H48.7177C48.8105 89.4408 48.9414 89.2436 49.1104 89.0348C49.2795 88.8227 49.5082 88.642 49.7965 88.4929C50.0849 88.3404 50.4528 88.2642 50.9002 88.2642C51.4902 88.2642 52.0221 88.415 52.4961 88.7166C52.9734 89.0149 53.3512 89.4574 53.6296 90.044C53.9113 90.6274 54.0522 91.3433 54.0522 92.1918C54.0522 93.0303 53.9146 93.7429 53.6396 94.3295C53.3645 94.9162 52.9899 95.3636 52.516 95.6719C52.042 95.9801 51.5051 96.1342 50.9052 96.1342C50.4677 96.1342 50.1048 96.0613 49.8164 95.9155C49.528 95.7696 49.296 95.594 49.1204 95.3885C48.948 95.1797 48.8138 94.9825 48.7177 94.7969H48.6431V98.8636H46.8434ZM48.6083 92.1818C48.6083 92.6757 48.6779 93.1082 48.8171 93.4794C48.9596 93.8506 49.1635 94.1406 49.4286 94.3494C49.6971 94.5549 50.0219 94.6577 50.403 94.6577C50.8008 94.6577 51.1339 94.5516 51.4023 94.3395C51.6708 94.1241 51.873 93.8307 52.0089 93.4595C52.1481 93.085 52.2177 92.6591 52.2177 92.1818C52.2177 91.7079 52.1497 91.2869 52.0138 90.919C51.878 90.5511 51.6758 90.2628 51.4073 90.054C51.1388 89.8452 50.8041 89.7408 50.403 89.7408C50.0186 89.7408 49.6921 89.8419 49.4236 90.044C49.1552 90.2462 48.9513 90.5296 48.8121 90.8942C48.6762 91.2588 48.6083 91.688 48.6083 92.1818ZM64.399 88.6172C64.3526 88.183 64.157 87.8449 63.8123 87.603C63.4709 87.361 63.0268 87.2401 62.4799 87.2401C62.0955 87.2401 61.7657 87.2981 61.4906 87.4141C61.2155 87.5301 61.005 87.6875 60.8592 87.8864C60.7134 88.0852 60.6388 88.3123 60.6355 88.5675C60.6355 88.7796 60.6835 88.9635 60.7797 89.1193C60.8791 89.2751 61.0133 89.4077 61.1824 89.517C61.3514 89.6231 61.5387 89.7126 61.7441 89.7855C61.9496 89.8584 62.1568 89.9197 62.3656 89.9695L63.3201 90.2081C63.7046 90.2976 64.0742 90.4186 64.4288 90.571C64.7868 90.7235 65.1066 90.9157 65.3883 91.1477C65.6734 91.3797 65.8987 91.6598 66.0645 91.9879C66.2302 92.3161 66.313 92.7005 66.313 93.1413C66.313 93.7379 66.1606 94.2633 65.8556 94.7173C65.5507 95.1681 65.1099 95.5211 64.5332 95.7763C63.9598 96.0282 63.2654 96.1541 62.4501 96.1541C61.658 96.1541 60.9702 96.0315 60.3869 95.7862C59.8069 95.541 59.3528 95.183 59.0247 94.7124C58.6999 94.2417 58.5242 93.6683 58.4977 92.9922H60.3123C60.3388 93.3468 60.4482 93.6418 60.6404 93.8771C60.8327 94.1125 61.0829 94.2881 61.3912 94.4041C61.7027 94.5201 62.0507 94.5781 62.4352 94.5781C62.8362 94.5781 63.1876 94.5185 63.4892 94.3991C63.7941 94.2765 64.0327 94.1075 64.2051 93.892C64.3774 93.6733 64.4653 93.4181 64.4686 93.1264C64.4653 92.8613 64.3874 92.6425 64.2349 92.4702C64.0824 92.2945 63.8687 92.1487 63.5936 92.0327C63.3218 91.9134 63.0036 91.8073 62.639 91.7145L61.4806 91.4162C60.6421 91.2008 59.9792 90.8743 59.492 90.4368C59.0081 89.996 58.7662 89.411 58.7662 88.6818C58.7662 88.0819 58.9286 87.5566 59.2534 87.1058C59.5815 86.6551 60.0273 86.3054 60.5907 86.0568C61.1542 85.8049 61.7922 85.679 62.5048 85.679C63.2273 85.679 63.8604 85.8049 64.4039 86.0568C64.9508 86.3054 65.38 86.6518 65.6916 87.0959C66.0031 87.5367 66.1639 88.0438 66.1738 88.6172H64.399ZM71.5511 88.3636V89.7557H67.1611V88.3636H71.5511ZM68.2449 86.5341H70.0447V93.7031C70.0447 93.9451 70.0811 94.1307 70.154 94.2599C70.2303 94.3859 70.3297 94.4721 70.4523 94.5185C70.575 94.5649 70.7109 94.5881 70.86 94.5881C70.9727 94.5881 71.0754 94.5798 71.1682 94.5632C71.2644 94.5466 71.3373 94.5317 71.387 94.5185L71.6903 95.9254C71.5941 95.9586 71.4566 95.995 71.2776 96.0348C71.102 96.0746 70.8865 96.0978 70.6313 96.1044C70.1805 96.1177 69.7745 96.0497 69.4133 95.9006C69.052 95.7481 68.7653 95.5128 68.5532 95.1946C68.3444 94.8764 68.2416 94.4787 68.2449 94.0014V86.5341ZM76.1651 96.1491C75.4194 96.1491 74.7731 95.9851 74.2262 95.657C73.6793 95.3288 73.2551 94.8698 72.9535 94.2798C72.6552 93.6899 72.506 93.0005 72.506 92.2116C72.506 91.4228 72.6552 90.7318 72.9535 90.1385C73.2551 89.5452 73.6793 89.0845 74.2262 88.7564C74.7731 88.4283 75.4194 88.2642 76.1651 88.2642C76.9109 88.2642 77.5572 88.4283 78.1041 88.7564C78.6509 89.0845 79.0735 89.5452 79.3718 90.1385C79.6734 90.7318 79.8242 91.4228 79.8242 92.2116C79.8242 93.0005 79.6734 93.6899 79.3718 94.2798C79.0735 94.8698 78.6509 95.3288 78.1041 95.657C77.5572 95.9851 76.9109 96.1491 76.1651 96.1491ZM76.1751 94.7074C76.5794 94.7074 76.9175 94.5964 77.1893 94.3743C77.4611 94.1489 77.6632 93.8473 77.7958 93.4695C77.9317 93.0916 77.9997 92.6707 77.9997 92.2067C77.9997 91.7393 77.9317 91.3168 77.7958 90.9389C77.6632 90.5578 77.4611 90.2545 77.1893 90.0291C76.9175 89.8037 76.5794 89.6911 76.1751 89.6911C75.7608 89.6911 75.4161 89.8037 75.141 90.0291C74.8692 90.2545 74.6654 90.5578 74.5295 90.9389C74.3969 91.3168 74.3306 91.7393 74.3306 92.2067C74.3306 92.6707 74.3969 93.0916 74.5295 93.4695C74.6654 93.8473 74.8692 94.1489 75.141 94.3743C75.4161 94.5964 75.7608 94.7074 76.1751 94.7074ZM81.2117 96V88.3636H82.9568V89.6364H83.0363C83.1755 89.1955 83.4142 88.8558 83.7522 88.6172C84.0936 88.3752 84.4831 88.2543 84.9206 88.2543C85.02 88.2543 85.131 88.2592 85.2537 88.2692C85.3796 88.2758 85.484 88.2874 85.5669 88.304V89.9595C85.4906 89.933 85.3697 89.9098 85.2039 89.8899C85.0415 89.8667 84.8841 89.8551 84.7316 89.8551C84.4035 89.8551 84.1085 89.9264 83.8467 90.0689C83.5882 90.2081 83.3843 90.402 83.2352 90.6506C83.086 90.8991 83.0115 91.1858 83.0115 91.5107V96H81.2117ZM89.6888 96.1491C88.9231 96.1491 88.2619 95.9901 87.7051 95.6719C87.1516 95.3504 86.7257 94.8963 86.4274 94.3097C86.1291 93.7197 85.98 93.0253 85.98 92.2266C85.98 91.4411 86.1291 90.7517 86.4274 90.1584C86.729 89.5618 87.1499 89.0978 87.6902 88.7663C88.2304 88.4316 88.8651 88.2642 89.5943 88.2642C90.0649 88.2642 90.5091 88.3404 90.9267 88.4929C91.3476 88.642 91.7188 88.8741 92.0403 89.1889C92.3651 89.5038 92.6203 89.9048 92.8059 90.392C92.9916 90.8759 93.0844 91.4527 93.0844 92.1222V92.674H86.8251V91.4609H91.3592C91.3559 91.1162 91.2813 90.8097 91.1355 90.5412C90.9897 90.2694 90.7858 90.0556 90.524 89.8999C90.2655 89.7441 89.9639 89.6662 89.6192 89.6662C89.2513 89.6662 88.9281 89.7557 88.6497 89.9347C88.3713 90.1103 88.1542 90.3423 87.9984 90.6307C87.846 90.9157 87.7681 91.2289 87.7648 91.5703V92.6293C87.7648 93.0734 87.846 93.4545 88.0084 93.7727C88.1708 94.0876 88.3978 94.3295 88.6895 94.4986C88.9811 94.6643 89.3225 94.7472 89.7136 94.7472C89.9755 94.7472 90.2124 94.7107 90.4246 94.6378C90.6367 94.5616 90.8206 94.4505 90.9764 94.3047C91.1322 94.1589 91.2498 93.9782 91.3294 93.7628L93.0098 93.9517C92.9037 94.3958 92.7015 94.7836 92.4032 95.1151C92.1083 95.4432 91.7304 95.6984 91.2697 95.8807C90.809 96.0597 90.282 96.1491 89.6888 96.1491Z" fill="#3B4251"/>
    <rect x="1" y="0.5" width="119" height="116" rx="7.5" stroke="#4C88FF" stroke-opacity="0.1"/>
</svg>
