<svg width="121" height="117" viewBox="0 0 121 117" fill="none" xmlns="http://www.w3.org/2000/svg">
    <path d="M52.598 39.9997C52.2951 39.8982 51.9922 39.7972 51.6904 39.6936C51.6527 39.6769 51.6168 39.6565 51.583 39.6329L61.6749 29.541L65.7689 33.3181C65.2533 33.6033 64.7597 33.8772 64.2651 34.1495C60.9966 35.9537 57.7268 37.7548 54.4557 39.5528C54.0927 39.7516 53.6765 39.8531 53.2849 39.9997H52.598Z" fill="#3B4251"/>
    <path d="M53.2857 18.0021C54.0644 18.1412 54.7089 18.5795 55.3802 18.9501C58.5066 20.6711 61.6312 22.3953 64.754 24.1225C64.8158 24.1563 64.8759 24.1939 64.9151 24.217L61.5639 27.5736L51.5972 18.3759C51.9194 18.1466 52.29 18.0994 52.6412 18L53.2857 18.0021Z" fill="#3B4251"/>
    <path d="M50.5425 38.6272C50.2868 38.1975 50.1912 37.7281 50.1912 37.2308C50.1912 33.6078 50.1912 29.9846 50.1912 26.3613C50.1912 24.493 50.1912 22.6243 50.1912 20.7549C50.1808 20.2468 50.3169 19.7463 50.5833 19.3135L60.6112 28.5627L50.5425 38.6272Z" fill="#3B4251"/>
    <path d="M62.6313 28.53C62.6765 28.4817 62.7226 28.429 62.7726 28.3791C63.8714 27.2806 64.9695 26.1814 66.0669 25.0815C66.1824 24.9655 66.2619 24.9473 66.409 25.0278C67.3945 25.5816 68.3886 26.1181 69.3741 26.6712C70.517 27.3125 71.0202 28.4081 70.7275 29.6337C70.546 30.3952 70.0653 30.9366 69.3918 31.313C68.6555 31.725 67.9138 32.1277 67.1765 32.5381C67.0873 32.5875 67.0261 32.6111 66.9353 32.5268C65.5125 31.2078 64.0875 29.8909 62.6603 28.5762C62.6491 28.5618 62.6394 28.5464 62.6313 28.53Z" fill="#3B4251"/>
    <path opacity="0.8" d="M18.6999 67H15.7823V57.5455H18.8292C19.7463 57.5455 20.5311 57.7347 21.1836 58.1133C21.836 58.4888 22.3362 59.0289 22.6839 59.7337C23.0317 60.4354 23.2056 61.2756 23.2056 62.2543C23.2056 63.2391 23.0302 64.087 22.6793 64.7979C22.3285 65.5058 21.8176 66.0505 21.1467 66.4322C20.4757 66.8107 19.6601 67 18.6999 67ZM16.9272 65.9844H18.6261C19.4078 65.9844 20.0556 65.8336 20.5696 65.532C21.0836 65.2304 21.4667 64.801 21.7191 64.244C21.9715 63.6869 22.0976 63.0237 22.0976 62.2543C22.0976 61.491 21.973 60.8339 21.7237 60.283C21.4744 59.729 21.102 59.3043 20.6065 59.0089C20.111 58.7103 19.494 58.5611 18.7553 58.5611H16.9272V65.9844ZM27.729 67.1477C27.0889 67.1477 26.5272 66.9954 26.044 66.6907C25.5639 66.386 25.1884 65.9598 24.9176 65.4119C24.6498 64.8641 24.5159 64.224 24.5159 63.4915C24.5159 62.7528 24.6498 62.1081 24.9176 61.5572C25.1884 61.0063 25.5639 60.5785 26.044 60.2738C26.5272 59.9691 27.0889 59.8168 27.729 59.8168C28.3692 59.8168 28.9293 59.9691 29.4094 60.2738C29.8926 60.5785 30.2681 61.0063 30.5358 61.5572C30.8067 62.1081 30.9421 62.7528 30.9421 63.4915C30.9421 64.224 30.8067 64.8641 30.5358 65.4119C30.2681 65.9598 29.8926 66.386 29.4094 66.6907C28.9293 66.9954 28.3692 67.1477 27.729 67.1477ZM27.729 66.169C28.2153 66.169 28.6154 66.0444 28.9293 65.7951C29.2432 65.5458 29.4756 65.218 29.6264 64.8118C29.7772 64.4055 29.8526 63.9654 29.8526 63.4915C29.8526 63.0175 29.7772 62.5759 29.6264 62.1665C29.4756 61.7572 29.2432 61.4264 28.9293 61.174C28.6154 60.9216 28.2153 60.7955 27.729 60.7955C27.2427 60.7955 26.8426 60.9216 26.5287 61.174C26.2148 61.4264 25.9824 61.7572 25.8316 62.1665C25.6808 62.5759 25.6054 63.0175 25.6054 63.4915C25.6054 63.9654 25.6808 64.4055 25.8316 64.8118C25.9824 65.218 26.2148 65.5458 26.5287 65.7951C26.8426 66.0444 27.2427 66.169 27.729 66.169ZM33.8405 67L31.68 59.9091H32.8249L34.3575 65.3381H34.4314L35.9456 59.9091H37.109L38.6047 65.3196H38.6786L40.2112 59.9091H41.3561L39.1956 67H38.1246L36.5734 61.5526H36.4626L34.9115 67H33.8405ZM43.7559 62.7344V67H42.6665V59.9091H43.719V61.017H43.8113C43.9775 60.657 44.2299 60.3677 44.5684 60.1491C44.907 59.9276 45.344 59.8168 45.8795 59.8168C46.3596 59.8168 46.7797 59.9152 47.1398 60.1122C47.4999 60.3061 47.78 60.6016 47.98 60.9986C48.1801 61.3925 48.2801 61.8911 48.2801 62.4943V67H47.1906V62.5682C47.1906 62.0111 47.046 61.5772 46.7567 61.2663C46.4674 60.9524 46.0703 60.7955 45.5656 60.7955C45.2178 60.7955 44.907 60.8709 44.6331 61.0217C44.3622 61.1725 44.1483 61.3925 43.9914 61.6818C43.8344 61.9711 43.7559 62.322 43.7559 62.7344ZM51.2304 57.5455V67H50.1409V57.5455H51.2304ZM55.9766 67.1477C55.3364 67.1477 54.7748 66.9954 54.2916 66.6907C53.8115 66.386 53.436 65.9598 53.1652 65.4119C52.8974 64.8641 52.7635 64.224 52.7635 63.4915C52.7635 62.7528 52.8974 62.1081 53.1652 61.5572C53.436 61.0063 53.8115 60.5785 54.2916 60.2738C54.7748 59.9691 55.3364 59.8168 55.9766 59.8168C56.6167 59.8168 57.1769 59.9691 57.657 60.2738C58.1402 60.5785 58.5157 61.0063 58.7834 61.5572C59.0542 62.1081 59.1897 62.7528 59.1897 63.4915C59.1897 64.224 59.0542 64.8641 58.7834 65.4119C58.5157 65.9598 58.1402 66.386 57.657 66.6907C57.1769 66.9954 56.6167 67.1477 55.9766 67.1477ZM55.9766 66.169C56.4629 66.169 56.863 66.0444 57.1769 65.7951C57.4908 65.5458 57.7232 65.218 57.874 64.8118C58.0248 64.4055 58.1002 63.9654 58.1002 63.4915C58.1002 63.0175 58.0248 62.5759 57.874 62.1665C57.7232 61.7572 57.4908 61.4264 57.1769 61.174C56.863 60.9216 56.4629 60.7955 55.9766 60.7955C55.4903 60.7955 55.0902 60.9216 54.7763 61.174C54.4624 61.4264 54.23 61.7572 54.0792 62.1665C53.9284 62.5759 53.853 63.0175 53.853 63.4915C53.853 63.9654 53.9284 64.4055 54.0792 64.8118C54.23 65.218 54.4624 65.5458 54.7763 65.7951C55.0902 66.0444 55.4903 66.169 55.9766 66.169ZM62.8094 67.1662C62.3601 67.1662 61.9523 67.0816 61.586 66.9123C61.2198 66.7399 60.9289 66.4922 60.7135 66.169C60.4981 65.8428 60.3904 65.4489 60.3904 64.9872C60.3904 64.581 60.4704 64.2517 60.6304 63.9993C60.7905 63.7438 61.0044 63.5438 61.2721 63.3991C61.5399 63.2545 61.8353 63.1468 62.1585 63.076C62.4847 63.0021 62.8125 62.9437 63.1418 62.9006C63.5727 62.8452 63.922 62.8036 64.1897 62.7759C64.4606 62.7451 64.6575 62.6944 64.7806 62.6236C64.9068 62.5528 64.9699 62.4297 64.9699 62.2543V62.2173C64.9699 61.7618 64.8453 61.4079 64.596 61.1555C64.3498 60.9032 63.9758 60.777 63.4742 60.777C62.954 60.777 62.5463 60.8909 62.2508 61.1186C61.9553 61.3464 61.7476 61.5895 61.6276 61.848L60.5935 61.4787C60.7781 61.0478 61.0244 60.7124 61.3321 60.4723C61.643 60.2292 61.9815 60.0599 62.3477 59.9645C62.7171 59.866 63.0802 59.8168 63.4372 59.8168C63.665 59.8168 63.9266 59.8445 64.222 59.8999C64.5206 59.9522 64.8083 60.0614 65.0853 60.2276C65.3654 60.3938 65.5977 60.6446 65.7824 60.9801C65.9671 61.3156 66.0594 61.7649 66.0594 62.3281V67H64.9699V66.0398H64.9145C64.8406 66.1937 64.7175 66.3583 64.5452 66.5337C64.3728 66.7092 64.1436 66.8584 63.8573 66.9815C63.5711 67.1046 63.2218 67.1662 62.8094 67.1662ZM62.9756 66.1875C63.4065 66.1875 63.7696 66.1029 64.0651 65.9336C64.3636 65.7643 64.5883 65.5458 64.7391 65.2781C64.893 65.0103 64.9699 64.7287 64.9699 64.4332V63.4361C64.9237 63.4915 64.8222 63.5423 64.6652 63.5884C64.5113 63.6315 64.3328 63.67 64.1297 63.7038C63.9297 63.7346 63.7342 63.7623 63.5434 63.7869C63.3557 63.8085 63.2033 63.8269 63.0864 63.8423C62.8032 63.8793 62.5386 63.9393 62.2923 64.0224C62.0492 64.1024 61.8522 64.224 61.7014 64.3871C61.5537 64.5471 61.4798 64.7656 61.4798 65.0426C61.4798 65.4212 61.6199 65.7074 61.8999 65.9013C62.1831 66.0921 62.5416 66.1875 62.9756 66.1875ZM70.5955 67.1477C70.0046 67.1477 69.4829 66.9985 69.0305 66.6999C68.5781 66.3983 68.2242 65.9736 67.9687 65.4258C67.7133 64.8749 67.5856 64.224 67.5856 63.473C67.5856 62.7282 67.7133 62.0819 67.9687 61.5341C68.2242 60.9863 68.5796 60.5631 69.0351 60.2646C69.4906 59.966 70.0169 59.8168 70.614 59.8168C71.0756 59.8168 71.4403 59.8937 71.7081 60.0476C71.9789 60.1984 72.1851 60.3707 72.3267 60.5646C72.4713 60.7554 72.5837 60.9124 72.6637 61.0355H72.756V57.5455H73.8455V67H72.7929V65.9105H72.6637C72.5837 66.0398 72.4698 66.2029 72.3221 66.3999C72.1743 66.5937 71.9635 66.7676 71.6896 66.9215C71.4157 67.0723 71.051 67.1477 70.5955 67.1477ZM70.7432 66.169C71.1803 66.169 71.5496 66.0552 71.8512 65.8274C72.1528 65.5966 72.3821 65.2781 72.539 64.8718C72.696 64.4625 72.7745 63.9901 72.7745 63.4545C72.7745 62.9252 72.6975 62.462 72.5436 62.065C72.3898 61.6649 72.162 61.354 71.8604 61.1325C71.5588 60.9078 71.1864 60.7955 70.7432 60.7955C70.2816 60.7955 69.8969 60.9139 69.5891 61.1509C69.2844 61.3848 69.0551 61.7034 68.9012 62.1065C68.7504 62.5066 68.675 62.956 68.675 63.4545C68.675 63.9593 68.752 64.4179 68.9059 64.8303C69.0628 65.2396 69.2936 65.5658 69.5983 65.8089C69.9061 66.049 70.2877 66.169 70.7432 66.169ZM82.5461 59.9091V60.8324H78.7236V59.9091H82.5461ZM79.8685 67V58.9304C79.8685 58.5241 79.9639 58.1856 80.1547 57.9148C80.3456 57.6439 80.5933 57.4408 80.898 57.3054C81.2027 57.17 81.5243 57.1023 81.8628 57.1023C82.1306 57.1023 82.3491 57.1238 82.5184 57.1669C82.6877 57.21 82.8138 57.25 82.8969 57.2869L82.583 58.2287C82.5276 58.2102 82.4507 58.1871 82.3522 58.1594C82.2568 58.1317 82.1306 58.1179 81.9736 58.1179C81.6136 58.1179 81.3535 58.2087 81.1935 58.3903C81.0365 58.5719 80.958 58.8381 80.958 59.1889V67H79.8685ZM83.943 67V59.9091H84.9955V60.9801H85.0694C85.1987 60.6293 85.4326 60.3446 85.7711 60.1261C86.1096 59.9076 86.4913 59.7983 86.916 59.7983C86.996 59.7983 87.096 59.7998 87.2161 59.8029C87.3361 59.806 87.4269 59.8106 87.4884 59.8168V60.9247C87.4515 60.9155 87.3669 60.9016 87.2345 60.8832C87.1053 60.8616 86.9683 60.8509 86.8237 60.8509C86.479 60.8509 86.1712 60.9232 85.9004 61.0678C85.6326 61.2094 85.4202 61.4064 85.2633 61.6587C85.1094 61.908 85.0325 62.1927 85.0325 62.5128V67H83.943ZM91.3148 67.1477C90.6746 67.1477 90.1129 66.9954 89.6297 66.6907C89.1496 66.386 88.7742 65.9598 88.5033 65.4119C88.2356 64.8641 88.1017 64.224 88.1017 63.4915C88.1017 62.7528 88.2356 62.1081 88.5033 61.5572C88.7742 61.0063 89.1496 60.5785 89.6297 60.2738C90.1129 59.9691 90.6746 59.8168 91.3148 59.8168C91.9549 59.8168 92.515 59.9691 92.9952 60.2738C93.4783 60.5785 93.8538 61.0063 94.1216 61.5572C94.3924 62.1081 94.5278 62.7528 94.5278 63.4915C94.5278 64.224 94.3924 64.8641 94.1216 65.4119C93.8538 65.9598 93.4783 66.386 92.9952 66.6907C92.515 66.9954 91.9549 67.1477 91.3148 67.1477ZM91.3148 66.169C91.801 66.169 92.2011 66.0444 92.515 65.7951C92.829 65.5458 93.0613 65.218 93.2121 64.8118C93.3629 64.4055 93.4383 63.9654 93.4383 63.4915C93.4383 63.0175 93.3629 62.5759 93.2121 62.1665C93.0613 61.7572 92.829 61.4264 92.515 61.174C92.2011 60.9216 91.801 60.7955 91.3148 60.7955C90.8285 60.7955 90.4284 60.9216 90.1145 61.174C89.8005 61.4264 89.5682 61.7572 89.4174 62.1665C89.2666 62.5759 89.1912 63.0175 89.1912 63.4915C89.1912 63.9654 89.2666 64.4055 89.4174 64.8118C89.5682 65.218 89.8005 65.5458 90.1145 65.7951C90.4284 66.0444 90.8285 66.169 91.3148 66.169ZM96.0609 67V59.9091H97.1135V61.017H97.2058C97.3535 60.6385 97.592 60.3446 97.9214 60.1353C98.2507 59.9229 98.6461 59.8168 99.1078 59.8168C99.5756 59.8168 99.9649 59.9229 100.276 60.1353C100.59 60.3446 100.834 60.6385 101.01 61.017H101.084C101.265 60.6508 101.538 60.36 101.901 60.1445C102.264 59.926 102.699 59.8168 103.207 59.8168C103.841 59.8168 104.36 60.0153 104.763 60.4123C105.166 60.8062 105.368 61.4202 105.368 62.2543V67H104.278V62.2543C104.278 61.7311 104.135 61.3571 103.849 61.1325C103.563 60.9078 103.226 60.7955 102.838 60.7955C102.339 60.7955 101.953 60.9463 101.679 61.2479C101.405 61.5464 101.268 61.925 101.268 62.3835V67H100.16V62.1435C100.16 61.7403 100.03 61.4156 99.7679 61.1694C99.5063 60.9201 99.1693 60.7955 98.7569 60.7955C98.4738 60.7955 98.2091 60.8709 97.9629 61.0217C97.7198 61.1725 97.5228 61.3817 97.372 61.6495C97.2243 61.9142 97.1504 62.2204 97.1504 62.5682V67H96.0609Z" fill="#3B4251"/>
    <path opacity="0.8" d="M28.8915 87.0696C28.8086 86.8011 28.6943 86.5608 28.5485 86.3487C28.4059 86.1333 28.2336 85.9493 28.0314 85.7969C27.8325 85.6444 27.6039 85.5301 27.3453 85.4538C27.0868 85.3743 26.8051 85.3345 26.5002 85.3345C25.9533 85.3345 25.4661 85.4721 25.0385 85.7472C24.611 86.0223 24.2745 86.4266 24.0293 86.9602C23.7873 87.4905 23.6664 88.1368 23.6664 88.8991C23.6664 89.6681 23.7873 90.3194 24.0293 90.853C24.2712 91.3866 24.6076 91.7926 25.0385 92.071C25.4694 92.3461 25.9699 92.4837 26.5399 92.4837C27.057 92.4837 27.5044 92.3842 27.8823 92.1854C28.2634 91.9865 28.5567 91.7048 28.7622 91.3402C28.9677 90.9723 29.0705 90.5414 29.0705 90.0476L29.4881 90.1122H26.7239V88.6705H30.8553V89.8935C30.8553 90.7652 30.6697 91.5192 30.2985 92.1555C29.9272 92.7919 29.4168 93.2824 28.7672 93.6271C28.1176 93.9685 27.3718 94.1392 26.53 94.1392C25.592 94.1392 24.7684 93.9287 24.0591 93.5078C23.3531 93.0836 22.8013 92.482 22.4036 91.7031C22.0092 90.9209 21.812 89.9929 21.812 88.919C21.812 88.0971 21.928 87.3629 22.16 86.7166C22.3953 86.0703 22.7234 85.5218 23.1443 85.071C23.5653 84.617 24.0591 84.2723 24.6259 84.0369C25.1926 83.7983 25.8091 83.679 26.4753 83.679C27.0387 83.679 27.5641 83.7618 28.0513 83.9276C28.5385 84.09 28.971 84.322 29.3489 84.6236C29.73 84.9252 30.0432 85.2831 30.2885 85.6974C30.5338 86.1117 30.6945 86.5691 30.7708 87.0696H28.8915ZM35.7503 94.1491C35.0045 94.1491 34.3582 93.9851 33.8113 93.657C33.2645 93.3288 32.8402 92.8698 32.5386 92.2798C32.2403 91.6899 32.0912 91.0005 32.0912 90.2116C32.0912 89.4228 32.2403 88.7318 32.5386 88.1385C32.8402 87.5452 33.2645 87.0845 33.8113 86.7564C34.3582 86.4283 35.0045 86.2642 35.7503 86.2642C36.496 86.2642 37.1423 86.4283 37.6892 86.7564C38.236 87.0845 38.6586 87.5452 38.9569 88.1385C39.2585 88.7318 39.4093 89.4228 39.4093 90.2116C39.4093 91.0005 39.2585 91.6899 38.9569 92.2798C38.6586 92.8698 38.236 93.3288 37.6892 93.657C37.1423 93.9851 36.496 94.1491 35.7503 94.1491ZM35.7602 92.7074C36.1646 92.7074 36.5026 92.5964 36.7744 92.3743C37.0462 92.1489 37.2484 91.8473 37.3809 91.4695C37.5168 91.0916 37.5848 90.6707 37.5848 90.2067C37.5848 89.7393 37.5168 89.3168 37.3809 88.9389C37.2484 88.5578 37.0462 88.2545 36.7744 88.0291C36.5026 87.8037 36.1646 87.6911 35.7602 87.6911C35.3459 87.6911 35.0012 87.8037 34.7261 88.0291C34.4543 88.2545 34.2505 88.5578 34.1146 88.9389C33.982 89.3168 33.9157 89.7393 33.9157 90.2067C33.9157 90.6707 33.982 91.0916 34.1146 91.4695C34.2505 91.8473 34.4543 92.1489 34.7261 92.3743C35.0012 92.5964 35.3459 92.7074 35.7602 92.7074ZM44.1278 94.1491C43.3821 94.1491 42.7358 93.9851 42.1889 93.657C41.642 93.3288 41.2178 92.8698 40.9162 92.2798C40.6179 91.6899 40.4687 91.0005 40.4687 90.2116C40.4687 89.4228 40.6179 88.7318 40.9162 88.1385C41.2178 87.5452 41.642 87.0845 42.1889 86.7564C42.7358 86.4283 43.3821 86.2642 44.1278 86.2642C44.8736 86.2642 45.5199 86.4283 46.0668 86.7564C46.6136 87.0845 47.0362 87.5452 47.3345 88.1385C47.6361 88.7318 47.7869 89.4228 47.7869 90.2116C47.7869 91.0005 47.6361 91.6899 47.3345 92.2798C47.0362 92.8698 46.6136 93.3288 46.0668 93.657C45.5199 93.9851 44.8736 94.1491 44.1278 94.1491ZM44.1378 92.7074C44.5421 92.7074 44.8802 92.5964 45.152 92.3743C45.4238 92.1489 45.6259 91.8473 45.7585 91.4695C45.8944 91.0916 45.9623 90.6707 45.9623 90.2067C45.9623 89.7393 45.8944 89.3168 45.7585 88.9389C45.6259 88.5578 45.4238 88.2545 45.152 88.0291C44.8802 87.8037 44.5421 87.6911 44.1378 87.6911C43.7235 87.6911 43.3788 87.8037 43.1037 88.0291C42.8319 88.2545 42.6281 88.5578 42.4922 88.9389C42.3596 89.3168 42.2933 89.7393 42.2933 90.2067C42.2933 90.6707 42.3596 91.0916 42.4922 91.4695C42.6281 91.8473 42.8319 92.1489 43.1037 92.3743C43.3788 92.5964 43.7235 92.7074 44.1378 92.7074ZM52.4955 97.0227C51.8492 97.0227 51.294 96.9349 50.83 96.7592C50.366 96.5869 49.9931 96.3549 49.7114 96.0632C49.4297 95.7715 49.2341 95.4484 49.1247 95.0938L50.7455 94.701C50.8184 94.8501 50.9244 94.9976 51.0636 95.1435C51.2029 95.2926 51.3901 95.4152 51.6254 95.5114C51.8641 95.6108 52.164 95.6605 52.5253 95.6605C53.0357 95.6605 53.4583 95.5362 53.7931 95.2876C54.1278 95.0424 54.2952 94.638 54.2952 94.0746V92.6278H54.2057C54.1129 92.8134 53.977 93.004 53.798 93.1996C53.6224 93.3951 53.3887 93.5592 53.097 93.6918C52.8087 93.8243 52.4457 93.8906 52.0082 93.8906C51.4216 93.8906 50.8896 93.7531 50.4124 93.478C49.9384 93.1996 49.5606 92.7853 49.2788 92.2351C49.0004 91.6816 48.8612 90.9889 48.8612 90.157C48.8612 89.3184 49.0004 88.6108 49.2788 88.0341C49.5606 87.4541 49.9401 87.0149 50.4173 86.7166C50.8946 86.415 51.4266 86.2642 52.0132 86.2642C52.4607 86.2642 52.8286 86.3404 53.1169 86.4929C53.4086 86.642 53.6406 86.8227 53.8129 87.0348C53.9853 87.2436 54.1162 87.4408 54.2057 87.6264H54.3051V86.3636H56.08V94.1243C56.08 94.7772 55.9242 95.3175 55.6127 95.745C55.3011 96.1726 54.8752 96.4924 54.335 96.7045C53.7947 96.9167 53.1815 97.0227 52.4955 97.0227ZM52.5104 92.4787C52.8915 92.4787 53.2163 92.3859 53.4848 92.2003C53.7533 92.0147 53.9571 91.7479 54.0963 91.3999C54.2355 91.0518 54.3051 90.6342 54.3051 90.147C54.3051 89.6664 54.2355 89.2455 54.0963 88.8842C53.9604 88.523 53.7583 88.2429 53.4898 88.044C53.2246 87.8419 52.8982 87.7408 52.5104 87.7408C52.1093 87.7408 51.7746 87.8452 51.5061 88.054C51.2377 88.2628 51.0355 88.5495 50.8996 88.9141C50.7637 89.2753 50.6958 89.6863 50.6958 90.147C50.6958 90.6143 50.7637 91.0237 50.8996 91.375C51.0388 91.723 51.2426 91.9948 51.5111 92.1903C51.7829 92.3826 52.116 92.4787 52.5104 92.4787ZM59.5842 83.8182V94H57.7844V83.8182H59.5842ZM64.6755 94.1491C63.9099 94.1491 63.2487 93.9901 62.6919 93.6719C62.1383 93.3504 61.7124 92.8963 61.4142 92.3097C61.1159 91.7197 60.9667 91.0253 60.9667 90.2266C60.9667 89.4411 61.1159 88.7517 61.4142 88.1584C61.7158 87.5618 62.1367 87.0978 62.6769 86.7663C63.2172 86.4316 63.8519 86.2642 64.5811 86.2642C65.0517 86.2642 65.4958 86.3404 65.9134 86.4929C66.3344 86.642 66.7056 86.8741 67.0271 87.1889C67.3519 87.5038 67.6071 87.9048 67.7927 88.392C67.9783 88.8759 68.0711 89.4527 68.0711 90.1222V90.674H61.8119V89.4609H66.346C66.3427 89.1162 66.2681 88.8097 66.1222 88.5412C65.9764 88.2694 65.7726 88.0556 65.5107 87.8999C65.2522 87.7441 64.9506 87.6662 64.6059 87.6662C64.238 87.6662 63.9149 87.7557 63.6365 87.9347C63.358 88.1103 63.141 88.3423 62.9852 88.6307C62.8327 88.9157 62.7548 89.2289 62.7515 89.5703V90.6293C62.7515 91.0734 62.8327 91.4545 62.9951 91.7727C63.1575 92.0876 63.3846 92.3295 63.6762 92.4986C63.9679 92.6643 64.3093 92.7472 64.7004 92.7472C64.9622 92.7472 65.1992 92.7107 65.4113 92.6378C65.6234 92.5616 65.8074 92.4505 65.9632 92.3047C66.1189 92.1589 66.2366 91.9782 66.3161 91.7628L67.9965 91.9517C67.8905 92.3958 67.6883 92.7836 67.39 93.1151C67.095 93.4432 66.7172 93.6984 66.2565 93.8807C65.7958 94.0597 65.2688 94.1491 64.6755 94.1491ZM72.8659 94V83.8182H76.684C77.4662 83.8182 78.1225 83.964 78.6528 84.2557C79.1864 84.5473 79.5891 84.9484 79.8609 85.4588C80.136 85.9659 80.2735 86.5426 80.2735 87.1889C80.2735 87.8419 80.136 88.4219 79.8609 88.929C79.5858 89.4361 79.1798 89.8355 78.6429 90.1271C78.1059 90.4155 77.4447 90.5597 76.6592 90.5597H74.1286V89.0433H76.4106C76.868 89.0433 77.2425 88.9638 77.5342 88.8047C77.8259 88.6456 78.0413 88.4268 78.1805 88.1484C78.323 87.87 78.3943 87.5502 78.3943 87.1889C78.3943 86.8277 78.323 86.5095 78.1805 86.2344C78.0413 85.9593 77.8242 85.7455 77.5292 85.593C77.2375 85.4373 76.8614 85.3594 76.4007 85.3594H74.7103V94H72.8659ZM83.4558 83.8182V94H81.6561V83.8182H83.4558ZM87.3639 94.1541C86.88 94.1541 86.4442 94.0679 86.0564 93.8956C85.6719 93.7199 85.367 93.4614 85.1416 93.12C84.9196 92.7786 84.8085 92.3577 84.8085 91.8572C84.8085 91.4264 84.8881 91.0701 85.0472 90.7884C85.2062 90.5066 85.4233 90.2812 85.6984 90.1122C85.9735 89.9432 86.2834 89.8156 86.6281 89.7294C86.9761 89.6399 87.3357 89.5753 87.707 89.5355C88.1544 89.4891 88.5173 89.4477 88.7957 89.4112C89.0741 89.3714 89.2763 89.3118 89.4023 89.2322C89.5315 89.1494 89.5962 89.0218 89.5962 88.8494V88.8196C89.5962 88.4451 89.4851 88.1551 89.2631 87.9496C89.041 87.7441 88.7212 87.6413 88.3036 87.6413C87.8627 87.6413 87.5131 87.7375 87.2545 87.9297C86.9993 88.1219 86.827 88.349 86.7375 88.6108L85.0571 88.3722C85.1897 87.9081 85.4084 87.5204 85.7134 87.2088C86.0183 86.8939 86.3911 86.6586 86.832 86.5028C87.2728 86.3438 87.76 86.2642 88.2936 86.2642C88.6615 86.2642 89.0277 86.3073 89.3923 86.3935C89.7569 86.4796 90.09 86.6222 90.3916 86.821C90.6932 87.0166 90.9352 87.2834 91.1175 87.6214C91.3031 87.9595 91.3959 88.3821 91.3959 88.8892V94H89.6658V92.951H89.6061C89.4967 93.1631 89.3426 93.362 89.1437 93.5476C88.9482 93.7299 88.7013 93.8774 88.403 93.9901C88.108 94.0994 87.7616 94.1541 87.3639 94.1541ZM87.8312 92.8317C88.1925 92.8317 88.5057 92.7604 88.7709 92.6179C89.036 92.4721 89.2399 92.2798 89.3824 92.0412C89.5282 91.8026 89.6011 91.5424 89.6011 91.2607V90.3608C89.5448 90.4072 89.4487 90.4503 89.3128 90.4901C89.1802 90.5298 89.0311 90.5646 88.8653 90.5945C88.6996 90.6243 88.5356 90.6508 88.3732 90.674C88.2107 90.6972 88.0699 90.7171 87.9506 90.7337C87.6821 90.7701 87.4418 90.8298 87.2297 90.9126C87.0176 90.9955 86.8502 91.1115 86.7276 91.2607C86.6049 91.4065 86.5436 91.5954 86.5436 91.8274C86.5436 92.1589 86.6646 92.4091 86.9065 92.5781C87.1485 92.7472 87.4567 92.8317 87.8312 92.8317ZM93.9107 96.8636C93.6654 96.8636 93.4384 96.8438 93.2296 96.804C93.0241 96.7675 92.86 96.7244 92.7374 96.6747L93.155 95.2727C93.4169 95.349 93.6505 95.3854 93.856 95.3821C94.0615 95.3788 94.2421 95.3142 94.3979 95.1882C94.557 95.0656 94.6912 94.8601 94.8006 94.5717L94.9547 94.1591L92.1856 86.3636H94.0947L95.8546 92.1307H95.9341L97.6991 86.3636H99.6131L96.5556 94.9247C96.4131 95.3291 96.2242 95.6754 95.9888 95.9638C95.7535 96.2554 95.4652 96.4775 95.1238 96.63C94.7857 96.7857 94.3814 96.8636 93.9107 96.8636Z" fill="#3B4251"/>
    <rect x="1" y="0.5" width="119" height="116" rx="7.5" stroke="#4C88FF" stroke-opacity="0.1"/>
</svg>
