<svg width="120" height="89" viewBox="0 0 120 89" fill="none" xmlns="http://www.w3.org/2000/svg">
    <path d="M52.0983 38.9998C51.7954 38.8983 51.4925 38.7973 51.1907 38.6937C51.153 38.677 51.117 38.6567 51.0833 38.633L61.1751 28.5411L65.2691 32.3183C64.7535 32.6034 64.26 32.8773 63.7653 33.1496C60.4968 34.9538 57.227 36.7549 53.956 38.553C53.5929 38.7517 53.1767 38.8532 52.7852 38.9998H52.0983Z" fill="#3B4251"/>
    <path d="M52.7857 17.0023C53.5644 17.1414 54.2089 17.5796 54.8802 17.9502C58.0066 19.6713 61.1312 21.3954 64.254 23.1226C64.3158 23.1564 64.3759 23.194 64.4151 23.2171L61.0639 26.5737L51.0972 17.3761C51.4194 17.1467 51.79 17.0995 52.1412 17.0001L52.7857 17.0023Z" fill="#3B4251"/>
    <path d="M50.0425 37.6273C49.7868 37.1976 49.6912 36.7282 49.6912 36.2309C49.6912 32.6079 49.6912 28.9848 49.6912 25.3614C49.6912 23.4932 49.6912 21.6244 49.6912 19.7551C49.6808 19.2469 49.8169 18.7465 50.0833 18.3136L60.1112 27.5628L50.0425 37.6273Z" fill="#3B4251"/>
    <path d="M62.1316 27.5306C62.1767 27.4823 62.2229 27.4296 62.2728 27.3797C63.3717 26.2812 64.4698 25.1821 65.5672 24.0822C65.6826 23.9662 65.7621 23.9479 65.9093 24.0285C66.8948 24.5822 67.8889 25.1187 68.8744 25.6718C70.0172 26.3131 70.5204 27.4087 70.2277 28.6343C70.0462 29.3958 69.5655 29.9372 68.8921 30.3136C68.1558 30.7256 67.4141 31.1284 66.6767 31.5387C66.5876 31.5881 66.5263 31.6117 66.4356 31.5274C65.0127 30.2084 63.5877 28.8915 62.1606 27.5768C62.1493 27.5624 62.1396 27.547 62.1316 27.5306Z" fill="#3B4251"/>
    <path opacity="0.8" d="M28.3915 60.0695C28.3086 59.801 28.1943 59.5607 28.0485 59.3486C27.9059 59.1332 27.7336 58.9492 27.5314 58.7968C27.3325 58.6443 27.1039 58.5299 26.8453 58.4537C26.5868 58.3742 26.3051 58.3344 26.0002 58.3344C25.4533 58.3344 24.9661 58.4719 24.5385 58.747C24.111 59.0221 23.7745 59.4265 23.5293 59.9601C23.2873 60.4904 23.1664 61.1367 23.1664 61.899C23.1664 62.668 23.2873 63.3192 23.5293 63.8529C23.7712 64.3865 24.1076 64.7925 24.5385 65.0709C24.9694 65.346 25.4699 65.4835 26.0399 65.4835C26.557 65.4835 27.0044 65.3841 27.3823 65.1852C27.7634 64.9864 28.0567 64.7047 28.2622 64.3401C28.4677 63.9722 28.5705 63.5413 28.5705 63.0475L28.9881 63.1121H26.2239V61.6703H30.3553V62.8933C30.3553 63.765 30.1697 64.5191 29.7985 65.1554C29.4272 65.7918 28.9168 66.2823 28.2672 66.627C27.6176 66.9684 26.8718 67.1391 26.03 67.1391C25.092 67.1391 24.2684 66.9286 23.5591 66.5077C22.8531 66.0834 22.3013 65.4819 21.9036 64.703C21.5092 63.9208 21.312 62.9928 21.312 61.9189C21.312 61.0969 21.428 60.3628 21.66 59.7165C21.8953 59.0702 22.2234 58.5217 22.6443 58.0709C23.0653 57.6168 23.5591 57.2721 24.1259 57.0368C24.6926 56.7982 25.3091 56.6789 25.9753 56.6789C26.5387 56.6789 27.0641 56.7617 27.5513 56.9274C28.0385 57.0898 28.471 57.3218 28.8489 57.6235C29.23 57.9251 29.5432 58.283 29.7885 58.6973C30.0338 59.1116 30.1945 59.569 30.2708 60.0695H28.3915ZM35.2503 67.149C34.5045 67.149 33.8582 66.985 33.3113 66.6568C32.7645 66.3287 32.3402 65.8697 32.0386 65.2797C31.7403 64.6897 31.5912 64.0004 31.5912 63.2115C31.5912 62.4227 31.7403 61.7316 32.0386 61.1384C32.3402 60.5451 32.7645 60.0844 33.3113 59.7563C33.8582 59.4281 34.5045 59.2641 35.2503 59.2641C35.996 59.2641 36.6423 59.4281 37.1892 59.7563C37.736 60.0844 38.1586 60.5451 38.4569 61.1384C38.7585 61.7316 38.9093 62.4227 38.9093 63.2115C38.9093 64.0004 38.7585 64.6897 38.4569 65.2797C38.1586 65.8697 37.736 66.3287 37.1892 66.6568C36.6423 66.985 35.996 67.149 35.2503 67.149ZM35.2602 65.7073C35.6646 65.7073 36.0026 65.5962 36.2744 65.3742C36.5462 65.1488 36.7484 64.8472 36.8809 64.4693C37.0168 64.0915 37.0848 63.6706 37.0848 63.2066C37.0848 62.7392 37.0168 62.3166 36.8809 61.9388C36.7484 61.5576 36.5462 61.2544 36.2744 61.029C36.0026 60.8036 35.6646 60.6909 35.2602 60.6909C34.8459 60.6909 34.5012 60.8036 34.2261 61.029C33.9543 61.2544 33.7505 61.5576 33.6146 61.9388C33.482 62.3166 33.4157 62.7392 33.4157 63.2066C33.4157 63.6706 33.482 64.0915 33.6146 64.4693C33.7505 64.8472 33.9543 65.1488 34.2261 65.3742C34.5012 65.5962 34.8459 65.7073 35.2602 65.7073ZM43.6278 67.149C42.8821 67.149 42.2358 66.985 41.6889 66.6568C41.142 66.3287 40.7178 65.8697 40.4162 65.2797C40.1179 64.6897 39.9687 64.0004 39.9687 63.2115C39.9687 62.4227 40.1179 61.7316 40.4162 61.1384C40.7178 60.5451 41.142 60.0844 41.6889 59.7563C42.2358 59.4281 42.8821 59.2641 43.6278 59.2641C44.3736 59.2641 45.0199 59.4281 45.5668 59.7563C46.1136 60.0844 46.5362 60.5451 46.8345 61.1384C47.1361 61.7316 47.2869 62.4227 47.2869 63.2115C47.2869 64.0004 47.1361 64.6897 46.8345 65.2797C46.5362 65.8697 46.1136 66.3287 45.5668 66.6568C45.0199 66.985 44.3736 67.149 43.6278 67.149ZM43.6378 65.7073C44.0421 65.7073 44.3802 65.5962 44.652 65.3742C44.9238 65.1488 45.1259 64.8472 45.2585 64.4693C45.3944 64.0915 45.4623 63.6706 45.4623 63.2066C45.4623 62.7392 45.3944 62.3166 45.2585 61.9388C45.1259 61.5576 44.9238 61.2544 44.652 61.029C44.3802 60.8036 44.0421 60.6909 43.6378 60.6909C43.2235 60.6909 42.8788 60.8036 42.6037 61.029C42.3319 61.2544 42.1281 61.5576 41.9922 61.9388C41.8596 62.3166 41.7933 62.7392 41.7933 63.2066C41.7933 63.6706 41.8596 64.0915 41.9922 64.4693C42.1281 64.8472 42.3319 65.1488 42.6037 65.3742C42.8788 65.5962 43.2235 65.7073 43.6378 65.7073ZM51.9955 70.0226C51.3492 70.0226 50.794 69.9348 50.33 69.7591C49.866 69.5868 49.4931 69.3548 49.2114 69.0631C48.9297 68.7714 48.7341 68.4483 48.6247 68.0936L50.2455 67.7009C50.3184 67.85 50.4244 67.9975 50.5636 68.1433C50.7029 68.2925 50.8901 68.4151 51.1254 68.5112C51.3641 68.6107 51.664 68.6604 52.0253 68.6604C52.5357 68.6604 52.9583 68.5361 53.2931 68.2875C53.6278 68.0423 53.7952 67.6379 53.7952 67.0745V65.6277H53.7057C53.6129 65.8133 53.477 66.0039 53.298 66.1995C53.1224 66.395 52.8887 66.5591 52.597 66.6916C52.3087 66.8242 51.9457 66.8905 51.5082 66.8905C50.9216 66.8905 50.3896 66.753 49.9124 66.4779C49.4384 66.1995 49.0606 65.7852 48.7788 65.235C48.5004 64.6815 48.3612 63.9888 48.3612 63.1568C48.3612 62.3183 48.5004 61.6107 48.7788 61.034C49.0606 60.4539 49.4401 60.0148 49.9173 59.7165C50.3946 59.4149 50.9266 59.2641 51.5132 59.2641C51.9607 59.2641 52.3286 59.3403 52.6169 59.4928C52.9086 59.6419 53.1406 59.8226 53.3129 60.0347C53.4853 60.2435 53.6162 60.4407 53.7057 60.6263H53.8051V59.3635H55.58V67.1242C55.58 67.7771 55.4242 68.3173 55.1127 68.7449C54.8011 69.1725 54.3752 69.4923 53.835 69.7044C53.2947 69.9165 52.6815 70.0226 51.9955 70.0226ZM52.0104 65.4786C52.3915 65.4786 52.7163 65.3858 52.9848 65.2002C53.2533 65.0146 53.4571 64.7477 53.5963 64.3997C53.7355 64.0517 53.8051 63.6341 53.8051 63.1469C53.8051 62.6663 53.7355 62.2454 53.5963 61.8841C53.4604 61.5228 53.2583 61.2428 52.9898 61.0439C52.7246 60.8417 52.3982 60.7406 52.0104 60.7406C51.6093 60.7406 51.2746 60.845 51.0061 61.0539C50.7377 61.2627 50.5355 61.5494 50.3996 61.9139C50.2637 62.2752 50.1958 62.6862 50.1958 63.1469C50.1958 63.6142 50.2637 64.0236 50.3996 64.3749C50.5388 64.7229 50.7426 64.9947 51.0111 65.1902C51.2829 65.3825 51.616 65.4786 52.0104 65.4786ZM59.0842 56.8181V66.9999H57.2844V56.8181H59.0842ZM64.1755 67.149C63.4099 67.149 62.7487 66.9899 62.1919 66.6718C61.6383 66.3503 61.2124 65.8962 60.9142 65.3095C60.6159 64.7196 60.4667 64.0252 60.4667 63.2264C60.4667 62.4409 60.6159 61.7515 60.9142 61.1583C61.2158 60.5617 61.6367 60.0977 62.1769 59.7662C62.7172 59.4315 63.3519 59.2641 64.0811 59.2641C64.5517 59.2641 64.9958 59.3403 65.4134 59.4928C65.8344 59.6419 66.2056 59.8739 66.5271 60.1888C66.8519 60.5037 67.1071 60.9047 67.2927 61.3919C67.4783 61.8758 67.5711 62.4525 67.5711 63.122V63.6739H61.3119V62.4608H65.846C65.8427 62.1161 65.7681 61.8095 65.6222 61.5411C65.4764 61.2693 65.2726 61.0555 65.0107 60.8997C64.7522 60.744 64.4506 60.6661 64.1059 60.6661C63.738 60.6661 63.4149 60.7556 63.1365 60.9345C62.858 61.1102 62.641 61.3422 62.4852 61.6306C62.3327 61.9156 62.2548 62.2288 62.2515 62.5702V63.6291C62.2515 64.0733 62.3327 64.4544 62.4951 64.7726C62.6575 65.0875 62.8846 65.3294 63.1762 65.4985C63.4679 65.6642 63.8093 65.747 64.2004 65.747C64.4622 65.747 64.6992 65.7106 64.9113 65.6377C65.1234 65.5614 65.3074 65.4504 65.4632 65.3046C65.6189 65.1587 65.7366 64.9781 65.8161 64.7627L67.4965 64.9516C67.3905 65.3957 67.1883 65.7835 66.89 66.1149C66.595 66.4431 66.2172 66.6983 65.7565 66.8806C65.2958 67.0595 64.7688 67.149 64.1755 67.149ZM72.3659 66.9999V56.8181H76.184C76.9662 56.8181 77.6225 56.9639 78.1528 57.2556C78.6864 57.5472 79.0891 57.9483 79.3609 58.4587C79.636 58.9658 79.7735 59.5425 79.7735 60.1888C79.7735 60.8417 79.636 61.4218 79.3609 61.9289C79.0858 62.436 78.6798 62.8353 78.1429 63.127C77.6059 63.4154 76.9447 63.5595 76.1592 63.5595H73.6286V62.0432H75.9106C76.368 62.0432 76.7425 61.9637 77.0342 61.8046C77.3259 61.6455 77.5413 61.4267 77.6805 61.1483C77.823 60.8699 77.8943 60.5501 77.8943 60.1888C77.8943 59.8275 77.823 59.5093 77.6805 59.2343C77.5413 58.9592 77.3242 58.7454 77.0292 58.5929C76.7375 58.4371 76.3614 58.3593 75.9007 58.3593H74.2103V66.9999H72.3659ZM82.9558 56.8181V66.9999H81.1561V56.8181H82.9558ZM86.8639 67.154C86.38 67.154 85.9442 67.0678 85.5564 66.8955C85.1719 66.7198 84.867 66.4613 84.6416 66.1199C84.4196 65.7785 84.3085 65.3576 84.3085 64.8571C84.3085 64.4263 84.3881 64.07 84.5472 63.7882C84.7062 63.5065 84.9233 63.2811 85.1984 63.1121C85.4735 62.9431 85.7834 62.8155 86.1281 62.7293C86.4761 62.6398 86.8357 62.5752 87.207 62.5354C87.6544 62.489 88.0173 62.4476 88.2957 62.4111C88.5741 62.3713 88.7763 62.3117 88.9023 62.2321C89.0315 62.1493 89.0962 62.0217 89.0962 61.8493V61.8195C89.0962 61.445 88.9851 61.1549 88.7631 60.9495C88.541 60.744 88.2212 60.6412 87.8036 60.6412C87.3627 60.6412 87.0131 60.7373 86.7545 60.9296C86.4993 61.1218 86.327 61.3488 86.2375 61.6107L84.5571 61.372C84.6897 60.908 84.9084 60.5202 85.2134 60.2087C85.5183 59.8938 85.8911 59.6585 86.332 59.5027C86.7728 59.3436 87.26 59.2641 87.7936 59.2641C88.1615 59.2641 88.5277 59.3072 88.8923 59.3933C89.2569 59.4795 89.59 59.622 89.8916 59.8209C90.1932 60.0164 90.4352 60.2833 90.6175 60.6213C90.8031 60.9594 90.8959 61.382 90.8959 61.8891V66.9999H89.1658V65.9509H89.1061C88.9967 66.163 88.8426 66.3619 88.6437 66.5475C88.4482 66.7298 88.2013 66.8772 87.903 66.9899C87.608 67.0993 87.2616 67.154 86.8639 67.154ZM87.3312 65.8316C87.6925 65.8316 88.0057 65.7603 88.2709 65.6178C88.536 65.4719 88.7399 65.2797 88.8824 65.0411C89.0282 64.8024 89.1011 64.5423 89.1011 64.2605V63.3607C89.0448 63.4071 88.9487 63.4502 88.8128 63.4899C88.6802 63.5297 88.5311 63.5645 88.3653 63.5943C88.1996 63.6242 88.0356 63.6507 87.8732 63.6739C87.7107 63.6971 87.5699 63.717 87.4506 63.7335C87.1821 63.77 86.9418 63.8297 86.7297 63.9125C86.5176 63.9954 86.3502 64.1114 86.2276 64.2605C86.1049 64.4064 86.0436 64.5953 86.0436 64.8273C86.0436 65.1587 86.1646 65.409 86.4065 65.578C86.6485 65.747 86.9567 65.8316 87.3312 65.8316ZM93.4107 69.8635C93.1654 69.8635 92.9384 69.8436 92.7296 69.8039C92.5241 69.7674 92.36 69.7243 92.2374 69.6746L92.655 68.2726C92.9169 68.3488 93.1505 68.3853 93.356 68.382C93.5615 68.3787 93.7421 68.314 93.8979 68.1881C94.057 68.0655 94.1912 67.86 94.3006 67.5716L94.4547 67.159L91.6856 59.3635H93.5947L95.3546 65.1306H95.4341L97.1991 59.3635H99.1131L96.0556 67.9246C95.9131 68.3289 95.7242 68.6753 95.4888 68.9637C95.2535 69.2553 94.9652 69.4774 94.6238 69.6298C94.2857 69.7856 93.8814 69.8635 93.4107 69.8635Z" fill="#3B4251"/>
    <rect x="0.5" y="0.5" width="119" height="88" rx="7.5" stroke="#4C88FF" stroke-opacity="0.2"/>
</svg>
