<svg width="18" height="18" viewBox="0 0 18 18" fill="none" xmlns="http://www.w3.org/2000/svg">
<g clip-path="url(#clip0_5543_53699)">
<path fill-rule="evenodd" clip-rule="evenodd" d="M16.5052 13.9671C17.4875 12.4826 18.0077 10.7403 17.9999 8.96027C17.9947 7.7784 17.7567 6.60912 17.2996 5.51916C16.8425 4.42922 16.1752 3.44001 15.3358 2.60797C14.4963 1.77593 13.5013 1.11739 12.4073 0.669925C11.3134 0.222463 10.142 -0.00514756 8.96014 8.83206e-05C7.1801 0.00797386 5.44243 0.543513 3.96679 1.53898C2.49115 2.53445 1.34383 3.94514 0.669926 5.59267C-0.00397305 7.24017 -0.174195 9.05049 0.180788 10.7949C0.535771 12.5391 1.40001 14.1389 2.66423 15.392C3.92845 16.645 5.53586 17.4952 7.2832 17.8348C9.03051 18.1742 10.8393 17.988 12.4808 17.2996C14.1223 16.6112 15.5228 15.4514 16.5052 13.9671ZM15.9447 13.5951C16.8527 12.2217 17.333 10.6099 17.3249 8.96353C17.3137 6.75664 16.4266 4.64449 14.8587 3.09136C13.2907 1.53823 11.1703 0.671242 8.96341 0.680953C7.31699 0.688453 5.70982 1.18404 4.34511 2.10502C2.98039 3.026 1.91947 4.33101 1.2965 5.855C0.673526 7.37901 0.516497 9.05346 0.845269 10.6667C1.17405 12.28 1.97385 13.7595 3.14354 14.9181C4.31323 16.0768 5.80025 16.8625 7.41651 17.176C9.03276 17.4894 10.7058 17.3165 12.2237 16.6792C13.7418 16.0418 15.0367 14.9684 15.9447 13.5951Z" fill="white"/>
<path d="M13.9332 8.55668C13.9336 8.62567 13.9135 8.69331 13.8755 8.75089C13.8375 8.80848 13.7832 8.85348 13.7196 8.88028C13.6559 8.90702 13.5858 8.91433 13.5181 8.90122C13.4503 8.88817 13.388 8.85524 13.339 8.80672C13.2899 8.7582 13.2563 8.69624 13.2424 8.62861C13.2286 8.56104 13.2351 8.49087 13.2612 8.42696C13.2872 8.36304 13.3316 8.30833 13.3887 8.26965C13.446 8.23098 13.5133 8.21011 13.5823 8.20972C13.6749 8.20939 13.7636 8.24572 13.8295 8.31074C13.8952 8.37576 13.9325 8.46419 13.9332 8.55668Z" fill="white"/>
<path fill-rule="evenodd" clip-rule="evenodd" d="M11.3726 5.35807C12.0017 5.6066 12.6229 5.85203 13.2223 6.0255C16.4191 6.89614 16.0967 8.64422 14.5264 10.1052C14.3018 10.3369 14.0684 10.5605 13.8594 10.7607L13.8593 10.7608C13.7083 10.9054 13.5702 11.0378 13.4572 11.1522C12.2611 12.3712 10.1291 14.7568 10.4754 17.1926C10.4771 17.1969 10.478 17.1992 10.478 17.1992C10.3947 17.2169 10.3118 17.2331 10.2295 17.248C7.04998 17.8972 3.61456 16.0776 2.15234 13.7361C2.86623 12.1365 2.98267 10.73 3.13515 8.88813C3.14245 8.80002 3.14982 8.71094 3.15735 8.62081C3.28207 6.82759 3.79285 5.33966 6.85257 4.49681C7.55627 4.32529 8.28931 4.38724 9.03149 4.56203C9.70388 4.4029 10.4819 4.39377 10.896 4.75312C11.1811 4.99508 11.3219 5.19333 11.3584 5.35246L11.3726 5.35807ZM9.43064 6.95092C9.43073 7.26931 9.33641 7.58052 9.15965 7.84531C8.98296 8.11003 8.73168 8.31643 8.43761 8.43839C8.14355 8.56035 7.81994 8.59231 7.50768 8.53035C7.19542 8.46839 6.90853 8.3152 6.68333 8.0902C6.45817 7.8652 6.30475 7.57843 6.24253 7.26624C6.18029 6.95405 6.21204 6.63037 6.33374 6.33625C6.45545 6.04208 6.66161 5.79062 6.92627 5.61365C7.19092 5.43669 7.50207 5.34216 7.8204 5.34203C8.24705 5.34203 8.65622 5.51143 8.95805 5.813C9.25991 6.11458 9.42956 6.52362 9.42992 6.95026L9.43064 6.95092ZM13.8087 10.2098C14.2991 9.96851 14.7811 9.69527 15.1861 9.32609L15.1684 9.30593C14.7445 9.64505 14.2521 9.8831 13.7545 10.0885C13.2572 10.2948 12.7417 10.4542 12.2147 10.5646C11.6931 10.6676 11.1614 10.7114 10.63 10.6951C10.1056 10.6801 9.57869 10.5757 9.12212 10.2796L9.10448 10.2998C9.4769 10.7211 10.0515 10.9123 10.6137 10.9631C11.1758 11.014 11.7309 10.9103 12.263 10.7727C12.7947 10.6337 13.3121 10.4453 13.8087 10.2098Z" fill="white"/>
<path d="M9.03174 4.55945C9.45105 4.58945 10.9674 5.08117 11.3587 5.34988C11.0325 4.40422 9.93498 4.27836 9.03174 4.55945Z" fill="white"/>
<path d="M8.95287 6.9654C8.95287 7.18935 8.8864 7.40823 8.76204 7.59443C8.63761 7.78062 8.4608 7.92573 8.25393 8.01142C8.04706 8.09712 7.81939 8.11955 7.5998 8.07585C7.38014 8.03216 7.17843 7.92436 7.02008 7.76601C6.86173 7.60767 6.75393 7.40595 6.71024 7.18629C6.66654 6.9667 6.68897 6.73903 6.77467 6.53217C6.86037 6.32528 7.00547 6.14846 7.19166 6.02406C7.37787 5.89965 7.59674 5.83325 7.82069 5.83325C8.12095 5.83325 8.40889 5.95254 8.62123 6.16486C8.83358 6.37719 8.95287 6.66514 8.95287 6.9654Z" fill="white"/>
</g>
<defs>
<clipPath id="clip0_5543_53699">
<rect width="18" height="18" fill="white"/>
</clipPath>
</defs>
</svg>
