<svg width="18" height="18" viewBox="0 0 18 18" fill="none" xmlns="http://www.w3.org/2000/svg">
<path d="M15.6561 10.7617C15.3373 10.9535 14.9654 10.9884 14.6821 10.8314C14.3278 10.6221 14.1153 10.1512 14.1153 9.5058V7.53488C14.1153 6.59302 13.7434 5.91279 13.1058 5.73837C12.0254 5.42442 11.2108 6.73256 10.9097 7.22092L8.99695 10.2384V6.52325C8.97924 5.66861 8.69587 5.1628 8.16456 5.00582C7.81034 4.90117 7.27903 4.95349 6.76543 5.72093L2.49719 12.4535C1.93045 11.3895 1.62937 10.2035 1.62937 9C1.62937 4.93605 4.94123 1.63953 8.99695 1.63953C13.0527 1.63953 16.3645 4.93605 16.3645 9V9.01746V9.03492C16.4 9.81981 16.152 10.4477 15.6561 10.7617ZM17.9939 9V8.98256V8.96512C17.9761 4.02907 13.9382 0 8.99695 0C4.038 0 0 4.02907 0 9C0 13.9535 4.038 18 8.99695 18C11.2816 18 13.4423 17.1454 15.107 15.593C15.4436 15.279 15.4613 14.7732 15.1425 14.4418C14.8415 14.1105 14.3278 14.093 13.9913 14.3896C13.9913 14.3896 13.9913 14.3896 13.9736 14.407C12.6276 15.6628 10.8211 16.3779 8.96152 16.3779C6.78314 16.3779 4.83497 15.4361 3.48898 13.936L7.33216 7.86628V10.6745C7.33216 12.0174 7.86348 12.4535 8.30623 12.5756C8.749 12.6977 9.42201 12.6104 10.1481 11.4767L12.2557 8.11047C12.3265 8.00581 12.3797 7.90116 12.4505 7.83139V9.54072C12.4505 10.7965 12.9641 11.8082 13.8496 12.2965C14.6466 12.75 15.6561 12.6976 16.4885 12.1918C17.5157 11.5291 18.0647 10.3779 17.9939 9Z" fill="white"/>
</svg>
