<svg width="18" height="18" viewBox="0 0 18 18" fill="none" xmlns="http://www.w3.org/2000/svg">
<path d="M14.2064 3.97246C13.2355 3.51816 12.1973 3.188 11.1118 3C10.9785 3.241 10.8228 3.56516 10.7154 3.82304C9.5616 3.64951 8.41838 3.64951 7.28573 3.82304C7.17837 3.56516 7.0191 3.241 6.8846 3C5.798 3.188 4.7586 3.51937 3.78762 3.97486C1.82915 6.93437 1.29824 9.82035 1.5637 12.6654C2.86266 13.6354 4.12151 14.2247 5.35911 14.6103C5.66468 14.1897 5.93721 13.7426 6.17198 13.2715C5.72485 13.1016 5.29658 12.8919 4.89192 12.6485C4.99928 12.569 5.10428 12.4859 5.20574 12.4003C7.67385 13.5547 10.3556 13.5547 12.7942 12.4003C12.8969 12.4859 13.0019 12.569 13.1081 12.6485C12.7022 12.8931 12.2728 13.1028 11.8256 13.2728C12.0604 13.7426 12.3317 14.1909 12.6385 14.6114C13.8773 14.2258 15.1373 13.6366 16.4363 12.6654C16.7477 9.36727 15.9042 6.50779 14.2064 3.97246ZM6.50824 10.9157C5.76733 10.9157 5.15972 10.224 5.15972 9.38175C5.15972 8.53942 5.75435 7.84658 6.50824 7.84658C7.26214 7.84658 7.86975 8.53822 7.85678 9.38175C7.8579 10.224 7.26214 10.9157 6.50824 10.9157ZM11.4917 10.9157C10.7508 10.9157 10.1432 10.224 10.1432 9.38175C10.1432 8.53942 10.7378 7.84658 11.4917 7.84658C12.2456 7.84658 12.8532 8.53822 12.8402 9.38175C12.8402 10.224 12.2456 10.9157 11.4917 10.9157Z" fill="white"/>
</svg>
