<svg width="18" height="18" viewBox="0 0 18 18" fill="none" xmlns="http://www.w3.org/2000/svg">
<path d="M5.001 16.5H1.557V6.54979H5.001V16.499V16.5ZM3.261 5.02011C2.283 5.02011 1.5 4.23539 1.5 3.26151C1.5 2.28473 2.284 1.5 3.26 1.5C4.236 1.5 5.02 2.28473 5.02 3.26054C5.001 4.23539 4.217 5.02011 3.26 5.02011H3.261ZM16.481 16.5H13.611V11.6791C13.611 10.5113 13.458 9.0194 11.87 9.0194C10.244 9.0194 9.976 10.2814 9.976 11.6015V16.5H7.106V6.54979H9.784V7.88839H9.861C10.281 7.12403 11.258 6.53039 12.788 6.53039C15.945 6.53039 16.5 8.34816 16.5 11.0457L16.48 16.499L16.481 16.5Z" fill="white"/>
</svg>
