<svg width="18" height="18" viewBox="0 0 18 18" fill="none" xmlns="http://www.w3.org/2000/svg">
<path fill-rule="evenodd" clip-rule="evenodd" d="M15.4231 5.75331C16.4308 5.75331 17.25 6.58505 17.25 7.60815C17.25 8.31368 16.8564 8.92058 16.2835 9.2346C16.3154 9.42068 16.3356 9.60967 16.3356 9.8016C16.3356 12.544 13.0295 14.775 8.96572 14.775C4.90204 14.775 1.59623 12.544 1.59623 9.8016C1.59623 9.5985 1.61983 9.3978 1.65522 9.20055C1.11658 8.87775 0.75 8.2884 0.75 7.60815C0.75 6.58505 1.56919 5.75331 2.57569 5.75214C3.0542 5.75214 3.48667 5.94407 3.81325 6.25106C5.11296 5.39115 6.87967 4.85525 8.8314 4.83118L9.96878 1.17908C10.0088 1.04936 10.142 0.972458 10.2718 1.00475L13.2476 1.71674C13.4657 1.15266 14.0043 0.75 14.6371 0.75C15.4609 0.75 16.1304 1.4303 16.1304 2.26731C16.1304 3.10374 15.4609 3.78404 14.6371 3.78404C13.8133 3.78404 13.1425 3.10374 13.1425 2.26731L13.1463 2.22623L10.3849 1.56647L9.3654 4.84058C11.2288 4.90925 12.913 5.44045 14.1574 6.2763C14.4862 5.95405 14.9317 5.75331 15.4231 5.75331ZM11.6377 12.1554C11.7378 12.0532 11.7378 11.8889 11.6377 11.7879C11.5387 11.687 11.3761 11.687 11.2757 11.7879C10.828 12.2411 10.0867 12.4624 9.00832 12.4624L8.99887 12.4647L8.98935 12.4624C7.9098 12.4624 7.16855 12.2411 6.7217 11.7879C6.62156 11.687 6.45899 11.687 6.36001 11.7879C6.25988 11.8889 6.25988 12.0533 6.36001 12.1542C6.90815 12.7112 7.7685 12.9812 8.98935 12.9812L8.99887 12.9789L9.00832 12.9812C10.2304 12.9812 11.0896 12.7112 11.6377 12.1554ZM6.77321 7.81298C6.68487 7.7895 6.59221 7.7766 6.49669 7.7766C5.89675 7.7766 5.40875 8.27197 5.40875 8.88127C5.40875 9.48937 5.89675 9.98475 6.49669 9.98475C7.09518 9.98595 7.58317 9.4905 7.58317 8.88127C7.58317 8.4798 7.37112 8.1276 7.05518 7.93387C6.96829 7.88107 6.87362 7.83998 6.77321 7.81298ZM11.5079 7.77773C10.908 7.77773 10.4211 8.27317 10.4211 8.8824C10.4211 9.4905 10.9091 9.98595 11.5079 9.98595C12.1067 9.98595 12.5945 9.4905 12.5945 8.8824C12.5945 8.27317 12.1078 7.77773 11.5079 7.77773Z" fill="white"/>
</svg>
