<svg width="18" height="18" viewBox="0 0 18 18" fill="none" xmlns="http://www.w3.org/2000/svg">
<path d="M17.5 4.03947C16.8614 4.30167 16.1849 4.47616 15.4918 4.55742C16.2244 4.14621 16.7696 3.50141 17.0247 2.74426C16.3431 3.12492 15.5954 3.39345 14.8147 3.53794C14.4909 3.21157 14.0975 2.95084 13.6594 2.7722C13.2213 2.59356 12.7479 2.50088 12.2692 2.5C10.34 2.5 8.78565 3.97379 8.78565 5.78078C8.78295 6.0323 8.81021 6.28332 8.86696 6.52931C5.96956 6.39589 3.40478 5.08905 1.68261 3.098C1.37027 3.60296 1.20569 4.17464 1.20513 4.75652C1.20513 5.89231 1.82674 6.89946 2.75361 7.48241C2.20118 7.46834 1.66078 7.32978 1.17926 7.07873V7.1143C1.17926 8.70851 2.387 10.0325 3.97096 10.3369C3.67309 10.4109 3.36578 10.4473 3.05739 10.445C2.83417 10.445 2.60948 10.4334 2.39809 10.3896C2.84896 11.6882 4.13061 12.6434 5.6547 12.6749C4.4269 13.5808 2.90313 14.0739 1.333 14.0734C1.05457 14.0751 0.77631 14.06 0.5 14.0282C2.08788 14.9929 3.94684 15.5047 5.84613 15.5C12.2596 15.5 15.7653 10.4998 15.7653 6.16599C15.7653 6.02094 15.7601 5.88068 15.7527 5.74178C16.4421 5.27736 17.0342 4.70049 17.5 4.03947V4.03947Z" fill="white"/>
</svg>
