<svg width="18" height="18" viewBox="0 0 18 18" fill="none" xmlns="http://www.w3.org/2000/svg">
<path fill-rule="evenodd" clip-rule="evenodd" d="M13.7738 4.08339C14.613 4.13241 15.0249 4.26189 15.4046 4.96342C15.8004 5.66423 16 6.87125 16 8.99781V9.00512C16 11.1214 15.8004 12.338 15.4053 13.0315C15.0256 13.7337 14.6137 13.861 13.7745 13.9195C12.9354 13.97 10.8276 14 9.0014 14C7.17172 14 5.06324 13.97 4.22476 13.9195C3.38767 13.8595 2.97578 13.7323 2.59261 13.0307C2.20104 12.3372 2 11.1207 2 9.00439V8.99707C2 6.87125 2.20104 5.66423 2.59261 4.96342C2.97578 4.26116 3.38837 4.13241 4.22616 4.08266C5.06324 4.02414 7.17172 4 9.0014 4C10.8276 4 12.9354 4.02414 13.7738 4.08339ZM11.6247 8.99927L7.25018 6.27286V11.7279L11.6247 8.99927V8.99927Z" fill="white"/>
</svg>
